<svg height="128" viewBox="0 0 128 128" width="128" xmlns="http://www.w3.org/2000/svg"><g transform="translate(0 -186.64999)"><path d="m294 338.64995c-6.64799 0-12 5.35202-12 11.99999v102.00002c0 6.64797 5.35201 11.99999 12 11.99999h102c6.64799 0 12-5.35202 12-11.99999v-102.00002c0-6.64797-5.35201-11.99999-12-11.99999z" fill="#4972c5" stroke-width="2.86364" transform="matrix(1 0 0 1.0000000087 -281 -150.9999594973)"/><g stroke-linecap="round" stroke-linejoin="round"><path d="m35.752395-49.111102v4h4v-4zm4 4v4h4v-4zm4 0h4v-4h-4zm0 4v4h4v-4zm-4 0h-4v4h4zm17.777778-8v4h4v-4zm4 4v4h4v-4zm4 0h4v-4h-4zm0 4v4h4v-4zm-4 0h-4v4h4zm-21.777778 13.777778v4h25.777778v-4zm25.777778 4v4h4v-4zm-25.777778 0h-4v4h4z" fill="#d7304a" stroke-width="1.77778" transform="matrix(2.2499999 0 0 2.24999992197 -54.44289 327.14999505015)"/><path d="m12.999996 188.64999h102.000004c6.094 0 11 4.906 11 11v102c0 6.094-4.906 11-11 11h-102.000004c-6.0939977 0-10.999996-4.906-10.999996-11v-102c0-6.094 4.9059983-11 10.999996-11z" fill="#5ca5ff" stroke-width="4"/><path d="m35.752406-49.111093v4h4v-4zm4 4v4h4v-4zm4 0h4.000001v-4h-4.000001zm0 4v4.000001h4.000001v-4.000001zm-4 0h-4v4.000001h4zm17.777779-8v4h4v-4zm4 4v4h4v-4zm4 0h4v-4h-4zm0 4v4.000001h4v-4.000001zm-4 0h-4v4.000001h4zm-21.777779 13.777779v4h25.777779v-4zm25.777779 4v4h4v-4zm-25.777779 0h-4v4h4z" fill="#e6f9ff" stroke-width="1.77778" transform="matrix(2.2499999 0 0 2.24999992197 -54.44291 329.14994490375)"/></g></g></svg>