<?xml version="1.0" encoding="UTF-8" standalone="no"?>
<!-- Created with Inkscape (http://www.inkscape.org/) -->

<svg
   width="32"
   height="32"
   viewBox="0 0 32 32"
   version="1.1"
   id="svg1"
   inkscape:version="1.3.2 (091e20ef0f, 2023-11-25, custom)"
   sodipodi:docname="elisa.svg"
   xmlns:inkscape="http://www.inkscape.org/namespaces/inkscape"
   xmlns:sodipodi="http://sodipodi.sourceforge.net/DTD/sodipodi-0.dtd"
   xmlns="http://www.w3.org/2000/svg"
   xmlns:svg="http://www.w3.org/2000/svg">
  <sodipodi:namedview
     id="namedview1"
     pagecolor="#ffffff"
     bordercolor="#000000"
     borderopacity="0.25"
     inkscape:showpageshadow="false"
     inkscape:pageopacity="0.0"
     inkscape:pagecheckerboard="true"
     inkscape:deskcolor="#d1d1d1"
     inkscape:document-units="px"
     inkscape:zoom="32.840404"
     inkscape:cx="22.639795"
     inkscape:cy="12.880475"
     inkscape:window-width="2560"
     inkscape:window-height="1356"
     inkscape:window-x="0"
     inkscape:window-y="0"
     inkscape:window-maximized="1"
     inkscape:current-layer="layer1" />
  <defs
     id="defs1" />
  <g
     inkscape:label="Capa 1"
     inkscape:groupmode="layer"
     id="layer1">
    <g
       id="g19"
       transform="translate(8.8971751,0.3855934)">
      <path
         inkscape:connector-curvature="0"
         style="vector-effect:none;fill:#353641;fill-opacity:1;stroke:none;stroke-width:2;stroke-linecap:round;stroke-linejoin:round;stroke-miterlimit:4;stroke-dasharray:none;stroke-dashoffset:0;stroke-opacity:1"
         d="M -6.8971741,3.6144132 H 21.102825 c 1.107998,0 1.999999,0.8920063 1.999999,2.0000127 V 25.614425 c 0,1.107969 -0.892001,1.999975 -1.999999,1.999975 H -6.8971741 c -1.108,0 -2,-0.892006 -2,-1.999975 V 5.6144259 c 0,-1.1080064 0.892,-2.0000127 2,-2.0000127 z"
         id="rect2581-4"
         sodipodi:nodetypes="sssssssss" />
      <path
         inkscape:connector-curvature="0"
         style="vector-effect:none;fill:#545665;fill-opacity:1;stroke:none;stroke-width:2;stroke-linecap:round;stroke-linejoin:round;stroke-miterlimit:4;stroke-dasharray:none;stroke-dashoffset:0;stroke-opacity:1"
         d="M -6.8971751,4.6144197 H 21.102825 c 0.553999,0 1,0.4459838 1,0.9999874 V 25.614407 c 0,0.554003 -0.446001,0.999987 -1,0.999987 l -5,1.3e-5 v -5 l -18.0000002,0.01695 1e-7,4.983051 -5,-1.3e-5 c -0.554,-10e-7 -1,-0.445984 -1,-0.999987 V 5.6144071 c 0,-0.5540036 0.446,-0.9999874 1,-0.9999874 z"
         id="rect2579-8"
         sodipodi:nodetypes="sssssccccssss" />
      <path
         id="rect1"
         style="fill:#353641;stroke-width:2;stroke-linecap:round;stroke-linejoin:round;paint-order:stroke fill markers"
         d="M -4.9440534,6.6144066 H 19.149703 c 0.528029,0 0.953122,0.4250924 0.953122,0.9531219 V 19.661285 c 0,0.528029 -0.425093,0.953122 -0.953122,0.953122 H -4.9440535 c -0.5280295,0 -0.9531219,-0.425093 -0.9531219,-0.953122 l 1e-7,-12.0937565 c 0,-0.5280295 0.4250924,-0.9531219 0.9531219,-0.9531219 z"
         sodipodi:nodetypes="sssssssss" />
      <path
         id="rect2"
         style="fill:#4db6ac;fill-opacity:1;stroke-width:2;stroke-linecap:round;stroke-linejoin:round;paint-order:stroke fill markers"
         d="M -4.8971753,7.6144066 H 19.102825 V 19.614407 H -4.8971754 Z"
         sodipodi:nodetypes="ccccc" />
      <path
         id="rect3"
         style="fill:#68afff;stroke-width:2;stroke-linecap:round;stroke-linejoin:round;paint-order:stroke fill markers"
         d="m 18.102825,8.6144066 c 0,0 0,0 0,10e-8 v 0.7288135 c 0,1e-7 0,2e-7 0,2e-7 0,0 0,-10e-8 0,-2e-7 z" />
      <path
         id="rect13"
         style="fill:#fdfbfc;stroke-width:2;stroke-linecap:round;stroke-linejoin:round;paint-order:stroke fill markers"
         d="M -4.8971753,7.6144066 H 19.102825 V 13.614407 H -4.8971754 Z"
         sodipodi:nodetypes="ccccc" />
      <path
         id="rect14"
         style="fill:#353641;stroke-width:2;stroke-linecap:round;stroke-linejoin:round;paint-order:stroke fill markers"
         d="M 0.10282493,9.6144066 H 14.102825 c 2.216,0 4,1.7840004 4,4.0000004 0,2.216 -1.784,4 -4,4 H 0.10282493 c -2.21600003,0 -4.00000003,-1.784 -4.00000003,-4 0,-2.216 1.784,-4.0000004 4.00000003,-4.0000004 z" />
      <path
         id="rect16"
         style="fill:#545665;stroke-width:2;stroke-linecap:round;stroke-linejoin:round;paint-order:stroke fill markers"
         d="M 0.10282493,10.614407 H 14.102825 c 1.662,0 3,1.338 3,3 0,1.662 -1.338,3 -3,3 H 0.10282493 c -1.66200003,0 -3.00000003,-1.338 -3.00000003,-3 0,-1.662 1.338,-3 3.00000003,-3 z" />
      <path
         id="rect6"
         style="fill:#353641;fill-opacity:1;stroke-width:2.66667;stroke-linecap:round;stroke-linejoin:round;paint-order:stroke fill markers"
         d="m 0.105558,11.614407 c 1.1079999,0 1.9999999,0.892 1.9999999,2 v 0 c 0,1.108 -0.892,2 -1.9999999,2 -1.1080001,0 -2.0000001,-0.892 -2.0000001,-2 v 0 c 0,-1.108 0.892,-2 2.0000001,-2 z" />
      <path
         id="rect6-3"
         style="fill:#353641;fill-opacity:1;stroke-width:2.66667;stroke-linecap:round;stroke-linejoin:round;paint-order:stroke fill markers"
         d="m 14.102825,11.614407 c 1.108,0 2,0.892 2,2 v 0 c 0,1.108 -0.892,2 -2,2 -1.108,0 -2,-0.892 -2,-2 v 0 c 0,-1.108 0.892,-2 2,-2 z" />
      <path
         id="rect7"
         style="fill:#353641;stroke-width:2;stroke-linecap:round;stroke-linejoin:round;paint-order:stroke fill markers"
         d="m 3.1028249,11.614407 h 8.0027331 v 4 H 3.1028249 Z"
         sodipodi:nodetypes="ccccc" />
      <path
         id="rect8"
         style="fill:#fdfbfc;fill-opacity:1;stroke-width:2;stroke-linecap:round;stroke-linejoin:round;paint-order:stroke fill markers"
         d="m 4.1028246,12.614407 h 6.0000004 v 2 H 4.1028247 Z"
         sodipodi:nodetypes="ccccc" />
      <path
         style="fill:#545665;fill-opacity:1;stroke-width:2;stroke-linecap:round;stroke-linejoin:round;paint-order:stroke fill markers"
         d="m -0.89717507,26.614408 -3e-8,-3.968751 H 15.102825 l -5e-6,3.968751 z"
         id="path8"
         sodipodi:nodetypes="ccccc" />
      <path
         id="rect9"
         style="fill:#fdfbfc;stroke-width:4;stroke-linecap:round;stroke-linejoin:round;paint-order:stroke fill markers"
         d="m 1.1028249,23.614407 c 0.554,0 1,0.446 1,1 0,0.554 -0.446,1 -1,1 -0.554,0 -1,-0.446 -1,-1 0,-0.554 0.446,-1 1,-1 z" />
      <path
         id="rect10"
         style="fill:#fdfbfc;stroke-width:4;stroke-linecap:round;stroke-linejoin:round;paint-order:stroke fill markers"
         d="m 13.102825,23.614407 c 0.554,0 1,0.446 1,1 0,0.554 -0.446,1 -1,1 -0.554,0 -1,-0.446 -1,-1 0,-0.554 0.446,-1 1,-1 z" />
      <path
         id="rect18"
         style="fill:#fdfbfc;stroke-width:2;stroke-linecap:round;stroke-linejoin:round;paint-order:stroke fill markers;fill-opacity:1"
         d="m 0.06319344,12.614407 c 0.55088038,0 0.99436896,0.443488 0.99436896,0.994368 v 0.01126 c 0,0.55088 -0.44348858,0.994369 -0.99436896,0.994369 -0.55088038,0 -0.99436891,-0.443489 -0.99436891,-0.994369 v -0.01126 c 0,-0.55088 0.44348853,-0.994368 0.99436891,-0.994368 z" />
      <path
         id="rect19"
         style="fill:#fdfbfc;stroke-width:2;stroke-linecap:round;stroke-linejoin:round;paint-order:stroke fill markers;fill-opacity:1"
         d="m 14.097194,12.614407 h 0.01126 c 0.550881,0 0.994369,0.443488 0.994369,0.994368 v 0.01126 c 0,0.55088 -0.443488,0.994369 -0.994369,0.994369 h -0.01126 c -0.55088,0 -0.994369,-0.443489 -0.994369,-0.994369 v -0.01126 c 0,-0.55088 0.443489,-0.994368 0.994369,-0.994368 z" />
    </g>
  </g>
</svg>
