<?xml version="1.0" encoding="UTF-8" standalone="no"?>
<!-- Created with Inkscape (http://www.inkscape.org/) -->

<svg
   width="32"
   height="32"
   viewBox="0 0 32 32"
   version="1.1"
   id="svg8"
   inkscape:version="1.2.2 (b0a8486541, 2022-12-01)"
   sodipodi:docname="steam.svg"
   xmlns:inkscape="http://www.inkscape.org/namespaces/inkscape"
   xmlns:sodipodi="http://sodipodi.sourceforge.net/DTD/sodipodi-0.dtd"
   xmlns="http://www.w3.org/2000/svg"
   xmlns:svg="http://www.w3.org/2000/svg"
   xmlns:rdf="http://www.w3.org/1999/02/22-rdf-syntax-ns#"
   xmlns:cc="http://creativecommons.org/ns#"
   xmlns:dc="http://purl.org/dc/elements/1.1/">
  <title
     id="title7895">Antu icon Theme</title>
  <defs
     id="defs2">
    <style
       type="text/css"
       id="current-color-scheme">
      .ColorScheme-Text {
        color:#122036;
      }
      </style>
  </defs>
  <sodipodi:namedview
     id="base"
     pagecolor="#ffffff"
     bordercolor="#666666"
     borderopacity="1.0"
     inkscape:pageopacity="0.0"
     inkscape:pageshadow="2"
     inkscape:zoom="31.678384"
     inkscape:cx="28.442107"
     inkscape:cy="14.047434"
     inkscape:document-units="px"
     inkscape:current-layer="layer1"
     showgrid="true"
     units="px"
     inkscape:window-width="2560"
     inkscape:window-height="1369"
     inkscape:window-x="0"
     inkscape:window-y="0"
     inkscape:window-maximized="1"
     objecttolerance="10"
     gridtolerance="10"
     guidetolerance="10"
     inkscape:showpageshadow="2"
     inkscape:pagecheckerboard="0"
     inkscape:deskcolor="#d1d1d1">
    <inkscape:grid
       type="xygrid"
       id="grid7897"
       empspacing="4" />
  </sodipodi:namedview>
  <metadata
     id="metadata5">
    <rdf:RDF>
      <cc:Work
         rdf:about="">
        <dc:format>image/svg+xml</dc:format>
        <dc:type
           rdf:resource="http://purl.org/dc/dcmitype/StillImage" />
        <dc:title>Antu icon Theme</dc:title>
      </cc:Work>
    </rdf:RDF>
  </metadata>
  <g
     inkscape:label="Capa 1"
     inkscape:groupmode="layer"
     id="layer1"
     transform="translate(0,-282.64999)">
    <path
       id="rect4570-9-6-0-5-3"
       d="m 16,283.64999 c 8.309999,0 14.999999,6.68993 14.999999,14.99997 0,8.31005 -6.69,15.00009 -14.999999,15.00009 -8.310001,0 -15.000001,-6.69004 -15.000001,-15.00009 0,-8.31004 6.69,-14.99997 15.000001,-14.99997 z"
       style="fill:#2063c6;fill-opacity:1;stroke:none;stroke-width:1.50236;stroke-linecap:round;stroke-linejoin:round;stroke-miterlimit:4;stroke-dasharray:none;stroke-opacity:1"
       inkscape:connector-curvature="0" />
    <path
       id="rect4570-9-6-0-5"
       d="m 16,284.64999 c 7.755999,0 13.999999,6.24393 13.999999,13.99997 0,7.75605 -6.244,14.00009 -13.999999,14.00009 -7.756001,0 -14.000001,-6.24404 -14.000001,-14.00009 0,-7.75604 6.244,-13.99997 14.000001,-13.99997 z"
       style="fill:#3980df;fill-opacity:1;stroke:none;stroke-width:1.4022;stroke-linecap:round;stroke-linejoin:round;stroke-miterlimit:4;stroke-dasharray:none;stroke-opacity:1"
       inkscape:connector-curvature="0" />
    <path
       id="path8713"
       style="fill:#d8effc;fill-opacity:1;stroke:none;stroke-width:2;stroke-linecap:round;stroke-linejoin:round"
       d="M 2.0175781 297.95077 C 2.0062914 298.1824 2 298.41547 2 298.64999 C 2 298.89237 2.0055272 299.13337 2.0175781 299.37265 C 2.029629 299.61193 2.0484527 299.84964 2.0722656 300.08554 C 2.0960786 300.32143 2.12487 300.55449 2.1601562 300.78671 C 2.1954425 301.01893 2.2367325 301.24986 2.2832031 301.47812 C 2.287096 301.49724 2.2929047 301.51566 2.296875 301.53476 L 9.0136719 304.89218 C 9.1387407 306.99389 10.86581 308.64999 13 308.64999 C 15.020317 308.64999 16.679415 307.16732 16.957031 305.22616 L 21.896484 301.63437 C 24.756691 301.43215 27 299.06342 27 296.14999 C 27 293.10299 24.546981 290.64999 21.5 290.64999 C 18.581278 290.64999 16.208335 292.90145 16.013672 295.76913 L 12.90625 300.65194 C 12.126111 300.66974 11.403925 300.91202 10.796875 301.3121 L 3.8945312 297.86093 A 2 2 0 0 0 2.3671875 297.75155 A 2 2 0 0 0 2.0175781 297.95077 z M 21.5 292.64999 C 23.43899 292.64999 25 294.21099 25 296.14999 C 25 298.08899 23.43899 299.64999 21.5 299.64999 C 19.56101 299.64999 18 298.08899 18 296.14999 C 18 294.21099 19.56101 292.64999 21.5 292.64999 z M 21.5 293.64999 C 20.115002 293.64999 19 294.76499 19 296.14999 C 19 297.53499 20.115002 298.64999 21.5 298.64999 C 22.884998 298.64999 24 297.53499 24 296.14999 C 24 294.76499 22.884998 293.64999 21.5 293.64999 z M 13 301.64999 C 14.66199 301.64999 16 302.98799 16 304.64999 C 16 306.31199 14.66199 307.64999 13 307.64999 C 11.612366 307.64999 10.453177 306.71623 10.107422 305.44101 L 12.033203 306.4039 C 12.037003 306.4059 12.041102 306.40776 12.044922 306.40976 L 12.105469 306.43905 C 12.287647 306.52985 12.486321 306.59479 12.695312 306.62655 A 2 2 0 0 0 12.708984 306.62851 C 12.804164 306.64231 12.900881 306.64999 13 306.64999 C 13.11135 306.64999 13.219871 306.63995 13.326172 306.62265 L 13.328125 306.62265 A 2 2 0 0 0 13.330078 306.62265 C 13.540314 306.58795 13.739483 306.51988 13.921875 306.42538 C 14.109282 306.32828 14.279153 306.20314 14.425781 306.05429 C 14.572485 305.90535 14.694733 305.73371 14.789062 305.54452 C 14.822222 305.47802 14.853186 305.40996 14.878906 305.33944 C 14.904406 305.26954 14.925659 305.19795 14.943359 305.1246 C 14.959299 305.0586 14.971229 304.98994 14.980469 304.92147 C 14.981272 304.91547 14.983675 304.9099 14.984375 304.9039 A 2 2 0 0 0 14.984375 304.90194 A 2 2 0 0 0 14.984375 304.89999 A 2 2 0 0 0 14.984375 304.89804 A 2 2 0 0 0 14.984375 304.89608 A 2 2 0 0 0 14.984375 304.89413 A 2 2 0 0 0 14.984375 304.89218 C 14.992275 304.82588 14.99864 304.75914 15 304.69101 C 15.000078 304.68701 14.999944 304.68299 15 304.67929 A 2 2 0 0 0 15 304.67733 A 2 2 0 0 0 15 304.67538 A 2 2 0 0 0 15 304.67343 A 2 2 0 0 0 15 304.67147 A 2 2 0 0 0 15 304.66952 C 15.000062 304.66252 15 304.65649 15 304.64999 C 15 304.58409 14.996434 304.51895 14.990234 304.45468 C 14.983434 304.38398 14.972894 304.31402 14.958984 304.24569 A 2 2 0 0 0 14.958984 304.24374 C 14.958307 304.24074 14.957731 304.23797 14.957031 304.23397 A 2 2 0 0 0 14.953125 304.21835 C 14.938895 304.15315 14.920771 304.08952 14.900391 304.02694 C 14.899391 304.02394 14.899512 304.02018 14.898438 304.01718 A 2 2 0 0 0 14.894531 304.00741 C 14.871551 303.93921 14.844343 303.87283 14.814453 303.80819 C 14.751063 303.67113 14.673405 303.54338 14.582031 303.42538 C 14.444894 303.24829 14.278235 303.09461 14.089844 302.97226 C 14.026854 302.93136 13.962192 302.89466 13.894531 302.86093 L 13.847656 302.83749 L 11.894531 301.86093 C 12.236607 301.72684 12.608827 301.64999 13 301.64999 z " />
    <g
       id="path7911">
      <path
         style="color:#000000;fill:#144488;fill-opacity:0.410714;stroke-width:4;stroke-linecap:round;stroke-linejoin:round;-inkscape-stroke:none"
         d="m 39,305.64999 10,5"
         id="path8036" />
    </g>
  </g>
</svg>
