<?xml version="1.0" encoding="UTF-8" standalone="no"?>
<!-- Created with Inkscape (http://www.inkscape.org/) -->

<svg
   width="32"
   height="32"
   viewBox="0 0 32 32"
   version="1.1"
   id="svg8"
   inkscape:version="1.2.1 (9c6d41e410, 2022-07-14)"
   sodipodi:docname="wps-office-etmain.svg"
   xmlns:inkscape="http://www.inkscape.org/namespaces/inkscape"
   xmlns:sodipodi="http://sodipodi.sourceforge.net/DTD/sodipodi-0.dtd"
   xmlns="http://www.w3.org/2000/svg"
   xmlns:svg="http://www.w3.org/2000/svg"
   xmlns:rdf="http://www.w3.org/1999/02/22-rdf-syntax-ns#"
   xmlns:cc="http://creativecommons.org/ns#"
   xmlns:dc="http://purl.org/dc/elements/1.1/">
  <title
     id="title7895">Antu icon Theme</title>
  <defs
     id="defs2" />
  <sodipodi:namedview
     id="base"
     pagecolor="#ffffff"
     bordercolor="#666666"
     borderopacity="1.0"
     inkscape:pageopacity="0.0"
     inkscape:pageshadow="2"
     inkscape:zoom="8"
     inkscape:cx="12.9375"
     inkscape:cy="33.375"
     inkscape:document-units="px"
     inkscape:current-layer="g2852"
     showgrid="true"
     units="px"
     inkscape:window-width="2160"
     inkscape:window-height="1330"
     inkscape:window-x="0"
     inkscape:window-y="0"
     inkscape:window-maximized="1"
     objecttolerance="10"
     gridtolerance="10"
     guidetolerance="10"
     inkscape:showpageshadow="2"
     inkscape:pagecheckerboard="0"
     inkscape:deskcolor="#d1d1d1">
    <inkscape:grid
       type="xygrid"
       id="grid7897"
       empspacing="4" />
  </sodipodi:namedview>
  <metadata
     id="metadata5">
    <rdf:RDF>
      <cc:Work
         rdf:about="">
        <dc:format>image/svg+xml</dc:format>
        <dc:type
           rdf:resource="http://purl.org/dc/dcmitype/StillImage" />
        <dc:title>Antu icon Theme</dc:title>
      </cc:Work>
    </rdf:RDF>
  </metadata>
  <g
     inkscape:label="Capa 1"
     inkscape:groupmode="layer"
     id="layer1"
     transform="translate(0,-282.64999)">
    <g
       id="g2852"
       transform="translate(17,-11)">
      <path
         id="rect843"
         d="M -14,294.64999 H 11.999999 C 13.108,294.64999 14,295.542 14,296.65 v 25.99998 c 0,1.108 -0.892,2.00001 -2.000001,2.00001 H -14 c -1.108,0 -2,-0.89201 -2,-2.00001 V 296.65 c 0,-1.108 0.892,-2.00001 2,-2.00001 z"
         style="opacity:1;fill:#2fa76c;fill-opacity:1;stroke:none;stroke-width:2.39314151;stroke-linecap:round;stroke-linejoin:round;stroke-miterlimit:4;stroke-dasharray:none;stroke-opacity:1"
         inkscape:connector-curvature="0" />
      <path
         id="rect843-3"
         d="M -14,295.65002 H 11.999999 C 12.554,295.65002 13,296.096 13,296.65 v 26.00001 c 0,0.55397 -0.446,0.99999 -1.000001,0.99999 H -14 c -0.554,0 -1,-0.44602 -1,-0.99999 V 296.65 c 0,-0.554 0.446,-0.99998 1,-0.99998 z"
         style="opacity:1;fill:#53d18a;fill-opacity:1;stroke:none;stroke-width:2.23359871;stroke-linecap:round;stroke-linejoin:round;stroke-miterlimit:4;stroke-dasharray:none;stroke-opacity:1"
         inkscape:connector-curvature="0" />
      <path
         id="rect30720"
         style="fill:#f5fcf8;stroke-width:2;stroke-linecap:round;stroke-linejoin:round;stroke-miterlimit:1.8;paint-order:stroke fill markers;stop-color:#000000;fill-opacity:1"
         d="M -4.5 298.64999 C -8.1009881 298.64999 -11 301.54899 -11 305.14999 C -11 308.75099 -8.1009881 311.64999 -4.5 311.64999 L -3.5039062 311.64999 L 2.5 311.64999 C 2.5865619 311.64999 2.6716128 311.65496 2.7558594 311.66366 C 2.8401063 311.67266 2.9243411 311.68417 3.0058594 311.70077 C 3.0873773 311.71737 3.1657632 311.73702 3.2441406 311.76132 C 3.3225185 311.78562 3.3997852 311.8137 3.4746094 311.8453 C 3.5494333 311.8768 3.6225013 311.9124 3.6933594 311.95077 C 3.7642173 311.98917 3.8339114 312.03097 3.9003906 312.07577 C 3.9668706 312.12057 4.0301087 312.16947 4.0917969 312.2203 C 4.1534848 312.2712 4.2130471 312.32397 4.2695312 312.38046 C 4.3260152 312.43696 4.3788198 312.4965 4.4296875 312.55819 C 4.4805554 312.61989 4.5293795 312.68312 4.5742188 312.7496 C 4.6190577 312.8161 4.6608218 312.88577 4.6992188 312.95663 C 4.7376157 313.02753 4.7731448 313.10056 4.8046875 313.17538 C 4.8362305 313.25018 4.8643959 313.32747 4.8886719 313.40585 C 4.9129479 313.48425 4.9326218 313.56261 4.9492188 313.64413 C 4.9658157 313.72563 4.9778241 313.80988 4.9863281 313.89413 C 4.9948381 313.97833 5 314.06343 5 314.14999 C 5 314.23659 4.9948301 314.3216 4.9863281 314.40585 C 4.9778281 314.49005 4.9658147 314.57433 4.9492188 314.65585 C 4.9326218 314.73735 4.9129479 314.81575 4.8886719 314.89413 C 4.8643959 314.97253 4.8362295 315.04978 4.8046875 315.1246 C 4.7731445 315.1994 4.7376154 315.27249 4.6992188 315.34335 C 4.6608218 315.41425 4.6190577 315.4839 4.5742188 315.55038 C 4.5293798 315.61688 4.4805557 315.6801 4.4296875 315.74179 C 4.3788196 315.80349 4.3260156 315.86304 4.2695312 315.91952 C 4.2130473 315.97602 4.1534848 316.02881 4.0917969 316.07968 C 4.0301089 316.13058 3.9668701 316.17938 3.9003906 316.22421 C 3.8339117 316.26901 3.7642173 316.31081 3.6933594 316.34921 C 3.6225014 316.38761 3.5494333 316.42311 3.4746094 316.45468 C 3.3997854 316.48618 3.322518 316.51436 3.2441406 316.53866 C 3.1657637 316.56296 3.0873776 316.58251 3.0058594 316.59921 C 2.9243415 316.61581 2.8401059 316.62782 2.7558594 316.63632 C 2.6716125 316.64432 2.5865622 316.64999 2.5 316.64999 L -1 316.64999 L -3.5039062 316.64999 L -4 316.64999 L -9 316.64999 C -10.107998 316.64999 -11 317.54199 -11 318.64999 C -11 319.75799 -10.107998 320.64999 -9 320.64999 L -4 320.64999 L -1 320.64999 L 2.5 320.64999 C 6.1009881 320.64999 9 317.75099 9 314.14999 C 9 310.54899 6.1009881 307.64999 2.5 307.64999 L -4.5 307.64999 C -4.5865622 307.64999 -4.6716128 307.64482 -4.7558594 307.63632 C -4.8401059 307.62781 -4.9243411 307.61581 -5.0058594 307.59921 C -5.0873776 307.58261 -5.1657632 307.56294 -5.2441406 307.53866 C -5.322518 307.51439 -5.3997852 307.48622 -5.4746094 307.45468 C -5.5494333 307.42313 -5.6225013 307.38761 -5.6933594 307.34921 C -5.7642173 307.31081 -5.8339114 307.26905 -5.9003906 307.22421 C -5.9668701 307.17937 -6.0301087 307.13055 -6.0917969 307.07968 C -6.1534848 307.02881 -6.2130471 306.97601 -6.2695312 306.91952 C -6.3260156 306.86304 -6.3788198 306.80348 -6.4296875 306.74179 C -6.4805552 306.6801 -6.5293799 306.61686 -6.5742188 306.55038 C -6.6190574 306.4839 -6.6608216 306.41421 -6.6992188 306.34335 C -6.7376157 306.27249 -6.7731446 306.19942 -6.8046875 306.1246 C -6.8362304 306.04978 -6.8643958 305.97251 -6.8886719 305.89413 C -6.912948 305.81575 -6.9326221 305.73737 -6.9492188 305.65585 C -6.9658152 305.57433 -6.9778235 305.4901 -6.9863281 305.40585 C -6.9948328 305.3216 -7 305.23655 -7 305.14999 C -7 305.06343 -6.9948328 304.97838 -6.9863281 304.89413 C -6.9778235 304.80988 -6.9658152 304.72565 -6.9492188 304.64413 C -6.9326221 304.56261 -6.912948 304.48423 -6.8886719 304.40585 C -6.8643958 304.32747 -6.8362304 304.2502 -6.8046875 304.17538 C -6.7731446 304.10056 -6.7376157 304.02749 -6.6992188 303.95663 C -6.6608216 303.88577 -6.6190574 303.81608 -6.5742188 303.7496 C -6.5293799 303.68312 -6.4805552 303.61988 -6.4296875 303.55819 C -6.3788198 303.4965 -6.3260156 303.43694 -6.2695312 303.38046 C -6.2130471 303.32397 -6.1534848 303.27117 -6.0917969 303.2203 C -6.0301087 303.16943 -5.9668701 303.12061 -5.9003906 303.07577 C -5.8339114 303.03093 -5.7642173 302.98917 -5.6933594 302.95077 C -5.6225013 302.91237 -5.5494333 302.87685 -5.4746094 302.8453 C -5.3997852 302.81376 -5.322518 302.78559 -5.2441406 302.76132 C -5.1657632 302.73704 -5.0873776 302.71737 -5.0058594 302.70077 C -4.9243411 302.68417 -4.8401059 302.67217 -4.7558594 302.66366 C -4.6716128 302.65516 -4.5865622 302.64999 -4.5 302.64999 L -1 302.64999 L 1.5039062 302.64999 L 2 302.64999 L 7 302.64999 C 8.1079978 302.64999 9 301.75799 9 300.64999 C 9 299.54199 8.1079978 298.64999 7 298.64999 L 2 298.64999 L -1 298.64999 L -4.5 298.64999 z " />
    </g>
  </g>
</svg>
