<svg height="64" viewBox="0 0 16.933333 16.933333" width="64" xmlns="http://www.w3.org/2000/svg"><defs id="kuyenfoldercolor">
    <style type="text/css" id="current-color-scheme">
      .ColorScheme-Highlight {
        color:#03b2fe;
      }
      </style>
  </defs><g stroke-linecap="round" stroke-linejoin="round" stroke-miterlimit="1.8" stroke-width="1.05833" transform="translate(0 -280.06666)"><rect fill="#363c4d" height="15.875" ry="1.322917" width="16.933332" y="280.59583"/><rect fill="#4b6477" height="15.345826" ry="1.058333" width="16.404165" x=".264584" y="280.86041"/><rect fill="#363c4d" height="13.758318" ry=".79375" width="14.816667" x="1.058333" y="281.65417"/><path d="m1.8520833 281.91873h13.2291657c.293159 0 .529167.23601.529167.52917v12.17083c0 .29316-.236008.52917-.529167.52917h-13.2291657c-.2931584 0-.5291667-.23601-.5291667-.52917v-12.17083c0-.29316.2360083-.52917.5291667-.52917z" style="fill:currentColor"
class="ColorScheme-Highlight"/><path d="m1.8520833 281.91874c-.2931581 0-.5291667.23601-.5291667.52917v12.17083c0 .29316.2360086.52917.5291667.52917h13.2291667c.293158 0 .529166-.23601.529166-.52917v-12.17083c0-.29316-.236008-.52917-.529166-.52917zm1.8520833 1.5875h5.5562499c.1465788 0 .2645833.11801.2645833.26459v4.49791c0 .14658-.1180045.26459-.2645833.26459h-5.5562499c-.1465789 0-.2645833-.11801-.2645833-.26459v-4.49791c0-.14658.1180044-.26459.2645833-.26459zm6.3499994 2.11667h3.175c.146579 0 .264584.118.264584.26458v4.49792c0 .14658-.118005.26458-.264584.26458h-5.5562495c-.1465786 0-.2645833-.118-.2645833-.26458v-1.32292h1.8520833c.7937485 0 .7937495-.79375.7937495-.79375zm-7.672916 6.35h12.170833c.146579 0 .264583.118.264583.26458v1.85209c0 .14658-.118004.26458-.264583.26458h-12.170833c-.146579 0-.2645834-.118-.2645834-.26458v-1.85209c0-.14658.1180044-.26458.2645834-.26458z" fill="#fff" fill-opacity=".3"/><path d="m3.7041665 283.50624c-.146579 0-.264583.11801-.264583.26459v4.49791c0 .14658.118004.26459.264583.26459h5.55625c.146579 0 .264583-.11801.264583-.26459v-4.49791c0-.14658-.118004-.26459-.264583-.26459zm6.3500005 2.11667v2.64583s0 .79375-.7937505.79375h-1.852083v1.32292c0 .14658.118004.26458.264583.26458h5.5562505c.146579 0 .264584-.118.264584-.26458v-4.49792c0-.14658-.118005-.26458-.264584-.26458zm-7.6729165 6.35c-.146579 0-.264584.118-.264584.26458v1.85209c0 .14658.118005.26458.264584.26458h12.1708335c.146579 0 .264583-.118.264583-.26458v-1.85209c0-.14658-.118004-.26458-.264583-.26458z" fill-opacity=".2"/></g></svg>
