<svg height="64" viewBox="0 0 16.933333 16.933333" width="64" xmlns="http://www.w3.org/2000/svg"><defs id="kuyenfoldercolor">
    <style type="text/css" id="current-color-scheme">
      .ColorScheme-Highlight {
        color:#03b2fe;
      }
      </style>
  </defs><g transform="translate(0 -280.06666)"><g transform="matrix(.26458333 0 0 .26458333 -1.5875 189.142603)"><path d="m12 345.65c-4 0-6 3-6 6v49c0 2.75269 2.2472973 5 5 5h54c2.752703 0 5-2.24731 5-5v-42c0-2.75271-2.247297-5-5-5h-27c-.305556 0-.669523-.21927-1.185547-.87109s-1.073964-1.63475-1.714844-2.66016-1.369755-2.1008-2.341797-2.96484c-.972039-.86404-2.241145-1.50391-3.757812-1.50391z" style="fill:currentColor"
class="ColorScheme-Highlight"/><path d="m12 346.64999h16.999999c5 0 6.000002 8 9.000002 8h26.999999c2.216 0 4 1.784 4 4v42c0 2.216-1.784 4-4 4h-54c-2.2159999 0-3.9999999-1.784-3.9999999-4l.0000003-48.97939c0-3.0206 1.9999996-5.02061 4.9999996-5.02061z" fill="#fff" fill-opacity=".1"/><path d="m12 345.64999c-3.9999966 0-6.0000006 3-6.0000006 6v49c0 2.75269 2.247299 5 4.9999996 5h54.000001c2.7527 0 5-2.24731 5-5v-42c0-2.75271-2.2473-5-5-5h-27c-.30556 0-.66952-.21928-1.18555-.8711-.51602-.65181-1.07396-1.63474-1.714841-2.66015-.64088-1.02541-1.36976-2.10081-2.3418-2.96485-.97204-.86403-2.24114-1.5039-3.757809-1.5039zm0 1h17c4.999989 0 6 8 9 8h27c2.215999 0 4 1.784 4 4v42c0 2.216-1.784001 4-4 4h-54.000001c-2.2159976 0-3.9999996-1.784-3.9999996-4v-48.97852c0-3.02059 2.000003-5.02148 5.0000006-5.02148z" fill-opacity=".2"/><path d="m38 353.65c-1.194444 0-2.080477.78073-2.751953 1.62891s-1.238536 1.86525-1.847656 2.83984-1.255245 1.8992-1.970703 2.53516c-.71546.63596-1.446355.99609-2.429688.99609h-18c-2.7527027 0-5 2.24729-5 5v34c0 2.75269 2.2472973 5 5 5h54c2.752703 0 5-2.24731 5-5v-42c0-2.75271-2.247297-5-5-5z" style="fill:currentColor"
class="ColorScheme-Highlight"/><path d="m37.999999 354.65c-2.999988 0-4.00002 8-9 8h-18c-2.2159913 0-4.0000001 1.78402-4.0000001 4v34c0 2.216 1.7840088 4 4.0000001 4h54c2.215988 0 3.999999-1.784 3.999999-4v-42c0-2.21598-1.784011-4-3.999999-4zm-5 18c1.962927 0 3.731295.80081 5 2.09375 1.268704-1.29294 3.037073-2.09375 5-2.09375 3.844295 0 6.940584 3.06931 6.99414 6.90039.003848.03326.005565.06559.00586.09961 0 .25319-.012984.502-.039063.74805-.195889 2.95086-1.519456 5.47963-3.46289 7.66601-2.106907 2.37029-4.922029 4.40379-7.94336 6.41797-.335902.22375-.773473.22375-1.109375 0-3.02133-2.01418-5.836452-4.04768-7.943359-6.41797-1.943436-2.18638-3.267002-4.71519-3.462891-7.66601-.025946-.24609-.039062-.49482-.039062-.74805-.000114-.03061.001206-.06156.003906-.0918.049412-3.83482 3.149128-6.9082 6.996094-6.9082z" fill="#fff" fill-opacity=".3"/><path d="m37.999998 353.65001c-1.19444 0-2.08048.78073-2.75195 1.6289-.67148.84818-1.23854 1.86526-1.84766 2.83985s-1.25524 1.89919-1.9707 2.53515-1.44636.9961-2.42969.9961h-18c-2.7527005 0-5.0000005 2.24729-5.0000005 5v34c0 2.75269 2.2473 5 5.0000005 5h54c2.7527 0 5-2.24731 5-5v-42c0-2.75271-2.2473-5-5-5zm0 1h27c2.216 0 4 1.784 4 4v42c0 2.216-1.784 4-4 4h-54c-2.2160005 0-4.0000005-1.784-4.0000005-4v-34c0-2.216 1.784-4 4.0000005-4h18c4.99999 0 6-8 9-8z" fill-opacity=".2"/></g><path d="m7.1437494 287.73959c-1.0178439 0-1.8379762.81317-1.8510498 1.8278-.0007144.008-.00106.0162-.00103.0243 0 .067.00347.13281.010335.19792.051829.78074.4020219 1.44982.9162232 2.0283.557453.62714 1.3022861 1.16516 2.1016804 1.69808.088874.0592.2046483.0592.2935224 0 .7993946-.53292 1.5442274-1.07094 2.1016804-1.69808.514201-.57848.864394-1.24755.916223-2.0283.0069-.0651.01033-.13093.01033-.19792-.000078-.009-.000582-.0176-.0016-.0264-.01417-1.01364-.833385-1.82572-1.8505225-1.82572-.5193583 0-.9872382.21188-1.3229166.55397-.3356785-.34209-.8035584-.55397-1.3229167-.55397z" fill-opacity=".2" opacity=".99"/></g></svg>
