<svg height="64" viewBox="0 0 16.933333 16.933333" width="64" xmlns="http://www.w3.org/2000/svg"><defs id="kuyenfoldercolor">
    <style type="text/css" id="current-color-scheme">
      .ColorScheme-Highlight {
        color:#03b2fe;
      }
      </style>
  </defs><g transform="translate(0 -280.06666)"><g transform="matrix(.26458333 0 0 .26458333 -1.5875 189.142599)"><path d="m12 345.65c-4 0-6 3-6 6v49c0 2.75269 2.2472973 5 5 5h54c2.752703 0 5-2.24731 5-5v-42c0-2.75271-2.247297-5-5-5h-27c-.305556 0-.669523-.21927-1.185547-.87109s-1.073964-1.63475-1.714844-2.66016-1.369755-2.1008-2.341797-2.96484c-.972039-.86404-2.241145-1.50391-3.757812-1.50391z" style="fill:currentColor"
class="ColorScheme-Highlight"/><path d="m12 346.64999h16.999999c5 0 6.000002 8 9.000002 8h26.999999c2.216 0 4 1.784 4 4v42c0 2.216-1.784 4-4 4h-54c-2.2159999 0-3.9999999-1.784-3.9999999-4l.0000003-48.97939c0-3.0206 1.9999996-5.02061 4.9999996-5.02061z" fill="#fff" fill-opacity=".1"/><path d="m12 345.64999c-3.9999966 0-6.0000006 3-6.0000006 6v49c0 2.75269 2.247299 5 4.9999996 5h54.000001c2.7527 0 5-2.24731 5-5v-42c0-2.75271-2.2473-5-5-5h-27c-.30556 0-.66952-.21928-1.18555-.8711-.51602-.65181-1.07396-1.63474-1.714841-2.66015-.64088-1.02541-1.36976-2.10081-2.3418-2.96485-.97204-.86403-2.24114-1.5039-3.757809-1.5039zm0 1h17c4.999989 0 6 8 9 8h27c2.215999 0 4 1.784 4 4v42c0 2.216-1.784001 4-4 4h-54.000001c-2.2159976 0-3.9999996-1.784-3.9999996-4v-48.97852c0-3.02059 2.000003-5.02148 5.0000006-5.02148z" fill-opacity=".2"/><path d="m38 353.65c-1.194444 0-2.080477.78073-2.751953 1.62891s-1.238536 1.86525-1.847656 2.83984-1.255245 1.8992-1.970703 2.53516c-.71546.63596-1.446355.99609-2.429688.99609h-18c-2.7527027 0-5 2.24729-5 5v34c0 2.75269 2.2472973 5 5 5h54c2.752703 0 5-2.24731 5-5v-42c0-2.75271-2.247297-5-5-5z" style="fill:currentColor"
class="ColorScheme-Highlight"/><path d="m37.999999 354.65c-2.999985 0-4.000025 8-9 8h-18c-2.215989 0-4.0000001 1.78402-4.0000001 4v34c0 2.21599 1.7840111 4 4.0000001 4h54c2.215985 0 3.999999-1.78401 3.999999-4v-42c0-2.21598-1.784014-4-3.999999-4zm-8 16c2.215997 0 4 1.78399 4 4s-1.784003 4-4 4c-2.215998 0-4-1.78399-4-4s1.784002-4 4-4zm13.982422 11c.305279-.00454.595891.13097.789062.36719l9 11c.533227.65276.069411 1.63186-.773438 1.63281h-13.999999-14c-.858425-.00098-1.316828-1.01179-.751953-1.6582l7-8c.178631-.20372.432378-.32473.703125-.33985.304796-.01474.59968.11043.800781.33985l3.808593 4.35351 6.699219-7.36914c.186123-.20409.448394-.32239.72461-.32617z" fill="#fff" fill-opacity=".3"/><path d="m37.999998 353.65001c-1.19444 0-2.08048.78073-2.75195 1.6289-.67148.84818-1.23854 1.86526-1.84766 2.83985s-1.25524 1.89919-1.9707 2.53515-1.44636.9961-2.42969.9961h-18c-2.7527005 0-5.0000005 2.24729-5.0000005 5v34c0 2.75269 2.2473 5 5.0000005 5h54c2.7527 0 5-2.24731 5-5v-42c0-2.75271-2.2473-5-5-5zm0 1h27c2.216 0 4 1.784 4 4v42c0 2.216-1.784 4-4 4h-54c-2.2160005 0-4.0000005-1.784-4.0000005-4v-34c0-2.216 1.784-4 4.0000005-4h18c4.99999 0 6-8 9-8z" fill-opacity=".2"/></g><path d="m6.3499998 287.21042c-.5863167 0-1.0583333.47201-1.0583333 1.05833s.4720166 1.05833 1.0583333 1.05833c.5863166 0 1.0583333-.47201 1.0583333-1.05833s-.4720167-1.05833-1.0583333-1.05833zm3.6997662 2.91041c-.073082.001-.1424746.0323-.1917196.0863l-1.7725017 1.94975-1.0076905-1.15186c-.053208-.0607-.1312291-.0938-.2118733-.0899-.071635.004-.1387721.036-.1860351.0899l-1.8520833 2.11666c-.1494565.17103-.028171.43848.1989542.43874h3.7041666 3.7041667c.223004-.00025.345722-.25931.204639-.43202l-2.38125-2.91042c-.05111-.0625-.128001-.0983-.208773-.0971z" fill-opacity=".2"/></g></svg>
