<svg height="64" viewBox="0 0 16.933333 16.933333" width="64" xmlns="http://www.w3.org/2000/svg"><defs id="kuyenfoldercolor">
    <style type="text/css" id="current-color-scheme">
      .ColorScheme-Highlight {
        color:#03b2fe;
      }
      </style>
  </defs><g transform="matrix(.26458333 0 0 .26458333 -1.5875 -90.924061)"><path d="m12 345.65c-4 0-6 3-6 6v49c0 2.75269 2.2472973 5 5 5h54c2.752703 0 5-2.24731 5-5v-42c0-2.75271-2.247297-5-5-5h-27c-.305556 0-.669523-.21927-1.185547-.87109s-1.073964-1.63475-1.714844-2.66016-1.369755-2.1008-2.341797-2.96484c-.972039-.86404-2.241145-1.50391-3.757812-1.50391z" style="fill:currentColor"
class="ColorScheme-Highlight"/><path d="m12 346.64999h16.999999c5 0 6.000002 8 9.000002 8h26.999999c2.216 0 4 1.784 4 4v42c0 2.216-1.784 4-4 4h-54c-2.2159999 0-3.9999999-1.784-3.9999999-4l.0000003-48.97939c0-3.0206 1.9999996-5.02061 4.9999996-5.02061z" fill="#fff" fill-opacity=".1"/><path d="m12 345.64999c-3.9999966 0-6.0000006 3-6.0000006 6v49c0 2.75269 2.247299 5 4.9999996 5h54.000001c2.7527 0 5-2.24731 5-5v-42c0-2.75271-2.2473-5-5-5h-27c-.30556 0-.66952-.21928-1.18555-.8711-.51602-.65181-1.07396-1.63474-1.714841-2.66015-.64088-1.02541-1.36976-2.10081-2.3418-2.96485-.97204-.86403-2.24114-1.5039-3.757809-1.5039zm0 1h17c4.999989 0 6 8 9 8h27c2.215999 0 4 1.784 4 4v42c0 2.216-1.784001 4-4 4h-54.000001c-2.2159976 0-3.9999996-1.784-3.9999996-4v-48.97852c0-3.02059 2.000003-5.02148 5.0000006-5.02148z" fill-opacity=".2"/><path d="m38 353.65c-1.194444 0-2.080477.78073-2.751953 1.62891s-1.238536 1.86525-1.847656 2.83984-1.255245 1.8992-1.970703 2.53516c-.71546.63596-1.446355.99609-2.429688.99609h-18c-2.7527027 0-5 2.24729-5 5v34c0 2.75269 2.2472973 5 5 5h54c2.752703 0 5-2.24731 5-5v-42c0-2.75271-2.247297-5-5-5z" style="fill:currentColor"
class="ColorScheme-Highlight"/><g fill-opacity=".2"><path d="m37.999999 354.65c-2.999982 0-4.00003 8-9 8h-18c-2.2159869 0-4.0000001 1.78402-4.0000001 4v34c0 2.21599 1.7840132 4 4.0000001 4h54c2.215982 0 3.999999-1.78401 3.999999-4v-42c0-2.21598-1.784017-4-3.999999-4zm8.908203 14h2.091797c1.090698 0 2 .90931 2 2v1.0918a1.0001 1.0001 0 0 1 -.664063.9414c-.04131.01512-.045808.01588-.066406.02344-.017484.00756-.034983.01405-.050781.02539-.03515.02268-.058912.04543-.074219.06055-.015511.01549-.035047.0402-.058594.07422a1.0001 1.0001 0 0 0 -.001953 0c-.0179.02645-.03313.05948-.044922.08593-.010091.02419-.019331.05249-.027344.0918-.007823.03855-.011718.07328-.011718.10352 0 .03099.003933.06534.011718.10351.008013.03931.017139.06912.027344.0918.011475.02721.027498.05753.044922.08398l.001953.00196c.022726.03326.043438.0591.058594.07422.015469.01549.039258.03591.074219.05859.014007.00756.02969.01588.044922.02344.021531.00756.029123.0104.078125.02929a1.0001 1.0001 0 0 1 .658203.94141v2.18359a1.0001 1.0001 0 0 1 -.664063.94141c-.04131.01512-.045808.01588-.066406.02344-.017484.00756-.034983.01405-.050781.02539-.03515.02268-.058912.04543-.074219.06054-.015511.0155-.035047.04021-.058594.07422a1.0001 1.0001 0 0 0 -.001953 0c-.0179.02646-.03313.05948-.044922.08594-.010091.02419-.019331.05249-.027344.0918-.007823.03855-.011718.07328-.011718.10351 0 .031.003933.06535.011718.10352.008013.03931.017139.06912.027344.0918.011475.02721.027498.05752.044922.08398l.001953.00195c.022726.03326.043438.0591.058594.07422.015469.0155.039258.03592.074219.0586.014007.00756.02969.01587.044922.02343.021531.00756.029123.0104.078125.0293a1.0001 1.0001 0 0 1 .658203.94141v2.18359a1.0001 1.0001 0 0 1 -.664063.94141c-.04131.01511-.045808.01588-.066406.02343-.017484.00756-.034983.01406-.050781.02539-.03515.02268-.058912.04543-.074219.06055-.015511.0155-.035047.0402-.058594.07422a1.0001 1.0001 0 0 0 -.001953 0c-.0179.02646-.03313.05948-.044922.08594-.010091.02419-.019331.05249-.027344.09179-.007823.03856-.011718.07328-.011718.10352 0 .03099.003933.06534.011718.10352.008013.0393.017139.06912.027344.09179.011475.02722.027498.05753.044922.08399l.001953.00195c.022726.03326.043438.0591.058594.07422.015469.0155.039258.03592.074219.05859.014007.00756.02969.01588.044922.02344.021531.00756.029123.0104.078125.0293a1.0001 1.0001 0 0 1 .658203.9414v2.1836a1.0001 1.0001 0 0 1 -.664063.9414c-.04131.01512-.045808.01588-.066406.02344-.017484.00756-.034983.01405-.050781.02539-.03515.02268-.058912.04543-.074219.06055-.015511.01549-.035047.0402-.058594.07422a1.0001 1.0001 0 0 0 -.001953 0c-.0179.02645-.03313.05948-.044922.08593-.010091.02419-.019331.05249-.027344.0918-.007823.03855-.011718.07328-.011718.10352 0 .03099.003933.06534.011718.10351.008013.03931.017139.06912.027344.0918.011475.02721.027498.05753.044922.08398l.001953.00196c.022726.03326.043438.0591.058594.07422.015469.01549.039258.03591.074219.05859.014007.00756.02969.01588.044922.02344.021531.00756.029123.0104.078125.02929a1.0001 1.0001 0 0 1 .658203.94141v2.18359a1.0001 1.0001 0 0 1 -.664063.94141c-.04131.01512-.045808.01588-.066406.02344-.017484.00756-.034983.01405-.050781.02539-.03515.02268-.058912.04543-.074219.06055-.015511.01549-.035047.0402-.058594.07421a1.0001 1.0001 0 0 0 -.001953 0c-.0179.02646-.03313.05949-.044922.08594-.010091.02419-.019331.05249-.027344.0918-.007823.03855-.011718.07328-.011718.10351 0 .031.003819.06497.011718.10352.008013.03931.017139.06912.027344.0918.011762.02797.028922.05948.046875.08593h-.001953c.023584.03478.044937.0591.060547.07422.015469.0155.039258.03592.074219.0586.017155.01134.03613.01991.054687.03125.021842.00756.025541.01027.06836.02539a1.0001 1.0001 0 0 1 .658203.93945v1.0918c0 1.09069-.909302 2-2 2h-2.089844a1.0001 1.0001 0 0 1 -.943359-.66602c-.013947-.03968-.016257-.0436-.023438-.0625-.00926-.0189-.016459-.03761-.027344-.05273h.001953c-.023584-.03477-.044937-.0591-.060546-.07422-.01547-.0155-.039259-.03787-.074219-.06055-.027062-.01852-.058763-.03358-.085938-.04492-.024559-.00756-.052656-.01783-.091797-.02539-.038475-.00756-.072183-.01172-.103515-.01172-.031355 0-.065044.00416-.103516.01172-.039141.00756-.06723.01405-.091797.02539-.027949.01096-.059367.02602-.085937.04492-.03515.02268-.058912.04543-.074219.06055-.015511.01549-.035047.0402-.058594.07422a1.0001 1.0001 0 0 0 -.001953 0c-.013871.02041-.024838.04373-.035156.0664-.006992.01852-.006655.0186-.017578.04883a1.0001 1.0001 0 0 1 -.941406.66602h-2.183594a1.0001 1.0001 0 0 1 -.94336-.66602c-.012926-.0359-.012312-.03969-.019531-.05859-.009864-.0189-.019382-.03775-.03125-.05664h.003906c-.023584-.03477-.044937-.0591-.060546-.07422-.01547-.0155-.039259-.03787-.074219-.06055-.027062-.01852-.058763-.03358-.085938-.04492-.024559-.00756-.052656-.01783-.091797-.02539-.038479-.00756-.072183-.01172-.103515-.01172-.031355 0-.065048.00416-.103516.01172-.039141.00756-.06723.01405-.091797.02539-.027949.01096-.059367.02602-.085937.04492-.03515.02268-.058912.04543-.074219.06055-.015511.01549-.035047.0402-.058594.07422a1.0001 1.0001 0 0 1 -.003906 0c-.010961.01512-.018537.03383-.027344.05273-.007483.02003-.009377.02282-.023437.0625a1.0001 1.0001 0 0 1 -.941406.66602h-2.183594a1.0001 1.0001 0 0 1 -.94336-.66602c-.012925-.0359-.012312-.03969-.019531-.05859-.009864-.0189-.019382-.03775-.03125-.05664h.001953c-.023584-.03477-.044937-.0591-.060547-.07422-.015469-.0155-.039258-.03787-.074218-.06055-.027062-.01852-.058763-.03358-.085938-.04492-.024559-.00756-.052656-.01783-.091797-.02539-.038479-.00756-.072183-.01172-.103515-.01172-.031359 0-.065044.00416-.103516.01172-.039141.00756-.06723.01405-.091797.02539-.027949.01096-.059367.02602-.085937.04492-.03515.02268-.058912.04543-.074219.06055-.015511.01549-.035047.0402-.058594.07422a1.0001 1.0001 0 0 0 -.001953 0c-.010961.01512-.018537.03383-.027344.05273-.007483.02003-.009377.02282-.023437.0625a1.0001 1.0001 0 0 1 -.941406.66602h-2.183594a1.0001 1.0001 0 0 1 -.943359-.66602c-.01293-.0359-.012332-.03969-.019532-.05859-.009838-.0189-.019371-.03775-.03125-.05664h.001953c-.023571-.03477-.044937-.0591-.060546-.07422-.01547-.0155-.039251-.03787-.074219-.06055-.02706-.01852-.058759-.03358-.085938-.04492-.024559-.00756-.052657-.01783-.091797-.02539-.038476-.00756-.072164-.01172-.103515-.01172-.031356 0-.065046.00416-.103516.01172-.03914.00756-.067227.01405-.091797.02539-.02795.01096-.059357.02602-.085937.04492-.03515.02268-.058899.04543-.074219.06055-.01551.01549-.035034.0402-.058594.07422a1.0001 1.0001 0 0 0 -.001953 0c-.01096.01512-.018544.03383-.027344.05273-.00748.02003-.009387.02282-.023437.0625a1.0001 1.0001 0 0 1 -.941406.66602h-2.091797c-1.090698 0-2-.90931-2-2v-1.0918a1.0001 1.0001 0 0 1 .664062-.94336c.041537-.01512.045808-.01588.066407-.02344.017332-.00756.035134-.01405.050781-.02539.035149-.02456.058911-.04347.074219-.05859.015511-.0155.035047-.0402.058593-.07422a1.0001 1.0001 0 0 0 .001953 0c.0179-.02646.03313-.05948.044922-.08594.010092-.02419.019331-.05249.027344-.09179.007824-.03856.011719-.07328.011719-.10352 0-.03137-.003933-.06496-.011719-.10352-.008013-.0393-.017139-.06911-.027344-.09179-.011762-.02759-.028922-.05948-.046875-.08594h.001953c-.023584-.03477-.044937-.0591-.060546-.07422-.0155-.01549-.039296-.03787-.074219-.06055-.016566-.01133-.034782-.01783-.052735-.02539-.021857-.00755-.026942-.01222-.070312-.02734a1.0001 1.0001 0 0 1 -.658203-.93945v-2.1836a1.0001 1.0001 0 0 1 .664062-.94336c.041537-.01511.045808-.01587.066407-.02343.017332-.00756.035134-.01406.050781-.02539.035149-.02457.058911-.04348.074219-.0586.015511-.01549.035047-.0402.058593-.07422a1.0001 1.0001 0 0 0 .001953 0c.0179-.02645.03313-.05948.044922-.08593.010092-.02419.019331-.05249.027344-.0918.007824-.03855.011719-.07328.011719-.10352 0-.03099-.003933-.06496-.011719-.10351-.008013-.03931-.017139-.06912-.027344-.0918-.011762-.02797-.028922-.05948-.046875-.08594h.001953c-.023584-.03477-.044937-.0591-.060546-.07422-.0155-.01549-.039296-.03786-.074219-.06054-.016566-.01134-.034782-.01783-.052735-.02539-.021857-.00756-.026942-.01223-.070312-.02735a1.0001 1.0001 0 0 1 -.658203-.93945v-2.18359a1.0001 1.0001 0 0 1 .664062-.94336c.041537-.01512.045808-.01588.066407-.02344.017332-.00756.035134-.01405.050781-.02539.035149-.02457.058911-.04348.074219-.05859.015511-.0155.035047-.04021.058593-.07422a1.0001 1.0001 0 0 0 .001953 0c.0179-.02646.03313-.05948.044922-.08594.010092-.02419.019331-.05249.027344-.0918.007824-.03855.011719-.07328.011719-.10351 0-.031-.003933-.06497-.011719-.10352-.008013-.03931-.017139-.06912-.027344-.0918-.011762-.02759-.028922-.05948-.046875-.08593h.001953c-.023584-.03477-.044937-.0591-.060546-.07422-.0155-.01512-.039296-.03787-.074219-.06055-.016566-.01134-.034782-.01783-.052735-.02539-.021857-.00756-.026942-.01223-.070312-.02734a1.0001 1.0001 0 0 1 -.658203-.93946v-2.18359a1.0001 1.0001 0 0 1 .664062-.94336c.041537-.01512.045808-.01588.066407-.02344.017332-.00756.035134-.01405.050781-.02539.035149-.02456.058911-.04347.074219-.05859.015511-.0155.035047-.0402.058593-.07422a1.0001 1.0001 0 0 0 .001953 0c.0179-.02646.03313-.05948.044922-.08594.010092-.02419.019331-.05249.027344-.09179.007824-.03856.011719-.07328.011719-.10352 0-.03137-.003933-.06496-.011719-.10352-.008013-.0393-.017139-.06912-.027344-.09179-.011762-.02759-.028922-.05948-.046875-.08594h.001953c-.023584-.03477-.044937-.0591-.060546-.07422-.0155-.01549-.039296-.03787-.074219-.06055-.016566-.01133-.034782-.01783-.052735-.02539-.021857-.00756-.026942-.01222-.070312-.02734a1.0001 1.0001 0 0 1 -.658203-.93945v-2.1836a1.0001 1.0001 0 0 1 .664062-.94336c.041537-.01511.045808-.01587.066407-.02343.017332-.00756.035134-.01406.050781-.02539.035149-.02457.058911-.04348.074219-.0586.015511-.01549.035047-.0402.058593-.07422a1.0001 1.0001 0 0 0 .001953 0c.0179-.02645.03313-.05948.044922-.08593.010092-.02419.019331-.05249.027344-.0918.007824-.03855.011719-.07328.011719-.10352 0-.03099-.003933-.06496-.011719-.10351-.008013-.03931-.017139-.06912-.027344-.0918-.011762-.02797-.028922-.05948-.046875-.08594h.001953c-.023584-.03477-.044937-.0591-.060546-.07422-.0155-.01549-.039296-.03787-.074219-.06054-.016566-.01134-.034782-.01783-.052735-.02539-.021857-.00756-.026942-.01223-.070312-.02735a1.0001 1.0001 0 0 1 -.658203-.93945v-1.0918c0-1.09069.909302-2 2-2h2.091797a1.0001 1.0001 0 0 1 .943359.66602c.01394.03968.016238.0436.023438.0625.00927.0189.016444.03762.027343.05273h-.001953c.02357.03477.044937.0591.060547.07422.0155.0155.039299.03592.074219.0586.02706.01663.058767.03553.085937.04687.02456.00756.052657.01783.091797.02539.038476.00756.072165.01172.103516.01172.031356 0 .065046-.00416.103515-.01172.03914-.00756.067227-.01405.091797-.02539.02795-.01285.059356-.02798.085938-.04687.03515-.02457.0589-.04348.074219-.0586.01551-.01549.035032-.0402.058593-.07422a1.0001 1.0001 0 0 0 .001953 0c.01177-.01738.020098-.03774.029297-.05664.007427-.02041.008086-.02275.021485-.06054a1.0001 1.0001 0 0 1 .941406-.66407h2.183594a1.0001 1.0001 0 0 1 .943359.66602c.013946.03968.016219.0436.023437.0625.00926.0189.016459.03762.027344.05273h-.001953c.023584.03477.044938.0591.060547.07422.01547.0155.039258.03592.074219.0586.027061.01663.058762.03553.085937.04687.02456.00756.052656.01783.091797.02539.038479.00756.072183.01172.103516.01172.031358 0 .065044-.00416.103515-.01172.039141-.00756.06723-.01405.091797-.02539.02795-.01285.059368-.02798.085938-.04687.035149-.02457.058911-.04348.074218-.0586.015512-.01549.035048-.0402.058594-.07422a1.0001 1.0001 0 0 0 .001953 0c.011755-.01738.020113-.03774.029297-.05664.007408-.02041.008067-.02275.021485-.06054a1.0001 1.0001 0 0 1 .941406-.66407h2.183594a1.0001 1.0001 0 0 1 .943359.66602c.013946.03968.016219.0436.023437.0625.00926.0189.016459.03762.027344.05273h-.001953c.023584.03477.044938.0591.060547.07422.01547.0155.039258.03592.074219.0586.027061.01663.058762.03553.085937.04687.02456.00756.052656.01783.091797.02539.038476.00756.072183.01172.103516.01172.031358 0 .065044-.00416.103515-.01172.039141-.00756.06723-.01405.091797-.02539.02795-.01285.059368-.02798.085938-.04687.035149-.02457.058911-.04348.074218-.0586.015512-.01549.035048-.0402.058594-.07422a1.0001 1.0001 0 0 0 .001953 0c.011755-.01738.020113-.03774.029297-.05664.007408-.02041.008067-.02275.021485-.06054a1.0001 1.0001 0 0 1 .941406-.66407h2.183594a1.0001 1.0001 0 0 1 .943359.66407c.013946.03968.016219.0436.023437.0625.00926.01889.016459.03761.027344.05273h-.001953c.023584.03477.044937.0591.060547.07422.01547.01549.039258.03592.074219.05859.027061.01663.058762.03554.085937.04688.02456.00756.052656.01783.091797.02539.038479.00756.072183.01172.103516.01172.031351 0 .065044-.00416.103515-.01172.039141-.00756.06723-.01405.091797-.02539.02795-.01285.059368-.02798.085938-.04688.035149-.02456.058911-.04347.074218-.05859.015512-.0155.035048-.0402.058594-.07422a1.0001 1.0001 0 0 0 .001953 0c.011755-.01739.020113-.03774.029297-.05664.007408-.02041.008067-.02275.021485-.06055a1.0001 1.0001 0 0 1 .941406-.66406zm-17.908203 4.00195v21h18v-21zm9.435547 6c.021505-.00053.042796 0 .064453 0 1.384996 0 2.5 1.115 2.5 2.5 0 .18698-.021909.36956-.060547.54492.182284-.02985.369821-.04492.560547-.04492 1.938988 0 3.5 1.56103 3.5 3.5 0 1.90541-1.508208 3.44514-3.400391 3.49805v.00195h-.099609-8c-1.384996 0-2.5-1.11503-2.5-2.5 0-1.23352.884734-2.25268 2.05664-2.46093h.001953c-.037779-.1736-.058593-.35425-.058593-.53907 0-1.385 1.115004-2.5 2.5-2.5.185015 0 .365695.0208.539062.0586.204573-1.15136 1.192177-2.02836 2.396485-2.0586z" fill="#fff" fill-opacity=".3"/><path d="m37.999998 353.65001c-1.19444 0-2.08048.78073-2.75195 1.6289-.67148.84818-1.23854 1.86526-1.84766 2.83985s-1.25524 1.89919-1.9707 2.53515-1.44636.9961-2.42969.9961h-18c-2.7527005 0-5.0000005 2.24729-5.0000005 5v34c0 2.75269 2.2473 5 5.0000005 5h54c2.7527 0 5-2.24731 5-5v-42c0-2.75271-2.2473-5-5-5zm0 1h27c2.216 0 4 1.784 4 4v42c0 2.216-1.784 4-4 4h-54c-2.2160005 0-4.0000005-1.784-4.0000005-4v-34c0-2.216 1.784-4 4.0000005-4h18c4.99999 0 6-8 9-8z"/></g></g><path d="m-.79375021 290.91458c-.28858079 0-.52916669.24058-.52916669.52916v.28887a.2646098.2646098 0 0 0 .1741496.24857c.011475.00415.0128197.0046.0186035.00671.0047493.00239.0095685.0043.0139526.00724.0092393.00624.0155361.01194.0196371.01602.0041301.00413.0097835.0104.0160197.01964h-.0005168c.0047546.00703.0092882.01535.0124024.02273.0027014.00641.0051101.01387.0072347.02429.0020637.01019.0031006.01916.0031006.02739s-.0010316.0172-.0031006.02739c-.0021167.01045-.0045572.01794-.0072347.02429-.0031168.00738-.0071522.01572-.0118856.02273a.2646098.2646098 0 0 0 -.0005168 0c-.0062336.00924-.0113992.01554-.0155029.01964-.0040534.00405-.010337.00923-.0196371.0155-.0041433.00281-.0088532.00486-.0134358.00724-.0054504.00185-.0065792.00239-.01757.0062a.2646098.2646098 0 0 0 -.1756999.2496v.57774a.2646098.2646098 0 0 0 .1741496.24856c.011475.00416.0128197.0046.0186035.00672.0047493.00238.0095685.0043.0139526.00724.0092393.00624.0155361.01194.0196371.01602.0041301.00412.0097835.0104.0160197.01963h-.0005168c.0047546.00704.0092882.01536.0124024.02274.0027014.0064.0051101.01386.0072347.02429.0020637.01018.0031006.01915.0031006.02739 0 .00823-.0010316.0172-.0031006.02739-.0021167.01045-.0045572.01793-.0072347.02428-.0031168.00739-.0071522.01573-.0118856.02274a.2646098.2646098 0 0 0 -.0005168 0c-.0062336.00923-.0113992.01554-.0155029.01964-.0040534.00405-.010337.00923-.0196371.0155-.0041433.00281-.0088532.00485-.0134358.00724-.0054504.00185-.0065792.00239-.01757.0062a.2646098.2646098 0 0 0 -.1756999.24959v.57775a.2646098.2646098 0 0 0 .1741496.24856c.011475.00415.0128197.0046.0186035.00672.0047493.00238.0095685.0043.0139526.00723.0092393.00625.0155361.01195.0196371.01602.0041301.00413.0097835.01041.0160197.01964h-.0005168c.0047546.00704.0092882.01536.0124024.02274.0027014.0064.0051101.01386.0072347.02428.0020637.01019.0031006.01916.0031006.02739s-.0010316.0172-.0031006.02739c-.0021167.01045-.0045572.01794-.0072347.02429-.0031168.00738-.0071522.01573-.0118856.02274a.2646098.2646098 0 0 0 -.0005168 0c-.0062336.00923-.0113992.01553-.0155029.01963-.0040534.00405-.010337.00924-.0196371.01551-.0041433.0028-.0088532.00485-.0134358.00723-.0054504.00185-.0065792.00239-.01757.0062a.2646098.2646098 0 0 0 -.1756999.2496v.57774a.2646098.2646098 0 0 0 .1741496.24857c.011475.00415.0128197.0046.0186035.00671.0047493.00239.0095685.0043.0139526.00724.0092393.00624.0155361.01194.0196371.01602.0041301.00413.0097835.0104.0160197.01964h-.0005168c.0047546.00703.0092882.01535.0124024.02273.0027014.00641.0051101.01387.0072347.02429.0020637.01019.0031006.01916.0031006.02739s-.0010316.0172-.0031006.02739c-.0021167.01045-.0045572.01794-.0072347.02429-.0031168.00738-.0071522.01572-.0118856.02273a.2646098.2646098 0 0 0 -.0005168 0c-.0062336.00924-.0113992.01554-.0155029.01964-.0040534.00405-.010337.00923-.0196371.0155-.0041433.00281-.0088532.00486-.0134358.00724-.0054504.00185-.0065792.00239-.01757.0062a.2646098.2646098 0 0 0 -.1756999.2496v.57774a.2646098.2646098 0 0 0 .1741496.24856c.011475.00416.0128197.0046.0186035.00672.0047493.00238.0095685.0043.0139526.00724.0092393.00624.0155361.01194.0196371.01602.0041301.00412.0097835.0104.0160197.01963h-.0005168c.0047546.00704.0092882.01536.0124024.02274.0027014.0064.0051101.01386.0072347.02429.0020637.01018.0031006.01915.0031006.02739 0 .00823-.0010316.0172-.0031006.02739-.0021167.01045-.0045572.01793-.0072347.02428-.0031168.00739-.0071522.01573-.0118856.02274a.2646098.2646098 0 0 0 -.0005168 0c-.0062336.00923-.0113992.01554-.0155029.01964-.0040534.00405-.010337.00923-.0196371.0155-.0041433.00281-.0088532.00485-.0134358.00724-.0054504.00185-.0065792.00239-.01757.0062a.2646098.2646098 0 0 0 -.1756999.24959v.28888c0 .28858.2405859.52916.52916669.52916h.5534546a.2646098.2646098 0 0 0 .24908041-.17621c.0037174-.01048.00422209-.01117.00620118-.01654.00232833-.00476.00433487-.00967.0072347-.01395a.2646098.2646098 0 0 0 .00051676 0c.00623358-.00924.01139925-.01554.01550293-.01964.00405341-.00405.01033695-.00975.01963705-.01602.00703261-.00474.01534253-.00876.02273763-.01189.0065008-.00272.01393214-.00514.02428792-.00723.01017851-.00212.01909224-.0031.02738851-.0031.00829468 0 .01720841.00106.02738851.0031.01035578.00212.01778976.00451.02428792.00723.00719137.00302.01557802.00707.02273763.01189.00925247.00624.01554395.01194.01963705.01602.00413014.00413.00978347.0104.01601969.01964h-.00051676c.00314324.00465.00566473.00988.00826823.01498.001905.00529.00174658.00582.00516764.01551a.2646098.2646098 0 0 0 .24959717.17621h.57774254a.2646098.2646098 0 0 0 .2490804-.17621c.0037174-.01048.0042221-.01117.0062012-.01654.0023283-.00476.0043348-.00967.0072347-.01395a.2646098.2646098 0 0 0 .0005167 0c.0062336-.00924.0113993-.01554.015503-.01964.0040534-.00405.0103369-.00975.019637-.01602.0070326-.00474.0153425-.00876.0227376-.01189.0065008-.00272.0139322-.00514.024288-.00723.0101785-.00212.0190922-.0031.0273885-.0031.0082947 0 .0172084.00106.0273885.0031.0103558.00212.0177897.00451.0242879.00723.0071914.00302.015578.00707.0227376.01189.0092525.00624.015544.01194.0196371.01602.0041301.00413.0097835.0104.0160197.01964h-.0005168c.0031433.00465.0056647.00988.0082682.01498.001905.00529.0017466.00582.0051677.01551a.2646098.2646098 0 0 0 .2495972.17621h.5777425a.2646098.2646098 0 0 0 .2490804-.17621c.0037174-.01048.0042221-.01117.0062012-.01654.0023283-.00476.0043348-.00967.0072347-.01395a.2646098.2646098 0 0 0 .0010335 0c.0062336-.00924.0113992-.01554.0155029-.01964.0040534-.00405.010337-.00975.0196371-.01602.0070326-.00474.0153425-.00876.0227376-.01189.0065008-.00272.0139321-.00514.0242879-.00723.0101785-.00212.0190923-.0031.0273885-.0031.0082947 0 .0172084.00106.0273885.0031.0103558.00212.0177898.00451.024288.00723.0071913.00302.015578.00707.0227376.01189.0092525.00624.0155439.01194.019637.01602.0041302.00413.0097835.0104.0160197.01964h-.0010335c.0031433.00465.0056647.00988.0082682.01498.001905.00529.0017466.00582.0051677.01551a.2646098.2646098 0 0 0 .2495972.17621h.5777425a.2646098.2646098 0 0 0 .2490804-.17621c.0028892-.00815.0028014-.00787.0046509-.01292.0027278-.00596.005632-.01215.0093017-.01757a.2646098.2646098 0 0 0 .0005168 0c.0062336-.00924.0113992-.01554.0155029-.01964.0040534-.00405.010337-.00975.0196371-.01602.0070326-.00474.0153425-.00876.0227376-.01189.0065008-.00272.0139321-.00514.0242879-.00723.0101785-.00212.0190923-.0031.0273885-.0031.0082947 0 .0172084.00106.0273885.0031.0103558.00212.0177898.00451.024288.00723.0071913.00302.015578.00707.0227376.01189.0092525.00624.0155439.01194.019637.01602.0041302.00413.0097835.0104.0160197.01964h-.0005167c.0028839.00426.004782.00924.0072347.01395.001905.00534.0025129.00611.0062011.01654a.2646098.2646098 0 0 0 .2495972.17621h.5529378c.2885808 0 .5291667-.24058.5291667-.52916v-.28888a.2646098.2646098 0 0 0 -.1741496-.24856c-.0113294-.0041-.0123082-.0046-.0180867-.00672-.004908-.00264-.0099318-.00468-.0144694-.00775-.0092525-.00624-.015544-.0114-.0196371-.0155-.0041301-.00413-.0097834-.01041-.0160196-.01964h.0005167c-.0047545-.00706-.0092855-.01535-.0124023-.02274-.0027014-.0064-.0051101-.01386-.0072347-.02428-.0020902-.01024-.0031006-.01916-.0031006-.02739 0-.00826.0010315-.0172.0031006-.02739.0021166-.01045.0045571-.01794.0072347-.02429.0031168-.00738.0071522-.01573.0118856-.02274a.2646098.2646098 0 0 0 .0005167 0c.0062336-.00923.0113993-.01553.0155029-.01963.0040535-.00405.010337-.00975.0196371-.01602.0041831-.00281.008811-.00496.0134359-.00724.0054504-.00212.0066374-.00239.01757-.0062a.2646098.2646098 0 0 0 .1756998-.24908v-.57774a.2646098.2646098 0 0 0 -.1741496-.24908c-.0129645-.00471-.0149741-.00572-.0206705-.00775-.004027-.00212-.0081814-.00372-.0118856-.00621-.0092525-.00624-.015544-.0114-.0196371-.0155-.0040137-.00402-.0094889-.0108-.0155029-.01964l-.0005167-.00051c-.0046064-.00691-.0088509-.01503-.0118856-.02222-.0027014-.00641-.0051101-.01387-.0072347-.02429-.0020638-.01013-.0031006-.01916-.0031006-.02739 0-.00825.0010315-.0172.0031006-.02739.0021166-.01045.0045571-.01794.0072347-.02429.0031168-.00738.0071522-.01572.0118856-.02273a.2646098.2646098 0 0 0 .0005167 0c.0062336-.00924.0113993-.01554.0155029-.01964.0040535-.00405.010337-.00975.0196371-.01602.0041831-.00281.008811-.00496.0134359-.00724.0054504-.00211.0066374-.00239.01757-.0062a.2646098.2646098 0 0 0 .1756998-.24908v-.57774a.2646098.2646098 0 0 0 -.1741496-.24908c-.0129645-.00471-.0149741-.00571-.0206705-.00775-.004027-.00212-.0081814-.00372-.0118856-.0062-.0092525-.00625-.015544-.0114-.0196371-.01551-.0040137-.00402-.0094889-.0108-.0155029-.01963l-.0005167-.00052c-.0046064-.0069-.0088509-.01502-.0118856-.02222-.0027014-.0064-.0051101-.01386-.0072347-.02429-.0020638-.01013-.0031006-.01916-.0031006-.02739 0-.00825.0010315-.01719.0031006-.02739.0021166-.01045.0045571-.01793.0072347-.02428.0031168-.00738.0071522-.01573.0118856-.02274a.2646098.2646098 0 0 0 .0005167 0c.0062336-.00923.0113993-.01554.0155029-.01964.0040535-.00405.010337-.00975.0196371-.01602.0041831-.0028.008811-.00496.0134359-.00723.0054504-.00212.0066374-.00239.01757-.0062a.2646098.2646098 0 0 0 .1756998-.24908v-.57775a.2646098.2646098 0 0 0 -.1741496-.24908c-.0129645-.00471-.0149741-.00571-.0206705-.00775-.004027-.00211-.0081814-.00371-.0118856-.0062-.0092525-.00624-.015544-.0114-.0196371-.0155-.0040137-.00402-.0094889-.0108-.0155029-.01964l-.0005167-.00052c-.0046064-.0069-.0088509-.01502-.0118856-.02222-.0027014-.0064-.0051101-.01386-.0072347-.02428-.0020638-.01014-.0031006-.01916-.0031006-.02739 0-.00826.0010315-.0172.0031006-.02739.0021166-.01045.0045571-.01794.0072347-.02429.0031168-.00738.0071522-.01573.0118856-.02274a.2646098.2646098 0 0 0 .0005167 0c.0062336-.00923.0113993-.01553.0155029-.01963.0040535-.00405.010337-.00975.0196371-.01602.0041831-.00281.008811-.00496.0134359-.00724.0054504-.00212.0066374-.00239.01757-.0062a.2646098.2646098 0 0 0 .1756998-.24908v-.57774a.2646098.2646098 0 0 0 -.1741496-.24908c-.0129645-.00471-.0149741-.00572-.0206705-.00775-.004027-.00212-.0081814-.00372-.0118856-.00621-.0092525-.00624-.015544-.0114-.0196371-.0155-.0040137-.00402-.0094889-.0108-.0155029-.01964l-.0005167-.00051c-.0046064-.00691-.0088509-.01503-.0118856-.02222-.0027014-.00641-.0051101-.01387-.0072347-.02429-.0020638-.01013-.0031006-.01916-.0031006-.02739 0-.00825.0010315-.0172.0031006-.02739.0021166-.01045.0045571-.01794.0072347-.02429.0031168-.00738.0071522-.01572.0118856-.02273a.2646098.2646098 0 0 0 .0005167 0c.0062336-.00924.0113993-.01554.0155029-.01964.0040535-.00405.010337-.00975.0196371-.01602.0041831-.00281.008811-.00496.0134359-.00724.0054504-.00211.0066374-.00239.01757-.0062a.2646098.2646098 0 0 0 .1756998-.24908v-.28887c0-.28858-.2405859-.52916-.5291667-.52916h-.5534546a.2646098.2646098 0 0 0 -.2490804.17569c-.0035454.00998-.0037185.0106-.0056844.01602-.0024341.00511-.0046373.01039-.0077514.01499a.2646098.2646098 0 0 0 -.0005168 0c-.0062336.00923-.0113992.01554-.0155029.01964-.0040534.00405-.010337.00923-.0196371.0155-.0070326.00474-.0153425.00928-.0227376.0124-.0065008.00273-.0139321.00515-.0242879.00724-.0101785.00211-.0190925.0031-.0273885.0031-.0082947 0-.0172084-.00106-.0273885-.0031-.0103558-.00212-.0177898-.00451-.024288-.00724-.0071887-.00301-.015578-.00756-.0227376-.0124-.0092525-.00624-.0155439-.0114-.019637-.0155-.0041302-.00413-.0097835-.01041-.0160197-.01964h.0005167c-.0028839-.00429-.004782-.00924-.0072347-.01395-.001905-.00535-.0025129-.00611-.0062011-.01654a.2646098.2646098 0 0 0 -.2495972-.17621h-.5777425a.2646098.2646098 0 0 0 -.2490805.17569c-.0035454.00998-.0037185.0106-.0056844.01602-.0024341.00511-.0046373.01039-.0077514.01499a.2646098.2646098 0 0 0 -.0005168 0c-.0062336.00923-.0113992.01554-.0155029.01964-.0040534.00405-.010337.00923-.0196371.0155-.0070326.00474-.0153425.00928-.0227376.0124-.0065008.00273-.0139321.00515-.0242879.00724-.0101785.00211-.0190923.0031-.0273885.0031-.0082947 0-.0172084-.00106-.0273885-.0031-.0103558-.00212-.0177898-.00451-.024288-.00724-.0071887-.00301-.015578-.00756-.0227376-.0124-.0092525-.00624-.0155439-.0114-.019637-.0155-.0041302-.00413-.0097835-.01041-.0160197-.01964h.0005167c-.0028839-.00429-.004782-.00924-.0072347-.01395-.001905-.00535-.0025129-.00611-.0062011-.01654a.2646098.2646098 0 0 0 -.2495972-.17621h-.5777425a.2646098.2646098 0 0 0 -.2490805.17569c-.0035454.00998-.0037185.0106-.0056844.01602-.0024341.00511-.0046373.01039-.0077514.01499a.2646098.2646098 0 0 0 -.0005168 0c-.0062336.00923-.0113992.01554-.0155029.01964-.0040534.00405-.010337.00923-.0196371.0155-.0070326.00474-.0153425.00928-.0227376.0124-.0065008.00273-.0139321.00515-.0242879.00724-.0101785.00211-.0190923.0031-.0273885.0031-.0082947 0-.0172084-.00106-.0273885-.0031-.0103558-.00212-.0177898-.00451-.024288-.00724-.0071887-.00301-.015578-.00756-.0227376-.0124-.0092525-.00624-.0155439-.0114-.019637-.0155-.0041302-.00413-.0097835-.01041-.0160197-.01964h.0005167c-.0028839-.00429-.004782-.00924-.0072347-.01395-.001905-.00535-.0025128-.00611-.0062011-.01654a.2646098.2646098 0 0 0 -.2495972-.17621h-.57774254a.2646098.2646098 0 0 0 -.2490804.17569c-.00354542.00998-.00371856.0106-.00568441.01602-.00243417.00511-.00463732.01039-.00775147.01499a.2646098.2646098 0 0 0 -.00051676 0c-.00623358.00923-.01139925.01554-.01550293.01964-.00405341.00405-.01033695.00923-.01963705.0155-.00703261.00474-.01534253.00928-.02273763.0124-.0065008.00273-.01393214.00515-.02428792.00724-.01017851.00211-.01909224.0031-.02738851.0031-.00829468 0-.01720841-.00106-.02738851-.0031-.01035578-.00212-.01778976-.00451-.02428792-.00724-.00718873-.00301-.01557802-.00756-.02273763-.0124-.00923925-.00624-.01553601-.0114-.01963705-.0155-.00413014-.00413-.00978347-.01041-.01601969-.01964h.00051676c-.00288395-.00429-.00478201-.00924-.0072347-.01395-.001905-.00535-.00251288-.00611-.00620117-.01654a.2646098.2646098 0 0 0 -.24959718-.17621zm.52916668 1.05833h4.76250013v5.55625h-4.76250013zm2.49648853 1.5875c-.3186401.008-.5799434.24004-.6340699.54467-.0458699-.01-.093675-.0155-.1426269-.0155-.3664472 0-.66145837.295-.66145837.66145 0 .0489.00550704.09671.01550293.14263h-.00051677c-.31006725.0551-.54415284.32475-.54415284.65112 0 .36644.29501117.66146.66145835.66146h2.1166667.026355v-.00051c.5006405-.014.8996867-.42139.8996867-.92553 0-.51302-.4130171-.92604-.9260417-.92604-.0504629 0-.100082.00398-.1483114.01188.010223-.0464.0160197-.09469.0160197-.14417 0-.36645-.2950111-.66146-.6614583-.66146-.00573 0-.0113632-.00014-.0170532 0z" fill-opacity=".2" stroke-linecap="round" stroke-linejoin="round" stroke-miterlimit="1.8" stroke-width=".529167" transform="matrix(.99999995918 0 0 .99999995918 6.3500002652 -284.29997943278)"/></svg>
