<svg height="64" viewBox="0 0 16.933333 16.933333" width="64" xmlns="http://www.w3.org/2000/svg"><defs id="kuyenfoldercolor">
    <style type="text/css" id="current-color-scheme">
      .ColorScheme-Highlight {
        color:#03b2fe;
      }
      </style>
  </defs><g transform="translate(0 -280.06666)"><g transform="matrix(.26458333 0 0 .26458333 -1.5875 189.1426)"><path d="m12 345.65c-4 0-6 3-6 6v49c0 2.75269 2.2472973 5 5 5h54c2.752703 0 5-2.24731 5-5v-42c0-2.75271-2.247297-5-5-5h-27c-.305556 0-.669523-.21927-1.185547-.87109s-1.073964-1.63475-1.714844-2.66016-1.369755-2.1008-2.341797-2.96484c-.972039-.86404-2.241145-1.50391-3.757812-1.50391z" style="fill:currentColor"
class="ColorScheme-Highlight"/><path d="m12 346.64999h16.999999c5 0 6.000002 8 9.000002 8h26.999999c2.216 0 4 1.784 4 4v42c0 2.216-1.784 4-4 4h-54c-2.2159999 0-3.9999999-1.784-3.9999999-4l.0000003-48.97939c0-3.0206 1.9999996-5.02061 4.9999996-5.02061z" fill="#fff" fill-opacity=".1"/><path d="m12 345.64999c-3.9999966 0-6.0000006 3-6.0000006 6v49c0 2.75269 2.247299 5 4.9999996 5h54.000001c2.7527 0 5-2.24731 5-5v-42c0-2.75271-2.2473-5-5-5h-27c-.30556 0-.66952-.21928-1.18555-.8711-.51602-.65181-1.07396-1.63474-1.714841-2.66015-.64088-1.02541-1.36976-2.10081-2.3418-2.96485-.97204-.86403-2.24114-1.5039-3.757809-1.5039zm0 1h17c4.999989 0 6 8 9 8h27c2.215999 0 4 1.784 4 4v42c0 2.216-1.784001 4-4 4h-54.000001c-2.2159976 0-3.9999996-1.784-3.9999996-4v-48.97852c0-3.02059 2.000003-5.02148 5.0000006-5.02148z" fill-opacity=".2"/><path d="m38 353.65c-1.194444 0-2.080477.78073-2.751953 1.62891s-1.238536 1.86525-1.847656 2.83984-1.255245 1.8992-1.970703 2.53516c-.71546.63596-1.446355.99609-2.429688.99609h-18c-2.7527027 0-5 2.24729-5 5v34c0 2.75269 2.2472973 5 5 5h54c2.752703 0 5-2.24731 5-5v-42c0-2.75271-2.247297-5-5-5z" style="fill:currentColor"
class="ColorScheme-Highlight"/>><path d="m38 354.64999c-2.999982 0-4.00003 8-9 8h-18c-2.2159867 0-3.9999999 1.78403-3.9999999 4v34c0 2.21599 1.7840132 4 3.9999999 4h54c2.215982 0 4-1.78401 4-4v-42c0-2.21597-1.784018-4-4-4zm0 15c3.877997 0 7 3.12202 7 7 0 3.87802-3.122003 7-7 7-3.877996 0-7-3.12198-7-7 0-3.87798 3.122004-7 7-7zm0 16c5.258003 0 9.997615 3.16761 12.009765 8.0254-7.887696 5.22299-15.889269 5.40105-24.019531 0 2.01215-4.85779 6.751761-8.0254 12.009766-8.0254z" fill="#fff" fill-opacity=".3"/><path d="m37.999998 353.65001c-1.19444 0-2.08048.78073-2.75195 1.6289-.67148.84818-1.23854 1.86526-1.84766 2.83985s-1.25524 1.89919-1.9707 2.53515-1.44636.9961-2.42969.9961h-18c-2.7527005 0-5.0000005 2.24729-5.0000005 5v34c0 2.75269 2.2473 5 5.0000005 5h54c2.7527 0 5-2.24731 5-5v-42c0-2.75271-2.2473-5-5-5zm0 1h27c2.216 0 4 1.784 4 4v42c0 2.216-1.784 4-4 4h-54c-2.2160005 0-4.0000005-1.784-4.0000005-4v-34c0-2.216 1.784-4 4.0000005-4h18c4.99999 0 6-8 9-8z" fill-opacity=".2"/></g><path d="m8.4666665 286.94583c-1.0260541 0-1.8520833.82603-1.8520833 1.85208 0 1.02606.8260292 1.85209 1.8520833 1.85209s1.8520835-.82603 1.8520835-1.85209c0-1.02605-.8260294-1.85208-1.8520835-1.85208zm0 4.23333c-1.3911818 0-2.645202.8381-3.1775839 2.12339 2.1511339 1.42903 4.268212 1.38192 6.3551674 0-.532382-1.28529-1.7864017-2.12339-3.1775835-2.12339z" fill-opacity=".2"/></g></svg>
