<svg height="64" viewBox="0 0 16.933333 16.933333" width="64" xmlns="http://www.w3.org/2000/svg"><defs id="kuyenfoldercolor">
    <style type="text/css" id="current-color-scheme">
      .ColorScheme-Highlight {
        color:#03b2fe;
      }
      </style>
  </defs><g transform="translate(0 -280.06666)"><g transform="matrix(.26458333 0 0 .26458333 -1.5875 189.1426)"><path d="m12 345.65c-4 0-6 3-6 6v49c0 2.75269 2.2472973 5 5 5h54c2.752703 0 5-2.24731 5-5v-42c0-2.75271-2.247297-5-5-5h-27c-.305556 0-.669523-.21927-1.185547-.87109s-1.073964-1.63475-1.714844-2.66016-1.369755-2.1008-2.341797-2.96484c-.972039-.86404-2.241145-1.50391-3.757812-1.50391z" style="fill:currentColor"
class="ColorScheme-Highlight"/><path d="m12 346.64999h16.999999c5 0 6.000002 8 9.000002 8h26.999999c2.216 0 4 1.784 4 4v42c0 2.216-1.784 4-4 4h-54c-2.2159999 0-3.9999999-1.784-3.9999999-4l.0000003-48.97939c0-3.0206 1.9999996-5.02061 4.9999996-5.02061z" fill="#fff" fill-opacity=".1"/><path d="m12 345.64999c-3.9999966 0-6.0000006 3-6.0000006 6v49c0 2.75269 2.247299 5 4.9999996 5h54.000001c2.7527 0 5-2.24731 5-5v-42c0-2.75271-2.2473-5-5-5h-27c-.30556 0-.66952-.21928-1.18555-.8711-.51602-.65181-1.07396-1.63474-1.714841-2.66015-.64088-1.02541-1.36976-2.10081-2.3418-2.96485-.97204-.86403-2.24114-1.5039-3.757809-1.5039zm0 1h17c4.999989 0 6 8 9 8h27c2.215999 0 4 1.784 4 4v42c0 2.216-1.784001 4-4 4h-54.000001c-2.2159976 0-3.9999996-1.784-3.9999996-4v-48.97852c0-3.02059 2.000003-5.02148 5.0000006-5.02148z" fill-opacity=".2"/><path d="m38 353.65c-1.194444 0-2.080477.78073-2.751953 1.62891s-1.238536 1.86525-1.847656 2.83984-1.255245 1.8992-1.970703 2.53516c-.71546.63596-1.446355.99609-2.429688.99609h-18c-2.7527027 0-5 2.24729-5 5v34c0 2.75269 2.2472973 5 5 5h54c2.752703 0 5-2.24731 5-5v-42c0-2.75271-2.247297-5-5-5z" style="fill:currentColor"
class="ColorScheme-Highlight"/><path d="m38 354.64999c-2.999994 0-4.00001 8-9 8h-18c-2.2159955 0-3.9999999 1.78402-3.9999999 4v34c0 2.216 1.7840044 4 3.9999999 4h54c2.215994 0 4-1.784 4-4v-42c0-2.21598-1.784006-4-4-4zm-4 13v4l-3 1.19922v6.30078c0 1.93901-1.560999 3.5-3.5 3.5-1.938998 0-3.5-1.56099-3.5-3.5 0-1.939 1.561002-3.5 3.5-3.5.539613 0 1.044438.12952 1.5.34571v-2.34571-2-2zm9 3v6l-4 2v2 9.4004l-.00586-.00391c.00121.03477.00586.0695.00586.10351 0 3.60098-2.899001 6.5-6.5 6.5-3.600994 0-6.5-2.89902-6.5-6.5 0-3.60101 2.899006-6.5 6.5-6.5 1.292061 0 2.490179.3785 3.5 1.02344v-11.02344zm8 8v4l-3 1.19922v6.30078c.040048 1.9386-1.561002 3.5-3.5 3.5-1.938996 0-3.5-1.56099-3.5-3.5 0-1.939 1.561004-3.5 3.5-3.5.53961 0 1.044435.12952 1.5.34571v-2.34571-2-2z" fill="#fff" fill-opacity=".3"/><path d="m37.999998 353.65001c-1.19444 0-2.08048.78073-2.75195 1.6289-.67148.84818-1.23854 1.86526-1.84766 2.83985s-1.25524 1.89919-1.9707 2.53515-1.44636.9961-2.42969.9961h-18c-2.7527005 0-5.0000005 2.24729-5.0000005 5v34c0 2.75269 2.2473 5 5.0000005 5h54c2.7527 0 5-2.24731 5-5v-42c0-2.75271-2.2473-5-5-5zm0 1h27c2.216 0 4 1.784 4 4v42c0 2.216-1.784 4-4 4h-54c-2.2160005 0-4.0000005-1.784-4.0000005-4v-34c0-2.216 1.784-4 4.0000005-4h18c4.99999 0 6-8 9-8z" fill-opacity=".2"/></g><path d="m7.4083335 286.41666-1.322917.52918v.52917.52916.62064c-.1205341-.0572-.2541021-.0915-.3968749-.0915-.5130271 0-.9260417.413-.9260417.92604 0 .51303.4130146.92604.9260417.92604.5130278 0 .9260416-.41301.9260416-.92604v-1.66708l.7937503-.3173zm2.38125.79368-1.852084.79375v2.91662c-.267182-.17063-.584183-.27078-.9260416-.27078-.952764 0-1.7197916.76702-1.7197916 1.71979 0 .95276.7670276 1.71979 1.7197916 1.71979.9527656 0 1.7197916-.76703 1.7197916-1.71979 0-.009-.0012-.0182-.0016-.0274l.0016.001v-2.48718-.52917l1.058334-.52917zm2.1166665 2.11671-1.322917.52918v.52916.52917.62063c-.120535-.0572-.254103-.0915-.396875-.0915-.5130265 0-.9260415.41301-.9260415.92604s.413015.92604.9260415.92604c.513027 0 .936638-.41312.926042-.92604v-1.66708l.79375-.3173z" fill-opacity=".2"/></g></svg>
