<svg height="64" viewBox="0 0 16.933333 16.933333" width="64" xmlns="http://www.w3.org/2000/svg"><defs id="kuyenfoldercolor">
    <style type="text/css" id="current-color-scheme">
      .ColorScheme-Highlight {
        color:#03b2fe;
      }
      </style>
  </defs><g transform="matrix(.26458333 0 0 .26458333 -1.5875 -90.924062)"><path d="m12 345.65c-4 0-6 3-6 6v49c0 2.75269 2.2472973 5 5 5h54c2.752703 0 5-2.24731 5-5v-42c0-2.75271-2.247297-5-5-5h-27c-.305556 0-.669523-.21927-1.185547-.87109s-1.073964-1.63475-1.714844-2.66016-1.369755-2.1008-2.341797-2.96484c-.972039-.86404-2.241145-1.50391-3.757812-1.50391z" style="fill:currentColor"
class="ColorScheme-Highlight"/><path d="m12 346.64999h16.999999c5 0 6.000002 8 9.000002 8h26.999999c2.216 0 4 1.784 4 4v42c0 2.216-1.784 4-4 4h-54c-2.2159999 0-3.9999999-1.784-3.9999999-4l.0000003-48.97939c0-3.0206 1.9999996-5.02061 4.9999996-5.02061z" fill="#fff" fill-opacity=".1"/><path d="m12 345.64999c-3.9999966 0-6.0000006 3-6.0000006 6v49c0 2.75269 2.247299 5 4.9999996 5h54.000001c2.7527 0 5-2.24731 5-5v-42c0-2.75271-2.2473-5-5-5h-27c-.30556 0-.66952-.21928-1.18555-.8711-.51602-.65181-1.07396-1.63474-1.714841-2.66015-.64088-1.02541-1.36976-2.10081-2.3418-2.96485-.97204-.86403-2.24114-1.5039-3.757809-1.5039zm0 1h17c4.999989 0 6 8 9 8h27c2.215999 0 4 1.784 4 4v42c0 2.216-1.784001 4-4 4h-54.000001c-2.2159976 0-3.9999996-1.784-3.9999996-4v-48.97852c0-3.02059 2.000003-5.02148 5.0000006-5.02148z" fill-opacity=".2"/><path d="m38 353.65c-1.194444 0-2.080477.78073-2.751953 1.62891s-1.238536 1.86525-1.847656 2.83984-1.255245 1.8992-1.970703 2.53516c-.71546.63596-1.446355.99609-2.429688.99609h-18c-2.7527027 0-5 2.24729-5 5v34c0 2.75269 2.2472973 5 5 5h54c2.752703 0 5-2.24731 5-5v-42c0-2.75271-2.247297-5-5-5z" style="fill:currentColor"
class="ColorScheme-Highlight"/><path d="m37.999999 354.65c-2.999982 0-4.00003 8-9 8h-18c-2.2159867 0-4.0000001 1.78403-4.0000001 4v34c0 2.216 1.7840134 4 4.0000001 4h54c2.215982 0 3.999999-1.784 3.999999-4v-42c0-2.21597-1.784017-4-3.999999-4zm-16.939453 17.99805c2.149876.01363 4.238126.71975 5.955078 2.01367l-6.017578 7.98633h10c.000376 4.63982-3.190829 8.67047-7.707032 9.73437-4.516564 1.06395-9.17169-1.11885-11.242187-5.27148-2.0703669-4.15234-1.01256-9.1834 2.554688-12.15039 1.812434-1.50791 4.09938-2.327 6.457031-2.3125zm35.939453.00195c4.431998 0 8 3.568 8 8v2 9l-2-2-2 2-2-2-2 2-2-2-2 2-2-2-2 2v-9-2c0-4.432 3.568001-8 8-8zm-40.001953 4.99805c-1.107999 0-2 .892-2 2 0 1.10801.892001 2 2 2s2-.89199 2-2c0-1.108-.892001-2-2-2zm36.501953.00195c-.831005 0-1.5.669-1.5 1.5s.668995 1.5 1.5 1.5c.830998 0 1.5-.669 1.5-1.5s-.669002-1.5-1.5-1.5zm7 0c-.831006 0-1.5.66899-1.5 1.5 0 .831.668994 1.5 1.5 1.5.830998 0 1.5-.669 1.5-1.5 0-.83101-.669002-1.5-1.5-1.5zm-24.501953 2.99805c1.107998 0 2 .892 2 2s-.892002 2-2 2c-1.107999 0-2-.892-2-2s.892001-2 2-2zm8 0c1.107998 0 2 .892 2 2s-.892002 2-2 2c-1.107999 0-2-.892-2-2s.892001-2 2-2z" fill="#fff" fill-opacity=".3"/><path d="m37.999998 353.65001c-1.19444 0-2.08048.78073-2.75195 1.6289-.67148.84818-1.23854 1.86526-1.84766 2.83985s-1.25524 1.89919-1.9707 2.53515-1.44636.9961-2.42969.9961h-18c-2.7527005 0-5.0000005 2.24729-5.0000005 5v34c0 2.75269 2.2473 5 5.0000005 5h54c2.7527 0 5-2.24731 5-5v-42c0-2.75271-2.2473-5-5-5zm0 1h27c2.216 0 4 1.784 4 4v42c0 2.216-1.784 4-4 4h-54c-2.2160005 0-4.0000005-1.784-4.0000005-4v-34c0-2.216 1.784-4 4.0000005-4h18c4.99999 0 6-8 9-8z" fill-opacity=".2"/></g><path d="m-74.93989 290.82675c-2.357653-.0145-4.644595.80459-6.457031 2.3125-3.567251 2.967-4.625057 7.99805-2.554688 12.15039 2.070499 4.15264 6.725619 6.33544 11.242188 5.27149 4.516207-1.0639 7.707407-5.09455 7.707031-9.73438h-10l6.017578-7.98632c-1.716954-1.29392-3.8052-2.00005-5.955078-2.01368zm35.93989.0019c-4.432003 0-8 3.568-8 8v2 9l2-2 2 1.99986 2-1.99986 2 1.99986 2-1.99986 2 2 2-2 2 2v-9-2c0-4.432-3.567997-8-8-8zm-40.00239 4.99808c1.108 0 2 .892 2 2 0 1.10801-.892 2-2 2s-2-.89199-2-2c0-1.108.892-2 2-2zm36.50239.002c.830999 0 1.5.669 1.5 1.5s-.669001 1.5-1.5 1.5c-.831005 0-1.5-.669-1.5-1.5s.668995-1.5 1.5-1.5zm7 0c.830999 0 1.5.66899 1.5 1.5 0 .831-.669001 1.5-1.5 1.5-.831006 0-1.5-.669-1.5-1.5 0-.83101.668994-1.5 1.5-1.5zm-24.501999 2.998c-1.108 0-2 .892-2 2s.892 2 2 2 2-.892 2-2-.892-2-2-2zm8 0c-1.108 0-2 .892-2 2s.892 2 2 2 2-.892 2-2-.892-2-2-2z" fill-opacity=".2" transform="matrix(.26458333 0 0 .26458333 23.81249959083 -69.27546062524)"/></svg>
