<svg height="64" viewBox="0 0 16.933333 16.933333" width="64" xmlns="http://www.w3.org/2000/svg"><defs id="kuyenfoldercolor">
    <style type="text/css" id="current-color-scheme">
      .ColorScheme-Highlight {
        color:#03b2fe;
      }
      </style>
  </defs><g transform="translate(0 -280.06666)"><g transform="matrix(.26458333 0 0 .26458333 -1.5875 189.1426)"><path d="m12 345.65c-4 0-6 3-6 6v49c0 2.75269 2.2472973 5 5 5h54c2.752703 0 5-2.24731 5-5v-42c0-2.75271-2.247297-5-5-5h-27c-.305556 0-.669523-.21927-1.185547-.87109s-1.073964-1.63475-1.714844-2.66016-1.369755-2.1008-2.341797-2.96484c-.972039-.86404-2.241145-1.50391-3.757812-1.50391z" style="fill:currentColor"
class="ColorScheme-Highlight"/><path d="m12 346.64999h16.999999c5 0 6.000002 8 9.000002 8h26.999999c2.216 0 4 1.784 4 4v42c0 2.216-1.784 4-4 4h-54c-2.2159999 0-3.9999999-1.784-3.9999999-4l.0000003-48.97939c0-3.0206 1.9999996-5.02061 4.9999996-5.02061z" fill="#fff" fill-opacity=".1"/><path d="m12 345.64999c-3.9999966 0-6.0000006 3-6.0000006 6v49c0 2.75269 2.247299 5 4.9999996 5h54.000001c2.7527 0 5-2.24731 5-5v-42c0-2.75271-2.2473-5-5-5h-27c-.30556 0-.66952-.21928-1.18555-.8711-.51602-.65181-1.07396-1.63474-1.714841-2.66015-.64088-1.02541-1.36976-2.10081-2.3418-2.96485-.97204-.86403-2.24114-1.5039-3.757809-1.5039zm0 1h17c4.999989 0 6 8 9 8h27c2.215999 0 4 1.784 4 4v42c0 2.216-1.784001 4-4 4h-54.000001c-2.2159976 0-3.9999996-1.784-3.9999996-4v-48.97852c0-3.02059 2.000003-5.02148 5.0000006-5.02148z" fill-opacity=".2"/><path d="m38 353.65c-1.194444 0-2.080477.78073-2.751953 1.62891s-1.238536 1.86525-1.847656 2.83984-1.255245 1.8992-1.970703 2.53516c-.71546.63596-1.446355.99609-2.429688.99609h-18c-2.7527027 0-5 2.24729-5 5v34c0 2.75269 2.2472973 5 5 5h54c2.752703 0 5-2.24731 5-5v-42c0-2.75271-2.247297-5-5-5z" style="fill:currentColor"
class="ColorScheme-Highlight"/><g fill-opacity=".2"><path d="m38 354.64999c-2.999979 0-4.000035 8-9 8h-18c-2.2159844 0-3.9999999 1.78404-3.9999999 4v34c0 2.21599 1.7840155 4 3.9999999 4h54c2.215979 0 4-1.78401 4-4v-42c0-2.21596-1.784021-4-4-4zm-5.982422 16c.563451.00382 1.114434.16639 1.589844.46875l11 6.99805c3.218623 1.70423 6.392578 4.53323 6.392578 9.5332 0 5.53999-4.460028 10-10 10-4.653904 0-8.544074-3.1484-9.669922-7.43945l-2.564453 1.86524c-1.34104.97579-3.219432.67834-4.193359-.66407-.970482-1.33965-.673409-3.21209.664062-4.18554l4.921875-3.58008h-4.160156c-1.65456-.0011-2.995893-1.34153-2.998047-2.9961.001077-1.65531 1.342724-2.99698 2.998047-2.99804h6.701172l-2.308594-1.46875c-1.398432-.88834-1.812031-2.74213-.923828-4.14063.426935-.67347 1.104425-1.14916 1.882812-1.32226.219322-.04762.443382-.07198.667969-.07032zm8.982422 10c-3.877984 0-7 3.12202-7 7s3.122016 7 7 7c3.877986 0 7-3.12202 7-7s-3.122013-7-7-7zm0 3c2.215993 0 4 1.78403 4 4 0 2.21601-1.784007 4-4 4s-4-1.78399-4-4c0-2.21597 1.784007-4 4-4z" fill="#fff" fill-opacity=".3"/><path d="m37.999998 353.65001c-1.19444 0-2.08048.78073-2.75195 1.6289-.67148.84818-1.23854 1.86526-1.84766 2.83985s-1.25524 1.89919-1.9707 2.53515-1.44636.9961-2.42969.9961h-18c-2.7527005 0-5.0000005 2.24729-5.0000005 5v34c0 2.75269 2.2473 5 5.0000005 5h54c2.7527 0 5-2.24731 5-5v-42c0-2.75271-2.2473-5-5-5zm0 1h27c2.216 0 4 1.784 4 4v42c0 2.216-1.784 4-4 4h-54c-2.2160005 0-4.0000005-1.784-4.0000005-4v-34c0-2.216 1.784-4 4.0000005-4h18c4.99999 0 6-8 9-8z"/></g></g><path d="m6.8838174 287.21043c-.059422-.00044-.1187044.006-.1767334.0186-.2059484.0458-.3852006.17166-.4981608.34985-.235004.37002-.1255727.8605.2444295 1.09554l.6108155.38861h-1.7730184c-.4379712.00028-.7929483.35526-.7932332.79323.0005698.43777.3554636.79243.7932332.79272h1.100708l-1.3022461.94723c-.353873.25756-.4324734.75297-.1756999 1.10742.2576851.35518.7546758.43388 1.109493.1757l.6785116-.49351c.2978811 1.13534 1.3271534 1.96836 2.5585001 1.96836 1.4657855 0 2.6458335-1.18005 2.6458335-2.64584 0-1.32291-.839775-2.07141-1.69137-2.52232l-2.9104164-1.85157c-.1257856-.08-.2715663-.12301-.4206462-.12402zm2.3765991 2.64583c1.0260515 0 1.8520835.82603 1.8520835 1.85208s-.826032 1.85209-1.8520835 1.85209c-1.026051 0-1.8520833-.82604-1.8520833-1.85209s.8260323-1.85208 1.8520833-1.85208zm0 .79375c-.5863155 0-1.0583333.47202-1.0583333 1.05833 0 .58632.4720178 1.05834 1.0583333 1.05834.5863154 0 1.0583335-.47202 1.0583335-1.05834 0-.58631-.4720181-1.05833-1.0583335-1.05833z" fill-opacity=".2"/></g></svg>
