<svg height="64" viewBox="0 0 16.933333 16.933333" width="64" xmlns="http://www.w3.org/2000/svg"><defs id="kuyenfoldercolor">
    <style type="text/css" id="current-color-scheme">
      .ColorScheme-Highlight {
        color:#03b2fe;
      }
      </style>
  </defs><g transform="translate(0 -280.06672)"><g transform="matrix(.26458333 0 0 .26458333 -1.5875 189.142659)"><path d="m12 345.65c-4 0-6 3-6 6v49c0 2.75269 2.2472973 5 5 5h54c2.752703 0 5-2.24731 5-5v-42c0-2.75271-2.247297-5-5-5h-27c-.305556 0-.669523-.21927-1.185547-.87109s-1.073964-1.63475-1.714844-2.66016-1.369755-2.1008-2.341797-2.96484c-.972039-.86404-2.241145-1.50391-3.757812-1.50391z" style="fill:currentColor"
class="ColorScheme-Highlight"/><path d="m12 346.64999h16.999999c5 0 6.000002 8 9.000002 8h26.999999c2.216 0 4 1.784 4 4v42c0 2.216-1.784 4-4 4h-54c-2.2159999 0-3.9999999-1.784-3.9999999-4l.0000003-48.97939c0-3.0206 1.9999996-5.02061 4.9999996-5.02061z" fill="#fff" fill-opacity=".1"/><path d="m12 345.64999c-3.9999966 0-6.0000006 3-6.0000006 6v49c0 2.75269 2.247299 5 4.9999996 5h54.000001c2.7527 0 5-2.24731 5-5v-42c0-2.75271-2.2473-5-5-5h-27c-.30556 0-.66952-.21928-1.18555-.8711-.51602-.65181-1.07396-1.63474-1.714841-2.66015-.64088-1.02541-1.36976-2.10081-2.3418-2.96485-.97204-.86403-2.24114-1.5039-3.757809-1.5039zm0 1h17c4.999989 0 6 8 9 8h27c2.215999 0 4 1.784 4 4v42c0 2.216-1.784001 4-4 4h-54.000001c-2.2159976 0-3.9999996-1.784-3.9999996-4v-48.97852c0-3.02059 2.000003-5.02148 5.0000006-5.02148z" fill-opacity=".2"/><path d="m38 353.65c-1.194444 0-2.080477.78073-2.751953 1.62891s-1.238536 1.86525-1.847656 2.83984-1.255245 1.8992-1.970703 2.53516c-.71546.63596-1.446355.99609-2.429688.99609h-18c-2.7527027 0-5 2.24729-5 5v34c0 2.75269 2.2472973 5 5 5h54c2.752703 0 5-2.24731 5-5v-42c0-2.75271-2.247297-5-5-5z" style="fill:currentColor"
class="ColorScheme-Highlight"/><path d="m37.999999 354.65c-2.999988 0-4.00002 8-9 8h-18c-2.2159912 0-4 1.78402-4 4v34c0 2.216 1.7840088 4 4 4h54c2.215988 0 4-1.784 4-4v-2h-28c-5.257832-.00034-9.997794-3.16772-12.009766-8.02539-2.012877-4.85763-.901293-10.44948 2.816406-14.16797 2.484923-2.48409 5.869568-3.85647 9.382813-3.80469 1.643178.024 3.266906.35937 4.785156.98828 4.857648 2.01196 8.025069 6.75196 8.025391 12.00977h-2c0-.28611-.010904-.57207-.033203-.85742-.028649-.36605-.07558-.73048-.140625-1.0918-.064819-.36068-.147588-.71806-.248047-1.07031-.101065-.35274-.219709-.7001-.355469-1.04102-.135583-.34076-.288124-.67458-.457031-1-.168329-.32541-.352798-.64232-.552735-.94922-.2005-.30746-.416273-.60489-.646484-.89062-.230313-.28547-.474772-.55915-.732422-.82031-.256966-.26136-.52683-.50981-.808594-.74414-.282466-.23396-.576456-.45373-.880859-.65821-.304127-.20515-.618333-.39488-.941406-.56836-.323327-.17325-.655118-.33048-.994141-.4707-.264238-.10998-.532675-.20963-.804687-.29883-.349153-.11338-.703748-.20925-1.0625-.28711-.35811-.07786-.719903-.13773-1.083985-.17968-.364486-.04007-.730815-.06654-1.097656-.07032-.366308-.00529-.732668.00883-1.097656.03907-.365529.03137-.729277.08078-1.089844.14843-.360816.06728-.718023.15268-1.070312.25586-.351508.10318-.697633.22376-1.03711.36133-.340233.13829-.673348.29325-.998047.46484-.324245.17099-.639738.35797-.945312.56055-.305611.20258-.600901.42028-.884766.65234-.283621.23237-.555442.47863-.814453.73829-.20277.20194-.397582.41158-.583984.6289-.238346.27897-.462588.56987-.671875.8711-.209461.3013-.403717.61271-.582032.93359-.177793.32047-.339449.64957-.484375.98633-.145319.33649-.273738.68007-.384765 1.02929-.110804.34991-.204017.70503-.279297 1.06446-.076018.35886-.134018.72121-.173828 1.08594-.039141.36461-.06.73104-.0625 1.09765-.002672.36643.012972.73293.046875 1.09766.033857.36563.086011.72928.15625 1.08984.070718.3597.159371.71567.265625 1.06641.105724.351.22892.69651.36914 1.03515.109561.26499.229447.52576.359375.78125.166298.32659.348821.64472.546875.95313.197849.30864.411009.60729.638672.89453.228258.28736.470746.56312.726563.82617.255553.26325.524118.51378.804687.75.280427.23581.572457.45732.875.66406.302694.20769.615598.40005.9375.57618.321933.17533.652421.33445.990235.47656.3379.14249.682728.26848 1.033203.37695.350037.10885.705285.20012 1.064453.27344.359667.07257.722751.12627 1.08789.16406.364743.03591.731081.05477 1.097657.05469h28v-1h-28c-4.044593-.00034-7.690748-2.43698-9.238281-6.17383-1.547111-3.73636-.691494-8.03682 2.167968-10.89648 1.911118-1.91108 4.514404-2.96704 7.216797-2.92774 1.263548.01848 2.512151.27629 3.679688.75977 3.73683 1.54752 6.17351 5.19366 6.173828 9.23828h-2c.000378-.20859-.007564-.41713-.023438-.625-.021279-.26589-.055818-.53067-.103515-.79297-.046904-.26192-.106894-.52147-.179688-.77734-.073209-.25675-.15928-.5095-.257812-.75782-.098457-.24823-.209273-.49153-.332032-.72851-.123178-.23645-.258142-.46646-.404297-.68945-.145371-.22318-.301846-.43899-.46875-.64649-.167648-.20799-.345587-.40754-.533203-.59765-.186833-.18993-.38304-.37056-.58789-.54102-.205429-.17008-.419259-.3296-.640625-.47852-.221458-.14951-.450272-.28744-.685547-.41406-.235037-.12586-.476231-.24013-.722656-.3418-.192416-.08012-.387853-.15216-.585938-.21679-.253515-.0824-.511-.15229-.771484-.20899-.260678-.05669-.524043-.10062-.789063-.13086-.264582-.03023-.530532-.04895-.796875-.05273-.266592-.00378-.533203.00662-.798828.0293-.265954.0223-.530594.05828-.792969.10742-.262076.04951-.521507.11191-.777343.1875-.256158.07446-.508414.16194-.75586.26172-.247014.10053-.488842.21316-.724609.33789-.235827.12438-.465264.2608-.6875.4082-.222625.14729-.437754.30567-.644531.47461-.206094.16898-.403615.34813-.591797.53711-.147164.14676-.288559.29943-.423828.45703-.173923.20326-.337538.41518-.490235.63477-.151817.21876-.292615.44491-.421875.67773-.129709.2329-.247692.47226-.353515.7168-.105555.24521-.198767.49564-.279297.75-.080561.25428-.148356.51227-.203125.77344-.054781.26078-.096503.52411-.125.78906-.028936.26532-.044375.53199-.046875.79883-.001663.26668.010173.53312.035156.79882.024559.26536.062371.52948.113281.79102.05079.26215.114667.52147.191407.77734.077268.25497.167219.50591.269531.75196.079789.19268.167098.3824.261719.56836.120537.23758.252862.46885.396484.69336.144013.22442.299157.44138.464844.65039.166275.20923.342928.40994.529297.60156.185461.19117.380381.37295.583984.54492.20403.17178.416524.33357.636719.48438.220104.15076.447612.29022.68164.41796.234285.12775.474808.24372.720703.34766.245934.10356.496911.19482.751953.27344.254374.07861.5125.14435.773438.19726.261486.05329.525504.09464.791016.1211.265454.02759.532069.03936.798828.03906h28v-1h-28c-2.830883 0-5.383098-1.70503-6.466797-4.32031-1.083592-2.61585-.484622-5.6269 1.517578-7.62891 1.337316-1.33799 3.159243-2.07724 5.050781-2.05078v-.00195c.885361.01307 1.76021.19418 2.578125.5332 2.615246 1.0837 4.32032 3.6359 4.320313 6.4668h-2c0-.13025-.005421-.26061-.015625-.39063-.012548-.16649-.033398-.33206-.0625-.49609-.029632-.16396-.067474-.32608-.113282-.48633-.04611-.1601-.100238-.31807-.162109-.47266-.061379-.15496-.130496-.30692-.207031-.45507-.076725-.1482-.160829-.29218-.251953-.43165-.090898-.13972-.188654-.27428-.292969-.40429-.105033-.13002-.216479-.25437-.333984-.37305-.116674-.11868-.239251-.23131-.367188-.33789-.128417-.1062-.262022-.20585-.400391-.29883-.138149-.09373-.280899-.18039-.427734-.25976-.146766-.07824-.297345-.1494-.451172-.21289-.120567-.04989-.243068-.09471-.367187-.13477-.158514-.0514-.319525-.09684-.482422-.13086-.162618-.03553-.326871-.06313-.492188-.08203-.166004-.0189-.332869-.03071-.5-.0332-.166204 0-.332428.00246-.498047.01757-.166404.01437-.331986.03813-.496093.06836-.163975.031-.326266.06995-.486328.11719-.159534.04687-.316612.1017-.470704.16406-.154465.06274-.305685.13308-.453125.21094-.147356.07748-.29079.16207-.429687.25391-.138988.09222-.273273.19105-.402344.29687-.129259.10583-.253097.21997-.371093.33789-.092259.09222-.180851.18809-.265625.28711-.108095.12658-.209746.25809-.304688.39453-.095546.1366-.184214.27832-.265625.42383-.080995.14608-.154675.29577-.220703.44922-.065726.15319-.12375.30963-.173828.46875-.050343.15851-.09256.31953-.126953.48242-.034281.16343-.060362.32822-.078125.49414-.017764.16543-.027797.33175-.029297.49805-.001134.16706.005988.3337.021484.5.015194.16569.038565.33049.070313.49414.032201.16392.07264.32646.121093.48633.048114.15965.104171.31688.167969.4707.050079.11981.1048.23786.164063.35352.075401.14861.158169.29337.248047.43359.090179.14018.187305.27586.291015.40625.103635.13115.21382.25481.330078.375.115994.11906.237902.23289.365235.33985.127672.10733.260636.20862.398437.30273.13748.09411.279589.18159.425781.26172.146026.07975.295959.15217.449219.2168.153271.065.309746.12236.46875.17187.159303.04913.320949.09098.484375.125.163393.03288.328295.05715.494141.07227.166151.01889.33302.02723.5.02734h28v-32c0-2.21598-1.784012-4-4-4z" fill="#fff" fill-opacity=".3"/><path d="m37.999998 353.65001c-1.19444 0-2.08048.78073-2.75195 1.6289-.67148.84818-1.23854 1.86526-1.84766 2.83985s-1.25524 1.89919-1.9707 2.53515-1.44636.9961-2.42969.9961h-18c-2.7527005 0-5.0000005 2.24729-5.0000005 5v34c0 2.75269 2.2473 5 5.0000005 5h54c2.7527 0 5-2.24731 5-5v-42c0-2.75271-2.2473-5-5-5zm0 1h27c2.216 0 4 1.784 4 4v42c0 2.216-1.784 4-4 4h-54c-2.2160005 0-4.0000005-1.784-4.0000005-4v-34c0-2.216 1.784-4 4.0000005-4h18c4.99999 0 6-8 9-8z" fill-opacity=".2"/></g><path d="m9.3105315 287.74016c-.9295474-.0137-1.8250664.3494-2.4825361 1.00665-.9836423.98385-1.2777494 2.46336-.7451752 3.74861.5323348 1.28526 1.7864489 2.1233 3.1775847 2.12339h7.4083441v-.52917h-7.4083441c-.096987.00002-.1939153-.005-.2904212-.0145-.09661-.01-.1926762-.0242-.2878387-.0434-.095026-.0194-.1890215-.0435-.2816359-.0723-.092729-.0287-.1839664-.062-.2733691-.0997-.089379-.0376-.1768211-.0797-.2619992-.12609-.085174-.0466-.167959-.0975-.2480466-.15245-.080048-.0547-.1573146-.11331-.2315109-.1757-.074234-.0625-.1452914-.12878-.2129065-.19843-.067685-.0696-.131844-.14257-.1922373-.2186-.060236-.076-.1166336-.15501-.1689811-.23667-.052402-.0816-.1006944-.16577-.144694-.25218-.034377-.0676-.066096-.1366-.095084-.20671-.0371-.0896-.069696-.18102-.097669-.27389-.028113-.0928-.051569-.18698-.07028-.28215-.018584-.0954-.032383-.19161-.041341-.28835-.00897-.0965-.013113-.19347-.012406-.29042.0006615-.097.00618-.19396.016536-.29043.010533-.0965.025879-.19237.045992-.28732.019918-.0951.044581-.18905.073898-.28163.029376-.0924.063353-.18331.1018022-.27234.038345-.0891.081117-.17617.1281581-.26096.047179-.0849.098575-.1673.1539949-.24702.055374-.0797.1147053-.15666.1777677-.23047.049319-.0575.1008621-.11297.1545116-.1664.06853-.0687.1404496-.13386.215491-.19534.075106-.0614.1532355-.119.2340951-.1726.080848-.0536.1643242-.10307.2501141-.14831.085914-.0454.1740455-.0864.2640655-.12299.089818-.0364.1813999-.0683.2744025-.0956.093207-.0273.1877211-.0499.2831868-.0677.095403-.0179.1916422-.031.2883553-.0393.096575-.008.1935028-.0117.2904215-.0103.097057.001.1939843.008.2904215.0186.096334.0111.1920549.0269.2868046.0475.094916.0206.1887402.046.2811202.076.07197.0236.142993.05.212906.0791.0897.0371.177488.0787.263035.12454.08548.0459.168613.0961.24908.15038.08054.0541.158326.11225.233062.17415.07455.062.145951.12773.21394.19688.06817.0691.13285.14151.193787.21704.06091.0756.117999.1543.171048.23565.0529.0812.101708.16505.146245.25115.04469.0861.08505.17442.120923.26458.03592.0902.06731.18211.09405.27544.02658.0932.04848.18775.06563.28318.01721.0956.02963.19202.03721.28887.0059.0755.0088.15116.0088.22686h.529167c-.000085-1.39113-.838133-2.64525-2.123387-3.17758-.401704-.1664-.8313157-.25513-1.2660742-.26148zm-.011366.79375c-.7150094-.0104-1.4037945.26899-1.9094449.77463-.7565668.75662-.9829496 1.89444-.5736096 2.88302.409452.98871 1.3741641 1.63341 2.4442976 1.6335h7.4083434v-.52917h-7.4083432c-.070581.00008-.1411213-.003-.2113571-.0103-.070254-.007-.1401048-.0179-.2092899-.032-.069039-.014-.1373367-.0314-.2046393-.0522-.067484-.0208-.1338855-.0449-.1989553-.0723-.065057-.0275-.128697-.0582-.1906854-.092-.061923-.0338-.1221148-.0707-.1803506-.11059-.058257-.0399-.1144831-.0827-.1684658-.12815-.053872-.0455-.1054409-.0936-.1545116-.14418-.04931-.0507-.09605-.10381-.1400435-.15917-.043838-.0553-.084886-.1127-.1229894-.17208-.038-.0594-.073011-.12059-.1049033-.18345-.025035-.0492-.048135-.0994-.069246-.15038-.02707-.0651-.05087-.13149-.071314-.19895-.020304-.0677-.037205-.13631-.050643-.20567-.01347-.0692-.023474-.13908-.029972-.20929-.00661-.0703-.00973-.1408-.00929-.21136.0006614-.0706.00475-.14116.012406-.21136.00754-.0701.018579-.13977.033073-.20877.014491-.0691.03243-.13736.053745-.20464.021307-.0673.045969-.13356.073897-.19844.027999-.0647.059215-.12803.093534-.18965.0342-.0616.071453-.12144.1116214-.17932.040401-.0581.083691-.11416.1297085-.16794.035794-.0417.073202-.0821.1121371-.12093.049793-.05.1020519-.0974.1565801-.14211.054713-.0447.111628-.0866.1705319-.12557.058796-.039.1195057-.0751.1819013-.10801.062376-.033.1263642-.0628.1917205-.0894.065466-.0264.1322123-.0495.1999874-.0692.067688-.02.1363319-.0365.2056734-.0496.069418-.013.1394404-.0225.2098066-.0284.070279-.006.1408192-.009.2113558-.008.070469.001.1408364.006.2108406.014.070125.008.1398024.0196.2087729.0346.068919.015.1370449.0335.2041213.0553.052405.0171.1041206.0362.1550306.0574.0652.0269.129015.0571.191202.0904.06225.0335.122791.07.181385.10956.05857.0394.115146.0816.169499.1266.0542.0451.106113.0929.155546.14315.04964.0503.09672.1031.141077.15813.04416.0549.08556.112.124023.17105.03867.059.07438.11986.106971.18242.03248.0627.0618.12707.08785.19275.02607.0657.04884.13257.06821.2005.01926.0677.03513.13637.04754.20567.01262.0694.02176.13946.02739.20981.0042.055.0063.11018.0062.16537h.529167c-.000084-1.07014-.644789-2.03485-1.633493-2.4443-.3089106-.12792-.6392699-.19613-.9735841-.20102zm-.011888.79323c-.5004702-.007-.9825209.18859-1.3363535.5426-.5297493.5297-.6882265 1.32637-.4015259 2.01848.2867293.69196.9620028 1.14309 1.7110078 1.14309h7.4083441v-.52917h-7.4083425c-.044182-.00003-.088334-.002-.1322916-.007-.04388-.004-.087515-.0109-.1307412-.0196-.043236-.009-.086009-.0196-.1281584-.0326-.042073-.0131-.083465-.0283-.1240232-.0455-.040548-.0171-.080216-.0363-.1188561-.0574-.038683-.0212-.076281-.0443-.1126548-.0692-.036455-.0249-.071639-.0517-.1054203-.0801-.033687-.0283-.065939-.0584-.096635-.0899-.030759-.0318-.059907-.065-.087333-.0997-.027442-.0345-.053139-.0704-.076998-.10749-.023775-.0371-.045678-.0754-.065629-.11472-.015679-.0306-.03016-.0618-.043408-.0935-.01688-.0407-.031714-.0823-.044442-.12454-.012824-.0423-.023516-.0853-.032039-.12867-.00837-.0433-.014584-.0869-.018605-.13074-.0041-.044-.006-.0881-.00569-.1323.0003968-.044.00297-.088.00775-.13177.0047-.0439.011599-.0875.020672-.13074.00906-.0431.020275-.0857.033589-.12764.013253-.0421.028603-.0835.045993-.12403.017468-.0406.036958-.0802.058394-.11885.021542-.0385.044997-.076.07028-.11214.025119-.0361.052025-.0709.080616-.10439.022426-.0262.045871-.0516.070279-.076.031224-.0312.063993-.0609.098185-.0889.034152-.028.069681-.0542.1064541-.0786.036754-.0243.074697-.0467.1136885-.0672.039007-.0206.07902-.0392.1198885-.0558.040766-.0165.082331-.031.1245402-.0434.042347-.0125.085293-.0228.1286751-.031.043423-.008.087231-.0143.1312579-.0181.04382-.004.0878-.005.1317749-.005.044217.00066.088369.004.132292.009.043743.005.087205.0123.1302255.0217.043098.009.085697.021.12764.0346.032837.0106.065246.0225.097152.0357.040703.0168.080544.0356.1193728.0563.038848.021.076619.0439.1131718.0687.036608.0246.071965.051.1059368.0791.03385.0282.06628.058.09715.0894.03109.0314.06058.0643.08837.0987.0276.0344.05347.07.07752.10697.02411.0369.04636.075.06666.11421.02025.0392.03854.0794.05478.1204.01637.0409.03069.0827.04289.12506.01212.0424.02213.0853.02997.12868.0077.0434.01322.0872.01654.13125.0027.0344.0041.0689.0041.10336h.529167c.000002-.74901-.451133-1.42428-1.1430837-1.71101-.2164075-.0897-.4478769-.13762-.6821297-.14108z" fill-opacity=".2"/></g></svg>
