<svg height="64" viewBox="0 0 16.933333 16.933333" width="64" xmlns="http://www.w3.org/2000/svg"><defs id="kuyenfoldercolor">
    <style type="text/css" id="current-color-scheme">
      .ColorScheme-Highlight {
        color:#03b2fe;
      }
      </style>
  </defs><g transform="translate(0 -280.06666)"><g transform="matrix(.26458333 0 0 .26458333 -1.5875 189.1426)"><path d="m12 345.65c-4 0-6 3-6 6v49c0 2.75269 2.2472973 5 5 5h54c2.752703 0 5-2.24731 5-5v-42c0-2.75271-2.247297-5-5-5h-27c-.305556 0-.669523-.21927-1.185547-.87109s-1.073964-1.63475-1.714844-2.66016-1.369755-2.1008-2.341797-2.96484c-.972039-.86404-2.241145-1.50391-3.757812-1.50391z" style="fill:currentColor"
class="ColorScheme-Highlight"/><path d="m12 346.64999h16.999999c5 0 6.000002 8 9.000002 8h26.999999c2.216 0 4 1.784 4 4v42c0 2.216-1.784 4-4 4h-54c-2.2159999 0-3.9999999-1.784-3.9999999-4l.0000003-48.97939c0-3.0206 1.9999996-5.02061 4.9999996-5.02061z" fill="#fff" fill-opacity=".1"/><path d="m12 345.64999c-3.9999966 0-6.0000006 3-6.0000006 6v49c0 2.75269 2.247299 5 4.9999996 5h54.000001c2.7527 0 5-2.24731 5-5v-42c0-2.75271-2.2473-5-5-5h-27c-.30556 0-.66952-.21928-1.18555-.8711-.51602-.65181-1.07396-1.63474-1.714841-2.66015-.64088-1.02541-1.36976-2.10081-2.3418-2.96485-.97204-.86403-2.24114-1.5039-3.757809-1.5039zm0 1h17c4.999989 0 6 8 9 8h27c2.215999 0 4 1.784 4 4v42c0 2.216-1.784001 4-4 4h-54.000001c-2.2159976 0-3.9999996-1.784-3.9999996-4v-48.97852c0-3.02059 2.000003-5.02148 5.0000006-5.02148z" fill-opacity=".2"/><path d="m38 353.65c-1.194444 0-2.080477.78073-2.751953 1.62891s-1.238536 1.86525-1.847656 2.83984-1.255245 1.8992-1.970703 2.53516c-.71546.63596-1.446355.99609-2.429688.99609h-18c-2.7527027 0-5 2.24729-5 5v34c0 2.75269 2.2472973 5 5 5h54c2.752703 0 5-2.24731 5-5v-42c0-2.75271-2.247297-5-5-5z" style="fill:currentColor"
class="ColorScheme-Highlight"/><path d="m38 354.64999c-2.999985 0-4.000025 8-9 8h-18c-2.2159888 0-3.9999999 1.78403-3.9999999 4v34c0 2.216 1.7840111 4 3.9999999 4h54c2.215985 0 4-1.784 4-4v-42c0-2.21597-1.784015-4-4-4zm11.029297 17c.515387.01361.979428.43267.974609 1.00977v5.32031c1.25668 1.73087 1.996094 3.86385 1.996094 6.17578 0 5.81696-4.683053 10.5-10.5 10.5h-7c-5.816949 0-10.5-4.68304-10.5-10.5 0-2.31291.740397-4.44648 1.998047-6.17773v-5.31836c-.005117-.57498.474507-1.03427 1.048828-1.00781.155149.00793.306277.05218.441406.1289l4.103516 2.2793c.922862-.2637 1.898432-.4043 2.908203-.4043h7c1.00977 0 1.985341.14049 2.908203.4043l4.103516-2.2793c.167473-.09465.345782-.13539.517578-.13086z" fill="#fff" fill-opacity=".3"/><path d="m37.999998 353.65001c-1.19444 0-2.08048.78073-2.75195 1.6289-.67148.84818-1.23854 1.86526-1.84766 2.83985s-1.25524 1.89919-1.9707 2.53515-1.44636.9961-2.42969.9961h-18c-2.7527005 0-5.0000005 2.24729-5.0000005 5v34c0 2.75269 2.2473 5 5.0000005 5h54c2.7527 0 5-2.24731 5-5v-42c0-2.75271-2.2473-5-5-5zm0 1h27c2.216 0 4 1.784 4 4v42c0 2.216-1.784 4-4 4h-54c-2.2160005 0-4.0000005-1.784-4.0000005-4v-34c0-2.216 1.784-4 4.0000005-4h18c4.99999 0 6-8 9-8z" fill-opacity=".2"/></g><path d="m5.5686522 287.47554c-.1519558-.007-.2788563.11452-.2775024.26665v1.40715c-.3327536.45806-.5286499 1.02256-.5286499 1.63452 0 1.53907 1.2390558 2.77813 2.778125 2.77813h1.8520832c1.5390689 0 2.7781249-1.23906 2.7781249-2.77813 0-.6117-.195636-1.17605-.528133-1.63401v-1.40766c.0017-.20359-.217565-.33273-.394808-.23255l-1.085722.60307c-.2441741-.0698-.5022932-.10697-.7694619-.10697h-1.8520832c-.2671687 0-.5252878.0372-.7694621.10697l-1.0857218-.60307c-.035753-.0203-.075739-.032-.1167888-.0341z" fill-opacity=".2"/></g></svg>
