<svg height="64" viewBox="0 0 16.933333 16.933333" width="64" xmlns="http://www.w3.org/2000/svg"><defs id="kuyenfoldercolor">
    <style type="text/css" id="current-color-scheme">
      .ColorScheme-Highlight {
        color:#03b2fe;
      }
      </style>
  </defs>
<g transform="translate(0 -280.06666)"><g transform="matrix(.26458333 0 0 .26458333 -1.5875 189.1426)"><path d="m12 345.65c-4 0-6 3-6 6v49c0 2.75269 2.2472973 5 5 5h54c2.752703 0 5-2.24731 5-5v-42c0-2.75271-2.247297-5-5-5h-27c-.305556 0-.669523-.21927-1.185547-.87109s-1.073964-1.63475-1.714844-2.66016-1.369755-2.1008-2.341797-2.96484c-.972039-.86404-2.241145-1.50391-3.757812-1.50391z" style="fill:currentColor"
class="ColorScheme-Highlight"/><path d="m12 346.64999h16.999999c5 0 6.000002 8 9.000002 8h26.999999c2.216 0 4 1.784 4 4v42c0 2.216-1.784 4-4 4h-54c-2.2159999 0-3.9999999-1.784-3.9999999-4l.0000003-48.97939c0-3.0206 1.9999996-5.02061 4.9999996-5.02061z" fill="#fff" fill-opacity=".1"/><path d="m12 345.64999c-3.9999966 0-6.0000006 3-6.0000006 6v49c0 2.75269 2.247299 5 4.9999996 5h54.000001c2.7527 0 5-2.24731 5-5v-42c0-2.75271-2.2473-5-5-5h-27c-.30556 0-.66952-.21928-1.18555-.8711-.51602-.65181-1.07396-1.63474-1.714841-2.66015-.64088-1.02541-1.36976-2.10081-2.3418-2.96485-.97204-.86403-2.24114-1.5039-3.757809-1.5039zm0 1h17c4.999989 0 6 8 9 8h27c2.215999 0 4 1.784 4 4v42c0 2.216-1.784001 4-4 4h-54.000001c-2.2159976 0-3.9999996-1.784-3.9999996-4v-48.97852c0-3.02059 2.000003-5.02148 5.0000006-5.02148z" fill-opacity=".2"/><path d="m38 353.65c-1.194444 0-2.080477.78073-2.751953 1.62891s-1.238536 1.86525-1.847656 2.83984-1.255245 1.8992-1.970703 2.53516c-.71546.63596-1.446355.99609-2.429688.99609h-18c-2.7527027 0-5 2.24729-5 5v34c0 2.75269 2.2472973 5 5 5h54c2.752703 0 5-2.24731 5-5v-42c0-2.75271-2.247297-5-5-5z" style="fill:currentColor"
class="ColorScheme-Highlight"/><path d="m38 354.64999c-2.999991 0-4.000015 8-9 8h-18c-2.2159932 0-3.9999999 1.78403-3.9999999 4v34c0 2.216 1.7840067 4 3.9999999 4h54c2.215991 0 4-1.784 4-4v-42c0-2.21597-1.784009-4-4-4zm0 16c3.877995 0 7 3.12199 7 7v2h1c.553995 0 1 .446 1 1v4 9c0 .55401-.446005 1-1 1h-5-11c-.553998 0-1-.44599-1-1v-13c0-.554.446002-1 1-1h1 3 1 6 1v-2c0-2.21601-1.784001-4-4-4-1.860932 0-3.347882 1.28448-3.798828 3h-3c.501346-3.37912 3.275911-6 6.798828-6zm-.103516 13c-1.051116 0-1.896484.8454-1.896484 1.89649v.20703c0 .72374.406989 1.34198 1 1.66211v3.23437c0 .55401.446001 1 1 1 .554002 0 1-.44599 1-1v-3.23437c.593011-.32013 1-.93837 1-1.66211v-.20703c0-1.05109-.845369-1.89649-1.896485-1.89649z" fill="#fff" fill-opacity=".3"/><path d="m37.999998 353.65001c-1.19444 0-2.08048.78073-2.75195 1.6289-.67148.84818-1.23854 1.86526-1.84766 2.83985s-1.25524 1.89919-1.9707 2.53515-1.44636.9961-2.42969.9961h-18c-2.7527005 0-5.0000005 2.24729-5.0000005 5v34c0 2.75269 2.2473 5 5.0000005 5h54c2.7527 0 5-2.24731 5-5v-42c0-2.75271-2.2473-5-5-5zm0 1h27c2.216 0 4 1.784 4 4v42c0 2.216-1.784 4-4 4h-54c-2.2160005 0-4.0000005-1.784-4.0000005-4v-34c0-2.216 1.784-4 4.0000005-4h18c4.99999 0 6-8 9-8z" fill-opacity=".2"/></g><path d="m8.466666 287.21041c-.9321056 0-1.6662076.69344-1.7988556 1.5875h.793749c.119313-.4539.512735-.79375 1.0051066-.79375.586317 0 1.058333.47202 1.058333 1.05834v.52916h-.264583-1.5874996-.264583-.79375-.264584c-.1465787 0-.2645829.11801-.2645829.26459v3.43958c0 .14658.1180042.26458.2645829.26458h2.9104166 1.322917c.146578 0 .264583-.118.264583-.26458v-2.38125-1.05833c0-.14658-.118005-.26459-.264583-.26459h-.264583v-.52916c0-1.02606-.82603-1.85209-1.852084-1.85209zm-.02739 3.43959h.05478c.278108 0 .501778.22367.501778.50177v.0548c0 .19149-.107682.35507-.264583.43977v.85576c0 .14658-.118004.26458-.264584.26458-.1465786 0-.2645826-.118-.2645826-.26458v-.85576c-.156901-.0847-.264583-.24828-.264583-.43977v-.0548c0-.2781.22367-.50177.5017776-.50177z" fill-opacity=".2"/></g></svg>
