<?xml version="1.0" encoding="UTF-8" standalone="no"?>
<!-- Created with Inkscape (http://www.inkscape.org/) -->

<svg
   width="48"
   height="48"
   viewBox="0 0 48 48"
   version="1.1"
   id="svg8"
   inkscape:version="1.2.1 (9c6d41e410, 2022-07-14)"
   sodipodi:docname="application-x-lyx.svg"
   xml:space="preserve"
   xmlns:inkscape="http://www.inkscape.org/namespaces/inkscape"
   xmlns:sodipodi="http://sodipodi.sourceforge.net/DTD/sodipodi-0.dtd"
   xmlns="http://www.w3.org/2000/svg"
   xmlns:svg="http://www.w3.org/2000/svg"
   xmlns:rdf="http://www.w3.org/1999/02/22-rdf-syntax-ns#"
   xmlns:cc="http://creativecommons.org/ns#"
   xmlns:dc="http://purl.org/dc/elements/1.1/"><title
     id="title7895">Antu icon Theme</title><defs
     id="defs2"><style
       id="current-color-scheme"
       type="text/css">
      .ColorScheme-Text {
        color:#122036;
      }
      </style><style
       id="current-color-scheme-2"
       type="text/css">
      .ColorScheme-Text {
        color:#122036;
      }
      </style><style
       id="current-color-scheme-0"
       type="text/css">
      .ColorScheme-Text {
        color:#122036;
      }
      </style></defs><sodipodi:namedview
     id="base"
     pagecolor="#ffffff"
     bordercolor="#666666"
     borderopacity="1.0"
     inkscape:pageopacity="0.0"
     inkscape:pageshadow="2"
     inkscape:zoom="11.313709"
     inkscape:cx="17.633475"
     inkscape:cy="17.235727"
     inkscape:document-units="px"
     inkscape:current-layer="g2217"
     showgrid="true"
     units="px"
     inkscape:window-width="2160"
     inkscape:window-height="1330"
     inkscape:window-x="0"
     inkscape:window-y="0"
     inkscape:window-maximized="1"
     objecttolerance="10"
     gridtolerance="10"
     guidetolerance="10"
     inkscape:snap-bbox="true"
     inkscape:bbox-paths="true"
     inkscape:bbox-nodes="true"
     inkscape:snap-bbox-edge-midpoints="true"
     inkscape:snap-bbox-midpoints="true"
     inkscape:object-paths="true"
     inkscape:snap-intersection-paths="true"
     inkscape:showpageshadow="2"
     inkscape:pagecheckerboard="0"
     inkscape:deskcolor="#d1d1d1"><inkscape:grid
       type="xygrid"
       id="grid7897"
       empspacing="4" /></sodipodi:namedview><metadata
     id="metadata5"><rdf:RDF><cc:Work
         rdf:about=""><dc:format>image/svg+xml</dc:format><dc:type
           rdf:resource="http://purl.org/dc/dcmitype/StillImage" /><dc:title>Antu icon Theme</dc:title></cc:Work></rdf:RDF></metadata><g
     inkscape:label="Capa 1"
     inkscape:groupmode="layer"
     id="layer1"
     transform="translate(0,-266.64999)"><g
       id="g2217"
       transform="translate(30.000001,16.999985)"><path
         style="opacity:1;vector-effect:none;fill:#4f92db;fill-opacity:1;stroke:none;stroke-width:6;stroke-linecap:square;stroke-linejoin:round;stroke-miterlimit:18;stroke-dasharray:none;stroke-dashoffset:0;stroke-opacity:1;paint-order:markers stroke fill"
         d="M -22,251.65 H 9.999997 c 1.662002,0 3,1.33799 3,3 v 38.00001 c 0,1.66197 -1.337998,3 -3,3 H -22 c -1.661998,0 -3,-1.33803 -3,-3 V 254.65 c 0,-1.66201 1.338002,-3 3,-3 z"
         id="rect6397-1"
         inkscape:connector-curvature="0" /><path
         style="opacity:1;vector-effect:none;fill:#5ac0ff;fill-opacity:1;stroke:none;stroke-width:6;stroke-linecap:square;stroke-linejoin:round;stroke-miterlimit:18;stroke-dasharray:none;stroke-dashoffset:0;stroke-opacity:1;paint-order:markers stroke fill"
         d="M -22,252.64999 H 9.999997 c 1.107999,0 2.000001,0.892 2.000001,2.00001 v 38.00001 c 0,1.10797 -0.892002,1.99998 -2.000001,1.99998 H -22 c -1.107999,0 -2.000001,-0.89201 -2.000001,-1.99998 V 254.65 c 0,-1.10801 0.892002,-2.00001 2.000001,-2.00001 z"
         id="rect6399-4"
         inkscape:connector-curvature="0"
         sodipodi:nodetypes="sssssssss" /><path
         id="rect3682-3"
         style="opacity:1;vector-effect:none;fill:#dff1fc;fill-opacity:1;stroke:none;stroke-width:2;stroke-linecap:round;stroke-linejoin:round;stroke-miterlimit:4;stroke-dasharray:none;stroke-dashoffset:0;stroke-opacity:1"
         d="M -17.000001 263.65 L -17.000001 266.65 L 4.999999 266.65 L 4.999999 263.65 L -17.000001 263.65 z M -7.000001 268.65 L -7.000001 271.65 L -2.000001 276.65 L -7.000001 281.65 L -7.000001 284.65 L 4.999999 284.65 L 4.999999 279.65 L 1.999999 279.65 L 1.999999 281.65 L -3.000001 281.65 L 1.999999 276.65 L -3.000001 271.65 L 1.999999 271.65 L 1.999999 273.65 L 4.999999 273.65 L 4.999999 268.65 L -7.000001 268.65 z M -17.000001 269.65 L -17.000001 272.65 L -9.000001 272.65 L -9.000001 269.65 L -17.000001 269.65 z M -17.000001 275.65 L -17.000001 278.65 L -9.000001 278.65 L -9.000001 275.65 L -17.000001 275.65 z M -17.000001 281.65 L -17.000001 284.65 L -9.000001 284.65 L -9.000001 281.65 L -17.000001 281.65 z " /></g></g></svg>
