<?xml version="1.0" encoding="UTF-8" standalone="no"?>
<!-- Created with Inkscape (http://www.inkscape.org/) -->

<svg
   width="48"
   height="48"
   viewBox="0 0 48 48"
   version="1.1"
   id="svg8"
   inkscape:version="1.2.1 (9c6d41e410, 2022-07-14)"
   sodipodi:docname="application-x-kdenlivetitle.svg"
   xmlns:inkscape="http://www.inkscape.org/namespaces/inkscape"
   xmlns:sodipodi="http://sodipodi.sourceforge.net/DTD/sodipodi-0.dtd"
   xmlns="http://www.w3.org/2000/svg"
   xmlns:svg="http://www.w3.org/2000/svg"
   xmlns:rdf="http://www.w3.org/1999/02/22-rdf-syntax-ns#"
   xmlns:cc="http://creativecommons.org/ns#"
   xmlns:dc="http://purl.org/dc/elements/1.1/">
  <title
     id="title7895">Antu icon Theme</title>
  <defs
     id="defs2" />
  <sodipodi:namedview
     id="base"
     pagecolor="#ffffff"
     bordercolor="#666666"
     borderopacity="1.0"
     inkscape:pageopacity="0.0"
     inkscape:pageshadow="2"
     inkscape:zoom="16"
     inkscape:cx="33.90625"
     inkscape:cy="19.6875"
     inkscape:document-units="px"
     inkscape:current-layer="g27431"
     showgrid="true"
     units="px"
     inkscape:window-width="1080"
     inkscape:window-height="1330"
     inkscape:window-x="0"
     inkscape:window-y="0"
     inkscape:window-maximized="0"
     objecttolerance="10"
     gridtolerance="10"
     guidetolerance="10"
     inkscape:snap-bbox="true"
     inkscape:bbox-paths="true"
     inkscape:bbox-nodes="true"
     inkscape:snap-bbox-edge-midpoints="true"
     inkscape:snap-bbox-midpoints="true"
     inkscape:object-paths="true"
     inkscape:snap-intersection-paths="true"
     inkscape:showpageshadow="2"
     inkscape:pagecheckerboard="0"
     inkscape:deskcolor="#d1d1d1">
    <inkscape:grid
       type="xygrid"
       id="grid7897"
       empspacing="4" />
  </sodipodi:namedview>
  <metadata
     id="metadata5">
    <rdf:RDF>
      <cc:Work
         rdf:about="">
        <dc:format>image/svg+xml</dc:format>
        <dc:type
           rdf:resource="http://purl.org/dc/dcmitype/StillImage" />
        <dc:title>Antu icon Theme</dc:title>
      </cc:Work>
    </rdf:RDF>
  </metadata>
  <g
     inkscape:label="Capa 1"
     inkscape:groupmode="layer"
     id="layer1"
     transform="translate(0,-266.64999)">
    <g
       id="g4901"
       transform="translate(22.00001,-18.999995)">
      <g
         id="g1374"
         transform="translate(-325.00001,-150.00001)" />
      <g
         id="g27431"
         transform="translate(5.00001,6)">
        <g
           id="g76842"
           transform="translate(-20,-22.000005)">
          <path
             inkscape:connector-curvature="0"
             id="rect6397-1-74"
             d="m 0.99998,303.64999 h 32 c 1.662,0 3,1.33798 3,3 v 38 c 0,1.66196 -1.338,3 -3,3 h -32 c -1.662,0 -3,-1.33804 -3,-3 v -38 c 0,-1.66202 1.338,-3 3,-3 z"
             style="fill:#36404d;fill-opacity:1;stroke:none;stroke-width:6;stroke-linecap:square;stroke-linejoin:round;stroke-miterlimit:18;stroke-dasharray:none;stroke-dashoffset:0;stroke-opacity:1;paint-order:markers stroke fill" />
          <path
             sodipodi:nodetypes="sssssssss"
             inkscape:connector-curvature="0"
             id="rect6399-4-1"
             d="m 0.99998,304.64999 h 32 c 1.108,0 2,0.89199 2,2 V 344.65 c 0,1.10797 -0.892,1.99997 -2,1.99997 h -32 c -1.108,0 -2,-0.892 -2,-1.99997 v -38.00001 c 0,-1.10801 0.892,-2 2,-2 z"
             style="fill:#4b6477;fill-opacity:1;stroke:none;stroke-width:6;stroke-linecap:square;stroke-linejoin:round;stroke-miterlimit:18;stroke-dasharray:none;stroke-dashoffset:0;stroke-opacity:1;paint-order:markers stroke fill" />
          <path
             style="fill:#44acff;fill-opacity:1;stroke:none;stroke-width:2;stroke-linecap:round;stroke-linejoin:round;stroke-miterlimit:4;stroke-dasharray:none;stroke-dashoffset:0;stroke-opacity:0.960784"
             d="m 7.99998,307.64999 h 18 c 1.108,0 2,0.892 2,2 v 32 c 0,1.108 -0.892,2 -2,2 h -18 c -1.108,0 -2,-0.892 -2,-2 v -32 c 0,-1.108 0.892,-2 2,-2 z"
             id="rect6978" />
          <path
             id="rect73168-2"
             style="fill:#3a9bea;fill-opacity:1;stroke:none;stroke-width:0.8;stroke-linecap:round;stroke-linejoin:round;stroke-miterlimit:1.8;stroke-opacity:1;paint-order:stroke fill markers;stop-color:#000000"
             d="m 7.99998,307.64999 v 2 h 2 v -2 z m 2,2 v 2 h 2 v -2 z m 2,0 h 2 v -2 h -2 z m 2,0 v 2 h 2 v -2 z m 2,0 h 2 v -2 h -2 z m 2,0 v 2 h 2 v -2 z m 2,0 h 2 v -2 h -2 z m 2,0 v 2 h 2 v -2 z m 2,0 h 2 v -2 h -2 z m 2,0 v 2 h 2 v -2 z m 0,2 h -2 v 2 h 2 z m 0,2 v 2 h 2 v -2 z m 0,2 h -2 v 2 h 2 z m 0,2 v 2 h 2 v -2 z m 0,2 h -2 v 2 h 2 z m 0,2 v 2 h 2 v -2 z m 0,2 h -2 v 2 h 2 z m 0,2 v 2 h 2 v -2 z m 0,2 h -2 v 2 h 2 z m 0,2 v 2 h 2 v -2 z m 0,2 h -2 v 2 h 2 z m 0,2 v 2 h 2 v -2 z m 0,2 h -2 v 2 h 2 z m 0,2 v 2 h 2 v -2 z m 0,2 h -2 v 2 h 2 z m 0,2 v 2 c 0.0346,0 0.0693,-2.3e-4 0.10352,-0.002 0.0342,-0.002 0.0679,-0.004 0.10156,-0.008 0.0337,-0.003 0.0664,-0.009 0.0996,-0.0137 0.0332,-0.005 0.067,-0.0109 0.0996,-0.0176 0.0326,-0.007 0.0637,-0.0133 0.0957,-0.0215 0.032,-0.008 0.0643,-0.0176 0.0957,-0.0273 0.0314,-0.01 0.0631,-0.0201 0.0937,-0.0312 0.0307,-0.0112 0.0599,-0.0225 0.0899,-0.0352 0.0299,-0.0126 0.0607,-0.027 0.0898,-0.041 0.0292,-0.014 0.0576,-0.0276 0.0859,-0.043 0.0283,-0.0154 0.0565,-0.0322 0.084,-0.0488 0.0275,-0.0167 0.0535,-0.0328 0.0801,-0.0508 0.0266,-0.0179 0.0525,-0.0375 0.0781,-0.0566 0.0257,-0.0192 0.0515,-0.0383 0.0762,-0.0586 0.0247,-0.0204 0.0486,-0.041 0.0723,-0.0625 0.0237,-0.0215 0.0477,-0.0438 0.0703,-0.0664 0.0226,-0.0226 0.0449,-0.0467 0.0664,-0.0703 0.0215,-0.0237 0.0421,-0.0476 0.0625,-0.0723 0.0204,-0.0247 0.0394,-0.0505 0.0586,-0.0762 0.0192,-0.0257 0.0387,-0.0515 0.0566,-0.0781 0.0179,-0.0266 0.0341,-0.0526 0.0508,-0.0801 0.0167,-0.0275 0.0335,-0.0556 0.0488,-0.084 0.0154,-0.0283 0.029,-0.0568 0.043,-0.0859 0.014,-0.0292 0.0284,-0.0599 0.041,-0.0898 0.0126,-0.0299 0.024,-0.0592 0.0352,-0.0898 0.0112,-0.0307 0.0215,-0.0624 0.0312,-0.0937 0.01,-0.0314 0.0191,-0.0637 0.0273,-0.0957 0.008,-0.032 0.0149,-0.0631 0.0215,-0.0957 0.007,-0.0326 0.0125,-0.0664 0.0176,-0.0996 0.005,-0.0332 0.0103,-0.0659 0.0137,-0.0996 0.003,-0.0337 0.006,-0.0674 0.008,-0.10156 0.002,-0.0342 0.002,-0.0689 0.002,-0.10352 z m -2,0 h -2 v 2 h 2 z m -2,0 v -2 h -2 v 2 z m -2,0 h -2 v 2 h 2 z m -2,0 v -2 h -2 v 2 z m -2,0 h -2 v 2 h 2 z m -2,0 v -2 h -2 v 2 z m -2,0 h -2 v 2 h 2 z m -2,0 v -2 h -2 v 2 z m -2,0 h -2 c 0,0.0346 2.3e-4,0.0693 0.002,0.10352 0.002,0.0342 0.004,0.0679 0.008,0.10156 0.003,0.0337 0.009,0.0664 0.0137,0.0996 0.005,0.0332 0.0109,0.067 0.0176,0.0996 0.007,0.0326 0.0133,0.0637 0.0215,0.0957 0.008,0.032 0.0176,0.0643 0.0273,0.0957 0.01,0.0313 0.0201,0.0631 0.0312,0.0937 0.0112,0.0307 0.0225,0.0599 0.0352,0.0898 0.0126,0.0299 0.027,0.0607 0.041,0.0898 0.014,0.0292 0.0276,0.0576 0.043,0.0859 0.0154,0.0283 0.0322,0.0565 0.0488,0.084 0.0167,0.0275 0.0329,0.0535 0.0508,0.0801 0.0179,0.0266 0.0375,0.0525 0.0566,0.0781 0.0192,0.0256 0.0382,0.0515 0.0586,0.0762 0.0204,0.0247 0.041,0.0486 0.0625,0.0723 0.0215,0.0237 0.0438,0.0477 0.0664,0.0703 0.0226,0.0226 0.0467,0.0449 0.0703,0.0664 0.0236,0.0215 0.0476,0.0421 0.0723,0.0625 0.0247,0.0204 0.0505,0.0394 0.0762,0.0586 0.0257,0.0192 0.0515,0.0387 0.0781,0.0566 0.0266,0.0179 0.0526,0.0341 0.0801,0.0508 0.0275,0.0167 0.0556,0.0335 0.084,0.0488 0.0283,0.0154 0.0568,0.029 0.0859,0.043 0.0292,0.014 0.0599,0.0284 0.0898,0.041 0.0299,0.0126 0.0592,0.024 0.0899,0.0352 0.0307,0.0112 0.0624,0.0215 0.0937,0.0312 0.0313,0.01 0.0637,0.0191 0.0957,0.0273 0.032,0.008 0.0631,0.0149 0.0957,0.0215 0.0326,0.007 0.0664,0.0125 0.0996,0.0176 0.0332,0.005 0.0659,0.0103 0.0996,0.0137 0.0337,0.003 0.0674,0.006 0.10156,0.008 0.0342,0.002 0.0689,0.002 0.10352,0.002 z m 0,-2 v -2 h -2 v 2 z m 0,-2 h 2 v -2 h -2 z m 0,-2 v -2 h -2 v 2 z m 0,-2 h 2 v -2 h -2 z m 0,-2 v -2 h -2 v 2 z m 0,-2 h 2 v -2 h -2 z m 0,-2 v -2 h -2 v 2 z m 0,-2 h 2 v -2 h -2 z m 0,-2 v -2 h -2 v 2 z m 0,-2 h 2 v -2 h -2 z m 0,-2 v -2 h -2 v 2 z m 0,-2 h 2 v -2 h -2 z m 0,-2 v -2 h -2 v 2 z m 0,-2 h 2 v -2 h -2 z m 0,-2 v -2 h -2 v 2 z m 2,2 v 2 h 2 v -2 z m 2,0 h 2 v -2 h -2 z m 2,0 v 2 h 2 v -2 z m 2,0 h 2 v -2 h -2 z m 2,0 v 2 h 2 v -2 z m 2,0 h 2 v -2 h -2 z m 2,0 v 2 h 2 v -2 z m 0,2 h -2 v 2 h 2 z m 0,2 v 2 h 2 v -2 z m 0,2 h -2 v 2 h 2 z m 0,2 v 2 h 2 v -2 z m 0,2 h -2 v 2 h 2 z m 0,2 v 2 h 2 v -2 z m 0,2 h -2 v 2 h 2 z m 0,2 v 2 h 2 v -2 z m 0,2 h -2 v 2 h 2 z m 0,2 v 2 h 2 v -2 z m 0,2 h -2 v 2 h 2 z m 0,2 v 2 h 2 v -2 z m -2,0 h -2 v 2 h 2 z m -2,0 v -2 h -2 v 2 z m -2,0 h -2 v 2 h 2 z m -2,0 v -2 h -2 v 2 z m -2,0 h -2 v 2 h 2 z m 0,-2 v -2 h -2 v 2 z m 0,-2 h 2 v -2 h -2 z m 0,-2 v -2 h -2 v 2 z m 0,-2 h 2 v -2 h -2 z m 0,-2 v -2 h -2 v 2 z m 0,-2 h 2 v -2 h -2 z m 0,-2 v -2 h -2 v 2 z m 0,-2 h 2 v -2 h -2 z m 0,-2 v -2 h -2 v 2 z m 0,-2 h 2 v -2 h -2 z m 2,0 v 2 h 2 v -2 z m 2,0 h 2 v -2 h -2 z m 2,0 v 2 h 2 v -2 z m 0,2 h -2 v 2 h 2 z m 0,2 v 2 h 2 v -2 z m 0,2 h -2 v 2 h 2 z m 0,2 v 2 h 2 v -2 z m 0,2 h -2 v 2 h 2 z m 0,2 v 2 h 2 v -2 z m 0,2 h -2 v 2 h 2 z m 0,2 v 2 h 2 v -2 z m -2,0 h -2 v 2 h 2 z m 0,-2 v -2 h -2 v 2 z m 0,-4 v -2 h -2 v 2 z m 0,-4 v -2 h -2 v 2 z" />
          <path
             id="path6994"
             d="m 12.00975,317.64999 a 1.0001,1.0001 0 0 0 -1.00977,1 v 14 a 1.0001,1.0001 0 0 0 1.57422,0.81835 l 10,-7 a 1.0001,1.0001 0 0 0 0,-1.63867 l -10,-7 a 1.0001,1.0001 0 0 0 -0.56445,-0.17968 z"
             style="color:#000000;font-style:normal;font-variant:normal;font-weight:normal;font-stretch:normal;font-size:medium;line-height:normal;font-family:sans-serif;font-variant-ligatures:normal;font-variant-position:normal;font-variant-caps:normal;font-variant-numeric:normal;font-variant-alternates:normal;font-feature-settings:normal;text-indent:0;text-align:start;text-decoration:none;text-decoration-line:none;text-decoration-style:solid;text-decoration-color:#000000;letter-spacing:normal;word-spacing:normal;text-transform:none;writing-mode:lr-tb;direction:ltr;text-orientation:mixed;dominant-baseline:auto;baseline-shift:baseline;text-anchor:start;white-space:normal;shape-padding:0;clip-rule:nonzero;display:inline;overflow:visible;visibility:visible;isolation:auto;mix-blend-mode:normal;color-interpolation:sRGB;color-interpolation-filters:linearRGB;solid-color:#000000;solid-opacity:1;fill:#e1ebf2;fill-opacity:1;fill-rule:nonzero;stroke:none;stroke-width:2;stroke-linecap:round;stroke-linejoin:round;stroke-miterlimit:4;stroke-dasharray:none;stroke-dashoffset:0;stroke-opacity:1;color-rendering:auto;image-rendering:auto;shape-rendering:auto;text-rendering:auto;enable-background:accumulate"
             inkscape:connector-curvature="0" />
          <path
             id="rect7021"
             d="m 1.99998,308.64999 c -0.554,0 -1,0.446 -1,1 v 3 c 0,0.55399 0.446,1 1,1 h 1 c 0.554,0 1,-0.44601 1,-1 v -3 c 0,-0.554 -0.446,-1 -1,-1 z m 29,0 c -0.554,0 -1,0.446 -1,1 v 3 c 0,0.55399 0.446,1 1,1 h 1 c 0.554,0 1,-0.44601 1,-1 v -3 c 0,-0.554 -0.446,-1 -1,-1 z m -29,7 c -0.554,0 -1,0.446 -1,1 v 3 c 0,0.55399 0.446,1 1,1 h 1 c 0.554,0 1,-0.44601 1,-1 v -3 c 0,-0.554 -0.446,-1 -1,-1 z m 29,0 c -0.554,0 -1,0.446 -1,1 v 3 c 0,0.55399 0.446,1 1,1 h 1 c 0.554,0 1,-0.44601 1,-1 v -3 c 0,-0.554 -0.446,-1 -1,-1 z m -29,7 c -0.554,0 -1,0.446 -1,1 v 3 c 0,0.55399 0.446,1 1,1 h 1 c 0.554,0 1,-0.44601 1,-1 v -3 c 0,-0.554 -0.446,-1 -1,-1 z m 29,0 c -0.554,0 -1,0.446 -1,1 v 3 c 0,0.55399 0.446,1 1,1 h 1 c 0.554,0 1,-0.44601 1,-1 v -3 c 0,-0.554 -0.446,-1 -1,-1 z m -29,7 c -0.554,0 -1,0.446 -1,1 v 3 c 0,0.55399 0.446,1 1,1 h 1 c 0.554,0 1,-0.44601 1,-1 v -3 c 0,-0.554 -0.446,-1 -1,-1 z m 29,0 c -0.554,0 -1,0.446 -1,1 v 3 c 0,0.55399 0.446,1 1,1 h 1 c 0.554,0 1,-0.44601 1,-1 v -3 c 0,-0.554 -0.446,-1 -1,-1 z m -29,7 c -0.554,0 -1,0.446 -1,1 v 3 c 0,0.55399 0.446,1 1,1 h 1 c 0.554,0 1,-0.44601 1,-1 v -3 c 0,-0.554 -0.446,-1 -1,-1 z m 29,0 c -0.554,0 -1,0.446 -1,1 v 3 c 0,0.55399 0.446,1 1,1 h 1 c 0.554,0 1,-0.44601 1,-1 v -3 c 0,-0.554 -0.446,-1 -1,-1 z"
             style="fill:#e1ebf2;fill-opacity:1;stroke:none;stroke-width:2;stroke-linecap:round;stroke-linejoin:round;stroke-miterlimit:4;stroke-dasharray:none;stroke-dashoffset:0;stroke-opacity:0.960784"
             inkscape:connector-curvature="0" />
        </g>
      </g>
    </g>
  </g>
</svg>
