<?xml version="1.0" encoding="UTF-8" standalone="no"?>
<!-- Created with Inkscape (http://www.inkscape.org/) -->

<svg
   width="48"
   height="48"
   viewBox="0 0 48 48"
   version="1.1"
   id="svg8"
   inkscape:version="1.2.1 (9c6d41e410, 2022-07-14)"
   sodipodi:docname="application-x-firmware.svg"
   xmlns:inkscape="http://www.inkscape.org/namespaces/inkscape"
   xmlns:sodipodi="http://sodipodi.sourceforge.net/DTD/sodipodi-0.dtd"
   xmlns="http://www.w3.org/2000/svg"
   xmlns:svg="http://www.w3.org/2000/svg"
   xmlns:rdf="http://www.w3.org/1999/02/22-rdf-syntax-ns#"
   xmlns:cc="http://creativecommons.org/ns#"
   xmlns:dc="http://purl.org/dc/elements/1.1/">
  <title
     id="title7895">Antu icon Theme</title>
  <defs
     id="defs2">
    <style
       type="text/css"
       id="current-color-scheme">
      .ColorScheme-Text {
        color:#122036;
      }
      </style>
    <style
       type="text/css"
       id="current-color-scheme-7">
      .ColorScheme-Text {
        color:#122036;
      }
      </style>
    <style
       type="text/css"
       id="current-color-scheme-5">
      .ColorScheme-Text {
        color:#122036;
      }
      </style>
    <style
       type="text/css"
       id="current-color-scheme-0">
      .ColorScheme-Text {
        color:#122036;
      }
      </style>
    <style
       type="text/css"
       id="current-color-scheme-7-9">
      .ColorScheme-Text {
        color:#122036;
      }
      </style>
    <style
       type="text/css"
       id="current-color-scheme-5-3">
      .ColorScheme-Text {
        color:#122036;
      }
      </style>
    <style
       type="text/css"
       id="current-color-scheme-79">
      .ColorScheme-Text {
        color:#122036;
      }
      </style>
    <style
       type="text/css"
       id="current-color-scheme-7-2">
      .ColorScheme-Text {
        color:#122036;
      }
      </style>
    <style
       type="text/css"
       id="current-color-scheme-5-0">
      .ColorScheme-Text {
        color:#122036;
      }
      </style>
  </defs>
  <sodipodi:namedview
     id="base"
     pagecolor="#ffffff"
     bordercolor="#666666"
     borderopacity="1.0"
     inkscape:pageopacity="0.0"
     inkscape:pageshadow="2"
     inkscape:zoom="11.313709"
     inkscape:cx="14.451494"
     inkscape:cy="26.16295"
     inkscape:document-units="px"
     inkscape:current-layer="layer1"
     showgrid="true"
     units="px"
     inkscape:window-width="2160"
     inkscape:window-height="1330"
     inkscape:window-x="0"
     inkscape:window-y="0"
     inkscape:window-maximized="1"
     objecttolerance="10"
     gridtolerance="10"
     guidetolerance="10"
     inkscape:snap-bbox="true"
     inkscape:bbox-paths="true"
     inkscape:bbox-nodes="true"
     inkscape:snap-bbox-edge-midpoints="true"
     inkscape:snap-bbox-midpoints="true"
     inkscape:object-paths="true"
     inkscape:snap-intersection-paths="true"
     inkscape:showpageshadow="2"
     inkscape:pagecheckerboard="0"
     inkscape:deskcolor="#d1d1d1">
    <inkscape:grid
       type="xygrid"
       id="grid7897"
       empspacing="4" />
  </sodipodi:namedview>
  <metadata
     id="metadata5">
    <rdf:RDF>
      <cc:Work
         rdf:about="">
        <dc:format>image/svg+xml</dc:format>
        <dc:type
           rdf:resource="http://purl.org/dc/dcmitype/StillImage" />
        <dc:title>Antu icon Theme</dc:title>
      </cc:Work>
    </rdf:RDF>
  </metadata>
  <g
     inkscape:label="Capa 1"
     inkscape:groupmode="layer"
     id="layer1"
     transform="translate(0,-266.64999)">
    <g
       id="layer1-6"
       inkscape:label="Capa 1"
       transform="translate(-52.019105,-6.0217069)">
      <g
         id="g935"
         transform="translate(31.019097,-0.9782931)"
         style="fill:#8fc3a9;fill-opacity:1" />
    </g>
    <g
       id="layer1-6-3-8"
       inkscape:label="Capa 1"
       transform="matrix(0.88888889,0,0,0.88888889,-41.572538,15.941752)">
      <g
         id="g935-7-9"
         transform="translate(31.019097,-0.9782931)"
         style="fill:#8fc3a9;fill-opacity:1" />
    </g>
    <g
       id="g60942"
       transform="translate(-32.99999,-42.000005)">
      <path
         style="fill:#3b8691;fill-opacity:1;stroke:none;stroke-width:6;stroke-linecap:square;stroke-linejoin:round;stroke-miterlimit:18;stroke-dasharray:none;stroke-dashoffset:0;stroke-opacity:1;paint-order:markers stroke fill"
         d="m 40.99999,310.65 h 32 c 1.662,0 3,1.33799 3,3 v 37.99999 c 0,1.662 -1.338,3 -3,3 h -32 c -1.66199,0 -3,-1.338 -3,-3 v -38 c 0,-1.662 1.33801,-3 3,-2.99999 z"
         id="rect6397-1-9-0"
         inkscape:connector-curvature="0" />
      <path
         id="rect6399-4-3-2"
         style="fill:#5bb1be;fill-opacity:1;stroke:none;stroke-width:6;stroke-linecap:square;stroke-linejoin:round;stroke-miterlimit:18;stroke-dasharray:none;stroke-dashoffset:0;stroke-opacity:1;paint-order:markers stroke fill"
         d="m 41,311.64999 c -1.10799,-10e-6 -2,0.892 -2,2 v 16 h 5 v 5 h 4 v 1 h -5 v -1 -4 h -4 v 21 c 0,1.108 0.89201,2 2,2 h 12 v -4 h 1 3 v -1.08398 c -0.58398,-0.2049 -1,-0.76031 -1,-1.41602 0,-0.831 0.669,-1.5 1.5,-1.5 0.831,0 1.5,0.669 1.5,1.5 0,0.65571 -0.41602,1.21112 -1,1.41602 v 1.08398 1 h -4 v 3 h 19 c 1.108,0 2,-0.892 2,-2 v -13 h -5 v 2 1 h -4 v -1 h 3 v -2 -1 h 6 v -10 h -4 v -1 -3.08398 c -0.58398,-0.2049 -1,-0.76031 -1,-1.41602 0,-0.831 0.669,-1.5 1.5,-1.5 0.831,0 1.5,0.669 1.5,1.5 0,0.65571 -0.41602,1.21112 -1,1.41602 v 3.08398 h 3 v -10 h -5.08398 c -0.2049,0.58398 -0.76031,1 -1.41602,1 -0.831,0 -1.5,-0.669 -1.5,-1.5 0,-0.831 0.669,-1.5 1.5,-1.5 0.65571,0 1.21112,0.41602 1.41602,1 H 75 v -2 c 0,-1.10801 -0.892,-2 -2,-2 H 54 v 4 h 3.08398 c 0.2049,-0.58398 0.76031,-1 1.41602,-1 0.831,0 1.5,0.669 1.5,1.5 0,0.831 -0.669,1.5 -1.5,1.5 -0.65571,0 -1.21112,-0.41602 -1.41602,-1 H 54 53 v -1 -4 z m 1.5,2 c 0.831,0 1.5,0.669 1.5,1.5 0,0.65571 -0.41602,1.21112 -1,1.41602 v 5.16796 c 0.58398,0.2049 1,0.76031 1,1.41602 0,0.831 -0.669,1.5 -1.5,1.5 -0.831,0 -1.5,-0.669 -1.5,-1.5 0,-0.65571 0.41602,-1.21112 1,-1.41602 v -5.16796 c -0.58398,-0.2049 -1,-0.76031 -1,-1.41602 0,-0.831 0.669,-1.5 1.5,-1.5 z m -0.0254,1 c -0.26491,0.0133 -0.47461,0.23166 -0.47461,0.5 0,0.277 0.223,0.5 0.5,0.5 0.277,0 0.5,-0.223 0.5,-0.5 0,-0.277 -0.223,-0.5 -0.5,-0.5 -0.009,0 -0.0168,-4.3e-4 -0.0254,0 z m 16,1 c -0.26491,0.0133 -0.47461,0.23166 -0.47461,0.5 0,0.277 0.223,0.5 0.5,0.5 0.277,0 0.5,-0.223 0.5,-0.5 0,-0.277 -0.223,-0.5 -0.5,-0.5 -0.009,0 -0.0168,-4.3e-4 -0.0254,0 z m 10,0 c -0.26491,0.0133 -0.47461,0.23166 -0.47461,0.5 0,0.277 0.223,0.5 0.5,0.5 0.277,0 0.5,-0.223 0.5,-0.5 0,-0.277 -0.223,-0.5 -0.5,-0.5 -0.009,0 -0.0168,-4.3e-4 -0.0254,0 z m 3,6 c -0.26491,0.0133 -0.47461,0.23166 -0.47461,0.5 0,0.277 0.223,0.5 0.5,0.5 0.277,0 0.5,-0.223 0.5,-0.5 0,-0.277 -0.223,-0.5 -0.5,-0.5 -0.009,0 -0.0168,-4.3e-4 -0.0254,0 z m -29,1 c -0.26491,0.0133 -0.47461,0.23166 -0.47461,0.5 0,0.277 0.223,0.5 0.5,0.5 0.277,0 0.5,-0.223 0.5,-0.5 0,-0.277 -0.223,-0.5 -0.5,-0.5 -0.009,0 -0.0168,-4.3e-4 -0.0254,0 z m 28.02539,8 c 0.831,0 1.5,0.669 1.5,1.5 0,0.831 -0.669,1.5 -1.5,1.5 -0.65571,0 -1.21112,-0.41602 -1.41602,-1 H 66 v -1 h 3.08398 c 0.2049,-0.58398 0.76031,-1 1.41602,-1 z m -0.0254,1 c -0.26491,0.0133 -0.47461,0.23166 -0.47461,0.5 0,0.277 0.223,0.5 0.5,0.5 0.277,0 0.5,-0.223 0.5,-0.5 0,-0.277 -0.223,-0.5 -0.5,-0.5 -0.009,0 -0.0168,-4.3e-4 -0.0254,0 z m -13,15 c -0.26491,0.0133 -0.47461,0.23166 -0.47461,0.5 0,0.277 0.223,0.5 0.5,0.5 0.277,0 0.5,-0.223 0.5,-0.5 0,-0.277 -0.223,-0.5 -0.5,-0.5 -0.009,0 -0.0168,-4.3e-4 -0.0254,0 z m 6.99219,1 h 0.0664 c 0.64924,0 1.19655,0.41763 1.39063,1 h 4.16015 c 0.2049,-0.58398 0.76031,-1 1.41602,-1 0.831,0 1.5,0.669 1.5,1.5 0,0.831 -0.669,1.5 -1.5,1.5 -0.65571,0 -1.21112,-0.41602 -1.41602,-1 h -4.16015 c -0.19408,0.58237 -0.74139,1 -1.39063,1 h -0.0664 c -0.81254,0 -1.4668,-0.65426 -1.4668,-1.4668 v -0.0664 c 0,-0.81254 0.65426,-1.4668 1.4668,-1.4668 z m -21.9668,1 c 0.65571,0 1.21112,0.41602 1.41602,1 h 3.16796 c 0.2049,-0.58398 0.76031,-1 1.41602,-1 0.831,0 1.5,0.669 1.5,1.5 0,0.831 -0.669,1.5 -1.5,1.5 -0.65571,0 -1.21112,-0.41602 -1.41602,-1 H 43.916 c -0.2049,0.58398 -0.76031,1 -1.41602,1 -0.831,0 -1.5,-0.669 -1.5,-1.5 0,-0.831 0.669,-1.5 1.5,-1.5 z m 21.97461,0 c -0.26491,0.0133 -0.47461,0.23166 -0.47461,0.5 0,0.277 0.223,0.5 0.5,0.5 0.277,0 0.5,-0.223 0.5,-0.5 0,-0.277 -0.223,-0.5 -0.5,-0.5 -0.009,0 -0.0168,-4.3e-4 -0.0254,0 z m 7,0 c -0.26491,0.0133 -0.47461,0.23166 -0.47461,0.5 0,0.277 0.223,0.5 0.5,0.5 0.277,0 0.5,-0.223 0.5,-0.5 0,-0.277 -0.223,-0.5 -0.5,-0.5 -0.009,0 -0.0168,-4.3e-4 -0.0254,0 z m -29,1 c -0.26491,0.0133 -0.47461,0.23166 -0.47461,0.5 0,0.277 0.223,0.5 0.5,0.5 0.277,0 0.5,-0.223 0.5,-0.5 0,-0.277 -0.223,-0.5 -0.5,-0.5 -0.009,0 -0.0168,-4.3e-4 -0.0254,0 z m 6,0 c -0.26491,0.0133 -0.47461,0.23166 -0.47461,0.5 0,0.277 0.223,0.5 0.5,0.5 0.277,0 0.5,-0.223 0.5,-0.5 0,-0.277 -0.223,-0.5 -0.5,-0.5 -0.009,0 -0.0168,-4.3e-4 -0.0254,0 z" />
      <path
         id="rect58679"
         style="fill:#3b4857;stroke-width:2.00001;stroke-linecap:round;stroke-linejoin:round;stroke-miterlimit:1.8;paint-order:stroke fill markers;stop-color:#000000"
         d="m 49,320.64997 h 16 c 0.55401,0 1.00001,0.446 1.00001,1.00001 v 22.00003 c 0,0.55399 -0.446,1 -1.00001,1 H 49 c -0.554,0 -1,-0.44601 -1,-1 v -22.00003 c 0,-0.55401 0.446,-1.00001 1,-1.00001 z"
         sodipodi:nodetypes="sssssssss" />
      <path
         id="rect58879"
         style="fill:#4b6477;stroke-width:2.00001;stroke-linecap:round;stroke-linejoin:round;stroke-miterlimit:1.8;paint-order:stroke fill markers;stop-color:#000000"
         d="m 49,321.64999 h 16 v 22 H 49 Z"
         sodipodi:nodetypes="ccccc" />
      <path
         d="m 56,322.64999 v 1 h 1 v -1 z m 1,1 v 1 h 1 v -1 z m 1,0 h 1 v -1 h -1 z m 1,0 v 1 h 1 v -1 z m 1,0 h 1 v -1 h -1 z m 1,0 v 1 h 1 v -1 z m 1,0 h 1 v -1 h -1 z m 1,0 v 1 h 1 v -1 z m -13,7 v 1 h 1 v -1 z m 1,1 v 1 h 1 v -1 z m 0,1 h -1 v 1 h 1 z m 0,1 v 1 h 1 v -1 z m 0,1 h -1 v 1 h 1 z m 0,1 v 1 h 1 v -1 z m 0,1 h -1 v 1 h 1 z m -1,2 v 4 h 4 l -2,-2 z m 6,2 v 1 h 1 v -1 z m 1,1 v 1 h 1 v -1 z m 1,0 h 1 v -1 h -1 z m 1,0 v 1 h 1 v -1 z m -3,0 h -1 v 1 h 1 z"
         fill="#dbe5ec"
         stroke-linecap="round"
         stroke-linejoin="round"
         stroke-miterlimit="1.8"
         stroke-width="2"
         id="path58258-9"
         sodipodi:nodetypes="ccccccccccccccccccccccccccccccccccccccccccccccccccccccccccccccccccccccccccccccccccccccccccccccccccccccccc" />
    </g>
  </g>
</svg>
