<?xml version="1.0" encoding="UTF-8" standalone="no"?>
<!-- Created with Inkscape (http://www.inkscape.org/) -->

<svg
   width="48"
   height="48"
   viewBox="0 0 48 48"
   version="1.1"
   id="svg8"
   inkscape:version="1.2.1 (9c6d41e410, 2022-07-14)"
   sodipodi:docname="application-certificate.svg"
   xmlns:inkscape="http://www.inkscape.org/namespaces/inkscape"
   xmlns:sodipodi="http://sodipodi.sourceforge.net/DTD/sodipodi-0.dtd"
   xmlns="http://www.w3.org/2000/svg"
   xmlns:svg="http://www.w3.org/2000/svg"
   xmlns:rdf="http://www.w3.org/1999/02/22-rdf-syntax-ns#"
   xmlns:cc="http://creativecommons.org/ns#"
   xmlns:dc="http://purl.org/dc/elements/1.1/">
  <title
     id="title7895">Antu icon Theme</title>
  <defs
     id="defs2" />
  <sodipodi:namedview
     id="base"
     pagecolor="#ffffff"
     bordercolor="#666666"
     borderopacity="1.0"
     inkscape:pageopacity="0.0"
     inkscape:pageshadow="2"
     inkscape:zoom="8"
     inkscape:cx="20.3125"
     inkscape:cy="1"
     inkscape:document-units="px"
     inkscape:current-layer="layer1"
     showgrid="true"
     units="px"
     inkscape:window-width="2160"
     inkscape:window-height="1330"
     inkscape:window-x="0"
     inkscape:window-y="0"
     inkscape:window-maximized="1"
     objecttolerance="10"
     gridtolerance="10"
     guidetolerance="10"
     inkscape:snap-bbox="true"
     inkscape:bbox-paths="true"
     inkscape:bbox-nodes="true"
     inkscape:snap-bbox-edge-midpoints="true"
     inkscape:snap-bbox-midpoints="true"
     inkscape:object-paths="true"
     inkscape:snap-intersection-paths="true"
     inkscape:showpageshadow="2"
     inkscape:pagecheckerboard="0"
     inkscape:deskcolor="#d1d1d1">
    <inkscape:grid
       type="xygrid"
       id="grid7897"
       empspacing="4" />
  </sodipodi:namedview>
  <metadata
     id="metadata5">
    <rdf:RDF>
      <cc:Work
         rdf:about="">
        <dc:format>image/svg+xml</dc:format>
        <dc:type
           rdf:resource="http://purl.org/dc/dcmitype/StillImage" />
        <dc:title>Antu icon Theme</dc:title>
      </cc:Work>
    </rdf:RDF>
  </metadata>
  <g
     inkscape:label="Capa 1"
     inkscape:groupmode="layer"
     id="layer1"
     transform="translate(0,-266.64999)">
    <g
       id="g13766"
       transform="translate(-41.00088,-31.99913)">
      <g
         inkscape:label="Capa 1"
         id="layer1-6"
         transform="translate(41.00088,31.99913)">
        <g
           id="g5242"
           transform="translate(36,12)">
          <path
             inkscape:connector-curvature="0"
             id="rect6397-1-0"
             d="M -28,256.64999 H 4 c 1.662,0 3,1.33798 3,3 v 38 c 0,1.66197 -1.338,3 -3,3 h -32 c -1.661998,0 -3,-1.33803 -3,-3 v -38 c 0,-1.66202 1.338002,-3 3,-3 z"
             style="opacity:1;fill:#36404d;fill-opacity:1;stroke:none;stroke-width:6;stroke-linecap:square;stroke-linejoin:round;stroke-miterlimit:18;stroke-dasharray:none;stroke-dashoffset:0;stroke-opacity:1;paint-order:markers stroke fill" />
          <path
             sodipodi:nodetypes="sssssssss"
             inkscape:connector-curvature="0"
             id="rect6399-4-6"
             d="M -28,257.64999 H 4 c 1.108001,0 2,0.892 2,2.00001 v 38.00001 c 0,1.10797 -0.891999,1.99997 -2,1.99997 h -32 c -1.107998,0 -2,-0.892 -2,-1.99997 V 259.65 c 0,-1.10801 0.892002,-2.00001 2,-2.00001 z"
             style="opacity:1;fill:#4b6477;fill-opacity:1;stroke:none;stroke-width:6;stroke-linecap:square;stroke-linejoin:round;stroke-miterlimit:18;stroke-dasharray:none;stroke-dashoffset:0;stroke-opacity:1;paint-order:markers stroke fill" />
        </g>
        <path
           id="path999"
           style="opacity:1;fill:#ffffff;fill-opacity:1;stroke:none;stroke-width:2;stroke-linecap:round;stroke-linejoin:round;stroke-miterlimit:4;stroke-dasharray:none;stroke-dashoffset:0;stroke-opacity:1"
           d="m 9.9991162,274.65086 v 2 h 7.9999998 v -2 z m 9.9999998,0 v 2 h 3 v -2 z m 5,0 v 2 h 4 v -2 z m 6,0 v 2 h 2 v -2 z m -20.9999998,4 v 2 h 3.9999998 v -2 z m 5.9999998,0 v 2 h 8 v -2 z m 10,0 v 2 h 6 v -2 z m -15.9999998,4 v 2 h 2.9999998 v -2 z m 4.9999998,0 v 2 h 4 v -2 z m 6,0 v 2 h 8 v -2 z m 10,0 v 2 h 2 v -2 z m -20.9999998,4 v 2 H 20.999116 v -2 z m 12.9999998,0 v 2 h 4 v -2 z m 6,0 v 2 h 4 v -2 z m -18.9999998,4 v 2 h 3.9999998 v -2 z m 5.9999998,0 v 2 h 8 v -2 z m 10,0 v 2 h 6 v -2 z m -15.9999998,4 v 2 H 20.999116 v -2 z m 12.9999998,0 v 2 h 3 v -2 z m -12.9999998,4 v 2 h 3.9999998 v -2 z m 5.9999998,0 v 2 h 4 v -2 z m 6,0 v 2 h 4 v -2 z m -11.9999998,4 v 2 h 7.9999998 v -2 z m 9.9999998,0 v 2 h 4 v -2 z" />
      </g>
      <path
         d="m 72,332.65039 c -0.55226,6e-5 -0.99994,0.44774 -1,1 v 8 c 2e-5,0.7434 0.78232,1.22692 1.44727,0.89453 L 75,341.76758 l 2.55273,0.77694 c 0.66495,0.33239 1.44725,-0.15113 1.44727,-0.89453 v -8 c -6e-5,-0.55226 -0.44774,-0.99994 -1,-1 z"
         fill="#42a5f5"
         id="path13016-1"
         sodipodi:nodetypes="cccccccccc" />
      <path
         d="m 72,333.64999 v 8 l 3,-1 3,0.9996 v -8 z"
         fill="#81d4fa"
         stroke-width="2"
         id="path13018-8"
         sodipodi:nodetypes="cccccc" />
      <path
         d="m 75,326.64999 c 2.77,0 5,2.23 5,5 0,2.77 -2.23,5 -5,5 -2.77,0 -5,-2.23 -5,-5 0,-2.77 2.23,-5 5,-5 z"
         fill="#f6ac23"
         stroke-linecap="square"
         stroke-width="2.85715"
         id="path13022-7" />
      <path
         d="m 75,327.64999 c 2.216,0 4,1.784 4,4 0,2.216 -1.784,4 -4,4 -2.216,0 -4,-1.784 -4,-4 0,-2.216 1.784,-4 4,-4 z"
         fill="#fcd277"
         stroke-linecap="square"
         stroke-width="3.2"
         id="path13024-9" />
    </g>
  </g>
</svg>
