<?xml version="1.0" encoding="UTF-8" standalone="no"?>
<!-- Created with Inkscape (http://www.inkscape.org/) -->

<svg
   width="48"
   height="48"
   viewBox="0 0 48 48"
   version="1.1"
   id="svg8"
   inkscape:version="1.2.1 (9c6d41e410, 2022-07-14)"
   sodipodi:docname="application-wps-office.ppt.svg"
   xmlns:inkscape="http://www.inkscape.org/namespaces/inkscape"
   xmlns:sodipodi="http://sodipodi.sourceforge.net/DTD/sodipodi-0.dtd"
   xmlns="http://www.w3.org/2000/svg"
   xmlns:svg="http://www.w3.org/2000/svg"
   xmlns:rdf="http://www.w3.org/1999/02/22-rdf-syntax-ns#"
   xmlns:cc="http://creativecommons.org/ns#"
   xmlns:dc="http://purl.org/dc/elements/1.1/">
  <title
     id="title7895">Antu icon Theme</title>
  <defs
     id="defs2">
    <style
       id="current-color-scheme"
       type="text/css">
      .ColorScheme-Text {
        color:#122036;
      }
      </style>
    <style
       type="text/css"
       id="current-color-scheme-53">
      .ColorScheme-Text {
        color:#122036;
      }
      </style>
    <style
       id="current-color-scheme-5"
       type="text/css">
      .ColorScheme-Text {
        color:#122036;
      }
      </style>
    <style
       id="current-color-scheme-2"
       type="text/css">
      .ColorScheme-Text {
        color:#122036;
      }
      </style>
    <style
       id="current-color-scheme-1"
       type="text/css">
      .ColorScheme-Text {
        color:#122036;
      }
      </style>
    <style
       type="text/css"
       id="current-color-scheme-10">
      .ColorScheme-Text {
        color:#122036;
      }
      </style>
    <style
       id="current-color-scheme-0"
       type="text/css">
      .ColorScheme-Text {
        color:#122036;
      }
      </style>
    <style
       id="current-color-scheme-26"
       type="text/css">
      .ColorScheme-Text {
        color:#122036;
      }
      </style>
  </defs>
  <sodipodi:namedview
     id="base"
     pagecolor="#ffffff"
     bordercolor="#666666"
     borderopacity="1.0"
     inkscape:pageopacity="0.0"
     inkscape:pageshadow="2"
     inkscape:zoom="16"
     inkscape:cx="36.71875"
     inkscape:cy="25.9375"
     inkscape:document-units="px"
     inkscape:current-layer="layer1"
     showgrid="true"
     units="px"
     inkscape:window-width="2160"
     inkscape:window-height="1330"
     inkscape:window-x="0"
     inkscape:window-y="0"
     inkscape:window-maximized="1"
     objecttolerance="10"
     gridtolerance="10"
     guidetolerance="10"
     inkscape:snap-bbox="true"
     inkscape:bbox-paths="true"
     inkscape:bbox-nodes="true"
     inkscape:snap-bbox-edge-midpoints="true"
     inkscape:snap-bbox-midpoints="true"
     inkscape:object-paths="true"
     inkscape:snap-intersection-paths="true"
     inkscape:showpageshadow="2"
     inkscape:pagecheckerboard="0"
     inkscape:deskcolor="#d1d1d1">
    <inkscape:grid
       type="xygrid"
       id="grid7897"
       empspacing="4" />
  </sodipodi:namedview>
  <metadata
     id="metadata5">
    <rdf:RDF>
      <cc:Work
         rdf:about="">
        <dc:format>image/svg+xml</dc:format>
        <dc:type
           rdf:resource="http://purl.org/dc/dcmitype/StillImage" />
        <dc:title>Antu icon Theme</dc:title>
      </cc:Work>
    </rdf:RDF>
  </metadata>
  <g
     inkscape:label="Capa 1"
     inkscape:groupmode="layer"
     id="layer1"
     transform="translate(0,-266.64999)">
    <g
       transform="translate(35,14)"
       id="g1593">
      <path
         style="opacity:1;vector-effect:none;fill:#d72f4a;fill-opacity:1;stroke:none;stroke-width:6;stroke-linecap:square;stroke-linejoin:round;stroke-miterlimit:18;stroke-dasharray:none;stroke-dashoffset:0;stroke-opacity:1;paint-order:markers stroke fill"
         d="M -27,254.64999 H 5.0000002 c 1.662,0 3,1.338 3,3 v 38 c 0,1.662 -1.338,3 -3,3 H -27 c -1.662,0 -3,-1.338 -3,-3 v -38 c 0,-1.662 1.338,-3 3,-3 z"
         id="rect6397-1-4"
         inkscape:connector-curvature="0" />
      <path
         style="opacity:1;vector-effect:none;fill:#ff778a;fill-opacity:1;stroke:none;stroke-width:6;stroke-linecap:square;stroke-linejoin:round;stroke-miterlimit:18;stroke-dasharray:none;stroke-dashoffset:0;stroke-opacity:1;paint-order:markers stroke fill"
         d="M -27,255.64999 H 5.0000002 c 1.108,0 2,0.892 2,2 v 38 c 0,1.108 -0.892,2 -2,2 H -27 c -1.108,0 -2,-0.892 -2,-2 v -38 c 0,-1.108 0.892,-2 2,-2 z"
         id="rect6399-4-9"
         inkscape:connector-curvature="0"
         sodipodi:nodetypes="sssssssss" />
    </g>
    <g
       transform="translate(9,-7.9999961)"
       id="layer1-8"
       inkscape:label="Capa 1">
      <g
         transform="translate(26,-5.0000039)"
         id="g2167">
        <path
           id="rect19790"
           style="fill:#fbebee;fill-opacity:1;stroke:none;stroke-width:2;stroke-linecap:round;stroke-linejoin:round;stroke-miterlimit:1.8;paint-order:stroke fill markers;stop-color:#000000"
           d="m -18,292.64999 c -1.107999,0 -2,0.892 -2,2 0,1.108 0.892001,2 2,2 h 8 2.5 c 0.086562,0 0.1716135,0.005 0.2558594,0.0137 0.084247,0.009 0.1684821,0.0205 0.25,0.0371 0.081519,0.0166 0.1599033,0.0363 0.2382812,0.0606 0.078377,0.0243 0.1556448,0.0524 0.2304688,0.084 0.074824,0.0315 0.147892,0.0671 0.21875,0.10547 0.070858,0.0384 0.1405513,0.0802 0.2070312,0.125 0.066479,0.0448 0.1297183,0.0937 0.1914063,0.14453 0.061688,0.0509 0.1212504,0.10367 0.1777343,0.16016 0.056485,0.0565 0.1092884,0.11605 0.1601563,0.17773 0.050867,0.0617 0.099692,0.12493 0.1445313,0.19141 0.044839,0.0665 0.086603,0.13617 0.125,0.20703 0.038397,0.0709 0.073926,0.14393 0.1054687,0.21875 0.031542,0.0748 0.059708,0.15209 0.083984,0.23047 0.024276,0.0784 0.04395,0.15676 0.060547,0.23828 0.016596,0.0815 0.028605,0.16575 0.037109,0.25 0.00851,0.0842 0.013672,0.1693 0.013672,0.25586 0,0.0866 -0.00517,0.17161 -0.013672,0.25586 -0.0085,0.0842 -0.020513,0.16848 -0.037109,0.25 -0.016597,0.0815 -0.036271,0.1599 -0.060547,0.23828 -0.024276,0.0784 -0.052442,0.15565 -0.083984,0.23047 -0.031543,0.0748 -0.067072,0.14789 -0.1054687,0.21875 -0.038397,0.0709 -0.080161,0.14055 -0.125,0.20703 -0.044839,0.0665 -0.093664,0.12972 -0.1445313,0.19141 -0.050868,0.0617 -0.1036713,0.12125 -0.1601563,0.17773 -0.056484,0.0565 -0.1160464,0.10929 -0.1777343,0.16016 -0.061688,0.0509 -0.1249273,0.0997 -0.1914063,0.14453 -0.06648,0.0448 -0.1361733,0.0866 -0.2070312,0.125 -0.070858,0.0384 -0.1439261,0.0739 -0.21875,0.10547 -0.074824,0.0315 -0.1520919,0.0597 -0.2304688,0.084 -0.078378,0.0243 -0.1567623,0.0439 -0.2382812,0.0606 -0.081518,0.0166 -0.1657531,0.0286 -0.25,0.0371 -0.084246,0.008 -0.1692975,0.0137 -0.2558594,0.0137 H -8 -18 c -1.107999,0 -2,0.892 -2,2 v 9 c 0,1.108 0.892001,2 2,2 1.107999,0 2,-0.892 2,-2 v -7 h 8 0.5 c 3.6009924,0 6.5,-2.899 6.5,-6.5 0,-3.601 -2.8990076,-6.5 -6.5,-6.5 H -8 -10 Z" />
      </g>
    </g>
  </g>
</svg>
