<?xml version="1.0" encoding="UTF-8" standalone="no"?>
<!-- Created with Inkscape (http://www.inkscape.org/) -->

<svg
   width="48"
   height="48"
   viewBox="0 0 48 48"
   version="1.1"
   id="svg8"
   inkscape:version="1.2.1 (9c6d41e410, 2022-07-14)"
   sodipodi:docname="application-x-rpm.svg"
   xmlns:inkscape="http://www.inkscape.org/namespaces/inkscape"
   xmlns:sodipodi="http://sodipodi.sourceforge.net/DTD/sodipodi-0.dtd"
   xmlns="http://www.w3.org/2000/svg"
   xmlns:svg="http://www.w3.org/2000/svg"
   xmlns:rdf="http://www.w3.org/1999/02/22-rdf-syntax-ns#"
   xmlns:cc="http://creativecommons.org/ns#"
   xmlns:dc="http://purl.org/dc/elements/1.1/">
  <title
     id="title7895">Antu icon Theme</title>
  <defs
     id="defs2" />
  <sodipodi:namedview
     id="base"
     pagecolor="#ffffff"
     bordercolor="#666666"
     borderopacity="1.0"
     inkscape:pageopacity="0.0"
     inkscape:pageshadow="2"
     inkscape:zoom="22.627417"
     inkscape:cx="19.202369"
     inkscape:cy="23.953242"
     inkscape:document-units="px"
     inkscape:current-layer="layer1"
     showgrid="true"
     units="px"
     inkscape:window-width="2160"
     inkscape:window-height="1330"
     inkscape:window-x="0"
     inkscape:window-y="0"
     inkscape:window-maximized="1"
     objecttolerance="10"
     gridtolerance="10"
     guidetolerance="10"
     inkscape:snap-bbox="true"
     inkscape:bbox-paths="true"
     inkscape:bbox-nodes="true"
     inkscape:snap-bbox-edge-midpoints="true"
     inkscape:snap-bbox-midpoints="true"
     inkscape:object-paths="true"
     inkscape:snap-intersection-paths="true"
     inkscape:showpageshadow="2"
     inkscape:pagecheckerboard="0"
     inkscape:deskcolor="#d1d1d1">
    <inkscape:grid
       type="xygrid"
       id="grid7897"
       empspacing="4" />
  </sodipodi:namedview>
  <metadata
     id="metadata5">
    <rdf:RDF>
      <cc:Work
         rdf:about="">
        <dc:format>image/svg+xml</dc:format>
        <dc:type
           rdf:resource="http://purl.org/dc/dcmitype/StillImage" />
        <dc:title>Antu icon Theme</dc:title>
      </cc:Work>
    </rdf:RDF>
  </metadata>
  <g
     inkscape:label="Capa 1"
     inkscape:groupmode="layer"
     id="layer1"
     transform="translate(0,-266.64999)">
    <g
       id="g113743"
       transform="translate(-43,-38)">
      <path
         inkscape:connector-curvature="0"
         id="rect6397-1-45"
         d="m 51,306.64999 h 32 c 1.662,0 3,1.33798 3,3 v 38 c 0,1.66197 -1.338,3 -3,3 H 51 c -1.662,0 -3,-1.33803 -3,-3 v -38 c 0,-1.66202 1.338,-3 3,-3 z"
         style="fill:#dd4f66;fill-opacity:1;stroke:none;stroke-width:6;stroke-linecap:square;stroke-linejoin:round;stroke-miterlimit:18;stroke-dasharray:none;stroke-dashoffset:0;stroke-opacity:1;paint-order:markers stroke fill" />
      <path
         sodipodi:nodetypes="sssssssss"
         inkscape:connector-curvature="0"
         id="rect6399-4-5"
         d="m 51,307.64999 h 32 c 1.108001,0 2,0.892 2,2.00001 v 38.00001 c 0,1.10797 -0.891999,1.99997 -2,1.99997 H 51 c -1.108,0 -2,-0.892 -2,-1.99997 V 309.65 c 0,-1.10801 0.892,-2.00001 2,-2.00001 z"
         style="fill:#ff778a;fill-opacity:1;stroke:none;stroke-width:6;stroke-linecap:square;stroke-linejoin:round;stroke-miterlimit:18;stroke-dasharray:none;stroke-dashoffset:0;stroke-opacity:1;paint-order:markers stroke fill" />
      <path
         inkscape:connector-curvature="0"
         style="fill:#36404d;fill-opacity:1;stroke:none;stroke-width:1;stroke-linecap:round;stroke-linejoin:round;stroke-miterlimit:4;stroke-dasharray:none;stroke-opacity:1"
         d="m 63,306.64999 v 4 4 11 c 0,2.216 1.784,4 4,4 2.216,0 4,-1.784 4,-4 v -11 -4 -4 h -4 z"
         id="rect916" />
      <path
         inkscape:connector-curvature="0"
         style="fill:#4b6477;fill-opacity:1;stroke:none;stroke-width:1;stroke-linecap:round;stroke-linejoin:round;stroke-miterlimit:4;stroke-dasharray:none;stroke-opacity:1"
         d="m 64,307.64999 v 3 2 13 c 0,1.662 1.338,3 3,3 1.662,0 3,-1.338 3,-3 v -13 -2 -3 h -3 z"
         id="rect921" />
      <path
         id="path8130"
         d="m 67,307.64999 v 1 h 1 v -1 z m 0,1 h -1 v 1 h 1 z m 0,1 v 1 h 1 v -1 z m 0,1 h -1 v 1 h 1 z m 0,1 v 1 h 1 v -1 z m 0,1 h -1 v 1 h 1 z m 0,1 v 1 h 1 v -1 z m 0,1 h -1 v 1 h 1 z m 0,1 v 1 h 1 v -1 z m 0,1 h -1 v 1 h 1 z m 0,1 v 1 h 1 v -1 z m 0,1 h -1 v 1 h 1 z m 0,1 v 1 h 1 v -1 z m 0,1 h -1 v 1 h 1 z m 0,1 v 1 h 1 v -1 z m 0,1 h -1 v 1 h 1 z m 0,1 v 1 h 1 v -1 z m 0,1 h -1 v 1 h 1 z m 0,1 v 1 h 1 v -1 z m 0,1 h -1 v 1 h 1 z"
         style="fill:#eff0f3;fill-opacity:1;stroke:none;stroke-width:1;stroke-linecap:round;stroke-linejoin:round;stroke-miterlimit:4;stroke-dasharray:none;stroke-opacity:1"
         inkscape:connector-curvature="0" />
      <path
         d="m 67,333.64999 c -3.86599,0 -7,3.13401 -7,7 0,3.866 3.13401,7 7,7 3.86599,0 6.99999,-3.134 7,-7 -1e-5,-3.86599 -3.13401,-7 -7,-7 z m 0,1.16666 c 3.22165,0 5.83333,2.61169 5.83333,5.83334 0,3.22165 -2.61168,5.83334 -5.83333,5.83334 -3.22166,0 -5.83333,-2.61169 -5.83334,-5.83334 1e-5,-3.22165 2.61168,-5.83334 5.83334,-5.83334 z"
         fill="#dd4f66"
         id="path111931-5"
         style="stroke-width:1.16666" />
      <circle
         cx="67"
         cy="340.64999"
         fill="#fbebee"
         r="6"
         stroke-linecap="square"
         stroke-miterlimit="1.8"
         stroke-width="2.52983"
         id="circle111933-6" />
      <path
         d="m 67,338.64999 -0.93946,3.66601 a 1,1 0 0 0 -0.0508,0.19727 l -0.01,0.0371 h 0.006 a 1,1 0 0 0 -0.006,0.0996 1,1 0 0 0 1,1 1,1 0 0 0 1,-1 1,1 0 0 0 -0.004,-0.0996 h 0.004 l -0.0117,-0.043 v -0.004 a 1,1 0 0 0 -0.0527,-0.20703 z"
         fill="#36404d"
         stroke-linecap="square"
         stroke-miterlimit="1.8"
         stroke-width="2"
         id="path111935-0" />
      <path
         id="path112760"
         style="fill:#dd4f66;fill-opacity:1;stroke:none;stroke-width:2.22222;stroke-linecap:round;stroke-linejoin:round;stroke-miterlimit:1.8;stroke-dasharray:none;stroke-opacity:1;paint-order:stroke fill markers;stop-color:#000000"
         d="m 66.999994,335.64999 a 5,5 0 0 0 -5,5 h 1 a 4,4 0 0 1 4,-4 4,4 0 0 1 4.000001,4 h 1 a 5,5 0 0 0 -5.000001,-5 z" />
      <path
         id="path112760-9"
         style="fill:#36404d;fill-opacity:1;stroke:none;stroke-width:2.22222;stroke-linecap:round;stroke-linejoin:round;stroke-miterlimit:1.8;stroke-dasharray:none;stroke-opacity:1;paint-order:stroke fill markers;stop-color:#000000"
         d="m 66.999994,335.64999 a 5,5 0 0 0 -5,5 h 1 a 4,4 0 0 1 4,-4 z" />
    </g>
  </g>
</svg>
