<?xml version="1.0" encoding="UTF-8" standalone="no"?>
<!-- Created with Inkscape (http://www.inkscape.org/) -->

<svg
   width="48"
   height="48"
   viewBox="0 0 48 48"
   version="1.1"
   id="svg8"
   inkscape:version="1.2.1 (9c6d41e410, 2022-07-14)"
   sodipodi:docname="application-vnd.ms-excel.template.macroenabled.12.svg"
   xml:space="preserve"
   xmlns:inkscape="http://www.inkscape.org/namespaces/inkscape"
   xmlns:sodipodi="http://sodipodi.sourceforge.net/DTD/sodipodi-0.dtd"
   xmlns="http://www.w3.org/2000/svg"
   xmlns:svg="http://www.w3.org/2000/svg"
   xmlns:rdf="http://www.w3.org/1999/02/22-rdf-syntax-ns#"
   xmlns:cc="http://creativecommons.org/ns#"
   xmlns:dc="http://purl.org/dc/elements/1.1/"><title
     id="title7895">Antu icon Theme</title><defs
     id="defs2" /><sodipodi:namedview
     id="base"
     pagecolor="#ffffff"
     bordercolor="#666666"
     borderopacity="1.0"
     inkscape:pageopacity="0.0"
     inkscape:pageshadow="2"
     inkscape:zoom="11.313709"
     inkscape:cx="25.897785"
     inkscape:cy="20.329319"
     inkscape:document-units="px"
     inkscape:current-layer="g1593"
     showgrid="true"
     units="px"
     inkscape:window-width="2160"
     inkscape:window-height="1330"
     inkscape:window-x="0"
     inkscape:window-y="0"
     inkscape:window-maximized="1"
     objecttolerance="10"
     gridtolerance="10"
     guidetolerance="10"
     inkscape:snap-bbox="true"
     inkscape:bbox-paths="true"
     inkscape:bbox-nodes="true"
     inkscape:snap-bbox-edge-midpoints="true"
     inkscape:snap-bbox-midpoints="true"
     inkscape:object-paths="true"
     inkscape:snap-intersection-paths="true"
     inkscape:showpageshadow="2"
     inkscape:pagecheckerboard="0"
     inkscape:deskcolor="#d1d1d1"><inkscape:grid
       type="xygrid"
       id="grid7897"
       empspacing="4" /></sodipodi:namedview><metadata
     id="metadata5"><rdf:RDF><cc:Work
         rdf:about=""><dc:format>image/svg+xml</dc:format><dc:type
           rdf:resource="http://purl.org/dc/dcmitype/StillImage" /><dc:title>Antu icon Theme</dc:title></cc:Work></rdf:RDF></metadata><g
     inkscape:label="Capa 1"
     inkscape:groupmode="layer"
     id="layer1"
     transform="translate(0,-266.64999)"><g
       transform="translate(35,14)"
       id="g1593"><path
         style="opacity:1;vector-effect:none;fill:#2fa76c;fill-opacity:1;stroke:none;stroke-width:6;stroke-linecap:square;stroke-linejoin:round;stroke-miterlimit:18;stroke-dasharray:none;stroke-dashoffset:0;stroke-opacity:1;paint-order:markers stroke fill"
         d="M -27,254.64999 H 5.0000002 c 1.662,0 3,1.338 3,3 v 38 c 0,1.662 -1.338,3 -3,3 H -27 c -1.662,0 -3,-1.338 -3,-3 v -38 c 0,-1.662 1.338,-3 3,-3 z"
         id="rect6397-1-4"
         inkscape:connector-curvature="0" /><path
         style="opacity:1;vector-effect:none;fill:#90dfb3;fill-opacity:1;stroke:none;stroke-width:6;stroke-linecap:square;stroke-linejoin:round;stroke-miterlimit:18;stroke-dasharray:none;stroke-dashoffset:0;stroke-opacity:1;paint-order:markers stroke fill"
         d="M -27,255.64999 H 5.0000002 c 1.108,0 2,0.892 2,2 v 38 c 0,1.108 -0.892,2 -2,2 H -27 c -1.108,0 -2,-0.892 -2,-2 v -38 c 0,-1.108 0.892,-2 2,-2 z"
         id="rect6399-4-9"
         inkscape:connector-curvature="0"
         sodipodi:nodetypes="sssssssss" /><path
         id="rect850-5-9-7-9-7-0-4-4-9"
         style="fill:#6ecc9b;fill-opacity:1;stroke-width:1.2;stroke-linecap:round;stroke-linejoin:round;stroke-miterlimit:1.8;paint-order:stroke fill markers;stop-color:#000000"
         d="m -26,255.64999 v 3 h 3 v -3 z m 3,3 v 3 h 3 v -3 z m 3,0 h 3 v -3 h -3 z m 3,0 v 3 h 3 v -3 z m 3,0 h 3 v -3 h -3 z m 3,0 v 3 h 3 v -3 z m 3,0 h 3 v -3 h -3 z m 3,0 v 3 h 3 v -3 z m 3,0 h 3 v -3 h -3 z m 3,0 v 3 h 3 v -3 z m 3,0 H 5.5 7 v -1.5 c 0,-0.83099 -0.669,-1.5 -1.5,-1.5 H 4 v 1.5 z m 0,3 v 3 h 3 v -3 z m 0,3 H 1 v 3 h 3 z m 0,3 v 3 h 3 v -3 z m 0,3 H 1 v 3 h 3 z m 0,3 v 3 h 3 v -3 z m 0,3 H 1 v 3 h 3 z m 0,3 v 2.99999 h 3 v -3 z m 0,2.99999 H 1 v 3 h 3 z m 0,3 v 3 h 3 v -3 z m 0,3 H 1 v 3 h 3 z m 0,3 v 3 h 3 v -3 z m 0,3 H 1 v 3 h 3 z m -3,0 v -3 h -3 v 3 z m -3,0 h -3 v 3 h 3 z m -3,0 v -3 h -3 v 3 z m -3,0 h -3 v 3 h 3 z m -3,0 v -3 h -3 v 3 z m -3,0 h -3 v 3 h 3 z m -3,0 v -3 h -3 v 3 z m -3,0 h -3 v 3 h 3 z m -3,0 v -3 h -3 v 3 z m -3,0 h -1.5 -1.5 v 1.5 c 0,0.83099 0.669,1.5 1.5,1.5 h 1.5 v -1.5 z m 0,-3 v -3 h -3 v 3 z m 0,-3 h 3 v -3 h -3 z m 0,-3 v -3 h -3 v 3 z m 0,-3 h 3 v -3 h -3 z m 0,-3 v -3 h -3 v 3 z m 0,-3 h 3 v -3 h -3 z m 0,-3 v -3 h -3 v 3 z m 0,-3 h 3 v -3 h -3 z m 0,-3 v -3 h -3 v 3 z m 0,-3 h 3 v -3 h -3 z m 0,-3 v -3 h -3 v 3 z m 3,3 v 3 h 3 v -3 z m 3,0 h 3 v -3 h -3 z m 3,0 v 3 h 3 v -3 z m 3,0 h 3 v -3 h -3 z m 3,0 v 3 h 3 v -3 z m 3,0 h 3 v -3 h -3 z m 3,0 v 3 h 3 v -3 z m 3,0 h 3 v -3 h -3 z m 0,3 v 3 h 3 v -3 z m 0,3 h -3 v 3 h 3 z m 0,3 v 3 h 3 v -3 z m 0,3 h -3 v 3 h 3 z m 0,3 v 3 h 3 v -3 z m 0,3 h -3 v 3 h 3 z m 0,3 v 3 h 3 v -3 z m 0,3 h -3 v 3 h 3 z m -3,0 v -3 h -3 v 3 z m -3,0 h -3 v 3 h 3 z m -3,0 v -3 h -3 v 3 z m -3,0 h -3 v 3 h 3 z m -3,0 v -3 h -3 v 3 z m -3,0 h -3 v 3 h 3 z m 0,-3 v -3 h -3 v 3 z m 0,-3 h 3 v -3 h -3 z m 0,-3 v -3 h -3 v 3 z m 0,-3 h 3 v -3 h -3 z m 0,-3 v -3 h -3 v 3 z m 0,-3 h 3 v -3 h -3 z m 3,0 v 3 h 3 v -3 z m 3,0 h 3 v -3 h -3 z m 3,0 v 3 h 3 v -3 z m 3,0 h 3 v -3 h -3 z m 0,3 v 3 h 3 v -3 z m 0,3 h -3 v 3 h 3 z m 0,3 v 3 h 3 v -3 z m 0,3 h -3 v 3 h 3 z m -3,0 v -3 h -3 v 3 z m -3,0 h -3 v 3 h 3 z m 0,-3 v -3 h -3 v 3 z m 0,-3 h 3 v -3 h -3 z" /><path
         style="fill:#2fa76c;fill-opacity:1;stroke:none;stroke-width:1px;stroke-linecap:butt;stroke-linejoin:miter;stroke-opacity:1"
         d="m -20,281.64999 4,-1 v -9 l 7.0000002,-2 v 14 H -19.999995 l 11.9999952,3 6,-1 -4e-6,-17 -5.999996,-3 -12.0000002,4 z"
         id="path947-0"
         inkscape:connector-curvature="0" /><g
         id="g1431"
         transform="matrix(3.7795275,0,0,3.7795275,-8.9999987,-827.86968)"><path
           id="path819"
           d="m 1.0914063,294.08958 c -0.1643063,0 -0.2976563,0.13538 -0.2976563,0.30231 v 3.62872 c 0,0.16707 0.13335,0.3023 0.2976563,0.3023 h 4.1671875 c 0.1643062,0 0.2976562,-0.13538 0.2976562,-0.3023 v -3.62459 c 0,-0.16709 -0.13335,-0.30644 -0.2976562,-0.30644 H 2.1166667 Z"
           style="fill:#36404d;fill-opacity:1;stroke:none;stroke-width:0.264583"
           inkscape:connector-curvature="0" /><path
           style="opacity:1;fill:#4b6477;fill-opacity:1;stroke:none;stroke-width:0.529167;stroke-linecap:round;stroke-linejoin:round;stroke-miterlimit:4;stroke-dasharray:none;stroke-opacity:1"
           d="m 1.0583333,294.35419 h 4.2333331 v 3.70416 H 1.0583333 Z"
           id="rect838" /><g
           id="g1546"
           transform="translate(-1.3229166,4.7625016)"><rect
             style="opacity:1;fill:#3c4f5e;stroke-width:0.529167;stroke-linecap:round;stroke-linejoin:round;stroke-miterlimit:1.8;paint-order:fill markers stroke;stop-color:#000000"
             id="rect1285"
             width="4.2333331"
             height="0.52917737"
             x="2.3812499"
             y="292.76666" /><rect
             style="fill:#3c4f5e;stroke-width:0.529167;stroke-linecap:round;stroke-linejoin:round;stroke-miterlimit:1.8;paint-order:fill markers stroke;stop-color:#000000"
             id="rect1285-6"
             width="4.2333331"
             height="0.52917737"
             x="2.3812501"
             y="291.70831" /><rect
             style="fill:#3c4f5e;stroke-width:0.529167;stroke-linecap:round;stroke-linejoin:round;stroke-miterlimit:1.8;paint-order:fill markers stroke;stop-color:#000000"
             id="rect1285-2"
             width="4.2333331"
             height="0.52917737"
             x="2.3812499"
             y="290.65002" /><rect
             style="fill:#3c4f5e;stroke-width:0.529167;stroke-linecap:round;stroke-linejoin:round;stroke-miterlimit:1.8;paint-order:fill markers stroke;stop-color:#000000"
             id="rect1285-6-9"
             width="4.2333331"
             height="0.52917737"
             x="2.3812501"
             y="289.59167" /><path
             id="path827"
             d="m 2.9104166,289.85625 v 0.26458 H 2.6458333 v 0.26459 H 2.9104166 V 290.65 H 2.6458333 v 0.26458 h 0.2645833 v 0.26459 H 3.175 v -0.26459 h 0.2645833 v 0.26459 h 0.2645833 v -0.26459 H 3.96875 V 290.65 H 3.7041666 v -0.26458 H 3.96875 v -0.26459 H 3.7041666 v -0.26458 H 3.4395833 v 0.26458 H 3.175 v -0.26458 z M 3.175,290.38542 H 3.4395833 V 290.65 H 3.175 Z m 1.0583333,0.52916 v 0.26459 h 1.0583332 v -0.26459 z"
             style="fill:#9affc1;fill-opacity:1;stroke:none;stroke-width:0.264583"
             inkscape:connector-curvature="0" /></g></g></g></g></svg>
