<?xml version="1.0" encoding="UTF-8" standalone="no"?>
<!-- Created with Inkscape (http://www.inkscape.org/) -->

<svg
   width="48"
   height="48"
   viewBox="0 0 48 48"
   version="1.1"
   id="svg8"
   inkscape:version="1.2.1 (9c6d41e410, 2022-07-14)"
   sodipodi:docname="application-vnd.sun.xml.draw.template.svg"
   xml:space="preserve"
   xmlns:inkscape="http://www.inkscape.org/namespaces/inkscape"
   xmlns:sodipodi="http://sodipodi.sourceforge.net/DTD/sodipodi-0.dtd"
   xmlns="http://www.w3.org/2000/svg"
   xmlns:svg="http://www.w3.org/2000/svg"
   xmlns:rdf="http://www.w3.org/1999/02/22-rdf-syntax-ns#"
   xmlns:cc="http://creativecommons.org/ns#"
   xmlns:dc="http://purl.org/dc/elements/1.1/"><title
     id="title7895">Antu icon Theme</title><defs
     id="defs2"><style
       id="current-color-scheme"
       type="text/css">
      .ColorScheme-Text {
        color:#122036;
      }
      </style><style
       id="current-color-scheme-2"
       type="text/css">
      .ColorScheme-Text {
        color:#122036;
      }
      </style><style
       id="current-color-scheme-0"
       type="text/css">
      .ColorScheme-Text {
        color:#122036;
      }
      </style></defs><sodipodi:namedview
     id="base"
     pagecolor="#ffffff"
     bordercolor="#666666"
     borderopacity="1.0"
     inkscape:pageopacity="0.0"
     inkscape:pageshadow="2"
     inkscape:zoom="45.254836"
     inkscape:cx="29.311785"
     inkscape:cy="34.670328"
     inkscape:document-units="px"
     inkscape:current-layer="g2217"
     showgrid="true"
     units="px"
     inkscape:window-width="2160"
     inkscape:window-height="1330"
     inkscape:window-x="0"
     inkscape:window-y="0"
     inkscape:window-maximized="1"
     objecttolerance="10"
     gridtolerance="10"
     guidetolerance="10"
     inkscape:snap-bbox="true"
     inkscape:bbox-paths="true"
     inkscape:bbox-nodes="true"
     inkscape:snap-bbox-edge-midpoints="true"
     inkscape:snap-bbox-midpoints="true"
     inkscape:object-paths="true"
     inkscape:snap-intersection-paths="true"
     inkscape:showpageshadow="2"
     inkscape:pagecheckerboard="0"
     inkscape:deskcolor="#d1d1d1"><inkscape:grid
       type="xygrid"
       id="grid7897"
       empspacing="4" /></sodipodi:namedview><metadata
     id="metadata5"><rdf:RDF><cc:Work
         rdf:about=""><dc:format>image/svg+xml</dc:format><dc:type
           rdf:resource="http://purl.org/dc/dcmitype/StillImage" /><dc:title>Antu icon Theme</dc:title></cc:Work></rdf:RDF></metadata><g
     inkscape:label="Capa 1"
     inkscape:groupmode="layer"
     id="layer1"
     transform="translate(0,-266.64999)"><g
       id="g2217"
       transform="translate(30.000001,16.999985)"><path
         style="opacity:1;vector-effect:none;fill:#ffb851;fill-opacity:0.96078432;stroke:none;stroke-width:6;stroke-linecap:square;stroke-linejoin:round;stroke-miterlimit:18;stroke-dasharray:none;stroke-dashoffset:0;stroke-opacity:1;paint-order:markers stroke fill"
         d="M -22,251.65 H 9.999997 c 1.662002,0 3,1.33799 3,3 v 38.00001 c 0,1.66197 -1.337998,3 -3,3 H -22 c -1.661998,0 -3,-1.33803 -3,-3 V 254.65 c 0,-1.66201 1.338002,-3 3,-3 z"
         id="rect6397-1"
         inkscape:connector-curvature="0" /><path
         style="opacity:1;vector-effect:none;fill:#fcd277;fill-opacity:1;stroke:none;stroke-width:6;stroke-linecap:square;stroke-linejoin:round;stroke-miterlimit:18;stroke-dasharray:none;stroke-dashoffset:0;stroke-opacity:1;paint-order:markers stroke fill"
         d="M -22,252.64999 H 9.999997 c 1.107999,0 2.000001,0.892 2.000001,2.00001 v 38.00001 c 0,1.10797 -0.892002,1.99998 -2.000001,1.99998 H -22 c -1.107999,0 -2.000001,-0.89201 -2.000001,-1.99998 V 254.65 c 0,-1.10801 0.892002,-2.00001 2.000001,-2.00001 z"
         id="rect6399-4"
         inkscape:connector-curvature="0"
         sodipodi:nodetypes="sssssssss" /><path
         id="rect850-5-9-7-9-7-0-4-8"
         style="fill:#fdc564;fill-opacity:1;stroke-width:1.2;stroke-linecap:round;stroke-linejoin:round;stroke-miterlimit:1.8;paint-order:stroke fill markers;stop-color:#000000"
         d="m -21.000003,252.65 v 3 h 3.000002 v -3 z m 3.000002,3 v 3 h 3 v -3 z m 3,0 h 3 v -3 h -3 z m 3,0 v 3 h 3 v -3 z m 3,0 h 3 v -3 h -3 z m 3,0 v 3 h 3 v -3 z m 3,0 h 3 v -3 h -3 z m 3,0 v 3 h 3 v -3 z m 3,0 h 3 v -3 h -3 z m 3,0 v 3 h 3 v -3 z m 3,0 h 1.5 1.5 v -1.5 c 0,-0.83098 -0.669,-1.5 -1.5,-1.5 h -1.5 v 1.5 z m 0,3 v 3 h 3 v -3 z m 0,3 h -3 v 3 h 3 z m 0,3 v 3 h 3 v -3 z m 0,3 h -3 v 3 h 3 z m 0,3 v 3 h 3 v -3 z m 0,3 h -3 v 3 h 3 z m 0,3 v 3 h 3 v -3 z m 0,3 h -3 v 3 h 3 z m 0,3 v 3 h 3 v -3 z m 0,3 h -3 v 3 h 3 z m 0,3 v 3 h 3 v -3 z m 0,3 h -3 v 3 h 3 z m -3,0 v -3 h -3 v 3 z m -3,0 h -3 v 3 h 3 z m -3,0 v -3 h -3 v 3 z m -3,0 h -3 v 3 h 3 z m -3,0 v -3 h -3 v 3 z m -3,0 h -3 v 3 h 3 z m -3,0 v -3 h -3 v 3 z m -3,0 h -3 v 3 h 3 z m -3,0 v -3 h -3.000002 v 3 z m -3.000002,0 h -1.5 -1.5 v 1.5 c 0,0.83099 0.669002,1.5 1.5,1.5 h 1.5 v -1.5 z m 0,-3 v -3 h -3 v 3 z m 0,-3 h 3.000002 v -3 h -3.000002 z m 0,-3 v -3 h -3 v 3 z m 0,-3 h 3.000002 v -3 h -3.000002 z m 0,-3 v -3 h -3 v 3 z m 0,-3 h 3.000002 v -3 h -3.000002 z m 0,-3 v -3 h -3 v 3 z m 0,-3 h 3.000002 v -3 h -3.000002 z m 0,-3 v -3 h -3 v 3 z m 0,-3 h 3.000002 v -3 h -3.000002 z m 0,-3 v -3 h -3 v 3 z m 3.000002,3 v 3 h 3 v -3 z m 3,0 h 3 v -3 h -3 z m 3,0 v 3 h 3 v -3 z m 3,0 h 3 v -3 h -3 z m 3,0 v 3 h 3 v -3 z m 3,0 h 3 v -3 h -3 z m 3,0 v 3 h 3 v -3 z m 3,0 h 3 v -3 h -3 z m 0,3 v 3 h 3 v -3 z m 0,3 h -3 v 3 h 3 z m 0,3 v 3 h 3 v -3 z m 0,3 h -3 v 3 h 3 z m 0,3 v 3 h 3 v -3 z m 0,3 h -3 v 3 h 3 z m 0,3 v 3 h 3 v -3 z m 0,3 h -3 v 3 h 3 z m -3,0 v -3 h -3 v 3 z m -3,0 h -3 v 3 h 3 z m -3,0 v -3 h -3 v 3 z m -3,0 h -3 v 3 h 3 z m -3,0 v -3 h -3 v 3 z m -3,0 h -3 v 3 h 3 z m 0,-3 v -3 h -3 v 3 z m 0,-3 h 3 v -3 h -3 z m 0,-3 v -3 h -3 v 3 z m 0,-3 h 3 v -3 h -3 z m 0,-3 v -3 h -3 v 3 z m 0,-3 h 3 v -3 h -3 z m 3,0 v 3 h 3 v -3 z m 3,0 h 3 v -3 h -3 z m 3,0 v 3 h 3 v -3 z m 3,0 h 3 v -3 h -3 z m 0,3 v 3 h 3 v -3 z m 0,3 h -3 v 3 h 3 z m 0,3 v 3 h 3 v -3 z m 0,3 h -3 v 3 h 3 z m -3,0 v -3 h -3 v 3 z m -3,0 h -3 v 3 h 3 z m 0,-3 v -3 h -3 v 3 z m 0,-3 h 3 v -3 h -3 z" /><path
         id="rect1891"
         style="opacity:1;fill:#f6ac23;fill-opacity:1;stroke:none;stroke-width:2;stroke-linecap:round;stroke-linejoin:round;stroke-miterlimit:1.8;paint-order:stroke fill markers;stop-color:#000000"
         d="m -19.000001,260.65 v 6 h 2 v 14 h -2 v 6 h 6 v -2 h 14 v 2 h 6 v -6 h -2 v -14 h 2 v -6 h -6 v 2 h -14 v -2 z m 2,2 h 2 v 2 h -2 z m 20,0 h 2 v 2 h -2 z m -16,2 h 7 7 v 2 h 2 v 7 7 h -2 v 2 h -7 -7 v -2 h -2 v -7 -7 h 2 z m -2,9 c 0,4.986 4.014015,9 9,9 4.985985,0 9,-4.014 9,-9 0,-4.98597 -4.014015,-9 -9,-9 -4.985985,0 -9,4.01403 -9,9 z m -2,9 h 2 v 2 h -2 z m 20,0 h 2 v 2 h -2 z"
         sodipodi:nodetypes="ccccccccccccccccccccccccccccccccccccccccccccccccssssscccccccccc" /></g></g></svg>
