<?xml version="1.0" encoding="UTF-8" standalone="no"?>
<!-- Created with Inkscape (http://www.inkscape.org/) -->

<svg
   width="48"
   height="48"
   viewBox="0 0 48 48"
   version="1.1"
   id="svg8"
   inkscape:version="1.2.1 (9c6d41e410, 2022-07-14)"
   sodipodi:docname="application-x-blender.svg"
   xmlns:inkscape="http://www.inkscape.org/namespaces/inkscape"
   xmlns:sodipodi="http://sodipodi.sourceforge.net/DTD/sodipodi-0.dtd"
   xmlns="http://www.w3.org/2000/svg"
   xmlns:svg="http://www.w3.org/2000/svg"
   xmlns:rdf="http://www.w3.org/1999/02/22-rdf-syntax-ns#"
   xmlns:cc="http://creativecommons.org/ns#"
   xmlns:dc="http://purl.org/dc/elements/1.1/">
  <title
     id="title7895">Antu icon Theme</title>
  <defs
     id="defs2">
    <style
       type="text/css"
       id="current-color-scheme">
      .ColorScheme-Text {
        color:#122036;
      }
      </style>
    <style
       type="text/css"
       id="current-color-scheme-7">
      .ColorScheme-Text {
        color:#122036;
      }
      </style>
    <style
       type="text/css"
       id="current-color-scheme-5">
      .ColorScheme-Text {
        color:#122036;
      }
      </style>
    <style
       type="text/css"
       id="current-color-scheme-0">
      .ColorScheme-Text {
        color:#122036;
      }
      </style>
    <style
       type="text/css"
       id="current-color-scheme-7-9">
      .ColorScheme-Text {
        color:#122036;
      }
      </style>
    <style
       type="text/css"
       id="current-color-scheme-5-3">
      .ColorScheme-Text {
        color:#122036;
      }
      </style>
    <style
       type="text/css"
       id="current-color-scheme-79">
      .ColorScheme-Text {
        color:#122036;
      }
      </style>
    <style
       type="text/css"
       id="current-color-scheme-7-2">
      .ColorScheme-Text {
        color:#122036;
      }
      </style>
    <style
       type="text/css"
       id="current-color-scheme-5-0">
      .ColorScheme-Text {
        color:#122036;
      }
      </style>
  </defs>
  <sodipodi:namedview
     id="base"
     pagecolor="#ffffff"
     bordercolor="#666666"
     borderopacity="1.0"
     inkscape:pageopacity="0.0"
     inkscape:pageshadow="2"
     inkscape:zoom="11.313709"
     inkscape:cx="47.818094"
     inkscape:cy="24.925513"
     inkscape:document-units="px"
     inkscape:current-layer="layer1"
     showgrid="true"
     units="px"
     inkscape:window-width="2160"
     inkscape:window-height="1330"
     inkscape:window-x="0"
     inkscape:window-y="0"
     inkscape:window-maximized="1"
     objecttolerance="10"
     gridtolerance="10"
     guidetolerance="10"
     inkscape:snap-bbox="true"
     inkscape:bbox-paths="true"
     inkscape:bbox-nodes="true"
     inkscape:snap-bbox-edge-midpoints="true"
     inkscape:snap-bbox-midpoints="true"
     inkscape:object-paths="true"
     inkscape:snap-intersection-paths="true"
     inkscape:showpageshadow="2"
     inkscape:pagecheckerboard="0"
     inkscape:deskcolor="#d1d1d1">
    <inkscape:grid
       type="xygrid"
       id="grid7897"
       empspacing="4" />
  </sodipodi:namedview>
  <metadata
     id="metadata5">
    <rdf:RDF>
      <cc:Work
         rdf:about="">
        <dc:format>image/svg+xml</dc:format>
        <dc:type
           rdf:resource="http://purl.org/dc/dcmitype/StillImage" />
        <dc:title>Antu icon Theme</dc:title>
      </cc:Work>
    </rdf:RDF>
  </metadata>
  <g
     inkscape:label="Capa 1"
     inkscape:groupmode="layer"
     id="layer1"
     transform="translate(0,-266.64999)">
    <g
       id="layer1-6"
       inkscape:label="Capa 1"
       transform="translate(-52.019105,-6.0217069)">
      <g
         id="g935"
         transform="translate(31.019097,-0.9782931)"
         style="fill:#8fc3a9;fill-opacity:1" />
    </g>
    <g
       id="layer1-6-3-8"
       inkscape:label="Capa 1"
       transform="matrix(0.88888889,0,0,0.88888889,-41.572538,15.941752)">
      <g
         id="g935-7-9"
         transform="translate(31.019097,-0.9782931)"
         style="fill:#8fc3a9;fill-opacity:1" />
    </g>
    <g
       id="g53578"
       transform="translate(-29.99999,-29.000005)">
      <g
         id="g52114"
         transform="translate(-530,-31)">
        <path
           style="fill:#a3b7cc;fill-opacity:1;stroke:none;stroke-width:6;stroke-linecap:square;stroke-linejoin:round;stroke-miterlimit:18;stroke-dasharray:none;stroke-dashoffset:0;stroke-opacity:1;paint-order:markers stroke fill"
           d="m 567.99999,328.65 h 32 c 1.662,0 3,1.33799 3,3 v 37.99999 c 0,1.662 -1.338,3 -3,3 h -32 c -1.66199,0 -3,-1.338 -3,-3 v -38 c 0,-1.662 1.33801,-3 3,-2.99999 z"
           id="rect6397-1-9-0"
           inkscape:connector-curvature="0" />
        <path
           style="fill:#fafafa;fill-opacity:1;stroke:none;stroke-width:6;stroke-linecap:square;stroke-linejoin:round;stroke-miterlimit:18;stroke-dasharray:none;stroke-dashoffset:0;stroke-opacity:1;paint-order:markers stroke fill"
           d="m 567.99999,329.65 h 32 c 1.108,0 2,0.89199 2,2 v 37.99999 c 0,1.108 -0.892,2 -2,2 h -32 c -1.10799,0 -2,-0.892 -2,-2 v -38 c 0,-1.108 0.89201,-2 2,-1.99999 z"
           id="rect6399-4-3-2"
           inkscape:connector-curvature="0"
           sodipodi:nodetypes="sssssssss" />
        <path
           id="rect850-5-9-7-9-7-0-4-4-1"
           style="fill:#dfe6ec;fill-opacity:1;stroke-width:1.2;stroke-linecap:round;stroke-linejoin:round;stroke-miterlimit:1.8;paint-order:stroke fill markers;stop-color:#000000"
           d="m 569,329.65 v 3 h 3 v -3 z m 3,3 v 3 h 3 v -3 z m 3,0 h 3 v -3 h -3 z m 3,0 v 3 h 3 v -3 z m 3,0 h 3 v -3 h -3 z m 3,0 v 3 h 3 v -3 z m 3,0 h 3 v -3 h -3 z m 3,0 v 3 h 3 v -3 z m 3,0 h 3 v -3 h -3 z m 3,0 v 3 h 3 v -3 z m 3,0 h 1.5 1.5 v -1.5 c 0,-0.83099 -0.669,-1.5 -1.5,-1.5 H 599 v 1.5 z m 0,3 v 3 h 3 v -3 z m 0,3 h -3 v 3 h 3 z m 0,3 v 3 h 3 v -3 z m 0,3 h -3 v 3 h 3 z m 0,3 v 3 h 3 v -3 z m 0,3 h -3 v 3 h 3 z m 0,3 v 2.99999 h 3 v -3 z m 0,2.99999 h -3 v 3 h 3 z m 0,3 v 3 h 3 v -3 z m 0,3 h -3 v 3 h 3 z m 0,3 v 3 h 3 v -3 z m 0,3 h -3 v 3 h 3 z m -3,0 v -3 h -3 v 3 z m -3,0 h -3 v 3 h 3 z m -3,0 v -3 h -3 v 3 z m -3,0 h -3 v 3 h 3 z m -3,0 v -3 h -3 v 3 z m -3,0 h -3 v 3 h 3 z m -3,0 v -3 h -3 v 3 z m -3,0 h -3 v 3 h 3 z m -3,0 v -3 h -3 v 3 z m -3,0 h -1.5 -1.5 v 1.5 c 0,0.83099 0.669,1.5 1.5,1.5 h 1.5 v -1.5 z m 0,-3 v -3 h -3 v 3 z m 0,-3 h 3 v -3 h -3 z m 0,-3 v -3 h -3 v 3 z m 0,-3 h 3 v -3 h -3 z m 0,-3 v -3 h -3 v 3 z m 0,-3 h 3 v -3 h -3 z m 0,-3 v -3 h -3 v 3 z m 0,-3 h 3 v -3 h -3 z m 0,-3 v -3 h -3 v 3 z m 0,-3 h 3 v -3 h -3 z m 0,-3 v -3 h -3 v 3 z m 3,3 v 3 h 3 v -3 z m 3,0 h 3 v -3 h -3 z m 3,0 v 3 h 3 v -3 z m 3,0 h 3 v -3 h -3 z m 3,0 v 3 h 3 v -3 z m 3,0 h 3 v -3 h -3 z m 3,0 v 3 h 3 v -3 z m 3,0 h 3 v -3 h -3 z m 0,3 v 3 h 3 v -3 z m 0,3 h -3 v 3 h 3 z m 0,3 v 3 h 3 v -3 z m 0,3 h -3 v 3 h 3 z m 0,3 v 3 h 3 v -3 z m 0,3 h -3 v 3 h 3 z m 0,3 v 3 h 3 v -3 z m 0,3 h -3 v 3 h 3 z m -3,0 v -3 h -3 v 3 z m -3,0 h -3 v 3 h 3 z m -3,0 v -3 h -3 v 3 z m -3,0 h -3 v 3 h 3 z m -3,0 v -3 h -3 v 3 z m -3,0 h -3 v 3 h 3 z m 0,-3 v -3 h -3 v 3 z m 0,-3 h 3 v -3 h -3 z m 0,-3 v -3 h -3 v 3 z m 0,-3 h 3 v -3 h -3 z m 0,-3 v -3 h -3 v 3 z m 0,-3 h 3 v -3 h -3 z m 3,0 v 3 h 3 v -3 z m 3,0 h 3 v -3 h -3 z m 3,0 v 3 h 3 v -3 z m 3,0 h 3 v -3 h -3 z m 0,3 v 3 h 3 v -3 z m 0,3 h -3 v 3 h 3 z m 0,3 v 3 h 3 v -3 z m 0,3 h -3 v 3 h 3 z m -3,0 v -3 h -3 v 3 z m -3,0 h -3 v 3 h 3 z m 0,-3 v -3 h -3 v 3 z m 0,-3 h 3 v -3 h -3 z" />
      </g>
      <g
         inkscape:label="Capa 1"
         id="layer1-5"
         transform="translate(35.62497,13.375)">
        <g
           inkscape:label="Capa 1"
           id="layer1-8"
           transform="matrix(3.7795276,0,0,3.7795276,2.3750197,290.27499)">
          <path
             id="rect8258"
             style="fill:#e66d4c;fill-opacity:1;stroke:none;stroke-width:0.587964;stroke-linecap:round;stroke-linejoin:round;stroke-dasharray:none;stroke-opacity:1;stop-color:#000000"
             d="m 2.9150675,0.79377114 c -0.059422,-4.339e-4 -0.1187044,0.00581 -0.1767334,0.018603 C 2.5323851,0.85815214 2.3531338,0.98403684 2.2401733,1.1622233 2.0051684,1.5322498 2.1145994,2.0227225 2.4846028,2.2577637 L 3.0954183,2.646371 H 1.3223999 C 0.88442738,2.646656 0.52945168,3.0016317 0.52916668,3.4396042 0.52973658,3.8773748 0.88462898,4.232036 1.3223999,4.2323206 h 1.100708 L 1.1208618,5.1795496 C 0.76698768,5.4371152 0.68838758,5.9325269 0.94516188,6.2869756 1.2028478,6.6421557 1.6998365,6.720859 2.0546549,6.4626754 L 2.7331665,5.9691655 c 0.297882,1.1353458 1.3271498,1.9683553 2.5585001,1.9683553 1.4657902,0 2.6458333,-1.1800431 2.6458333,-2.6458333 0,-1.3229167 -0.8397725,-2.0714071 -1.6913696,-2.5223266 L 3.3357137,0.91779454 C 3.2099278,0.83777044 3.0641477,0.79478864 2.9150675,0.79377114 Z"
             sodipodi:nodetypes="cccccccccccccscccc" />
          <path
             id="path9459"
             style="color:#000000;fill:#ff8f64;fill-opacity:1;stroke-linecap:round;stroke-linejoin:round"
             d="M 2.9347047,1.058592 C 2.7458682,1.050422 2.5670111,1.143591 2.4654827,1.3030213 2.3087051,1.5493564 2.3810897,1.8761263 2.6272299,2.0332093 L 4.0038901,2.9101584 H 1.3229168 C 1.030262,2.9098716 0.79294645,3.147187 0.79323335,3.4398418 0.79323225,3.7322948 1.030464,3.9692949 1.3229168,3.9690084 h 1.9109944 l -1.95802,1.4236857 C 1.0391869,5.5651227 0.98753875,5.8970139 1.1606528,6.1332174 1.33296,6.3686134 1.6632726,6.4201597 1.899109,6.2484558 L 2.9202353,5.5058655 c 0.1075208,1.2182129 1.1248731,2.1673096 2.3719482,2.1673096 1.3192111,0 2.38125,-1.0620389 2.38125,-2.38125 0,-1.0583333 -0.7930376,-1.8970629 -1.5673462,-2.2996012 L 3.1956707,1.1407574 C 3.1173889,1.0909657 3.0273921,1.0626301 2.9347047,1.058592 Z"
             sodipodi:nodetypes="ccccccccccccscccc" />
          <path
             style="fill:#d6d6d6;fill-opacity:1;stroke:none;stroke-width:0.244086;stroke-linecap:round;stroke-linejoin:round;stroke-miterlimit:4;stroke-dasharray:none;stroke-opacity:1"
             d="m 5.291667,3.4395833 c 1.0260548,0 1.8520837,0.8260292 1.8520837,1.8520834 0,1.0260542 -0.8260289,1.8520834 -1.8520837,1.8520834 -1.026054,0 -1.8520829,-0.8260292 -1.8520829,-1.8520834 0,-1.0260542 0.8260289,-1.8520834 1.8520829,-1.8520834 z"
             id="rect903"
             inkscape:connector-curvature="0" />
          <path
             style="fill:#fcfcfc;fill-opacity:1;stroke:none;stroke-width:0.209217;stroke-linecap:round;stroke-linejoin:round;stroke-miterlimit:4;stroke-dasharray:none;stroke-opacity:1"
             d="m 5.2916666,3.7041666 c 0.8794757,0 1.5875005,0.7080249 1.5875005,1.5874998 0,0.8794749 -0.7080248,1.5874998 -1.5875005,1.5874998 -0.8794747,0 -1.5874995,-0.7080249 -1.5874995,-1.5874998 0,-0.8794749 0.7080248,-1.5874998 1.5874995,-1.5874998 z"
             id="rect903-2"
             inkscape:connector-curvature="0" />
          <path
             id="rect1902"
             d="m 5.2916665,4.2333331 c 0.5863166,0 1.0583333,0.4720166 1.0583333,1.0583333 0,0.5863166 -0.4720167,1.0583332 -1.0583333,1.0583332 -0.5863167,0 -1.0583333,-0.4720166 -1.0583333,-1.0583332 0,-0.5863167 0.4720166,-1.0583333 1.0583333,-1.0583333 z"
             style="fill:#0b84ef;fill-opacity:1;stroke:none;stroke-width:0.470369;stroke-linecap:round;stroke-linejoin:round;stroke-miterlimit:4;stroke-dasharray:none;stroke-dashoffset:0;stroke-opacity:1"
             inkscape:connector-curvature="0" />
          <path
             id="rect1906"
             d="m 5.2916667,4.4979165 c 0.4397375,0 0.7937499,0.3540125 0.7937499,0.7937501 0,0.4397375 -0.3540124,0.7937501 -0.7937499,0.7937501 -0.4397376,0 -0.7937501,-0.3540126 -0.7937501,-0.7937501 0,-0.4397376 0.3540125,-0.7937501 0.7937501,-0.7937501 z"
             style="fill:#2292f4;fill-opacity:1;stroke:none;stroke-width:0.396874;stroke-linecap:round;stroke-linejoin:round;stroke-miterlimit:4;stroke-dasharray:none;stroke-dashoffset:0;stroke-opacity:1"
             inkscape:connector-curvature="0" />
        </g>
      </g>
    </g>
  </g>
</svg>
