<?xml version="1.0" encoding="UTF-8" standalone="no"?>
<!-- Created with Inkscape (http://www.inkscape.org/) -->

<svg
   width="48"
   height="48"
   viewBox="0 0 48 48"
   version="1.1"
   id="svg8"
   inkscape:version="1.2.1 (9c6d41e410, 2022-07-14)"
   sodipodi:docname="application-x-kgetlist.svg"
   xml:space="preserve"
   xmlns:inkscape="http://www.inkscape.org/namespaces/inkscape"
   xmlns:sodipodi="http://sodipodi.sourceforge.net/DTD/sodipodi-0.dtd"
   xmlns="http://www.w3.org/2000/svg"
   xmlns:svg="http://www.w3.org/2000/svg"
   xmlns:rdf="http://www.w3.org/1999/02/22-rdf-syntax-ns#"
   xmlns:cc="http://creativecommons.org/ns#"
   xmlns:dc="http://purl.org/dc/elements/1.1/"><title
     id="title7895">Antu icon Theme</title><defs
     id="defs2"><style
       id="current-color-scheme"
       type="text/css">
      .ColorScheme-Text {
        color:#122036;
      }
      </style><style
       id="current-color-scheme-2"
       type="text/css">
      .ColorScheme-Text {
        color:#122036;
      }
      </style><style
       id="current-color-scheme-0"
       type="text/css">
      .ColorScheme-Text {
        color:#122036;
      }
      </style></defs><sodipodi:namedview
     id="base"
     pagecolor="#ffffff"
     bordercolor="#666666"
     borderopacity="1.0"
     inkscape:pageopacity="0.0"
     inkscape:pageshadow="2"
     inkscape:zoom="11.313709"
     inkscape:cx="31.77561"
     inkscape:cy="19.798989"
     inkscape:document-units="px"
     inkscape:current-layer="g2217"
     showgrid="true"
     units="px"
     inkscape:window-width="2160"
     inkscape:window-height="1330"
     inkscape:window-x="0"
     inkscape:window-y="0"
     inkscape:window-maximized="1"
     objecttolerance="10"
     gridtolerance="10"
     guidetolerance="10"
     inkscape:snap-bbox="true"
     inkscape:bbox-paths="true"
     inkscape:bbox-nodes="true"
     inkscape:snap-bbox-edge-midpoints="true"
     inkscape:snap-bbox-midpoints="true"
     inkscape:object-paths="true"
     inkscape:snap-intersection-paths="true"
     inkscape:showpageshadow="2"
     inkscape:pagecheckerboard="0"
     inkscape:deskcolor="#d1d1d1"><inkscape:grid
       type="xygrid"
       id="grid7897"
       empspacing="4" /></sodipodi:namedview><metadata
     id="metadata5"><rdf:RDF><cc:Work
         rdf:about=""><dc:format>image/svg+xml</dc:format><dc:type
           rdf:resource="http://purl.org/dc/dcmitype/StillImage" /><dc:title>Antu icon Theme</dc:title></cc:Work></rdf:RDF></metadata><g
     inkscape:label="Capa 1"
     inkscape:groupmode="layer"
     id="layer1"
     transform="translate(0,-266.64999)"><g
       id="g2217"
       transform="translate(30.000001,16.999985)"><g
         id="g79837"
         transform="translate(-39.999991,-35.000005)"><path
           style="fill:#1d86d9;fill-opacity:1;stroke:none;stroke-width:6;stroke-linecap:square;stroke-linejoin:round;stroke-miterlimit:18;stroke-dasharray:none;stroke-dashoffset:0;stroke-opacity:1;paint-order:markers stroke fill"
           d="m 17.99999,286.65001 h 32 c 1.662,0 3,1.33799 3,3 v 38 c 0,1.66199 -1.338,3 -3,3 h -32 c -1.66199,0 -3,-1.33801 -3,-3 v -38 c 0,-1.662 1.33801,-3 3,-3 z"
           id="rect6397-1-9-0-3-1"
           inkscape:connector-curvature="0" /><path
           style="fill:#44acff;fill-opacity:1;stroke:none;stroke-width:6;stroke-linecap:square;stroke-linejoin:round;stroke-miterlimit:18;stroke-dasharray:none;stroke-dashoffset:0;stroke-opacity:1;paint-order:markers stroke fill"
           d="m 17.99999,287.65001 h 32 c 1.108,0 2,0.892 2,2 v 38 c 0,1.108 -0.892,2 -2,2 h -32 c -1.10799,0 -2,-0.892 -2,-2 v -38 c 0,-1.108 0.89201,-2 2,-2 z"
           id="rect6399-4-3-2-7-9"
           inkscape:connector-curvature="0"
           sodipodi:nodetypes="sssssssss" /><g
           id="g1540"
           transform="matrix(3.7795276,0,0,3.7795276,-6.95751,-825.3737)"><path
             inkscape:connector-curvature="0"
             style="fill:#d1ebff;fill-opacity:1;stroke:none;stroke-width:0.529167;stroke-linecap:round;stroke-linejoin:round;stroke-miterlimit:4;stroke-dasharray:none;stroke-dashoffset:0;stroke-opacity:1;paint-order:normal"
             d="m 10.874914,298.98595 a 2.6458333,2.6458333 0 0 0 -1.9094438,0.77463 2.6458333,2.6458333 0 0 0 -0.5736082,2.88303 2.6458333,2.6458333 0 0 0 2.444295,1.63349 v -0.52916 a 2.1166667,2.1166667 0 0 1 -0.211356,-0.0104 2.1166667,2.1166667 0 0 1 -0.20929,-0.032 2.1166667,2.1166667 0 0 1 -0.204639,-0.0522 2.1166667,2.1166667 0 0 1 -0.198954,-0.0723 2.1166667,2.1166667 0 0 1 -0.1906861,-0.092 2.1166667,2.1166667 0 0 1 -0.1803506,-0.11059 2.1166667,2.1166667 0 0 1 -0.1684652,-0.12816 2.1166667,2.1166667 0 0 1 -0.1545125,-0.14417 2.1166667,2.1166667 0 0 1 -0.1400431,-0.15917 2.1166667,2.1166667 0 0 1 -0.12299,-0.17208 2.1166667,2.1166667 0 0 1 -0.1049031,-0.18345 2.1166667,2.1166667 0 0 1 -0.069247,-0.15038 2.1166667,2.1166667 0 0 1 -0.071313,-0.19896 2.1166667,2.1166667 0 0 1 -0.050643,-0.20567 2.1166667,2.1166667 0 0 1 -0.029972,-0.20929 2.1166667,2.1166667 0 0 1 -0.0093,-0.21135 2.1166667,2.1166667 0 0 1 0.012401,-0.21136 2.1166667,2.1166667 0 0 1 0.033073,-0.20877 2.1166667,2.1166667 0 0 1 0.053744,-0.20464 2.1166667,2.1166667 0 0 1 0.073897,-0.19844 2.1166667,2.1166667 0 0 1 0.093534,-0.18965 2.1166667,2.1166667 0 0 1 0.1116211,-0.17932 2.1166667,2.1166667 0 0 1 0.129708,-0.16795 2.1166667,2.1166667 0 0 1 0.1121379,-0.12092 2.1166667,2.1166667 0 0 1 0.1565796,-0.14211 2.1166667,2.1166667 0 0 1 0.1705322,-0.12557 2.1166667,2.1166667 0 0 1 0.181901,-0.10801 2.1166667,2.1166667 0 0 1 0.1917198,-0.0894 2.1166667,2.1166667 0 0 1 0.199988,-0.0692 2.1166667,2.1166667 0 0 1 0.205672,-0.0496 2.1166667,2.1166667 0 0 1 0.209806,-0.0284 2.1166667,2.1166667 0 0 1 0.211356,-0.008 2.1166667,2.1166667 0 0 1 0.21084,0.0139 2.1166667,2.1166667 0 0 1 0.208773,0.0346 2.1166667,2.1166667 0 0 1 0.204122,0.0553 2.1166667,2.1166667 0 0 1 0.155029,0.0574 2.1166667,2.1166667 0 0 1 0.191203,0.0904 2.1166667,2.1166667 0 0 1 0.181384,0.10955 2.1166667,2.1166667 0 0 1 0.169499,0.12661 2.1166667,2.1166667 0 0 1 0.155546,0.14314 2.1166667,2.1166667 0 0 1 0.141077,0.15813 2.1166667,2.1166667 0 0 1 0.124023,0.17105 2.1166667,2.1166667 0 0 1 0.10697,0.18242 2.1166667,2.1166667 0 0 1 0.08785,0.19275 2.1166667,2.1166667 0 0 1 0.06821,0.20051 2.1166667,2.1166667 0 0 1 0.04754,0.20567 2.1166667,2.1166667 0 0 1 0.02739,0.2098 2.1166667,2.1166667 0 0 1 0.0062,0.16537 h 0.529167 a 2.6458333,2.6458333 0 0 0 -1.63349,-2.44429 2.6458333,2.6458333 0 0 0 -0.973584,-0.20103 z m -0.01188,0.79324 a 1.8520833,1.8520833 0 0 0 -1.3363521,0.5426 1.8520833,1.8520833 0 0 0 -0.4015258,2.01848 1.8520833,1.8520833 0 0 0 1.7110059,1.14308 v -0.52916 a 1.3229167,1.3229167 0 0 1 -0.132291,-0.007 1.3229167,1.3229167 0 0 1 -0.130741,-0.0196 1.3229167,1.3229167 0 0 1 -0.128158,-0.0326 1.3229167,1.3229167 0 0 1 -0.124023,-0.0455 1.3229167,1.3229167 0 0 1 -0.118856,-0.0574 1.3229167,1.3229167 0 0 1 -0.112655,-0.0693 1.3229167,1.3229167 0 0 1 -0.1054196,-0.0801 1.3229167,1.3229167 0 0 1 -0.096635,-0.0899 1.3229167,1.3229167 0 0 1 -0.087333,-0.0997 1.3229167,1.3229167 0 0 1 -0.076998,-0.10748 1.3229167,1.3229167 0 0 1 -0.065629,-0.11472 1.3229167,1.3229167 0 0 1 -0.043408,-0.0935 1.3229167,1.3229167 0 0 1 -0.044442,-0.12454 1.3229167,1.3229167 0 0 1 -0.032039,-0.12867 1.3229167,1.3229167 0 0 1 -0.018603,-0.13074 1.3229167,1.3229167 0 0 1 -0.00568,-0.1323 1.3229167,1.3229167 0 0 1 0.00775,-0.13177 1.3229167,1.3229167 0 0 1 0.020672,-0.13074 1.3229167,1.3229167 0 0 1 0.03359,-0.12764 1.3229167,1.3229167 0 0 1 0.045992,-0.12403 1.3229167,1.3229167 0 0 1 0.058394,-0.11885 1.3229167,1.3229167 0 0 1 0.07028,-0.11214 1.3229167,1.3229167 0 0 1 0.080615,-0.10439 1.3229167,1.3229167 0 0 1 0.07028,-0.076 1.3229167,1.3229167 0 0 1 0.098185,-0.0889 1.3229167,1.3229167 0 0 1 0.1064536,-0.0785 1.3229167,1.3229167 0 0 1 0.113688,-0.0672 1.3229167,1.3229167 0 0 1 0.119889,-0.0558 1.3229167,1.3229167 0 0 1 0.124541,-0.0434 1.3229167,1.3229167 0 0 1 0.128674,-0.031 1.3229167,1.3229167 0 0 1 0.131258,-0.0181 1.3229167,1.3229167 0 0 1 0.131771,-0.005 1.3229167,1.3229167 0 0 1 0.132291,0.009 1.3229167,1.3229167 0 0 1 0.130225,0.0217 1.3229167,1.3229167 0 0 1 0.127641,0.0346 1.3229167,1.3229167 0 0 1 0.09715,0.0357 1.3229167,1.3229167 0 0 1 0.119372,0.0563 1.3229167,1.3229167 0 0 1 0.113172,0.0687 1.3229167,1.3229167 0 0 1 0.105936,0.0791 1.3229167,1.3229167 0 0 1 0.09715,0.0894 1.3229167,1.3229167 0 0 1 0.08837,0.0987 1.3229167,1.3229167 0 0 1 0.07752,0.10696 1.3229167,1.3229167 0 0 1 0.06666,0.11421 1.3229167,1.3229167 0 0 1 0.05478,0.1204 1.3229167,1.3229167 0 0 1 0.04289,0.12506 1.3229167,1.3229167 0 0 1 0.02997,0.12868 1.3229167,1.3229167 0 0 1 0.01654,0.13125 1.3229167,1.3229167 0 0 1 0.0041,0.10336 h 0.529167 a 1.8520833,1.8520833 0 0 0 -1.143083,-1.71101 1.8520833,1.8520833 0 0 0 -0.682129,-0.14107 z m -0.01137,0.79375 a 1.0583333,1.0583333 0 0 0 -0.763777,0.31005 1.0583333,1.0583333 0 0 0 -0.2294433,1.15342 1.0583333,1.0583333 0 0 0 0.9777183,0.65319 v -0.52916 a 0.52916667,0.52916667 0 0 1 -0.05271,-0.003 0.52916667,0.52916667 0 0 1 -0.05219,-0.008 0.52916667,0.52916667 0 0 1 -0.05168,-0.0134 0.52916667,0.52916667 0 0 1 -0.04961,-0.0181 0.52916667,0.52916667 0 0 1 -0.04754,-0.0227 0.52916667,0.52916667 0 0 1 -0.04496,-0.0279 0.52916667,0.52916667 0 0 1 -0.04238,-0.032 0.52916667,0.52916667 0 0 1 -0.03876,-0.0362 0.52916667,0.52916667 0 0 1 -0.03462,-0.0393 0.52916667,0.52916667 0 0 1 -0.03101,-0.0434 0.52916667,0.52916667 0 0 1 -0.02635,-0.046 0.52916667,0.52916667 0 0 1 -0.01705,-0.0372 0.52916667,0.52916667 0 0 1 -0.01757,-0.0501 0.52916667,0.52916667 0 0 1 -0.01292,-0.0512 0.52916667,0.52916667 0 0 1 -0.0077,-0.0522 0.52916667,0.52916667 0 0 1 -0.0021,-0.0527 0.52916667,0.52916667 0 0 1 0.0031,-0.0532 0.52916667,0.52916667 0 0 1 0.0083,-0.0522 0.52916667,0.52916667 0 0 1 0.01344,-0.0512 0.52916667,0.52916667 0 0 1 0.0186,-0.0496 0.52916667,0.52916667 0 0 1 0.02325,-0.047 0.52916667,0.52916667 0 0 1 0.02791,-0.045 0.52916667,0.52916667 0 0 1 0.03256,-0.0419 0.52916667,0.52916667 0 0 1 0.02791,-0.0305 0.52916667,0.52916667 0 0 1 0.03927,-0.0356 0.52916667,0.52916667 0 0 1 0.04237,-0.031 0.52916667,0.52916667 0 0 1 0.04548,-0.0274 0.52916667,0.52916667 0 0 1 0.04806,-0.0222 0.52916667,0.52916667 0 0 1 0.05013,-0.0176 0.52916667,0.52916667 0 0 1 0.05116,-0.0119 0.52916667,0.52916667 0 0 1 0.05271,-0.007 0.52916667,0.52916667 0 0 1 0.05271,-0.002 0.52916667,0.52916667 0 0 1 0.05271,0.004 0.52916667,0.52916667 0 0 1 0.05219,0.008 0.52916667,0.52916667 0 0 1 0.05116,0.0139 0.52916667,0.52916667 0 0 1 0.03876,0.0145 0.52916667,0.52916667 0 0 1 0.04754,0.0227 0.52916667,0.52916667 0 0 1 0.04548,0.0274 0.52916667,0.52916667 0 0 1 0.04237,0.0315 0.52916667,0.52916667 0 0 1 0.03876,0.0356 0.52916667,0.52916667 0 0 1 0.03514,0.0398 0.52916667,0.52916667 0 0 1 0.03152,0.0424 0.52916667,0.52916667 0 0 1 0.02636,0.046 0.52916667,0.52916667 0 0 1 0.02222,0.0481 0.52916667,0.52916667 0 0 1 0.01705,0.0501 0.52916667,0.52916667 0 0 1 0.01188,0.0517 0.52916667,0.52916667 0 0 1 0.0067,0.0522 0.52916667,0.52916667 0 0 1 0.0021,0.0414 h 0.529166 a 1.0583333,1.0583333 0 0 0 -0.65319,-0.97772 1.0583333,1.0583333 0 0 0 -0.38964,-0.0806 z m -0.01499,1.5875 v 0.52916 h 4.7625 v -0.52916 z m 0,0.79375 v 0.52916 h 4.7625 v -0.52916 z m 0,0.79375 v 0.52916 h 4.7625 v -0.52916 z"
             id="path835" /></g></g></g></g></svg>
