<?xml version="1.0" encoding="UTF-8" standalone="no"?>
<!-- Created with Inkscape (http://www.inkscape.org/) -->

<svg
   width="48"
   height="48"
   viewBox="0 0 48 48"
   version="1.1"
   id="svg8"
   inkscape:version="1.2.1 (9c6d41e410, 2022-07-14)"
   sodipodi:docname="audiobook.svg"
   xmlns:inkscape="http://www.inkscape.org/namespaces/inkscape"
   xmlns:sodipodi="http://sodipodi.sourceforge.net/DTD/sodipodi-0.dtd"
   xmlns="http://www.w3.org/2000/svg"
   xmlns:svg="http://www.w3.org/2000/svg"
   xmlns:rdf="http://www.w3.org/1999/02/22-rdf-syntax-ns#"
   xmlns:cc="http://creativecommons.org/ns#"
   xmlns:dc="http://purl.org/dc/elements/1.1/">
  <title
     id="title7895">Antu icon Theme</title>
  <defs
     id="defs2">
    <style
       id="current-color-scheme"
       type="text/css">
      .ColorScheme-Text {
        color:#122036;
      }
      </style>
    <style
       type="text/css"
       id="current-color-scheme-5">
      .ColorScheme-Text {
        color:#122036;
      }
      </style>
    <style
       type="text/css"
       id="current-color-scheme-2">
      .ColorScheme-Text {
        color:#122036;
      }
      </style>
    <style
       type="text/css"
       id="current-color-scheme-1">
      .ColorScheme-Text {
        color:#122036;
      }
      </style>
    <style
       id="current-color-scheme-10"
       type="text/css">
      .ColorScheme-Text {
        color:#122036;
      }
      </style>
    <style
       type="text/css"
       id="current-color-scheme-53">
      .ColorScheme-Text {
        color:#122036;
      }
      </style>
    <style
       id="current-color-scheme-23"
       type="text/css">
      .ColorScheme-Text {
        color:#122036;
      }
      </style>
    <style
       type="text/css"
       id="current-color-scheme-5-5">
      .ColorScheme-Text {
        color:#122036;
      }
      </style>
    <style
       type="text/css"
       id="current-color-scheme-2-6">
      .ColorScheme-Text {
        color:#122036;
      }
      </style>
    <style
       type="text/css"
       id="current-color-scheme-1-2">
      .ColorScheme-Text {
        color:#122036;
      }
      </style>
    <style
       id="current-color-scheme-10-9"
       type="text/css">
      .ColorScheme-Text {
        color:#122036;
      }
      </style>
    <style
       type="text/css"
       id="current-color-scheme-0">
      .ColorScheme-Text {
        color:#122036;
      }
      </style>
    <style
       type="text/css"
       id="current-color-scheme-26">
      .ColorScheme-Text {
        color:#122036;
      }
      </style>
  </defs>
  <sodipodi:namedview
     id="base"
     pagecolor="#ffffff"
     bordercolor="#666666"
     borderopacity="1.0"
     inkscape:pageopacity="0.0"
     inkscape:pageshadow="2"
     inkscape:zoom="16"
     inkscape:cx="25.375"
     inkscape:cy="28.3125"
     inkscape:document-units="px"
     inkscape:current-layer="g3030"
     showgrid="true"
     units="px"
     inkscape:window-width="2160"
     inkscape:window-height="1330"
     inkscape:window-x="0"
     inkscape:window-y="0"
     inkscape:window-maximized="1"
     objecttolerance="10"
     gridtolerance="10"
     guidetolerance="10"
     inkscape:snap-bbox="true"
     inkscape:bbox-paths="true"
     inkscape:bbox-nodes="true"
     inkscape:snap-bbox-edge-midpoints="true"
     inkscape:snap-bbox-midpoints="true"
     inkscape:object-paths="true"
     inkscape:snap-intersection-paths="true"
     inkscape:showpageshadow="2"
     inkscape:pagecheckerboard="0"
     inkscape:deskcolor="#d1d1d1">
    <inkscape:grid
       type="xygrid"
       id="grid7897"
       empspacing="4" />
  </sodipodi:namedview>
  <metadata
     id="metadata5">
    <rdf:RDF>
      <cc:Work
         rdf:about="">
        <dc:format>image/svg+xml</dc:format>
        <dc:type
           rdf:resource="http://purl.org/dc/dcmitype/StillImage" />
        <dc:title>Antu icon Theme</dc:title>
      </cc:Work>
    </rdf:RDF>
  </metadata>
  <g
     inkscape:label="Capa 1"
     inkscape:groupmode="layer"
     id="layer1"
     transform="translate(0,-266.64999)">
    <g
       id="g3030"
       transform="translate(27.999999,-2.00002)">
      <path
         inkscape:connector-curvature="0"
         style="opacity:1;fill:#afc0c7;fill-opacity:1;stroke:none;stroke-width:4;stroke-linecap:round;stroke-linejoin:round;stroke-miterlimit:4;stroke-dasharray:none;stroke-opacity:1"
         d="m 2.999997,272.65001 h 12.000008 c 1.107998,0 1.999996,0.892 1.999996,2 v 36.00001 c 0,1.108 -0.891998,1.99999 -1.999996,1.99999 H 2.999997 c -1.107998,0 -1.999996,-0.89199 -1.999996,-1.99999 v -36.00001 c 0,-1.108 0.891998,-2 1.999996,-2 z"
         id="rect901" />
      <path
         inkscape:connector-curvature="0"
         style="opacity:1;fill:#eff5f5;fill-opacity:1;stroke:none;stroke-width:4;stroke-linecap:round;stroke-linejoin:round;stroke-miterlimit:4;stroke-dasharray:none;stroke-opacity:1"
         d="m 3.000001,273.65001 h 12 c 0.554,0 1,0.44601 1,1 v 36 c 0,0.554 -0.446,1 -1,1 h -12 c -0.554,0 -1,-0.446 -1,-1 v -36 c 0,-0.55399 0.446,-1 1,-1 z"
         id="rect903" />
      <path
         style="opacity:1;fill:#afc0c7;fill-opacity:1;stroke:none;stroke-width:4;stroke-linecap:round;stroke-linejoin:round;stroke-miterlimit:4;stroke-dasharray:none;stroke-opacity:1"
         d="m 2.000001,275.65001 v 2 h 12 v -2 z m 0,4 v 2 h 12 v -2 z m 0,4 v 2 h 12 v -2 z m 0,4 v 2 h 12 v -2 z m 0,4 v 2 h 12 v -2 z m 0,4 v 2 h 12 v -2 z m 0,4 v 2 h 12 v -2 z m 0,4 v 2 h 12 v -2 z m 0,4 v 2 h 12 v -2 z"
         id="rect915"
         inkscape:connector-curvature="0" />
      <path
         style="opacity:1;fill:#007042;fill-opacity:1;stroke:none;stroke-width:1;stroke-linecap:round;stroke-linejoin:round;stroke-miterlimit:4;stroke-dasharray:none;stroke-opacity:1"
         d="m -22.999999,270.65001 c -1.662,0 -3,1.33801 -3,3 v 10 3 25 c 0,1.662 1.338,3 3,3 h 32 c 1.662,0 3,-1.338 3,-3 v -22 -3 -3 -10 c 0,-1.66199 -1.338,-3 -3,-3 z"
         id="rect900"
         inkscape:connector-curvature="0" />
      <path
         style="opacity:1;fill:#24b17a;fill-opacity:1;stroke:none;stroke-width:0.95454556;stroke-linecap:round;stroke-linejoin:round;stroke-miterlimit:4;stroke-dasharray:none;stroke-opacity:1"
         d="m -22.999999,271.65001 c -1.108,0 -2,0.892 -2,2 v 9 1 3 2 3 20 c 0,1.108 0.892,2 2,2 h 2 v -42 z m 3,0 v 42 h 29 c 1.108,0 2,-0.892 2,-2 v -20 -5 -3 -1 -9 c 0,-1.108 -0.892,-2 -2,-2 z"
         id="rect900-3"
         inkscape:connector-curvature="0" />
      <path
         sodipodi:nodetypes="sscccccccsss"
         inkscape:connector-curvature="0"
         id="rect8406-1-4"
         d="m 1,274.64999 c -0.554,0 -0.985239,0.44619 -1,1 v 9 1 6 l 4,-5 4,5 v -6 -1 -9 c 0,-0.554 -0.446,-1 -1,-1 z"
         style="opacity:1;fill:#dcf1e9;fill-opacity:1;stroke:none;stroke-width:2;stroke-linecap:round;stroke-linejoin:round;stroke-miterlimit:4;stroke-dasharray:none;stroke-opacity:1" />
      <path
         id="path324"
         style="fill:#dcf1e9;fill-opacity:1"
         d="M -12.999999 292.65001 C -13.553998 292.65001 -13.999999 293.09601 -13.999999 293.65001 C -13.999999 294.20401 -13.553998 294.65001 -12.999999 294.65001 C -12.446 294.65001 -11.999999 294.20401 -11.999999 293.65001 C -11.999999 293.09601 -12.446 292.65001 -12.999999 292.65001 z M -2.999999 293.65001 L -7.999999 295.65001 L -7.999999 298.65001 L -7.999999 299.65001 L -7.999999 302.20079 C -8.5895504 301.85909 -9.2669707 301.65001 -9.999999 301.65001 C -12.215996 301.65001 -13.999999 303.43401 -13.999999 305.65001 C -13.999999 307.86601 -12.215996 309.65001 -9.999999 309.65001 C -7.7840012 309.65001 -5.999999 307.86601 -5.999999 305.65001 L -5.999999 300.65001 L -5.999999 298.84923 L -2.999999 297.65001 L -2.999999 293.65001 z M -16.999999 294.65001 C -17.553998 294.65001 -17.999999 295.09601 -17.999999 295.65001 C -17.999999 296.20401 -17.553998 296.65001 -16.999999 296.65001 C -16.446 296.65001 -15.999999 296.20401 -15.999999 295.65001 C -15.999999 295.09601 -16.446 294.65001 -16.999999 294.65001 z M -12.999999 296.65001 C -13.553998 296.65001 -13.999999 297.09601 -13.999999 297.65001 C -13.999999 298.20401 -13.553998 298.65001 -12.999999 298.65001 C -12.446 298.65001 -11.999999 298.20401 -11.999999 297.65001 C -11.999999 297.09601 -12.446 296.65001 -12.999999 296.65001 z M -16.999999 298.65001 C -17.553998 298.65001 -17.999999 299.09601 -17.999999 299.65001 C -17.999999 300.20401 -17.553998 300.65001 -16.999999 300.65001 C -16.446 300.65001 -15.999999 300.20401 -15.999999 299.65001 C -15.999999 299.09601 -16.446 298.65001 -16.999999 298.65001 z M 1.000001 299.65001 C 0.44600195 299.65001 1e-06 300.09601 1e-06 300.65001 C 1e-06 301.20401 0.44600195 301.65001 1.000001 301.65001 C 1.5540004 301.65001 2.000001 301.20401 2.000001 300.65001 C 2.000001 300.09601 1.5540004 299.65001 1.000001 299.65001 z M -16.999999 302.65001 C -17.553998 302.65001 -17.999999 303.09601 -17.999999 303.65001 C -17.999999 304.20401 -17.553998 304.65001 -16.999999 304.65001 C -16.446 304.65001 -15.999999 304.20401 -15.999999 303.65001 C -15.999999 303.09601 -16.446 302.65001 -16.999999 302.65001 z M 1.000001 303.65001 C 0.44600195 303.65001 1e-06 304.09601 1e-06 304.65001 C 1e-06 305.20401 0.44600195 305.65001 1.000001 305.65001 C 1.5540004 305.65001 2.000001 305.20401 2.000001 304.65001 C 2.000001 304.09601 1.5540004 303.65001 1.000001 303.65001 z M -2.999999 305.65001 C -3.5539984 305.65001 -3.999999 306.09601 -3.999999 306.65001 C -3.999999 307.20401 -3.5539984 307.65001 -2.999999 307.65001 C -2.4459996 307.65001 -1.999999 307.20401 -1.999999 306.65001 C -1.999999 306.09601 -2.4459996 305.65001 -2.999999 305.65001 z M 1.000001 307.65001 C 0.44600195 307.65001 1e-06 308.09601 1e-06 308.65001 C 1e-06 309.20401 0.44600195 309.65001 1.000001 309.65001 C 1.5540004 309.65001 2.000001 309.20401 2.000001 308.65001 C 2.000001 308.09601 1.5540004 307.65001 1.000001 307.65001 z M -2.999999 309.65001 C -3.5539984 309.65001 -3.999999 310.09601 -3.999999 310.65001 C -3.999999 311.20401 -3.5539984 311.65001 -2.999999 311.65001 C -2.4459996 311.65001 -1.999999 311.20401 -1.999999 310.65001 C -1.999999 310.09601 -2.4459996 309.65001 -2.999999 309.65001 z " />
    </g>
  </g>
</svg>
