<?xml version="1.0" encoding="UTF-8" standalone="no"?>
<!-- Created with Inkscape (http://www.inkscape.org/) -->

<svg
   width="48"
   height="48"
   viewBox="0 0 48 48"
   version="1.1"
   id="svg8"
   inkscape:version="1.2.1 (9c6d41e410, 2022-07-14)"
   sodipodi:docname="audio-midi.svg"
   xml:space="preserve"
   xmlns:inkscape="http://www.inkscape.org/namespaces/inkscape"
   xmlns:sodipodi="http://sodipodi.sourceforge.net/DTD/sodipodi-0.dtd"
   xmlns="http://www.w3.org/2000/svg"
   xmlns:svg="http://www.w3.org/2000/svg"
   xmlns:rdf="http://www.w3.org/1999/02/22-rdf-syntax-ns#"
   xmlns:cc="http://creativecommons.org/ns#"
   xmlns:dc="http://purl.org/dc/elements/1.1/"><title
     id="title7895">Antu icon Theme</title><defs
     id="defs2" /><sodipodi:namedview
     id="base"
     pagecolor="#ffffff"
     bordercolor="#666666"
     borderopacity="1.0"
     inkscape:pageopacity="0.0"
     inkscape:pageshadow="2"
     inkscape:zoom="11.313709"
     inkscape:cx="47.066795"
     inkscape:cy="37.476659"
     inkscape:document-units="px"
     inkscape:current-layer="g32157"
     showgrid="true"
     units="px"
     inkscape:window-width="2160"
     inkscape:window-height="1330"
     inkscape:window-x="0"
     inkscape:window-y="0"
     inkscape:window-maximized="1"
     objecttolerance="10"
     gridtolerance="10"
     guidetolerance="10"
     inkscape:snap-bbox="true"
     inkscape:bbox-paths="true"
     inkscape:bbox-nodes="true"
     inkscape:snap-bbox-edge-midpoints="true"
     inkscape:snap-bbox-midpoints="true"
     inkscape:object-paths="true"
     inkscape:snap-intersection-paths="true"
     inkscape:showpageshadow="2"
     inkscape:pagecheckerboard="0"
     inkscape:deskcolor="#d1d1d1"
     showguides="true"><inkscape:grid
       type="xygrid"
       id="grid7897"
       empspacing="4" /></sodipodi:namedview><metadata
     id="metadata5"><rdf:RDF><cc:Work
         rdf:about=""><dc:format>image/svg+xml</dc:format><dc:type
           rdf:resource="http://purl.org/dc/dcmitype/StillImage" /><dc:title>Antu icon Theme</dc:title></cc:Work></rdf:RDF></metadata><g
     inkscape:label="Capa 1"
     inkscape:groupmode="layer"
     id="layer1"
     transform="translate(0,-266.64999)"><g
       id="g871"
       transform="translate(-24,-68)"><g
         id="g35173"
         transform="translate(-24.57492,-25)"><g
           id="g32157"
           transform="translate(-31,-25)"><path
             inkscape:connector-curvature="0"
             id="rect6397-1-73"
             d="m 87.57492,386.64999 h 32 c 1.662,0 3,1.33798 3,3 v 38 c 0,1.66197 -1.338,3 -3,3 h -32 c -1.662,0 -3,-1.33803 -3,-3 v -38 c 0,-1.66202 1.338,-3 3,-3 z"
             style="fill:#36404d;fill-opacity:1;stroke:none;stroke-width:6;stroke-linecap:square;stroke-linejoin:round;stroke-miterlimit:18;stroke-dasharray:none;stroke-dashoffset:0;stroke-opacity:1;paint-order:markers stroke fill" /><path
             id="rect6399-4-65"
             style="fill:#4b6477;fill-opacity:1;stroke:none;stroke-width:6;stroke-linecap:square;stroke-linejoin:round;stroke-miterlimit:18;stroke-dasharray:none;stroke-dashoffset:0;stroke-opacity:1;paint-order:markers stroke fill"
             d="M 87.57492 387.64999 C 86.466922 387.64999 85.57492 388.54198 85.57492 389.64999 L 85.57492 427.64999 C 85.57492 428.75796 86.466922 429.64999 87.57492 429.64999 L 119.57492 429.64999 C 120.68292 429.64999 121.57492 428.75796 121.57492 427.64999 L 121.57492 389.64999 C 121.57492 388.54198 120.68292 387.64999 119.57492 387.64999 L 87.57492 387.64999 z M 91.07492 389.64999 C 92.459917 389.64999 93.57492 390.76499 93.57492 392.14999 C 93.57492 393.53499 92.459917 394.64999 91.07492 394.64999 C 89.689923 394.64999 88.57492 393.53499 88.57492 392.14999 C 88.57492 390.76499 89.689923 389.64999 91.07492 389.64999 z M 98.07492 389.64999 C 99.459917 389.64999 100.57492 390.76499 100.57492 392.14999 C 100.57492 393.53499 99.459917 394.64999 98.07492 394.64999 C 96.689923 394.64999 95.57492 393.53499 95.57492 392.14999 C 95.57492 390.76499 96.689923 389.64999 98.07492 389.64999 z M 102.57492 389.64999 L 119.57492 389.64999 L 119.57492 390.64999 L 102.57492 390.64999 L 102.57492 389.64999 z M 102.57492 391.64999 L 119.57492 391.64999 L 119.57492 392.64999 L 102.57492 392.64999 L 102.57492 391.64999 z M 102.57492 393.64999 L 119.57492 393.64999 L 119.57492 394.64999 L 102.57492 394.64999 L 102.57492 393.64999 z " /><rect
             style="fill:#50c1f9;fill-opacity:1;stroke-width:2;stroke-linecap:square;stroke-miterlimit:1.8;paint-order:stroke fill markers;stop-color:#000000"
             id="rect3694"
             width="0.99999994"
             height="0.99999994"
             x="95.574921"
             y="404.64999" /><rect
             style="fill:#36404d;fill-opacity:1;stroke-width:2;stroke-linecap:square;stroke-miterlimit:1.8;paint-order:stroke fill markers;stop-color:#000000"
             id="rect2787"
             width="6.0000005"
             height="16.000034"
             x="90.574921"
             y="410.64999" /><rect
             style="fill:#f1f1f1;fill-opacity:1;stroke-width:2;stroke-linecap:square;stroke-miterlimit:1.8;paint-order:stroke fill markers;stop-color:#000000"
             id="rect2789"
             width="4.0000005"
             height="14.000034"
             x="91.574921"
             y="411.64999" /><rect
             style="fill:#36404d;fill-opacity:1;stroke-width:2;stroke-linecap:square;stroke-miterlimit:1.8;paint-order:stroke fill markers;stop-color:#000000"
             id="rect2787-9"
             width="6.0000005"
             height="16.000034"
             x="110.57492"
             y="410.64999" /><rect
             style="fill:#f1f1f1;fill-opacity:1;stroke-width:2;stroke-linecap:square;stroke-miterlimit:1.8;paint-order:stroke fill markers;stop-color:#000000"
             id="rect2789-3"
             width="4.0000005"
             height="14.000034"
             x="111.57492"
             y="411.64999" /><rect
             style="fill:#36404d;fill-opacity:1;stroke-width:2;stroke-linecap:square;stroke-miterlimit:1.8;paint-order:stroke fill markers;stop-color:#000000"
             id="rect2787-9-6"
             width="6.0000005"
             height="16.000004"
             x="105.57492"
             y="410.64999" /><rect
             style="fill:#f1f1f1;fill-opacity:1;stroke-width:2;stroke-linecap:square;stroke-miterlimit:1.8;paint-order:stroke fill markers;stop-color:#000000"
             id="rect2789-3-0"
             width="4.0000005"
             height="14.000034"
             x="106.57492"
             y="411.64999" /><rect
             style="fill:#36404d;fill-opacity:1;stroke-width:2;stroke-linecap:square;stroke-miterlimit:1.8;paint-order:stroke fill markers;stop-color:#000000"
             id="rect2787-9-62"
             width="6.0000005"
             height="16.000034"
             x="95.574921"
             y="410.64999" /><rect
             style="fill:#f1f1f1;fill-opacity:1;stroke-width:2;stroke-linecap:square;stroke-miterlimit:1.8;paint-order:stroke fill markers;stop-color:#000000"
             id="rect2789-3-6"
             width="4.0000005"
             height="14.000034"
             x="96.574921"
             y="411.64999" /><rect
             style="fill:#36404d;fill-opacity:1;stroke-width:2;stroke-linecap:square;stroke-miterlimit:1.8;paint-order:stroke fill markers;stop-color:#000000"
             id="rect2787-9-1"
             width="6.0000005"
             height="16.000004"
             x="100.57492"
             y="410.64999" /><rect
             style="fill:#f1f1f1;fill-opacity:1;stroke-width:2;stroke-linecap:square;stroke-miterlimit:1.8;paint-order:stroke fill markers;stop-color:#000000"
             id="rect2789-3-8"
             width="4.0000005"
             height="14.000034"
             x="101.57492"
             y="411.64999" /><rect
             style="fill:#36404d;fill-opacity:1;stroke-width:2;stroke-linecap:square;stroke-miterlimit:1.8;paint-order:stroke fill markers;stop-color:#000000"
             id="rect3073"
             width="3.9999993"
             height="8.9999962"
             x="94.574921"
             y="410.64999" /><rect
             style="fill:#36404d;fill-opacity:1;stroke-width:2;stroke-linecap:square;stroke-miterlimit:1.8;paint-order:stroke fill markers;stop-color:#000000"
             id="rect3073-7"
             width="3.9999993"
             height="8.9999962"
             x="109.57492"
             y="410.64999" /><rect
             style="fill:#36404d;fill-opacity:1;stroke-width:2;stroke-linecap:square;stroke-miterlimit:1.8;paint-order:stroke fill markers;stop-color:#000000"
             id="rect3073-9"
             width="3.9999993"
             height="8.9999962"
             x="103.57492"
             y="410.64999" /><rect
             style="fill:#4b6477;fill-opacity:1;stroke-width:2;stroke-linecap:square;stroke-miterlimit:1.8;paint-order:stroke fill markers;stop-color:#000000"
             id="rect3120"
             width="1.9999994"
             height="6.9999962"
             x="95.574921"
             y="411.64999" /><rect
             style="fill:#4b6477;fill-opacity:1;stroke-width:2;stroke-linecap:square;stroke-miterlimit:1.8;paint-order:stroke fill markers;stop-color:#000000"
             id="rect3174"
             width="1.9999994"
             height="6.9999962"
             x="104.57492"
             y="411.64999" /><rect
             style="fill:#4b6477;fill-opacity:1;stroke-width:2;stroke-linecap:square;stroke-miterlimit:1.8;paint-order:stroke fill markers;stop-color:#000000"
             id="rect3176"
             width="1.9999994"
             height="6.9999962"
             x="110.57492"
             y="411.64999" /><path
             id="rect3178"
             style="fill:#ffb851;fill-opacity:0.960784;stroke-width:2;stroke-linecap:square;stroke-miterlimit:1.8;paint-order:stroke fill markers;stop-color:#000000"
             d="m 94.574921,397.64999 h 17.999999 v 10 H 94.574921 Z" /><path
             id="rect3361"
             style="fill:#fcd277;stroke-width:2;stroke-linecap:square;stroke-miterlimit:1.8;paint-order:stroke fill markers;stop-color:#000000"
             d="m 95.574921,398.64999 h 15.999999 v 8 H 95.574921 Z" /><path
             id="rect3512"
             style="fill:#6e7cd4;stroke-width:2;stroke-linecap:square;stroke-miterlimit:1.8;paint-order:stroke fill markers;stop-color:#000000;fill-opacity:1"
             d="m 114.57492,397.64999 h 4 v 4 h -4 z" /><path
             id="rect3514"
             style="fill:#6e7cd4;stroke-width:2;stroke-linecap:square;stroke-miterlimit:1.8;paint-order:stroke fill markers;stop-color:#000000;fill-opacity:1"
             d="m 114.57492,403.64999 h 4 v 4 h -4 z" /><path
             id="rect3512-2"
             style="fill:#d16040;stroke-width:2;stroke-linecap:square;stroke-miterlimit:1.8;paint-order:stroke fill markers;stop-color:#000000;fill-opacity:1"
             d="m 88.574921,397.64999 h 4 v 4 h -4 z" /><path
             id="rect3514-0"
             style="fill:#d16040;stroke-width:2;stroke-linecap:square;stroke-miterlimit:1.8;paint-order:stroke fill markers;stop-color:#000000;fill-opacity:1"
             d="m 88.574921,403.64999 h 4 v 4 h -4 z" /><path
             id="rect3719"
             style="fill:#f6ac23;fill-opacity:1;stroke-width:2;stroke-linecap:square;stroke-miterlimit:1.8;paint-order:stroke fill markers;stop-color:#000000"
             d="m 100.57492,401.64999 v 2 h -1.000001 v 1 h -1 v -1 h -1 v 1 h -1 v 1 h -1 v 1 h 1 1 1 1 1.000001 1 1 1 1 2 1 1 1 1 1 v -3 h -1 v 1 h -1 v 1 h -1 v -2 h -1 v -1 h -1 v 3 h -2 v -2 h -1 v 1 h -1 v 1 h -1 v -4 z" /><path
             id="rect3851"
             style="fill:#f1f1f1;fill-opacity:1;stroke-width:2;stroke-linecap:square;stroke-miterlimit:1.8;paint-order:stroke fill markers;stop-color:#000000"
             d="M 91.07492 390.64999 C 90.243922 390.64999 89.57492 391.31899 89.57492 392.14999 C 89.57492 392.98099 90.243922 393.64999 91.07492 393.64999 C 91.905918 393.64999 92.57492 392.98099 92.57492 392.14999 C 92.57492 391.31899 91.905918 390.64999 91.07492 390.64999 z M 98.07492 390.64999 C 97.243922 390.64999 96.57492 391.31899 96.57492 392.14999 C 96.57492 392.98099 97.243922 393.64999 98.07492 393.64999 C 98.905918 393.64999 99.57492 392.98099 99.57492 392.14999 C 99.57492 391.31899 98.905918 390.64999 98.07492 390.64999 z " /><path
             id="rect3957"
             style="fill:#ff8f64;stroke-width:2;stroke-linecap:square;stroke-miterlimit:1.8;paint-order:stroke fill markers;stop-color:#000000;fill-opacity:1"
             d="m 89.574921,398.64999 h 2 v 2 h -2 z" /><path
             id="rect3959"
             style="fill:#ff8f64;stroke-width:2;stroke-linecap:square;stroke-miterlimit:1.8;paint-order:stroke fill markers;stop-color:#000000;fill-opacity:1"
             d="m 89.574921,404.64999 h 2 v 2 h -2 z" /><path
             id="rect3961"
             style="fill:#93a0e6;stroke-width:2;stroke-linecap:square;stroke-miterlimit:1.8;paint-order:stroke fill markers;stop-color:#000000;fill-opacity:1"
             d="m 115.57492,398.64999 h 2 v 2 h -2 z" /><path
             id="rect3963"
             style="fill:#93a0e6;stroke-width:2;stroke-linecap:square;stroke-miterlimit:1.8;paint-order:stroke fill markers;stop-color:#000000;fill-opacity:1"
             d="m 115.57492,404.64999 h 2 v 2 h -2 z" /></g></g></g></g></svg>
