<?xml version="1.0" encoding="UTF-8" standalone="no"?>
<!-- Created with Inkscape (http://www.inkscape.org/) -->

<svg
   width="48"
   height="48"
   viewBox="0 0 48 48"
   version="1.1"
   id="svg8"
   inkscape:version="1.2.1 (9c6d41e410, 2022-07-14)"
   sodipodi:docname="image-x-compressed-xcf.svg"
   xml:space="preserve"
   xmlns:inkscape="http://www.inkscape.org/namespaces/inkscape"
   xmlns:sodipodi="http://sodipodi.sourceforge.net/DTD/sodipodi-0.dtd"
   xmlns="http://www.w3.org/2000/svg"
   xmlns:svg="http://www.w3.org/2000/svg"
   xmlns:rdf="http://www.w3.org/1999/02/22-rdf-syntax-ns#"
   xmlns:cc="http://creativecommons.org/ns#"
   xmlns:dc="http://purl.org/dc/elements/1.1/"><title
     id="title7895">Antu icon Theme</title><defs
     id="defs2"><style
       type="text/css"
       id="current-color-scheme">
      .ColorScheme-Text {
        color:#122036;
      }
      </style><style
       id="current-color-scheme-5"
       type="text/css">
      .ColorScheme-Text {
        color:#122036;
      }
      </style><style
       id="current-color-scheme-2"
       type="text/css">
      .ColorScheme-Text {
        color:#122036;
      }
      </style><style
       id="current-color-scheme-1"
       type="text/css">
      .ColorScheme-Text {
        color:#122036;
      }
      </style><style
       type="text/css"
       id="current-color-scheme-10">
      .ColorScheme-Text {
        color:#122036;
      }
      </style><style
       id="current-color-scheme-0"
       type="text/css">
      .ColorScheme-Text {
        color:#122036;
      }
      </style><style
       id="current-color-scheme-26"
       type="text/css">
      .ColorScheme-Text {
        color:#122036;
      }
      </style><style
       type="text/css"
       id="current-color-scheme-27">
      .ColorScheme-Text {
        color:#122036;
      }
      </style><style
       type="text/css"
       id="current-color-scheme-7">
      .ColorScheme-Text {
        color:#122036;
      }
      </style><style
       type="text/css"
       id="current-color-scheme-5-09">
      .ColorScheme-Text {
        color:#122036;
      }
      </style><style
       type="text/css"
       id="current-color-scheme-0-3">
      .ColorScheme-Text {
        color:#122036;
      }
      </style><style
       type="text/css"
       id="current-color-scheme-7-9">
      .ColorScheme-Text {
        color:#122036;
      }
      </style><style
       type="text/css"
       id="current-color-scheme-5-3">
      .ColorScheme-Text {
        color:#122036;
      }
      </style><style
       type="text/css"
       id="current-color-scheme-79">
      .ColorScheme-Text {
        color:#122036;
      }
      </style><style
       type="text/css"
       id="current-color-scheme-7-2">
      .ColorScheme-Text {
        color:#122036;
      }
      </style><style
       type="text/css"
       id="current-color-scheme-5-0">
      .ColorScheme-Text {
        color:#122036;
      }
      </style><style
       type="text/css"
       id="current-color-scheme-9">
      .ColorScheme-Text {
        color:#122036;
      }
      </style><style
       id="current-color-scheme-5-2"
       type="text/css">
      .ColorScheme-Text {
        color:#122036;
      }
      </style><style
       id="current-color-scheme-2-2"
       type="text/css">
      .ColorScheme-Text {
        color:#122036;
      }
      </style><style
       id="current-color-scheme-1-8"
       type="text/css">
      .ColorScheme-Text {
        color:#122036;
      }
      </style><style
       type="text/css"
       id="current-color-scheme-10-9">
      .ColorScheme-Text {
        color:#122036;
      }
      </style><style
       id="current-color-scheme-0-7"
       type="text/css">
      .ColorScheme-Text {
        color:#122036;
      }
      </style><style
       id="current-color-scheme-26-3"
       type="text/css">
      .ColorScheme-Text {
        color:#122036;
      }
      </style><style
       type="text/css"
       id="current-color-scheme-27-6">
      .ColorScheme-Text {
        color:#122036;
      }
      </style><style
       type="text/css"
       id="current-color-scheme-7-1">
      .ColorScheme-Text {
        color:#122036;
      }
      </style><style
       type="text/css"
       id="current-color-scheme-5-09-2">
      .ColorScheme-Text {
        color:#122036;
      }
      </style><style
       type="text/css"
       id="current-color-scheme-0-3-9">
      .ColorScheme-Text {
        color:#122036;
      }
      </style><style
       type="text/css"
       id="current-color-scheme-7-9-3">
      .ColorScheme-Text {
        color:#122036;
      }
      </style><style
       type="text/css"
       id="current-color-scheme-5-3-1">
      .ColorScheme-Text {
        color:#122036;
      }
      </style><style
       type="text/css"
       id="current-color-scheme-79-9">
      .ColorScheme-Text {
        color:#122036;
      }
      </style><style
       type="text/css"
       id="current-color-scheme-7-2-4">
      .ColorScheme-Text {
        color:#122036;
      }
      </style><style
       type="text/css"
       id="current-color-scheme-5-0-7">
      .ColorScheme-Text {
        color:#122036;
      }
      </style></defs><sodipodi:namedview
     id="base"
     pagecolor="#ffffff"
     bordercolor="#666666"
     borderopacity="1.0"
     inkscape:pageopacity="0.0"
     inkscape:pageshadow="2"
     inkscape:zoom="5.6568543"
     inkscape:cx="65.230601"
     inkscape:cy="19.975767"
     inkscape:document-units="px"
     inkscape:current-layer="layer1"
     showgrid="true"
     units="px"
     inkscape:window-width="2160"
     inkscape:window-height="1330"
     inkscape:window-x="0"
     inkscape:window-y="0"
     inkscape:window-maximized="1"
     objecttolerance="10"
     gridtolerance="10"
     guidetolerance="10"
     inkscape:snap-bbox="true"
     inkscape:bbox-paths="true"
     inkscape:bbox-nodes="true"
     inkscape:snap-bbox-edge-midpoints="true"
     inkscape:snap-bbox-midpoints="true"
     inkscape:object-paths="true"
     inkscape:snap-intersection-paths="true"
     inkscape:showpageshadow="2"
     inkscape:pagecheckerboard="0"
     inkscape:deskcolor="#d1d1d1"><inkscape:grid
       type="xygrid"
       id="grid7897"
       empspacing="4" /></sodipodi:namedview><metadata
     id="metadata5"><rdf:RDF><cc:Work
         rdf:about=""><dc:format>image/svg+xml</dc:format><dc:type
           rdf:resource="http://purl.org/dc/dcmitype/StillImage" /><dc:title>Antu icon Theme</dc:title></cc:Work></rdf:RDF></metadata><g
     inkscape:label="Capa 1"
     inkscape:groupmode="layer"
     id="layer1"
     transform="translate(0,-266.64999)"><g
       id="g8745"
       transform="translate(44,4)"
       style="fill:#0685c6;fill-opacity:1"><path
         inkscape:connector-curvature="0"
         id="rect6397-1"
         d="m -36,264.64999 h 32 c 1.662,0 3,1.33798 3,3 v 38 c 0,1.66197 -1.338,3 -3,3 h -32 c -1.661998,0 -3,-1.33803 -3,-3 v -38 c 0,-1.66202 1.338002,-3 3,-3 z"
         style="opacity:1;vector-effect:none;fill:#0685c6;fill-opacity:1;stroke:none;stroke-width:6;stroke-linecap:square;stroke-linejoin:round;stroke-miterlimit:18;stroke-dasharray:none;stroke-dashoffset:0;stroke-opacity:1;paint-order:markers stroke fill" /><path
         sodipodi:nodetypes="sssssssss"
         inkscape:connector-curvature="0"
         id="rect6399-4"
         d="m -36,265.64999 h 32 c 1.108001,0 2,0.892 2,2.00001 v 38.00001 c 0,1.10797 -0.891999,1.99997 -2,1.99997 h -32 c -1.107998,0 -2,-0.892 -2,-1.99997 V 267.65 c 0,-1.10801 0.892002,-2.00001 2,-2.00001 z"
         style="opacity:1;vector-effect:none;fill:#50c1f9;fill-opacity:1;stroke:none;stroke-width:6;stroke-linecap:square;stroke-linejoin:round;stroke-miterlimit:18;stroke-dasharray:none;stroke-dashoffset:0;stroke-opacity:1;paint-order:markers stroke fill" /></g><path
       id="rect850-5-9-7-9-7-0-4-4"
       style="fill:#8ed7fb;fill-opacity:1;stroke-width:1.2;stroke-linecap:round;stroke-linejoin:round;stroke-miterlimit:1.8;paint-order:stroke fill markers;stop-color:#000000"
       d="m 9,269.64999 v 3 h 3 v -3 z m 3,3 v 3 h 3 v -3 z m 3,0 h 3 v -3 h -3 z m 3,0 v 3 h 3 v -3 z m 3,0 h 3 v -3 h -3 z m 3,0 v 3 h 3 v -3 z m 3,0 h 3 v -3 h -3 z m 3,0 v 3 h 3 v -3 z m 3,0 h 3 v -3 h -3 z m 3,0 v 3 h 3 v -3 z m 3,0 h 1.5 1.5 v -1.5 c 0,-0.83099 -0.669,-1.5 -1.5,-1.5 H 39 v 1.5 z m 0,3 v 3 h 3 v -3 z m 0,3 h -3 v 3 h 3 z m 0,3 v 3 h 3 v -3 z m 0,3 h -3 v 3 h 3 z m 0,3 v 3 h 3 v -3 z m 0,3 h -3 v 3 h 3 z m 0,3 v 3 h 3 v -3 z m 0,3 h -3 v 3 h 3 z m 0,3 v 3 h 3 v -3 z m 0,3 h -3 v 3 h 3 z m 0,3 v 3 h 3 v -3 z m 0,3 h -3 v 3 h 3 z m -3,0 v -3 h -3 v 3 z m -3,0 h -3 v 3 h 3 z m -3,0 v -3 h -3 v 3 z m -3,0 h -3 v 3 h 3 z m -3,0 v -3 h -3 v 3 z m -3,0 h -3 v 3 h 3 z m -3,0 v -3 h -3 v 3 z m -3,0 h -3 v 3 h 3 z m -3,0 v -3 H 9 v 3 z m -3,0 H 7.5 6 v 1.5 c 0,0.83098 0.669,1.5 1.5,1.5 H 9 v -1.5 z m 0,-3 v -3 H 6 v 3 z m 0,-3 h 3 v -3 H 9 Z m 0,-3 v -3 H 6 v 3 z m 0,-3 h 3 v -3 H 9 Z m 0,-3 v -3 H 6 v 3 z m 0,-3 h 3 v -3 H 9 Z m 0,-3 v -3 H 6 v 3 z m 0,-3 h 3 v -3 H 9 Z m 0,-3 v -3 H 6 v 3 z m 0,-3 h 3 v -3 H 9 Z m 0,-3 v -3 H 6 v 3 z m 3,3 v 3 h 3 v -3 z m 3,0 h 3 v -3 h -3 z m 3,0 v 3 h 3 v -3 z m 3,0 h 3 v -3 h -3 z m 3,0 v 3 h 3 v -3 z m 3,0 h 3 v -3 h -3 z m 3,0 v 3 h 3 v -3 z m 3,0 h 3 v -3 h -3 z m 0,3 v 3 h 3 v -3 z m 0,3 h -3 v 3 h 3 z m 0,3 v 3 h 3 v -3 z m 0,3 h -3 v 3 h 3 z m 0,3 v 3 h 3 v -3 z m 0,3 h -3 v 3 h 3 z m 0,3 v 3 h 3 v -3 z m 0,3 h -3 v 3 h 3 z m -3,0 v -3 h -3 v 3 z m -3,0 h -3 v 3 h 3 z m -3,0 v -3 h -3 v 3 z m -3,0 h -3 v 3 h 3 z m -3,0 v -3 h -3 v 3 z m -3,0 h -3 v 3 h 3 z m 0,-3 v -3 h -3 v 3 z m 0,-3 h 3 v -3 h -3 z m 0,-3 v -3 h -3 v 3 z m 0,-3 h 3 v -3 h -3 z m 0,-3 v -3 h -3 v 3 z m 0,-3 h 3 v -3 h -3 z m 3,0 v 3 h 3 v -3 z m 3,0 h 3 v -3 h -3 z m 3,0 v 3 h 3 v -3 z m 3,0 h 3 v -3 h -3 z m 0,3 v 3 h 3 v -3 z m 0,3 h -3 v 3 h 3 z m 0,3 v 3 h 3 v -3 z m 0,3 h -3 v 3 h 3 z m -3,0 v -3 h -3 v 3 z m -3,0 h -3 v 3 h 3 z m 0,-3 v -3 h -3 v 3 z m 0,-3 h 3 v -3 h -3 z" /><g
       id="g6572"
       transform="translate(-41.00167,-10.79674)"><path
         id="path3035-69"
         style="fill:#8c613b;fill-opacity:1;stroke-width:2.07408;stroke-linecap:round;stroke-linejoin:round;stroke-miterlimit:1.8;paint-order:stroke fill markers;stop-color:#000000"
         d="m 77.982136,288.44673 c -0.191622,0.004 -0.378055,0.0631 -0.537109,0.17008 l -5.742187,3.83203 h -6.701171 l -5.376956,-3.7793 c -0.299754,-0.23849 -0.709311,-0.2846 -1.054685,-0.11906 -0.346771,0.16592 -0.567704,0.51598 -0.568361,0.9004 v 7.99805 h -6.999999 v 3 0.49999 h 0.0155 c 0.170645,4.81928 2.809512,9.2115 6.984374,11.625 4.331615,2.50087 9.668387,2.50087 14.000002,0 4.174863,-2.4135 6.81374,-6.80572 6.984378,-11.625 h 0.0155 v -0.49999 -2.96875 c 8.62e-4,-0.0113 0.0015,-0.0227 0.002,-0.034 v -7.99416 c 0.0023,-0.56228 -0.459311,-1.01593 -1.021485,-1.00392 z m -0.98047,2.87112 v 5.13086 l -16.999998,0.99999 v -5.92384 l 4.025394,2.70315 c 0.178242,0.14325 0.400206,0.22111 0.628909,0.22073 h 7.349606 c 0.196951,-9.9e-4 0.389242,-0.0601 0.552737,-0.17008 z"
         sodipodi:nodetypes="ccccccccccccccccccccccccccccccc" /><path
         id="path3035-6-3"
         style="fill:#b9977a;fill-opacity:1;stroke-width:1.92593;stroke-linecap:round;stroke-linejoin:round;stroke-miterlimit:1.8;paint-order:stroke fill markers;stop-color:#000000"
         d="m 59.001669,289.44869 v 9 h -7.000003 v 2.00001 0.49999 h 0.0155 c 0.170683,4.46155 2.618967,8.52333 6.484376,10.75782 4.022215,2.32222 8.977785,2.32222 13,0 3.86541,-2.23449 6.313697,-6.29627 6.48438,-10.75782 h 0.0155 v -0.49999 -3 -8.00001 l -6,4.00002 H 64.65402 Z"
         sodipodi:nodetypes="cccccccccccccccc" /><path
         inkscape:connector-curvature="0"
         id="rect2465-1-7"
         d="m 69.001668,293.44871 c -2.045866,0 -3.790567,1.2206 -4.566402,2.97264 -0.694598,-1.17766 -1.9619,-1.97265 -3.433599,-1.97265 -2.216002,0 -3.999995,1.78405 -3.999995,4.00002 0,2.21602 1.783997,3.99999 3.999995,3.99999 1.471699,0 2.739001,-0.79498 3.433599,-1.97265 0.775835,1.75204 2.52054,2.97264 4.566406,2.97264 2.770001,0 4.999998,-2.23 4.999998,-4.99998 0,-2.77001 -2.229997,-5.00001 -5.000002,-5.00001 z"
         style="fill:#a3b7cc;fill-opacity:1;stroke:none;stroke-width:9.99999;stroke-linecap:round;stroke-linejoin:round;stroke-miterlimit:4;stroke-dasharray:none;stroke-dashoffset:0;stroke-opacity:1;paint-order:normal" /><path
         inkscape:connector-curvature="0"
         id="rect2465-3-6-8-8"
         d="m 69.001668,294.44866 c -2.216001,0 -4.000002,1.78405 -4.000002,4.00003 0,2.21601 1.784001,3.99998 4.000002,3.99998 2.215998,0 3.999999,-1.78397 3.999999,-3.99998 0,-2.21598 -1.784001,-4.00003 -3.999999,-4.00003 z m -8.000001,1.00003 c -1.661998,0 -3,1.33799 -3,3 0,1.66197 1.338002,3 3,3 1.662002,0 3.000004,-1.33803 3.000004,-3 0,-1.66201 -1.337998,-3 -3.000004,-3 z"
         style="fill:#f1f1f1;fill-opacity:1;stroke:none;stroke-width:6;stroke-linecap:round;stroke-linejoin:round;stroke-miterlimit:4;stroke-dasharray:none;stroke-dashoffset:0;stroke-opacity:1;paint-order:normal" /><path
         inkscape:connector-curvature="0"
         id="rect2465-3-6-0-7-6"
         d="m 62.001669,296.44867 c -1.108002,0 -2.000001,0.89201 -2.000001,2.00002 0,1.108 0.891999,1.99997 2.000001,1.99997 1.107999,0 2.000002,-0.89197 2.000002,-1.99997 0,-1.10801 -0.891999,-2.00002 -2.000002,-2.00002 z m 8.000002,0 c -1.107999,0 -2.000001,0.89201 -2.000001,2.00002 0,1.108 0.892002,1.99997 2.000001,1.99997 1.107995,0 2.000001,-0.89197 2.000001,-1.99997 0,-1.10801 -0.892006,-2.00002 -2.000001,-2.00002 z"
         style="fill:#36404d;fill-opacity:1;stroke:none;stroke-width:3.99999;stroke-linecap:round;stroke-linejoin:round;stroke-miterlimit:4;stroke-dasharray:none;stroke-dashoffset:0;stroke-opacity:1;paint-order:normal" /><path
         id="path8354-7-6-8"
         style="fill:#36404d;stroke-width:2.85713;stroke-linecap:round;stroke-linejoin:round;stroke-miterlimit:1.8;paint-order:stroke fill markers;stop-color:#000000"
         d="m 59.001665,300.44866 a 4.9999992,4.9999992 0 0 1 -4.999997,5.00005 4.9999992,4.9999992 0 0 1 -4.999998,-5.00005 4.9999992,4.9999992 0 0 1 4.999998,-4.99997 4.9999992,4.9999992 0 0 1 4.999997,4.99997 z" /><path
         id="path8354-0-8"
         style="fill:#4b6477;stroke-width:2.28572;stroke-linecap:round;stroke-linejoin:round;stroke-miterlimit:1.8;paint-order:stroke fill markers;stop-color:#000000"
         d="m 58.00167,300.44866 a 4,4 0 0 1 -4.000002,4.00003 4,4 0 0 1 -3.999999,-4.00003 4,4 0 0 1 3.999999,-3.99999 4,4 0 0 1 4.000002,3.99999 z" /></g></g></svg>
