<?xml version="1.0" encoding="UTF-8" standalone="no"?>
<!-- Created with Inkscape (http://www.inkscape.org/) -->

<svg
   width="48"
   height="48"
   viewBox="0 0 48 48"
   version="1.1"
   id="svg8"
   inkscape:version="1.2.1 (9c6d41e410, 2022-07-14)"
   sodipodi:docname="libreoffice-extension.svg"
   xmlns:inkscape="http://www.inkscape.org/namespaces/inkscape"
   xmlns:sodipodi="http://sodipodi.sourceforge.net/DTD/sodipodi-0.dtd"
   xmlns="http://www.w3.org/2000/svg"
   xmlns:svg="http://www.w3.org/2000/svg"
   xmlns:rdf="http://www.w3.org/1999/02/22-rdf-syntax-ns#"
   xmlns:cc="http://creativecommons.org/ns#"
   xmlns:dc="http://purl.org/dc/elements/1.1/">
  <title
     id="title7895">Antu icon Theme</title>
  <defs
     id="defs2">
    <style
       id="current-color-scheme"
       type="text/css">
      .ColorScheme-Text {
        color:#122036;
      }
      </style>
    <style
       id="current-color-scheme-2"
       type="text/css">
      .ColorScheme-Text {
        color:#122036;
      }
      </style>
    <style
       id="current-color-scheme-0"
       type="text/css">
      .ColorScheme-Text {
        color:#122036;
      }
      </style>
  </defs>
  <sodipodi:namedview
     id="base"
     pagecolor="#ffffff"
     bordercolor="#666666"
     borderopacity="1.0"
     inkscape:pageopacity="0.0"
     inkscape:pageshadow="2"
     inkscape:zoom="8.0000004"
     inkscape:cx="29.062499"
     inkscape:cy="32.937499"
     inkscape:document-units="px"
     inkscape:current-layer="g2217"
     showgrid="true"
     units="px"
     inkscape:window-width="1080"
     inkscape:window-height="1335"
     inkscape:window-x="0"
     inkscape:window-y="0"
     inkscape:window-maximized="0"
     objecttolerance="10"
     gridtolerance="10"
     guidetolerance="10"
     inkscape:snap-bbox="true"
     inkscape:bbox-paths="true"
     inkscape:bbox-nodes="true"
     inkscape:snap-bbox-edge-midpoints="true"
     inkscape:snap-bbox-midpoints="true"
     inkscape:object-paths="true"
     inkscape:snap-intersection-paths="true"
     inkscape:showpageshadow="2"
     inkscape:pagecheckerboard="0"
     inkscape:deskcolor="#d1d1d1">
    <inkscape:grid
       type="xygrid"
       id="grid7897"
       empspacing="4" />
  </sodipodi:namedview>
  <metadata
     id="metadata5">
    <rdf:RDF>
      <cc:Work
         rdf:about="">
        <dc:format>image/svg+xml</dc:format>
        <dc:type
           rdf:resource="http://purl.org/dc/dcmitype/StillImage" />
        <dc:title>Antu icon Theme</dc:title>
      </cc:Work>
    </rdf:RDF>
  </metadata>
  <g
     inkscape:label="Capa 1"
     inkscape:groupmode="layer"
     id="layer1"
     transform="translate(0,-266.64999)">
    <g
       id="g2217"
       transform="translate(30.000001,16.999985)">
      <g
         id="g121077"
         transform="translate(-42.999999,-32.000005)">
        <path
           style="fill:#4a73c6;fill-opacity:1;stroke:none;stroke-width:6;stroke-linecap:square;stroke-linejoin:round;stroke-miterlimit:18;stroke-dasharray:none;stroke-dashoffset:0;stroke-opacity:1;paint-order:markers stroke fill"
           d="m 20.999999,283.65001 h 31.999997 c 1.662002,0 3,1.33798 3,3 v 38 c 0,1.66197 -1.337998,3 -3,3 H 20.999999 c -1.661998,0 -3,-1.33803 -3,-3 v -38 c 0,-1.66202 1.338002,-3 3,-3 z"
           id="rect6397-1-7"
           inkscape:connector-curvature="0" />
        <path
           style="fill:#5ca5ff;fill-opacity:1;stroke:none;stroke-width:6;stroke-linecap:square;stroke-linejoin:round;stroke-miterlimit:18;stroke-dasharray:none;stroke-dashoffset:0;stroke-opacity:1;paint-order:markers stroke fill"
           d="m 20.999999,284.64999 h 31.999997 c 1.107999,0 2.000001,0.892 2.000001,2.00002 v 38 c 0,1.10798 -0.892002,1.99998 -2.000001,1.99998 H 20.999999 c -1.107999,0 -2.000001,-0.89201 -2.000001,-1.99998 v -38 c 0,-1.10802 0.892002,-2.00002 2.000001,-2.00002 z"
           id="rect6399-4-2"
           inkscape:connector-curvature="0"
           sodipodi:nodetypes="sssssssss" />
        <g
           id="g6871"
           transform="matrix(3.7795276,0,0,3.7795276,51.694914,281.58221)"
           style="fill:#e3f7ff;fill-opacity:1">
          <path
             style="fill:#e3f7ff;fill-opacity:1;stroke:none;stroke-width:2;stroke-linecap:round;stroke-linejoin:round;stroke-miterlimit:4;stroke-dasharray:none;stroke-opacity:1"
             d="M 13.5,2 C 12.115,2 11,3.1150001 11,4.5 V 6 H 5 C 3.3380019,6 2,7.338 2,9 v 6 h 1.5 c 0.48475,0 0.9462188,0.0968 1.3652344,0.273438 0.4190156,0.17664 0.7950156,0.433687 1.1113281,0.75 0.3163125,0.316312 0.5733594,0.692312 0.75,1.111328 C 6.9032031,17.553781 7,18.01525 7,18.5 7,18.98475 6.903203,19.446219 6.7265625,19.865234 6.5499219,20.28425 6.292875,20.66025 5.9765625,20.976562 5.66025,21.292875 5.28425,21.549922 4.8652344,21.726562 4.4462188,21.903203 3.98475,22 3.5,22 H 2 v 5 c 0,1.662002 1.3380019,3 3,3 h 5 v -1.5 c 0,-0.48475 0.0968,-0.946219 0.273438,-1.365234 0.176639,-0.419016 0.433687,-0.795017 0.75,-1.111328 0.316311,-0.316313 0.692312,-0.573361 1.111328,-0.75 C 12.553781,25.096797 13.01525,25 13.5,25 c 0.48475,0 0.946219,0.0968 1.365234,0.273438 0.419016,0.176639 0.795017,0.433687 1.111328,0.75 0.316313,0.316311 0.573361,0.692312 0.75,1.111328 C 16.903203,27.553781 17,28.01525 17,28.5 V 30 h 6 c 1.662002,0 3,-1.337998 3,-3 v -6 h 1.5 C 28.885,21 30,19.885 30,18.5 30,17.115 28.885,16 27.5,16 H 26 V 9 C 26,7.338 24.662002,6 23,6 H 16 V 4.5 C 16,3.1150001 14.885,2 13.5,2 Z"
             id="rect868"
             transform="matrix(0.26458333,0,0,0.26458333,-7.8567796,2.1346046)" />
        </g>
      </g>
    </g>
  </g>
</svg>
