<?xml version="1.0" encoding="UTF-8" standalone="no"?>
<!-- Created with Inkscape (http://www.inkscape.org/) -->

<svg
   width="48"
   height="48"
   viewBox="0 0 48 48"
   version="1.1"
   id="svg8"
   inkscape:version="1.2.1 (9c6d41e410, 2022-07-14)"
   sodipodi:docname="text-x-hex.svg"
   xml:space="preserve"
   xmlns:inkscape="http://www.inkscape.org/namespaces/inkscape"
   xmlns:sodipodi="http://sodipodi.sourceforge.net/DTD/sodipodi-0.dtd"
   xmlns="http://www.w3.org/2000/svg"
   xmlns:svg="http://www.w3.org/2000/svg"
   xmlns:rdf="http://www.w3.org/1999/02/22-rdf-syntax-ns#"
   xmlns:cc="http://creativecommons.org/ns#"
   xmlns:dc="http://purl.org/dc/elements/1.1/"><title
     id="title7895">Antu icon Theme</title><defs
     id="defs2" /><sodipodi:namedview
     id="base"
     pagecolor="#ffffff"
     bordercolor="#666666"
     borderopacity="1.0"
     inkscape:pageopacity="0.0"
     inkscape:pageshadow="2"
     inkscape:zoom="11.313709"
     inkscape:cx="-7.6897859"
     inkscape:cy="45.608385"
     inkscape:document-units="px"
     inkscape:current-layer="layer1"
     showgrid="true"
     units="px"
     inkscape:window-width="2160"
     inkscape:window-height="1330"
     inkscape:window-x="0"
     inkscape:window-y="0"
     inkscape:window-maximized="1"
     objecttolerance="10"
     gridtolerance="10"
     guidetolerance="10"
     inkscape:snap-bbox="true"
     inkscape:bbox-paths="true"
     inkscape:bbox-nodes="true"
     inkscape:snap-bbox-edge-midpoints="true"
     inkscape:snap-bbox-midpoints="true"
     inkscape:object-paths="true"
     inkscape:snap-intersection-paths="true"
     inkscape:showpageshadow="2"
     inkscape:pagecheckerboard="0"
     inkscape:deskcolor="#d1d1d1"><inkscape:grid
       type="xygrid"
       id="grid7897"
       empspacing="4" /></sodipodi:namedview><metadata
     id="metadata5"><rdf:RDF><cc:Work
         rdf:about=""><dc:format>image/svg+xml</dc:format><dc:type
           rdf:resource="http://purl.org/dc/dcmitype/StillImage" /><dc:title>Antu icon Theme</dc:title></cc:Work></rdf:RDF></metadata><g
     inkscape:label="Capa 1"
     inkscape:groupmode="layer"
     id="layer1"
     transform="translate(0,-266.64999)"><g
       id="g5242"
       transform="translate(36,12)"><path
         inkscape:connector-curvature="0"
         id="rect6397-1"
         d="M -28,256.64999 H 4 c 1.662,0 3,1.33798 3,3 v 38 c 0,1.66197 -1.338,3 -3,3 h -32 c -1.661998,0 -3,-1.33803 -3,-3 v -38 c 0,-1.66202 1.338002,-3 3,-3 z"
         style="opacity:1;vector-effect:none;fill:#a5b8cd;fill-opacity:1;stroke:none;stroke-width:6;stroke-linecap:square;stroke-linejoin:round;stroke-miterlimit:18;stroke-dasharray:none;stroke-dashoffset:0;stroke-opacity:1;paint-order:markers stroke fill" /><path
         sodipodi:nodetypes="sssssssss"
         inkscape:connector-curvature="0"
         id="rect6399-4"
         d="M -28,257.64999 H 4 c 1.108001,0 2,0.892 2,2.00001 v 38.00001 c 0,1.10797 -0.891999,1.99997 -2,1.99997 h -32 c -1.107998,0 -2,-0.892 -2,-1.99997 V 259.65 c 0,-1.10801 0.892002,-2.00001 2,-2.00001 z"
         style="opacity:1;vector-effect:none;fill:#f1f1f1;fill-opacity:1;stroke:none;stroke-width:6;stroke-linecap:square;stroke-linejoin:round;stroke-miterlimit:18;stroke-dasharray:none;stroke-dashoffset:0;stroke-opacity:1;paint-order:markers stroke fill" /></g><path
       id="path999"
       style="opacity:1;fill:#a5b8cd;fill-opacity:1;stroke:none;stroke-width:2;stroke-linecap:round;stroke-linejoin:round;stroke-miterlimit:4;stroke-dasharray:none;stroke-dashoffset:0;stroke-opacity:1"
       d="M 10 274.64999 L 10 276.64999 L 18 276.64999 L 18 274.64999 L 10 274.64999 z M 20 274.64999 L 20 276.64999 L 23 276.64999 L 23 274.64999 L 20 274.64999 z M 25 274.64999 L 25 276.64999 L 29 276.64999 L 29 274.64999 L 25 274.64999 z M 31 274.64999 L 31 276.64999 L 33 276.64999 L 33 274.64999 L 31 274.64999 z M 10 278.64999 L 10 280.64999 L 14 280.64999 L 14 278.64999 L 10 278.64999 z M 16 278.64999 L 16 280.64999 L 24 280.64999 L 24 278.64999 L 16 278.64999 z M 26 278.64999 L 26 280.64999 L 32 280.64999 L 32 278.64999 L 26 278.64999 z M 10 282.64999 L 10 284.64999 L 13 284.64999 L 13 282.64999 L 10 282.64999 z M 15 282.64999 L 15 284.64999 L 19 284.64999 L 19 282.64999 L 15 282.64999 z M 21 282.64999 L 21 284.64999 L 29 284.64999 L 29 282.64999 L 21 282.64999 z M 31 282.64999 L 31 284.64999 L 33 284.64999 L 33 282.64999 L 31 282.64999 z M 10 286.64999 L 10 288.64999 L 21 288.64999 L 21 286.64999 L 10 286.64999 z M 23 286.64999 L 23 288.64999 L 27 288.64999 L 27 286.64999 L 23 286.64999 z M 29 286.64999 L 29 288.64999 L 33 288.64999 L 33 286.64999 L 29 286.64999 z M 10 290.64999 L 10 292.64999 L 14 292.64999 L 14 290.64999 L 10 290.64999 z M 16 290.64999 L 16 292.64999 L 24 292.64999 L 24 290.64999 L 16 290.64999 z M 26 290.64999 L 26 292.64999 L 32 292.64999 L 32 290.64999 L 26 290.64999 z M 10 294.64999 L 10 296.64999 L 21 296.64999 L 21 294.64999 L 10 294.64999 z M 23 294.64999 L 23 296.64999 L 28 296.64999 L 28 294.64999 L 23 294.64999 z M 30 294.64999 L 30 296.64999 L 33 296.64999 L 33 294.64999 L 30 294.64999 z M 10 298.64999 L 10 300.64999 L 14 300.64999 L 14 298.64999 L 10 298.64999 z M 16 298.64999 L 16 300.64999 L 20 300.64999 L 20 298.64999 L 16 298.64999 z M 22 298.64999 L 22 300.64999 L 26 300.64999 L 26 298.64999 L 22 298.64999 z M 31 298.64999 L 31 300.64999 L 29 300.64999 L 29 302.64999 L 31 302.64999 L 31 304.64999 L 29 304.64999 L 29 306.64999 L 31 306.64999 L 31 308.64999 L 33 308.64999 L 33 306.64999 L 35 306.64999 L 35 308.64999 L 37 308.64999 L 37 306.64999 L 39 306.64999 L 39 304.64999 L 37 304.64999 L 37 302.64999 L 39 302.64999 L 39 300.64999 L 37 300.64999 L 37 298.64999 L 35 298.64999 L 35 300.64999 L 33 300.64999 L 33 298.64999 L 31 298.64999 z M 10 302.64999 L 10 304.64999 L 18 304.64999 L 18 302.64999 L 10 302.64999 z M 20 302.64999 L 20 304.64999 L 24 304.64999 L 24 302.64999 L 20 302.64999 z M 33 302.64999 L 35 302.64999 L 35 304.64999 L 33 304.64999 L 33 302.64999 z " /></g></svg>
