<?xml version="1.0" encoding="UTF-8" standalone="no"?>
<!-- Created with Inkscape (http://www.inkscape.org/) -->

<svg
   width="48"
   height="48"
   viewBox="0 0 48 48"
   version="1.1"
   id="svg8"
   inkscape:version="1.2.1 (9c6d41e410, 2022-07-14)"
   sodipodi:docname="text-x-python.svg"
   xml:space="preserve"
   xmlns:inkscape="http://www.inkscape.org/namespaces/inkscape"
   xmlns:sodipodi="http://sodipodi.sourceforge.net/DTD/sodipodi-0.dtd"
   xmlns="http://www.w3.org/2000/svg"
   xmlns:svg="http://www.w3.org/2000/svg"
   xmlns:rdf="http://www.w3.org/1999/02/22-rdf-syntax-ns#"
   xmlns:cc="http://creativecommons.org/ns#"
   xmlns:dc="http://purl.org/dc/elements/1.1/"><title
     id="title7895">Antu icon Theme</title><defs
     id="defs2"><style
       type="text/css"
       id="current-color-scheme">
      .ColorScheme-Text {
        color:#122036;
      }
      </style><style
       id="current-color-scheme-5"
       type="text/css">
      .ColorScheme-Text {
        color:#122036;
      }
      </style><style
       id="current-color-scheme-2"
       type="text/css">
      .ColorScheme-Text {
        color:#122036;
      }
      </style><style
       id="current-color-scheme-1"
       type="text/css">
      .ColorScheme-Text {
        color:#122036;
      }
      </style><style
       type="text/css"
       id="current-color-scheme-10">
      .ColorScheme-Text {
        color:#122036;
      }
      </style><style
       id="current-color-scheme-0"
       type="text/css">
      .ColorScheme-Text {
        color:#122036;
      }
      </style><style
       id="current-color-scheme-26"
       type="text/css">
      .ColorScheme-Text {
        color:#122036;
      }
      </style><style
       type="text/css"
       id="current-color-scheme-27">
      .ColorScheme-Text {
        color:#122036;
      }
      </style><style
       type="text/css"
       id="current-color-scheme-7">
      .ColorScheme-Text {
        color:#122036;
      }
      </style><style
       type="text/css"
       id="current-color-scheme-5-09">
      .ColorScheme-Text {
        color:#122036;
      }
      </style><style
       type="text/css"
       id="current-color-scheme-0-3">
      .ColorScheme-Text {
        color:#122036;
      }
      </style><style
       type="text/css"
       id="current-color-scheme-7-9">
      .ColorScheme-Text {
        color:#122036;
      }
      </style><style
       type="text/css"
       id="current-color-scheme-5-3">
      .ColorScheme-Text {
        color:#122036;
      }
      </style><style
       type="text/css"
       id="current-color-scheme-79">
      .ColorScheme-Text {
        color:#122036;
      }
      </style><style
       type="text/css"
       id="current-color-scheme-7-2">
      .ColorScheme-Text {
        color:#122036;
      }
      </style><style
       type="text/css"
       id="current-color-scheme-5-0">
      .ColorScheme-Text {
        color:#122036;
      }
      </style><style
       id="current-color-scheme-04"
       type="text/css">
      .ColorScheme-Text {
        color:#122036;
      }
      </style><style
       id="current-color-scheme-6"
       type="text/css">
      .ColorScheme-Text {
        color:#122036;
      }
      </style><style
       id="current-color-scheme-67"
       type="text/css">
      .ColorScheme-Text {
        color:#122036;
      }
      </style><style
       type="text/css"
       id="current-color-scheme-1-8">
      .ColorScheme-Text {
        color:#122036;
      }
      </style></defs><sodipodi:namedview
     id="base"
     pagecolor="#ffffff"
     bordercolor="#666666"
     borderopacity="1.0"
     inkscape:pageopacity="0.0"
     inkscape:pageshadow="2"
     inkscape:zoom="11.313709"
     inkscape:cx="35.266951"
     inkscape:cy="37.653436"
     inkscape:document-units="px"
     inkscape:current-layer="g6878"
     showgrid="true"
     units="px"
     inkscape:window-width="2160"
     inkscape:window-height="1330"
     inkscape:window-x="0"
     inkscape:window-y="0"
     inkscape:window-maximized="1"
     objecttolerance="10"
     gridtolerance="10"
     guidetolerance="10"
     inkscape:snap-bbox="true"
     inkscape:bbox-paths="true"
     inkscape:bbox-nodes="true"
     inkscape:snap-bbox-edge-midpoints="true"
     inkscape:snap-bbox-midpoints="true"
     inkscape:object-paths="true"
     inkscape:snap-intersection-paths="true"
     inkscape:showpageshadow="2"
     inkscape:pagecheckerboard="0"
     inkscape:deskcolor="#d1d1d1"><inkscape:grid
       type="xygrid"
       id="grid7897"
       empspacing="4" /></sodipodi:namedview><metadata
     id="metadata5"><rdf:RDF><cc:Work
         rdf:about=""><dc:format>image/svg+xml</dc:format><dc:type
           rdf:resource="http://purl.org/dc/dcmitype/StillImage" /><dc:title>Antu icon Theme</dc:title></cc:Work></rdf:RDF></metadata><g
     inkscape:label="Capa 1"
     inkscape:groupmode="layer"
     id="layer1"
     transform="translate(0,-266.64999)"><path
       inkscape:connector-curvature="0"
       id="rect6397-1"
       d="m 8,268.64999 h 32 c 1.662,0 3,1.33798 3,3 v 38 c 0,1.66197 -1.338,3 -3,3 H 8 c -1.661998,0 -3,-1.33803 -3,-3 v -38 c 0,-1.66202 1.338002,-3 3,-3 z"
       style="vector-effect:none;fill:#a5b8cd;fill-opacity:1;stroke:none;stroke-width:6;stroke-linecap:square;stroke-linejoin:round;stroke-miterlimit:18;stroke-dasharray:none;stroke-dashoffset:0;stroke-opacity:1;paint-order:markers stroke fill" /><path
       sodipodi:nodetypes="sssssssss"
       inkscape:connector-curvature="0"
       id="rect6399-4"
       d="m 8,269.64999 h 32 c 1.108001,0 2,0.892 2,2.00001 v 38.00001 c 0,1.10797 -0.891999,1.99997 -2,1.99997 H 8 c -1.107998,0 -2,-0.892 -2,-1.99997 V 271.65 c 0,-1.10801 0.892002,-2.00001 2,-2.00001 z"
       style="fill:#fafafa;fill-opacity:1;stroke:none;stroke-width:6;stroke-linecap:square;stroke-linejoin:round;stroke-miterlimit:18;stroke-dasharray:none;stroke-dashoffset:0;stroke-opacity:1;paint-order:markers stroke fill" /><path
       id="rect850-5-9-7-9-7-0-4-4-1-0"
       style="fill:#dfe6ec;fill-opacity:1;stroke-width:1.2;stroke-linecap:round;stroke-linejoin:round;stroke-miterlimit:1.8;paint-order:stroke fill markers;stop-color:#000000"
       d="m 9,269.64999 v 3 h 3 v -3 z m 3,3 v 3 h 3 v -3 z m 3,0 h 3 v -3 h -3 z m 3,0 v 3 h 3 v -3 z m 3,0 h 3 v -3 h -3 z m 3,0 v 3 h 3 v -3 z m 3,0 h 3 v -3 h -3 z m 3,0 v 3 h 3 v -3 z m 3,0 h 3 v -3 h -3 z m 3,0 v 3 h 3 v -3 z m 3,0 h 1.5 1.5 v -1.5 c 0,-0.83099 -0.669,-1.5 -1.5,-1.5 H 39 v 1.5 z m 0,3 v 3 h 3 v -3 z m 0,3 h -3 v 3 h 3 z m 0,3 v 3 h 3 v -3 z m 0,3 h -3 v 3 h 3 z m 0,3 v 3 h 3 v -3 z m 0,3 h -3 v 3 h 3 z m 0,3 v 2.99999 h 3 v -3 z m 0,2.99999 h -3 v 3 h 3 z m 0,3 v 3 h 3 v -3 z m 0,3 h -3 v 3 h 3 z m 0,3 v 3 h 3 v -3 z m 0,3 h -3 v 3 h 3 z m -3,0 v -3 h -3 v 3 z m -3,0 h -3 v 3 h 3 z m -3,0 v -3 h -3 v 3 z m -3,0 h -3 v 3 h 3 z m -3,0 v -3 h -3 v 3 z m -3,0 h -3 v 3 h 3 z m -3,0 v -3 h -3 v 3 z m -3,0 h -3 v 3 h 3 z m -3,0 v -3 H 9 v 3 z m -3,0 H 7.5 6 v 1.5 c 0,0.83099 0.669,1.5 1.5,1.5 H 9 v -1.5 z m 0,-3 v -3 H 6 v 3 z m 0,-3 h 3 v -3 H 9 Z m 0,-3 v -3 H 6 v 3 z m 0,-3 h 3 v -3 H 9 Z m 0,-3 v -3 H 6 v 3 z m 0,-3 h 3 v -3 H 9 Z m 0,-3 v -3 H 6 v 3 z m 0,-3 h 3 v -3 H 9 Z m 0,-3 v -3 H 6 v 3 z m 0,-3 h 3 v -3 H 9 Z m 0,-3 v -3 H 6 v 3 z m 3,3 v 3 h 3 v -3 z m 3,0 h 3 v -3 h -3 z m 3,0 v 3 h 3 v -3 z m 3,0 h 3 v -3 h -3 z m 3,0 v 3 h 3 v -3 z m 3,0 h 3 v -3 h -3 z m 3,0 v 3 h 3 v -3 z m 3,0 h 3 v -3 h -3 z m 0,3 v 3 h 3 v -3 z m 0,3 h -3 v 3 h 3 z m 0,3 v 3 h 3 v -3 z m 0,3 h -3 v 3 h 3 z m 0,3 v 3 h 3 v -3 z m 0,3 h -3 v 3 h 3 z m 0,3 v 3 h 3 v -3 z m 0,3 h -3 v 3 h 3 z m -3,0 v -3 h -3 v 3 z m -3,0 h -3 v 3 h 3 z m -3,0 v -3 h -3 v 3 z m -3,0 h -3 v 3 h 3 z m -3,0 v -3 h -3 v 3 z m -3,0 h -3 v 3 h 3 z m 0,-3 v -3 h -3 v 3 z m 0,-3 h 3 v -3 h -3 z m 0,-3 v -3 h -3 v 3 z m 0,-3 h 3 v -3 h -3 z m 0,-3 v -3 h -3 v 3 z m 0,-3 h 3 v -3 h -3 z m 3,0 v 3 h 3 v -3 z m 3,0 h 3 v -3 h -3 z m 3,0 v 3 h 3 v -3 z m 3,0 h 3 v -3 h -3 z m 0,3 v 3 h 3 v -3 z m 0,3 h -3 v 3 h 3 z m 0,3 v 3 h 3 v -3 z m 0,3 h -3 v 3 h 3 z m -3,0 v -3 h -3 v 3 z m -3,0 h -3 v 3 h 3 z m 0,-3 v -3 h -3 v 3 z m 0,-3 h 3 v -3 h -3 z" /><g
       id="g6878"
       transform="translate(48.009756,-0.00196677)"><g
         id="g10284"
         transform="translate(-76.004858,-0.9999973)"><g
           id="path5320-7"
           transform="matrix(1.4666667,0,0,1.4666667,-30.501817,274.21716)"
           style="fill:#347cce;fill-opacity:1"><path
             id="path9356"
             style="color:#000000;fill:#347cce;fill-opacity:1;stroke:#347cce;stroke-width:1.36364;stroke-linecap:round;stroke-linejoin:round;stroke-miterlimit:1.8;stroke-opacity:1;paint-order:stroke fill markers"
             d="m 54.880949,4.3873613 c -1.510905,0 -2.727272,1.2163667 -2.727272,2.7272727 v 0.6818182 h 0.681818 v -0.00133 h 3.414417 V 7.114634 h 0.0013 v 1.3623047 l -2.733931,0.00133 -0.67516,-0.00133 h -0.743075 c -1.854596,0 -3.347834,1.4932402 -3.347834,3.3478333 v 0.804333 c 0,1.854595 1.493238,3.347833 3.347834,3.347833 h 0.06126 v -2.038796 -0.0067 -0.0067 c 0,-0.07058 0.0037,-0.140379 0.01065,-0.209074 0.0069,-0.06869 0.01709,-0.135942 0.03063,-0.202414 0.01354,-0.06647 0.0308,-0.131843 0.0506,-0.195757 0.0198,-0.06391 0.04219,-0.126748 0.06791,-0.187766 0.02573,-0.06102 0.05391,-0.120659 0.08523,-0.178445 0.03132,-0.05779 0.06597,-0.113574 0.102539,-0.167791 0.03657,-0.05422 0.0757,-0.106827 0.117188,-0.157138 0.04149,-0.05031 0.08444,-0.09909 0.130504,-0.145152 0.04607,-0.04607 0.09484,-0.08902 0.145153,-0.130505 0.05031,-0.04149 0.102921,-0.08062 0.157138,-0.117187 0.05422,-0.03657 0.110005,-0.07122 0.167791,-0.102539 0.05779,-0.03132 0.11743,-0.0595 0.178444,-0.08523 0.06102,-0.02573 0.123853,-0.04811 0.187767,-0.06792 0.06391,-0.0198 0.129284,-0.03707 0.195756,-0.0506 0.06647,-0.01354 0.133721,-0.02369 0.202415,-0.03063 0.06869,-0.0069 0.138494,-0.01065 0.209073,-0.01065 h 2.052113 0.688477 1.356978 c 0.755448,0 1.363636,-0.608188 1.363636,-1.363636 V 9.840575 7.1133023 c 0,-0.064921 -0.0027,-0.1291962 -0.0067,-0.193093 V 7.114634 c 0,-1.510906 -1.216368,-2.7272727 -2.727273,-2.7272727 z"
             sodipodi:nodetypes="sscccccccccsssscccscssssssssssssscsccsscsccss" /></g><path
           id="path9356-6"
           style="color:#000000;fill:#6bb1ff;stroke:none;stroke-width:2.00001;stroke-linecap:round;stroke-linejoin:round;stroke-miterlimit:1.8;stroke-opacity:1;paint-order:stroke fill markers"
           d="m 49.990244,280.65196 c -2.215992,0 -4,1.784 -4,4 v 1 h 1 v -0.002 h 5.007812 v -0.99804 h 0.002 V 286.65 l -4.009766,0.002 -0.990234,-0.002 h -1.089844 c -2.720071,0 -4.910156,2.19009 -4.910156,4.91016 v 1.17969 c 0,2.72006 2.190085,4.91015 4.910156,4.91015 h 0.08984 v -2.99023 -0.01 -0.01 c 0,-0.10352 0.0054,-0.20588 0.01563,-0.30664 0.01012,-0.10074 0.02507,-0.19939 0.04492,-0.29688 0.01986,-0.0975 0.04518,-0.19337 0.07422,-0.28711 0.02904,-0.0937 0.06189,-0.1859 0.09961,-0.27539 0.03774,-0.0895 0.07907,-0.17697 0.125,-0.26172 0.04594,-0.0848 0.09676,-0.16658 0.15039,-0.24609 0.05364,-0.0795 0.111026,-0.15668 0.171875,-0.23047 0.06085,-0.0738 0.123846,-0.14533 0.191406,-0.21289 0.06757,-0.0676 0.139098,-0.13056 0.212891,-0.19141 0.07379,-0.0609 0.150951,-0.11824 0.230469,-0.17187 0.07952,-0.0536 0.161342,-0.10446 0.246094,-0.15039 0.08476,-0.0459 0.172231,-0.0873 0.261718,-0.125 0.0895,-0.0377 0.18165,-0.0706 0.275391,-0.0996 0.09373,-0.029 0.189616,-0.0544 0.287109,-0.0742 0.09749,-0.0199 0.196124,-0.0347 0.296875,-0.0449 0.100745,-0.0101 0.203125,-0.0156 0.306641,-0.0156 h 3.009766 1.009765 1.990235 c 1.107989,0 2,-0.89201 2,-2 v -1 -4 c 0,-0.0952 -0.004,-0.18948 -0.0098,-0.2832 v 0.28516 c 0,-2.216 -1.784008,-4 -4,-4 z m 0.5,1 c 0.830997,0 1.5,0.669 1.5,1.5 0,0.831 -0.669003,1.5 -1.5,1.5 -0.830996,0 -1.5,-0.669 -1.5,-1.5 0,-0.831 0.669004,-1.5 1.5,-1.5 z" /><g
           id="path5320-7-0"
           transform="matrix(-1.4666667,0,0,-1.4666667,134.49202,310.0848)"
           style="fill:#f7b656;fill-opacity:1;stroke:#f7b656;stroke-opacity:1"><path
             id="path9356-62"
             style="color:#000000;fill:#f7b656;fill-opacity:1;stroke:#f7b656;stroke-width:1.36364;stroke-linecap:round;stroke-linejoin:round;stroke-miterlimit:1.8;stroke-opacity:1;paint-order:stroke fill markers"
             d="m 54.880949,4.3873613 c -1.510905,0 -2.727272,1.2163667 -2.727272,2.7272727 v 0.6818182 h 0.681818 v -0.00133 h 3.414417 V 7.114634 h 0.0013 v 1.3623047 l -2.733931,0.00133 -0.67516,-0.00133 h -0.743075 c -1.854596,0 -3.347834,1.4932402 -3.347834,3.3478333 v 0.804333 c 0,1.854595 1.493238,3.347833 3.347834,3.347833 h 0.06126 v -2.038796 -0.0067 -0.0067 c 0,-0.07058 0.0037,-0.140379 0.01065,-0.209074 0.0069,-0.06869 0.01709,-0.135942 0.03063,-0.202414 0.01354,-0.06647 0.0308,-0.131843 0.0506,-0.195757 0.0198,-0.06391 0.04219,-0.126748 0.06791,-0.187766 0.02573,-0.06102 0.05391,-0.120659 0.08523,-0.178445 0.03132,-0.05779 0.06597,-0.113574 0.102539,-0.167791 0.03657,-0.05422 0.0757,-0.106827 0.117188,-0.157138 0.04149,-0.05031 0.08444,-0.09909 0.130504,-0.145152 0.04607,-0.04607 0.09484,-0.08902 0.145153,-0.130505 0.05031,-0.04149 0.102921,-0.08062 0.157138,-0.117187 0.05422,-0.03657 0.110005,-0.07122 0.167791,-0.102539 0.05779,-0.03132 0.11743,-0.0595 0.178444,-0.08523 0.06102,-0.02573 0.123853,-0.04811 0.187767,-0.06792 0.06391,-0.0198 0.129284,-0.03707 0.195756,-0.0506 0.06647,-0.01354 0.133721,-0.02369 0.202415,-0.03063 0.06869,-0.0069 0.138494,-0.01065 0.209073,-0.01065 h 2.052113 0.688477 1.356978 c 0.755448,0 1.363636,-0.608188 1.363636,-1.363636 V 9.840575 7.1133023 c 0,-0.064921 -0.0027,-0.1291962 -0.0067,-0.193093 V 7.114634 c 0,-1.510906 -1.216368,-2.7272727 -2.727273,-2.7272727 z"
             sodipodi:nodetypes="sscccccccccsssscccscssssssssssssscsccsscsccss" /></g><path
           id="path9356-6-6"
           style="color:#000000;fill:#ffeba0;fill-opacity:1;stroke:none;stroke-width:2.00001;stroke-linecap:round;stroke-linejoin:round;stroke-miterlimit:1.8;stroke-opacity:1;paint-order:stroke fill markers"
           d="m 57.990244,286.65196 v 2.99023 0.01 0.01 c 0,0.10352 -0.0054,0.20588 -0.01563,0.30664 -0.01012,0.10074 -0.02507,0.19939 -0.04492,0.29688 -0.01986,0.0975 -0.04518,0.19337 -0.07422,0.28711 -0.02904,0.0937 -0.06189,0.1859 -0.09961,0.27539 -0.03774,0.0895 -0.07907,0.17697 -0.125,0.26172 -0.04594,0.0848 -0.09676,0.16658 -0.150391,0.24609 -0.05364,0.0795 -0.111026,0.15668 -0.171875,0.23047 -0.06085,0.0738 -0.123845,0.14533 -0.191406,0.21289 -0.06757,0.0676 -0.139098,0.13056 -0.212891,0.19141 -0.07379,0.0609 -0.15095,0.11824 -0.230468,0.17187 -0.07952,0.0536 -0.161342,0.10446 -0.246094,0.15039 -0.08476,0.0459 -0.172232,0.0873 -0.261719,0.125 -0.0895,0.0377 -0.181649,0.0706 -0.27539,0.0996 -0.09373,0.029 -0.189617,0.0544 -0.28711,0.0742 -0.09749,0.0199 -0.196124,0.0347 -0.296875,0.0449 -0.100745,0.0101 -0.203124,0.0156 -0.30664,0.0156 h -3.009766 -1.009766 -1.990234 c -1.107989,0 -2,0.89201 -2,2 v 1 4 c 0,0.0952 0.004,0.18948 0.0098,0.2832 V 299.65 c 0,2.216 1.784008,4 4,4 h 3 c 2.215991,0 4,-1.784 4,-4 v -1 h -1 v 0.002 h -5.007842 v 0.998 h -0.002 v -1.99804 l 4.009766,-0.002 0.990234,0.002 h 1.089844 c 2.720071,0 4.910156,-2.19009 4.910156,-4.91016 v -1.17969 c 0,-2.72006 -2.190085,-4.91015 -4.910156,-4.91015 z m -4.5,13 c 0.830997,0 1.5,0.669 1.5,1.5 0,0.831 -0.669003,1.5 -1.5,1.5 -0.830996,0 -1.5,-0.669 -1.5,-1.5 0,-0.831 0.669004,-1.5 1.5,-1.5 z" /></g></g></g></svg>
