<?xml version="1.0" encoding="UTF-8" standalone="no"?>
<!-- Created with Inkscape (http://www.inkscape.org/) -->

<svg
   width="48"
   height="48"
   viewBox="0 0 48 48"
   version="1.1"
   id="svg8"
   inkscape:version="1.2.1 (9c6d41e410, 2022-07-14)"
   sodipodi:docname="virtualbox-vbox-extpack.svg"
   xmlns:inkscape="http://www.inkscape.org/namespaces/inkscape"
   xmlns:sodipodi="http://sodipodi.sourceforge.net/DTD/sodipodi-0.dtd"
   xmlns="http://www.w3.org/2000/svg"
   xmlns:svg="http://www.w3.org/2000/svg"
   xmlns:rdf="http://www.w3.org/1999/02/22-rdf-syntax-ns#"
   xmlns:cc="http://creativecommons.org/ns#"
   xmlns:dc="http://purl.org/dc/elements/1.1/">
  <title
     id="title7895">Antu icon Theme</title>
  <defs
     id="defs2">
    <style
       id="current-color-scheme"
       type="text/css">
      .ColorScheme-Text {
        color:#122036;
      }
      </style>
    <style
       id="current-color-scheme-2"
       type="text/css">
      .ColorScheme-Text {
        color:#122036;
      }
      </style>
    <style
       id="current-color-scheme-0"
       type="text/css">
      .ColorScheme-Text {
        color:#122036;
      }
      </style>
  </defs>
  <sodipodi:namedview
     id="base"
     pagecolor="#ffffff"
     bordercolor="#666666"
     borderopacity="1.0"
     inkscape:pageopacity="0.0"
     inkscape:pageshadow="2"
     inkscape:zoom="11.313709"
     inkscape:cx="24.085824"
     inkscape:cy="24.79293"
     inkscape:document-units="px"
     inkscape:current-layer="g2217"
     showgrid="true"
     units="px"
     inkscape:window-width="2160"
     inkscape:window-height="1335"
     inkscape:window-x="0"
     inkscape:window-y="0"
     inkscape:window-maximized="1"
     objecttolerance="10"
     gridtolerance="10"
     guidetolerance="10"
     inkscape:snap-bbox="true"
     inkscape:bbox-paths="true"
     inkscape:bbox-nodes="true"
     inkscape:snap-bbox-edge-midpoints="true"
     inkscape:snap-bbox-midpoints="true"
     inkscape:object-paths="true"
     inkscape:snap-intersection-paths="true"
     inkscape:showpageshadow="2"
     inkscape:pagecheckerboard="0"
     inkscape:deskcolor="#d1d1d1">
    <inkscape:grid
       type="xygrid"
       id="grid7897"
       empspacing="4" />
  </sodipodi:namedview>
  <metadata
     id="metadata5">
    <rdf:RDF>
      <cc:Work
         rdf:about="">
        <dc:format>image/svg+xml</dc:format>
        <dc:type
           rdf:resource="http://purl.org/dc/dcmitype/StillImage" />
        <dc:title>Antu icon Theme</dc:title>
      </cc:Work>
    </rdf:RDF>
  </metadata>
  <g
     inkscape:label="Capa 1"
     inkscape:groupmode="layer"
     id="layer1"
     transform="translate(0,-266.64999)">
    <g
       id="g2217"
       transform="translate(30.000001,16.999985)">
      <g
         id="g139262"
         transform="translate(-34.999999,-33.000005)">
        <path
           style="fill:#2fa76c;fill-opacity:1;stroke:none;stroke-width:6;stroke-linecap:square;stroke-linejoin:round;stroke-miterlimit:18;stroke-dasharray:none;stroke-dashoffset:0;stroke-opacity:1;paint-order:markers stroke fill"
           d="m 12.999999,284.65001 h 31.999997 c 1.662002,0 3,1.33798 3,3 v 38 c 0,1.66197 -1.337998,3 -3,3 H 12.999999 c -1.661998,0 -3,-1.33803 -3,-3 v -38 c 0,-1.66202 1.338002,-3 3,-3 z"
           id="rect6397-1-1"
           inkscape:connector-curvature="0" />
        <path
           style="fill:#90dfb3;fill-opacity:1;stroke:none;stroke-width:6;stroke-linecap:square;stroke-linejoin:round;stroke-miterlimit:18;stroke-dasharray:none;stroke-dashoffset:0;stroke-opacity:1;paint-order:markers stroke fill"
           d="m 12.999999,285.64999 h 31.999997 c 1.107999,0 2.000001,0.892 2.000001,2.00002 v 38 c 0,1.10798 -0.892002,1.99998 -2.000001,1.99998 H 12.999999 c -1.107999,0 -2.000001,-0.89201 -2.000001,-1.99998 v -38 c 0,-1.10802 0.892002,-2.00002 2.000001,-2.00002 z"
           id="rect6399-4-4"
           inkscape:connector-curvature="0"
           sodipodi:nodetypes="sssssssss" />
        <path
           id="rect128778"
           style="fill:#2fa76c;fill-opacity:1;stroke:none;stroke-width:2;stroke-linecap:round;stroke-linejoin:round;stroke-miterlimit:1.8;stroke-opacity:1;paint-order:stroke fill markers;stop-color:#000000"
           d="m 18.999989,295.65001 c -0.553997,0 -1,0.446 -1,1 v 10 10 c 0,0.55399 0.446003,1 1,1 H 38.99999 c 0.554,0 1,-0.44601 1,-1 v -10 -10 c 0,-0.554 -0.446,-1 -1,-1 z m 1,2 H 37.99999 v 8 h -2 a 1.0001,1.0001 0 0 0 -0.83203,0.44531 l -0.69922,1.04883 -1.49219,-6.71094 a 1.0001,1.0001 0 0 0 -0.92578,-0.78125 1.0001,1.0001 0 0 0 -1,0.68164 l -1.77148,5.31641 h -1.2793 a 1.0001,1.0001 0 0 0 -0.94922,0.68359 l -1.050781,3.15235 -2.050781,-6.15235 a 1.0001,1.0001 0 0 0 -1.898438,0 l -0.771484,2.31641 h -1.279297 z m 11.806641,6.74219 1.2168,5.4746 a 1.0001,1.0001 0 0 0 1.80859,0.3379 l 1.70312,-2.55469 h 1.46485 v 8 H 19.999989 v -8 h 2 a 1.0001,1.0001 0 0 0 0.949219,-0.68359 l 0.05078,-0.15235 2.050781,6.15235 a 1.0001,1.0001 0 0 0 1.898441,0 l 1.77148,-5.31641 h 1.2793 a 1.0001,1.0001 0 0 0 0.94922,-0.68359 z" />
      </g>
    </g>
  </g>
</svg>
