<?xml version="1.0" encoding="UTF-8" standalone="no"?>
<!-- Created with Inkscape (http://www.inkscape.org/) -->

<svg
   width="48"
   height="48"
   viewBox="0 0 48 48"
   version="1.1"
   id="svg8"
   inkscape:version="1.2.1 (9c6d41e410, 2022-07-14)"
   sodipodi:docname="x-mail-distribution-list.svg"
   xmlns:inkscape="http://www.inkscape.org/namespaces/inkscape"
   xmlns:sodipodi="http://sodipodi.sourceforge.net/DTD/sodipodi-0.dtd"
   xmlns="http://www.w3.org/2000/svg"
   xmlns:svg="http://www.w3.org/2000/svg"
   xmlns:rdf="http://www.w3.org/1999/02/22-rdf-syntax-ns#"
   xmlns:cc="http://creativecommons.org/ns#"
   xmlns:dc="http://purl.org/dc/elements/1.1/">
  <title
     id="title7895">Antu icon Theme</title>
  <defs
     id="defs2">
    <style
       id="current-color-scheme"
       type="text/css">
      .ColorScheme-Text {
        color:#122036;
      }
      </style>
    <style
       id="current-color-scheme-2"
       type="text/css">
      .ColorScheme-Text {
        color:#122036;
      }
      </style>
    <style
       id="current-color-scheme-0"
       type="text/css">
      .ColorScheme-Text {
        color:#122036;
      }
      </style>
  </defs>
  <sodipodi:namedview
     id="base"
     pagecolor="#ffffff"
     bordercolor="#666666"
     borderopacity="1.0"
     inkscape:pageopacity="0.0"
     inkscape:pageshadow="2"
     inkscape:zoom="11.313709"
     inkscape:cx="32.482716"
     inkscape:cy="11.004349"
     inkscape:document-units="px"
     inkscape:current-layer="g103194"
     showgrid="true"
     units="px"
     inkscape:window-width="1080"
     inkscape:window-height="1335"
     inkscape:window-x="0"
     inkscape:window-y="0"
     inkscape:window-maximized="0"
     objecttolerance="10"
     gridtolerance="10"
     guidetolerance="10"
     inkscape:snap-bbox="true"
     inkscape:bbox-paths="true"
     inkscape:bbox-nodes="true"
     inkscape:snap-bbox-edge-midpoints="true"
     inkscape:snap-bbox-midpoints="true"
     inkscape:object-paths="true"
     inkscape:snap-intersection-paths="true"
     inkscape:showpageshadow="2"
     inkscape:pagecheckerboard="0"
     inkscape:deskcolor="#d1d1d1">
    <inkscape:grid
       type="xygrid"
       id="grid7897"
       empspacing="4" />
  </sodipodi:namedview>
  <metadata
     id="metadata5">
    <rdf:RDF>
      <cc:Work
         rdf:about="">
        <dc:format>image/svg+xml</dc:format>
        <dc:type
           rdf:resource="http://purl.org/dc/dcmitype/StillImage" />
        <dc:title>Antu icon Theme</dc:title>
      </cc:Work>
    </rdf:RDF>
  </metadata>
  <g
     inkscape:label="Capa 1"
     inkscape:groupmode="layer"
     id="layer1"
     transform="translate(0,-266.64999)">
    <g
       id="g2217"
       transform="translate(30.000001,16.999985)">
      <g
         id="g103194"
         transform="translate(-29,-21.000005)">
        <path
           inkscape:connector-curvature="0"
           id="rect942"
           d="m 35.999994,274.65001 h 5.000009 c 0.553995,0 0.999995,0.44599 0.999995,1 v 8 c 0,0.55401 -0.446,1 -0.999995,1 h -5.000009 c -0.553998,0 -0.999996,-0.44599 -0.999996,-1 v -8 c 0,-0.55401 0.445998,-1 0.999996,-1 z"
           style="fill:#d72f4a;fill-opacity:0.980392;stroke:none;stroke-width:2;stroke-linecap:round;stroke-linejoin:round;stroke-miterlimit:4;stroke-dasharray:none;stroke-opacity:1"
           sodipodi:nodetypes="sssssssss" />
        <path
           inkscape:connector-curvature="0"
           id="rect944"
           d="m 35.999998,275.65001 h 5.000001 v 8 h -5.000001 z"
           style="fill:#fe7688;fill-opacity:1;stroke:none;stroke-width:2;stroke-linecap:round;stroke-linejoin:round;stroke-miterlimit:4;stroke-dasharray:none;stroke-opacity:1"
           sodipodi:nodetypes="ccccc" />
        <path
           inkscape:connector-curvature="0"
           id="rect942-5"
           d="m 35.999994,284.65 h 5.000009 c 0.553995,0 0.999995,0.44599 0.999995,0.99999 V 293.65 c 0,0.554 -0.446,0.99999 -0.999995,0.99999 h -5.000009 c -0.553998,0 -0.999996,-0.44599 -0.999996,-0.99999 v -8.00001 c 0,-0.55399 0.445998,-0.99999 0.999996,-0.99999 z"
           style="fill:#287bc2;fill-opacity:0.980392;stroke:none;stroke-width:2;stroke-linecap:round;stroke-linejoin:round;stroke-miterlimit:4;stroke-dasharray:none;stroke-opacity:1"
           sodipodi:nodetypes="sssssssss" />
        <path
           inkscape:connector-curvature="0"
           id="rect944-9"
           d="m 35.999998,285.64999 h 5.000001 V 293.65 h -5.000001 z"
           style="fill:#77bffe;fill-opacity:1;stroke:none;stroke-width:2;stroke-linecap:round;stroke-linejoin:round;stroke-miterlimit:4;stroke-dasharray:none;stroke-opacity:1"
           sodipodi:nodetypes="ccccc" />
        <path
           inkscape:connector-curvature="0"
           id="rect942-2"
           d="m 35.999994,294.64999 h 5.000009 c 0.553995,0 0.999995,0.44602 0.999995,1.00002 v 7.99998 c 0,0.554 -0.446,1.00002 -0.999995,1.00002 h -5.000009 c -0.553998,0 -0.999996,-0.44601 -0.999996,-1.00002 v -7.99998 c 0,-0.55399 0.445998,-1.00002 0.999996,-1.00002 z"
           style="fill:#60963f;fill-opacity:0.980392;stroke:none;stroke-width:2;stroke-linecap:round;stroke-linejoin:round;stroke-miterlimit:4;stroke-dasharray:none;stroke-opacity:1"
           sodipodi:nodetypes="sssssssss" />
        <path
           inkscape:connector-curvature="0"
           id="rect944-2"
           d="m 35.999998,295.65001 h 5.000001 v 7.99998 h -5.000001 z"
           style="fill:#9fd47e;fill-opacity:1;stroke:none;stroke-width:2;stroke-linecap:round;stroke-linejoin:round;stroke-miterlimit:4;stroke-dasharray:none;stroke-opacity:1"
           sodipodi:nodetypes="ccccc" />
        <path
           inkscape:connector-curvature="0"
           id="rect942-8"
           d="m 35.999994,304.65001 h 5.000009 c 0.553995,0 0.999995,0.44599 0.999995,1 v 8 c 0,0.55401 -0.446,1 -0.999995,1 h -5.000009 c -0.553998,0 -0.999996,-0.44599 -0.999996,-1 V 305.65 c 0,-0.554 0.445998,-0.99999 0.999996,-0.99999 z"
           style="fill:#f37d5c;fill-opacity:0.980392;stroke:none;stroke-width:2;stroke-linecap:round;stroke-linejoin:round;stroke-miterlimit:4;stroke-dasharray:none;stroke-opacity:1"
           sodipodi:nodetypes="sssssssss" />
        <path
           inkscape:connector-curvature="0"
           id="rect944-97"
           d="m 35.999998,305.65 h 5.000001 v 8.00001 h -5.000001 z"
           style="fill:#ffb6a2;fill-opacity:1;stroke:none;stroke-width:2;stroke-linecap:round;stroke-linejoin:round;stroke-miterlimit:4;stroke-dasharray:none;stroke-opacity:1"
           sodipodi:nodetypes="ccccc" />
        <path
           style="fill:#4972c5;fill-opacity:1;stroke:none;stroke-width:6;stroke-linecap:square;stroke-linejoin:round;stroke-miterlimit:18;stroke-dasharray:none;stroke-dashoffset:0;stroke-opacity:1;paint-order:markers stroke fill"
           d="m 6.999999,272.65001 28.999999,0 c 1.662002,0 3,1.33798 3,3 v 38 c 0,1.66197 -1.337998,3 -3,3 l -28.999999,0 c -1.661998,0 -3,-1.33803 -3,-3 v -38 c 0,-1.66202 1.338002,-3 3,-3 z"
           id="rect6397-1-8"
           inkscape:connector-curvature="0"
           sodipodi:nodetypes="sssssssss" />
        <path
           style="fill:#5ca5ff;fill-opacity:1;stroke:none;stroke-width:6;stroke-linecap:square;stroke-linejoin:round;stroke-miterlimit:18;stroke-dasharray:none;stroke-dashoffset:0;stroke-opacity:1;paint-order:markers stroke fill"
           d="m 6.999999,273.64999 28.999999,0 c 1.107999,0 2.000001,0.892 2.000001,2.00002 v 38 c 0,1.10798 -0.892002,1.99998 -2.000001,1.99998 l -28.999999,0 c -1.107999,0 -2.000001,-0.89201 -2.000001,-1.99998 v -38 c 0,-1.10802 0.892002,-2.00002 2.000001,-2.00002 z"
           id="rect6399-4-9"
           inkscape:connector-curvature="0"
           sodipodi:nodetypes="sssssssss" />
        <path
           inkscape:connector-curvature="0"
           style="fill:#e3f7ff;fill-opacity:1;stroke:none;stroke-width:1.84506;stroke-linecap:round;stroke-linejoin:round;stroke-miterlimit:4;stroke-dasharray:none;stroke-opacity:1"
           d="m 22,284.65 c -2.77,0 -5.000001,2.23 -5.000001,5.00001 0,2.76998 2.230001,4.99998 5.000001,4.99998 2.769998,0 4.999998,-2.23 4.999998,-4.99998 0,-2.77001 -2.23,-5 -4.999998,-5.00001 z m 0,12 c -4.418279,0 -8.000001,3.58171 -8.000001,8.00001 6.087028,1.34306 10.082101,1.32363 15.999999,0 0,-4.4183 -3.581722,-8 -7.999998,-8.00001 z"
           id="path906" />
      </g>
    </g>
  </g>
</svg>
