<?xml version="1.0" encoding="UTF-8" standalone="no"?>
<!-- Created with Inkscape (http://www.inkscape.org/) -->

<svg
   width="48"
   height="48"
   viewBox="0 0 48 48"
   version="1.1"
   id="svg8"
   inkscape:version="1.2.1 (9c6d41e410, 2022-07-14)"
   sodipodi:docname="x-media-podcast.svg"
   xmlns:inkscape="http://www.inkscape.org/namespaces/inkscape"
   xmlns:sodipodi="http://sodipodi.sourceforge.net/DTD/sodipodi-0.dtd"
   xmlns="http://www.w3.org/2000/svg"
   xmlns:svg="http://www.w3.org/2000/svg"
   xmlns:rdf="http://www.w3.org/1999/02/22-rdf-syntax-ns#"
   xmlns:cc="http://creativecommons.org/ns#"
   xmlns:dc="http://purl.org/dc/elements/1.1/">
  <title
     id="title7895">Antu icon Theme</title>
  <defs
     id="defs2">
    <style
       id="current-color-scheme"
       type="text/css">
      .ColorScheme-Text {
        color:#122036;
      }
      </style>
    <style
       id="current-color-scheme-2"
       type="text/css">
      .ColorScheme-Text {
        color:#122036;
      }
      </style>
    <style
       id="current-color-scheme-0"
       type="text/css">
      .ColorScheme-Text {
        color:#122036;
      }
      </style>
  </defs>
  <sodipodi:namedview
     id="base"
     pagecolor="#ffffff"
     bordercolor="#666666"
     borderopacity="1.0"
     inkscape:pageopacity="0.0"
     inkscape:pageshadow="2"
     inkscape:zoom="11.313709"
     inkscape:cx="24.085824"
     inkscape:cy="24.79293"
     inkscape:document-units="px"
     inkscape:current-layer="g2217"
     showgrid="true"
     units="px"
     inkscape:window-width="2160"
     inkscape:window-height="1335"
     inkscape:window-x="0"
     inkscape:window-y="0"
     inkscape:window-maximized="1"
     objecttolerance="10"
     gridtolerance="10"
     guidetolerance="10"
     inkscape:snap-bbox="true"
     inkscape:bbox-paths="true"
     inkscape:bbox-nodes="true"
     inkscape:snap-bbox-edge-midpoints="true"
     inkscape:snap-bbox-midpoints="true"
     inkscape:object-paths="true"
     inkscape:snap-intersection-paths="true"
     inkscape:showpageshadow="2"
     inkscape:pagecheckerboard="0"
     inkscape:deskcolor="#d1d1d1">
    <inkscape:grid
       type="xygrid"
       id="grid7897"
       empspacing="4" />
  </sodipodi:namedview>
  <metadata
     id="metadata5">
    <rdf:RDF>
      <cc:Work
         rdf:about="">
        <dc:format>image/svg+xml</dc:format>
        <dc:type
           rdf:resource="http://purl.org/dc/dcmitype/StillImage" />
        <dc:title>Antu icon Theme</dc:title>
      </cc:Work>
    </rdf:RDF>
  </metadata>
  <g
     inkscape:label="Capa 1"
     inkscape:groupmode="layer"
     id="layer1"
     transform="translate(0,-266.64999)">
    <g
       id="g2217"
       transform="translate(30.000001,16.999985)">
      <g
         id="g118036"
         transform="translate(3.0000015,11.99999)">
        <path
           style="fill:#6e7cd4;fill-opacity:1;stroke:none;stroke-width:6;stroke-linecap:square;stroke-linejoin:round;stroke-miterlimit:18;stroke-dasharray:none;stroke-dashoffset:0;stroke-opacity:1;paint-order:markers stroke fill"
           d="M -25.000001,239.65001 H 6.999996 c 1.662002,0 3,1.33799 3,3 v 38.00001 c 0,1.66197 -1.337998,3 -3,3 h -31.999997 c -1.661998,0 -3,-1.33803 -3,-3 v -38.00001 c 0,-1.66201 1.338002,-3 3,-3 z"
           id="rect6397-1-6"
           inkscape:connector-curvature="0" />
        <path
           style="fill:#93a0e6;fill-opacity:1;stroke:none;stroke-width:6;stroke-linecap:square;stroke-linejoin:round;stroke-miterlimit:18;stroke-dasharray:none;stroke-dashoffset:0;stroke-opacity:1;paint-order:markers stroke fill"
           d="M -25.000001,240.65002 H 6.999996 c 1.107999,0 2.000001,0.892 2.000001,2.00001 v 38.00001 c 0,1.10797 -0.892002,1.99998 -2.000001,1.99998 h -31.999997 c -1.107999,0 -2.000001,-0.89201 -2.000001,-1.99998 v -38.00001 c 0,-1.10801 0.892002,-2.00001 2.000001,-2.00001 z"
           id="rect6399-4-8"
           inkscape:connector-curvature="0"
           sodipodi:nodetypes="sssssssss" />
        <path
           style="fill:#f0f2fb;fill-opacity:1;stroke:none;stroke-width:4;stroke-linecap:round;stroke-linejoin:round;stroke-miterlimit:4;stroke-dasharray:none;stroke-opacity:1"
           d="m -9.000003,249.65 c -2.77,0 -5,2.23 -5,5.00001 h 3 v 1 h -3 v 1 h 3 v 1 h -3 v 1 h 3 v 1 h -3 c 0,2.76999 2.23,5 5,5 2.77,0 5,-2.23001 5,-5 h -3 v -1 h 3 v -1 h -3 v -1 h 3 v -1 h -3 v -1 h 3 c 0,-2.77001 -2.23,-5 -5,-5.00001 z m -13,6 c -0.554,0 -1,0.446 -1,1 0,0.554 0.446,1 1,1 0.554,0 1,-0.446 1,-1 0,-0.554 -0.446,-1 -1,-1 z m 26,0 c -0.554,0 -1,0.446 -1,1 0,0.554 0.446,1 1,1 0.554,0 1,-0.446 1,-1 0,-0.554 -0.446,-1 -1,-1 z m -26,4 c -0.554,0 -1,0.446 -1,1 0,0.554 0.446,1 1,1 0.554,0 1,-0.446 1,-1 0,-0.554 -0.446,-1 -1,-1 z m 26,0 c -0.554,0 -1,0.44601 -1,1 0,0.554 0.446,1 1,1 0.554,0 1,-0.446 1,-1 0,-0.55399 -0.446,-1 -1,-1 z m -22.798828,1e-5 c 0.488057,4.71325 4.095501,8.47783 8.798828,8.94921 v 5.05079 h 2 v -5.05079 c 4.703327,-0.47138 8.310771,-4.23596 8.798828,-8.94921 h -2 c -0.510148,3.93337 -3.722075,7 -7.798828,7 -4.076753,0 -7.28868,-3.06663 -7.798828,-7 z m -3.201172,3.99999 c -0.554,0 -1,0.446 -1,1 0,0.554 0.446,1 1,1 0.554,0 1,-0.446 1,-1 0,-0.554 -0.446,-1 -1,-1 z m 26,0 c -0.554,0 -1,0.446 -1,1 0,0.55399 0.446,1 1,1 0.554,0 1,-0.44601 1,-1 0,-0.554 -0.446,-1 -1,-1 z m -26,4 c -0.554,0 -1,0.446 -1,1 0,0.554 0.446,1 1,1 0.554,0 1,-0.446 1,-1 0,-0.554 -0.446,-1 -1,-1 z m 26,0 c -0.554,0 -1,0.446 -1,1 0,0.554 0.446,1 1,1 0.554,0 1,-0.446 1,-1 0,-0.554 -0.446,-1 -1,-1 z"
           id="rect918"
           inkscape:connector-curvature="0"
           sodipodi:nodetypes="sccccccccccccsccccccccccccssssssssssssssssssssscccccccsccssssssssssssssssssss" />
      </g>
    </g>
  </g>
</svg>
