<?xml version="1.0" encoding="UTF-8" standalone="no"?>
<!-- Created with Inkscape (http://www.inkscape.org/) -->

<svg
   width="32"
   height="32"
   viewBox="0 0 8.4666665 8.4666669"
   version="1.1"
   id="svg8"
   inkscape:version="1.2.2 (b0a8486541, 2022-12-01)"
   sodipodi:docname="application-exit.svg"
   xmlns:inkscape="http://www.inkscape.org/namespaces/inkscape"
   xmlns:sodipodi="http://sodipodi.sourceforge.net/DTD/sodipodi-0.dtd"
   xmlns="http://www.w3.org/2000/svg"
   xmlns:svg="http://www.w3.org/2000/svg"
   xmlns:rdf="http://www.w3.org/1999/02/22-rdf-syntax-ns#"
   xmlns:cc="http://creativecommons.org/ns#"
   xmlns:dc="http://purl.org/dc/elements/1.1/">
  <defs
     id="defs2" />
  <sodipodi:namedview
     id="base"
     pagecolor="#ffffff"
     bordercolor="#666666"
     borderopacity="1.0"
     inkscape:pageopacity="0.0"
     inkscape:pageshadow="2"
     inkscape:zoom="11.2"
     inkscape:cx="-2.9464286"
     inkscape:cy="21.071429"
     inkscape:document-units="px"
     inkscape:current-layer="layer1"
     showgrid="true"
     units="px"
     inkscape:showpageshadow="false"
     inkscape:snap-bbox="true"
     inkscape:bbox-paths="true"
     inkscape:bbox-nodes="true"
     inkscape:snap-bbox-edge-midpoints="true"
     inkscape:snap-bbox-midpoints="true"
     inkscape:object-paths="true"
     inkscape:snap-intersection-paths="true"
     inkscape:window-width="2560"
     inkscape:window-height="1353"
     inkscape:window-x="0"
     inkscape:window-y="0"
     inkscape:window-maximized="1"
     inkscape:pagecheckerboard="0"
     inkscape:deskcolor="#d1d1d1">
    <inkscape:grid
       type="xygrid"
       id="grid815" />
  </sodipodi:namedview>
  <metadata
     id="metadata5">
    <rdf:RDF>
      <cc:Work
         rdf:about="">
        <dc:format>image/svg+xml</dc:format>
        <dc:type
           rdf:resource="http://purl.org/dc/dcmitype/StillImage" />
        <dc:title />
      </cc:Work>
    </rdf:RDF>
  </metadata>
  <g
     inkscape:label="Capa 1"
     inkscape:groupmode="layer"
     id="layer1"
     transform="translate(0,-288.53333)">
    <g
       id="g24215"
       transform="translate(11.1125)">
      <g
         id="g1522"
         transform="translate(1.5875,-0.26458165)">
        <path
           inkscape:connector-curvature="0"
           style="fill:#c74343;fill-opacity:1;stroke:none;stroke-width:0.213783;stroke-linecap:round;stroke-linejoin:round;stroke-miterlimit:4;stroke-dasharray:none;stroke-opacity:1;paint-order:stroke markers fill"
           d="m -12.170834,289.32708 h 7.4083346 c 0.293158,0 0.529166,0.23601 0.529166,0.52917 v 6.35 c 0,0.29316 -0.236008,0.52916 -0.529166,0.52916 h -7.4083346 c -0.293158,0 -0.529166,-0.236 -0.529166,-0.52916 v -6.35 c 0,-0.29316 0.236008,-0.52917 0.529166,-0.52917 z"
           id="rect941-4-9" />
        <path
           inkscape:connector-curvature="0"
           style="fill:#f78f8f;fill-opacity:1;stroke:none;stroke-width:0.213783;stroke-linecap:round;stroke-linejoin:round;stroke-miterlimit:4;stroke-dasharray:none;stroke-opacity:1;paint-order:stroke markers fill"
           d="m -12.170833,289.59166 h 7.4083326 c 0.14658,0 0.264584,0.11801 0.264584,0.26459 v 6.35 c 0,0.14657 -0.118004,0.26458 -0.264584,0.26458 h -7.4083326 c -0.146579,0 -0.264583,-0.11801 -0.264583,-0.26458 v -6.35 c 0,-0.14658 0.118004,-0.26459 0.264583,-0.26459 z"
           id="rect943-3-2" />
        <path
           sodipodi:nodetypes="ssccccccccsss"
           inkscape:connector-curvature="0"
           id="rect866-8-0"
           d="m -12.170833,289.32708 c -0.293158,0 -0.529167,0.23601 -0.529167,0.52917 v 0.52916 0.26459 0.52916 h 0.529167 7.4083326 0.529167 v -0.52916 -0.26459 -0.52916 c 0,-0.29316 -0.236009,-0.52917 -0.529167,-0.52917 z"
           style="fill:#36404d;fill-opacity:1;stroke:none;stroke-width:0.213783;stroke-linecap:round;stroke-linejoin:round;stroke-miterlimit:4;stroke-dasharray:none;stroke-opacity:1;paint-order:stroke markers fill" />
        <path
           sodipodi:nodetypes="ssccccccccsss"
           inkscape:connector-curvature="0"
           id="rect868-6-5"
           d="m -12.170833,289.59166 c -0.146578,0 -0.264583,0.11801 -0.264583,0.26459 v 0.52916 0.26459 0.26458 h 0.264583 7.4083326 0.264584 v -0.26458 -0.26459 -0.52916 c 0,-0.14658 -0.118005,-0.26459 -0.264584,-0.26459 z"
           style="fill:#4b6477;fill-opacity:1;stroke:none;stroke-width:0.213783;stroke-linecap:round;stroke-linejoin:round;stroke-miterlimit:4;stroke-dasharray:none;stroke-opacity:1;paint-order:stroke markers fill" />
        <path
           id="rect4496-3-6-5"
           style="fill:#f1f1f1;fill-opacity:1;stroke:none;stroke-width:0.181462;stroke-linecap:round;stroke-linejoin:round;stroke-miterlimit:4;stroke-dasharray:none;stroke-opacity:1"
           d="m -8.4666664,291.97291 c -1.026052,0 -1.8520836,0.82602 -1.8520836,1.85209 0,1.02604 0.8260316,1.85208 1.8520836,1.85208 1.026052,0 1.852083,-0.82604 1.852083,-1.85208 0,-1.02607 -0.826031,-1.85209 -1.852083,-1.85209 z m -1.058334,1.5875 h 2.116667 v 0.52917 h -2.116667 z" />
      </g>
    </g>
  </g>
</svg>
