<?xml version="1.0" encoding="UTF-8" standalone="no"?>
<svg
   id="svg"
   width="32"
   height="32"
   version="1.1"
   viewBox="0 0 32 32"
   sodipodi:docname="configure.svg"
   inkscape:version="1.4 (e7c3feb100, 2024-10-09)"
   xmlns:inkscape="http://www.inkscape.org/namespaces/inkscape"
   xmlns:sodipodi="http://sodipodi.sourceforge.net/DTD/sodipodi-0.dtd"
   xmlns="http://www.w3.org/2000/svg"
   xmlns:svg="http://www.w3.org/2000/svg">
  <sodipodi:namedview
     id="namedview2"
     pagecolor="#ffffff"
     bordercolor="#000000"
     borderopacity="0.25"
     inkscape:showpageshadow="2"
     inkscape:pageopacity="0.0"
     inkscape:pagecheckerboard="0"
     inkscape:deskcolor="#d1d1d1"
     showgrid="true"
     inkscape:zoom="26.53125"
     inkscape:cx="16"
     inkscape:cy="6.9540636"
     inkscape:window-width="1890"
     inkscape:window-height="1048"
     inkscape:window-x="0"
     inkscape:window-y="0"
     inkscape:window-maximized="1"
     inkscape:current-layer="svg">
    <inkscape:grid
       id="grid2"
       units="px"
       originx="0"
       originy="0"
       spacingx="1"
       spacingy="1"
       empcolor="#0099e5"
       empopacity="0.30196078"
       color="#0099e5"
       opacity="0.14902"
       empspacing="5"
       enabled="true"
       visible="true" />
  </sodipodi:namedview>
  <defs
     id="defs1">
    <style
       id="current-color-scheme"
       type="text/css">.ColorScheme-Text { color:#565656; } .ColorScheme-Highlight { color:#5294e2; } .ColorScheme-ButtonBackground { color:#f5f5f5; }</style>
  </defs>
  <g
     id="configure"
     transform="matrix(1.1295642,0,0,1.1213192,-2.0930509,-1.942285)">
    <path
       id="rect870"
       style="opacity:1;fill:#fbfbfb;fill-rule:evenodd;stroke-width:2;stroke-linecap:round;stroke-linejoin:round;paint-order:stroke fill markers"
       d="m 16.013707,4.00018 c -0.924,0.011 -1.823978,0.1145469 -2.705078,0.3105469 -0.3844,0.086 -0.671143,0.4068281 -0.714843,0.7988281 l -0.208985,1.8789063 c -0.06,0.537 -0.37076,1.0141562 -0.83789,1.2851562 -0.46921,0.2750001 -1.038233,0.3078439 -1.533204,0.089844 L 8.2930036,7.6076019 c -0.35784,-0.158 -0.775838,-0.073109 -1.042968,0.2128906 -1.24334,1.331 -2.170025,2.9269685 -2.708985,4.6679685 -0.11629,0.376 0.017835,0.782625 0.333985,1.015625 l 1.527343,1.125 c 0.43559,0.321 0.691407,0.830094 0.691407,1.371094 0,0.54 -0.256387,1.049141 -0.691407,1.369141 l -1.527343,1.128906 c -0.31568,0.233 -0.449875,0.639625 -0.333985,1.015625 0.53802,1.742 1.463712,3.339875 2.707032,4.671875 0.266869,0.286 0.685068,0.371844 1.042968,0.214844 l 1.7285164,-0.759766 c 0.49258,-0.215 1.0587,-0.182109 1.52539,0.08789 0.46668,0.27 0.778944,0.743297 0.839844,1.279297 l 0.207032,1.876953 c 0.0428,0.388 0.322671,0.706875 0.701171,0.796875 1.7792,0.424 3.634863,0.424 5.414063,0 0.3785,-0.09 0.658272,-0.408875 0.701172,-0.796875 l 0.208984,-1.878907 c 0.0593,-0.536999 0.368838,-1.015156 0.835938,-1.285156 0.4671,-0.271 1.035097,-0.301937 1.529296,-0.08594 l 1.726563,0.759765 c 0.3578,0.157 0.776169,0.07116 1.042969,-0.214843 1.2427,-1.331 2.168231,-2.926969 2.707031,-4.667969 0.1162,-0.375 -0.01808,-0.781625 -0.333984,-1.015625 l -1.525391,-1.126953 c -0.436,-0.321 -0.693359,-0.830094 -0.693359,-1.371094 0,-0.541 0.256406,-1.049141 0.691406,-1.369141 l 1.525391,-1.126953 c 0.3158,-0.233 0.450184,-0.640625 0.333984,-1.015625 -0.5389,-1.741 -1.465584,-3.3360154 -2.708984,-4.6660154 -0.2671,-0.286 -0.685169,-0.3728437 -1.042969,-0.2148437 l -1.720703,0.7578125 c -0.2153,0.095 -0.444735,0.1425781 -0.677735,0.1425781 -0.8668,-10e-4 -1.594853,-0.6545781 -1.689453,-1.5175781 L 19.408239,5.109555 c -0.0436,-0.392 -0.330644,-0.7128281 -0.714844,-0.7988281 -0.88,-0.196 -1.778087,-0.3005469 -2.679688,-0.3105469 z m -0.01367,8 c 2.2091,0 4,1.791 4,4 0,2.209 -1.7909,4 -4,4 -2.2091,0 -4,-1.791 -4,-4 0,-2.209 1.7909,-4 4,-4 z" />
    <path
       style="fill:none"
       inkscape:connector-curvature="0"
       d="M 0,0 V 32 H 32 V 0 Z"
       id="path14-6" />
  </g>
  <path
     style="fill:#e1ebf2;stroke:#a9a9a9;stroke-width:0.0376914;stroke-opacity:0.34902"
     d="m 14.963486,29.413928 c -1.10097,-0.110136 -2.083945,-0.297871 -2.337416,-0.446415 -0.186206,-0.109124 -0.325132,-0.27302 -0.416225,-0.491036 -0.03733,-0.08934 -0.110436,-0.593648 -0.188211,-1.298325 -0.06995,-0.633731 -0.154333,-1.254006 -0.187527,-1.378388 -0.157614,-0.590579 -0.651708,-1.100583 -1.261228,-1.30184 -0.290468,-0.09591 -0.8274041,-0.108501 -1.0934915,-0.02564 -0.093286,0.02905 -0.667883,0.269652 -1.2768814,0.534673 -1.025707,0.446363 -1.1244728,0.481857 -1.3408041,0.481857 -0.2754399,0 -0.5418341,-0.103718 -0.7310188,-0.284616 C 5.9250907,25.007607 5.4415351,24.434097 5.1156256,24.000307 4.2953816,22.908552 3.6069172,21.601784 3.1634141,20.294833 3.0620351,19.99608 2.9964664,19.735183 2.9964664,19.630549 c 0,-0.208925 0.082325,-0.454733 0.2070763,-0.61829 C 3.2544304,18.945542 3.707808,18.590267 4.2110483,18.22276 4.7142885,17.855253 5.215879,17.467686 5.3256937,17.3615 5.682971,17.016027 5.8579748,16.656898 5.9156861,16.150766 5.9692183,15.681285 5.7529705,15.06137 5.4125019,14.708293 5.3171335,14.609393 4.8020734,14.209303 4.2679239,13.819204 3.7337743,13.429105 3.2549551,13.055146 3.2038812,12.988185 3.0788143,12.824214 2.9964664,12.578564 2.9964664,12.369451 c 0,-0.320898 0.4611635,-1.543761 0.9275875,-2.4596767 C 4.3913268,8.9921915 5.1429683,7.8980478 5.854061,7.1003157 6.2647268,6.6396148 6.4640023,6.5206125 6.8248055,6.5206125 c 0.2868613,0 0.3017863,0.00527 1.5265025,0.5394382 0.5478879,0.2389635 1.0724847,0.4555688 1.1657709,0.481346 0.4299489,0.118804 1.0438961,0.026237 1.4657761,-0.2210009 0.377868,-0.2214461 0.728464,-0.6771917 0.847218,-1.1013145 0.03192,-0.1140165 0.118323,-0.7415784 0.191998,-1.3945819 0.11659,-1.0333831 0.146381,-1.2127042 0.229833,-1.3834288 0.180479,-0.3692155 0.416055,-0.5007471 1.134958,-0.63369 C 14.408108,2.6185267 14.811784,2.5841233 16,2.5846753 c 1.181395,5.489e-4 1.541013,0.031773 2.583518,0.2243167 0.563523,0.104079 0.814381,0.2071369 0.979371,0.402347 0.206756,0.2446261 0.237849,0.3778363 0.377996,1.6194406 0.07332,0.6495494 0.159427,1.2742852 0.191351,1.3883017 0.169261,0.6045067 0.689267,1.120332 1.314172,1.3036076 0.263312,0.077225 0.747048,0.085347 0.998822,0.016769 0.09329,-0.025409 0.671446,-0.2650444 1.284799,-0.5325222 1.077852,-0.4700412 1.123979,-0.4863235 1.377759,-0.4863235 0.377886,0 0.57907,0.1102078 0.938353,0.5140263 1.185661,1.332633 2.030555,2.7332436 2.654576,4.4005865 0.317302,0.847813 0.333419,1.074992 0.103406,1.457615 -0.106145,0.176571 -0.247966,0.294244 -1.15748,0.960393 -0.834107,0.610919 -1.070741,0.803939 -1.211793,0.988449 -0.593858,0.776827 -0.504814,1.873828 0.205624,2.533235 0.08696,0.08072 0.556699,0.438052 1.043861,0.794081 1.044114,0.763063 1.036155,0.756231 1.156576,0.992832 0.195838,0.384782 0.168237,0.598061 -0.202432,1.564228 -0.39225,1.022421 -0.834065,1.869508 -1.447111,2.774531 -0.56461,0.833519 -1.288851,1.689078 -1.569444,1.854013 -0.159373,0.09368 -0.2173,0.10594 -0.500605,0.10594 h -0.320377 l -1.017668,-0.44721 c -0.559717,-0.245965 -1.106251,-0.478108 -1.21452,-0.515873 -0.988313,-0.344731 -2.123123,0.237866 -2.42352,1.244203 -0.04239,0.141994 -0.130015,0.748376 -0.206623,1.429809 -0.139285,1.238942 -0.170584,1.374495 -0.372542,1.613411 -0.205032,0.242552 -0.705923,0.389253 -1.909749,0.559326 -0.411848,0.05819 -2.315461,0.107471 -2.692834,0.06972 z m 1.831564,-9.005702 c 1.56583,-0.255389 2.96201,-1.464362 3.479625,-3.013059 0.170569,-0.510341 0.221317,-0.907277 0.200056,-1.564778 -0.01514,-0.468247 -0.03864,-0.659037 -0.118381,-0.961131 -0.116446,-0.441154 -0.466196,-1.176492 -0.717088,-1.507656 -0.895519,-1.182039 -2.204835,-1.840956 -3.658108,-1.840956 -2.513035,0 -4.509148,1.982924 -4.509148,4.479354 0,2.13244 1.452028,3.912268 3.584458,4.393663 0.494885,0.11172 1.111248,0.116883 1.738586,0.01456 z"
     id="path1" />
</svg>
