<?xml version="1.0" encoding="UTF-8" standalone="no"?>
<svg
   height="32"
   viewBox="0 0 32 32"
   width="32"
   version="1.1"
   id="svg2"
   sodipodi:docname="go-down.svg"
   inkscape:version="1.4.2 (ebf0e940d0, 2025-05-08)"
   xmlns:inkscape="http://www.inkscape.org/namespaces/inkscape"
   xmlns:sodipodi="http://sodipodi.sourceforge.net/DTD/sodipodi-0.dtd"
   xmlns="http://www.w3.org/2000/svg"
   xmlns:svg="http://www.w3.org/2000/svg">
  <sodipodi:namedview
     id="namedview2"
     pagecolor="#ffffff"
     bordercolor="#000000"
     borderopacity="0.25"
     inkscape:showpageshadow="2"
     inkscape:pageopacity="0.0"
     inkscape:pagecheckerboard="0"
     inkscape:deskcolor="#d1d1d1"
     showgrid="true"
     inkscape:zoom="31.576705"
     inkscape:cx="5.7479082"
     inkscape:cy="14.393522"
     inkscape:window-width="2560"
     inkscape:window-height="1344"
     inkscape:window-x="0"
     inkscape:window-y="0"
     inkscape:window-maximized="1"
     inkscape:current-layer="svg2">
    <inkscape:grid
       id="grid2"
       units="px"
       originx="0"
       originy="0"
       spacingx="1"
       spacingy="1"
       empcolor="#0099e5"
       empopacity="0.30196078"
       color="#0099e5"
       opacity="0.14902"
       empspacing="5"
       enabled="true"
       visible="true" />
  </sodipodi:namedview>
  <defs
     id="kuyenfoldercolor">
    <style
       type="text/css"
       id="current-color-scheme">
      .ColorScheme-Highlight {
        color:#03b2fe;
      }
      </style>
  </defs>
  <g
     stroke-linecap="round"
     stroke-linejoin="round"
     id="g2"
     transform="matrix(1.5594529,0,0,1.4717137,-1.1181566,0.57336046)">
    <path
       d="m 19.890625,7.546875 c 0.17037,0.334866 0.138685,0.736967 -0.08203,1.041016 l -8,11 c -0.399409,0.54875 -1.217779,0.54875 -1.617188,0 l -7.9999998,-11 C 1.7113062,7.926997 2.1831072,7.000443 3.0000012,7 h 4 V 2 c 5.5e-5,-0.552262 0.447738,-0.999945 1,-1 h 2.9999998 3 c 0.552262,5.5e-5 0.999945,0.447738 1,1 v 5 h 4 c 0.376086,3.32e-4 0.720191,0.211625 0.890624,0.546875 z"
       style="fill:currentColor"
       class="ColorScheme-Highlight"
       id="path1" />
    <path
       d="m 19.998047,7.943359 c 0.01291,0.226281 -0.05151,0.454501 -0.189453,0.644532 l -8,11 c -0.399409,0.548749 -1.217779,0.548749 -1.617188,0 l -7.9999998,-11 C 1.7113062,7.926997 2.1831062,7.000443 3.0000002,7 h 4 V 2 c 5.5e-5,-0.552261 0.447739,-0.999945 1,-1 H 11 14 c 0.552261,5.5e-5 0.999945,0.447739 1,1 v 5 h 4 c 0.376086,3.32e-4 0.720191,0.211625 0.890625,0.546875 0.06389,0.125575 0.09967,0.260716 0.107422,0.396484 z M 19,7.999999 h -5 v -6 H 11 8.0000002 v 6 h -5 l 7.9999998,11 z"
       fill-opacity="0.2"
       id="path2" />
  </g>
</svg>
