<?xml version="1.0" encoding="UTF-8" standalone="no"?>
<!-- Created with Inkscape (http://www.inkscape.org/) -->

<svg
   width="32"
   height="32"
   viewBox="0 0 8.4666665 8.4666669"
   version="1.1"
   id="svg8"
   inkscape:version="1.2.2 (b0a8486541, 2022-12-01)"
   sodipodi:docname="go-home.svg"
   xml:space="preserve"
   xmlns:inkscape="http://www.inkscape.org/namespaces/inkscape"
   xmlns:sodipodi="http://sodipodi.sourceforge.net/DTD/sodipodi-0.dtd"
   xmlns="http://www.w3.org/2000/svg"
   xmlns:svg="http://www.w3.org/2000/svg"
   xmlns:rdf="http://www.w3.org/1999/02/22-rdf-syntax-ns#"
   xmlns:cc="http://creativecommons.org/ns#"
   xmlns:dc="http://purl.org/dc/elements/1.1/"><defs
     id="defs2"><style
       type="text/css"
       id="current-color-scheme">
      .ColorScheme-Text {
        color:#122036;
      }
      </style><style
       type="text/css"
       id="current-color-scheme-7">
      .ColorScheme-Text {
        color:#122036;
      }
      </style></defs><sodipodi:namedview
     id="base"
     pagecolor="#ffffff"
     bordercolor="#666666"
     borderopacity="1.0"
     inkscape:pageopacity="0.0"
     inkscape:pageshadow="2"
     inkscape:zoom="22.4"
     inkscape:cx="17.03125"
     inkscape:cy="19.017857"
     inkscape:document-units="px"
     inkscape:current-layer="layer1"
     showgrid="true"
     units="px"
     inkscape:showpageshadow="false"
     inkscape:snap-bbox="true"
     inkscape:bbox-paths="true"
     inkscape:bbox-nodes="true"
     inkscape:snap-bbox-edge-midpoints="true"
     inkscape:snap-bbox-midpoints="true"
     inkscape:object-paths="true"
     inkscape:snap-intersection-paths="true"
     inkscape:window-width="2560"
     inkscape:window-height="1361"
     inkscape:window-x="0"
     inkscape:window-y="0"
     inkscape:window-maximized="1"
     inkscape:pagecheckerboard="0"
     inkscape:deskcolor="#d1d1d1"><inkscape:grid
       type="xygrid"
       id="grid815" /></sodipodi:namedview><metadata
     id="metadata5"><rdf:RDF><cc:Work
         rdf:about=""><dc:format>image/svg+xml</dc:format><dc:type
           rdf:resource="http://purl.org/dc/dcmitype/StillImage" /><dc:title /></cc:Work></rdf:RDF></metadata><g
     inkscape:label="Capa 1"
     inkscape:groupmode="layer"
     id="layer1"
     transform="translate(0,-288.53333)"><path
       style="fill:#b79f85;fill-opacity:1;stroke:none;stroke-width:0.529167;stroke-linecap:round;stroke-linejoin:round;stroke-miterlimit:4;stroke-dasharray:none;stroke-dashoffset:0;stroke-opacity:1"
       d="m 4.2333333,290.12083 v 0 l 0,0 c 0,0 3.1750001,2.11667 3.175,2.11666 v 3.96876 c 0,0.29316 -0.2360078,0.52917 -0.5291656,0.52917 H 1.587499 c -0.2931577,0 -0.5291656,-0.23601 -0.5291656,-0.52917 v -3.96876 z"
       id="rect1076"
       inkscape:connector-curvature="0"
       sodipodi:nodetypes="ccccsssscc" /><path
       style="fill:#f9ecde;fill-opacity:1;stroke:none;stroke-width:0.529167;stroke-linecap:round;stroke-linejoin:round;stroke-miterlimit:4;stroke-dasharray:none;stroke-dashoffset:0;stroke-opacity:1"
       d="m 1.3229167,292.2375 2.9104166,-2.11667 2.9104167,2.11667 v -1e-5 3.96876 c 0,0.14658 -0.1180037,0.26459 -0.2645823,0.26459 H 1.587499 c -0.1465786,0 -0.2645823,-0.11801 -0.2645823,-0.26459 v -3.96876 z"
       id="rect1078"
       inkscape:connector-curvature="0"
       sodipodi:nodetypes="ccccsssscc" /><path
       id="rect398"
       style="fill:#874720;stroke:none;stroke-width:0.529167;stroke-linecap:round;stroke-linejoin:round"
       d="m 3.175,293.03125 c -0.586316,0 -1.0583333,0.47201 -1.0583333,1.05833 v 0.79375 0.52917 1.05833 H 3.175 4.2333333 v -1.05833 -0.52917 -0.79375 c 0,-0.58632 -0.4720172,-1.05833 -1.0583333,-1.05833 z" /><rect
       style="fill:#b87441;fill-opacity:1;stroke:none;stroke-width:0.529167;stroke-linecap:round;stroke-linejoin:round"
       id="rect1023"
       width="1.5875001"
       height="3.4395759"
       x="2.3812499"
       y="293.29584"
       ry="0.79374999" /><path
       style="fill:#a3b7cc;fill-opacity:1;stroke:none;stroke-width:0.213783;stroke-linecap:round;stroke-linejoin:round;stroke-miterlimit:4;stroke-dasharray:none;stroke-opacity:1;paint-order:stroke markers fill"
       d="m 2.1166667,295.94166 c -0.1465791,0 -0.2645833,0.118 -0.2645833,0.26458 v 0.26459 0.26458 h 0.2645833 2.1166666 0.2645833 v -0.26458 -0.26459 c 0,-0.14658 -0.1180039,-0.26458 -0.2645833,-0.26458 z"
       id="rect938-2"
       inkscape:connector-curvature="0"
       sodipodi:nodetypes="ssccccccsss" /><path
       inkscape:connector-curvature="0"
       style="fill:#e8f6ff;fill-opacity:1;stroke:none;stroke-width:0.213783;stroke-linecap:round;stroke-linejoin:round;stroke-miterlimit:4;stroke-dasharray:none;stroke-opacity:1;paint-order:stroke markers fill"
       d="m 2.1166667,296.20624 h 2.1166666 v 0.26459 H 2.1166667 Z"
       id="rect945-0"
       sodipodi:nodetypes="ccccc" /><path
       style="fill:#4f92db;fill-opacity:1;stroke:none;stroke-width:0.529167;stroke-linecap:round;stroke-linejoin:round;stroke-miterlimit:4;stroke-dasharray:none;stroke-dashoffset:0;stroke-opacity:1"
       d="m 5.0270823,293.29583 1.3229187,0 c 0.1465787,0 0.2645823,0.118 0.2645823,0.26458 v 1.32292 c 0,0.14658 -0.1180036,0.26458 -0.2645823,0.26458 l -1.3229187,0 c -0.1465786,0 -0.2645823,-0.118 -0.2645823,-0.26458 v -1.32292 c 0,-0.14658 0.1180037,-0.26458 0.2645823,-0.26458 z"
       id="rect1372"
       inkscape:connector-curvature="0"
       sodipodi:nodetypes="sssssssss" /><path
       style="fill:#5ac0ff;fill-opacity:1;stroke:none;stroke-width:0.529167;stroke-linecap:round;stroke-linejoin:round;stroke-miterlimit:4;stroke-dasharray:none;stroke-dashoffset:0;stroke-opacity:1"
       d="m 5.0270834,293.56041 1.3229166,0 v 1.32292 l -1.3229166,0 z"
       id="rect1389"
       inkscape:connector-curvature="0"
       sodipodi:nodetypes="ccccc" /><rect
       style="fill:none;fill-opacity:1;stroke:none;stroke-width:1.05833;stroke-linecap:round;stroke-linejoin:round;stroke-dasharray:none;stroke-opacity:1"
       id="rect1949"
       width="1.0583333"
       height="2.3812499"
       x="5.8208332"
       y="289.32709"
       ry="0.52916664" /><rect
       style="fill:none;fill-opacity:1;stroke:none;stroke-width:1.05833;stroke-linecap:round;stroke-linejoin:round;stroke-dasharray:none;stroke-opacity:1"
       id="rect2003"
       width="1.3229166"
       height="2.6458333"
       x="5.8208332"
       y="289.32709"
       ry="0.52916664" /><rect
       style="fill:none;fill-opacity:1;stroke:none;stroke-width:1.05833;stroke-linecap:round;stroke-linejoin:round;stroke-dasharray:none;stroke-opacity:1"
       id="rect2019"
       width="1.3229166"
       height="2.6458333"
       x="5.8208332"
       y="289.32709"
       ry="0.52916664" /><path
       id="rect2073"
       style="fill:#521818;fill-opacity:1;stroke:none;stroke-width:1.05833;stroke-linecap:round;stroke-linejoin:round;stroke-dasharray:none;stroke-opacity:1"
       d="M 6.4652385 289.32708 C 6.1067679 289.3361 5.8208334 289.62782 5.8208334 289.98854 L 5.8208334 291.31146 C 5.8208334 291.6779 6.1158441 291.97291 6.4822917 291.97291 C 6.6996072 291.97291 6.8915359 291.8692 7.0119751 291.70833 L 7.14375 291.70833 L 7.14375 291.32851 C 7.1438932 291.32282 7.14375 291.31718 7.14375 291.31146 L 7.14375 290.38541 L 7.14375 289.98854 C 7.14375 289.62209 6.8487393 289.32708 6.4822917 289.32708 C 6.4765659 289.32708 6.4709285 289.32694 6.4652385 289.32708 z " /><rect
       style="fill:#782121;fill-opacity:1;stroke:none;stroke-width:0.529167;stroke-linecap:round;stroke-linejoin:round;stroke-dasharray:none;stroke-opacity:1"
       id="rect3507"
       width="0.79374999"
       height="2.1166666"
       x="6.0854168"
       y="289.59167"
       ry="0.39687499" /><path
       style="color:#000000;fill:#521818;stroke-linecap:round;stroke-linejoin:round;-inkscape-stroke:none"
       d="m 3.875,289.20312 -3.43945312,3.17383 a 0.5291667,0.5291667 0 0 0 -0.03125,0.74805 0.5291667,0.5291667 0 0 0 0.74804682,0.0312 l 3.0800782,-2.84375 3.0820312,2.84375 A 0.5291667,0.5291667 0 0 0 8.0625,293.125 0.5291667,0.5291667 0 0 0 8.03125,292.37695 l -3.4394531,-3.17383 a 0.52921962,0.52921962 0 0 0 -0.7167969,0 z"
       id="path1787" /><path
       style="color:#000000;fill:#782121;stroke-linecap:round;stroke-linejoin:round;-inkscape-stroke:none"
       d="m 4.0546875,289.39648 -3.43945313,3.17579 a 0.26458335,0.26458335 0 0 0 -0.015625,0.37304 0.26458335,0.26458335 0 0 0 0.37304688,0.0156 l 3.25976565,-3.00977 3.2617187,3.00977 a 0.26458335,0.26458335 0 0 0 0.3730469,-0.0156 0.26458335,0.26458335 0 0 0 -0.015625,-0.37304 l -3.4394531,-3.17579 a 0.26460981,0.26460981 0 0 0 -0.3574219,0 z"
       id="path466" /></g></svg>
