<?xml version="1.0" encoding="UTF-8" standalone="no"?>
<svg
   height="32"
   viewBox="0 0 32 32"
   width="32"
   version="1.1"
   id="svg2"
   sodipodi:docname="go-next.svg"
   inkscape:version="1.4.2 (ebf0e940d0, 2025-05-08)"
   xmlns:inkscape="http://www.inkscape.org/namespaces/inkscape"
   xmlns:sodipodi="http://sodipodi.sourceforge.net/DTD/sodipodi-0.dtd"
   xmlns="http://www.w3.org/2000/svg"
   xmlns:svg="http://www.w3.org/2000/svg">
  <sodipodi:namedview
     id="namedview2"
     pagecolor="#ffffff"
     bordercolor="#000000"
     borderopacity="0.25"
     inkscape:showpageshadow="2"
     inkscape:pageopacity="0.0"
     inkscape:pagecheckerboard="0"
     inkscape:deskcolor="#d1d1d1"
     showgrid="true"
     inkscape:zoom="29.350142"
     inkscape:cx="4.2759589"
     inkscape:cy="13.066376"
     inkscape:window-width="2560"
     inkscape:window-height="1344"
     inkscape:window-x="0"
     inkscape:window-y="0"
     inkscape:window-maximized="1"
     inkscape:current-layer="svg2">
    <inkscape:grid
       id="grid2"
       units="px"
       originx="0"
       originy="0"
       spacingx="1"
       spacingy="1"
       empcolor="#0099e5"
       empopacity="0.30196078"
       color="#0099e5"
       opacity="0.14902"
       empspacing="5"
       enabled="true"
       visible="true" />
  </sodipodi:namedview>
  <defs
     id="kuyenfoldercolor">
    <style
       type="text/css"
       id="current-color-scheme">
      .ColorScheme-Highlight {
        color:#03b2fe;
      }
      </style>
  </defs>
  <g
     stroke-linecap="round"
     stroke-linejoin="round"
     id="g2"
     transform="matrix(1.4752199,0,0,1.55079,0.51285032,-1.0676927)">
    <path
       d="M 7.546875,2.109375 C 7.881741,1.939005 8.283842,1.97069 8.587891,2.191405 l 10.999999,8 c 0.54875,0.399409 0.54875,1.217779 0,1.617188 l -10.999999,8 C 7.926997,20.288694 7.000443,19.816893 7,18.999999 v -4 H 2 c -0.552262,-5.5e-5 -0.999945,-0.447738 -1,-1 v -3 -3 c 5.5e-5,-0.552262 0.447738,-0.999945 1,-1 h 5 v -4 C 7.000332,2.623913 7.211625,2.279808 7.546875,2.109375 Z"
       style="fill:currentColor"
       class="ColorScheme-Highlight"
       id="path1" />
    <path
       d="M 7.943359,2.001953 C 8.16964,1.989043 8.39786,2.053463 8.587891,2.191406 l 10.999999,8 c 0.548749,0.399409 0.548749,1.217779 0,1.617188 l -10.999999,8 C 7.926997,20.288694 7.000443,19.816894 7,19 V 15 H 2 C 1.447739,14.999945 1.000055,14.552261 1,14 V 11 8 C 1.000055,7.447739 1.447739,7.000055 2,7 H 7 V 3 C 7.000332,2.623914 7.211625,2.279809 7.546875,2.109375 7.67245,2.045485 7.807591,2.009705 7.943359,2.001953 Z M 7.999999,3 v 5 h -6 v 3 3 h 6 v 5 l 10.999999,-8 z"
       fill-opacity="0.2"
       id="path2" />
  </g>
</svg>
