<?xml version="1.0" encoding="UTF-8" standalone="no"?>
<svg
   height="32"
   viewBox="0 0 32 32"
   width="32"
   version="1.1"
   id="svg2"
   sodipodi:docname="go-previous.svg"
   inkscape:version="1.4.2 (ebf0e940d0, 2025-05-08)"
   xmlns:inkscape="http://www.inkscape.org/namespaces/inkscape"
   xmlns:sodipodi="http://sodipodi.sourceforge.net/DTD/sodipodi-0.dtd"
   xmlns="http://www.w3.org/2000/svg"
   xmlns:svg="http://www.w3.org/2000/svg">
  <sodipodi:namedview
     id="namedview2"
     pagecolor="#ffffff"
     bordercolor="#000000"
     borderopacity="0.25"
     inkscape:showpageshadow="2"
     inkscape:pageopacity="0.0"
     inkscape:pagecheckerboard="0"
     inkscape:deskcolor="#d1d1d1"
     showgrid="true"
     inkscape:zoom="36.02983"
     inkscape:cx="8.7566332"
     inkscape:cy="17.97122"
     inkscape:window-width="2560"
     inkscape:window-height="1344"
     inkscape:window-x="0"
     inkscape:window-y="0"
     inkscape:window-maximized="1"
     inkscape:current-layer="svg2">
    <inkscape:grid
       id="grid2"
       units="px"
       originx="0"
       originy="0"
       spacingx="1"
       spacingy="1"
       empcolor="#0099e5"
       empopacity="0.30196078"
       color="#0099e5"
       opacity="0.14902"
       empspacing="5"
       enabled="true"
       visible="true" />
  </sodipodi:namedview>
  <defs
     id="kuyenfoldercolor">
    <style
       type="text/css"
       id="current-color-scheme">
      .ColorScheme-Highlight {
        color:#03b2fe;
      }
      </style>
  </defs>
  <g
     stroke-linecap="round"
     stroke-linejoin="round"
     id="g2"
     transform="matrix(1.4718448,0,0,1.5550647,-0.94394754,-1.1103148)">
    <path
       d="M 14.453125,2.109375 C 14.118259,1.939005 13.716158,1.97069 13.412109,2.191405 l -11,8 c -0.54875,0.399409 -0.54875,1.217779 0,1.617188 l 11,8 c 0.660894,0.480101 1.587448,0.0083 1.587891,-0.808594 v -4 h 5 c 0.552262,-5.5e-5 0.999945,-0.447738 1,-1 v -3 -3 c -5.5e-5,-0.552262 -0.447738,-0.999945 -1,-1 h -5 v -4 C 14.999668,2.623913 14.788375,2.279808 14.453125,2.109375 Z"
       style="fill:currentColor"
       class="ColorScheme-Highlight"
       id="path1" />
    <path
       d="M 14.056641,2.001953 C 13.83036,1.989043 13.60214,2.053463 13.412109,2.191406 l -11,8 c -0.548749,0.399409 -0.548749,1.217779 0,1.617188 l 11,8 C 14.073003,20.288694 14.999557,19.816894 15,19 v -4 h 5 c 0.552261,-5.5e-5 0.999945,-0.447739 1,-1 V 11 8 C 20.999945,7.447739 20.552261,7.000055 20,7 H 15 V 3 C 14.999668,2.623914 14.788375,2.279809 14.453125,2.109375 14.32755,2.045485 14.192409,2.009705 14.056641,2.001953 Z M 14.000001,3 v 5 h 6 v 3 3 h -6 v 5 l -11,-8 z"
       fill-opacity="0.2"
       id="path2" />
  </g>
</svg>
