<?xml version="1.0" encoding="UTF-8" standalone="no"?>
<!-- Created with Inkscape (http://www.inkscape.org/) -->

<svg
   width="32"
   height="32"
   viewBox="0 0 8.4666665 8.4666669"
   version="1.1"
   id="svg8"
   inkscape:version="1.2.2 (b0a8486541, 2022-12-01)"
   sodipodi:docname="view-right-close.svg"
   xml:space="preserve"
   xmlns:inkscape="http://www.inkscape.org/namespaces/inkscape"
   xmlns:sodipodi="http://sodipodi.sourceforge.net/DTD/sodipodi-0.dtd"
   xmlns="http://www.w3.org/2000/svg"
   xmlns:svg="http://www.w3.org/2000/svg"
   xmlns:rdf="http://www.w3.org/1999/02/22-rdf-syntax-ns#"
   xmlns:cc="http://creativecommons.org/ns#"
   xmlns:dc="http://purl.org/dc/elements/1.1/"><defs
     id="defs2" /><sodipodi:namedview
     id="base"
     pagecolor="#ffffff"
     bordercolor="#666666"
     borderopacity="1.0"
     inkscape:pageopacity="0.0"
     inkscape:pageshadow="2"
     inkscape:zoom="15.839192"
     inkscape:cx="-5.555839"
     inkscape:cy="13.826463"
     inkscape:document-units="px"
     inkscape:current-layer="layer1"
     showgrid="true"
     units="px"
     inkscape:showpageshadow="false"
     inkscape:snap-bbox="true"
     inkscape:bbox-paths="true"
     inkscape:bbox-nodes="true"
     inkscape:snap-bbox-edge-midpoints="true"
     inkscape:snap-bbox-midpoints="true"
     inkscape:object-paths="true"
     inkscape:snap-intersection-paths="true"
     inkscape:window-width="2560"
     inkscape:window-height="1353"
     inkscape:window-x="0"
     inkscape:window-y="0"
     inkscape:window-maximized="1"
     inkscape:pagecheckerboard="0"
     inkscape:deskcolor="#d1d1d1"><inkscape:grid
       type="xygrid"
       id="grid815" /></sodipodi:namedview><metadata
     id="metadata5"><rdf:RDF><cc:Work
         rdf:about=""><dc:format>image/svg+xml</dc:format><dc:type
           rdf:resource="http://purl.org/dc/dcmitype/StillImage" /><dc:title /></cc:Work></rdf:RDF></metadata><g
     inkscape:label="Capa 1"
     inkscape:groupmode="layer"
     id="layer1"
     transform="translate(0,-288.53333)"><g
       id="g16429"
       transform="matrix(0.26458333,0,0,0.26458333,-6.6145832,215.86552)"><path
         inkscape:connector-curvature="0"
         id="rect1155-7-5"
         d="m 47,289.64999 v 3 h -3 v 3 h 3 v 3 h 3 v -3 h 3 v -3 h -3 v -3 z"
         style="fill:#008c52;fill-opacity:1;stroke:none;stroke-width:2;stroke-linecap:round;stroke-linejoin:round;stroke-miterlimit:4;stroke-dasharray:none;stroke-dashoffset:0;stroke-opacity:1" /><path
         style="fill:#90a4ae;fill-opacity:1;stroke:none;stroke-width:2;stroke-linecap:round;stroke-linejoin:round;stroke-miterlimit:4;stroke-dasharray:none;stroke-dashoffset:0;stroke-opacity:1"
         d="M 29.999996,295.64999 H 32 l 1,1 h 3.000004 c 0.553998,0 0.999996,0.446 0.999996,1 V 301.65 c 0,0.554 -0.445998,0.99999 -0.999996,0.99999 H 29.999996 C 29.445998,302.64999 29,302.204 29,301.65 v -5.00001 c 0,-0.554 0.445998,-1 0.999996,-1 z"
         id="rect1104-8-41-3-8"
         inkscape:connector-curvature="0"
         sodipodi:nodetypes="sccssssssss" /><path
         style="fill:#90a4ae;fill-opacity:1;stroke:none;stroke-width:2;stroke-linecap:round;stroke-linejoin:round;stroke-miterlimit:4;stroke-dasharray:none;stroke-dashoffset:0;stroke-opacity:1"
         d="M 29.999996,286.64998 H 32 l 1,1 h 3.000004 c 0.553998,0 0.999996,0.446 0.999996,1 v 4.00001 c 0,0.554 -0.445998,0.99999 -0.999996,0.99999 H 29.999996 C 29.445998,293.64998 29,293.20399 29,292.64999 v -5.00001 c 0,-0.554 0.445998,-1 0.999996,-1 z"
         id="rect1104-8-41-3"
         inkscape:connector-curvature="0"
         sodipodi:nodetypes="sccssssssss" /><path
         inkscape:connector-curvature="0"
         style="fill:#a3b7cc;fill-opacity:1;stroke:none;stroke-width:0.808;stroke-linecap:round;stroke-linejoin:round;stroke-miterlimit:4;stroke-dasharray:none;stroke-opacity:1;paint-order:stroke markers fill"
         d="m 26.999996,276.64999 h 28.000008 c 1.107998,0 1.999996,0.892 1.999996,2 V 302.65 c 0,1.108 -0.891998,1.99999 -1.999996,1.99999 H 26.999996 C 25.891998,304.64999 25,303.758 25,302.65 v -24.00001 c 0,-1.108 0.891998,-2 1.999996,-2 z"
         id="rect941" /><path
         inkscape:connector-curvature="0"
         style="fill:#f1f1f1;fill-opacity:1;stroke:none;stroke-width:0.808;stroke-linecap:round;stroke-linejoin:round;stroke-miterlimit:4;stroke-dasharray:none;stroke-opacity:1;paint-order:stroke markers fill"
         d="m 27,277.64999 h 28 c 0.554,0 1,0.446 1,1 v 24 c 0,0.554 -0.446,1 -1,1 H 27 c -0.554,0 -1,-0.446 -1,-1 v -24 c 0,-0.554 0.446,-1 1,-1 z"
         id="rect943" /><path
         id="rect941-5"
         style="fill:#c64646;fill-opacity:1;stroke:none;stroke-width:0.808;stroke-linecap:round;stroke-linejoin:round;stroke-miterlimit:4;stroke-dasharray:none;stroke-opacity:1;paint-order:stroke markers fill"
         d="m 42,276.64999 c -1.107997,0 -2,0.892 -2,2 v 24 2 h 2 13 c 1.107997,0 2,-0.892 2,-2 v -24 c 0,-1.108 -0.892003,-2 -2,-2 z"
         sodipodi:nodetypes="sscccsssss" /><path
         id="rect943-7"
         style="fill:#f68d8d;fill-opacity:1;stroke:none;stroke-width:0.808;stroke-linecap:round;stroke-linejoin:round;stroke-miterlimit:4;stroke-dasharray:none;stroke-opacity:1;paint-order:stroke markers fill"
         d="m 42,277.64999 c -0.553999,0 -1,0.446 -1,1 v 23 1 1 h 1 1 12 c 0.553999,0 1,-0.446 1,-1 v -24 c 0,-0.554 -0.446001,-1 -1,-1 z"
         sodipodi:nodetypes="sscccccsssss" /><path
         sodipodi:nodetypes="ssccccccccsss"
         inkscape:connector-curvature="0"
         id="rect866"
         d="m 27,276.64999 c -1.107998,0 -2,0.892 -2,2 v 2 1 2 h 2 28 2 v -2 -1 -2 c 0,-1.108 -0.892002,-2 -2,-2 z"
         style="fill:#36404d;fill-opacity:1;stroke:none;stroke-width:0.808;stroke-linecap:round;stroke-linejoin:round;stroke-miterlimit:4;stroke-dasharray:none;stroke-opacity:1;paint-order:stroke markers fill" /><path
         sodipodi:nodetypes="ssccccccccsss"
         inkscape:connector-curvature="0"
         id="rect868"
         d="m 27,277.64999 c -0.553998,0 -1,0.446 -1,1 v 2 1 1 h 1 28 1 v -1 -1 -2 c 0,-0.554 -0.446002,-1 -1,-1 z"
         style="fill:#4b6477;fill-opacity:1;stroke:none;stroke-width:0.808;stroke-linecap:round;stroke-linejoin:round;stroke-miterlimit:4;stroke-dasharray:none;stroke-opacity:1;paint-order:stroke markers fill" /><path
         style="fill:#36404d;fill-opacity:1;stroke:none;stroke-width:2;stroke-linecap:round;stroke-linejoin:round;stroke-miterlimit:4;stroke-dasharray:none;stroke-dashoffset:0;stroke-opacity:1"
         d="m 29.999992,285.64999 h 2.000004 l 1,1 H 36 c 0.553998,0 0.999996,0.446 0.999996,1 V 291.65 c 0,0.554 -0.445998,0.99999 -0.999996,0.99999 h -6.000008 c -0.553998,0 -0.999996,-0.44599 -0.999996,-0.99999 v -5.00001 c 0,-0.554 0.445998,-1 0.999996,-1 z"
         id="rect1104-8-41"
         inkscape:connector-curvature="0"
         sodipodi:nodetypes="sccssssssss" /><path
         style="fill:#4b6477;fill-opacity:1;stroke:none;stroke-width:2;stroke-linecap:round;stroke-linejoin:round;stroke-miterlimit:4;stroke-dasharray:none;stroke-dashoffset:0;stroke-opacity:1"
         d="m 29.999996,288.64999 h 2 l 1,-1 h 3 v 4 h -6 z"
         id="rect1122-8"
         inkscape:connector-curvature="0"
         sodipodi:nodetypes="ccccccc" /><path
         style="fill:#36404d;fill-opacity:1;stroke:none;stroke-width:2;stroke-linecap:round;stroke-linejoin:round;stroke-miterlimit:4;stroke-dasharray:none;stroke-dashoffset:0;stroke-opacity:1"
         d="M 29.999996,294.64999 H 32 l 1,1 h 3.000004 c 0.553998,0 0.999996,0.446 0.999996,1 V 300.65 c 0,0.554 -0.445998,0.99999 -0.999996,0.99999 H 29.999996 C 29.445998,301.64999 29,301.204 29,300.65 v -5.00001 c 0,-0.554 0.445998,-1 0.999996,-1 z"
         id="rect1104-8-2-5"
         inkscape:connector-curvature="0"
         sodipodi:nodetypes="sccssssssss" /><path
         style="fill:#4b6477;fill-opacity:1;stroke:none;stroke-width:2;stroke-linecap:round;stroke-linejoin:round;stroke-miterlimit:4;stroke-dasharray:none;stroke-dashoffset:0;stroke-opacity:1"
         d="m 30,297.64999 h 2 l 1,-1 h 3 v 4 h -6 z"
         id="rect1122-7-9"
         inkscape:connector-curvature="0"
         sodipodi:nodetypes="ccccccc" /><path
         inkscape:connector-curvature="0"
         id="rect1155-7"
         d="m 47.000002,291.65001 -2e-6,-2e-5 h -3 v 3 h 3 l 2e-6,2e-5 h 3 l -2e-6,-2e-5 h 3 v -3 h -3 l 2e-6,2e-5 z"
         style="fill:#c64646;fill-opacity:1;stroke:none;stroke-width:2;stroke-linecap:round;stroke-linejoin:round;stroke-miterlimit:4;stroke-dasharray:none;stroke-dashoffset:0;stroke-opacity:1"
         sodipodi:nodetypes="ccccccccccccc" /></g></g></svg>
