<?xml version="1.0" encoding="UTF-8" standalone="no"?>
<!-- Created with Inkscape (http://www.inkscape.org/) -->

<svg
   width="32"
   height="32"
   viewBox="0 0 8.4666665 8.4666669"
   version="1.1"
   id="svg8"
   inkscape:version="1.2.2 (b0a8486541, 2022-12-01)"
   sodipodi:docname="view-list-details.svg"
   xmlns:inkscape="http://www.inkscape.org/namespaces/inkscape"
   xmlns:sodipodi="http://sodipodi.sourceforge.net/DTD/sodipodi-0.dtd"
   xmlns="http://www.w3.org/2000/svg"
   xmlns:svg="http://www.w3.org/2000/svg"
   xmlns:rdf="http://www.w3.org/1999/02/22-rdf-syntax-ns#"
   xmlns:cc="http://creativecommons.org/ns#"
   xmlns:dc="http://purl.org/dc/elements/1.1/">
  <defs
     id="defs2" />
  <sodipodi:namedview
     id="base"
     pagecolor="#ffffff"
     bordercolor="#666666"
     borderopacity="1.0"
     inkscape:pageopacity="0.0"
     inkscape:pageshadow="2"
     inkscape:zoom="11.2"
     inkscape:cx="-13.169643"
     inkscape:cy="13.303571"
     inkscape:document-units="px"
     inkscape:current-layer="g10120"
     showgrid="true"
     units="px"
     inkscape:showpageshadow="false"
     inkscape:snap-bbox="true"
     inkscape:bbox-paths="true"
     inkscape:bbox-nodes="true"
     inkscape:snap-bbox-edge-midpoints="true"
     inkscape:snap-bbox-midpoints="true"
     inkscape:object-paths="true"
     inkscape:snap-intersection-paths="true"
     inkscape:window-width="2560"
     inkscape:window-height="1353"
     inkscape:window-x="0"
     inkscape:window-y="0"
     inkscape:window-maximized="1"
     inkscape:pagecheckerboard="0"
     inkscape:deskcolor="#d1d1d1">
    <inkscape:grid
       type="xygrid"
       id="grid815" />
  </sodipodi:namedview>
  <metadata
     id="metadata5">
    <rdf:RDF>
      <cc:Work
         rdf:about="">
        <dc:format>image/svg+xml</dc:format>
        <dc:type
           rdf:resource="http://purl.org/dc/dcmitype/StillImage" />
        <dc:title />
      </cc:Work>
    </rdf:RDF>
  </metadata>
  <g
     inkscape:label="Capa 1"
     inkscape:groupmode="layer"
     id="layer1"
     transform="translate(0,-288.53333)">
    <g
       id="g10120"
       transform="translate(3.4395833,0.79375835)">
      <g
         id="g60668"
         transform="translate(-12.7,-8.73125)">
        <path
           inkscape:connector-curvature="0"
           style="fill:#a3b7cc;fill-opacity:1;stroke:none;stroke-width:0.213783;stroke-linecap:round;stroke-linejoin:round;stroke-miterlimit:4;stroke-dasharray:none;stroke-opacity:1;paint-order:stroke markers fill"
           d="m 9.7895834,296.99999 h 7.4083336 c 0.293158,0 0.529166,0.23601 0.529166,0.52917 v 6.35 c 0,0.29316 -0.236008,0.52916 -0.529166,0.52916 H 9.7895834 c -0.2931583,0 -0.5291666,-0.236 -0.5291666,-0.52916 v -6.35 c 0,-0.29316 0.2360083,-0.52917 0.5291666,-0.52917 z"
           id="rect941-0-3-8" />
        <path
           inkscape:connector-curvature="0"
           style="fill:#f1f1f1;fill-opacity:1;stroke:none;stroke-width:0.213783;stroke-linecap:round;stroke-linejoin:round;stroke-miterlimit:4;stroke-dasharray:none;stroke-opacity:1;paint-order:stroke markers fill"
           d="m 9.7895834,297.26457 h 7.4083336 c 0.146579,0 0.264583,0.11801 0.264583,0.26459 v 6.35 c 0,0.14657 -0.118004,0.26458 -0.264583,0.26458 H 9.7895834 c -0.1465791,0 -0.2645833,-0.11801 -0.2645833,-0.26458 v -6.35 c 0,-0.14658 0.1180042,-0.26459 0.2645833,-0.26459 z"
           id="rect943-39-8-0" />
        <path
           sodipodi:nodetypes="ssccccccccsss"
           inkscape:connector-curvature="0"
           id="rect866-6-0-8"
           d="m 9.7895834,296.99999 c -0.2931583,0 -0.5291666,0.23601 -0.5291666,0.52917 v 0.52916 0.26459 0.52916 h 0.5291666 7.4083336 0.529166 v -0.52916 -0.26459 -0.52916 c 0,-0.29316 -0.236008,-0.52917 -0.529166,-0.52917 z"
           style="fill:#36404d;fill-opacity:1;stroke:none;stroke-width:0.213783;stroke-linecap:round;stroke-linejoin:round;stroke-miterlimit:4;stroke-dasharray:none;stroke-opacity:1;paint-order:stroke markers fill" />
        <path
           sodipodi:nodetypes="ssccccccccsss"
           inkscape:connector-curvature="0"
           id="rect868-9-4-1"
           d="m 9.7895834,297.26457 c -0.1465791,0 -0.2645833,0.11801 -0.2645833,0.26459 v 0.52916 0.26459 0.26458 H 9.7895834 17.197917 17.4625 v -0.26458 -0.26459 -0.52916 c 0,-0.14658 -0.118004,-0.26459 -0.264583,-0.26459 z"
           style="fill:#4b6477;fill-opacity:1;stroke:none;stroke-width:0.213783;stroke-linecap:round;stroke-linejoin:round;stroke-miterlimit:4;stroke-dasharray:none;stroke-opacity:1;paint-order:stroke markers fill" />
        <path
           sodipodi:nodetypes="sccssssssss"
           inkscape:connector-curvature="0"
           id="rect1104-8-25-9-6-2"
           d="m 11.377083,299.38124 h 0.529167 l 0.264583,0.26458 h 0.79375 c 0.14658,0 0.264584,0.11801 0.264584,0.26459 v 1.05833 c 0,0.14658 -0.118004,0.26458 -0.264584,0.26458 h -1.5875 c -0.146579,0 -0.264583,-0.118 -0.264583,-0.26458 v -1.32292 c 0,-0.14657 0.118004,-0.26458 0.264583,-0.26458 z"
           style="fill:#223240;fill-opacity:1;stroke:none;stroke-width:0.529167;stroke-linecap:round;stroke-linejoin:round;stroke-miterlimit:4;stroke-dasharray:none;stroke-dashoffset:0;stroke-opacity:1" />
        <path
           sodipodi:nodetypes="ccccccc"
           inkscape:connector-curvature="0"
           id="rect1122-4-8-2-9"
           d="m 11.377083,300.17499 h 0.529167 l 0.264583,-0.26458 h 0.79375 v 1.05833 h -1.5875 z"
           style="fill:#637d8a;fill-opacity:1;stroke:none;stroke-width:0.529167;stroke-linecap:round;stroke-linejoin:round;stroke-miterlimit:4;stroke-dasharray:none;stroke-dashoffset:0;stroke-opacity:1" />
        <path
           sodipodi:nodetypes="sccssssssss"
           inkscape:connector-curvature="0"
           id="rect1104-8-2-4-8-9-7"
           d="m 11.377083,301.76249 h 0.529167 l 0.264583,0.26458 h 0.793753 c 0.146579,0 0.264581,0.11801 0.264581,0.26459 v 1.05833 c 0,0.14658 -0.118002,0.26458 -0.264581,0.26458 h -1.587503 c -0.146579,0 -0.264583,-0.118 -0.264583,-0.26458 v -1.32292 c 0,-0.14657 0.118004,-0.26458 0.264583,-0.26458 z"
           style="fill:#0c63cc;fill-opacity:1;stroke:none;stroke-width:0.529167;stroke-linecap:round;stroke-linejoin:round;stroke-miterlimit:4;stroke-dasharray:none;stroke-dashoffset:0;stroke-opacity:1" />
        <path
           sodipodi:nodetypes="ccccccc"
           inkscape:connector-curvature="0"
           id="rect1122-7-3-2-9-5"
           d="m 11.377083,302.55624 h 0.529167 l 0.264583,-0.26458 h 0.79375 v 1.05833 h -1.5875 z"
           style="fill:#33acfa;fill-opacity:1;stroke:none;stroke-width:0.529167;stroke-linecap:round;stroke-linejoin:round;stroke-miterlimit:4;stroke-dasharray:none;stroke-dashoffset:0;stroke-opacity:1" />
        <path
           style="fill:#36404d;fill-opacity:1;stroke:none;stroke-width:0.529167;stroke-linecap:round;stroke-linejoin:round;stroke-miterlimit:4;stroke-dasharray:none;stroke-dashoffset:0;stroke-opacity:1"
           d="m 11.377083,299.38124 h 0.529167 l 0.264583,0.26458 h 0.79375 c 0.14658,0 0.264584,0.11801 0.264584,0.26459 v 1.05833 c 0,0.14658 -0.118004,0.26458 -0.264584,0.26458 h -1.5875 c -0.146579,0 -0.264583,-0.118 -0.264583,-0.26458 v -1.32292 c 0,-0.14658 0.118004,-0.26458 0.264583,-0.26458 z"
           id="rect1104-8-4-1-7"
           inkscape:connector-curvature="0"
           sodipodi:nodetypes="sccssssssss" />
        <path
           style="fill:#4b6477;fill-opacity:1;stroke:none;stroke-width:0.529167;stroke-linecap:round;stroke-linejoin:round;stroke-miterlimit:4;stroke-dasharray:none;stroke-dashoffset:0;stroke-opacity:1"
           d="m 11.377083,300.17499 h 0.529167 l 0.264583,-0.26458 h 0.79375 v 1.05833 h -1.5875 z"
           id="rect1122-95-7-0"
           inkscape:connector-curvature="0"
           sodipodi:nodetypes="ccccccc" />
        <path
           style="fill:#4f92db;fill-opacity:1;stroke:none;stroke-width:0.529167;stroke-linecap:round;stroke-linejoin:round;stroke-miterlimit:4;stroke-dasharray:none;stroke-dashoffset:0;stroke-opacity:1"
           d="m 11.377083,301.76249 h 0.529167 l 0.264583,0.26458 h 0.793753 c 0.146579,0 0.264581,0.11801 0.264581,0.26459 v 1.05833 c 0,0.14658 -0.118002,0.26458 -0.264581,0.26458 h -1.587503 c -0.146579,0 -0.264583,-0.118 -0.264583,-0.26458 v -1.32292 c 0,-0.14658 0.118004,-0.26458 0.264583,-0.26458 z"
           id="rect1104-8-2-04-4-6"
           inkscape:connector-curvature="0"
           sodipodi:nodetypes="sccssssssss" />
        <path
           style="fill:#5ac0ff;fill-opacity:1;stroke:none;stroke-width:0.529167;stroke-linecap:round;stroke-linejoin:round;stroke-miterlimit:4;stroke-dasharray:none;stroke-dashoffset:0;stroke-opacity:1"
           d="m 11.377083,302.55624 h 0.529167 l 0.264583,-0.26458 h 0.79375 v 1.05833 h -1.5875 z"
           id="rect1122-7-8-3-0"
           inkscape:connector-curvature="0"
           sodipodi:nodetypes="ccccccc" />
        <path
           style="fill:#36404d;fill-opacity:1;stroke:none;stroke-width:0.529167;stroke-linecap:round;stroke-linejoin:round;stroke-miterlimit:4;stroke-dasharray:none;stroke-dashoffset:0;stroke-opacity:1"
           d="M 13.758333,302.82082 H 15.875 c 0.146579,0 0.264583,0.11801 0.264583,0.26459 v 0.26458 c 0,0.14658 -0.118004,0.26458 -0.264583,0.26458 h -2.116667 c -0.146579,0 -0.264583,-0.118 -0.264583,-0.26458 v -0.26458 c 0,-0.14658 0.118004,-0.26459 0.264583,-0.26459 z"
           id="rect912-1-5"
           inkscape:connector-curvature="0" />
        <path
           style="fill:#4b6477;fill-opacity:1;stroke:none;stroke-width:0.529167;stroke-linecap:round;stroke-linejoin:round;stroke-miterlimit:4;stroke-dasharray:none;stroke-dashoffset:0;stroke-opacity:1"
           d="M 13.758333,303.08541 H 15.875 v 0.26458 h -2.116667 z"
           id="rect914-4-3"
           inkscape:connector-curvature="0" />
        <path
           style="fill:#4f92db;fill-opacity:1;stroke:none;stroke-width:0.529167;stroke-linecap:round;stroke-linejoin:round;stroke-miterlimit:4;stroke-dasharray:none;stroke-dashoffset:0;stroke-opacity:1"
           d="M 13.758333,300.43957 H 15.875 c 0.146579,0 0.264583,0.11801 0.264583,0.26459 v 0.26458 c 0,0.14658 -0.118004,0.26458 -0.264583,0.26458 h -2.116667 c -0.146579,0 -0.264583,-0.118 -0.264583,-0.26458 v -0.26458 c 0,-0.14658 0.118004,-0.26459 0.264583,-0.26459 z"
           id="rect912-3-69-9"
           inkscape:connector-curvature="0" />
        <path
           style="fill:#5ac0ff;fill-opacity:1;stroke:none;stroke-width:0.529167;stroke-linecap:round;stroke-linejoin:round;stroke-miterlimit:4;stroke-dasharray:none;stroke-dashoffset:0;stroke-opacity:1"
           d="M 13.758333,300.70416 H 15.875 v 0.26458 h -2.116667 z"
           id="rect914-5-4-4"
           inkscape:connector-curvature="0" />
        <path
           style="fill:#36404d;fill-opacity:1;stroke:none;stroke-width:0.529167;stroke-linecap:round;stroke-linejoin:round;stroke-miterlimit:4;stroke-dasharray:none;stroke-dashoffset:0;stroke-opacity:1"
           d="m 13.758333,301.76249 h 1.322917 c 0.146579,0 0.264583,0.118 0.264583,0.26458 v 0.26459 c 0,0.14657 -0.118004,0.26458 -0.264583,0.26458 h -1.322917 c -0.146579,0 -0.264583,-0.11801 -0.264583,-0.26458 v -0.26459 c 0,-0.14658 0.118004,-0.26458 0.264583,-0.26458 z"
           id="rect912-3-6-2-1"
           inkscape:connector-curvature="0" />
        <path
           style="fill:#4b6477;fill-opacity:1;stroke:none;stroke-width:0.529167;stroke-linecap:round;stroke-linejoin:round;stroke-miterlimit:4;stroke-dasharray:none;stroke-dashoffset:0;stroke-opacity:1"
           d="m 13.758333,302.02707 h 1.322917 v 0.26459 h -1.322917 z"
           id="rect914-5-2-2-5"
           inkscape:connector-curvature="0" />
        <path
           style="fill:#36404d;fill-opacity:1;stroke:none;stroke-width:0.529167;stroke-linecap:round;stroke-linejoin:round;stroke-miterlimit:4;stroke-dasharray:none;stroke-dashoffset:0;stroke-opacity:1"
           d="m 13.758333,299.38124 h 1.322917 c 0.146579,0 0.264583,0.118 0.264583,0.26458 v 0.26459 c 0,0.14657 -0.118004,0.26458 -0.264583,0.26458 h -1.322917 c -0.146579,0 -0.264583,-0.11801 -0.264583,-0.26458 v -0.26459 c 0,-0.14658 0.118004,-0.26458 0.264583,-0.26458 z"
           id="rect912-3-6-9-6-4"
           inkscape:connector-curvature="0" />
        <path
           style="fill:#4b6477;fill-opacity:1;stroke:none;stroke-width:0.529167;stroke-linecap:round;stroke-linejoin:round;stroke-miterlimit:4;stroke-dasharray:none;stroke-dashoffset:0;stroke-opacity:1"
           d="m 13.758333,299.64582 h 1.322917 v 0.26459 h -1.322917 z"
           id="rect914-5-2-1-4-1"
           inkscape:connector-curvature="0" />
      </g>
    </g>
  </g>
</svg>
