<?xml version="1.0" encoding="UTF-8" standalone="no"?>
<!-- Created with Inkscape (http://www.inkscape.org/) -->

<svg
   width="32"
   height="32"
   viewBox="0 0 8.4666665 8.4666669"
   version="1.1"
   id="svg8"
   inkscape:version="1.2.2 (b0a8486541, 2022-12-01)"
   sodipodi:docname="view-choose.svg"
   xmlns:inkscape="http://www.inkscape.org/namespaces/inkscape"
   xmlns:sodipodi="http://sodipodi.sourceforge.net/DTD/sodipodi-0.dtd"
   xmlns="http://www.w3.org/2000/svg"
   xmlns:svg="http://www.w3.org/2000/svg"
   xmlns:rdf="http://www.w3.org/1999/02/22-rdf-syntax-ns#"
   xmlns:cc="http://creativecommons.org/ns#"
   xmlns:dc="http://purl.org/dc/elements/1.1/">
  <defs
     id="defs2" />
  <sodipodi:namedview
     id="base"
     pagecolor="#ffffff"
     bordercolor="#666666"
     borderopacity="1.0"
     inkscape:pageopacity="0.0"
     inkscape:pageshadow="2"
     inkscape:zoom="11.2"
     inkscape:cx="-13.169643"
     inkscape:cy="13.303571"
     inkscape:document-units="px"
     inkscape:current-layer="layer1"
     showgrid="true"
     units="px"
     inkscape:showpageshadow="false"
     inkscape:snap-bbox="true"
     inkscape:bbox-paths="true"
     inkscape:bbox-nodes="true"
     inkscape:snap-bbox-edge-midpoints="true"
     inkscape:snap-bbox-midpoints="true"
     inkscape:object-paths="true"
     inkscape:snap-intersection-paths="true"
     inkscape:window-width="2560"
     inkscape:window-height="1353"
     inkscape:window-x="0"
     inkscape:window-y="0"
     inkscape:window-maximized="1"
     inkscape:pagecheckerboard="0"
     inkscape:deskcolor="#d1d1d1">
    <inkscape:grid
       type="xygrid"
       id="grid815" />
  </sodipodi:namedview>
  <metadata
     id="metadata5">
    <rdf:RDF>
      <cc:Work
         rdf:about="">
        <dc:format>image/svg+xml</dc:format>
        <dc:type
           rdf:resource="http://purl.org/dc/dcmitype/StillImage" />
        <dc:title />
      </cc:Work>
    </rdf:RDF>
  </metadata>
  <g
     inkscape:label="Capa 1"
     inkscape:groupmode="layer"
     id="layer1"
     transform="translate(0,-288.53333)">
    <g
       id="g61779"
       transform="translate(-15.345834,-10.054162)">
      <path
         inkscape:connector-curvature="0"
         style="fill:#a3b7cc;fill-opacity:1;stroke:none;stroke-width:0.213783;stroke-linecap:round;stroke-linejoin:round;stroke-miterlimit:4;stroke-dasharray:none;stroke-opacity:1;paint-order:stroke markers fill"
         d="m 15.875,299.11666 h 7.408333 c 0.293159,0 0.529167,0.23601 0.529167,0.52917 v 6.35 c 0,0.29316 -0.236008,0.52916 -0.529167,0.52916 H 15.875 c -0.293158,0 -0.529166,-0.236 -0.529166,-0.52916 v -6.35 c 0,-0.29316 0.236008,-0.52917 0.529166,-0.52917 z"
         id="rect941-0-1-6" />
      <path
         id="rect943-39-5-4"
         style="fill:#f1f1f1;fill-opacity:1;stroke:none;stroke-width:0.213783;stroke-linecap:round;stroke-linejoin:round;stroke-miterlimit:4;stroke-dasharray:none;stroke-opacity:1;paint-order:stroke markers fill"
         d="m 15.875,299.38124 c -0.146579,0 -0.264583,0.11801 -0.264583,0.26459 v 6.35 c 0,0.14657 0.118004,0.26458 0.264583,0.26458 h 2.910417 v -6.87917 z m 3.175,0 v 6.87917 h 4.233333 c 0.14658,0 0.264584,-0.11801 0.264584,-0.26458 v -6.35 c 0,-0.14658 -0.118004,-0.26459 -0.264584,-0.26459 z" />
      <path
         sodipodi:nodetypes="ssccccccccsss"
         inkscape:connector-curvature="0"
         id="rect866-6-9-6"
         d="m 15.875,299.11666 c -0.293158,0 -0.529166,0.23601 -0.529166,0.52917 v 0.52916 0.26459 0.52916 H 15.875 23.283333 23.8125 v -0.52916 -0.26459 -0.52916 c 0,-0.29316 -0.236008,-0.52917 -0.529167,-0.52917 z"
         style="fill:#36404d;fill-opacity:1;stroke:none;stroke-width:0.213783;stroke-linecap:round;stroke-linejoin:round;stroke-miterlimit:4;stroke-dasharray:none;stroke-opacity:1;paint-order:stroke markers fill" />
      <path
         sodipodi:nodetypes="ssccccccccsss"
         inkscape:connector-curvature="0"
         id="rect868-9-9-3"
         d="m 15.875,299.38124 c -0.146579,0 -0.264583,0.11801 -0.264583,0.26459 v 0.52916 0.26459 0.26458 h 0.264583 7.408333 0.264584 v -0.26458 -0.26459 -0.52916 c 0,-0.14658 -0.118004,-0.26459 -0.264584,-0.26459 z"
         style="fill:#4b6477;fill-opacity:1;stroke:none;stroke-width:0.213783;stroke-linecap:round;stroke-linejoin:round;stroke-miterlimit:4;stroke-dasharray:none;stroke-opacity:1;paint-order:stroke markers fill" />
      <path
         sodipodi:nodetypes="sccssssssss"
         inkscape:connector-curvature="0"
         id="rect1104-7-7-5-7"
         d="m 16.404167,301.49791 h 0.529167 l 0.264583,0.26458 h 0.79375 c 0.146579,0 0.264583,0.11801 0.264583,0.26459 v 1.05833 c 0,0.14658 -0.118004,0.26458 -0.264583,0.26458 h -1.5875 c -0.146579,0 -0.264583,-0.118 -0.264583,-0.26458 v -1.32292 c 0,-0.14658 0.118004,-0.26458 0.264583,-0.26458 z"
         style="fill:#4f92db;fill-opacity:1;stroke:none;stroke-width:0.529167;stroke-linecap:round;stroke-linejoin:round;stroke-miterlimit:4;stroke-dasharray:none;stroke-dashoffset:0;stroke-opacity:1" />
      <path
         sodipodi:nodetypes="ccccccc"
         inkscape:connector-curvature="0"
         id="rect1122-9-4-2-8-4"
         d="m 16.404167,302.29166 h 0.529167 l 0.264583,-0.26458 h 0.79375 v 1.05833 h -1.5875 z"
         style="fill:#5ac0ff;fill-opacity:1;stroke:none;stroke-width:0.529167;stroke-linecap:round;stroke-linejoin:round;stroke-miterlimit:4;stroke-dasharray:none;stroke-dashoffset:0;stroke-opacity:1" />
      <path
         sodipodi:nodetypes="sccssssssss"
         inkscape:connector-curvature="0"
         id="rect1104-8-6-0-9-4-9"
         d="m 16.404167,303.87916 h 0.529167 l 0.264583,0.26458 h 0.793752 c 0.14658,0 0.264581,0.11801 0.264581,0.26459 v 1.05833 c 0,0.14658 -0.118001,0.26458 -0.264581,0.26458 h -1.587502 c -0.146579,0 -0.264583,-0.118 -0.264583,-0.26458 v -1.32292 c 0,-0.14658 0.118004,-0.26458 0.264583,-0.26458 z"
         style="fill:#36404d;fill-opacity:1;stroke:none;stroke-width:0.529167;stroke-linecap:round;stroke-linejoin:round;stroke-miterlimit:4;stroke-dasharray:none;stroke-dashoffset:0;stroke-opacity:1" />
      <path
         sodipodi:nodetypes="ccccccc"
         inkscape:connector-curvature="0"
         id="rect1122-75-7-9-8-1"
         d="m 16.404167,304.67291 h 0.529167 l 0.264583,-0.26458 h 0.79375 v 1.05833 h -1.5875 z"
         style="fill:#4b6477;fill-opacity:1;stroke:none;stroke-width:0.529167;stroke-linecap:round;stroke-linejoin:round;stroke-miterlimit:4;stroke-dasharray:none;stroke-dashoffset:0;stroke-opacity:1" />
    </g>
  </g>
</svg>
