<?xml version="1.0" encoding="UTF-8" standalone="no"?>
<!-- Created with Inkscape (http://www.inkscape.org/) -->

<svg
   width="32"
   height="32"
   viewBox="0 0 8.4666665 8.4666669"
   version="1.1"
   id="svg8"
   inkscape:version="1.2.2 (b0a8486541, 2022-12-01)"
   sodipodi:docname="view-list-tree.svg"
   xmlns:inkscape="http://www.inkscape.org/namespaces/inkscape"
   xmlns:sodipodi="http://sodipodi.sourceforge.net/DTD/sodipodi-0.dtd"
   xmlns="http://www.w3.org/2000/svg"
   xmlns:svg="http://www.w3.org/2000/svg"
   xmlns:rdf="http://www.w3.org/1999/02/22-rdf-syntax-ns#"
   xmlns:cc="http://creativecommons.org/ns#"
   xmlns:dc="http://purl.org/dc/elements/1.1/">
  <defs
     id="defs2" />
  <sodipodi:namedview
     id="base"
     pagecolor="#ffffff"
     bordercolor="#666666"
     borderopacity="1.0"
     inkscape:pageopacity="0.0"
     inkscape:pageshadow="2"
     inkscape:zoom="11.2"
     inkscape:cx="-13.169643"
     inkscape:cy="13.303571"
     inkscape:document-units="px"
     inkscape:current-layer="g11617"
     showgrid="true"
     units="px"
     inkscape:showpageshadow="false"
     inkscape:snap-bbox="true"
     inkscape:bbox-paths="true"
     inkscape:bbox-nodes="true"
     inkscape:snap-bbox-edge-midpoints="true"
     inkscape:snap-bbox-midpoints="true"
     inkscape:object-paths="true"
     inkscape:snap-intersection-paths="true"
     inkscape:window-width="2560"
     inkscape:window-height="1353"
     inkscape:window-x="0"
     inkscape:window-y="0"
     inkscape:window-maximized="1"
     inkscape:pagecheckerboard="0"
     inkscape:deskcolor="#d1d1d1">
    <inkscape:grid
       type="xygrid"
       id="grid815" />
  </sodipodi:namedview>
  <metadata
     id="metadata5">
    <rdf:RDF>
      <cc:Work
         rdf:about="">
        <dc:format>image/svg+xml</dc:format>
        <dc:type
           rdf:resource="http://purl.org/dc/dcmitype/StillImage" />
        <dc:title />
      </cc:Work>
    </rdf:RDF>
  </metadata>
  <g
     inkscape:label="Capa 1"
     inkscape:groupmode="layer"
     id="layer1"
     transform="translate(0,-288.53333)">
    <g
       id="g11617"
       transform="translate(2.9104167,-0.79374165)">
      <g
         id="g58631"
         transform="translate(-10.054166,-4.7625)">
        <path
           inkscape:connector-curvature="0"
           style="fill:#a3b7cc;fill-opacity:1;stroke:none;stroke-width:0.213783;stroke-linecap:round;stroke-linejoin:round;stroke-miterlimit:4;stroke-dasharray:none;stroke-opacity:1;paint-order:stroke markers fill"
           d="M 7.6729164,294.61874 H 15.08125 c 0.293158,0 0.529166,0.23601 0.529166,0.52917 v 6.35 c 0,0.29316 -0.236008,0.52916 -0.529166,0.52916 H 7.6729164 c -0.2931583,0 -0.5291666,-0.236 -0.5291666,-0.52916 v -6.35 c 0,-0.29316 0.2360083,-0.52917 0.5291666,-0.52917 z"
           id="rect941-0-8-1" />
        <path
           inkscape:connector-curvature="0"
           style="fill:#f1f1f1;fill-opacity:1;stroke:none;stroke-width:0.213783;stroke-linecap:round;stroke-linejoin:round;stroke-miterlimit:4;stroke-dasharray:none;stroke-opacity:1;paint-order:stroke markers fill"
           d="M 7.6729164,294.88332 H 15.08125 c 0.146579,0 0.264583,0.11801 0.264583,0.26459 v 6.35 c 0,0.14657 -0.118004,0.26458 -0.264583,0.26458 H 7.6729164 c -0.1465791,0 -0.2645833,-0.11801 -0.2645833,-0.26458 v -6.35 c 0,-0.14658 0.1180042,-0.26459 0.2645833,-0.26459 z"
           id="rect943-39-3-9" />
        <path
           sodipodi:nodetypes="ssccccccccsss"
           inkscape:connector-curvature="0"
           id="rect866-6-8-6"
           d="m 7.6729164,294.61874 c -0.2931583,0 -0.5291666,0.23601 -0.5291666,0.52917 v 0.52916 0.26459 0.52916 h 0.5291666 7.4083336 0.529166 v -0.52916 -0.26459 -0.52916 c 0,-0.29316 -0.236008,-0.52917 -0.529166,-0.52917 z"
           style="fill:#36404d;fill-opacity:1;stroke:none;stroke-width:0.213783;stroke-linecap:round;stroke-linejoin:round;stroke-miterlimit:4;stroke-dasharray:none;stroke-opacity:1;paint-order:stroke markers fill" />
        <path
           sodipodi:nodetypes="ssccccccccsss"
           inkscape:connector-curvature="0"
           id="rect868-9-3-4"
           d="m 7.6729164,294.88332 c -0.1465791,0 -0.2645833,0.11801 -0.2645833,0.26459 v 0.52916 0.26459 0.26458 h 0.2645833 7.4083336 0.264583 v -0.26458 -0.26459 -0.52916 c 0,-0.14658 -0.118004,-0.26459 -0.264583,-0.26459 z"
           style="fill:#4b6477;fill-opacity:1;stroke:none;stroke-width:0.213783;stroke-linecap:round;stroke-linejoin:round;stroke-miterlimit:4;stroke-dasharray:none;stroke-opacity:1;paint-order:stroke markers fill" />
        <path
           style="fill:#36404d;fill-opacity:1;stroke:none;stroke-width:0.529167;stroke-linecap:round;stroke-linejoin:round;stroke-miterlimit:4;stroke-dasharray:none;stroke-dashoffset:0;stroke-opacity:1"
           d="m 9.7895831,298.32291 v 0.52916 0.26459 h 0.2645829 0.79375 v 1.32291 0.26459 h 1.322917 v -0.26459 H 11.1125 v -1.32291 h 1.852083 v -0.26459 h -2.910417 v -0.52916 z"
           id="rect892-6-5"
           inkscape:connector-curvature="0" />
        <path
           sodipodi:nodetypes="sccssssssss"
           inkscape:connector-curvature="0"
           id="rect1104-8-6-5-4"
           d="m 8.9958331,296.73541 h 0.5291666 l 0.2645834,0.26458 h 0.7937499 c 0.146579,0 0.264583,0.118 0.264583,0.26458 v 1.05834 c 0,0.14658 -0.118004,0.26458 -0.264583,0.26458 H 8.9958331 c -0.1465792,0 -0.2645833,-0.118 -0.2645833,-0.26458 v -1.32292 c 0,-0.14658 0.1180041,-0.26458 0.2645833,-0.26458 z"
           style="fill:#36404d;fill-opacity:1;stroke:none;stroke-width:0.529167;stroke-linecap:round;stroke-linejoin:round;stroke-miterlimit:4;stroke-dasharray:none;stroke-dashoffset:0;stroke-opacity:1" />
        <path
           sodipodi:nodetypes="ccccccc"
           inkscape:connector-curvature="0"
           id="rect1122-1-2-9"
           d="m 8.9958331,297.52916 h 0.5291666 l 0.2645834,-0.26459 h 0.7937499 v 1.05834 H 8.9958331 Z"
           style="fill:#4b6477;fill-opacity:1;stroke:none;stroke-width:0.529167;stroke-linecap:round;stroke-linejoin:round;stroke-miterlimit:4;stroke-dasharray:none;stroke-dashoffset:0;stroke-opacity:1" />
        <path
           sodipodi:nodetypes="sccssssssss"
           inkscape:connector-curvature="0"
           id="rect1104-6-8"
           d="M 12.170833,297.52916 H 12.7 l 0.264583,0.26458 h 0.79375 c 0.146579,0 0.264583,0.118 0.264583,0.26458 v 1.05834 c 0,0.14658 -0.118004,0.26458 -0.264583,0.26458 h -1.5875 c -0.146579,0 -0.264583,-0.118 -0.264583,-0.26458 v -1.32292 c 0,-0.14658 0.118004,-0.26458 0.264583,-0.26458 z"
           style="fill:#4f92db;fill-opacity:1;stroke:none;stroke-width:0.529167;stroke-linecap:round;stroke-linejoin:round;stroke-miterlimit:4;stroke-dasharray:none;stroke-dashoffset:0;stroke-opacity:1" />
        <path
           sodipodi:nodetypes="ccccccc"
           inkscape:connector-curvature="0"
           id="rect1122-9-5-3"
           d="M 12.170833,298.32291 H 12.7 l 0.264583,-0.26459 h 0.79375 v 1.05834 h -1.5875 z"
           style="fill:#5ac0ff;fill-opacity:1;stroke:none;stroke-width:0.529167;stroke-linecap:round;stroke-linejoin:round;stroke-miterlimit:4;stroke-dasharray:none;stroke-dashoffset:0;stroke-opacity:1" />
        <path
           sodipodi:nodetypes="sccssssssss"
           inkscape:connector-curvature="0"
           id="rect1104-8-2-0-8-8"
           d="M 12.170833,299.64582 H 12.7 l 0.264583,0.26459 h 0.79375 c 0.146579,0 0.264583,0.118 0.264583,0.26458 v 1.05833 c 0,0.14658 -0.118004,0.26459 -0.264583,0.26459 h -1.5875 c -0.146579,0 -0.264583,-0.11801 -0.264583,-0.26459 v -1.32291 c 0,-0.14658 0.118004,-0.26459 0.264583,-0.26459 z"
           style="fill:#4f92db;fill-opacity:1;stroke:none;stroke-width:0.529167;stroke-linecap:round;stroke-linejoin:round;stroke-miterlimit:4;stroke-dasharray:none;stroke-dashoffset:0;stroke-opacity:1" />
        <path
           sodipodi:nodetypes="ccccccc"
           inkscape:connector-curvature="0"
           id="rect1122-7-6-7-5"
           d="M 12.170833,300.43957 H 12.7 l 0.264583,-0.26458 h 0.79375 v 1.05833 h -1.5875 z"
           style="fill:#5ac0ff;fill-opacity:1;stroke:none;stroke-width:0.529167;stroke-linecap:round;stroke-linejoin:round;stroke-miterlimit:4;stroke-dasharray:none;stroke-dashoffset:0;stroke-opacity:1" />
      </g>
    </g>
  </g>
</svg>
