<svg height="32" viewBox="0 0 32 32" width="32" xmlns="http://www.w3.org/2000/svg"><g transform="translate(8 -288.024985)"><path d="m-2.9999991 289.02501h21.9999991c1.108 0 2 .89202 2 2.00001v26.00001c0 1.10797-.892 1.99998-2 1.99998h-21.9999991c-1.1080001 0-2.0000001-.89201-2.0000001-1.99998v-26c0-1.108.892-2.00001 2.0000001-2.00002z" fill="#6e7cd4"/><path d="m-2.9999992 290.02503h21.9999992c.554 0 1 .44599 1 1v26c0 .55401-.446 1-1 1h-21.9999992c-.554 0-1-.44599-1-1v-26c0-.554.446-1 1-1z" fill="#93a0e6"/><path d="m-5.999999 294.64999v-8l7.999999-3 4 2v11l-4 1-8-2h6.999995v-9l-3.999999 1v6z" fill="#eef5fe" transform="translate(8.000001 13.374995)"/></g></svg>