<svg height="32" viewBox="0 0 32 32" width="32" xmlns="http://www.w3.org/2000/svg"><g transform="translate(84 -286.64999)"><path d="m-68 287.64999v30h11c1.107999 0 2-.89203 2-2v-26c0-1.10799-.892001-2-2-2z" fill="#a3b7cc"/><path d="m-79 287.64999c-1.107999.00002-2 .892-2 2v26c0 1.10797.892001 2 2 2h11v-30z" fill="#1d86d9"/><path d="m-68 288.64999v28h11c.553999 0 1-.44599 1-1v-26c0-.55401-.446001-1-1-1z" fill="#fafafa"/><path d="m-79 288.64999c-.553999 0-1 .44601-1 1v26c0 .55401.446001 1 1 1h11v-28z" fill="#44acff"/><g fill="#8ed7fb" transform="matrix(3.7795277 0 0 3.7795277 -80.190752 -816.197976)"><path d="m3.2254697 297.61601v-1.05833h-1.0583333v1.05833z" fill="#359ef2"/><path d="m4.283803 297.61601h-1.0583333v1.05834h1.0583333z" fill="#dfe6ec"/><path d="m4.283803 296.55768v1.05833h1.0583333v-1.05833z" fill="#dfe6ec"/><path d="m4.283803 295.49935h-1.0583333v1.05833h1.0583333z" fill="#dfe6ec"/><path d="m4.283803 294.44101v1.05834h1.0583333v-1.05834z" fill="#dfe6ec"/><path d="m3.2254697 294.44101h1.0583333v-1.05833h-1.0583333z" fill="#dfe6ec"/><g fill="#359ef2"><path d="m2.1671364 295.49935h1.0583333v-1.05834h-1.0583333z"/><path d="m1.1088031 295.49935v-1.05834h-1.0583333v1.05834z"/><path d="m1.1088031 296.55768h1.0583333v-1.05833h-1.0583333z"/><path d="m1.1088031 297.61601v-1.05833h-1.0583333v1.05833z"/><path d="m1.1088031 298.67435h-1.0583333v.79375s-.00097491.26458.26458332.26458h.79374998z"/><path d="m2.1671364 298.67435v-1.05834h-1.0583333v1.05834z"/><path d="m3.2254697 299.73268v-1.05833h-1.0583333v1.05833z"/></g><path d="m5.3421363 299.73268v-1.05833h-1.0583333v1.05833z" fill="#dfe6ec"/><path d="m6.4004696 297.61601h-1.0583333v.26459.52916.26459h.7937499.2645834v-.26459z" fill="#dfe6ec"/><path d="m6.4004696 295.49935h-1.0583333v1.05833h1.0583333z" fill="#dfe6ec"/><path d="m6.4004696 293.38268h-1.0583333v1.05833h1.0583333z" fill="#dfe6ec"/><path d="m4.283803 292.32435v1.05833h1.0583333v-1.05833z" fill="#dfe6ec"/><path d="m2.1671364 293.38268h1.0583333v-1.05833h-1.0583333z" fill="#359ef2"/><path d="m1.1088031 293.38268v1.05833h1.0583333v-1.05833z" fill="#359ef2"/><path d="m.31505312 292.32435c-.1465651 0-.26458332.11802-.26458332.26458v.52917.26458h.26458332.52916665.26458333v-.26458-.52917-.26458h-.26458333z" fill="#359ef2"/></g><path d="m4.3986401 291.50497-.2645833.26458-.5291666.52917.5291666.52916.5291667.52917-.5291667.52917-.5291666.52916.5291666.52917.2645833.26458 1.8520833-1.85208zm-1.5942178.52916c-.1433884.00361-.2578654.1203-.2578654.26459 0 .14658.1180041.26458.2645833.26458.1465788 0 .2645833-.118.2645833-.26458s-.1180045-.26459-.2645833-.26459c-.0022903 0-.0044419-.00005-.0067179 0zm-.5364014 1.05834c-.2867751.00721-.515214.24058-.515214.52916 0 .29315.2360099.52917.5291667.52917.2931579 0 .5291666-.23602.5291666-.52917 0-.29316-.2360087-.52916-.5291666-.52916-.0045806 0-.0094007-.00012-.0139527 0zm.7870321 1.5875c-.4301647.01082-.7730794.36089-.7730794.79375 0 .43974.3540129.79375.7937499.79375.4397371 0 .79375-.35401.79375-.79375 0-.43973-.3540129-.79375-.79375-.79375-.0068709 0-.0138425-.00017-.0206705 0z" fill="#3d434a" stroke-width=".117592" transform="matrix(3.7795277 0 0 3.7795277 -83.62478187191 -808.10111017434)"/></g></svg>