<svg height="32" viewBox="0 0 32 32" width="32" xmlns="http://www.w3.org/2000/svg"><g transform="translate(84 -286.64999)"><path d="m-79 287.64997h21.999999c1.108 0 2 .89202 2 2.00001v26.00001c0 1.10797-.892 1.99998-2 1.99998h-21.999999c-1.108 0-2-.89201-2-1.99998v-26c0-1.108.892-2 2-2.00002z" fill="#a3b7cc"/><path d="m-78.999999 288.65001h21.999999c.554 0 1 .44599 1 1v26c0 .55401-.446 1-1 1h-21.999999c-.554 0-1-.44599-1-1v-26c0-.55399.446-1 1-1z" fill="#dfe6ec"/><path d="m.31505312 292.32434c-.14656525 0-.26458332.11803-.26458332.26459v.52916.26459h.26458332.52916665.26458333v-.26459-.52916-.26459h-.26458333zm.79374998 1.05834v1.05833h1.0583333v-1.05833zm1.0583333 0h1.0583333v-1.05834h-1.0583333zm1.0583333 0v1.05833h1.0583333v-1.05833zm1.0583333 0h1.0583333v-1.05834h-1.0583333zm1.0583333 0v1.05833h1.0583333v-1.05833zm0 1.05833h-1.0583333v1.05833h1.0583333zm0 1.05833v1.05834h1.0583333v-1.05834zm0 1.05834h-1.0583333v1.05833h1.0583333zm0 1.05833v.26458.52917.26458h.7937499.2645834v-.26458-.79375zm0 1.05833h-1.0583333v1.05834h1.0583333zm-1.0583333 0v-1.05833h-1.0583333v1.05833zm-1.0583333 0h-1.0583333v1.05834h1.0583333zm-1.0583333 0v-1.05833h-1.0583333v1.05833zm-1.0583333 0h-1.0583333v.79376s-.00097712.26458.26458332.26458h.79374998zm0-1.05833v-1.05833h-1.0583333v1.05833zm0-1.05833h1.0583333v-1.05834h-1.0583333zm0-1.05834v-1.05833h-1.0583333v1.05833zm1.0583333 0h1.0583333v-1.05833h-1.0583333zm1.0583333 0v1.05834h1.0583333v-1.05834zm0 1.05834h-1.0583333v1.05833h1.0583333z" fill="#fafafa" transform="matrix(3.7795277 0 0 3.7795277 -80.190752 -816.197976)"/><g fill="#359ef2" stroke-linecap="round" stroke-linejoin="round" stroke-miterlimit="1.8" transform="translate(-100.858753 286.43125)"><path d="m32.858753 10.21874a1.0001 1.0001 0 0 0 -.316406.05078l-6 2a1.0001 1.0001 0 0 0 -.683594.949219v8a1.0001 1.0001 0 0 0 .683594.949219l6 2a1.0001 1.0001 0 0 0 .632812 0l6-2a1.0001 1.0001 0 0 0 .683594-.949219v-8a1.0001 1.0001 0 0 0 -.683594-.949219l-6-2a1.0001 1.0001 0 0 0 -.316406-.05078z" fill="#359ef2"/><g fill="#95d0ff"><path d="m38.858753 13.21874v8l-6 2v-8z"/><path d="m32.858753 11.21874v3h-1l-5-1z"/></g></g></g></svg>