<svg height="32" viewBox="0 0 32 32" width="32" xmlns="http://www.w3.org/2000/svg"><g transform="translate(84 -286.64999)"><path d="m-78.999999 287.64999h21.999999c1.108 0 2 .89202 2 2.00001v26.00001c0 1.10797-.892 1.99998-2 1.99998h-21.999999c-1.108 0-2-.89201-2-1.99998v-26c0-1.108.892-2 2-2.00002z" fill="#a3b7cc"/><path d="m-78.999999 288.65001h21.999999c.554 0 1 .44599 1 1v26c0 .55401-.446 1-1 1h-21.999999c-.554 0-1-.44599-1-1v-26c0-.55399.446-1 1-1z" fill="#fafafa"/><path d="m.31505312 292.32434c-.14656525 0-.26458332.11803-.26458332.26459v.52916.26459h.26458332.52916665.26458333v-.26459-.52916-.26459h-.26458333zm.79374998 1.05834v1.05833h1.0583333v-1.05833zm1.0583333 0h1.0583333v-1.05834h-1.0583333zm1.0583333 0v1.05833h1.0583333v-1.05833zm1.0583333 0h1.0583333v-1.05834h-1.0583333zm1.0583333 0v1.05833h1.0583333v-1.05833zm0 1.05833h-1.0583333v1.05833h1.0583333zm0 1.05833v1.05834h1.0583333v-1.05834zm0 1.05834h-1.0583333v1.05833h1.0583333zm0 1.05833v.26458.52917.26458h.7937499.2645834v-.26458-.79375zm0 1.05833h-1.0583333v1.05834h1.0583333zm-1.0583333 0v-1.05833h-1.0583333v1.05833zm-1.0583333 0h-1.0583333v1.05834h1.0583333zm-1.0583333 0v-1.05833h-1.0583333v1.05833zm-1.0583333 0h-1.0583333v1.05834h1.0583333zm0-1.05833v-1.05833h-1.0583333v1.05833zm0-1.05833h1.0583333v-1.05834h-1.0583333zm0-1.05834v-1.05833h-1.0583333v1.05833zm1.0583333 0h1.0583333v-1.05833h-1.0583333zm1.0583333 0v1.05834h1.0583333v-1.05834zm0 1.05834h-1.0583333v1.05833h1.0583333z" fill="#e7ebf0" transform="matrix(3.7795277 0 0 3.7795277 -80.190752 -816.19796)"/></g><g transform="matrix(3.7795275 0 0 3.7795275 8 -1096.520655)"><path d="m1.6040366 292.50259a.52916666.52916666 0 0 0 -.1033516.007.52916666.52916666 0 0 0 -.3436487.21446.52916666.52916666 0 0 0 .1229889.73794l.1379775.0987h-.88883592a.52916666.52916666 0 0 0 -.52916666.52889.52916666.52916666 0 0 0 .52916666.52917h.39015722l-.46457128.38705a.52916666.52916666 0 0 0 -.0676963.74518.52916666.52916666 0 0 0 .74569108.0677l.2992067-.24908c.2171409.52971.7364386.90124 1.3461709.90124.8061854 0 1.4552083-.64902 1.4552083-1.45521 0-.36207-.1310322-.69208-.3483001-.94619a.52916666.52916666 0 0 0 -.137975-.14573l-.031007-.0222c-.058266-.0491-.1204304-.0933-.1860338-.1328l-1.635043-1.16789a.52916666.52916666 0 0 0 -.2909384-.0982z" fill="#dd4d25"/><path d="m1.6133393 292.7677a.26458333.26458333 0 0 0 -.2413291.10955.26458333.26458333 0 0 0 .061495.36897l.8102859.57878h-1.71462432a.26458333.26458333 0 0 0 -.26458333.26458.26458333.26458333 0 0 0 .26458333.26458h1.12086232l-1.02577636.85473a.26458333.26458333 0 0 0 -.0335915.37311.26458333.26458333 0 0 0 .37258624.0336l.62683762-.52244c.039711.62317.5545031 1.11311 1.18804 1.11311.6596062 0 1.190625-.53102 1.190625-1.19063 0-.30284-.1122098-.57838-.2971403-.78807a.26458333.26458333 0 0 0 -.078031-.0889l-.047543-.0341c-.048281-.0407-.1000707-.0774-.1545114-.11006l-1.650029-1.17874a.26458333.26458333 0 0 0 -.1281562-.0481z" fill="#ff8f64"/><rect fill="#b3c9d5" height="1.852082" ry=".91953" width="1.852083" x="1.852083" y="294.08957"/><rect fill="#fcfcfc" height="1.322916" ry=".656807" width="1.322917" x="2.116667" y="294.35416"/><rect fill="#0c63cc" height=".79375" ry=".394084" width=".79375" x="2.38125" y="294.61874"/><rect fill="#2292f4" height=".264583" ry=".131361" width=".264583" x="2.645834" y="294.88333"/></g></svg>