<svg height="32" viewBox="0 0 32 32" width="32" xmlns="http://www.w3.org/2000/svg"><g transform="translate(84 -286.64999)"><path d="m-79 287.64997h21.999999c1.108 0 2 .89202 2 2.00001v26.00001c0 1.10797-.892 1.99998-2 1.99998h-21.999999c-1.108 0-2-.89201-2-1.99998v-26c0-1.108.892-2 2-2.00002z" fill="#1d86d9"/><path d="m-78.999999 288.65001h21.999999c.554 0 1 .44599 1 1v26c0 .55401-.446 1-1 1h-21.999999c-.554 0-1-.44599-1-1v-26c0-.55399.446-1 1-1z" fill="#44acff"/><path d="m.31505312 292.32434c-.14656525 0-.26458332.11803-.26458332.26459v.52916.26459h.26458332.52916665.26458333v-.26459-.52916-.26459h-.26458333zm.79374998 1.05834v1.05833h1.0583333v-1.05833zm1.0583333 0h1.0583333v-1.05834h-1.0583333zm1.0583333 0v1.05833h1.0583333v-1.05833zm1.0583333 0h1.0583333v-1.05834h-1.0583333zm1.0583333 0v1.05833h1.0583333v-1.05833zm0 1.05833h-1.0583333v1.05833h1.0583333zm0 1.05833v1.05834h1.0583333v-1.05834zm0 1.05834h-1.0583333v1.05833h1.0583333zm0 1.05833v.26458.52917.26458h.7937499.2645834v-.26458-.79375zm0 1.05833h-1.0583333v1.05834h1.0583333zm-1.0583333 0v-1.05833h-1.0583333v1.05833zm-1.0583333 0h-1.0583333v1.05834h1.0583333zm-1.0583333 0v-1.05833h-1.0583333v1.05833zm-1.0583333 0h-1.0583333v1.05834h1.0583333zm0-1.05833v-1.05833h-1.0583333v1.05833zm0-1.05833h1.0583333v-1.05834h-1.0583333zm0-1.05834v-1.05833h-1.0583333v1.05833zm1.0583333 0h1.0583333v-1.05833h-1.0583333zm1.0583333 0v1.05834h1.0583333v-1.05834zm0 1.05834h-1.0583333v1.05833h1.0583333z" fill="#359ef2" transform="matrix(3.7795277 0 0 3.7795277 -80.190752 -816.197976)"/><g fill="#d1ebff" transform="matrix(3.7795277 0 0 3.7795277 -83.62478187191 -808.10111017434)"><path d="m2.2819717 293.09246h.0000027c.2931582 0 .5291653.23601.5291653.52917 0 .29315-.2360071.52916-.5291653.52916h-.0000027c-.293157 0-.5291653-.23601-.5291653-.52916 0-.29316.2360083-.52917.5291653-.52917z" stroke-width=".117592"/><path d="m2.8111399 292.03413c.1465789 0 .2645832.118.2645832.26458s-.1180043.26458-.2645832.26458c-.1465793 0-.2645834-.118-.2645834-.26458s.1180041-.26458.2645834-.26458z" stroke-width=".084666"/><path d="m3.0757243 294.67996c.4397375 0 .79375.35402.79375.79375 0 .43974-.3540125.79375-.79375.79375s-.79375-.35401-.79375-.79375c0-.43973.3540125-.79375.79375-.79375z" stroke-width=".122115"/><path d="m3.6048896 294.41538.79375.79376 1.8520833-1.85209-1.8520833-1.85208-.79375.79375 1.0583333 1.05833z"/></g></g></svg>