<svg height="32" viewBox="0 0 32 32" width="32" xmlns="http://www.w3.org/2000/svg"><g transform="translate(84 -286.64999)"><path d="m-78.999999 287.64999h21.999999c1.108 0 2 .89202 2 2.00001v26.00001c0 1.10797-.892 1.99998-2 1.99998h-21.999999c-1.108 0-2-.89201-2-1.99998v-26c0-1.108.892-2 2-2.00002z" fill="#3b8691"/><path d="m-79 288.64999c-.553998 0-1 .44601-1 1v13h3v5h2.078125c.0246-.0728.054734-.14377.089844-.21094.03512-.0672.07448-.13087.11914-.1914.04466-.0605.09522-.11702.148438-.16993.05322-.0529.109123-.10219.169922-.14648.0608-.0443.125959-.0844.193359-.11914.0674-.0347.137914-.06379.210938-.08789.07302-.0241.148896-.04209.226562-.05469.07767-.0125.156951-.01953.238281-.01953h.050782c.102112 0 .202664.01.298828.0293.09616.0196.187122.04873.27539.08593.08827.0372.173529.0838.251953.13672.07843.0529.150163.11306.216797.17969.06664.0666.126791.13837.179688.2168.0529.0784.09951.16368.136719.25195.03721.0883.066357.17923.085937.27539.01958.0962.029297.19672.029297.29883v.05078c0 .10211-.009697.20266-.029297.29883-.01958.0962-.048727.18712-.085937.27539-.03721.0883-.08382.17353-.136719.25195-.0529.0784-.113053.15016-.179688.2168-.06663.0666-.138371.12679-.216797.17969-.078419.0529-.163684.0995-.251953.13672-.08827.0372-.179226.06633-.27539.08593-.09616.0196-.196716.0293-.298828.0293h-.050782c-.08133 0-.160614-.00703-.238281-.01953-.07767-.0126-.153539-.03059-.226562-.05469-.07302-.0241-.143537-.05319-.210938-.08789-.0674-.0347-.132561-.0749-.193359-.11914-.0608-.0443-.116705-.0936-.169922-.14648-.05322-.0529-.103781-.1094-.148438-.16993-.04466-.0605-.08402-.12423-.11914-.1914-.03512-.0672-.065254-.13812-.089844-.21094h-3.078125v-1-4h-2v12c0 .55401.446002 1 1 1h22c.553998 0 1-.44599 1-1v-9h-4v1 1h-3.083984c-.02561.073-.05767.14367-.09375.21094-.03608.0673-.07553.13084-.121094.1914-.04556.0606-.09632.11703-.150391.16993-.05407.0529-.112221.10223-.173828.14648-.06161.0442-.12715.0845-.195312.11914-.06816.0346-.139151.06379-.212891.08789s-.150175.04219-.228516.05469c-.07834.0125-.15827.01953-.240234.01953-.103875 0-.204912-.01135-.302734-.03125-.09782-.0199-.191461-.04814-.28125-.08594-.08979-.0378-.176084-.0849-.25586-.13867-.07977-.0538-.154875-.11386-.222656-.18164-.06778-.0678-.127834-.14288-.181641-.22266-.05381-.0798-.100821-.16607-.138671-.25586-.03785-.0898-.066018-.18342-.085938-.28125-.019914-.09788-.03125-.19886-.03125-.30273s.01133-.20491.03125-.30273c.01992-.0978.048088-.19147.085938-.28125.037849-.0898.08487-.17609.138671-.25586.05381-.0798.11386-.15488.181641-.22266.06778-.0678.142881-.12783.222656-.18164.07978-.0538.166071-.10082.25586-.13867.08979-.0378.183428-.06604.28125-.08594.09782-.0199.198859-.03125.302734-.03125.08196 0 .161894.00703.240234.01953s.154776.03059.228516.05469.144729.05319.212891.08789c.06816.0346.133705.0749.195312.11914.06161.0442.119754.0936.173828.14648.05407.0529.104826.10936.150391.16993.04556.0606.08502.12414.121094.1914.03608.0673.06814.13794.09375.21094h2.083984v-1-1h5v-3.5c0 .10387-.01133.20491-.03125.30273-.01992.0978-.048088.19147-.085938.28125-.037849.0898-.08487.17609-.138671.25586-.05381.0798-.11386.15488-.181641.22266-.06778.0678-.142881.12783-.222656.18164-.07978.0538-.166071.10082-.25586.13867-.08979.0378-.183428.06604-.28125.08594-.09782.0199-.198859.03125-.302734.03125-.08196 0-.161894-.00703-.240234-.01953s-.154776-.03059-.228516-.05469-.144729-.05319-.212891-.08789c-.06816-.0346-.133705-.0749-.195312-.11914-.06161-.0442-.119754-.0936-.173828-.14648-.05407-.0529-.104826-.10936-.150391-.16993-.04556-.0606-.08502-.12414-.121094-.1914-.03608-.0673-.06814-.13794-.09375-.21094h-3.083984v-1-3h-1.083984c-.02561.073-.05767.14367-.09375.21094-.03608.0673-.07553.13084-.121094.1914-.04556.0606-.09632.11703-.150391.16993-.05407.0529-.112221.10223-.173828.14648-.06161.0442-.12715.0845-.195312.11914-.06816.0346-.139151.06379-.212891.08789s-.150175.04219-.228516.05469c-.07834.0125-.15827.01953-.240234.01953-.103875 0-.204912-.01135-.302734-.03125-.09782-.0199-.191461-.04814-.28125-.08594-.08979-.0378-.176084-.0849-.25586-.13867-.07977-.0538-.154875-.11386-.222656-.18164-.06778-.0678-.127834-.14288-.181641-.22266-.05381-.0798-.100821-.16607-.138671-.25586-.03785-.0898-.066018-.18342-.085938-.28125-.019914-.0979-.03125-.19886-.03125-.30273s.01133-.20491.03125-.30273c.01992-.0978.048088-.19147.085938-.28125.037849-.0898.08487-.17609.138671-.25586.05381-.0798.11386-.15488.181641-.22266.06778-.0678.142881-.12783.222656-.18164.07978-.0538.166071-.10082.25586-.13867.08979-.0378.183428-.06604.28125-.08594.09782-.0199.198859-.03125.302734-.03125.08196 0 .161894.00703.240234.01953s.154776.03059.228516.05469.144729.05319.212891.08789c.06816.0346.133705.0749.195312.11914.06161.0442.119754.0936.173828.14648.05407.0529.104826.10936.150391.16993.04556.0606.08502.12414.121094.1914.03608.0673.06814.13794.09375.21094h2.083984v4h2.083984c.02561-.073.05767-.14367.09375-.21094.03608-.0673.07553-.13084.121094-.1914.04556-.0606.09632-.11703.150391-.16993.05407-.0529.112221-.10223.173828-.14648.06161-.0442.12715-.0845.195312-.11914.06816-.0346.139151-.06379.212891-.08789s.150175-.04219.228516-.05469c.07834-.0125.15827-.01953.240234-.01953.103875 0 .204912.01135.302734.03125.09782.0199.191461.04814.28125.08594.08979.0378.176084.0849.25586.13867.07977.0538.154875.11386.222656.18164.06778.0678.127834.14288.181641.22266.05381.0798.100821.16607.138671.25586.03785.0898.066018.18342.085938.28125.01992.0978.03125.19886.03125.30273v-2.5h-3v-1-2.08398c-.073-.0256-.143673-.05775-.210938-.09375-.067259-.0361-.130844-.0755-.191406-.1211-.06056-.0456-.117031-.0963-.169922-.15039-.05289-.0541-.102234-.11222-.146484-.17383-.04425-.0616-.0845-.12715-.119141-.19531-.03464-.0682-.06383-.13915-.08789-.21289-.02406-.0737-.042168-.15018-.054688-.22852-.01252-.0783-.019531-.15827-.019531-.24023 0-.10387.01133-.20491.03125-.30273.01992-.0978.048088-.19147.085938-.28125.037849-.0898.08487-.17609.138671-.25586.05381-.0798.11386-.15488.181641-.22266.06778-.0678.142881-.12783.222656-.18164.07978-.0538.166071-.10082.25586-.13867.08979-.0378.183428-.06604.28125-.08594.09782-.0199.198859-.03125.302734-.03125s.204912.01135.302734.03125c.09782.0199.191461.04814.28125.08594.08979.0378.176084.0849.25586.13867.07977.0538.154875.11386.222656.18164.06778.0678.127834.14288.181641.22266.05381.0798.100821.16607.138671.25586.03785.0898.066018.18342.085938.28125.01992.0978.03125.19886.03125.30273 0 .082-.007001.16189-.019531.24023-.01252.0783-.030628.15478-.054688.22852-.02406.0737-.05325.14473-.08789.21289-.03464.0682-.07489.13371-.119141.19531-.04425.0616-.09359.11976-.146484.17383-.05289.0541-.10936.10483-.169922.15039-.06056.0456-.124143.085-.191406.1211-.06726.0361-.13794.06815-.210938.09375v2.08398h2v-7h-4.083984c-.02561.073-.05767.14367-.09375.21094-.03608.0673-.07553.13084-.121094.1914-.04556.0606-.09632.11703-.150391.16993-.05407.0529-.112221.10223-.173828.14648-.06161.0442-.12715.0845-.195312.11914-.06816.0346-.139151.06379-.212891.08789s-.150175.04219-.228516.05469c-.07834.0125-.15827.01953-.240234.01953-.103875 0-.204912-.01135-.302734-.03125-.09782-.0199-.191461-.04814-.28125-.08594-.08979-.0378-.176084-.0849-.25586-.13867-.07977-.0538-.154875-.11386-.222656-.18164-.06778-.0678-.127834-.14288-.181641-.22266-.05381-.0798-.100821-.16607-.138671-.25586-.03785-.0898-.066018-.18342-.085938-.28125-.019918-.0979-.03125-.19886-.03125-.30273s.01133-.20491.03125-.30273c.01992-.0978.048088-.19147.085938-.28125.037849-.0898.08487-.17609.138671-.25586.05381-.0798.11386-.15488.181641-.22266.06778-.0678.142881-.12783.222656-.18164.07978-.0538.166071-.10082.25586-.13867.08979-.0378.183428-.06604.28125-.08594.09782-.0199.198859-.03125.302734-.03125.08196 0 .161894.00703.240234.01953s.154776.03059.228516.05469.144729.05319.212891.08789c.06816.0346.133705.0749.195312.11914.06161.0442.119754.0936.173828.14648.05407.0529.104826.10936.150391.16993.04556.0606.08502.12414.121094.1914.03608.0673.06814.13794.09375.21094h4.083984v-1c0-.55401-.446002-1-1-1h-16v2h3.083984c.02561-.073.05767-.14367.09375-.21094.03608-.0673.07553-.13084.121094-.1914.04556-.0606.09632-.11703.150391-.16993.05407-.0529.112221-.10223.173828-.14648.06161-.0442.12715-.0845.195312-.11914.06816-.0346.139151-.06379.212891-.08789s.150175-.04219.228516-.05469c.07834-.0125.15827-.01953.240234-.01953.103875 0 .204912.01135.302734.03125.09782.0199.191461.04814.28125.08594.08979.0378.176084.0849.25586.13867.07977.0538.154875.11386.222656.18164.06778.0678.127834.14288.181641.22266.05381.0798.100821.16607.138671.25586.03785.0898.066018.18342.085938.28125.01992.0978.03125.19886.03125.30273s-.01133.20491-.03125.30273c-.01992.0978-.048088.19147-.085938.28125-.037849.0898-.08487.17609-.138671.25586-.05381.0798-.11386.15488-.181641.22266-.06778.0678-.142881.12783-.222656.18164-.07978.0538-.166071.10082-.25586.13867-.08979.0378-.183428.06604-.28125.08594-.09782.0199-.198859.03125-.302734.03125-.08196 0-.161894-.00703-.240234-.01953s-.154776-.03059-.228516-.05469-.144729-.05319-.212891-.08789c-.06816-.0346-.133705-.0749-.195312-.11914-.06161-.0442-.119754-.0936-.173828-.14648-.05407-.0529-.104826-.10936-.150391-.16993-.04556-.0606-.08502-.12414-.121094-.1914-.03608-.0673-.06814-.13794-.09375-.21094h-3.083984-1v-1-2zm1.5 1c.103875 0 .204912.01135.302734.03125.09782.0199.191461.04814.28125.08594.08979.0378.176084.0849.25586.13867.07977.0538.154875.11386.222656.18164.06778.0678.127834.14288.181641.22266.05381.0798.100821.16607.138671.25586.03785.0898.066018.18342.085938.28125.01992.0978.03125.19886.03125.30273 0 .082-.007001.16189-.019531.24023-.01252.0783-.030628.15478-.054688.22852-.02406.0737-.05325.14473-.08789.21289-.03464.0682-.07489.13371-.119141.19531-.04425.0616-.09359.11976-.146484.17383-.05289.0541-.10936.10483-.169922.15039-.06056.0456-.124143.085-.191406.1211-.06726.0361-.13794.06815-.210938.09375v5.16796c.073.0256.143673.05775.210938.09375.067259.0361.130844.0755.191406.1211.06056.0456.117031.0963.169922.15039.05289.0541.102234.11222.146484.17383.04425.0616.0845.12715.119141.19531.03464.0682.06383.13915.08789.21289.02406.0737.042168.15018.054688.22852.01252.0783.019531.15827.019531.24023 0 .10387-.01133.20491-.03125.30273-.01992.0978-.048088.19147-.085938.28125-.037849.0898-.08487.17609-.138671.25586-.05381.0798-.11386.15488-.181641.22266-.06778.0678-.142881.12783-.222656.18164-.07978.0538-.166071.10082-.25586.13867-.08979.0378-.183428.06604-.28125.08594-.09782.0199-.198859.03125-.302734.03125s-.204912-.01135-.302734-.03125c-.09782-.0199-.191461-.04814-.28125-.08594-.08979-.0378-.176084-.0849-.25586-.13867-.07977-.0538-.154875-.11386-.222656-.18164-.06778-.0678-.127834-.14288-.181641-.22266-.05381-.0798-.100821-.16607-.138671-.25586-.03785-.0898-.066018-.18342-.085938-.28125-.019914-.09763-.03125-.19886-.03125-.30273 0-.082.007001-.16189.019531-.24023.01252-.0783.030628-.15478.054688-.22852.02406-.0737.05325-.14473.08789-.21289.03464-.0682.07489-.13371.119141-.19531.04425-.0616.09359-.11976.146484-.17383.05289-.0541.10936-.10483.169922-.15039.06056-.0456.124143-.085.191406-.1211.06726-.0361.13794-.06815.210938-.09375v-5.16796c-.073-.0256-.143673-.05775-.210938-.09375-.067259-.0361-.130844-.0755-.191406-.1211-.06056-.0456-.117031-.0963-.169922-.15039-.05289-.0541-.102234-.11222-.146484-.17383-.04425-.0616-.0845-.12715-.119141-.19531-.03464-.0682-.06383-.13915-.08789-.21289-.02406-.0737-.042168-.15018-.054688-.22852-.01252-.0783-.019531-.15827-.019531-.24023 0-.10387.01133-.20491.03125-.30273.01992-.0978.048088-.19147.085938-.28125.037849-.0898.08487-.17609.138671-.25586.05381-.0798.11386-.15488.181641-.22266.06778-.0678.142881-.12783.222656-.18164.07978-.0538.166071-.10082.25586-.13867.08979-.0378.183428-.06604.28125-.08594.09782-.0199.198859-.03125.302734-.03125zm-.025391 1c-.264913.01334-.474609.23166-.474609.5 0 .277.223.5.5.5s.5-.223.5-.5-.223-.5-.5-.5c-.008656 0-.016845-.00043-.025391 0zm9 0c-.264913.01334-.474609.23166-.474609.5 0 .277.223.5.5.5s.5-.223.5-.5-.223-.5-.5-.5c-.008656 0-.016845-.00043-.025391 0zm7 0c-.264913.01334-.474609.23166-.474609.5 0 .277.223.5.5.5s.5-.223.5-.5-.223-.5-.5-.5c-.008656 0-.016845-.00043-.025391 0zm3 4c-.264913.01334-.474609.23166-.474609.5 0 .277.223.5.5.5s.5-.223.5-.5-.223-.5-.5-.5c-.008656 0-.016845-.00043-.025391 0zm-6 3c-.264913.01334-.474609.23166-.474609.5 0 .277.223.5.5.5s.5-.223.5-.5-.223-.5-.5-.5c-.008656 0-.016845-.00043-.025391 0zm-13 1c-.264913.01334-.474609.23166-.474609.5 0 .277.223.5.5.5s.5-.223.5-.5-.223-.5-.5-.5c-.008656 0-.016845-.00043-.025391 0zm20 3c-.264913.01334-.474609.23166-.474609.5 0 .277.223.5.5.5s.5-.223.5-.5-.223-.5-.5-.5c-.008656 0-.016845-.00043-.025391 0zm-16 6c-.264913.01334-.474609.23166-.474609.5 0 .277.223.5.5.5s.5-.223.5-.5-.223-.5-.5-.5c-.008656 0-.016845-.00043-.025391 0zm9 0c-.264913.01334-.474609.23166-.474609.5 0 .277.223.5.5.5s.5-.223.5-.5-.223-.5-.5-.5c-.008656 0-.016845-.00043-.025391 0zm-.974609 4c.08196 0 .161894.00703.240234.01953s.154776.03059.228516.05469.144729.05319.212891.08789c.06816.0346.133705.0749.195312.11914.06161.0442.119754.0936.173828.14648.05407.0529.104826.10936.150391.16993.04556.0606.08502.12414.121094.1914.03608.0673.06814.13794.09375.21094h3.167968c.02561-.073.05767-.14367.09375-.21094.03608-.0673.07553-.13084.121094-.1914.04556-.0606.09632-.11703.150391-.16993.05407-.0529.112221-.10223.173828-.14648.06161-.0442.12715-.0845.195312-.11914.06816-.0346.139151-.06379.212891-.08789s.150175-.04219.228516-.05469c.07834-.0125.15827-.01953.240234-.01953.103875 0 .204912.01135.302734.03125.09782.0199.191461.04814.28125.08594.08979.0378.176084.0849.25586.13867.07977.0538.154875.11386.222656.18164.06778.0678.127834.14288.181641.22266.05381.0798.100821.16607.138671.25586.03785.0898.066018.18342.085938.28125.01992.0978.03125.19886.03125.30273s-.01133.20491-.03125.30273c-.01992.0978-.048088.19147-.085938.28125-.037849.0898-.08487.17609-.138671.25586-.05381.0798-.11386.15488-.181641.22266-.06778.0678-.142881.12783-.222656.18164-.07978.0538-.166071.10082-.25586.13867-.08979.0378-.183428.06604-.28125.08594-.09782.0199-.198859.03125-.302734.03125-.08196 0-.161894-.00703-.240234-.01953s-.154776-.03059-.228516-.05469-.144729-.05319-.212891-.08789c-.06816-.0346-.133705-.0749-.195312-.11914-.06161-.0442-.119754-.0936-.173828-.14648-.05407-.0529-.104826-.10936-.150391-.16993-.04556-.0606-.08502-.12414-.121094-.1914-.03608-.0673-.06814-.13794-.09375-.21094h-3.167968c-.02561.073-.05767.14367-.09375.21094-.03608.0673-.07553.13084-.121094.1914-.04556.0606-.09632.11703-.150391.16993-.05407.0529-.112221.10223-.173828.14648-.06161.0442-.12715.0845-.195312.11914-.06816.0346-.139151.06379-.212891.08789s-.150175.04219-.228516.05469c-.07834.0125-.15827.01953-.240234.01953-.103875 0-.204912-.01135-.302734-.03125-.09782-.0199-.191461-.04814-.28125-.08594-.08979-.0378-.176084-.0849-.25586-.13867-.07977-.0538-.154875-.11386-.222656-.18164-.06778-.0678-.127834-.14288-.181641-.22266-.05381-.0798-.100821-.16607-.138671-.25586-.03785-.0898-.066018-.18342-.085938-.28125-.019914-.09773-.03125-.19886-.03125-.30273s.01133-.20491.03125-.30273c.01992-.0978.048088-.19147.085938-.28125.037849-.0898.08487-.17609.138671-.25586.05381-.0798.11386-.15488.181641-.22266.06778-.0678.142881-.12783.222656-.18164.07978-.0538.166071-.10082.25586-.13867.08979-.0378.183428-.06604.28125-.08594.09782-.0199.198859-.03125.302734-.03125zm-12 1c.08196 0 .161894.00703.240234.01953s.154776.03059.228516.05469.144729.05319.212891.08789c.06816.0346.133705.0749.195312.11914.06161.0442.119754.0936.173828.14648.05407.0529.104826.10936.150391.16993.04556.0606.08502.12414.121094.1914.03608.0673.06814.13794.09375.21094h4.167968c.02561-.073.05767-.14367.09375-.21094.03608-.0673.07553-.13084.121094-.1914.04556-.0606.09632-.11703.150391-.16993.05407-.0529.112221-.10223.173828-.14648.06161-.0442.12715-.0845.195312-.11914.06816-.0346.139151-.06379.212891-.08789s.150175-.04219.228516-.05469c.07834-.0125.15827-.01953.240234-.01953.103875 0 .204912.01135.302734.03125.09782.0199.191461.04814.28125.08594.08979.0378.176084.0849.25586.13867.07977.0538.154875.11386.222656.18164.06778.0678.127834.14288.181641.22266.05381.0798.100821.16607.138671.25586.03785.0898.066018.18342.085938.28125.01992.0978.03125.19886.03125.30273s-.01133.20491-.03125.30273c-.01992.0978-.048088.19147-.085938.28125-.037849.0898-.08487.17609-.138671.25586-.05381.0798-.11386.15488-.181641.22266-.06778.0678-.142881.12783-.222656.18164-.07978.0538-.166071.10082-.25586.13867-.08979.0378-.183428.06604-.28125.08594-.09782.0199-.198859.03125-.302734.03125-.08196 0-.161894-.00703-.240234-.01953s-.154776-.03059-.228516-.05469-.144729-.05319-.212891-.08789c-.06816-.0346-.133705-.0749-.195312-.11914-.06161-.0442-.119754-.0936-.173828-.14648-.05407-.0529-.104826-.10936-.150391-.16993-.04556-.0606-.08502-.12414-.121094-.1914-.03608-.0673-.06814-.13794-.09375-.21094h-4.167968c-.02561.073-.05767.14367-.09375.21094-.03608.0673-.07553.13084-.121094.1914-.04556.0606-.09632.11703-.150391.16993-.05407.0529-.112221.10223-.173828.14648-.06161.0442-.12715.0845-.195312.11914-.06816.0346-.139151.06379-.212891.08789s-.150175.04219-.228516.05469c-.07834.0125-.15827.01953-.240234.01953-.103875 0-.204912-.01135-.302734-.03125-.09782-.0199-.191461-.04814-.28125-.08594-.08979-.0378-.176084-.0849-.25586-.13867-.07977-.0538-.154875-.11386-.222656-.18164-.06778-.0678-.127834-.14288-.181641-.22266-.05381-.0798-.100821-.16607-.138671-.25586-.03785-.0898-.066018-.18342-.085938-.28125-.019914-.09773-.03125-.19886-.03125-.30273s.01133-.20491.03125-.30273c.01992-.0978.048088-.19147.085938-.28125.037849-.0898.08487-.17609.138671-.25586.05381-.0798.11386-.15488.181641-.22266.06778-.0678.142881-.12783.222656-.18164.07978-.0538.166071-.10082.25586-.13867.08979-.0378.183428-.06604.28125-.08594.09782-.0199.198859-.03125.302734-.03125zm11.974609 0c-.264913.01334-.474609.23166-.474609.5 0 .277.223.5.5.5s.5-.223.5-.5-.223-.5-.5-.5c-.008656 0-.016845-.00043-.025391 0zm6 0c-.264913.01334-.474609.23166-.474609.5 0 .277.223.5.5.5s.5-.223.5-.5-.223-.5-.5-.5c-.008656 0-.016845-.00043-.025391 0zm-18 1c-.264913.01334-.474609.23166-.474609.5 0 .277.223.5.5.5s.5-.223.5-.5-.223-.5-.5-.5c-.008656 0-.016845-.00043-.025391 0zm7 0c-.264913.01334-.474609.23166-.474609.5 0 .277.223.5.5.5s.5-.223.5-.5-.223-.5-.5-.5c-.008656 0-.016845-.00043-.025391 0z" fill="#5bb1be"/><g><rect fill="#3b4857" height="18" ry="1" width="14.000001" x="-75" y="293.64999"/><path d="m-74 294.64999h12v16h-12z" fill="#4b6477"/><path d="m-71 295.64999v1h1v-1zm1 1v1h1v-1zm1 0h1v-1h-1zm1 0v1h1v-1zm1 0h1v-1h-1zm1 0v1h1v-1zm1 0h1v-1h-1zm1 0v1h1v-1zm-9 1v1h1v-1zm1 1v1h1v-1zm0 1h-1v1h1zm0 1v1h1v-1zm0 1h-1v1h1zm0 1v1h1v-1zm0 1h-1v1h1zm-1 2v4h4l-2-2zm6 2v1h1v-1zm1 1v1h1v-1zm1 0h1v-1h-1zm1 0v1h1v-1zm-3 0h-1v1h1z" fill="#dbe5ec" stroke-linecap="round" stroke-linejoin="round" stroke-miterlimit="1.8" stroke-width="2"/></g></g></svg>