<svg height="32" viewBox="0 0 32 32" width="32" xmlns="http://www.w3.org/2000/svg"><g transform="translate(84 -286.64999)"><path d="m-79 287.64997h21.999999c1.108 0 2 .89202 2 2.00001v26.00001c0 1.10797-.892 1.99998-2 1.99998h-21.999999c-1.108 0-2-.89201-2-1.99998v-26c0-1.108.892-2 2-2.00002z" fill="#a3b7cc"/><path d="m-78.999999 288.65001h21.999999c.554 0 1 .44599 1 1v26c0 .55401-.446 1-1 1h-21.999999c-.554 0-1-.44599-1-1v-26c0-.55399.446-1 1-1z" fill="#fafafa"/><path d="m-79 288.64999c-.553947 0-1 .4461-1 1.00003v1.99997 1.00003h1 2 1v-1.00003-1.99997-1.00003h-1zm3 4.00003v3.99998h4v-3.99998zm4 0h4v-4.00003h-4zm4 0v3.99998h4v-3.99998zm4 0h4v-4.00003h-4zm4 0v3.99998h4v-3.99998zm0 3.99998h-4v3.99999h4zm0 3.99999v4.00003h4v-4.00003zm0 4.00003h-4v3.99998h4zm0 3.99998v.99999 2.00001.99999h3 1v-.99999-3zm0 3.99999h-4v4.00003h4zm-4 0v-3.99999h-4v3.99999zm-4 0h-4v4.00003h4zm-4 0v-3.99999h-4v3.99999zm-4 0h-4v4.00003h4zm0-3.99999v-3.99998h-4v3.99998zm0-3.99998h4v-4.00003h-4zm0-4.00003v-3.99999h-4v3.99999zm4 0h4v-3.99999h-4zm4 0v4.00003h4v-4.00003zm0 4.00003h-4v3.99998h4z" fill="#dfe6ec"/><g stroke-linecap="round" stroke-linejoin="round" stroke-miterlimit="1.8" transform="matrix(3.7795276 0 0 3.7795276 -79.00000224901 290.64999)"><g transform="matrix(.8 0 0 .8 -.052916 5.998521)"><path d="m5.0270832-3.5294019c.7328958 0 1.3229166.5900208 1.3229166 1.3229167 0 .7328958-.5900208 1.32291656-1.3229166 1.32291656s-1.3229167-.59002076-1.3229167-1.32291656c0-.7328959.5900209-1.3229167 1.3229167-1.3229167z" fill="#287bc2" stroke-width=".661459"/><path d="m5.0270833-3.198673c.5496719 0 .9921876.4425156.9921876.9921874 0 .5496719-.4425157.9921876-.9921876.9921876-.5496718 0-.9921874-.4425157-.9921874-.9921876 0-.5496718.4425156-.9921874.9921874-.9921874z" fill="#78c1ff" stroke-width=".496094"/></g><g transform="matrix(.8 0 0 .8 -1.957917 -1.693333)"><path d="m4.7625002 3.4395835c.7328958 0 1.3229166.5900208 1.3229166 1.3229167 0 .7328958-.5900208 1.3229165-1.3229166 1.3229165s-1.3229167-.5900207-1.3229167-1.3229165c0-.7328959.5900209-1.3229167 1.3229167-1.3229167z" fill="#ffb851" fill-opacity=".960784" stroke-width=".661459"/><path d="m4.7625003 3.7703125c.5496719 0 .9921876.4425156.9921876.9921874 0 .5496719-.4425157.9921876-.9921876.9921876-.5496718 0-.9921874-.4425157-.9921874-.9921876 0-.5496718.4425156-.9921874.9921874-.9921874z" fill="#ffeea3" stroke-width=".496094"/></g><g transform="matrix(.80000001 0 0 .80000001 .105833 6.138333)"><path d="m2.1828126-3.7041667c.7328959 0 1.3229167.5900208 1.3229167 1.3229166 0 .7328959-.5900208 1.3229167-1.3229167 1.3229167-.7328958 0-1.3229166-.5900208-1.3229166-1.3229167 0-.7328958.5900208-1.3229166 1.3229166-1.3229166z" fill="#c74343" stroke-width=".661459"/><path d="m2.1828129-3.3734376c.5496719 0 .9921875.4425156.9921875.9921875s-.4425156.9921875-.9921875.9921875-.9921875-.4425156-.9921875-.9921875.4425156-.9921875.9921875-.9921875z" fill="#f78f8f" stroke-width=".496094"/></g><g transform="matrix(.8 0 0 .8 4.815417 3.175)"><path d="m-1.058333-2.6458331c.7328958 0 1.3229166.5900208 1.3229166 1.3229167 0 .73289584-.5900208 1.32291664-1.3229166 1.32291664-.7328959 0-1.3229167-.5900208-1.3229167-1.32291664 0-.7328959.5900208-1.3229167 1.3229167-1.3229167z" fill="#619f78" stroke-width=".661459"/><path d="m-1.0583333-2.3151043c.5496719 0 .99218747.4425157.99218747.9921875 0 .54967198-.44251557.99218756-.99218747.99218756-.5496718 0-.9921875-.44251558-.9921875-.99218756 0-.5496718.4425157-.9921875.9921875-.9921875z" fill="#bae0bd" stroke-width=".496094"/></g><path d="m2.9104169 2.1166666c.5863166 0 1.0583332.4720166 1.0583332 1.0583334 0 .5863166-.4720166 1.0583332-1.0583332 1.0583332-.5863167 0-1.0583334-.4720166-1.0583334-1.0583332 0-.5863168.4720167-1.0583334 1.0583334-1.0583334z" fill="#b1c1d4" stroke-width=".529167"/><path d="m2.9104168 2.3812499c.4397375 0 .79375.3540125.79375.79375s-.3540125.79375-.79375.79375-.79375-.3540125-.79375-.79375.3540125-.79375.79375-.79375z" fill="#ecf6ff" stroke-width=".396875"/><path d="m2.9104168 2.9104167c.1465792 0 .2645834.1180042.2645834.2645833 0 .1465792-.1180042.2645834-.2645834.2645834-.1465791 0-.2645833-.1180042-.2645833-.2645834 0-.1465791.1180042-.2645833.2645833-.2645833z" fill="#4b6477" stroke-width=".132291"/></g></g></svg>