<svg height="32" viewBox="0 0 32 32" width="32" xmlns="http://www.w3.org/2000/svg"><g transform="translate(84 -286.64999)"><path d="m-79 287.64997h21.999999c1.108 0 2 .89202 2 2.00001v26.00001c0 1.10797-.892 1.99998-2 1.99998h-21.999999c-1.108 0-2-.89201-2-1.99998v-26c0-1.108.892-2 2-2.00002z" fill="#36404d"/><path d="m-78.999999 288.65001h21.999999c.554 0 1 .44599 1 1v26c0 .55401-.446 1-1 1h-21.999999c-.554 0-1-.44599-1-1v-26c0-.55399.446-1 1-1z" fill="#465b6c"/><path d="m-79 288.64999c-.553947 0-1 .4461-1 1.00003v1.99997 1.00003h1 2 1v-1.00003-1.99997-1.00003h-1zm3 4.00003v3.99998h4v-3.99998zm4 0h4v-4.00003h-4zm4 0v3.99998h4v-3.99998zm4 0h4v-4.00003h-4zm4 0v3.99998h4v-3.99998zm0 3.99998h-4v3.99999h4zm0 3.99999v4.00003h4v-4.00003zm0 4.00003h-4v3.99998h4zm0 3.99998v.99999 2.00001.99999h3 1v-.99999-3zm0 3.99999h-4v4.00003h4zm-4 0v-3.99999h-4v3.99999zm-4 0h-4v4.00003h4zm-4 0v-3.99999h-4v3.99999zm-4 0h-4v3s-.0037 1.00003 1.000001 1.00002l2.999999.00001zm0-3.99999v-3.99998h-4v3.99998zm0-3.99998h4v-4.00003h-4zm0-4.00003v-3.99999h-4v3.99999zm4 0h4v-3.99999h-4zm4 0v4.00003h4v-4.00003zm0 4.00003h-4v3.99998h4z" fill="#3b4f5e"/><path d="m-75 295.64999h7v7h-7z" fill="#c74343"/><path d="m-68 295.64999h7v7h-7z" fill="#5e9c76"/><path d="m-75 302.64999h7v7h-7z" fill="#287bc2"/><path d="m-68 302.64999h7v7h-7z" fill="#ffb851" fill-opacity=".960784"/><path d="m-74 296.64999h5v5h-5z" fill="#f78f8f"/><path d="m-67 296.64999h5v5h-5z" fill="#bae0bd"/><path d="m-74 303.64999h5v5h-5z" fill="#78c1ff"/><path d="m-67 303.64999h5v5h-5z" fill="#ffeea3"/></g></svg>