<svg height="32" viewBox="0 0 32 32" width="32" xmlns="http://www.w3.org/2000/svg"><g transform="translate(0 -282.64999)"><g transform="translate(28 -.00002)"><path d="m-22.999999 283.65001h21.9999988c1.108 0 2 .89202 2 2.00001v26.00001c0 1.10797-.892 1.99998-2 1.99998h-21.9999988c-1.108 0-2-.89201-2-1.99998v-26c0-1.108.892-2 2-2.00002z" fill="#dd4f66"/><path d="m-22.999999 284.65003h21.9999988c.554 0 1 .44599 1 1v26c0 .55401-.446 1-1 1h-21.9999988c-.554 0-1-.44599-1-1v-26c0-.55399.446-1 1-1z" fill="#ff778a"/></g><path d="m6 286.64999h5v2h-5z" fill="#fbebee"/><path d="m12 286.64999h2v2h-2z" fill="#fbebee"/><path d="m15 286.64999h5v2h-5z" fill="#dd4f66"/><path d="m21 286.64999h2v2h-2z" fill="#fbebee"/><path d="m6 289.64999h8v2h-8z" fill="#dd4f66"/><path d="m15 289.64999h2v2h-2z" fill="#fbebee"/><path d="m18 289.64999h5v2h-5z" fill="#fbebee"/><path d="m6 292.64999h2v2h-2z" fill="#dd4f66"/><path d="m9 292.64999h2v2h-2z" fill="#fbebee"/><path d="m12 292.64999h5v2h-5z" fill="#fbebee"/><path d="m18 292.64999h2v2h-2z" fill="#dd4f66"/><path d="m21 292.64999h2v2h-2z" fill="#fbebee"/><path d="m6 295.64999h5v2h-5z" fill="#fbebee"/><path d="m6 298.64999h2v2h-2z" fill="#fbebee"/><path d="m9 298.64999h5v2h-5z" fill="#dd4f66"/><path d="m6 301.64999h5v2h-5z" fill="#fbebee"/><path d="m6 304.64999h2v2h-2z" fill="#dd4f66"/><path d="m13 304.64999h2v2h-2z" fill="#fbebee"/><path d="m9 304.64999h3v2h-3z" fill="#fbebee"/><path d="m6 307.64999h5v2h-5z" fill="#fbebee"/><path d="m12 307.64999h3v2h-3z" fill="#dd4f66"/><path d="m12 301.64999h2v2h-2z" fill="#fbebee"/><path d="m12 295.64999h2v2h-2z" fill="#fbebee"/><path d="m15 295.64999h5v2h-5z" fill="#fbebee"/><g fill-rule="evenodd"><path d="m21 308.64999-6-7h4z" fill="#fbe0e5"/><path d="m21 308.64999 2-7h4z" fill="#fbebee" fill-opacity=".9"/><path d="m15 301.64999 2-2 2 2z" fill="#fcc8d0"/><path d="m17 299.64999 2 2 2-2z" fill="#fbebee"/><path d="m19 301.64999 2-2 2 2z" fill="#fcabb7"/><path d="m21 299.64999 2 2 2-2z" fill="#fbebee"/><path d="m23 301.64999 2-2 2 2z" fill="#fcc8d0"/></g><path d="m19 301.64999h4l-2 7z" fill="#fcc8d0" stroke-linecap="square" stroke-miterlimit="1.8" stroke-width="2"/></g></svg>