<svg height="32" viewBox="0 0 32 32" width="32" xmlns="http://www.w3.org/2000/svg"><g transform="translate(84 -286.64999)"><path d="m-79 287.64997h21.999999c1.108 0 2 .89202 2 2.00001v26.00001c0 1.10797-.892 1.99998-2 1.99998h-21.999999c-1.108 0-2-.89201-2-1.99998v-26c0-1.108.892-2 2-2.00002z" fill="#363f4c" fill-opacity=".984314"/><path d="m-78.999999 288.65001h21.999999c.554 0 1 .44599 1 1v26c0 .55401-.446 1-1 1h-21.999999c-.554 0-1-.44599-1-1v-26c0-.55399.446-1 1-1z" fill="#496277"/><path d="m26.000355 281.98332a1.6668334 1.6668334 0 0 0 -1.165365 2.85807l3.580729 3.50586c-.427506.28651-.831996.60479-1.207682.95052-1.458761 1.34244-2.588116 3.06456-3.489583 4.85352-1.802934 3.57792-2.7181 7.25911-2.7181 9.49869a1.6668334 1.6668334 0 0 0 2.845053 1.17839c.809507-.8095 1.128552-1.64668 1.679687-2.6237.551135-.97701 1.212499-2.05217 2.125651-3.05664 1.582122-1.74033 3.866228-3.33714 7.981771-3.73372l4.202474 4.11458a1.6668334 1.6668334 0 0 0 2.832032-1.19141v-14.6875a1.6668334 1.6668334 0 0 0 -1.666667-1.66666z" fill="#f9fdff" fill-rule="evenodd" transform="matrix(.6 0 0 .6 -90.599999 131.46)"/></g></svg>