<svg height="32" viewBox="0 0 32 32" width="32" xmlns="http://www.w3.org/2000/svg"><g transform="translate(0 -282.64999)"><path d="m5.000001 283.64999h21.999999c1.108 0 2 .89202 2 2.00001v26.00001c0 1.10797-.892 1.99998-2 1.99998h-21.999999c-1.108 0-2-.89201-2-1.99998v-26c0-1.108.892-2 2-2.00002z" fill="#36404d"/><path d="m5.000001 284.65001h21.999999c.554 0 1 .44599 1 1v26c0 .55401-.446 1-1 1h-21.999999c-.554 0-1-.44599-1-1v-26c0-.55399.446-1 1-1z" fill="#4b6477"/><path d="m6 286.64999h5v2h-5z" fill="#6bb1ff"/><path d="m12 286.64999h2v2h-2z" fill="#ffeba0"/><path d="m15 286.64999h5v2h-5z" fill="#ffeba0"/><path d="m21 286.64999h2v2h-2z" fill="#6bb1ff"/><path d="m6 289.64999h8v2h-8z" fill="#ffeba0"/><path d="m15 289.64999h2v2h-2z" fill="#6bb1ff"/><path d="m18 289.64999h5v2h-5z" fill="#6bb1ff"/><path d="m6 292.64999h2v2h-2z" fill="#6bb1ff"/><path d="m9 292.64999h2v2h-2z" fill="#ffeba0"/><path d="m12 292.64999h5v2h-5z" fill="#6bb1ff"/><path d="m18 292.64999h2v2h-2z" fill="#ffeba0"/><path d="m21 292.64999h2v2h-2z" fill="#6bb1ff"/><path d="m6 295.64999h5v2h-5z" fill="#ffeba0"/><path d="m6 298.64999h2v2h-2z" fill="#ffeba0"/><path d="m9 298.64999h2v2h-2z" fill="#ffeba0"/><path d="m6 301.64999h5v2h-5z" fill="#6bb1ff"/><path d="m6 304.64999h2v2h-2z" fill="#6bb1ff"/><path d="m9 304.64999h2v2h-2z" fill="#ffeba0"/><path d="m6 307.64999h5v2h-5z" fill="#6bb1ff"/><path d="m12 295.64999h2v2h-2z" fill="#6bb1ff"/><g stroke-linecap="square" stroke-miterlimit="1.8"><path d="m40.302734 294.64998c-1.666572 0-3.062514 1.25264-3.273437 2.87109l-.06836.53321c-1.084259.43141-1.960937 1.29615-1.960937 2.52539v3.14062c0 1.60569 1.324005 2.92969 2.929688 2.92969h1.070312v-3c0-.0352.000154-.069.002-.10352.0017-.0326.0042-.0674.0078-.10351.003-.0296.0082-.0653.01367-.10156.0065-.0429.01261-.0732.01758-.0977.008-.0391.015-.0724.02148-.0977.0059-.0231.01508-.0562.02734-.0957.0093-.0301.01949-.0596.03125-.0918.01536-.0421.0273-.0712.03516-.0898.0093-.0221.02156-.0515.03906-.0879.01118-.0233.0264-.0518.04492-.0859.01841-.034.0359-.0646.04883-.0859.01305-.0215.02874-.0474.05078-.0801h.002c.02541-.0377.04117-.0626.05273-.0781.01302-.0174.03424-.0423.06055-.0742.02675-.0324.04791-.0582.0625-.0742.01486-.0164.03662-.0385.06641-.0684.02937-.0294.05211-.0517.06836-.0664.01663-.0151.04226-.0362.07422-.0625.03252-.0268.05729-.0478.07422-.0605.01569-.0117.04033-.0292.07813-.0547.03271-.022.05872-.0378.08008-.0508.02101-.0127.0511-.0299.08594-.0488.03524-.0191.06361-.0342.08594-.0449.03583-.0172.06524-.0294.08789-.0391l.002-.002c.01936-.008.04843-.0189.08789-.0332h.002c.03187-.0116.06117-.0217.0918-.0312.03886-.0121.06993-.0212.09375-.0273.02524-.006.06051-.0154.09961-.0234.02359-.005.05239-.009.0957-.0156h.0039l.0039-.002c.02391-.004.05699-.008.0918-.0117.03759-.004.07349-.006.107422-.008h.002.0039c.02553-.001.0566-.002.0957-.002h2.5 1.5 2v-1.07031-2.42969c0-1.939-1.561003-3.5-3.5-3.5h-.802946-2.197266zm-2.892578 5.14844c.201106.3778.469273.71346.789063.99219-.009.009-.02101.021-.0293.0293-.03799.038-.0832.084-.132813.13867-.04937.0544-.09098.10329-.125.14454-.03473.0421-.07469.0908-.11914.15039-.04592.0615-.08294.11609-.111328.1582-.03143.0466-.06708.10011-.103516.16016-.03709.0612-.06804.11889-.0957.16992-.02756.0509-.05705.10773-.08789.17187-.02454.051-.05348.11001-.08203.17774-.02998.0712-.05212.13176-.07031.18164-.02178.0597-.04271.1217-.0625.18554-.01688.0544-.03602.1185-.05469.19141-.0181.0707-.03291.13463-.04492.19336v.002c-.01495.0734-.02455.13859-.0332.19532-.0096.0632-.01818.12973-.02539.20117-.0066.065-.01208.13317-.01563.20312-.0034.068-.0059.13648-.0059.20508v-3.07031c0-.33758.158387-.61921.410156-.78125z" fill="#f7b656" transform="matrix(-1 0 -0 -1 62.000212 605.76472)"/><path d="m24 300.11483v2c0 .0519-.001306.10302-.003906.1543-.0026.0513-.006599.10179-.011719.15234-.0051.0505-.011971.10259-.019531.15235-.003956.02592-.009323.0509-.013672.07617h-7.951172v2.46484.07032.46484 1.96484c0 1.385 1.115003 2.5 2.5 2.5h.802734 2.197266.197266c1.172588 0 2.133837-.86886 2.28125-2h-.027344-4.951172v-1h4.951172.048828.070312c1.069531 0 1.929688-.86014 1.929688-1.92968v-3.14063c0-1.06954-.860157-1.92969-1.929688-1.92969z" fill="#ffeba0" stroke-width="2"/><path d="m40.302734 294.64998c-1.666572 0-3.062514 1.25264-3.273437 2.87109l-.068359.53321c-1.08426.43141-1.960938 1.29615-1.960938 2.52539v3.14062c0 1.60569 1.324005 2.92969 2.929688 2.92969h1.070312v-3c0-.0352.000154-.069.001953-.10352.0017-.0326.004213-.0674.007813-.10351.003-.0296.008202-.0653.013672-.10156.006499-.0429.012608-.07316.017578-.09766.008-.0391.015004-.07236.021484-.09766.0059-.0231.015084-.0562.027344-.0957.0093-.0301.01949-.0596.03125-.0918.01536-.0421.027296-.07124.035156-.08984.0093-.0221.021563-.05149.039062-.08789.01118-.0233.026402-.05184.044922-.08594.01841-.034.035899-.06464.048828-.08594.01305-.0215.028742-.04737.050782-.08007h.001953c.02541-.0377.041174-.06263.052734-.07813.01302-.0174.034237-.04232.060547-.07422.02675-.0324.04791-.05822.0625-.07422.01486-.0164.036616-.03846.066406-.06836.02937-.0294.05211-.0517.06836-.0664.01663-.0151.042259-.0362.074218-.0625.03252-.0268.057289-.04785.074219-.06055.01569-.0117.040325-.02919.078125-.05469.03271-.022.058718-.03778.080078-.05078.02101-.0127.051098-.02993.085938-.04883.03524-.0191.063607-.03422.085937-.04492.03583-.0172.065241-.02936.087891-.03906l.001953-.00195c.01936-.008.048431-.01891.087891-.03321h.001953c.03187-.0116.061167-.02175.091797-.03125.03886-.0121.06993-.02124.09375-.02734.02524-.006.060509-.01544.099609-.02344.02359-.005.052393-.00902.095703-.01562h.003906l.003907-.00196c.02391-.004.056987-.00801.091797-.01171.03759-.004.073491-.00582.107422-.00782h.001953.003906c.02553-.001.056603-.00195.095703-.00195h2.5 1.5 2v-1.07031-2.42969c0-1.939-1.561003-3.5-3.5-3.5h-.802734-2.197266zm-2.892578 5.14844c.201106.3778.469273.71346.789063.99219-.008971.00885-.021011.02101-.029297.02929-.03799.038-.0832.084-.132813.13867-.04937.0544-.09098.10329-.125.14454-.03473.04209-.07469.0908-.11914.15039-.04592.0615-.08294.11609-.111328.1582-.03143.0466-.06708.10011-.103516.16016-.03709.06119-.068043.11889-.095703.16992-.02756.0509-.057051.10773-.087891.17187-.02454.051-.053481.11001-.082031.17774-.02998.0712-.052123.13176-.070312.18164-.02178.0597-.042711.1217-.0625.18554-.01688.0544-.036018.1185-.054688.19141-.0181.0707-.032912.13463-.044922.19336v.00195c-.01495.0734-.024553.13859-.033203.19532-.0096.06319-.018181.12973-.025391.20117-.0066.065-.012075.13317-.015625.20312-.0034.068-.005859.13648-.005859.20508v-3.07031c0-.33758.158387-.61921.410156-.78125z" fill="#3079cf" fill-opacity=".980392" transform="translate(-22 2.00001)"/><path d="m18.302734 297.64999c-1.17259 0-2.133837.86886-2.28125 2h.027344 4.951172v1h-4.951172-.048828-.070312c-1.069532 0-1.929688.86015-1.929688 1.92969v3.14062c0 1.06954.860156 1.92969 1.929688 1.92969h.070312v-2c0-.0519.001306-.10302.003906-.1543.0026-.0513.006599-.10179.011719-.15234.0051-.0505.011971-.10258.019531-.15234.0076-.0498.015431-.0976.025391-.14649.01-.0489.020913-.0985.033203-.14648.01229-.048.026446-.0956.041016-.14258.01457-.047.030105-.0927.046875-.13867.01678-.046.033814-.0918.052734-.13672.01893-.0449.039527-.0891.060547-.13281.02101-.0437.043366-.0864.066406-.12891.02304-.0425.047256-.0857.072266-.12695.025-.0412.051215-.0812.078125-.1211.0269-.0399.053291-.07871.082031-.11718.02874-.0385.059324-.07631.089844-.11329.03052-.037.06151-.0739.09375-.10937.03224-.0355.065719-.0696.099609-.10352.03389-.0339.06803-.06741.103516-.09961.03548-.0322.07236-.06325.109375-.09375.03701-.0305.0748-.06114.113281-.08984.03848-.0287.077302-.05513.117187-.08203.03989-.0269.07986-.05313.121094-.07813.04123-.025.08444-.04916.126953-.07226.04251-.023.08517-.04541.128907-.06641.04373-.021.08792-.04156.132812-.06054.04489-.0189.09073-.03604.136719-.05274.04599-.0168.09164-.03227.138672-.04687.04703-.0146.09458-.02872.142578-.04102.048-.0123.09757-.0232.146484-.0332.04891-.01.09672-.01779.146485-.02539.04976-.008.101795-.01445.152343-.01953.05055-.005.10107-.00902.152344-.01172.05127-.003.102359-.00391.154297-.00391h2.5.5 2v-.07031-2.42969c0-1.385-1.115002-2.5-2.5-2.5h-.802734-2.197266z" fill="#6bb1ff" stroke-width="2"/></g></g></svg>