<?xml version="1.0" encoding="UTF-8" standalone="no"?>
<svg
   height="32"
   viewBox="0 0 32 32"
   width="32"
   version="1.1"
   id="svg6"
   sodipodi:docname="application-x-mplayer2.svg"
   inkscape:version="1.4.2 (ebf0e940d0, 2025-05-08)"
   xmlns:inkscape="http://www.inkscape.org/namespaces/inkscape"
   xmlns:sodipodi="http://sodipodi.sourceforge.net/DTD/sodipodi-0.dtd"
   xmlns="http://www.w3.org/2000/svg"
   xmlns:svg="http://www.w3.org/2000/svg">
  <defs
     id="defs6" />
  <sodipodi:namedview
     id="namedview6"
     pagecolor="#ffffff"
     bordercolor="#000000"
     borderopacity="0.25"
     inkscape:showpageshadow="2"
     inkscape:pageopacity="0.0"
     inkscape:pagecheckerboard="0"
     inkscape:deskcolor="#d1d1d1"
     showgrid="true"
     inkscape:zoom="36.5"
     inkscape:cx="15.986301"
     inkscape:cy="16"
     inkscape:window-width="2560"
     inkscape:window-height="1367"
     inkscape:window-x="0"
     inkscape:window-y="0"
     inkscape:window-maximized="1"
     inkscape:current-layer="svg6">
    <inkscape:grid
       id="grid6"
       units="px"
       originx="0"
       originy="0"
       spacingx="1"
       spacingy="1"
       empcolor="#0099e5"
       empopacity="0.30196078"
       color="#0099e5"
       opacity="0.14901961"
       empspacing="5"
       enabled="true"
       visible="true" />
  </sodipodi:namedview>
  <g
     transform="matrix(1.1506849,0,0,1,27.493152,-1020.3622)"
     id="g6">
    <path
       d="M -21,1021.3622 H 0.999999 c 1.108,0 2,0.892 2,2 v 26 c 0,1.108 -0.892,2 -2,2 H -21 c -1.108,0 -2,-0.892 -2,-2 v -26 c 0,-1.108 0.892,-2 2,-2 z"
       fill="#36404d"
       id="path1" />
    <path
       d="M -21,1022.3622 H 0.999999 c 0.554,0 1,0.446 1,1 v 26 c 0,0.554 -0.446,1 -1,1 H -21 c -0.554,0 -1,-0.446 -1,-1 v -26 c 0,-0.554 0.446,-1 1,-1 z"
       fill="#4b6477"
       id="path2" />
    <path
       d="m -21,1024.3622 v 3 h 2 v -3 z m 0,5 v 3 h 2 v -3 z m 0,5 v 3 h 2 v -3 z m 0,5 v 3 h 2 v -3 z m 0,5 v 3 h 2 v -3 z"
       fill="#e1ebf2"
       id="path3" />
    <path
       d="m -1,1024.3622 v 3 h 2 v -3 z m 0,5 v 3 h 2 v -3 z m 0,5 v 3 h 2 v -3 z m 0,5 v 3 h 2 v -3 z m 0,5 v 3 h 2 v -3 z"
       fill="#e1ebf2"
       id="path4" />
    <path
       d="m -16.000001,1024.3622 h 12.0000017 c 0.5539996,0 0.9999993,0.446 0.9999993,1 v 22 c 0,0.554 -0.4459997,1 -0.9999993,1 H -16.000001 c -0.553999,0 -0.999999,-0.446 -0.999999,-1 v -22 c 0,-0.554 0.446,-1 0.999999,-1 z"
       fill="#44acff"
       id="path5" />
    <path
       d="M 18.988281,0 C 18.440601,0.00647283 18.000017,0.45228186 18,1 v 8 c 1.71e-4,0.798587 0.890134,1.274874 1.554688,0.8320312 l 6,-4 c 0.593588,-0.3958834 0.593588,-1.268179 0,-1.6640624 l -6,-4.00000005 C 19.387108,0.05621879 19.18969,-0.00232579 18.988281,0 Z"
       fill="#e1ebf2"
       transform="translate(-32,1031.3615)"
       id="path6" />
  </g>
</svg>
