<?xml version="1.0" encoding="UTF-8" standalone="no"?>
<svg
   height="32"
   viewBox="0 0 32 32"
   width="32"
   version="1.1"
   id="svg153"
   sodipodi:docname="application-x-audacity-project.svg"
   inkscape:version="1.2.2 (b0a8486541, 2022-12-01)"
   xmlns:inkscape="http://www.inkscape.org/namespaces/inkscape"
   xmlns:sodipodi="http://sodipodi.sourceforge.net/DTD/sodipodi-0.dtd"
   xmlns="http://www.w3.org/2000/svg"
   xmlns:svg="http://www.w3.org/2000/svg">
  <defs
     id="defs157" />
  <sodipodi:namedview
     id="namedview155"
     pagecolor="#ffffff"
     bordercolor="#000000"
     borderopacity="0.25"
     inkscape:showpageshadow="2"
     inkscape:pageopacity="0.0"
     inkscape:pagecheckerboard="0"
     inkscape:deskcolor="#d1d1d1"
     showgrid="false"
     inkscape:zoom="32.90625"
     inkscape:cx="16"
     inkscape:cy="15.984805"
     inkscape:window-width="2560"
     inkscape:window-height="1363"
     inkscape:window-x="0"
     inkscape:window-y="0"
     inkscape:window-maximized="1"
     inkscape:current-layer="g151" />
  <g
     transform="translate(6.375 -264.64999)"
     id="g151">
    <path
       d="m-1.3749994 265.64999h21.9999994c1.108 0 2 .892 2 2v26c0 1.108-.892 2-2 2h-21.9999994c-1.108 0-2-.892-2-2v-26c0-1.108.892-2 2-2z"
       fill="#2764c9"
       id="path141" />
    <path
       d="m-1.3749994 266.64999h21.9999994c.554 0 1 .446 1 1v26c0 .554-.446 1-1 1h-21.9999994c-.554 0-1-.446-1-1v-26c0-.554.446-1 1-1z"
       fill="#4f8df8"
       id="path143" />
    <path
       id="path145-6"
       d="m 9.1249997,272.6492 c -4.1549801,0 -7.4999993,3.345 -7.4999993,7.5 0,0.16824 0.00678,0.33458 0.017578,0.5 h -0.017578 v 0.66797 c -0.62502645,0.7725 -1.00000005,1.75644 -1.00000005,2.83203 0,2.493 2.00700855,4.5 4.50000005,4.5 h 0.5 v -3 h 2 a 1.0001,1.0001 0 0 0 0.9492183,-0.68359 l 0.05078,-0.15235 1.050782,3.15235 a 1.0001,1.0001 0 0 0 1.8984373,0 l 0.771484,-2.31641 H 13.625 v 3 h 0.5 c 2.492992,0 4.5,-2.007 4.5,-4.5 0,-1.07559 -0.374973,-2.05953 -1,-2.83203 v -0.66797 h -0.01758 c 0.0108,-0.16542 0.01758,-0.33176 0.01758,-0.5 0,-4.155 -3.345019,-7.5 -7.5,-7.5 z m 0.5,2 c 3.0656703,0 5.5788723,2.27679 5.9511723,5.23828 -0.454957,-0.15394 -0.942928,-0.23828 -1.451172,-0.23828 h -0.5 v 4 h -2 a 1.0001,1.0001 0 0 0 -0.949218,0.68359 l -0.05078,0.15235 -1.0507814,-3.15235 A 1.0001,1.0001 0 0 0 8.6249997,280.6492 1.0001,1.0001 0 0 0 7.6757815,281.33279 L 6.9042972,283.6492 H 5.6250004 v -4 h -0.5 c -0.5082435,0 -0.9962143,0.0843 -1.4511719,0.23828 0.3723007,-2.96149 2.885502,-5.23828 5.9511712,-5.23828 z"
       style="fill:#fafcff;fill-opacity:1" />
  </g>
</svg>
