<svg height="32" viewBox="0 0 32 32" width="32" xmlns="http://www.w3.org/2000/svg"><g transform="translate(84 -286.64999)"><path d="m-78.999999 287.64999h21.999999c1.108 0 2 .89202 2 2.00001v26.00001c0 1.10797-.892 1.99998-2 1.99998h-21.999999c-1.108 0-2-.89201-2-1.99998v-26c0-1.108.892-2 2-2.00002z" fill="#a3b7cc"/><path d="m-78.999999 288.65001h21.999999c.554 0 1 .44599 1 1v26c0 .55401-.446 1-1 1h-21.999999c-.554 0-1-.44599-1-1v-26c0-.55399.446-1 1-1z" fill="#fafafa"/><path d="m.31505312 292.32434c-.14656525 0-.26458332.11803-.26458332.26459v.52916.26459h.26458332.52916665.26458333v-.26459-.52916-.26459h-.26458333zm.79374998 1.05834v1.05833h1.0583333v-1.05833zm1.0583333 0h1.0583333v-1.05834h-1.0583333zm1.0583333 0v1.05833h1.0583333v-1.05833zm1.0583333 0h1.0583333v-1.05834h-1.0583333zm1.0583333 0v1.05833h1.0583333v-1.05833zm0 1.05833h-1.0583333v1.05833h1.0583333zm0 1.05833v1.05834h1.0583333v-1.05834zm0 1.05834h-1.0583333v1.05833h1.0583333zm0 1.05833v.26458.52917.26458h.7937499.2645834v-.26458-.79375zm0 1.05833h-1.0583333v1.05834h1.0583333zm-1.0583333 0v-1.05833h-1.0583333v1.05833zm-1.0583333 0h-1.0583333v1.05834h1.0583333zm-1.0583333 0v-1.05833h-1.0583333v1.05833zm-1.0583333 0h-1.0583333v1.05834h1.0583333zm0-1.05833v-1.05833h-1.0583333v1.05833zm0-1.05833h1.0583333v-1.05834h-1.0583333zm0-1.05834v-1.05833h-1.0583333v1.05833zm1.0583333 0h1.0583333v-1.05833h-1.0583333zm1.0583333 0v1.05834h1.0583333v-1.05834zm0 1.05834h-1.0583333v1.05833h1.0583333z" fill="#e7ebf0" transform="matrix(3.7795277 0 0 3.7795277 -80.190752 -816.19796)"/></g><g stroke-linecap="round" stroke-linejoin="round" stroke-miterlimit="1.8" stroke-width=".529167" transform="matrix(3.7795276 0 0 3.7795276 4 4)"><path d="m1.3229165 4.2333335h3.7041667c.1465792.0000001.2645833.1180042.2645833.2645833v1.0583336c0 .1465792-.1180041.2645834-.2645833.2645833h-3.7041667c-.1465791 0-.2645833-.1180041-.2645833-.2645833v-1.0583336c0-.1465791.1180042-.2645833.2645833-.2645833z" fill="#36404d"/><path d="m1.3229166 4.4979166h3.7041666v1.0583333h-3.7041666z" fill="#4b6477"/><path d="m1.3229165.79374998h3.7041667c.1465792 0 .2645833.11800416.2645833.26458332v3.7041667c0 .1465792-.1180041.2645833-.2645833.2645833h-3.7041667c-.1465791 0-.2645833-.1180041-.2645833-.2645833v-3.7041667c0-.14657916.1180042-.26458332.2645833-.26458332z" fill="#a3b7cc"/><path d="m1.3229166 1.0583333h3.7041666v3.7041666h-3.7041666z" fill="#e1ebf2"/><path d="m1.5875 5.291667h2.645833v.529167h-2.645833z" fill="#36404d"/><g fill="#fdd837"><path d="m1.8520832 5.2916666h.5291666v.2645833h-.5291666z"/><path d="m2.6458332 5.2916666h.5291666v.2645833h-.5291666z"/><path d="m3.4395832 5.2916666h.5291666v.2645833h-.5291666z"/></g></g></svg>