<svg height="32" viewBox="0 0 32 32" width="32" xmlns="http://www.w3.org/2000/svg"><g transform="translate(16 -294.64999)"><path d="m-11 295.64999h21.999999c1.108 0 2 .892 2 2v26c0 1.108-.892 2-2 2h-21.999999c-1.108 0-2-.892-2-2v-26c0-1.108.892-2 2-2z" fill="#2fa76c"/><path d="m-11 296.64999h21.999999c.554 0 1 .446 1 1v26c0 .554-.446 1-1 1h-21.999999c-.554 0-1-.446-1-1v-26c0-.554.446-1 1-1z" fill="#53d18a"/></g><path d="m13.476561 288.17223c-2.482064.0126-4.4765621 2.01485-4.4765621 4.5 0 2.47008 1.9705491 4.46165 4.4316411 4.49805.02283 0 .04544.002.06836.002h.5 1 1 .511718c.04791.00037.09586.003.142578.008.04321.004.08493.0116.126953.0195.0071.001.01438.002.02148.004.0032.00065.0066.001.0098.002.0086.002.0169.004.02539.006.03972.009.07876.0191.117188.0312.04411.0139.08668.0291.128906.0469.0027.001.0052.003.0078.004.0421.018.08501.0369.125.0586.002.001.0038.003.0059.004.04033.0221.07924.0467.117188.0723.0019.001.0039.003.0059.004.03781.0258.07417.053.109375.082.0014.001.0025.003.0039.004.03671.0305.07186.0619.105468.0957.02625.0264.05195.0556.07617.084.0057.007.012.0128.01758.0195.0012.001.0028.002.0039.004.02923.0357.05615.073.08203.11133.00081.001.0012.003.002.004.05302.0791.09933.16309.136719.25196.000229.00054-.000228.001 0 .002.01864.0444.0364.0883.05078.13476.0037.012.0063.0249.0098.0371.0214.0759.03562.15402.04492.23438.000846.007.0032.0141.0039.0215.000066.00065-.000065.001 0 .002.005.0499.0078.10106.0078.15234 0 .0517-.0028.10203-.0078.15234-.000063.00064.000065.001 0 .002-.000745.007-.0031.0142-.0039.0215-.0093.0804-.02352.15847-.04492.23438-.0033.0116-.0062.0237-.0098.0352-.000185.0006.000186.001 0 .002-.01431.0462-.03226.0906-.05078.13476-.000237.00057.000238.001 0 .002-.03739.0889-.0837.17287-.136719.25196-.000805.001-.0011.003-.002.004-.02597.0385-.05268.0755-.08203.11133-.0012.001-.0027.002-.0039.004-.02923.0354-.05947.0709-.0918.10351-.0013.001-.0026.003-.0039.004-.03244.0324-.06821.0624-.103515.0918-.0014.001-.0025.003-.0039.004-.03541.0292-.07133.0561-.109375.082-.0019.001-.0039.003-.0059.004-.03777.0255-.07705.0503-.117188.0723-.0021.001-.0038.003-.0059.004-.04027.0218-.08259.0404-.125.0586-.0027.001-.0051.003-.0078.004-.04203.0177-.085.033-.128906.0469-.03843.0122-.07747.0222-.117187.0312-.0085.002-.01681.004-.02539.006-.0033.00068-.0065.001-.0098.002-.0071.001-.01439.003-.02148.004-.04202.008-.08375.0152-.126954.0195-.05055.005-.102359.008-.154296.008h-1.5-3-1.511719c-.8245854 0-1.4882814.66369-1.4882814 1.48828v.0234c0 .82459.663696 1.48828 1.4882814 1.48828h1.511719 3 1.511718c.01891-.00046.03772-.002.05664-.002.07686-.001.152663-.005.228516-.01.07596-.005.151697-.0109.226562-.0195.07486-.009.148987-.019.222657-.0312.06109-.0101.121426-.0207.18164-.0332.01243-.003.02472-.005.03711-.008.06043-.0131.120209-.0275.179688-.043.01181-.003.02338-.007.03516-.01.0066-.002.01296-.004.01953-.006.06435-.0176.128259-.0362.191406-.0566.06967-.0225.138911-.0465.207031-.0723.06787-.0256.134935-.0532.201172-.082.057-.0247.114189-.0492.169922-.0762.0092-.004.01821-.009.02734-.0137.0091-.004.01826-.009.02734-.0137.05549-.0279.109926-.0579.164063-.0879.0627-.0348.124744-.0698.185546-.10742.05337-.033.10636-.0664.158204-.10157.0073-.005.01417-.0106.02148-.0156.05164-.0355.102305-.0738.152343-.11133.0071-.005.01445-.0103.02148-.0156.05054-.0384.09961-.0767.148438-.11718.006-.005.01155-.0106.01758-.0156.05458-.0457.107836-.0924.160156-.14062.0524-.0483.10426-.0977.154297-.14844.04517-.0458.08963-.0929.132813-.14063.0046-.005.0091-.0105.01367-.0156.04355-.0486.08553-.098.126954-.14844.0038-.005.0079-.009.01172-.0137.01173-.0144.02165-.0304.0332-.0449.03301-.0416.06611-.0822.09766-.125.0396-.0536.07801-.10668.115234-.16211.0026-.004.0052-.008.0078-.0117.03708-.0556.07279-.11261.107422-.16992.0024-.004.0054-.008.0078-.0117.03447-.0575.06767-.11667.09961-.17578.01771-.0328.03387-.0663.05078-.0996.01779-.035.03584-.0699.05273-.10547.02948-.062.05925-.12399.08594-.1875.0013-.003.0026-.007.0039-.01.02679-.0642.05035-.12966.07422-.19531.00099-.003.0029-.005.0039-.008.02375-.0657.04566-.13208.06641-.19922.02185-.0707.04213-.14266.06055-.21484.000506-.002.0015-.004.002-.006.0054-.0212.0086-.0432.01367-.0645.01209-.0507.02479-.10094.03516-.15234.01442-.0715.02806-.14216.03906-.21484.000191-.001-.000191-.003 0-.004.01104-.0733.01986-.14817.02734-.22266.000065-.00064-.000065-.001 0-.002.0074-.0745.01377-.14906.01758-.22461.000032-.00064-.000032-.001 0-.002.0038-.0762.0059-.15328.0059-.23047 0-.0745-.0023-.1491-.0059-.22266-.000128-.003.000132-.005 0-.008-.0027-.0539-.0072-.10683-.01172-.16015-.0019-.0223-.0036-.0442-.0059-.0664-.0016-.0157-.0041-.0312-.0059-.0469-.0047-.0419-.0098-.0835-.01563-.125-.0058-.042-.01257-.0834-.01953-.125-.000979-.006-.000953-.0117-.002-.0176-.0074-.043-.01479-.0863-.02344-.12891-.0013-.007-.0026-.013-.0039-.0195-.008-.0387-.01833-.0769-.02734-.11524-.0084-.0358-.01617-.072-.02539-.10742-.03152-.12121-.06827-.24048-.109375-.35742-.03517-.10006-.07335-.19829-.115234-.29492-.02058-.0475-.0423-.096-.06445-.14258l-.002-.002c-.01789-.0376-.0358-.0743-.05469-.11133-.0049-.01-.0087-.0197-.01367-.0293-.000673-.001-.0013-.003-.002-.004-.04744-.091-.09899-.18041-.152344-.26758-.03042-.0497-.06148-.10003-.09375-.14844-.0076-.0113-.01576-.0219-.02344-.0332-.03228-.0475-.06558-.0945-.09961-.14063-.01599-.0217-.03247-.0431-.04883-.0645-.02731-.0357-.05368-.0706-.08203-.10547-.0044-.005-.0093-.0103-.01367-.0156-.02856-.0348-.05831-.0697-.08789-.10352-.0046-.005-.0091-.0104-.01367-.0156-.0079-.009-.01547-.0184-.02344-.0273-.0267-.0298-.05455-.0588-.08203-.0879-.02161-.0229-.04237-.0459-.06445-.0684-.01419-.0144-.02858-.0288-.04297-.043-.03621-.0358-.07392-.0709-.111328-.10547l-.002-.002c-.0517-.0477-.104295-.0935-.158203-.13867-.06565-.055-.13239-.10699-.201172-.1582-.02358-.0176-.04637-.0356-.07031-.0527-.01814-.013-.03635-.0264-.05469-.0391-.0046-.003-.0091-.007-.01367-.01-.08127-.0558-.164958-.10769-.25-.1582-.03786-.0225-.07667-.045-.115235-.0664-.0071-.004-.01437-.008-.02148-.0117-.05606-.0308-.11243-.0614-.169921-.0898-.0044-.002-.0092-.004-.01367-.006-.124966-.0612-.253536-.11636-.384766-.16601-.0013-.00051-.0026-.001-.0039-.002-.06665-.0251-.134988-.0483-.203125-.0703h-.0019c-.138641-.0447-.279573-.0839-.423828-.11523-.0032-.00071-.0065-.001-.0098-.002-.14892-.032-.300973-.0573-.455078-.0742-.141969-.0156-.285967-.0232-.431641-.0254-.01892 0-.03772-.001-.05664-.002h-.511719-1-1-.5c-.830993 0-1.5-.669-1.5-1.5 0-.82706.662761-1.494 1.488282-1.5h4.511718 1.511719c.824585 0 1.488281-.66369 1.488281-1.48828v-.0234c0-.82459-.663696-1.48828-1.488281-1.48828h-1.511496-4.511719c-.0039.00001-.0078-.00002-.01172 0z" fill="#f5fcf8" transform="translate(1.000004 -279.17223)"/></svg>