<svg height="32" viewBox="0 0 32 32" width="32" xmlns="http://www.w3.org/2000/svg"><g transform="translate(32 -278.64999)"><path d="m-27 279.64999h21.999999c1.108 0 2 .892 2 2v26c0 1.108-.892 2-2 2h-21.999999c-1.108 0-2-.892-2-2v-26c0-1.108.892-2 2-2z" fill="#4a73c6"/><path d="m-27 280.64999h21.999999c.554 0 1 .446 1 1v26c0 .554-.446 1-1 1h-21.999999c-.554 0-1-.446-1-1v-26c0-.554.446-1 1-1z" fill="#5ca5ff"/><g stroke-linecap="round" stroke-linejoin="round" stroke-width="4"><path d="m2.9999992 304.14999 8.9999998-7" fill="#eef5fe"/><path d="m-21.5 287.64999c-.830999 0-1.5.669-1.5 1.5v11c0 .05194.00271.10375.007812.1543a1.5 1.5 0 0 0 .001954.01172c.013933.12785.044095.24925.08789.36523a1.5 1.5 0 0 0 .003906.01367c.046501.11967.109589.23165.183594.33399a1.5 1.5 0 0 0 .001953.0039 1.5 1.5 0 0 0 .003907.00391c.075573.10308.162711.19678.261718.27734a1.5 1.5 0 0 0 .011719.00782c.098493.07861.207573.14526.324219.19726a1.5 1.5 0 0 0 .001953.00195h.001953c.110984.04909.228187.08439.351563.10547a1.5 1.5 0 0 0 .042968.00586c.069667.00984.140424.01758.212891.01758.051937 0 .103749-.00271.154297-.00781a1.5 1.5 0 0 0 .003906 0c.133527-.01383.260239-.04551.380859-.0918a1.5 1.5 0 0 0 .00586-.00195c.121029-.04703.234618-.11041.33789-.18555l4.617188-3.35937 4.617188 3.35937a1.5 1.5 0 0 0 .003906.00195c.102333.07401.214317.1371.333984.1836a1.5 1.5 0 0 0 .013672.0039c.115983.0438.237382.07396.365234.08789.003987.00044.007723.00155.011719.00196.050548.0051.10236.00781.154297.00781.072467 0 .143224-.00774.212891-.01758a1.5 1.5 0 0 0 .042968-.00586c.123376-.02108.240579-.05638.3515629-.10547.0005356-.00023.0014178.00024.0019531 0a1.5 1.5 0 0 0 .0019531-.00195c.1166459-.052.2257261-.11865.3242188-.19726.0022433-.0018.0055797-.00211.0078125-.00391a1.5 1.5 0 0 0 .0039062-.00391c.0990069-.08056.186145-.17426.2617188-.27734.0010803-.00147.0028312-.00243.0039062-.00391a1.5 1.5 0 0 0 .0058594-.00976c.0235477-.03289.0455311-.06675.0664062-.10157.0009218-.00153.0029899-.00236.0039063-.0039a1.5 1.5 0 0 0 .0019531-.00195c.0229959-.03883.043009-.0801.0625-.1211.0178472-.03754.0340822-.07604.0488282-.11523.0015378-.00409.0043561-.00762.0058593-.01172a1.5 1.5 0 0 0 .0039063-.01172c.0134924-.03782.024673-.07606.0351562-.11523.0005293-.00198.0014318-.00388.0019532-.00586a1.5 1.5 0 0 0 .0039062-.01563c.0079297-.0315.0136191-.06343.0195312-.0957a1.5 1.5 0 0 0 .0117188-.07227c.0028649-.02152.005863-.04265.0078125-.06445a1.5 1.5 0 0 0 .0058594-.10547 1.5 1.5 0 0 0 .0019531-.05664v-10.97461c0-.831-.6690008-1.5-1.5-1.5-.830999 0-1.5.669-1.5 1.5v8.05469l-3.117188-2.26758a1.50015 1.50015 0 0 0 -1.765624 0l-3.117188 2.26758v-8.05469c0-.831-.669001-1.5-1.5-1.5z" fill="#e5f1ff" stroke-miterlimit="1.8"/></g></g></svg>