<svg height="32" viewBox="0 0 32 32" width="32" xmlns="http://www.w3.org/2000/svg"><g transform="translate(84 -286.64999)"><path d="m-79 287.64997h21.999999c1.108 0 2 .89202 2 2.00001v26.00001c0 1.10797-.892 1.99998-2 1.99998h-21.999999c-1.108 0-2-.89201-2-1.99998v-26c0-1.108.892-2 2-2.00002z" fill="#a3b7cc"/><path d="m-78.999999 288.65001h21.999999c.554 0 1 .44599 1 1v26c0 .55401-.446 1-1 1h-21.999999c-.554 0-1-.44599-1-1v-26c0-.55399.446-1 1-1z" fill="#fafafa"/><path d="m-79 288.64999c-.553947 0-1 .4461-1 1.00003v1.99997 1.00003h1 2 1v-1.00003-1.99997-1.00003h-1zm3 4.00003v3.99998h4v-3.99998zm4 0h4v-4.00003h-4zm4 0v3.99998h4v-3.99998zm4 0h4v-4.00003h-4zm4 0v3.99998h4v-3.99998zm0 3.99998h-4v3.99999h4zm0 3.99999v4.00003h4v-4.00003zm0 4.00003h-4v3.99998h4zm0 3.99998v.99999 2.00001.99999h3 1v-.99999-3zm0 3.99999h-4v4.00003h4zm-4 0v-3.99999h-4v3.99999zm-4 0h-4v4.00003h4zm-4 0v-3.99999h-4v3.99999zm-4 0h-4v4.00003h4zm0-3.99999v-3.99998h-4v3.99998zm0-3.99998h4v-4.00003h-4zm0-4.00003v-3.99999h-4v3.99999zm4 0h4v-3.99999h-4zm4 0v4.00003h4v-4.00003zm0 4.00003h-4v3.99998h4z" fill="#dfe6ec"/><g transform="matrix(3.7795276 0 0 3.7795276 -79.99999744407 290.64998081649)"><g stroke-linecap="round" stroke-linejoin="round" stroke-miterlimit="1.8"><path d="m3.1749999.52916664c1.4657916 0 2.6458332 1.18004166 2.6458332 2.64583326s-1.1800416 2.6458332-2.6458332 2.6458332-2.64583326-1.1800416-2.64583326-2.6458332 1.18004166-2.64583326 2.64583326-2.64583326z" fill="#d78e5d" stroke-width=".529167"/><path d="m3.175.79374999c1.3192124 0 2.3812499 1.06203741 2.3812499 2.38124991 0 1.3192124-1.0620375 2.3812499-2.3812499 2.3812499-1.3192125 0-2.38124995-1.0620375-2.38124995-2.3812499 0-1.3192125 1.06203745-2.38124991 2.38124995-2.38124991z" fill="#efc7a5" stroke-width=".47625"/><path d="m3.1750001 1.0583333c1.1726332 0 2.1166665.9440333 2.1166665 2.1166666s-.9440333 2.1166667-2.1166665 2.1166667c-1.1726334 0-2.1166668-.9440334-2.1166668-2.1166667s.9440334-2.1166666 2.1166668-2.1166666z" fill="#287bc2" fill-opacity=".980392" stroke-width=".423334"/><path d="m3.175 1.3229167c1.0260541 0 1.8520832.826029 1.8520832 1.8520832 0 1.0260541-.8260291 1.8520833-1.8520832 1.8520833-1.0260542 0-1.8520834-.8260292-1.8520834-1.8520833 0-1.0260542.8260292-1.8520832 1.8520834-1.8520832z" fill="#77bffe" stroke-width=".370417"/></g><path d="m4.2333332 2.1166686-1.5875.5291667-.5291666 1.5875 1.5875-.5291667z" fill="#e2f1ff"/></g></g></svg>