<svg height="32" viewBox="0 0 32 32" width="32" xmlns="http://www.w3.org/2000/svg"><g transform="translate(28 -264.89999)"><path d="m-23 265.89999h21.9999995c1.108 0 2 .892 2 2v26c0 1.108-.892 2-2 2h-21.9999995c-1.108 0-2-.892-2-2v-26c0-1.108.892-2 2-2z" fill="#1d86d9"/><path d="m-23 266.89999h21.9999995c.554 0 1 .446 1 1v26c0 .554-.446 1-1 1h-21.9999995c-.553999 0-1-.446-1-1v-26c0-.554.446001-1 1-1z" fill="#44acff"/></g><path d="m2.1152324.52864396v.2645834.26458324l.7941404-.0003906.00196 3.7045612s.0009764.2641919-.2645833.2645833l-.2649768.0003906v.2645834h1.8520833v-.2645834h-.2645833s-.2645834.0009768-.2645834-.2645833l-.0014343-1.5880228h.5291667s.2645833-.000977.2645833.2645833h.2645833v-1.0583333h-.2645833s.0009769.2645833-.2645833.2645833h-.5291667l-.0005227-1.5873717h1.3229167s.2645833.0000003.2645833.2645833v.2645834h.5291667v-.5291667-.26458324-.26458342l-3.4395833.00000002z" fill="#d1ebff" stroke-linecap="round" stroke-linejoin="round" stroke-miterlimit="1.8" stroke-width=".529167" transform="matrix(3.7795276 0 0 3.7795276 1.007389 5.00197)"/></svg>