<?xml version="1.0" encoding="UTF-8" standalone="no"?>
<svg
   height="32"
   viewBox="0 0 32 32"
   width="32"
   version="1.1"
   id="svg10"
   sodipodi:docname="application-xhtml+xml.svg"
   xml:space="preserve"
   inkscape:version="1.2.1 (9c6d41e410, 2022-07-14)"
   xmlns:inkscape="http://www.inkscape.org/namespaces/inkscape"
   xmlns:sodipodi="http://sodipodi.sourceforge.net/DTD/sodipodi-0.dtd"
   xmlns="http://www.w3.org/2000/svg"
   xmlns:svg="http://www.w3.org/2000/svg"><defs
     id="defs14" /><sodipodi:namedview
     id="namedview12"
     pagecolor="#ffffff"
     bordercolor="#000000"
     borderopacity="0.25"
     inkscape:showpageshadow="2"
     inkscape:pageopacity="0.0"
     inkscape:pagecheckerboard="0"
     inkscape:deskcolor="#d1d1d1"
     showgrid="false"
     inkscape:zoom="7.375"
     inkscape:cx="13.627119"
     inkscape:cy="16"
     inkscape:window-width="2160"
     inkscape:window-height="1330"
     inkscape:window-x="0"
     inkscape:window-y="0"
     inkscape:window-maximized="1"
     inkscape:current-layer="svg10" /><g
     transform="translate(16 -274.64999)"
     id="g8"><path
       d="m-11 275.64999h21.999999c1.108 0 2 .892 2 2v26c0 1.108-.892 2-2 2h-21.999999c-1.108 0-2-.892-2-2v-26c0-1.108.892-2 2-2z"
       fill="#6e7cd4"
       id="path2" /><path
       d="m-11 276.64999h21.999999c.554 0 1 .446 1 1v26c0 .554-.446 1-1 1h-21.999999c-.554 0-1-.446-1-1v-26c0-.554.446-1 1-1z"
       fill="#93a0e6"
       id="path4" /></g><g
     inkscape:label="Capa 1"
     id="layer1"
     transform="matrix(3.7795275,0,0,3.7795275,4.474576,-1090.0196)"><path
       id="path10038"
       class="ColorScheme-Text"
       style="color:#122036;opacity:0.99;fill:#eceefa;fill-opacity:1;stroke:none;stroke-width:0.264583"
       d="m 1.4619353,291.04686 c -0.1465791,0 -0.2645836,0.118 -0.2645836,0.26458 l 2e-7,2.91041 c 0,0.14658 0.1180045,0.26459 0.2645836,0.26459 h 0.5291664 l 0.2645837,-1e-5 h 1.5875 l 0.264583,1e-5 h 0.5291667 c 0.1465792,0 0.2645833,-0.11801 0.2645833,-0.26459 l -2e-7,-2.91041 c 0,-0.14658 -0.1180041,-0.26458 -0.2645833,-0.26458 z m 0.2645834,0.52916 h 2.6458331 l 2e-7,2.11666 h -0.79375 v 0.26459 H 2.5202687 l 2e-7,-0.26459 h -0.79375 z m 0.264583,0.52917 v 0.79375 h 0.529167 v -0.79375 z m 0.7937501,0 v 0.79375 h 0.5291666 v -0.79375 z m 0.79375,0 v 0.79375 h 0.5291666 v -0.79375 z"
       inkscape:connector-curvature="0"
       sodipodi:nodetypes="ssssccccssssscccccccccccccccccccccccc" /></g></svg>
