<svg height="32" viewBox="0 0 32 32" width="32" xmlns="http://www.w3.org/2000/svg"><g transform="translate(84 -286.64999)"><path d="m-78.999999 287.64999h21.999999c1.108 0 2 .89202 2 2.00001v26.00001c0 1.10797-.892 1.99998-2 1.99998h-21.999999c-1.108 0-2-.89201-2-1.99998v-26c0-1.108.892-2 2-2.00002z" fill="#a3b7cc"/><path d="m-78.999999 288.65001h21.999999c.554 0 1 .44599 1 1v26c0 .55401-.446 1-1 1h-21.999999c-.554 0-1-.44599-1-1v-26c0-.55399.446-1 1-1z" fill="#fafafa"/><path d="m.31505312 292.32434c-.14656525 0-.26458332.11803-.26458332.26459v.52916.26459h.26458332.52916665.26458333v-.26459-.52916-.26459h-.26458333zm.79374998 1.05834v1.05833h1.0583333v-1.05833zm1.0583333 0h1.0583333v-1.05834h-1.0583333zm1.0583333 0v1.05833h1.0583333v-1.05833zm1.0583333 0h1.0583333v-1.05834h-1.0583333zm1.0583333 0v1.05833h1.0583333v-1.05833zm0 1.05833h-1.0583333v1.05833h1.0583333zm0 1.05833v1.05834h1.0583333v-1.05834zm0 1.05834h-1.0583333v1.05833h1.0583333zm0 1.05833v.26458.52917.26458h.7937499.2645834v-.26458-.79375zm0 1.05833h-1.0583333v1.05834h1.0583333zm-1.0583333 0v-1.05833h-1.0583333v1.05833zm-1.0583333 0h-1.0583333v1.05834h1.0583333zm-1.0583333 0v-1.05833h-1.0583333v1.05833zm-1.0583333 0h-1.0583333v1.05834h1.0583333zm0-1.05833v-1.05833h-1.0583333v1.05833zm0-1.05833h1.0583333v-1.05834h-1.0583333zm0-1.05834v-1.05833h-1.0583333v1.05833zm1.0583333 0h1.0583333v-1.05833h-1.0583333zm1.0583333 0v1.05834h1.0583333v-1.05834zm0 1.05834h-1.0583333v1.05833h1.0583333z" fill="#d8e0e8" transform="matrix(3.7795277 0 0 3.7795277 -80.190752 -816.19796)"/><path d="m-72 295.64999v1h-1v1h-1v1h-1v2h-1v6h2v3h1v1h10v-1h1v-3h2v-6h-1v-2h-1v-1h-1v-1h-1v-1z" fill="#36404d"/><path d="m-72 305.64999v1h-1v2h1v1h8v-1h1v-2h-1v-1h-2v2h-1v-2h-2v2h-1v-2z" fill="#f1f1f1"/><path d="m-71 296.64999v1h-1v1h-1v1h-1v2h-1v2 1 1h2v-1h10v1h2v-1-1-2h-1v-2h-1v-1h-1v-1h-1v-1z" fill="#fdba57"/><path d="m-71 296.64999v1h-1v2h2v-1h1v-2zm4 0v2h1v1h2v-2h-1v-1zm-7 4v1h-1v2 1h1v-1h2v-2h-1v-1zm4 0v1h-1v2h1v1h4v-1h1v-2h-1v-1zm7 0v1h-1v2h2v1h1v-1-2h-1v-1z" fill="#f7f3e5"/></g></svg>