<?xml version="1.0" encoding="UTF-8" standalone="no"?>
<svg
   height="32"
   viewBox="0 0 32 32"
   width="32"
   version="1.1"
   id="svg10"
   sodipodi:docname="application-x-mimearchive.svg"
   inkscape:version="1.2.1 (9c6d41e410, 2022-07-14)"
   xmlns:inkscape="http://www.inkscape.org/namespaces/inkscape"
   xmlns:sodipodi="http://sodipodi.sourceforge.net/DTD/sodipodi-0.dtd"
   xmlns="http://www.w3.org/2000/svg"
   xmlns:svg="http://www.w3.org/2000/svg">
  <defs
     id="defs14" />
  <sodipodi:namedview
     id="namedview12"
     pagecolor="#ffffff"
     bordercolor="#000000"
     borderopacity="0.25"
     inkscape:showpageshadow="2"
     inkscape:pageopacity="0.0"
     inkscape:pagecheckerboard="0"
     inkscape:deskcolor="#d1d1d1"
     showgrid="false"
     inkscape:zoom="7.375"
     inkscape:cx="13.627119"
     inkscape:cy="16"
     inkscape:window-width="2160"
     inkscape:window-height="1330"
     inkscape:window-x="0"
     inkscape:window-y="0"
     inkscape:window-maximized="1"
     inkscape:current-layer="svg10" />
  <g
     transform="translate(16 -274.64999)"
     id="g8">
    <path
       d="m-11 275.64999h21.999999c1.108 0 2 .892 2 2v26c0 1.108-.892 2-2 2h-21.999999c-1.108 0-2-.892-2-2v-26c0-1.108.892-2 2-2z"
       fill="#3182d9"
       id="path2" />
    <path
       d="m-11 276.64999h21.999999c.554 0 1 .446 1 1v26c0 .554-.446 1-1 1h-21.999999c-.554 0-1-.446-1-1v-26c0-.554.446-1 1-1z"
       fill="#50c1f9"
       id="path4" />
  </g>
  <path
     id="path10038"
     class="ColorScheme-Text"
     style="color:#122036;opacity:0.99;fill:#e7f9ff;fill-opacity:1;stroke:none;stroke-width:0.999999"
     d="M 10.000001,10 C 9.446001,10 9,10.445985 9,10.999988 v 10.999974 c 0,0.554004 0.446002,1.000026 1.000001,1.000026 H 12 l 1.000002,-3.8e-5 h 6 L 20,22.999988 h 2.000001 C 22.554001,22.999988 23,22.553966 23,21.999962 V 10.999988 C 23,10.445985 22.554,10 22,10 Z m 1,1.999975 H 21 l 1e-6,7.999975 h -3 v 1.000025 h -4 l 1e-6,-1.000025 h -3 z M 12,13.999988 v 3 h 2.000001 v -3 z m 3,0 v 3 h 2 v -3 z m 3,0 v 3 h 2 v -3 z"
     inkscape:connector-curvature="0"
     sodipodi:nodetypes="ssssccccssssscccccccccccccccccccccccc" />
</svg>
