<svg height="32" viewBox="0 0 32 32" width="32" xmlns="http://www.w3.org/2000/svg"><g transform="translate(0 -282.64999)"><g transform="translate(28 -.00002)"><path d="m-22.999999 283.65001h21.9999988c1.108 0 2 .89202 2 2.00001v26.00001c0 1.10797-.892 1.99998-2 1.99998h-21.9999988c-1.108 0-2-.89201-2-1.99998v-26c0-1.108.892-2 2-2.00002z" fill="#36404d"/><path d="m-22.999999 284.65003h21.9999988c.554 0 1 .44599 1 1v26c0 .55401-.446 1-1 1h-21.9999988c-.554 0-1-.44599-1-1v-26c0-.55399.446-1 1-1z" fill="#4b6477"/></g><g fill="#eaedf0"><path d="m6 286.64999h5v2h-5z"/><path d="m12 286.64999h2v2h-2z"/><path d="m15 286.64999h5v2h-5z"/><path d="m21 286.64999h2v2h-2z"/><path d="m6 289.64999h8v2h-8z"/><path d="m15 289.64999h2v2h-2z"/><path d="m18 289.64999h5v2h-5z"/><path d="m6 292.64999h2v2h-2z"/><path d="m9 292.64999h2v2h-2z"/><path d="m12 292.64999h5v2h-5z"/><path d="m18 292.64999h2v2h-2z"/><path d="m21 292.64999h2v2h-2z"/><path d="m6 295.64999h5v2h-5z"/><path d="m6 298.64999h2v2h-2z"/><path d="m9 298.64999v2h5v-2zm6 0v2h3v-2zm0 3v2h3v-2z"/><path d="m6 301.64999h5v2h-5z"/><path d="m6 304.64999h2v2h-2z"/><path d="m13 304.64999h5v2h-5z"/><path d="m9 304.64999h3v2h-3z"/><path d="m6 307.64999h5v2h-5z"/><path d="m12 307.64999h3v2h-3z"/><path d="m12 301.64999h2v2h-2z"/><path d="m12 295.64999h2v2h-2z"/><path d="m15 295.64999h5v2h-5z"/></g><g stroke-miterlimit="1.8"><g stroke-linecap="round" stroke-linejoin="round" transform="translate(-117 -94.6254)"><path d="m138 396.27539c-.55226.00006-.99994.44774-1 1v8c.00002.7434.78232 1.22692 1.44727.89453l1.55273-.77734 1.55273.77734c.66495.33239 1.44725-.15113 1.44727-.89453v-8c-.00006-.55226-.44774-.99994-1-1z" fill="#42a5f5"/><path d="m138 397.27499v8l2-1 2 1v-8z" fill="#81d4fa" stroke-width="2"/></g><path d="m23 298.64959c2.216 0 4 1.784 4 4s-1.784 4-4 4c-2.216 0-4-1.784-4-4s1.784-4 4-4z" fill="#f6ac23" stroke-linecap="square" stroke-width="2.28572"/><path d="m23 299.64959c1.662 0 3 1.338 3 3s-1.338 3-3 3c-1.662 0-3-1.338-3-3s1.338-3 3-3z" fill="#fcd277" stroke-linecap="square" stroke-width="2.4"/></g></g></svg>