<?xml version="1.0" encoding="UTF-8" standalone="no"?>
<!-- Created with Inkscape (http://www.inkscape.org/) -->

<svg
   width="32"
   height="32"
   viewBox="0 0 8.4666667 8.4666667"
   version="1.1"
   id="svg5"
   inkscape:version="1.2.2 (b0a8486541, 2022-12-01)"
   sodipodi:docname="libreoffice-oasis-formula.svg"
   xmlns:inkscape="http://www.inkscape.org/namespaces/inkscape"
   xmlns:sodipodi="http://sodipodi.sourceforge.net/DTD/sodipodi-0.dtd"
   xmlns="http://www.w3.org/2000/svg"
   xmlns:svg="http://www.w3.org/2000/svg">
  <sodipodi:namedview
     id="namedview7"
     pagecolor="#ffffff"
     bordercolor="#9c9c9c"
     borderopacity="0.24705882"
     inkscape:showpageshadow="false"
     inkscape:pageopacity="0.0"
     inkscape:pagecheckerboard="0"
     inkscape:deskcolor="#5e5e5e"
     inkscape:document-units="px"
     showgrid="true"
     inkscape:zoom="29.276992"
     inkscape:cx="21.057491"
     inkscape:cy="14.687301"
     inkscape:window-width="2560"
     inkscape:window-height="1363"
     inkscape:window-x="0"
     inkscape:window-y="0"
     inkscape:window-maximized="1"
     inkscape:current-layer="layer1">
    <inkscape:grid
       type="xygrid"
       id="grid132"
       originx="0"
       originy="0" />
  </sodipodi:namedview>
  <defs
     id="defs2" />
  <g
     inkscape:label="Capa 1"
     inkscape:groupmode="layer"
     id="layer1">
    <path
       id="rect337-3"
       style="fill:#b12b4d;stroke-width:0.264583;stroke-linecap:round;stroke-linejoin:round"
       d="m 1.3229169,0.26458338 h 5.8208335 c 0.293158,0 0.529166,0.23600832 0.529166,0.52916664 V 7.6729167 c 0,0.2931583 -0.236008,0.5291666 -0.529166,0.5291666 H 1.3229169 c -0.2931583,0 -0.5291666,-0.2360083 -0.5291666,-0.5291666 V 0.79375002 c 0,-0.29315832 0.2360083,-0.52916664 0.5291666,-0.52916664 z" />
    <path
       id="rect337"
       style="fill:#e18499;stroke-width:0.264583;stroke-linecap:round;stroke-linejoin:round"
       d="m 1.322917,0.52916671 h 5.8208331 c 0.146579,0 0.264583,0.11800419 0.264583,0.26458338 V 7.6729167 c 0,0.1465792 -0.118004,0.2645833 -0.264583,0.2645833 H 1.322917 C 1.1763378,7.9375 1.0583336,7.8194959 1.0583336,7.6729167 V 0.79375009 c 0,-0.14657919 0.1180042,-0.26458338 0.2645834,-0.26458338 z" />
    <g
       id="g544"
       transform="translate(-14.552084,-10.583334)" />
    <path
       id="rect1356"
       style="fill:#b12b4d;fill-opacity:1;stroke:none;stroke-width:0.264583;stroke-linecap:round;stroke-linejoin:round"
       d="M 2.9104167 2.6458333 L 2.9104167 3.175 L 2.38125 3.175 L 2.38125 3.7041667 L 2.9104167 3.7041667 L 2.9104167 4.2333333 L 3.4395833 4.2333333 L 3.4395833 3.7041667 L 3.96875 3.7041667 L 3.96875 3.175 L 3.4395833 3.175 L 3.4395833 2.6458333 L 2.9104167 2.6458333 z M 5.2777141 2.9104167 C 4.9909376 2.9176337 4.7625 3.1510059 4.7625 3.4395833 C 4.7625 3.7327414 4.9985087 3.96875 5.2916667 3.96875 C 5.5848247 3.96875 5.8208334 3.7327414 5.8208334 3.4395833 C 5.8208334 3.1464253 5.5848247 2.9104167 5.2916667 2.9104167 C 5.2870861 2.9104167 5.2822661 2.9103021 5.2777141 2.9104167 z M 4.4979167 4.4979167 L 4.4979167 5.0270834 L 6.0854167 5.0270834 L 6.0854167 4.4979167 L 4.4979167 4.4979167 z M 2.38125 5.0270834 L 2.38125 5.55625 L 3.96875 5.55625 L 3.96875 5.0270834 L 2.38125 5.0270834 z M 4.4979167 5.2916667 L 4.4979167 5.8208334 L 6.0854167 5.8208334 L 6.0854167 5.2916667 L 4.4979167 5.2916667 z " />
  </g>
</svg>
