<svg height="32" viewBox="0 0 32 32" width="32" xmlns="http://www.w3.org/2000/svg"><g transform="translate(24 -280.17227)"><path d="m-19 281.17227h21.999999c1.108 0 2 .892 2 2v26c0 1.108-.892 2-2 2h-21.999999c-1.108 0-2-.892-2-2v-26c0-1.108.892-2 2-2z" fill="#d72f4a"/><path d="m-19 282.17227h21.999999c.554 0 1 .446 1 1v26c0 .554-.446 1-1 1h-21.999999c-.554 0-1-.446-1-1v-26c0-.554.446-1 1-1z" fill="#ff778a"/><path d="m.31505312 292.32434c-.14656525 0-.26458332.11803-.26458332.26459v.52916.26459h.26458332.52916665.26458333v-.26459-.52916-.26459h-.26458333zm.79374998 1.05834v1.05833h1.0583333v-1.05833zm1.0583333 0h1.0583333v-1.05834h-1.0583333zm1.0583333 0v1.05833h1.0583333v-1.05833zm1.0583333 0h1.0583333v-1.05834h-1.0583333zm1.0583333 0v1.05833h1.0583333v-1.05833zm0 1.05833h-1.0583333v1.05833h1.0583333zm0 1.05833v1.05834h1.0583333v-1.05834zm0 1.05834h-1.0583333v1.05833h1.0583333zm0 1.05833v.26458.52917.26458h.7937499.2645834v-.26458-.79375zm0 1.05833h-1.0583333v1.05834h1.0583333zm-1.0583333 0v-1.05833h-1.0583333v1.05833zm-1.0583333 0h-1.0583333v1.05834h1.0583333zm-1.0583333 0v-1.05833h-1.0583333v1.05833zm-1.0583333 0h-1.0583333v.79375s0 .26459.26458332.26459h.79374998zm0-1.05833v-1.05833h-1.0583333v1.05833zm0-1.05833h1.0583333v-1.05834h-1.0583333zm0-1.05834v-1.05833h-1.0583333v1.05833zm1.0583333 0h1.0583333v-1.05833h-1.0583333zm1.0583333 0v1.05834h1.0583333v-1.05834zm0 1.05834h-1.0583333v1.05833h1.0583333z" fill="#ff909f" transform="matrix(3.7795277 0 0 3.7795277 -20.190752 -822.67568)"/><path d="m-12.511719 290.17227c-.824589 0-1.488281.66369-1.488281 1.48828v.02344c0 .82459.663692 1.48828 1.488281 1.48828h1.511719 4.5117188c.8255236.00629 1.4882812.67294 1.4882812 1.5 0 .831-.6690037 1.5-1.5 1.5h-4.5-1.5-.035156c-.811247 0-1.464844.6536-1.464844 1.46484v.03516.03516 4.96484c0 .831.669002 1.5 1.5 1.5s1.5-.669 1.5-1.5v-3.5h4.5c.0229155 0 .0455272-.00162.0683594-.00195 2.4610955-.03643 4.4316406-2.02797 4.4316406-4.49805 0-2.48515-1.9944895-4.48741-4.4765625-4.5-.0039207-.00002-.0077957.00001-.0117187 0h-4.5117188z" fill="#fbebee"/></g></svg>