<svg height="32" viewBox="0 0 32 32" width="32" xmlns="http://www.w3.org/2000/svg"><g transform="translate(84 -286.64997)"><path d="m-79 287.64997h21.999999c1.108 0 2 .89202 2 2.00001v26.00001c0 1.10797-.892 1.99998-2 1.99998h-21.999999c-1.108 0-2-.89201-2-1.99998v-26c0-1.108.892-2 2-2.00002z" fill="#1d86d9"/><path d="m-78.999999 288.65001h21.999999c.554 0 1 .44599 1 1v26c0 .55401-.446 1-1 1h-21.999999c-.554 0-1-.44599-1-1v-26c0-.55399.446-1 1-1z" fill="#44acff"/><path d="m.31505312 292.32434c-.14656525 0-.26458332.11803-.26458332.26459v.52916.26459h.26458332.52916665.26458333v-.26459-.52916-.26459h-.26458333zm.79374998 1.05834v1.05833h1.0583333v-1.05833zm1.0583333 0h1.0583333v-1.05834h-1.0583333zm1.0583333 0v1.05833h1.0583333v-1.05833zm1.0583333 0h1.0583333v-1.05834h-1.0583333zm1.0583333 0v1.05833h1.0583333v-1.05833zm0 1.05833h-1.0583333v1.05833h1.0583333zm0 1.05833v1.05834h1.0583333v-1.05834zm0 1.05834h-1.0583333v1.05833h1.0583333zm0 1.05833v.26458.52917.26458h.7937499.2645834v-.26458-.79375zm0 1.05833h-1.0583333v1.05834h1.0583333zm-1.0583333 0v-1.05833h-1.0583333v1.05833zm-1.0583333 0h-1.0583333v1.05834h1.0583333zm-1.0583333 0v-1.05833h-1.0583333v1.05833zm-1.0583333 0h-1.0583333v1.05834h1.0583333zm0-1.05833v-1.05833h-1.0583333v1.05833zm0-1.05833h1.0583333v-1.05834h-1.0583333zm0-1.05834v-1.05833h-1.0583333v1.05833zm1.0583333 0h1.0583333v-1.05833h-1.0583333zm1.0583333 0v1.05834h1.0583333v-1.05834zm0 1.05834h-1.0583333v1.05833h1.0583333z" fill="#359ef2" transform="matrix(3.7795277 0 0 3.7795277 -80.190752 -816.197976)"/></g><g fill="#f0f8fe" transform="translate(13 -277.649989)"><path d="m3 298.64999c-2.769999 0-5-2.23-5-5s2.230001-5 5-5 5 2.23 5 5-2.230001 5-5 5zm0-2c1.662 0 3-1.338 3-3s-1.338-3-3-3-3 1.338-3 3 1.338 3 3 3z" fill="#b8e1ff"/><path d="m-1 285.64999c-.359147-.00029-.690953.19205-.869141.50391l-3.9999996 7c-.175604.30741-.175604.68477 0 .99218l3.9999996 7c.178188.31186.509994.5042.869141.50391h8c.359147.00029.690952-.19205.869141-.50391l4-7c.175604-.30741.175604-.68477 0-.99218l-4-7c-.178189-.31186-.509993-.5042-.869141-.50391zm4 4c2.216 0 4 1.784 4 4s-1.784 4-4 4-4-1.784-4-4 1.784-4 4-4z" fill="#f0f8fe" fill-rule="evenodd"/></g></svg>