<svg height="32" viewBox="0 0 32 32" width="32" xmlns="http://www.w3.org/2000/svg"><g transform="translate(84 -286.64999)"><path d="m-79 287.64997h21.999999c1.108 0 2 .89202 2 2.00001v26.00001c0 1.10797-.892 1.99998-2 1.99998h-21.999999c-1.108 0-2-.89201-2-1.99998v-26c0-1.108.892-2 2-2.00002z" fill="#a3b7cc"/><path d="m-78.999999 288.65001h21.999999c.554 0 1 .44599 1 1v26c0 .55401-.446 1-1 1h-21.999999c-.554 0-1-.44599-1-1v-26c0-.55399.446-1 1-1z" fill="#fafafa"/><path d="m-79 288.64999c-.553947 0-1 .4461-1 1.00003v1.99997 1.00003h1 2 1v-1.00003-1.99997-1.00003h-1zm3 4.00003v3.99998h4v-3.99998zm4 0h4v-4.00003h-4zm4 0v3.99998h4v-3.99998zm4 0h4v-4.00003h-4zm4 0v3.99998h4v-3.99998zm0 3.99998h-4v3.99999h4zm0 3.99999v4.00003h4v-4.00003zm0 4.00003h-4v3.99998h4zm0 3.99998v.99999 2.00001.99999h3 1v-.99999-3zm0 3.99999h-4v4.00003h4zm-4 0v-3.99999h-4v3.99999zm-4 0h-4v4.00003h4zm-4 0v-3.99999h-4v3.99999zm-4 0h-4v4.00003h4zm0-3.99999v-3.99998h-4v3.99998zm0-3.99998h4v-4.00003h-4zm0-4.00003v-3.99999h-4v3.99999zm4 0h4v-3.99999h-4zm4 0v4.00003h4v-4.00003zm0 4.00003h-4v3.99998h4z" fill="#dfe6ec"/><g transform="matrix(3.7795276 0 0 3.7795276 -50.06978987573 -812.55134137108)"><path d="m-7.125285 292.68243h4.7625v4.7625h-4.7625z" fill="#287bc2"/><path d="m-6.860701 292.94702h4.233333v4.233333h-4.233333z" fill="#78c1ff"/><path d="m-4.7440342 292.68243h2.38125v4.7625h-2.38125v-1.85208-.26458h-.5291667v-.26459-.26458z" fill="#a3b7cc"/><path d="m-4.4794509 292.94702h1.8520834v4.23333h-1.8520834v-1.5875-.52917l-.5291666-.004v-.26046z" fill="#e8f6ff"/><path d="m-6.0669509 294.00535v.52917h.2645834v-.52917zm2.38125 0v.52917h.2645834v-.52917zm-2.38125 1.5875v.26458h.2645834v-.26458zm.2645834.26458v.26459h2.1166666v-.26459zm2.1166666 0h.2645834v-.26458h-.2645834z" fill="#4f6683"/></g></g></svg>