<svg height="32" viewBox="0 0 32 32" width="32" xmlns="http://www.w3.org/2000/svg"><g transform="translate(4 -285.27499)"><path d="m1 286.27499h21.999999c1.108 0 2 .892 2 2v26c0 1.108-.892 2-2 2h-21.999999c-1.108 0-2-.892-2-2v-26c0-1.108.892-2 2-2z" fill="#4f92db"/><path d="m1 287.27499h21.999999c.554 0 1 .446 1 1v26c0 .554-.446 1-1 1h-21.999999c-.554 0-1-.446-1-1v-26c0-.554.446-1 1-1z" fill="#5ac0ff"/><path d="m-1.0078635 285.18059c-.1465652 0-.2645833.11803-.2645833.26459v.52916.26459h.2645833.52916665.26458333v-.26459-.52916-.26459h-.26458333zm.79374998 1.05834v1.05833h1.0583333v-1.05833zm1.0583333 0h1.05833332v-1.05834h-1.05833332zm1.05833332 0v1.05833h1.0583333v-1.05833zm1.0583333 0h1.0583333v-1.05834h-1.0583333zm1.0583333 0v1.05833h1.0583333v-1.05833zm0 1.05833h-1.0583333v1.05833h1.0583333zm0 1.05833v1.05834h1.0583333v-1.05834zm0 1.05834h-1.0583333v1.05833h1.0583333zm0 1.05833v.26458.52917.26458h.7937499.2645834v-.26458-.79375zm0 1.05833h-1.0583333v1.05834h1.0583333zm-1.0583333 0v-1.05833h-1.0583333v1.05833zm-1.0583333 0h-1.05833332v1.05834h1.05833332zm-1.05833332 0v-1.05833h-1.0583333v1.05833zm-1.0583333 0h-1.05833328v1.05834h1.05833328zm0-1.05833v-1.05833h-1.05833328v1.05833zm0-1.05833h1.0583333v-1.05834h-1.0583333zm0-1.05834v-1.05833h-1.05833328v1.05833zm1.0583333 0h1.05833332v-1.05833h-1.05833332zm1.05833332 0v1.05834h1.0583333v-1.05834zm0 1.05834h-1.05833332v1.05833h1.05833332z" fill="#55aef1" transform="matrix(3.7795277 0 0 3.7795277 4.809248 -790.572976)"/><path d="m4 294.27499v2h16v-2zm0 4v2h16v-2zm0 4v2h10v-2zm0 4v2h16v-2z" fill="#e1f2fc" opacity=".98"/></g></svg>