<svg height="32" viewBox="0 0 32 32" width="32" xmlns="http://www.w3.org/2000/svg"><g transform="translate(16 -274.649985)"><path d="m-10.999999 275.65001h21.999999c1.108 0 2 .89202 2 2.00001v26.00001c0 1.10797-.892 1.99998-2 1.99998h-21.999999c-1.108 0-2-.892-2-1.99998v-26c0-1.108.892-2 2-2.00002z" fill="#ffb851" fill-opacity=".960784"/><path d="m-10.999999 276.65003h21.999999c.554 0 1 .44599 1 1v26c0 .55401-.446 1-1 1h-21.999999c-.554 0-1-.44599-1-1v-26c0-.55399.446-1 1-1z" fill="#fcd277"/><path d="m.31505312 292.32434c-.14656525 0-.26458332.11803-.26458332.26459v.52916.26459h.26458332.52916665.26458333v-.26459-.52916-.26459h-.26458333zm.79374998 1.05834v1.05833h1.0583333v-1.05833zm1.0583333 0h1.0583333v-1.05834h-1.0583333zm1.0583333 0v1.05833h1.0583333v-1.05833zm1.0583333 0h1.0583333v-1.05834h-1.0583333zm1.0583333 0v1.05833h1.0583333v-1.05833zm0 1.05833h-1.0583333v1.05833h1.0583333zm0 1.05833v1.05834h1.0583333v-1.05834zm0 1.05834h-1.0583333v1.05833h1.0583333zm0 1.05833v.26458.52917.26458h.7937499.2645834v-.26458-.79375zm0 1.05833h-1.0583333v1.05834h1.0583333zm-1.0583333 0v-1.05833h-1.0583333v1.05833zm-1.0583333 0h-1.0583333v1.05834h1.0583333zm-1.0583333 0v-1.05833h-1.0583333v1.05833zm-1.0583333 0h-1.0583333v.79376s-.00097712.26458.26458332.26458h.79374998zm0-1.05833v-1.05833h-1.0583333v1.05833zm0-1.05833h1.0583333v-1.05834h-1.0583333zm0-1.05834v-1.05833h-1.0583333v1.05833zm1.0583333 0h1.0583333v-1.05833h-1.0583333zm1.0583333 0v1.05834h1.0583333v-1.05834zm0 1.05834h-1.0583333v1.05833h1.0583333z" fill="#fdc564" transform="matrix(3.7795277 0 0 3.7795277 -12.190752 -828.197968)"/><g fill="#f6ac23" stroke-linecap="square" stroke-miterlimit="1.8"><path d="m-8 282.64999v1 1 1h1v10h-1v1 1 1h1 1 1v-1h10v1h3v-3h-1v-10h1v-3h-3v1h-10v-1zm1 1h1v1h-1zm13 0h1v1h-1zm-11 1h10v1h1v10h-1v1h-10v-1h-1v-10h1zm-2 12h1v1h-1zm13 0h1v1h-1z" stroke-width=".176776"/><path d="m0 284.64999c-3.3239967 0-6 2.676-6 6 0 3.32399 2.6760033 6 6 6s6-2.67601 6-6c0-3.324-2.6760033-6-6-6z"/></g></g></svg>