<svg height="32" viewBox="0 0 32 32" width="32" xmlns="http://www.w3.org/2000/svg"><g transform="translate(28 -276.39999)"><path d="m-23 277.39999h21.999999c1.108 0 2 .892 2 2v26c0 1.108-.892 2-2 2h-21.999999c-1.108 0-2-.892-2-2v-26c0-1.108.892-2 2-2z" fill="#c64646"/><path d="m-23 278.39999h21.999999c.554 0 1 .446 1 1v26c0 .554-.446 1-1 1h-21.999999c-.554 0-1-.446-1-1v-26c0-.554.446-1 1-1z" fill="#f68d8d"/><path d="m-17.999999 296.39999v-8l7.999999-3 4 2v11l-4 1-8-2h6.999995v-9l-3.999999 1v6z" fill="#c64646"/></g><g transform="matrix(3.7795275 0 0 3.7795275 14 -1090.51968)"><path d="m.5028117 293.29583c-.1251857 0-.23822841.10169-.2382284.22686l.00000023 2.98587c.00000001.12528.1130427.22686.2382284.22686h3.22770977c.125186 0 .2382285-.10169.2382285-.22686l-.0000002-2.99c0-.1253-.113043-.22244-.2382285-.22273z" fill="#36404d"/><path d="m.5291666 293.56041h3.175l.0000002 2.91043h-3.17499997z" fill="#4b6477"/></g><g transform="matrix(3.7795275 0 0 3.7795275 4.00000141609 -1088.01967373985)"><g fill="#3c4f5e"><path d="m3.175 294.22186h3.175v.529167h-3.175z"/><path d="m3.175 293.16351h3.175v.529167h-3.175z"/><path d="m3.175 295.28018h3.175v.529167h-3.175z"/></g><path d="m3.7041667 293.42812v.26458h-.2645833v.26458h.2645833v.26459h-.2645833v.26458h.2645833v.26458h.2645833v-.26458h.2645834v.26458h.2645833v-.26458h.2645833v-.26458h-.2645833v-.26459h.2645833v-.26458h-.2645833v-.26458h-.2645833v.26458h-.2645834v-.26458zm.2645833.52916h.2645834v.26459h-.2645834z" fill="#9affc1"/><path d="m5.0270834 294.48645h1.0583333v.26458h-1.0583333z" fill="#9affc1"/></g></svg>