<?xml version="1.0" encoding="UTF-8" standalone="no"?>
<svg
   height="32"
   viewBox="0 0 32 32"
   width="32"
   version="1.1"
   id="svg30118"
   sodipodi:docname="application-wps-office.dot.svg"
   inkscape:version="1.2.1 (9c6d41e410, 2022-07-14)"
   xmlns:inkscape="http://www.inkscape.org/namespaces/inkscape"
   xmlns:sodipodi="http://sodipodi.sourceforge.net/DTD/sodipodi-0.dtd"
   xmlns="http://www.w3.org/2000/svg"
   xmlns:svg="http://www.w3.org/2000/svg">
  <defs
     id="defs30122" />
  <sodipodi:namedview
     id="namedview30120"
     pagecolor="#ffffff"
     bordercolor="#000000"
     borderopacity="0.25"
     inkscape:showpageshadow="2"
     inkscape:pageopacity="0.0"
     inkscape:pagecheckerboard="0"
     inkscape:deskcolor="#d1d1d1"
     showgrid="false"
     inkscape:zoom="7.375"
     inkscape:cx="16"
     inkscape:cy="16"
     inkscape:window-width="2160"
     inkscape:window-height="1330"
     inkscape:window-x="0"
     inkscape:window-y="0"
     inkscape:window-maximized="1"
     inkscape:current-layer="svg30118" />
  <path
     d="m 5,1 h 21.999999 c 1.108,0 2,0.892 2,2 v 26 c 0,1.108 -0.892,2 -2,2 H 5 C 3.892,31 3,30.108 3,29 V 3 C 3,1.892 3.892,1 5,1 Z"
     fill="#4a73c6"
     id="path30106" />
  <path
     d="m 5,2 h 21.999999 c 0.554,0 1,0.446 1,1 v 26 c 0,0.554 -0.446,1 -1,1 H 5 C 4.446,30 4,29.554 4,29 V 3 C 4,2.446 4.446,2 5,2 Z"
     fill="#5ca5ff"
     id="path30108" />
  <path
     d="m 5,1.9999394 c -0.5539472,0 -0.9999999,0.4460977 -0.9999999,1.0000252 V 4.9999395 5.9999648 H 5 7 8 V 4.9999395 2.9999646 1.9999394 H 7 Z m 3,4.0000254 v 3.9999875 h 4 V 5.9999648 Z m 4,0 h 4 V 1.9999394 h -4 z m 4,0 v 3.9999875 h 4 V 5.9999648 Z m 4,0 h 4 V 1.9999394 h -4 z m 4,0 v 3.9999875 h 4 V 5.9999648 Z m 0,3.9999875 H 20 V 13.99994 h 4 z m 0,3.9999877 v 4.000025 h 4 V 13.99994 Z m 0,4.000025 h -4 v 3.999988 h 4 z m 0,3.999988 v 0.999987 2.000013 0.999987 h 3 1 v -0.999987 -3 z m 0,3.999987 h -4 v 4.000026 h 4 z m -4,0 v -3.999987 h -4 v 3.999987 z m -4,0 h -4 v 4.000026 h 4 z m -4,0 V 21.999953 H 8 v 3.999987 z m -4,0 H 4.0000001 v 3 c 0,0 -0.0037,1.000026 0.9999999,1.000026 H 8 Z M 8,21.999953 V 17.999965 H 4.0000001 v 3.999988 z m 0,-3.999988 h 4 V 13.99994 H 8 Z M 8,13.99994 V 9.9999523 H 4.0000001 V 13.99994 Z m 4,0 h 4 V 9.9999523 h -4 z m 4,0 v 4.000025 h 4 V 13.99994 Z m 0,4.000025 h -4 v 3.999988 h 4 z"
     fill="#5491e9"
     id="path30112"
     style="stroke-width:3.77953" />
  <path
     d="M 10.5,9 C 9.669001,9 9,9.669 9,10.5 v 11 c 0,0.0519 0.0027,0.10375 0.0078,0.1543 a 1.5,1.5 0 0 0 0.002,0.0117 c 0.01393,0.12785 0.0441,0.24925 0.08789,0.36523 a 1.5,1.5 0 0 0 0.0039,0.0137 c 0.0465,0.11967 0.109589,0.23165 0.183594,0.33399 a 1.5,1.5 0 0 0 0.002,0.004 1.5,1.5 0 0 0 0.0039,0.004 c 0.07557,0.10308 0.162711,0.19678 0.261718,0.27734 a 1.5,1.5 0 0 0 0.01172,0.008 c 0.09849,0.0786 0.207573,0.14526 0.324219,0.19726 a 1.5,1.5 0 0 0 0.002,0.002 h 0.002 c 0.110984,0.0491 0.228187,0.0844 0.351563,0.10547 a 1.5,1.5 0 0 0 0.04297,0.006 c 0.06967,0.01 0.140424,0.0176 0.212891,0.0176 0.05194,0 0.103749,-0.003 0.154297,-0.008 a 1.5,1.5 0 0 0 0.0039,0 c 0.133527,-0.0138 0.260239,-0.0455 0.380859,-0.0918 a 1.5,1.5 0 0 0 0.0059,-0.002 c 0.121029,-0.047 0.234618,-0.11041 0.33789,-0.18555 L 16,19.35352 l 4.617188,3.35937 a 1.5,1.5 0 0 0 0.0039,0.002 c 0.102333,0.074 0.214317,0.1371 0.333984,0.1836 a 1.5,1.5 0 0 0 0.01367,0.004 c 0.115983,0.0438 0.237382,0.074 0.365234,0.0879 0.004,4.4e-4 0.0077,0.002 0.01172,0.002 0.05055,0.005 0.10236,0.008 0.154297,0.008 0.07247,0 0.143224,-0.008 0.212891,-0.0176 a 1.5,1.5 0 0 0 0.04297,-0.006 c 0.123376,-0.0211 0.240579,-0.0564 0.351563,-0.10547 5.35e-4,-2.3e-4 0.0014,2.4e-4 0.0019,0 a 1.5,1.5 0 0 0 0.002,-0.002 c 0.116646,-0.052 0.225726,-0.11865 0.324219,-0.19726 0.0022,-0.002 0.0056,-0.002 0.0078,-0.004 a 1.5,1.5 0 0 0 0.0039,-0.004 c 0.09901,-0.0806 0.186145,-0.17426 0.261718,-0.27734 0.0011,-0.001 0.0028,-0.002 0.0039,-0.004 a 1.5,1.5 0 0 0 0.0059,-0.01 c 0.02355,-0.0329 0.04553,-0.0667 0.06641,-0.10157 9.22e-4,-0.002 0.003,-0.002 0.0039,-0.004 a 1.5,1.5 0 0 0 0.002,-0.002 c 0.023,-0.0388 0.04301,-0.0801 0.0625,-0.1211 0.01785,-0.0375 0.03408,-0.076 0.04883,-0.11523 0.0015,-0.004 0.0044,-0.008 0.0059,-0.0117 a 1.5,1.5 0 0 0 0.0039,-0.0117 c 0.01349,-0.0378 0.02467,-0.0761 0.03516,-0.11523 5.3e-4,-0.002 0.0014,-0.004 0.002,-0.006 a 1.5,1.5 0 0 0 0.0039,-0.0156 c 0.0079,-0.0315 0.01362,-0.0634 0.01953,-0.0957 a 1.5,1.5 0 0 0 0.01172,-0.0723 c 0.0029,-0.0215 0.0059,-0.0426 0.0078,-0.0644 a 1.5,1.5 0 0 0 0.0059,-0.10547 A 1.5,1.5 0 0 0 23,21.47461 V 10.5 C 23,9.669 22.330999,9 21.5,9 20.669001,9 20,9.669 20,10.5 v 8.05469 l -3.117188,-2.26758 a 1.50015,1.50015 0 0 0 -1.765624,0 L 12,18.55469 V 10.5 C 12,9.669 11.330999,9 10.5,9 Z"
     fill="#e5f1ff"
     stroke-linecap="round"
     stroke-linejoin="round"
     stroke-miterlimit="1.8"
     stroke-width="4"
     id="path30114" />
</svg>
