<svg height="32" viewBox="0 0 32 32" width="32" xmlns="http://www.w3.org/2000/svg"><g transform="translate(16 -274.64999)"><path d="m-11 275.64999h21.999999c1.108 0 2 .892 2 2v26c0 1.108-.892 2-2 2h-21.999999c-1.108 0-2-.892-2-2v-26c0-1.108.892-2 2-2z" fill="#805983"/><path d="m-11 276.64999h21.999999c.554 0 1 .446 1 1v26c0 .554-.446 1-1 1h-21.999999c-.554 0-1-.446-1-1v-26c0-.554.446-1 1-1z" fill="#ba81bd"/></g><path d="m16.414062 297.65039v5 11h16v-11h-5v-5zm1 1h9v4h-9zm1 1v2h7v-2zm-1 4h14v4h-14zm1 1v2h12v-2zm-1 4h14v4h-14zm1 1v2h12v-2z" fill="#f2e7f2" opacity=".98" transform="translate(-8.414062 -288.65039)"/></svg>