<svg height="32" viewBox="0 0 32 32" width="32" xmlns="http://www.w3.org/2000/svg"><g transform="translate(28 -264.89999)"><path d="m-23 265.89999h21.9999995c1.108 0 2 .892 2 2v26c0 1.108-.892 2-2 2h-21.9999995c-1.108 0-2-.892-2-2v-26c0-1.108.892-2 2-2z" fill="#1d86d9"/><path d="m-23 266.89999h21.9999995c.554 0 1 .446 1 1v26c0 .554-.446 1-1 1h-21.9999995c-.553999 0-1-.446-1-1v-26c0-.554.446001-1 1-1z" fill="#44acff"/></g><g stroke-linecap="round" stroke-linejoin="round" stroke-miterlimit="1.8" stroke-width=".529167" transform="matrix(3.7795276 0 0 3.7795276 4.00000005604 3.9999983356)"><path d="m2.38125 2.1166666c-.1465789 0-.2645834.1180045-.2645834.2645834v3.1749999c0 .146579.1180045.2645834.2645834.2645834h3.1749999c.1465789 0 .2645834-.1180044.2645834-.2645834v-3.1749999c0-.1465789-.1180045-.2645834-.2645834-.2645834z" fill="#9cd3ff"/><path d="m2.9104166 2.6458333v.2645833.2645834.2645833.2645833.2645834.2645833.2645833h1.8520833v.2645833h-1.8520833v.2645834.2645833h.2645833v-.2645833h.5291667v.2645833h.2645834v-.2645833h.2645833v.2645833h.2645833v-.2645833h.2645833v.2645833h.2645834v-.2645833-.2645834-.2645833-.2645833h-1.8520834v-.2645833h1.5875.2645834v-1.3229167h-.79375-.5291667zm.2645833.2645833h1.5875v.2645834h-1.5875zm0 .5291667h1.5875v.2645833h-1.5875z" fill="#44acff"/><path d="m.79374999.52916666c-.14657888 0-.26458333.11800447-.26458333.26458333v3.17500001c0 .1465788.11800445.2645833.26458333.2645833h3.17500001c.1465788 0 .2645833-.1180045.2645833-.2645833v-3.17500001c0-.14657886-.1180045-.26458333-.2645833-.26458333z" fill="#d1ebff"/><path d="m2.1166666 1.0583333-1.0583333 2.1166667.5291667.2645833.2645833-.5291667h1.0583333l.2645834.5291667.5291666-.2645833-1.0583333-2.1166667zm.2645834.5291667.2645833.79375h-.5291667z" fill="#44acff"/></g></svg>