<?xml version="1.0" encoding="UTF-8" standalone="no"?>
<!-- Created with Inkscape (http://www.inkscape.org/) -->

<svg
   width="32"
   height="32"
   viewBox="0 0 8.4666664 8.4666666"
   version="1.1"
   id="svg5"
   inkscape:version="1.2.1 (9c6d41e410, 2022-07-14)"
   sodipodi:docname="audio-midi.svg"
   xml:space="preserve"
   xmlns:inkscape="http://www.inkscape.org/namespaces/inkscape"
   xmlns:sodipodi="http://sodipodi.sourceforge.net/DTD/sodipodi-0.dtd"
   xmlns="http://www.w3.org/2000/svg"
   xmlns:svg="http://www.w3.org/2000/svg"><sodipodi:namedview
     id="namedview7"
     pagecolor="#ffffff"
     bordercolor="#000000"
     borderopacity="0.25"
     inkscape:showpageshadow="false"
     inkscape:pageopacity="0.0"
     inkscape:pagecheckerboard="0"
     inkscape:deskcolor="#d1d1d1"
     inkscape:document-units="px"
     showgrid="true"
     inkscape:zoom="14.481547"
     inkscape:cx="22.06256"
     inkscape:cy="19.196844"
     inkscape:window-width="2160"
     inkscape:window-height="1330"
     inkscape:window-x="0"
     inkscape:window-y="0"
     inkscape:window-maximized="1"
     inkscape:current-layer="layer1"><inkscape:grid
       type="xygrid"
       id="grid290"
       originx="0"
       originy="0" /></sodipodi:namedview><defs
     id="defs2" /><g
     inkscape:label="Capa 1"
     inkscape:groupmode="layer"
     id="layer1"><g
       id="g9870"
       transform="translate(1.5874998,1.3229201)"><g
         id="g8227"
         transform="matrix(0.26458333,0,0,0.26458333,-35.341697,-107.32823)"><path
           id="rect907"
           style="fill:#36404d;fill-opacity:1;stroke-width:2;stroke-linecap:square;stroke-miterlimit:1.8;paint-order:stroke fill markers;stop-color:#000000"
           d="m 132.57491,401.65 h 22.00002 c 1.108,0 1.99999,0.892 1.99999,1.99999 V 429.65 c 0,1.108 -0.89199,1.99999 -1.99999,1.99999 h -22.00002 c -1.108,0 -1.99999,-0.89199 -1.99999,-1.99999 v -26.00001 c 0,-1.10799 0.89199,-1.99999 1.99999,-1.99999 z" /><path
           id="rect907-3"
           style="fill:#4b6477;stroke-width:2;stroke-linecap:square;stroke-miterlimit:1.8;paint-order:stroke fill markers;stop-color:#000000"
           d="m 132.57492,402.65 h 22 c 0.554,0 1,0.446 1,1 v 25.99999 c 0,0.554 -0.446,1 -1,1 h -22 c -0.554,0 -1,-0.446 -1,-1 V 403.65 c 0,-0.554 0.446,-1 1,-1 z" /><path
           id="rect2135"
           style="fill:#36404d;fill-opacity:1;stroke-width:2;stroke-linecap:square;stroke-miterlimit:1.8;paint-order:stroke fill markers;stop-color:#000000"
           d="m 132.57492,415.65 h 21 v 12.99999 h -21 z" /><path
           id="rect2761"
           style="fill:#f8b553;fill-opacity:1;stroke-width:2;stroke-linecap:square;stroke-miterlimit:1.8;paint-order:stroke fill markers;stop-color:#000000"
           d="m 138.57492,405.64999 h 10 v 6.99999 l -10,10e-6 z"
           sodipodi:nodetypes="ccccc" /><path
           id="rect2763"
           style="fill:#d16040;fill-opacity:1;stroke-width:2;stroke-linecap:square;stroke-miterlimit:1.8;paint-order:stroke fill markers;stop-color:#000000"
           d="m 133.57492,404.64999 h 4 v 4 h -4 z" /><path
           id="rect2763-7"
           style="fill:#6e7cd4;fill-opacity:1;stroke-width:2;stroke-linecap:square;stroke-miterlimit:1.8;paint-order:stroke fill markers;stop-color:#000000"
           d="m 149.57492,404.65 h 4 v 4 h -4 z" /><path
           id="rect2763-7-5"
           style="fill:#6e7cd4;stroke-width:2;stroke-linecap:square;stroke-miterlimit:1.8;paint-order:stroke fill markers;stop-color:#000000"
           d="m 149.57492,409.65 h 4 v 4 h -4 z" /><path
           id="rect2763-6"
           style="fill:#d16040;fill-opacity:1;stroke-width:2;stroke-linecap:square;stroke-miterlimit:1.8;paint-order:stroke fill markers;stop-color:#000000"
           d="m 133.57492,409.64999 h 4 v 4 h -4 z" /><path
           id="rect2908"
           style="fill:#fcd277;fill-opacity:1;stroke-width:2;stroke-linecap:square;stroke-miterlimit:1.8;paint-order:stroke fill markers;stop-color:#000000"
           d="m 139.57492,406.64999 h 8 v 4.99999 l -8,10e-6 z"
           sodipodi:nodetypes="ccccc" /><path
           id="rect3066"
           style="fill:#ff8f64;fill-opacity:1;stroke-width:2;stroke-linecap:square;stroke-miterlimit:1.8;paint-order:stroke fill markers;stop-color:#000000"
           d="m 134.57492,405.64999 h 2 v 2 h -2 z" /><path
           id="rect3068"
           style="fill:#ff8f64;fill-opacity:1;stroke-width:2;stroke-linecap:square;stroke-miterlimit:1.8;paint-order:stroke fill markers;stop-color:#000000"
           d="m 134.57492,410.64999 h 2 v 2 h -2 z" /><path
           id="rect3070"
           style="fill:#a2aee9;stroke-width:2;stroke-linecap:square;stroke-miterlimit:1.8;paint-order:stroke fill markers;stop-color:#000000"
           d="m 150.57492,410.65 h 2 v 2 h -2 z" /><path
           id="rect3072"
           style="fill:#a2aee9;fill-opacity:1;stroke-width:2;stroke-linecap:square;stroke-miterlimit:1.8;paint-order:stroke fill markers;stop-color:#000000"
           d="m 150.57492,405.65 h 2 v 2 h -2 z" /><path
           id="rect4528"
           style="fill:#f1f1f1;fill-opacity:1;stroke-width:2;stroke-linecap:square;stroke-miterlimit:1.8;paint-order:stroke fill markers;stop-color:#000000"
           d="m 133.57492,416.64999 v 11 h 3 v -11 z m 4,0 v 11 h 3 v -11 z m 4,0 v 11 h 3 v -11 z m 4,0 v 11 h 3 v -11 z m 4,0 v 11 h 3 v -11 z" /><path
           id="rect5452"
           style="fill:#36404d;fill-opacity:1;stroke-width:2;stroke-linecap:square;stroke-miterlimit:1.8;paint-order:stroke fill markers;stop-color:#000000"
           d="m 135.57492,415.64999 v 7 h 3 v -7 z m 4,0 v 7 h 3 v -7 z m 4,0 v 7 h 3 v -7 z m 4,0 v 7 h 3 v -7 z" /><path
           id="rect5818"
           style="fill:#4b6477;stroke-width:2;stroke-linecap:square;stroke-miterlimit:1.8;paint-order:stroke fill markers;stop-color:#000000"
           d="m 136.57492,416.65 h 1 v 4.99999 h -1 z" /><path
           id="rect5818-9"
           style="fill:#4b6477;stroke-width:2;stroke-linecap:square;stroke-miterlimit:1.8;paint-order:stroke fill markers;stop-color:#000000"
           d="m 144.57492,416.65 h 1 v 4.99999 h -1 z" /><path
           id="rect5818-9-6"
           style="fill:#4b6477;stroke-width:2;stroke-linecap:square;stroke-miterlimit:1.8;paint-order:stroke fill markers;stop-color:#000000"
           d="m 140.57492,416.65 h 1 v 4.99999 h -1 z" /><path
           id="rect5818-6"
           style="fill:#4b6477;stroke-width:2;stroke-linecap:square;stroke-miterlimit:1.8;paint-order:stroke fill markers;stop-color:#000000"
           d="m 148.57492,416.65 h 1 v 4.99999 h -1 z" /><path
           id="rect9135"
           style="fill:#f6ac23;fill-opacity:1;stroke-width:2;stroke-linecap:square;stroke-miterlimit:1.8;paint-order:stroke fill markers;stop-color:#000000"
           d="m 146.57492,408.64998 h -1 v 1 0 l -1,10e-6 v 1 h -1 v -1.00001 -2 h -1 v 3.00001 h -1 v -2.00001 h -1 v 2.00001 h -1 v 1 h 1 1 1 1 1 v -10e-6 h 1 v 0 h 1 v 0 l 1,10e-6 v -2 h -1 z"
           sodipodi:nodetypes="ccccccccccccccccccccccccccccccc" /></g></g></g></svg>
