<svg height="32" viewBox="0 0 8.4666662 8.4666664" width="32" xmlns="http://www.w3.org/2000/svg"><g transform="translate(9.077593 -294.503967)"><path d="m-7.7546764 294.76855h5.8208328c.2931583 0 .5291666.23601.5291666.52917v6.87916c0 .29316-.2360083.52917-.5291666.52917h-5.8208328c-.2931583 0-.5291667-.23601-.5291667-.52917v-6.87916c0-.29316.2360084-.52917.5291667-.52917z" fill="#a3b7cc"/><path d="m-7.7546764 295.03313h5.8208328c.1465791 0 .2645833.11801.2645833.26459v6.87916c0 .14658-.1180042.26459-.2645833.26459h-5.8208328c-.1465792 0-.2645833-.11801-.2645833-.26459v-6.87916c0-.14658.1180041-.26459.2645833-.26459z" fill="#f1f1f1"/><path d="m-7.4900934 295.5623v6.35h5.2916664v-6.35z" fill="#78c1ff"/><path d="m-6.1470229 299.00395a.26460996.26460996 0 0 0 -.2067057.07596l-1.0583333 1.05885a.26460996.26460996 0 0 0 -.0780314.18552v1.32447a.26460996.26460996 0 0 0 .2656169.26355h1.0562662a.26460996.26460996 0 0 0 .197404-.08785l1.148767-1.27382a.26460996.26460996 0 0 0 -.0139526-.36897l-1.1482503-1.10536a.26460996.26460996 0 0 0 -.1627808-.07235z" fill="#6989a1" stroke-linecap="round" stroke-linejoin="round" stroke-width=".529167"/><path d="m-6.1671767 299.26647-.5291666.52917.5291666-.26459v.79375l.2645834-.26458.2645833-.26459z" fill="#f2f2f2"/><path d="m-3.8158991 297.68052c-.059199.007-.1143694.0334-.1565796.0754l-.2656168.26562c-.00212.003-.00418.005-.0062.008l-3.1755166 3.43959c-.044248.049-.068578.11278-.068213.1788h-.00207v.26458h5.2916665v-.26458h-.00103v-1.05782-1.32395c-.0000096-.0694-.027291-.13604-.075964-.18552l-1.0583333-1.05885-.2656169-.26562c-.056966-.0567-.1366366-.0845-.2165242-.0754z" fill="#4b6477" stroke-linecap="round" stroke-linejoin="round"/><path d="m-7.4900934 295.5623v6.35h5.2916664v-6.35zm.2645833.26458h4.7624998v5.82084h-4.7624998z" fill-opacity=".201717"/><path d="m-3.5213435 298.20814-.2645833-.26459-.2645833.26459-.79375.79374.5291667-.26458.5291666.52917v-.52917l.5291667.26458v-.26458l.5291666.26458z" fill="#f2f2f2"/></g></svg>