<svg height="32" viewBox="0 0 8.4666662 8.4666664" width="32" xmlns="http://www.w3.org/2000/svg"><g transform="translate(9.077593 -294.503967)"><path d="m-7.7546764 294.76855h5.8208328c.2931583 0 .5291666.23601.5291666.52917v6.87916c0 .29316-.2360083.52917-.5291666.52917h-5.8208328c-.2931583 0-.5291667-.23601-.5291667-.52917v-6.87916c0-.29316.2360084-.52917.5291667-.52917z" fill="#a3b7cc"/><path d="m-7.7546764 295.03313h5.8208328c.1465791 0 .2645833.11801.2645833.26459v6.87916c0 .14658-.1180042.26459-.2645833.26459h-5.8208328c-.1465792 0-.2645833-.11801-.2645833-.26459v-6.87916c0-.14658.1180041-.26459.2645833-.26459z" fill="#f1f1f1"/><path d="m-7.4900934 295.5623v6.35h5.2916664v-6.35z" fill="#348be7"/><path d="m-7.4900934 300.58938c2.2647226-1.51908 1.587488.79502 5.2916664 0v.79375h-5.2916664z" fill="#f7d5bf"/><path d="m-2.1984267 300.58938c-2.3812502-2.64583-2.9104168.52917-5.2916667.52917l-.0000003.79375h5.2916667z" fill="#f1b38a"/><path d="m-5.7651342 296.36483a1.0583333 1.0583333 0 0 0 -.9312092 1.04955 1.0583333 1.0583333 0 0 0 1.0583333 1.05834 1.0583333 1.0583333 0 0 0 .920874-.53795 1.0583333 1.0583333 0 0 1 -.052193.006 1.0583333 1.0583333 0 0 1 -.074931.003 1.0583333 1.0583333 0 0 1 -.10542-.005 1.0583333 1.0583333 0 0 1 -.1049031-.016 1.0583333 1.0583333 0 0 1 -.1023194-.0258 1.0583333 1.0583333 0 0 1 -.099735-.0367 1.0583333 1.0583333 0 0 1 -.095085-.046 1.0583333 1.0583333 0 0 1 -.089917-.0553 1.0583333 1.0583333 0 0 1 -.084233-.0641 1.0583333 1.0583333 0 0 1 -.077515-.0718 1.0583333 1.0583333 0 0 1 -.069763-.0796 1.0583333 1.0583333 0 0 1 -.061495-.0858 1.0583333 1.0583333 0 0 1 -.05271-.092 1.0583333 1.0583333 0 0 1 -.043408-.0966 1.0583333 1.0583333 0 0 1 -.033073-.10026 1.0583333 1.0583333 0 0 1 -.023254-.10335 1.0583333 1.0583333 0 0 1 -.01292-.1049 1.0583333 1.0583333 0 0 1 -.00259-.0749 1.0583333 1.0583333 0 0 1 .00517-.10542 1.0583333 1.0583333 0 0 1 .016021-.10491 1.0583333 1.0583333 0 0 1 .025839-.10231 1.0583333 1.0583333 0 0 1 .03669-.0997 1.0583333 1.0583333 0 0 1 .045992-.0951 1.0583333 1.0583333 0 0 1 .00775-.0129z" fill="#dae9f8"/><path d="m-7.4900934 295.5623v6.35h5.2916664v-6.35zm.2645833.26458h4.7624998v5.82084h-4.7624998z" fill-opacity=".201717"/></g></svg>