<svg height="32" viewBox="0 0 8.4666662 8.4666664" width="32" xmlns="http://www.w3.org/2000/svg"><g transform="translate(9.077593 -294.503967)"><path d="m-7.7546764 294.76855h5.8208328c.2931583 0 .5291666.23601.5291666.52917v6.87916c0 .29316-.2360083.52917-.5291666.52917h-5.8208328c-.2931583 0-.5291667-.23601-.5291667-.52917v-6.87916c0-.29316.2360084-.52917.5291667-.52917z" fill="#a3b7cc"/><path d="m-7.7546764 295.03313h5.8208328c.1465791 0 .2645833.11801.2645833.26459v6.87916c0 .14658-.1180042.26459-.2645833.26459h-5.8208328c-.1465792 0-.2645833-.11801-.2645833-.26459v-6.87916c0-.14658.1180041-.26459.2645833-.26459z" fill="#f1f1f1"/><path d="m-7.4900934 295.5623v6.35h5.2916664v-6.35z" fill="#93a0e6"/><path d="m-2.1984268 301.9123v-1.32292l-1.3229167-1.32292-1.147521 1.1066 1.4121043 1.53924z" fill="#e5e7f3"/><path d="m-7.4900933 301.9123v-1.32292l1.8520833-1.85208 2.9104167 3.175z" fill="#cdd2ef"/><path d="m-7.4900933 300.58938 1.8520833-1.85208 1.3229167 3.175h-3.175z" fill="#e5e7f3"/><path d="m-7.4900934 295.5623v6.35h5.2916664v-6.35zm.2645833.26458h4.7624998v5.82084h-4.7624998z" fill-opacity=".201717"/><path d="m9.332687 297.1541a1.0583333 1.0583333 0 0 1 .931209 1.04955 1.0583333 1.0583333 0 0 1 -1.0583331 1.05834 1.0583333 1.0583333 0 0 1 -.9208741-.53795 1.0583333 1.0583333 0 0 0 .05219.006 1.0583333 1.0583333 0 0 0 .07493.003 1.0583333 1.0583333 0 0 0 .10542-.005 1.0583333 1.0583333 0 0 0 .104903-.016 1.0583333 1.0583333 0 0 0 .10232-.0258 1.0583333 1.0583333 0 0 0 .09973-.0367 1.0583333 1.0583333 0 0 0 .09509-.046 1.0583333 1.0583333 0 0 0 .08992-.0553 1.0583333 1.0583333 0 0 0 .08423-.0641 1.0583333 1.0583333 0 0 0 .07752-.0718 1.0583333 1.0583333 0 0 0 .069763-.0796 1.0583333 1.0583333 0 0 0 .061495-.0858 1.0583333 1.0583333 0 0 0 .05271-.092 1.0583333 1.0583333 0 0 0 .043408-.0966 1.0583333 1.0583333 0 0 0 .03307-.10026 1.0583333 1.0583333 0 0 0 .02325-.10335 1.0583333 1.0583333 0 0 0 .01292-.1049 1.0583333 1.0583333 0 0 0 .0026-.0749 1.0583333 1.0583333 0 0 0 -.0052-.10542 1.0583333 1.0583333 0 0 0 -.01602-.10491 1.0583333 1.0583333 0 0 0 -.02584-.10231 1.0583333 1.0583333 0 0 0 -.03669-.0997 1.0583333 1.0583333 0 0 0 -.045992-.0951 1.0583333 1.0583333 0 0 0 -.00775-.0129z" fill="#e5e7f3" transform="translate(-13.256073 -.789265)"/></g></svg>