<?xml version="1.0" encoding="UTF-8" standalone="no"?>
<!-- Created with Inkscape (http://www.inkscape.org/) -->

<svg
   width="32"
   height="32"
   viewBox="0 0 8.4666664 8.4666666"
   version="1.1"
   id="svg5"
   inkscape:version="1.2.2 (b0a8486541, 2022-12-01)"
   sodipodi:docname="image-raw.svg"
   xmlns:inkscape="http://www.inkscape.org/namespaces/inkscape"
   xmlns:sodipodi="http://sodipodi.sourceforge.net/DTD/sodipodi-0.dtd"
   xmlns="http://www.w3.org/2000/svg"
   xmlns:svg="http://www.w3.org/2000/svg">
  <sodipodi:namedview
     id="namedview7"
     pagecolor="#ffffff"
     bordercolor="#000000"
     borderopacity="0.25"
     inkscape:showpageshadow="false"
     inkscape:pageopacity="0.0"
     inkscape:pagecheckerboard="0"
     inkscape:deskcolor="#d1d1d1"
     inkscape:document-units="px"
     showgrid="true"
     inkscape:zoom="28.963094"
     inkscape:cx="16.831765"
     inkscape:cy="15.640594"
     inkscape:window-width="2560"
     inkscape:window-height="1363"
     inkscape:window-x="0"
     inkscape:window-y="0"
     inkscape:window-maximized="1"
     inkscape:current-layer="layer1">
    <inkscape:grid
       type="xygrid"
       id="grid290"
       originx="0"
       originy="0" />
  </sodipodi:namedview>
  <defs
     id="defs2" />
  <g
     inkscape:label="Capa 1"
     inkscape:groupmode="layer"
     id="layer1">
    <g
       id="g13088"
       transform="translate(-1.0583327,0.79375325)">
      <g
         transform="translate(10.135926,-295.29772)"
         id="g5541">
        <path
           style="fill:#36404d;fill-opacity:1"
           d="m -7.7546764,294.76855 h 5.8208328 c 0.2931583,0 0.5291666,0.23601 0.5291666,0.52917 v 6.87916 c 0,0.29316 -0.2360083,0.52917 -0.5291666,0.52917 h -5.8208328 c -0.2931583,0 -0.5291667,-0.23601 -0.5291667,-0.52917 v -6.87916 c 0,-0.29316 0.2360084,-0.52917 0.5291667,-0.52917 z"
           id="path5525" />
        <path
           style="fill:#4b6477;fill-opacity:1"
           d="m -7.7546764,295.03313 h 5.8208328 c 0.1465791,0 0.2645833,0.11801 0.2645833,0.26459 v 6.87916 c 0,0.14658 -0.1180042,0.26459 -0.2645833,0.26459 h -5.8208328 c -0.1465792,0 -0.2645833,-0.11801 -0.2645833,-0.26459 v -6.87916 c 0,-0.14658 0.1180041,-0.26459 0.2645833,-0.26459 z"
           id="path5527" />
        <path
           style="fill:#c62f4e;fill-opacity:1"
           d="m -7.4900934,295.5623 v 6.35 h 5.2916664 v -6.35 z"
           id="path5529" />
        <path
           d="m -2.1984268,301.9123 v -1.32292 l -1.3229167,-1.32292 -1.147521,1.1066 1.4121043,1.53924 z"
           fill="#e5e7f3"
           id="path5531"
           style="fill:#f3e5f3;fill-opacity:0.708293" />
        <path
           style="fill:#d27292;fill-opacity:1"
           d="m -7.4900933,301.9123 v -1.32292 l 1.8520833,-1.85208 2.9104167,3.175 z"
           id="path5533" />
        <path
           style="fill:#e5b0c3;fill-opacity:1"
           d="m -7.4900933,300.58938 1.8520833,-1.85208 1.3229167,3.175 h -3.175 z"
           id="path5535" />
        <path
           d="m -7.4900934,295.5623 v 6.35 h 5.2916664 v -6.35 z m 0.2645833,0.26458 h 4.7624998 v 5.82084 h -4.7624998 z"
           fill-opacity=".201717"
           id="path5537"
           style="fill:#36404d;fill-opacity:1" />
        <path
           d="m 9.332687,297.1541 a 1.0583333,1.0583333 0 0 1 0.931209,1.04955 1.0583333,1.0583333 0 0 1 -1.0583331,1.05834 1.0583333,1.0583333 0 0 1 -0.9208741,-0.53795 1.0583333,1.0583333 0 0 0 0.05219,0.006 1.0583333,1.0583333 0 0 0 0.07493,0.003 1.0583333,1.0583333 0 0 0 0.10542,-0.005 1.0583333,1.0583333 0 0 0 0.104903,-0.016 1.0583333,1.0583333 0 0 0 0.10232,-0.0258 1.0583333,1.0583333 0 0 0 0.09973,-0.0367 1.0583333,1.0583333 0 0 0 0.09509,-0.046 1.0583333,1.0583333 0 0 0 0.08992,-0.0553 1.0583333,1.0583333 0 0 0 0.08423,-0.0641 1.0583333,1.0583333 0 0 0 0.07752,-0.0718 1.0583333,1.0583333 0 0 0 0.069763,-0.0796 1.0583333,1.0583333 0 0 0 0.061495,-0.0858 1.0583333,1.0583333 0 0 0 0.05271,-0.092 1.0583333,1.0583333 0 0 0 0.043408,-0.0966 1.0583333,1.0583333 0 0 0 0.03307,-0.10026 1.0583333,1.0583333 0 0 0 0.02325,-0.10335 1.0583333,1.0583333 0 0 0 0.01292,-0.1049 1.0583333,1.0583333 0 0 0 0.0026,-0.0749 1.0583333,1.0583333 0 0 0 -0.0052,-0.10542 1.0583333,1.0583333 0 0 0 -0.01602,-0.10491 1.0583333,1.0583333 0 0 0 -0.02584,-0.10231 1.0583333,1.0583333 0 0 0 -0.03669,-0.0997 1.0583333,1.0583333 0 0 0 -0.045992,-0.0951 1.0583333,1.0583333 0 0 0 -0.00775,-0.0129 z"
           fill="#e5e7f3"
           transform="translate(-13.256073,-0.789265)"
           id="path5539"
           style="fill:#f3e5f3;fill-opacity:0.708293" />
      </g>
    </g>
  </g>
</svg>
