<svg height="32" viewBox="0 0 8.4666662 8.4666664" width="32" xmlns="http://www.w3.org/2000/svg"><g transform="translate(9.077593 -294.503967)"><path d="m-7.7546764 294.76855h5.8208328c.2931583 0 .5291666.23601.5291666.52917v6.87916c0 .29316-.2360083.52917-.5291666.52917h-5.8208328c-.2931583 0-.5291667-.23601-.5291667-.52917v-6.87916c0-.29316.2360084-.52917.5291667-.52917z" fill="#a3b7cc"/><path d="m-7.7546764 295.03313h5.8208328c.1465791 0 .2645833.11801.2645833.26459v6.87916c0 .14658-.1180042.26459-.2645833.26459h-5.8208328c-.1465792 0-.2645833-.11801-.2645833-.26459v-6.87916c0-.14658.1180041-.26459.2645833-.26459z" fill="#f1f1f1"/><path d="m-7.4900934 295.5623v6.35h5.2916664v-6.35z" fill="#71b4ff"/><path d="m-2.1984268 301.9123v-1.32292l-1.3229167-1.32292-1.147521 1.1066 1.4121043 1.53924z" fill="#dcecfe"/><path d="m-7.4900933 301.9123v-1.32292l1.8520833-1.85208 2.9104167 3.175z" fill="#8fcaf9"/><path d="m-7.4900933 300.58938 1.8520833-1.85208 1.3229167 3.175h-3.175z" fill="#dcecfe"/><path d="m-7.4900934 295.5623v6.35h5.2916664v-6.35zm.2645833.26458h4.7624998v5.82084h-4.7624998z" fill-opacity=".201717"/><path d="m-3.9182185 296.35605h.0000012c.5130268 0 .9260411.41302.9260411.92604 0 .51303-.4130143.92604-.9260411.92604h-.0000012c-.5130267 0-.926041-.41301-.926041-.92604 0-.51302.4130143-.92604.926041-.92604z" fill="#dcecfe"/></g></svg>