<?xml version="1.0" encoding="UTF-8" standalone="no"?>
<svg
   height="32"
   viewBox="0 0 32 32"
   width="32"
   version="1.1"
   id="svg293"
   sodipodi:docname="image-x-xcf.svg"
   inkscape:version="1.2.1 (9c6d41e410, 2022-07-14)"
   xml:space="preserve"
   xmlns:inkscape="http://www.inkscape.org/namespaces/inkscape"
   xmlns:sodipodi="http://sodipodi.sourceforge.net/DTD/sodipodi-0.dtd"
   xmlns="http://www.w3.org/2000/svg"
   xmlns:svg="http://www.w3.org/2000/svg"><defs
     id="defs297" /><sodipodi:namedview
     id="namedview295"
     pagecolor="#ffffff"
     bordercolor="#000000"
     borderopacity="0.25"
     inkscape:showpageshadow="2"
     inkscape:pageopacity="0.0"
     inkscape:pagecheckerboard="0"
     inkscape:deskcolor="#d1d1d1"
     showgrid="false"
     inkscape:zoom="14.75"
     inkscape:cx="12.610169"
     inkscape:cy="19.525424"
     inkscape:window-width="2160"
     inkscape:window-height="1330"
     inkscape:window-x="0"
     inkscape:window-y="0"
     inkscape:window-maximized="1"
     inkscape:current-layer="g291" /><g
     transform="translate(84 -286.64999)"
     id="g291"><g
       id="g5055"><path
         d="M -78.999999,287.64999 H -57 c 1.108,0 2,0.89202 2,2.00001 v 26.00001 c 0,1.10797 -0.892,1.99998 -2,1.99998 h -21.999999 c -1.108,0 -2,-0.89201 -2,-1.99998 v -26 c 0,-1.108 0.892,-2 2,-2.00002 z"
         fill="#a3b7cc"
         id="path5041" /><path
         d="M -78.999999,288.65001 H -57 c 0.554,0 1,0.44599 1,1 v 26 c 0,0.55401 -0.446,1 -1,1 h -21.999999 c -0.554,0 -1,-0.44599 -1,-1 v -26 c 0,-0.55399 0.446,-1 1,-1 z"
         fill="#fafafa"
         id="path5043" /><path
         d="m 0.31505312,292.32434 c -0.14656525,0 -0.26458332,0.11803 -0.26458332,0.26459 v 0.52916 0.26459 H 0.31505312 0.84421977 1.1088031 v -0.26459 -0.52916 -0.26459 H 0.84421977 Z m 0.79374998,1.05834 v 1.05833 h 1.0583333 v -1.05833 z m 1.0583333,0 h 1.0583333 v -1.05834 H 2.1671364 Z m 1.0583333,0 v 1.05833 H 4.283803 v -1.05833 z m 1.0583333,0 h 1.0583333 v -1.05834 H 4.283803 Z m 1.0583333,0 v 1.05833 h 1.0583333 v -1.05833 z m 0,1.05833 H 4.283803 v 1.05833 h 1.0583333 z m 0,1.05833 v 1.05834 h 1.0583333 v -1.05834 z m 0,1.05834 H 4.283803 v 1.05833 h 1.0583333 z m 0,1.05833 v 0.26458 0.52917 0.26458 h 0.7937499 0.2645834 v -0.26458 -0.79375 z m 0,1.05833 H 4.283803 v 1.05834 h 1.0583333 z m -1.0583333,0 v -1.05833 H 3.2254697 v 1.05833 z m -1.0583333,0 H 2.1671364 v 1.05834 h 1.0583333 z m -1.0583333,0 v -1.05833 H 1.1088031 v 1.05833 z m -1.0583333,0 H 0.0504698 v 1.05834 h 1.0583333 z m 0,-1.05833 v -1.05833 H 0.0504698 v 1.05833 z m 0,-1.05833 h 1.0583333 v -1.05834 H 1.1088031 Z m 0,-1.05834 v -1.05833 H 0.0504698 v 1.05833 z m 1.0583333,0 h 1.0583333 v -1.05833 H 2.1671364 Z m 1.0583333,0 v 1.05834 H 4.283803 v -1.05834 z m 0,1.05834 H 2.1671364 v 1.05833 h 1.0583333 z"
         fill="#d8e0e8"
         transform="matrix(3.7795277,0,0,3.7795277,-80.190752,-816.19796)"
         id="path5045" /></g><g
       id="g4741"
       transform="translate(6.5353701,7.0354283)"><g
         id="path918"
         transform="matrix(3.7795277,0,0,3.7795277,-91.535371,-813.90084)"><path
           id="path1998"
           style="color:#000000;fill:#8c613b;fill-opacity:1;stroke-linecap:round;stroke-linejoin:round;stroke-miterlimit:1.8;paint-order:stroke fill markers"
           d="m 3.1507119,291.70942 c -0.1361697,0.0123 -0.2405498,0.12631 -0.2408121,0.26303 v 1.32343 H 2.3812499 v 0.52917 c 4.54e-5,0.75617 0.4034737,1.45488 1.0583333,1.83296 0.6548989,0.37811 1.7893961,0.37759 2.444295,-5.2e-4 0.6548597,-0.37808 1.0582879,-1.07679 1.0583333,-1.83296 v -0.2589 c 1.927e-4,-0.002 3.65e-4,-0.004 5.168e-4,-0.006 v -1.58802 c -3.908e-4,-0.19646 -0.2071902,-0.324 -0.3829224,-0.23616 l -1.0035562,0.50178 -1.2614216,5.2e-4 -1.002006,-0.50178 c -0.043956,-0.022 -0.093164,-0.0313 -0.1421102,-0.0269 z m 0.2888713,0.69091 0.6754109,0.33796 c 0.036303,0.0187 0.076454,0.0288 0.1173055,0.0295 l 1.3864785,-5.2e-4 c 0.041377,-3.9e-4 0.082086,-0.0105 0.1188558,-0.0295 l 0.6759277,-0.33796 v 0.89452 l -2.9739784,5.2e-4 z"
           sodipodi:nodetypes="cccccsscccccccccccccccccc" /><path
           id="path2000"
           style="color:#000000;fill:#b9977a;stroke-width:0.529167;stroke-linecap:round;stroke-linejoin:round;stroke-miterlimit:1.8;paint-order:stroke fill markers"
           d="m 3.1749998,291.97297 v 1.5875 H 2.6458332 v 0.26458 c -3.18e-5,0.66172 0.3529776,1.27318 0.9260416,1.60404 0.5730366,0.33084 1.6066753,0.33032 2.1797118,-5.2e-4 0.5730641,-0.33086 0.9260734,-0.94232 0.9260416,-1.60404 v -0.26458 -1.5875 l -1.0583333,0.52916 -1.3859618,5.2e-4 z"
           sodipodi:nodetypes="ccccsscccccc" /></g><path
         id="path8354-7-6-8-1-9-6"
         style="fill:#a3b7cc;fill-opacity:1;stroke-width:1.71428;stroke-linecap:round;stroke-linejoin:round;stroke-miterlimit:1.8;paint-order:stroke fill markers;stop-color:#000000"
         d="m -74.535369,295.61913 a 3.0000008,3.0000008 0 0 1 -2.999999,3 3.0000008,3.0000008 0 0 1 -3.000001,-3 3.0000008,3.0000008 0 0 1 3.000001,-3 3.0000008,3.0000008 0 0 1 2.999999,3 z" /><path
         id="path8354-0-8-2-3-0"
         style="fill:#f1f1f1;fill-opacity:1;stroke-width:1.14286;stroke-linecap:round;stroke-linejoin:round;stroke-miterlimit:1.8;paint-order:stroke fill markers;stop-color:#000000"
         d="m -75.535369,295.61913 a 1.9999998,1.9999998 0 0 1 -2.000001,1.99997 1.9999998,1.9999998 0 0 1 -1.999999,-1.99997 1.9999998,1.9999998 0 0 1 1.999999,-2.00002 1.9999998,1.9999998 0 0 1 2.000001,2.00002 z" /><path
         id="path8354-7-6-8-1-9"
         style="fill:#36404d;stroke-width:1.71428;stroke-linecap:round;stroke-linejoin:round;stroke-miterlimit:1.8;paint-order:stroke fill markers;stop-color:#000000"
         d="m -78.535371,296.61908 a 3.0000008,3.0000008 0 0 1 -3,3 3.0000008,3.0000008 0 0 1 -3,-3 3.0000008,3.0000008 0 0 1 3,-3 3.0000008,3.0000008 0 0 1 3,3 z" /><path
         id="path8354-0-8-2-3"
         style="fill:#4b6477;stroke-width:1.14286;stroke-linecap:round;stroke-linejoin:round;stroke-miterlimit:1.8;paint-order:stroke fill markers;stop-color:#000000"
         d="m -79.535371,296.61908 a 1.9999998,1.9999998 0 0 1 -2.000001,1.99997 1.9999998,1.9999998 0 0 1 -1.999999,-1.99997 1.9999998,1.9999998 0 0 1 1.999999,-2.00002 1.9999998,1.9999998 0 0 1 2.000001,2.00002 z" /><path
         id="path8354-0-8-2-3-0-6"
         style="fill:#36404d;fill-opacity:1;stroke-width:0.571431;stroke-linecap:round;stroke-linejoin:round;stroke-miterlimit:1.8;paint-order:stroke fill markers;stop-color:#000000"
         d="m -75.535369,295.61916 a 0.99999987,0.99999987 0 0 1 -1,0.99999 0.99999987,0.99999987 0 0 1 -0.999999,-0.99999 0.99999987,0.99999987 0 0 1 0.999999,-0.99998 0.99999987,0.99999987 0 0 1 1,0.99998 z" /><path
         id="path8354-7-6-8-1-9-6-7"
         style="fill:#a3b7cc;fill-opacity:1;stroke-width:1.71428;stroke-linecap:round;stroke-linejoin:round;stroke-miterlimit:1.8;paint-order:stroke fill markers;stop-color:#000000"
         d="m -69.53537,295.61909 a 3.0000008,3.0000008 0 0 1 -3,3 3.0000008,3.0000008 0 0 1 -3,-3 3.0000008,3.0000008 0 0 1 3,-3 3.0000008,3.0000008 0 0 1 3,3 z" /><path
         id="path8354-0-8-2-3-0-9"
         style="fill:#f1f1f1;fill-opacity:1;stroke-width:1.14286;stroke-linecap:round;stroke-linejoin:round;stroke-miterlimit:1.8;paint-order:stroke fill markers;stop-color:#000000"
         d="m -70.53537,295.61909 a 1.9999998,1.9999998 0 0 1 -2.000001,1.99997 1.9999998,1.9999998 0 0 1 -1.999999,-1.99997 1.9999998,1.9999998 0 0 1 1.999999,-2.00001 1.9999998,1.9999998 0 0 1 2.000001,2.00001 z" /><path
         id="path8354-0-8-2-3-0-6-2"
         style="fill:#36404d;fill-opacity:1;stroke-width:0.571431;stroke-linecap:round;stroke-linejoin:round;stroke-miterlimit:1.8;paint-order:stroke fill markers;stop-color:#000000"
         d="m -70.53537,295.61913 a 0.99999987,0.99999987 0 0 1 -1,0.99998 0.99999987,0.99999987 0 0 1 -1,-0.99998 0.99999987,0.99999987 0 0 1 1,-0.99999 0.99999987,0.99999987 0 0 1 1,0.99999 z" /></g></g></svg>
