<svg height="32" viewBox="0 0 32 32" width="32" xmlns="http://www.w3.org/2000/svg"><g transform="translate(16 -274.64999)"><path d="m-11 275.64999h21.999999c1.108 0 2 .892 2 2v26c0 1.108-.892 2-2 2h-21.999999c-1.108 0-2-.892-2-2v-26c0-1.108.892-2 2-2z" fill="#3182d9"/><path d="m-11 276.64999h21.999999c.554 0 1 .446 1 1v26c0 .554-.446 1-1 1h-21.999999c-.554 0-1-.446-1-1v-26c0-.554.446-1 1-1z" fill="#50c1f9"/><path d="m99.591852 162.52644a.26460996.26460996 0 0 0 -.09405.0263l-1.058334.52969a.2645835.2645835 0 0 0 -.117305.35553.2645835.2645835 0 0 0 .353467.11679l.941544-.4687 1.260386.62941-1.260386.63046-1.468644-.73432a.26460996.26460996 0 0 0 -.384989.23616v1.58801a.26460996.26460996 0 0 0 .146761.23616l1.5875.79324a.26460996.26460996 0 0 0 .02997.0114.2645835.2645835 0 0 0 .0078.003.26460996.26460996 0 0 0 .03876.009.2645835.2645835 0 0 0 .01188.002.26460996.26460996 0 0 0 .04651.002.26460996.26460996 0 0 0 .0031 0 .26460996.26460996 0 0 0 .04548-.008.26460996.26460996 0 0 0 .0052-.001.2645835.2645835 0 0 0 .0021-.00051.26460996.26460996 0 0 0 .04599-.0176l1.588008-.79324a.26460996.26460996 0 0 0 .14624-.23616v-1.57251a.2645835.2645835 0 0 0 0-.0305v-.25063a.26460996.26460996 0 0 0 -.14624-.23616l-1.588008-.79324a.26460996.26460996 0 0 0 -.142627-.0263zm-1.299146 1.74925 1.205095.60358a.26460996.26460996 0 0 0 .236678 0l1.205091-.60307v.99581l-1.058847.52917v-.36536a.2645835.2645835 0 0 0 -.26355-.26561.2645835.2645835 0 0 0 -.265617.26561v.36536l-1.05885-.52969z" fill="#fff" fill-opacity=".85098" stroke-linecap="round" stroke-linejoin="round" stroke-miterlimit="1.8" transform="matrix(3.7795276 0 0 3.7795276 -376.5 -330.61971)"/></g></svg>