<svg height="32" viewBox="0 0 32 32" width="32" xmlns="http://www.w3.org/2000/svg"><g transform="translate(84 -286.64999)"><path d="m-79 287.64997h21.999999c1.108 0 2 .89202 2 2.00001v26.00001c0 1.10797-.892 1.99998-2 1.99998h-21.999999c-1.108 0-2-.89201-2-1.99998v-26c0-1.108.892-2 2-2.00002z" fill="#a3b7cc"/><path d="m-78.999999 288.65001h21.999999c.554 0 1 .44599 1 1v26c0 .55401-.446 1-1 1h-21.999999c-.554 0-1-.44599-1-1v-26c0-.55399.446-1 1-1z" fill="#fafafa"/><path d="m-79 288.64999c-.553947 0-1 .4461-1 1.00003v1.99997 1.00003h1 2 1v-1.00003-1.99997-1.00003h-1zm3 4.00003v3.99998h4v-3.99998zm4 0h4v-4.00003h-4zm4 0v3.99998h4v-3.99998zm4 0h4v-4.00003h-4zm4 0v3.99998h4v-3.99998zm0 3.99998h-4v3.99999h4zm0 3.99999v4.00003h4v-4.00003zm0 4.00003h-4v3.99998h4zm0 3.99998v.99999 2.00001.99999h3 1v-.99999-3zm0 3.99999h-4v4.00003h4zm-4 0v-3.99999h-4v3.99999zm-4 0h-4v4.00003h4zm-4 0v-3.99999h-4v3.99999zm-4 0h-4v4.00003h4zm0-3.99999v-3.99998h-4v3.99998zm0-3.99998h4v-4.00003h-4zm0-4.00003v-3.99999h-4v3.99999zm4 0h4v-3.99999h-4zm4 0v4.00003h4v-4.00003zm0 4.00003h-4v3.99998h4z" fill="#dfe6ec"/><g fill="#a3b7cc" stroke-linecap="square" stroke-miterlimit="1.8" transform="translate(-68 11.99998)"><path d="m-8 282.64999v1 1 1h1v10h-1v1 1 1h1 1 1v-1h10v1h3v-3h-1v-10h1v-3h-3v1h-10v-1zm1 1h1v1h-1zm13 0h1v1h-1zm-11 1h10v1h1v10h-1v1h-10v-1h-1v-10h1zm-2 12h1v1h-1zm13 0h1v1h-1z" stroke-width=".176776"/><path d="m0 284.64999c-3.3239967 0-6 2.676-6 6 0 3.32399 2.6760033 6 6 6s6-2.67601 6-6c0-3.324-2.6760033-6-6-6z"/></g><g transform="matrix(3.7795276 0 0 3.7795276 -52.34745658669 281.31948993245)"><path d="m-4.1414018 6.1728584h1.3229166v1.3229166h-1.3229166z" fill="#c74343"/><path d="m-2.8184852 6.1728584h1.3229167v1.3229166h-1.3229167z" fill="#5e9c76"/><path d="m-4.1414018 7.495775h1.3229166v1.3229167h-1.3229166z" fill="#287bc2"/><path d="m-2.8184852 7.495775h1.3229167v1.3229167h-1.3229167z" fill="#febb58"/><path d="m-3.8768185 6.4374417h.79375v.79375h-.79375z" fill="#f78f8f"/><path d="m-2.5539018 7.7603584h.79375v.79375h-.79375z" fill="#ffeea3"/><path d="m-3.8768185 7.7603584h.79375v.79375h-.79375z" fill="#78c1ff"/><path d="m-2.5539018 6.4374417h.79375v.79375h-.79375z" fill="#bae0bd"/></g></g></svg>