<svg height="32" viewBox="0 0 32 32" width="32" xmlns="http://www.w3.org/2000/svg"><g transform="translate(16 -274.649985)"><path d="m-10.999999 275.65001h21.999999c1.108 0 2 .89202 2 2.00001v26.00001c0 1.10797-.892 1.99998-2 1.99998h-21.999999c-1.108 0-2-.892-2-1.99998v-26c0-1.108.892-2 2-2.00002z" fill="#4a73c6"/><path d="m-10.999999 276.65003h21.999999c.554 0 1 .44599 1 1v26c0 .55401-.446 1-1 1h-21.999999c-.554 0-1-.44599-1-1v-26c0-.55399.446-1 1-1z" fill="#5ca5ff"/><path d="m-1.5 282.65006c-1.213957 0-2.221083.85579-2.451172 2l-2.048828-.00007c-2 0-2 2-2 2v2.05084c.0019.00036.004-.00039.0059 0 .08152.0166.159904.0363.238282.0605.07838.0243.155644.0524.230468.084.07482.0315.147892.0671.21875.10548.07086.0384.140552.0802.207032.125s.129718.0937.191406.14452c.06169.0509.12125.10368.177734.16015.05649.0565.109289.11605.160157.17774.05087.0617.09969.12492.144531.1914.04484.0665.0866.13618.125.20704.0384.0709.07393.14392.105469.21875.03154.0748.05971.15209.08398.23046.02428.0784.04395.15677.06055.23829.0166.0815.0286.16575.03711.25.0085.0842.01367.16929.01367.25586 0 .0865-.0052.17161-.01367.25585-.0085.0842-.02051.16849-.03711.25-.0166.0815-.03627.15991-.06055.23829-.02428.0784-.05244.15564-.08398.23046-.03154.0748-.06707.1479-.105469.21875-.0384.0709-.08016.14056-.125.20704-.04484.0665-.09367.12971-.144531.1914-.05087.0617-.103672.12125-.160157.17774-.05648.0565-.116046.10928-.177734.16015-.06169.0509-.124927.0997-.191406.14452-.06648.0448-.136174.0866-.207032.125-.07086.0384-.143925.0739-.21875.10548-.07482.0315-.152091.0597-.230468.084-.07838.0243-.156763.0439-.238282.0605-.0019.00039-.004-.00036-.0059 0v3.05079s0 2 2 2l2.050781.00001c.000377-.002-.00038-.004 0-.006.0166-.0815.03627-.15991.06055-.23829.02428-.0784.05244-.15564.08398-.23046.03154-.0748.06707-.1479.105469-.21875.0384-.0709.08016-.14056.125-.20704.04484-.0665.09367-.12971.144531-.1914.05087-.0617.103672-.12125.160157-.17774.05648-.0565.116046-.10928.177734-.16015.06169-.0509.124927-.0997.191406-.14453.06648-.0448.136174-.0866.207032-.125.07086-.0384.143925-.0739.21875-.10547.07482-.0315.152091-.0597.230468-.084.07838-.0243.156763-.0439.238282-.0605.08152-.0166.165753-.0286.25-.0371.08425-.009.169297-.0137.255859-.0137.08656 0 .171613.005.255859.0137.08425.009.168482.0205.25.0371.08152.0166.159904.0363.238282.0605.07838.0243.155644.0524.230468.084.07482.0315.147892.0671.21875.10547.07086.0384.140552.0802.207032.125s.129718.0937.191406.14453c.06169.0509.12125.10367.177734.16015.05649.0565.109289.11605.160157.17774.05087.0617.09969.12492.144531.1914.04484.0665.0866.13618.125.20704.0384.0709.07393.14392.105469.21875.03154.0748.05971.15209.08398.23046.02428.0784.04395.15677.06055.23829.00038.002-.000377.004 0 .006l3.050783-.00001s2 0 2-2v-3.04883c1.14421-.23009 2-1.23721 2-2.45116 0-1.21396-.85579-2.2211-2-2.45119v-2.04882s0-2-2-2l-3.048828.00001c-.230089-1.14421-1.237215-2-2.451172-2z" fill="#e3f7ff" stroke-linecap="square" stroke-miterlimit="1.8"/></g></svg>