<?xml version="1.0" encoding="UTF-8" standalone="no"?>
<svg
   height="32"
   viewBox="0 0 32 32"
   width="32"
   version="1.1"
   id="svg12"
   sodipodi:docname="libreoffice-oasis-web-template.svg"
   inkscape:version="1.2.1 (9c6d41e410, 2022-07-14)"
   xmlns:inkscape="http://www.inkscape.org/namespaces/inkscape"
   xmlns:sodipodi="http://sodipodi.sourceforge.net/DTD/sodipodi-0.dtd"
   xmlns="http://www.w3.org/2000/svg"
   xmlns:svg="http://www.w3.org/2000/svg">
  <defs
     id="defs16" />
  <sodipodi:namedview
     id="namedview14"
     pagecolor="#ffffff"
     bordercolor="#000000"
     borderopacity="0.25"
     inkscape:showpageshadow="2"
     inkscape:pageopacity="0.0"
     inkscape:pagecheckerboard="0"
     inkscape:deskcolor="#d1d1d1"
     showgrid="false"
     inkscape:zoom="7.375"
     inkscape:cx="13.627119"
     inkscape:cy="16"
     inkscape:window-width="2160"
     inkscape:window-height="1330"
     inkscape:window-x="0"
     inkscape:window-y="0"
     inkscape:window-maximized="1"
     inkscape:current-layer="g10" />
  <g
     transform="translate(16 -274.64999)"
     id="g10">
    <path
       d="m-11 275.64999h21.999999c1.108 0 2 .892 2 2v26c0 1.108-.892 2-2 2h-21.999999c-1.108 0-2-.892-2-2v-26c0-1.108.892-2 2-2z"
       fill="#3182d9"
       id="path2" />
    <path
       d="m-11 276.64999h21.999999c.554 0 1 .446 1 1v26c0 .554-.446 1-1 1h-21.999999c-.554 0-1-.446-1-1v-26c0-.554.446-1 1-1z"
       fill="#50c1f9"
       id="path4" />
    <path
       d="m-1.0078635 285.18059c-.1465652 0-.2645833.11803-.2645833.26459v.52916.26459h.2645833.52916665.26458333v-.26459-.52916-.26459h-.26458333zm.79374998 1.05834v1.05833h1.0583333v-1.05833zm1.0583333 0h1.05833332v-1.05834h-1.05833332zm1.05833332 0v1.05833h1.0583333v-1.05833zm1.0583333 0h1.0583333v-1.05834h-1.0583333zm1.0583333 0v1.05833h1.0583333v-1.05833zm0 1.05833h-1.0583333v1.05833h1.0583333zm0 1.05833v1.05834h1.0583333v-1.05834zm0 1.05834h-1.0583333v1.05833h1.0583333zm0 1.05833v.26458.52917.26458h.7937499.2645834v-.26458-.79375zm0 1.05833h-1.0583333v1.05834h1.0583333zm-1.0583333 0v-1.05833h-1.0583333v1.05833zm-1.0583333 0h-1.05833332v1.05834h1.05833332zm-1.05833332 0v-1.05833h-1.0583333v1.05833zm-1.0583333 0h-1.05833328v.79375s0 .26459.2645833.26459h.79374998zm0-1.05833v-1.05833h-1.05833328v1.05833zm0-1.05833h1.0583333v-1.05834h-1.0583333zm0-1.05834v-1.05833h-1.05833328v1.05833zm1.0583333 0h1.05833332v-1.05833h-1.05833332zm1.05833332 0v1.05834h1.0583333v-1.05834zm0 1.05834h-1.05833332v1.05833h1.05833332z"
       fill="#67cafa"
       transform="matrix(3.7795277 0 0 3.7795277 -7.190752 -801.197962)"
       id="path6" />
    <path
       id="path10038"
       class="ColorScheme-Text"
       style="color:#122036;opacity:0.99;fill:#e7f9ff;fill-opacity:1;stroke:none;stroke-width:0.999999"
       d="m -5.9999993,284.64999 c -0.5539997,0 -1.000001,0.44598 -1.000001,1 l 8e-7,10.99997 c 0,0.55401 0.4460012,1.00003 1.000001,1.00003 h 1.9999989 l 1.0000014,-5e-5 h 5.9999999 l 0.9999987,5e-5 h 2.0000001 c 0.5540001,0 0.9999999,-0.44602 0.9999999,-1.00003 l -8e-7,-10.99997 c 0,-0.55402 -0.4459997,-1 -0.9999998,-1 z m 1.0000003,1.99998 h 9.9999989 l 8e-7,7.99997 h -3 v 1.00003 h -3.9999998 l 7e-7,-1.00003 h -2.9999999 z m 0.9999987,2.00001 v 3 h 2.0000012 v -3 z m 3.0000003,0 v 3 h 1.99999965 v -3 z m 3,0 v 3 h 1.9999997 v -3 z"
       inkscape:connector-curvature="0"
       sodipodi:nodetypes="ssssccccssssscccccccccccccccccccccccc" />
  </g>
</svg>
