<svg height="32" viewBox="0 0 32 32" width="32" xmlns="http://www.w3.org/2000/svg"><g transform="matrix(.99999999823 0 0 .99999999823 -24.00000121007 -314.64997840939)"><path d="m31.091797 317.64999h-2.091797c-.553997 0-1 .446-1 1v1.0918c.02756.01.0572.0141.08398.0254.08979.0378.176084.0849.25586.13867.07978.0538.154875.11386.222656.18164.06778.0678.127834.14288.181641.22266.05381.0798.10082.16607.138671.25586.03785.0898.06602.18342.08594.28125.01992.0978.03125.19886.03125.30273s-.01133.20491-.03125.30273c-.01992.0978-.04809.19147-.08594.28125-.03785.0898-.08487.17609-.138671.25586-.05381.0798-.11386.15488-.181641.22266-.06778.0678-.142881.12783-.222656.18164-.07978.0538-.166071.10082-.25586.13867-.02679.0113-.05642.0156-.08398.0254v2.1836c.02756.01.0572.0141.08398.0254.08979.0378.176084.0849.25586.13867.07978.0538.154875.11386.222656.18164.06778.0678.127834.14288.181641.22266.05381.0798.10082.16607.138671.25586.03785.0898.06602.18342.08594.28125.01992.0978.03125.19886.03125.30273s-.01133.20491-.03125.30273c-.01992.0978-.04809.19147-.08594.28125-.03785.0898-.08487.17609-.138671.25586-.05381.0798-.11386.15488-.181641.22266-.06778.0678-.142881.12783-.222656.18164-.07978.0538-.166071.10082-.25586.13867-.02679.0113-.05642.0156-.08398.0254v2.1836c.02756.01.0572.0141.08398.0254.08979.0378.176084.0849.25586.13867.07978.0538.154875.11386.222656.18164.06778.0678.127834.14288.181641.22266.05381.0798.10082.16607.138671.25586.03785.0898.06602.18342.08594.28125.01992.0978.03125.19886.03125.30273s-.01133.20491-.03125.30273c-.01992.0978-.04809.19147-.08594.28125-.03785.0898-.08487.17609-.138671.25586-.05381.0798-.11386.15488-.181641.22266-.06778.0678-.142881.12783-.222656.18164-.07978.0538-.166071.10082-.25586.13867-.02679.0113-.05642.0156-.08398.0254v2.1836c.02756.01.0572.0141.08398.0254.08979.0378.176084.0849.25586.13867.07978.0538.154875.11386.222656.18164.06778.0678.127834.14288.181641.22266.05381.0798.10082.16607.138671.25586.03785.0898.06602.18342.08594.28125.01992.0978.03125.19886.03125.30273s-.01133.20491-.03125.30273c-.01992.0978-.04809.19147-.08594.28125-.03785.0898-.08487.17609-.138671.25586-.05381.0798-.11386.15488-.181641.22266-.06778.0678-.142881.12783-.222656.18164-.07978.0538-.166071.10082-.25586.13867-.02679.0113-.05642.0156-.08398.0254v2.1836c.02756.01.0572.0141.08398.0254.08979.0378.176084.0849.25586.13867.07978.0538.154875.11386.222656.18164.06778.0678.127834.14288.181641.22266.05381.0798.10082.16607.138671.25586.03785.0898.06602.18342.08594.28125.01992.0978.03125.19886.03125.30273s-.01133.20491-.03125.30273c-.01992.0978-.04809.19147-.08594.28125-.03785.0898-.08487.17609-.138671.25586-.05381.0798-.11386.15488-.181641.22266-.06778.0678-.142881.12783-.222656.18164-.07978.0538-.166071.10082-.25586.13867-.02679.0113-.05642.0156-.08398.0254v1.0918c0 .554.446003 1 1 1h2.091797c.0098-.0276.0141-.0572.02539-.084.03785-.0898.08487-.17609.138671-.25586.05381-.0798.11386-.15488.181641-.22266.06778-.0678.142881-.12783.222656-.18164.07978-.0538.166071-.10082.25586-.13867.08979-.0378.183428-.066.28125-.0859.09782-.0199.198859-.0312.302734-.0312s.204912.0113.302734.0312c.09782.0199.191461.0481.28125.0859.08979.0378.176084.0849.25586.13867.07977.0538.154875.11386.222656.18164.06778.0678.127834.14288.181641.22266.05381.0798.10082.16607.138671.25586.01129.0268.01563.0564.02539.084h2.183594c.0098-.0276.0141-.0572.02539-.084.03785-.0898.08487-.17609.138671-.25586.05381-.0798.11386-.15488.181641-.22266.06778-.0678.142881-.12783.222656-.18164.07978-.0538.166071-.10082.25586-.13867.08979-.0378.183428-.066.28125-.0859.09782-.0199.198859-.0312.302734-.0312s.204912.0113.302734.0312c.09782.0199.191461.0481.28125.0859.08979.0378.176084.0849.25586.13867.07977.0538.154875.11386.222656.18164.06778.0678.127834.14288.181641.22266.05381.0798.10082.16607.138671.25586.01129.0268.01563.0564.02539.084h2.183594c.0098-.0276.0141-.0572.02539-.084.03785-.0898.08487-.17609.138671-.25586.05381-.0798.11386-.15488.181641-.22266.06778-.0678.142881-.12783.222656-.18164.07978-.0538.166071-.10082.25586-.13867.08979-.0378.183428-.066.28125-.0859.09782-.0199.198859-.0312.302734-.0312s.204912.0113.302734.0312c.09782.0199.191461.0481.28125.0859.08979.0378.176084.0849.25586.13867.07977.0538.154875.11386.222656.18164.06778.0678.127834.14288.181641.22266.05381.0798.10082.16607.138671.25586.01129.0268.01563.0564.02539.084h2.183594c.0098-.0276.0141-.0572.02539-.084.03785-.0898.08487-.17609.138671-.25586.05381-.0798.11386-.15488.181641-.22266.06778-.0678.142881-.12783.222656-.18164.07978-.0538.166071-.10082.25586-.13867.08979-.0378.183428-.066.28125-.0859.09782-.0199.198859-.0312.302734-.0312s.204912.0113.302734.0312c.09782.0199.191461.0481.28125.0859.08979.0378.176084.0849.25586.13867.07977.0538.154875.11386.222656.18164.06778.0678.127834.14288.181641.22266.05381.0798.10082.16607.138671.25586.01129.0268.01563.0564.02539.084h2.091805c.553997 0 1-.446 1-1v-1.0918c-.02757-.01-.0572-.0141-.08398-.0254-.08979-.0378-.176084-.0849-.25586-.13867-.07977-.0538-.154875-.11386-.222656-.18164-.06778-.0678-.127834-.14288-.181641-.22266-.05381-.0798-.10082-.16607-.138671-.25586-.03785-.0898-.06602-.18342-.08594-.28125-.019918-.09791-.031252-.19895-.031252-.30282s.01133-.20491.03125-.30273c.01992-.0978.04809-.19147.08594-.28125.03785-.0898.08487-.17609.138671-.25586.05381-.0798.11386-.15488.181641-.22266.06778-.0678.142881-.12783.222656-.18164.07978-.0538.166071-.10082.25586-.13867.02679-.0113.05642-.0156.08398-.0254v-2.1836c-.02757-.01-.0572-.0141-.08398-.0254-.08979-.0378-.176084-.0849-.25586-.13867-.07977-.0538-.154875-.11386-.222656-.18164-.06778-.0678-.127834-.14288-.181641-.22266-.05381-.0798-.10082-.16607-.138671-.25586-.03785-.0898-.06602-.18342-.08594-.28125-.019916-.0978-.03125-.19884-.03125-.30271s.01133-.20491.03125-.30273c.01992-.0978.04809-.19147.08594-.28125.03785-.0898.08487-.17609.138671-.25586.05381-.0798.11386-.15488.181641-.22266.06778-.0678.142881-.12783.222656-.18164.07978-.0538.166071-.10082.25586-.13867.02679-.0113.05642-.0156.08398-.0254v-2.1836c-.02757-.01-.0572-.0141-.08398-.0254-.08979-.0378-.176084-.0849-.25586-.13867-.07977-.0538-.154875-.11386-.222656-.18164-.06778-.0678-.127834-.14288-.181641-.22266-.05381-.0798-.10082-.16607-.138671-.25586-.03785-.0898-.06602-.18342-.08594-.28125-.019916-.0978-.03125-.19884-.03125-.30271s.01133-.20491.03125-.30273c.01992-.0978.04809-.19147.08594-.28125.03785-.0898.08487-.17609.138671-.25586.05381-.0798.11386-.15488.181641-.22266.06778-.0678.142881-.12783.222656-.18164.07978-.0538.166071-.10082.25586-.13867.02679-.0113.05642-.0156.08398-.0254v-2.1836c-.02757-.01-.0572-.0141-.08398-.0254-.08979-.0378-.176084-.0849-.25586-.13867-.07977-.0538-.154875-.11386-.222656-.18164-.06778-.0678-.127834-.14288-.181641-.22266-.05381-.0798-.10082-.16607-.138671-.25586-.03785-.0898-.06602-.18342-.08594-.28125-.019916-.0978-.03125-.19884-.03125-.30271s.01133-.20491.03125-.30273c.01992-.0978.04809-.19147.08594-.28125.03785-.0898.08487-.17609.138671-.25586.05381-.0798.11386-.15488.181641-.22266.06778-.0678.142881-.12783.222656-.18164.07978-.0538.166071-.10082.25586-.13867.02679-.0113.05642-.0156.08398-.0254v-2.1836c-.02757-.01-.0572-.0141-.08398-.0254-.08979-.0378-.176084-.0849-.25586-.13867-.07977-.0538-.154875-.11386-.222656-.18164-.06778-.0678-.127834-.14288-.181641-.22266-.05381-.0798-.10082-.16607-.138671-.25586-.03785-.0898-.06602-.18342-.08594-.28125-.019916-.0978-.03125-.19884-.03125-.30271s.01133-.20491.03125-.30273c.01992-.0978.04809-.19147.08594-.28125.03785-.0898.08487-.17609.138671-.25586.05381-.0798.11386-.15488.181641-.22266.06778-.0678.142881-.12783.222656-.18164.07978-.0538.166071-.10082.25586-.13867.02679-.0113.05642-.0156.08398-.0254v-1.0918c0-.554-.446003-1-1-1h-2.091797c-.0098.0276-.0141.0572-.02539.084-.03785.0898-.08487.17609-.138671.25586-.05381.0798-.11386.15488-.181641.22266-.06778.0678-.142881.12783-.222656.18164-.07978.0538-.166071.10082-.25586.13867-.08979.0378-.183428.066-.28125.0859-.09782.0199-.198859.0312-.302734.0312s-.204912-.0113-.302734-.0312c-.09782-.0199-.191461-.0481-.28125-.0859-.08979-.0378-.176084-.0849-.25586-.13867-.07977-.0538-.154875-.11386-.222656-.18164-.06778-.0678-.127834-.14288-.181641-.22266-.05381-.0798-.10082-.16607-.138671-.25586-.01129-.0268-.01563-.0564-.02539-.084h-2.183594c-.0098.0276-.0141.0572-.02539.084-.03785.0898-.08487.17609-.138671.25586-.05381.0798-.11386.15488-.181641.22266-.06778.0678-.142881.12783-.222656.18164-.07978.0538-.166071.10082-.25586.13867-.08979.0378-.183428.066-.28125.0859-.09782.0199-.198859.0312-.302734.0312s-.204912-.0113-.302734-.0312c-.09782-.0199-.191461-.0481-.28125-.0859-.08979-.0378-.176084-.0849-.25586-.13867-.07977-.0538-.154875-.11386-.222656-.18164-.06778-.0678-.127834-.14288-.181641-.22266-.05381-.0798-.10082-.16607-.138671-.25586-.01129-.0268-.01563-.0564-.02539-.084h-2.183594c-.0098.0276-.0141.0572-.02539.084-.03785.0898-.08487.17609-.138671.25586-.05381.0798-.11386.15488-.181641.22266-.06778.0678-.142881.12783-.222656.18164-.07978.0538-.166071.10082-.25586.13867-.08979.0378-.183428.066-.28125.0859-.09782.0199-.198859.0312-.302734.0312s-.204912-.0113-.302734-.0312c-.09782-.0199-.191461-.0481-.28125-.0859-.08979-.0378-.176084-.0849-.25586-.13867-.07977-.0538-.154875-.11386-.222656-.18164-.06778-.0678-.127834-.14288-.181641-.22266-.05381-.0798-.10082-.16607-.138671-.25586-.01129-.0268-.01563-.0564-.02539-.084h-2.183594c-.0098.0276-.0141.0572-.02539.084-.03785.0898-.08487.17609-.138671.25586-.05381.0798-.11386.15488-.181641.22266-.06778.0678-.142881.12783-.222656.18164-.07978.0538-.166071.10082-.25586.13867-.08979.0378-.183428.066-.28125.0859-.09782.0199-.198859.0312-.302734.0312s-.204912-.0113-.302734-.0312c-.09782-.0199-.191461-.0481-.28125-.0859-.08979-.0378-.176084-.0849-.25586-.13867-.07978-.0538-.154875-.11386-.222656-.18164-.06778-.0678-.127834-.14288-.181641-.22266-.05381-.0798-.10082-.16607-.138671-.25586-.01129-.0268-.01563-.0564-.02539-.084z" style="fill:#cdcdcd;stroke:#b1c1d4;stroke-width:2;stroke-linecap:round;stroke-linejoin:round;stroke-miterlimit:1.8"/><path d="m31.091797 317.64999h-2.091797c-.553997 0-1 .446-1 1v1.0918c.02756.01.0572.0141.08398.0254.08979.0378.176084.0849.25586.13867.07978.0538.154875.11386.222656.18164.06778.0678.127834.14288.181641.22266.05381.0798.10082.16607.138671.25586.03785.0898.06602.18342.08594.28125.01992.0978.03125.19886.03125.30273s-.01133.20491-.03125.30273c-.01992.0978-.04809.19147-.08594.28125-.03785.0898-.08487.17609-.138671.25586-.05381.0798-.11386.15488-.181641.22266-.06778.0678-.142881.12783-.222656.18164-.07978.0538-.166071.10082-.25586.13867-.02679.0113-.05642.0156-.08398.0254v2.1836c.02756.01.0572.0141.08398.0254.08979.0378.176084.0849.25586.13867.07978.0538.154875.11386.222656.18164.06778.0678.127834.14288.181641.22266.05381.0798.10082.16607.138671.25586.03785.0898.06602.18342.08594.28125.01992.0978.03125.19886.03125.30273s-.01133.20491-.03125.30273c-.01992.0978-.04809.19147-.08594.28125-.03785.0898-.08487.17609-.138671.25586-.05381.0798-.11386.15488-.181641.22266-.06778.0678-.142881.12783-.222656.18164-.07978.0538-.166071.10082-.25586.13867-.02679.0113-.05642.0156-.08398.0254v2.1836c.02756.01.0572.0141.08398.0254.08979.0378.176084.0849.25586.13867.07978.0538.154875.11386.222656.18164.06778.0678.127834.14288.181641.22266.05381.0798.10082.16607.138671.25586.03785.0898.06602.18342.08594.28125.01992.0978.03125.19886.03125.30273s-.01133.20491-.03125.30273c-.01992.0978-.04809.19147-.08594.28125-.03785.0898-.08487.17609-.138671.25586-.05381.0798-.11386.15488-.181641.22266-.06778.0678-.142881.12783-.222656.18164-.07978.0538-.166071.10082-.25586.13867-.02679.0113-.05642.0156-.08398.0254v2.1836c.02756.01.0572.0141.08398.0254.08979.0378.176084.0849.25586.13867.07978.0538.154875.11386.222656.18164.06778.0678.127834.14288.181641.22266.05381.0798.10082.16607.138671.25586.03785.0898.06602.18342.08594.28125.01992.0978.03125.19886.03125.30273s-.01133.20491-.03125.30273c-.01992.0978-.04809.19147-.08594.28125-.03785.0898-.08487.17609-.138671.25586-.05381.0798-.11386.15488-.181641.22266-.06778.0678-.142881.12783-.222656.18164-.07978.0538-.166071.10082-.25586.13867-.02679.0113-.05642.0156-.08398.0254v2.1836c.02756.01.0572.0141.08398.0254.08979.0378.176084.0849.25586.13867.07978.0538.154875.11386.222656.18164.06778.0678.127834.14288.181641.22266.05381.0798.10082.16607.138671.25586.03785.0898.06602.18342.08594.28125.01992.0978.03125.19886.03125.30273s-.01133.20491-.03125.30273c-.01992.0978-.04809.19147-.08594.28125-.03785.0898-.08487.17609-.138671.25586-.05381.0798-.11386.15488-.181641.22266-.06778.0678-.142881.12783-.222656.18164-.07978.0538-.166071.10082-.25586.13867-.02679.0113-.05642.0156-.08398.0254v1.0918c0 .554.446003 1 1 1h2.091797c.0098-.0276.0141-.0572.02539-.084.03785-.0898.08487-.17609.138671-.25586.05381-.0798.11386-.15488.181641-.22266.06778-.0678.142881-.12783.222656-.18164.07978-.0538.166071-.10082.25586-.13867.08979-.0378.183428-.066.28125-.0859.09782-.0199.198859-.0312.302734-.0312s.204912.0113.302734.0312c.09782.0199.191461.0481.28125.0859.08979.0378.176084.0849.25586.13867.07977.0538.154875.11386.222656.18164.06778.0678.127834.14288.181641.22266.05381.0798.10082.16607.138671.25586.01129.0268.01563.0564.02539.084h2.183594c.0098-.0276.0141-.0572.02539-.084.03785-.0898.08487-.17609.138671-.25586.05381-.0798.11386-.15488.181641-.22266.06778-.0678.142881-.12783.222656-.18164.07978-.0538.166071-.10082.25586-.13867.08979-.0378.183428-.066.28125-.0859.09782-.0199.198859-.0312.302734-.0312s.204912.0113.302734.0312c.09782.0199.191461.0481.28125.0859.08979.0378.176084.0849.25586.13867.07977.0538.154875.11386.222656.18164.06778.0678.127834.14288.181641.22266.05381.0798.10082.16607.138671.25586.01129.0268.01563.0564.02539.084h2.183594c.0098-.0276.0141-.0572.02539-.084.03785-.0898.08487-.17609.138671-.25586.05381-.0798.11386-.15488.181641-.22266.06778-.0678.142881-.12783.222656-.18164.07978-.0538.166071-.10082.25586-.13867.08979-.0378.183428-.066.28125-.0859.09782-.0199.198859-.0312.302734-.0312s.204912.0113.302734.0312c.09782.0199.191461.0481.28125.0859.08979.0378.176084.0849.25586.13867.07977.0538.154875.11386.222656.18164.06778.0678.127834.14288.181641.22266.05381.0798.10082.16607.138671.25586.01129.0268.01563.0564.02539.084h2.183594c.0098-.0276.0141-.0572.02539-.084.03785-.0898.08487-.17609.138671-.25586.05381-.0798.11386-.15488.181641-.22266.06778-.0678.142881-.12783.222656-.18164.07978-.0538.166071-.10082.25586-.13867.08979-.0378.183428-.066.28125-.0859.09782-.0199.198859-.0312.302734-.0312s.204912.0113.302734.0312c.09782.0199.191461.0481.28125.0859.08979.0378.176084.0849.25586.13867.07977.0538.154875.11386.222656.18164.06778.0678.127834.14288.181641.22266.05381.0798.10082.16607.138671.25586.01129.0268.01563.0564.02539.084h2.091805c.553997 0 1-.446 1-1v-1.0918c-.02757-.01-.0572-.0141-.08398-.0254-.08979-.0378-.176084-.0849-.25586-.13867-.07977-.0538-.154875-.11386-.222656-.18164-.06778-.0678-.127834-.14288-.181641-.22266-.05381-.0798-.10082-.16607-.138671-.25586-.03785-.0898-.06602-.18342-.08594-.28125-.019918-.09791-.031252-.19895-.031252-.30282s.01133-.20491.03125-.30273c.01992-.0978.04809-.19147.08594-.28125.03785-.0898.08487-.17609.138671-.25586.05381-.0798.11386-.15488.181641-.22266.06778-.0678.142881-.12783.222656-.18164.07978-.0538.166071-.10082.25586-.13867.02679-.0113.05642-.0156.08398-.0254v-2.1836c-.02757-.01-.0572-.0141-.08398-.0254-.08979-.0378-.176084-.0849-.25586-.13867-.07977-.0538-.154875-.11386-.222656-.18164-.06778-.0678-.127834-.14288-.181641-.22266-.05381-.0798-.10082-.16607-.138671-.25586-.03785-.0898-.06602-.18342-.08594-.28125-.019916-.0978-.03125-.19884-.03125-.30271s.01133-.20491.03125-.30273c.01992-.0978.04809-.19147.08594-.28125.03785-.0898.08487-.17609.138671-.25586.05381-.0798.11386-.15488.181641-.22266.06778-.0678.142881-.12783.222656-.18164.07978-.0538.166071-.10082.25586-.13867.02679-.0113.05642-.0156.08398-.0254v-2.1836c-.02757-.01-.0572-.0141-.08398-.0254-.08979-.0378-.176084-.0849-.25586-.13867-.07977-.0538-.154875-.11386-.222656-.18164-.06778-.0678-.127834-.14288-.181641-.22266-.05381-.0798-.10082-.16607-.138671-.25586-.03785-.0898-.06602-.18342-.08594-.28125-.019916-.0978-.03125-.19884-.03125-.30271s.01133-.20491.03125-.30273c.01992-.0978.04809-.19147.08594-.28125.03785-.0898.08487-.17609.138671-.25586.05381-.0798.11386-.15488.181641-.22266.06778-.0678.142881-.12783.222656-.18164.07978-.0538.166071-.10082.25586-.13867.02679-.0113.05642-.0156.08398-.0254v-2.1836c-.02757-.01-.0572-.0141-.08398-.0254-.08979-.0378-.176084-.0849-.25586-.13867-.07977-.0538-.154875-.11386-.222656-.18164-.06778-.0678-.127834-.14288-.181641-.22266-.05381-.0798-.10082-.16607-.138671-.25586-.03785-.0898-.06602-.18342-.08594-.28125-.019916-.0978-.03125-.19884-.03125-.30271s.01133-.20491.03125-.30273c.01992-.0978.04809-.19147.08594-.28125.03785-.0898.08487-.17609.138671-.25586.05381-.0798.11386-.15488.181641-.22266.06778-.0678.142881-.12783.222656-.18164.07978-.0538.166071-.10082.25586-.13867.02679-.0113.05642-.0156.08398-.0254v-2.1836c-.02757-.01-.0572-.0141-.08398-.0254-.08979-.0378-.176084-.0849-.25586-.13867-.07977-.0538-.154875-.11386-.222656-.18164-.06778-.0678-.127834-.14288-.181641-.22266-.05381-.0798-.10082-.16607-.138671-.25586-.03785-.0898-.06602-.18342-.08594-.28125-.019916-.0978-.03125-.19884-.03125-.30271s.01133-.20491.03125-.30273c.01992-.0978.04809-.19147.08594-.28125.03785-.0898.08487-.17609.138671-.25586.05381-.0798.11386-.15488.181641-.22266.06778-.0678.142881-.12783.222656-.18164.07978-.0538.166071-.10082.25586-.13867.02679-.0113.05642-.0156.08398-.0254v-1.0918c0-.554-.446003-1-1-1h-2.091797c-.0098.0276-.0141.0572-.02539.084-.03785.0898-.08487.17609-.138671.25586-.05381.0798-.11386.15488-.181641.22266-.06778.0678-.142881.12783-.222656.18164-.07978.0538-.166071.10082-.25586.13867-.08979.0378-.183428.066-.28125.0859-.09782.0199-.198859.0312-.302734.0312s-.204912-.0113-.302734-.0312c-.09782-.0199-.191461-.0481-.28125-.0859-.08979-.0378-.176084-.0849-.25586-.13867-.07977-.0538-.154875-.11386-.222656-.18164-.06778-.0678-.127834-.14288-.181641-.22266-.05381-.0798-.10082-.16607-.138671-.25586-.01129-.0268-.01563-.0564-.02539-.084h-2.183594c-.0098.0276-.0141.0572-.02539.084-.03785.0898-.08487.17609-.138671.25586-.05381.0798-.11386.15488-.181641.22266-.06778.0678-.142881.12783-.222656.18164-.07978.0538-.166071.10082-.25586.13867-.08979.0378-.183428.066-.28125.0859-.09782.0199-.198859.0312-.302734.0312s-.204912-.0113-.302734-.0312c-.09782-.0199-.191461-.0481-.28125-.0859-.08979-.0378-.176084-.0849-.25586-.13867-.07977-.0538-.154875-.11386-.222656-.18164-.06778-.0678-.127834-.14288-.181641-.22266-.05381-.0798-.10082-.16607-.138671-.25586-.01129-.0268-.01563-.0564-.02539-.084h-2.183594c-.0098.0276-.0141.0572-.02539.084-.03785.0898-.08487.17609-.138671.25586-.05381.0798-.11386.15488-.181641.22266-.06778.0678-.142881.12783-.222656.18164-.07978.0538-.166071.10082-.25586.13867-.08979.0378-.183428.066-.28125.0859-.09782.0199-.198859.0312-.302734.0312s-.204912-.0113-.302734-.0312c-.09782-.0199-.191461-.0481-.28125-.0859-.08979-.0378-.176084-.0849-.25586-.13867-.07977-.0538-.154875-.11386-.222656-.18164-.06778-.0678-.127834-.14288-.181641-.22266-.05381-.0798-.10082-.16607-.138671-.25586-.01129-.0268-.01563-.0564-.02539-.084h-2.183594c-.0098.0276-.0141.0572-.02539.084-.03785.0898-.08487.17609-.138671.25586-.05381.0798-.11386.15488-.181641.22266-.06778.0678-.142881.12783-.222656.18164-.07978.0538-.166071.10082-.25586.13867-.08979.0378-.183428.066-.28125.0859-.09782.0199-.198859.0312-.302734.0312s-.204912-.0113-.302734-.0312c-.09782-.0199-.191461-.0481-.28125-.0859-.08979-.0378-.176084-.0849-.25586-.13867-.07978-.0538-.154875-.11386-.222656-.18164-.06778-.0678-.127834-.14288-.181641-.22266-.05381-.0798-.10082-.16607-.138671-.25586-.01129-.0268-.01563-.0564-.02539-.084z" fill="#ecf6ff"/><rect fill="#287bc2" height="22.999996" ry=".999996" width="20" x="30" y="319.64999"/><path d="m31 320.64999h18v20.999996h-18z" fill="#78c1ff"/><g transform="matrix(3.7795275 0 0 3.7795275 43.945312 -773.82473)"><path d="m.0005169 289.84436c-.2081948.00524-.38546715.12982-.46715496.30799-.0541038-.0276-.11524905-.0434-.18035075-.0434-.21986854 0-.39687499.17701-.39687499.39688 0 .0515.00967.10115.027389.14624-.1686314.0458-.2919719.19941-.2919719.38293 0 .21986.1770065.39687.39687505.39687h.79375001c.02008344 0 .03964519-.002.05891114-.005.02258661.003.04531483.005.06872965.005h.53846844c.29063777 0 .52451581-.23388.52451581-.52451v-.009c0-.29063-.23387804-.52451-.52451581-.52451h-.004651c0-.29316-.23600862-.52917-.52916668-.52917-.00458059 0-.00940063-.00011-.01395263 0z" fill="#cbe7ff"/><path d="m-1.851567 293.28393c-.2081948.005-.3854671.12982-.4671549.30799-.054104-.0275-.1152491-.0434-.1803508-.0434-.2198685 0-.396875.17701-.396875.39688 0 .0515.00967.10115.027389.14624-.1686314.0458-.2919719.19941-.2919719.38293 0 .21986.1770065.39687.3968751.39687h.79375c.020083 0 .039645-.002.058911-.005.022587.003.045315.005.06873.005h.5384684c.2906378 0 .52451582-.23388.52451582-.52451v-.009c0-.29063-.23387802-.52451-.52451582-.52451h-.00465c0-.29316-.2360086-.52917-.5291667-.52917-.00458 0-.0094-.00011-.013953 0z" fill="#cbe7ff"/><path d="m-1.8443318 290.63811c-.1433882.004-.2578654.12029-.2578654.26458 0 .14658.1180043.26458.2645834.26458.146579 0 .2645833-.118.2645833-.26458s-.1180043-.26458-.2645833-.26458c-.00229 0-.00444-.00006-.00672 0zm1.06505132 0-.52916672.52916.79375006.79375-.79375006.79375.52916672.52917.79375001-.79375.52916668-.52917-.52916668-.52916zm-1.46554362 1.05833c-.2150825.005-.3865397.18044-.3865397.39688 0 .21987.1770063.39687.396875.39687.2198684 0 .396875-.177.396875-.39687s-.1770066-.39688-.396875-.39688c-.00344 0-.00692-.00009-.010335 0zm.3932576 1.32292c-.2867765.007-.515214.24059-.515214.52916 0 .29315.2360085.52917.5291667.52917.293158 0 .5291666-.23602.5291666-.52917 0-.29316-.2360086-.52916-.5291666-.52916-.00458 0-.0094-.00012-.013953 0z" fill="#287bc2" stroke-width=".264583"/></g></g></svg>