<svg height="32" viewBox="0 0 32 32" width="32" xmlns="http://www.w3.org/2000/svg"><g transform="matrix(.99999999823 0 0 .99999999823 -24.00000121007 -314.64997840939)"><path d="m31.091797 317.64999h-2.091797c-.553997 0-1 .446-1 1v1.0918c.02756.01.0572.0141.08398.0254.08979.0378.176084.0849.25586.13867.07978.0538.154875.11386.222656.18164.06778.0678.127834.14288.181641.22266.05381.0798.10082.16607.138671.25586.03785.0898.06602.18342.08594.28125.01992.0978.03125.19886.03125.30273s-.01133.20491-.03125.30273c-.01992.0978-.04809.19147-.08594.28125-.03785.0898-.08487.17609-.138671.25586-.05381.0798-.11386.15488-.181641.22266-.06778.0678-.142881.12783-.222656.18164-.07978.0538-.166071.10082-.25586.13867-.02679.0113-.05642.0156-.08398.0254v2.1836c.02756.01.0572.0141.08398.0254.08979.0378.176084.0849.25586.13867.07978.0538.154875.11386.222656.18164.06778.0678.127834.14288.181641.22266.05381.0798.10082.16607.138671.25586.03785.0898.06602.18342.08594.28125.01992.0978.03125.19886.03125.30273s-.01133.20491-.03125.30273c-.01992.0978-.04809.19147-.08594.28125-.03785.0898-.08487.17609-.138671.25586-.05381.0798-.11386.15488-.181641.22266-.06778.0678-.142881.12783-.222656.18164-.07978.0538-.166071.10082-.25586.13867-.02679.0113-.05642.0156-.08398.0254v2.1836c.02756.01.0572.0141.08398.0254.08979.0378.176084.0849.25586.13867.07978.0538.154875.11386.222656.18164.06778.0678.127834.14288.181641.22266.05381.0798.10082.16607.138671.25586.03785.0898.06602.18342.08594.28125.01992.0978.03125.19886.03125.30273s-.01133.20491-.03125.30273c-.01992.0978-.04809.19147-.08594.28125-.03785.0898-.08487.17609-.138671.25586-.05381.0798-.11386.15488-.181641.22266-.06778.0678-.142881.12783-.222656.18164-.07978.0538-.166071.10082-.25586.13867-.02679.0113-.05642.0156-.08398.0254v2.1836c.02756.01.0572.0141.08398.0254.08979.0378.176084.0849.25586.13867.07978.0538.154875.11386.222656.18164.06778.0678.127834.14288.181641.22266.05381.0798.10082.16607.138671.25586.03785.0898.06602.18342.08594.28125.01992.0978.03125.19886.03125.30273s-.01133.20491-.03125.30273c-.01992.0978-.04809.19147-.08594.28125-.03785.0898-.08487.17609-.138671.25586-.05381.0798-.11386.15488-.181641.22266-.06778.0678-.142881.12783-.222656.18164-.07978.0538-.166071.10082-.25586.13867-.02679.0113-.05642.0156-.08398.0254v2.1836c.02756.01.0572.0141.08398.0254.08979.0378.176084.0849.25586.13867.07978.0538.154875.11386.222656.18164.06778.0678.127834.14288.181641.22266.05381.0798.10082.16607.138671.25586.03785.0898.06602.18342.08594.28125.01992.0978.03125.19886.03125.30273s-.01133.20491-.03125.30273c-.01992.0978-.04809.19147-.08594.28125-.03785.0898-.08487.17609-.138671.25586-.05381.0798-.11386.15488-.181641.22266-.06778.0678-.142881.12783-.222656.18164-.07978.0538-.166071.10082-.25586.13867-.02679.0113-.05642.0156-.08398.0254v1.0918c0 .554.446003 1 1 1h2.091797c.0098-.0276.0141-.0572.02539-.084.03785-.0898.08487-.17609.138671-.25586.05381-.0798.11386-.15488.181641-.22266.06778-.0678.142881-.12783.222656-.18164.07978-.0538.166071-.10082.25586-.13867.08979-.0378.183428-.066.28125-.0859.09782-.0199.198859-.0312.302734-.0312s.204912.0113.302734.0312c.09782.0199.191461.0481.28125.0859.08979.0378.176084.0849.25586.13867.07977.0538.154875.11386.222656.18164.06778.0678.127834.14288.181641.22266.05381.0798.10082.16607.138671.25586.01129.0268.01563.0564.02539.084h2.183594c.0098-.0276.0141-.0572.02539-.084.03785-.0898.08487-.17609.138671-.25586.05381-.0798.11386-.15488.181641-.22266.06778-.0678.142881-.12783.222656-.18164.07978-.0538.166071-.10082.25586-.13867.08979-.0378.183428-.066.28125-.0859.09782-.0199.198859-.0312.302734-.0312s.204912.0113.302734.0312c.09782.0199.191461.0481.28125.0859.08979.0378.176084.0849.25586.13867.07977.0538.154875.11386.222656.18164.06778.0678.127834.14288.181641.22266.05381.0798.10082.16607.138671.25586.01129.0268.01563.0564.02539.084h2.183594c.0098-.0276.0141-.0572.02539-.084.03785-.0898.08487-.17609.138671-.25586.05381-.0798.11386-.15488.181641-.22266.06778-.0678.142881-.12783.222656-.18164.07978-.0538.166071-.10082.25586-.13867.08979-.0378.183428-.066.28125-.0859.09782-.0199.198859-.0312.302734-.0312s.204912.0113.302734.0312c.09782.0199.191461.0481.28125.0859.08979.0378.176084.0849.25586.13867.07977.0538.154875.11386.222656.18164.06778.0678.127834.14288.181641.22266.05381.0798.10082.16607.138671.25586.01129.0268.01563.0564.02539.084h2.183594c.0098-.0276.0141-.0572.02539-.084.03785-.0898.08487-.17609.138671-.25586.05381-.0798.11386-.15488.181641-.22266.06778-.0678.142881-.12783.222656-.18164.07978-.0538.166071-.10082.25586-.13867.08979-.0378.183428-.066.28125-.0859.09782-.0199.198859-.0312.302734-.0312s.204912.0113.302734.0312c.09782.0199.191461.0481.28125.0859.08979.0378.176084.0849.25586.13867.07977.0538.154875.11386.222656.18164.06778.0678.127834.14288.181641.22266.05381.0798.10082.16607.138671.25586.01129.0268.01563.0564.02539.084h2.091805c.553997 0 1-.446 1-1v-1.0918c-.02757-.01-.0572-.0141-.08398-.0254-.08979-.0378-.176084-.0849-.25586-.13867-.07977-.0538-.154875-.11386-.222656-.18164-.06778-.0678-.127834-.14288-.181641-.22266-.05381-.0798-.10082-.16607-.138671-.25586-.03785-.0898-.06602-.18342-.08594-.28125-.019918-.09791-.031252-.19895-.031252-.30282s.01133-.20491.03125-.30273c.01992-.0978.04809-.19147.08594-.28125.03785-.0898.08487-.17609.138671-.25586.05381-.0798.11386-.15488.181641-.22266.06778-.0678.142881-.12783.222656-.18164.07978-.0538.166071-.10082.25586-.13867.02679-.0113.05642-.0156.08398-.0254v-2.1836c-.02757-.01-.0572-.0141-.08398-.0254-.08979-.0378-.176084-.0849-.25586-.13867-.07977-.0538-.154875-.11386-.222656-.18164-.06778-.0678-.127834-.14288-.181641-.22266-.05381-.0798-.10082-.16607-.138671-.25586-.03785-.0898-.06602-.18342-.08594-.28125-.019916-.0978-.03125-.19884-.03125-.30271s.01133-.20491.03125-.30273c.01992-.0978.04809-.19147.08594-.28125.03785-.0898.08487-.17609.138671-.25586.05381-.0798.11386-.15488.181641-.22266.06778-.0678.142881-.12783.222656-.18164.07978-.0538.166071-.10082.25586-.13867.02679-.0113.05642-.0156.08398-.0254v-2.1836c-.02757-.01-.0572-.0141-.08398-.0254-.08979-.0378-.176084-.0849-.25586-.13867-.07977-.0538-.154875-.11386-.222656-.18164-.06778-.0678-.127834-.14288-.181641-.22266-.05381-.0798-.10082-.16607-.138671-.25586-.03785-.0898-.06602-.18342-.08594-.28125-.019916-.0978-.03125-.19884-.03125-.30271s.01133-.20491.03125-.30273c.01992-.0978.04809-.19147.08594-.28125.03785-.0898.08487-.17609.138671-.25586.05381-.0798.11386-.15488.181641-.22266.06778-.0678.142881-.12783.222656-.18164.07978-.0538.166071-.10082.25586-.13867.02679-.0113.05642-.0156.08398-.0254v-2.1836c-.02757-.01-.0572-.0141-.08398-.0254-.08979-.0378-.176084-.0849-.25586-.13867-.07977-.0538-.154875-.11386-.222656-.18164-.06778-.0678-.127834-.14288-.181641-.22266-.05381-.0798-.10082-.16607-.138671-.25586-.03785-.0898-.06602-.18342-.08594-.28125-.019916-.0978-.03125-.19884-.03125-.30271s.01133-.20491.03125-.30273c.01992-.0978.04809-.19147.08594-.28125.03785-.0898.08487-.17609.138671-.25586.05381-.0798.11386-.15488.181641-.22266.06778-.0678.142881-.12783.222656-.18164.07978-.0538.166071-.10082.25586-.13867.02679-.0113.05642-.0156.08398-.0254v-2.1836c-.02757-.01-.0572-.0141-.08398-.0254-.08979-.0378-.176084-.0849-.25586-.13867-.07977-.0538-.154875-.11386-.222656-.18164-.06778-.0678-.127834-.14288-.181641-.22266-.05381-.0798-.10082-.16607-.138671-.25586-.03785-.0898-.06602-.18342-.08594-.28125-.019916-.0978-.03125-.19884-.03125-.30271s.01133-.20491.03125-.30273c.01992-.0978.04809-.19147.08594-.28125.03785-.0898.08487-.17609.138671-.25586.05381-.0798.11386-.15488.181641-.22266.06778-.0678.142881-.12783.222656-.18164.07978-.0538.166071-.10082.25586-.13867.02679-.0113.05642-.0156.08398-.0254v-1.0918c0-.554-.446003-1-1-1h-2.091797c-.0098.0276-.0141.0572-.02539.084-.03785.0898-.08487.17609-.138671.25586-.05381.0798-.11386.15488-.181641.22266-.06778.0678-.142881.12783-.222656.18164-.07978.0538-.166071.10082-.25586.13867-.08979.0378-.183428.066-.28125.0859-.09782.0199-.198859.0312-.302734.0312s-.204912-.0113-.302734-.0312c-.09782-.0199-.191461-.0481-.28125-.0859-.08979-.0378-.176084-.0849-.25586-.13867-.07977-.0538-.154875-.11386-.222656-.18164-.06778-.0678-.127834-.14288-.181641-.22266-.05381-.0798-.10082-.16607-.138671-.25586-.01129-.0268-.01563-.0564-.02539-.084h-2.183594c-.0098.0276-.0141.0572-.02539.084-.03785.0898-.08487.17609-.138671.25586-.05381.0798-.11386.15488-.181641.22266-.06778.0678-.142881.12783-.222656.18164-.07978.0538-.166071.10082-.25586.13867-.08979.0378-.183428.066-.28125.0859-.09782.0199-.198859.0312-.302734.0312s-.204912-.0113-.302734-.0312c-.09782-.0199-.191461-.0481-.28125-.0859-.08979-.0378-.176084-.0849-.25586-.13867-.07977-.0538-.154875-.11386-.222656-.18164-.06778-.0678-.127834-.14288-.181641-.22266-.05381-.0798-.10082-.16607-.138671-.25586-.01129-.0268-.01563-.0564-.02539-.084h-2.183594c-.0098.0276-.0141.0572-.02539.084-.03785.0898-.08487.17609-.138671.25586-.05381.0798-.11386.15488-.181641.22266-.06778.0678-.142881.12783-.222656.18164-.07978.0538-.166071.10082-.25586.13867-.08979.0378-.183428.066-.28125.0859-.09782.0199-.198859.0312-.302734.0312s-.204912-.0113-.302734-.0312c-.09782-.0199-.191461-.0481-.28125-.0859-.08979-.0378-.176084-.0849-.25586-.13867-.07977-.0538-.154875-.11386-.222656-.18164-.06778-.0678-.127834-.14288-.181641-.22266-.05381-.0798-.10082-.16607-.138671-.25586-.01129-.0268-.01563-.0564-.02539-.084h-2.183594c-.0098.0276-.0141.0572-.02539.084-.03785.0898-.08487.17609-.138671.25586-.05381.0798-.11386.15488-.181641.22266-.06778.0678-.142881.12783-.222656.18164-.07978.0538-.166071.10082-.25586.13867-.08979.0378-.183428.066-.28125.0859-.09782.0199-.198859.0312-.302734.0312s-.204912-.0113-.302734-.0312c-.09782-.0199-.191461-.0481-.28125-.0859-.08979-.0378-.176084-.0849-.25586-.13867-.07978-.0538-.154875-.11386-.222656-.18164-.06778-.0678-.127834-.14288-.181641-.22266-.05381-.0798-.10082-.16607-.138671-.25586-.01129-.0268-.01563-.0564-.02539-.084z" style="fill:#cdcdcd;stroke:#b1c1d4;stroke-width:2;stroke-linecap:round;stroke-linejoin:round;stroke-miterlimit:1.8"/><path d="m31.091797 317.64999h-2.091797c-.553997 0-1 .446-1 1v1.0918c.02756.01.0572.0141.08398.0254.08979.0378.176084.0849.25586.13867.07978.0538.154875.11386.222656.18164.06778.0678.127834.14288.181641.22266.05381.0798.10082.16607.138671.25586.03785.0898.06602.18342.08594.28125.01992.0978.03125.19886.03125.30273s-.01133.20491-.03125.30273c-.01992.0978-.04809.19147-.08594.28125-.03785.0898-.08487.17609-.138671.25586-.05381.0798-.11386.15488-.181641.22266-.06778.0678-.142881.12783-.222656.18164-.07978.0538-.166071.10082-.25586.13867-.02679.0113-.05642.0156-.08398.0254v2.1836c.02756.01.0572.0141.08398.0254.08979.0378.176084.0849.25586.13867.07978.0538.154875.11386.222656.18164.06778.0678.127834.14288.181641.22266.05381.0798.10082.16607.138671.25586.03785.0898.06602.18342.08594.28125.01992.0978.03125.19886.03125.30273s-.01133.20491-.03125.30273c-.01992.0978-.04809.19147-.08594.28125-.03785.0898-.08487.17609-.138671.25586-.05381.0798-.11386.15488-.181641.22266-.06778.0678-.142881.12783-.222656.18164-.07978.0538-.166071.10082-.25586.13867-.02679.0113-.05642.0156-.08398.0254v2.1836c.02756.01.0572.0141.08398.0254.08979.0378.176084.0849.25586.13867.07978.0538.154875.11386.222656.18164.06778.0678.127834.14288.181641.22266.05381.0798.10082.16607.138671.25586.03785.0898.06602.18342.08594.28125.01992.0978.03125.19886.03125.30273s-.01133.20491-.03125.30273c-.01992.0978-.04809.19147-.08594.28125-.03785.0898-.08487.17609-.138671.25586-.05381.0798-.11386.15488-.181641.22266-.06778.0678-.142881.12783-.222656.18164-.07978.0538-.166071.10082-.25586.13867-.02679.0113-.05642.0156-.08398.0254v2.1836c.02756.01.0572.0141.08398.0254.08979.0378.176084.0849.25586.13867.07978.0538.154875.11386.222656.18164.06778.0678.127834.14288.181641.22266.05381.0798.10082.16607.138671.25586.03785.0898.06602.18342.08594.28125.01992.0978.03125.19886.03125.30273s-.01133.20491-.03125.30273c-.01992.0978-.04809.19147-.08594.28125-.03785.0898-.08487.17609-.138671.25586-.05381.0798-.11386.15488-.181641.22266-.06778.0678-.142881.12783-.222656.18164-.07978.0538-.166071.10082-.25586.13867-.02679.0113-.05642.0156-.08398.0254v2.1836c.02756.01.0572.0141.08398.0254.08979.0378.176084.0849.25586.13867.07978.0538.154875.11386.222656.18164.06778.0678.127834.14288.181641.22266.05381.0798.10082.16607.138671.25586.03785.0898.06602.18342.08594.28125.01992.0978.03125.19886.03125.30273s-.01133.20491-.03125.30273c-.01992.0978-.04809.19147-.08594.28125-.03785.0898-.08487.17609-.138671.25586-.05381.0798-.11386.15488-.181641.22266-.06778.0678-.142881.12783-.222656.18164-.07978.0538-.166071.10082-.25586.13867-.02679.0113-.05642.0156-.08398.0254v1.0918c0 .554.446003 1 1 1h2.091797c.0098-.0276.0141-.0572.02539-.084.03785-.0898.08487-.17609.138671-.25586.05381-.0798.11386-.15488.181641-.22266.06778-.0678.142881-.12783.222656-.18164.07978-.0538.166071-.10082.25586-.13867.08979-.0378.183428-.066.28125-.0859.09782-.0199.198859-.0312.302734-.0312s.204912.0113.302734.0312c.09782.0199.191461.0481.28125.0859.08979.0378.176084.0849.25586.13867.07977.0538.154875.11386.222656.18164.06778.0678.127834.14288.181641.22266.05381.0798.10082.16607.138671.25586.01129.0268.01563.0564.02539.084h2.183594c.0098-.0276.0141-.0572.02539-.084.03785-.0898.08487-.17609.138671-.25586.05381-.0798.11386-.15488.181641-.22266.06778-.0678.142881-.12783.222656-.18164.07978-.0538.166071-.10082.25586-.13867.08979-.0378.183428-.066.28125-.0859.09782-.0199.198859-.0312.302734-.0312s.204912.0113.302734.0312c.09782.0199.191461.0481.28125.0859.08979.0378.176084.0849.25586.13867.07977.0538.154875.11386.222656.18164.06778.0678.127834.14288.181641.22266.05381.0798.10082.16607.138671.25586.01129.0268.01563.0564.02539.084h2.183594c.0098-.0276.0141-.0572.02539-.084.03785-.0898.08487-.17609.138671-.25586.05381-.0798.11386-.15488.181641-.22266.06778-.0678.142881-.12783.222656-.18164.07978-.0538.166071-.10082.25586-.13867.08979-.0378.183428-.066.28125-.0859.09782-.0199.198859-.0312.302734-.0312s.204912.0113.302734.0312c.09782.0199.191461.0481.28125.0859.08979.0378.176084.0849.25586.13867.07977.0538.154875.11386.222656.18164.06778.0678.127834.14288.181641.22266.05381.0798.10082.16607.138671.25586.01129.0268.01563.0564.02539.084h2.183594c.0098-.0276.0141-.0572.02539-.084.03785-.0898.08487-.17609.138671-.25586.05381-.0798.11386-.15488.181641-.22266.06778-.0678.142881-.12783.222656-.18164.07978-.0538.166071-.10082.25586-.13867.08979-.0378.183428-.066.28125-.0859.09782-.0199.198859-.0312.302734-.0312s.204912.0113.302734.0312c.09782.0199.191461.0481.28125.0859.08979.0378.176084.0849.25586.13867.07977.0538.154875.11386.222656.18164.06778.0678.127834.14288.181641.22266.05381.0798.10082.16607.138671.25586.01129.0268.01563.0564.02539.084h2.091805c.553997 0 1-.446 1-1v-1.0918c-.02757-.01-.0572-.0141-.08398-.0254-.08979-.0378-.176084-.0849-.25586-.13867-.07977-.0538-.154875-.11386-.222656-.18164-.06778-.0678-.127834-.14288-.181641-.22266-.05381-.0798-.10082-.16607-.138671-.25586-.03785-.0898-.06602-.18342-.08594-.28125-.019918-.09791-.031252-.19895-.031252-.30282s.01133-.20491.03125-.30273c.01992-.0978.04809-.19147.08594-.28125.03785-.0898.08487-.17609.138671-.25586.05381-.0798.11386-.15488.181641-.22266.06778-.0678.142881-.12783.222656-.18164.07978-.0538.166071-.10082.25586-.13867.02679-.0113.05642-.0156.08398-.0254v-2.1836c-.02757-.01-.0572-.0141-.08398-.0254-.08979-.0378-.176084-.0849-.25586-.13867-.07977-.0538-.154875-.11386-.222656-.18164-.06778-.0678-.127834-.14288-.181641-.22266-.05381-.0798-.10082-.16607-.138671-.25586-.03785-.0898-.06602-.18342-.08594-.28125-.019916-.0978-.03125-.19884-.03125-.30271s.01133-.20491.03125-.30273c.01992-.0978.04809-.19147.08594-.28125.03785-.0898.08487-.17609.138671-.25586.05381-.0798.11386-.15488.181641-.22266.06778-.0678.142881-.12783.222656-.18164.07978-.0538.166071-.10082.25586-.13867.02679-.0113.05642-.0156.08398-.0254v-2.1836c-.02757-.01-.0572-.0141-.08398-.0254-.08979-.0378-.176084-.0849-.25586-.13867-.07977-.0538-.154875-.11386-.222656-.18164-.06778-.0678-.127834-.14288-.181641-.22266-.05381-.0798-.10082-.16607-.138671-.25586-.03785-.0898-.06602-.18342-.08594-.28125-.019916-.0978-.03125-.19884-.03125-.30271s.01133-.20491.03125-.30273c.01992-.0978.04809-.19147.08594-.28125.03785-.0898.08487-.17609.138671-.25586.05381-.0798.11386-.15488.181641-.22266.06778-.0678.142881-.12783.222656-.18164.07978-.0538.166071-.10082.25586-.13867.02679-.0113.05642-.0156.08398-.0254v-2.1836c-.02757-.01-.0572-.0141-.08398-.0254-.08979-.0378-.176084-.0849-.25586-.13867-.07977-.0538-.154875-.11386-.222656-.18164-.06778-.0678-.127834-.14288-.181641-.22266-.05381-.0798-.10082-.16607-.138671-.25586-.03785-.0898-.06602-.18342-.08594-.28125-.019916-.0978-.03125-.19884-.03125-.30271s.01133-.20491.03125-.30273c.01992-.0978.04809-.19147.08594-.28125.03785-.0898.08487-.17609.138671-.25586.05381-.0798.11386-.15488.181641-.22266.06778-.0678.142881-.12783.222656-.18164.07978-.0538.166071-.10082.25586-.13867.02679-.0113.05642-.0156.08398-.0254v-2.1836c-.02757-.01-.0572-.0141-.08398-.0254-.08979-.0378-.176084-.0849-.25586-.13867-.07977-.0538-.154875-.11386-.222656-.18164-.06778-.0678-.127834-.14288-.181641-.22266-.05381-.0798-.10082-.16607-.138671-.25586-.03785-.0898-.06602-.18342-.08594-.28125-.019916-.0978-.03125-.19884-.03125-.30271s.01133-.20491.03125-.30273c.01992-.0978.04809-.19147.08594-.28125.03785-.0898.08487-.17609.138671-.25586.05381-.0798.11386-.15488.181641-.22266.06778-.0678.142881-.12783.222656-.18164.07978-.0538.166071-.10082.25586-.13867.02679-.0113.05642-.0156.08398-.0254v-1.0918c0-.554-.446003-1-1-1h-2.091797c-.0098.0276-.0141.0572-.02539.084-.03785.0898-.08487.17609-.138671.25586-.05381.0798-.11386.15488-.181641.22266-.06778.0678-.142881.12783-.222656.18164-.07978.0538-.166071.10082-.25586.13867-.08979.0378-.183428.066-.28125.0859-.09782.0199-.198859.0312-.302734.0312s-.204912-.0113-.302734-.0312c-.09782-.0199-.191461-.0481-.28125-.0859-.08979-.0378-.176084-.0849-.25586-.13867-.07977-.0538-.154875-.11386-.222656-.18164-.06778-.0678-.127834-.14288-.181641-.22266-.05381-.0798-.10082-.16607-.138671-.25586-.01129-.0268-.01563-.0564-.02539-.084h-2.183594c-.0098.0276-.0141.0572-.02539.084-.03785.0898-.08487.17609-.138671.25586-.05381.0798-.11386.15488-.181641.22266-.06778.0678-.142881.12783-.222656.18164-.07978.0538-.166071.10082-.25586.13867-.08979.0378-.183428.066-.28125.0859-.09782.0199-.198859.0312-.302734.0312s-.204912-.0113-.302734-.0312c-.09782-.0199-.191461-.0481-.28125-.0859-.08979-.0378-.176084-.0849-.25586-.13867-.07977-.0538-.154875-.11386-.222656-.18164-.06778-.0678-.127834-.14288-.181641-.22266-.05381-.0798-.10082-.16607-.138671-.25586-.01129-.0268-.01563-.0564-.02539-.084h-2.183594c-.0098.0276-.0141.0572-.02539.084-.03785.0898-.08487.17609-.138671.25586-.05381.0798-.11386.15488-.181641.22266-.06778.0678-.142881.12783-.222656.18164-.07978.0538-.166071.10082-.25586.13867-.08979.0378-.183428.066-.28125.0859-.09782.0199-.198859.0312-.302734.0312s-.204912-.0113-.302734-.0312c-.09782-.0199-.191461-.0481-.28125-.0859-.08979-.0378-.176084-.0849-.25586-.13867-.07977-.0538-.154875-.11386-.222656-.18164-.06778-.0678-.127834-.14288-.181641-.22266-.05381-.0798-.10082-.16607-.138671-.25586-.01129-.0268-.01563-.0564-.02539-.084h-2.183594c-.0098.0276-.0141.0572-.02539.084-.03785.0898-.08487.17609-.138671.25586-.05381.0798-.11386.15488-.181641.22266-.06778.0678-.142881.12783-.222656.18164-.07978.0538-.166071.10082-.25586.13867-.08979.0378-.183428.066-.28125.0859-.09782.0199-.198859.0312-.302734.0312s-.204912-.0113-.302734-.0312c-.09782-.0199-.191461-.0481-.28125-.0859-.08979-.0378-.176084-.0849-.25586-.13867-.07978-.0538-.154875-.11386-.222656-.18164-.06778-.0678-.127834-.14288-.181641-.22266-.05381-.0798-.10082-.16607-.138671-.25586-.01129-.0268-.01563-.0564-.02539-.084z" fill="#ecf6ff"/><rect fill="#dd4f66" height="22.999996" ry=".999996" width="20" x="30" y="319.64999"/><path d="m31 320.64999h18v20.999996h-18z" fill="#ff778a"/></g><g fill="#fbebee" transform="translate(114 -287.650005)"><path d="m-94 308.64999h2v-1.99998h-2z"/><path d="m-102 304.65001v2h8v-2z"/><path d="m-104 306.65001v1.99998h2v-1.99998z"/><path d="m-95 298.65001-.000001 2.99995 2.000001.00005v-3z"/><path d="m-103 298.65001v3h2v-3z"/></g></svg>