<svg height="32" viewBox="0 0 32 32" width="32" xmlns="http://www.w3.org/2000/svg"><g transform="translate(12.000001 -278.64999)"><path d="m-7 279.64999h21.999999c1.108 0 2 .892 2 2v26c0 1.108-.892 2-2 2h-21.999999c-1.108 0-2-.892-2-2v-26c0-1.108.892-2 2-2z" fill="#6e7cd4"/><path d="m-7 280.64999h21.999999c.554 0 1 .446 1 1v26c0 .554-.446 1-1 1h-21.999999c-.554 0-1-.446-1-1v-26c0-.554.446-1 1-1z" fill="#93a0e6"/><path d="m-4.5203388 3.5920551c-.5863167 0-1.0583333.4720167-1.0583333 1.0583333v.2645834h.79375v.2645833h-.79375v.2645833h.79375v.2645834h-.79375c0 .5863166.4720166 1.0583333 1.0583333 1.0583333s1.0583333-.4720167 1.0583333-1.0583333h-.79375v-.2645834h.79375v-.2645833h-.79375v-.2645833h.79375v-.2645834c0-.5863166-.4720166-1.0583333-1.0583333-1.0583333zm-2.38125 1.0583333c-.1465792 0-.2645833.1180042-.2645833.2645834 0 .1465791.1180041.2645833.2645833.2645833s.2645833-.1180042.2645833-.2645833c0-.1465792-.1180041-.2645834-.2645833-.2645834zm4.7625 0c-.1465792 0-.2645833.1180042-.2645833.2645834 0 .1465791.1180041.2645833.2645833.2645833s.2645833-.1180042.2645833-.2645833c0-.1465792-.1180041-.2645834-.2645833-.2645834zm-4.7625 1.0583334c-.1465792 0-.2645833.1180041-.2645833.2645833s.1180041.2645833.2645833.2645833.2645833-.1180041.2645833-.2645833-.1180041-.2645833-.2645833-.2645833zm.5291667 0c-.0000305.661715.3529787 1.2731776.9260416 1.6040364.2040059.1172978.4284967.1946402.6614584.2278931v.8139038h.5291666v-.8144206c.2329265-.033091.4574151-.1102611.6614584-.2273763.5730628-.3308588.926072-.9423214.9260416-1.6040364h-.5291666c-.0000048.4726278-.2521506.9093512-.6614584 1.1456664-.4093117.2363153-.9136049.2363153-1.3229166 0-.4093078-.2363152-.6614536-.6730386-.6614584-1.1456664zm4.2333333 0c-.1465792 0-.2645833.1180041-.2645833.2645833s.1180041.2645833.2645833.2645833.2645833-.1180041.2645833-.2645833-.1180041-.2645833-.2645833-.2645833zm-4.7625 1.0583333c-.1465792 0-.2645833.1180042-.2645833.2645833 0 .1465792.1180041.2645834.2645833.2645834s.2645833-.1180042.2645833-.2645834c0-.1465791-.1180041-.2645833-.2645833-.2645833zm4.7625 0c-.1465792 0-.2645833.1180042-.2645833.2645833 0 .1465792.1180041.2645834.2645833.2645834s.2645833-.1180042.2645833-.2645834c0-.1465791-.1180041-.2645833-.2645833-.2645833z" fill="#f0f2fb" transform="matrix(3.7795276 0 0 3.7795276 21.084745 272.07372)"/></g></svg>