<svg height="32" viewBox="0 0 32 32" width="32" xmlns="http://www.w3.org/2000/svg"><g transform="translate(84 -286.64999)"><path d="m-79 287.64997h21.999999c1.108 0 2 .89202 2 2.00001v26.00001c0 1.10797-.892 1.99998-2 1.99998h-21.999999c-1.108 0-2-.89201-2-1.99998v-26c0-1.108.892-2 2-2.00002z" fill="#6e7cd4"/><path d="m-78.999999 288.65001h21.999999c.554 0 1 .44599 1 1v26c0 .55401-.446 1-1 1h-21.999999c-.554 0-1-.44599-1-1v-26c0-.55399.446-1 1-1z" fill="#93a0e6"/><path d="m.31505312 292.32434c-.14656525 0-.26458332.11803-.26458332.26459v.52916.26459h.26458332.52916665.26458333v-.26459-.52916-.26459h-.26458333zm.79374998 1.05834v1.05833h1.0583333v-1.05833zm1.0583333 0h1.0583333v-1.05834h-1.0583333zm1.0583333 0v1.05833h1.0583333v-1.05833zm1.0583333 0h1.0583333v-1.05834h-1.0583333zm1.0583333 0v1.05833h1.0583333v-1.05833zm0 1.05833h-1.0583333v1.05833h1.0583333zm0 1.05833v1.05834h1.0583333v-1.05834zm0 1.05834h-1.0583333v1.05833h1.0583333zm0 1.05833v.26458.52917.26458h.7937499.2645834v-.26458-.79375zm0 1.05833h-1.0583333v1.05834h1.0583333zm-1.0583333 0v-1.05833h-1.0583333v1.05833zm-1.0583333 0h-1.0583333v1.05834h1.0583333zm-1.0583333 0v-1.05833h-1.0583333v1.05833zm-1.0583333 0h-1.0583333v1.05834h1.0583333zm0-1.05833v-1.05833h-1.0583333v1.05833zm0-1.05833h1.0583333v-1.05834h-1.0583333zm0-1.05834v-1.05833h-1.0583333v1.05833zm1.0583333 0h1.0583333v-1.05833h-1.0583333zm1.0583333 0v1.05834h1.0583333v-1.05834zm0 1.05834h-1.0583333v1.05833h1.0583333z" fill="#a2aee9" transform="matrix(3.7795277 0 0 3.7795277 -80.190752 -816.197976)"/><g stroke-linecap="round" stroke-linejoin="round" stroke-miterlimit="1.8"><path d="m-65.992188 295.64999a1 1 0 0 0 -.957031.68359l-4 12a1 1 0 0 0 .632813 1.26563 1 1 0 0 0 1.265625-.63281l4-12a1 1 0 0 0 -.632813-1.26563 1 1 0 0 0 -.308594-.05078zm-7.007812 2c-.265201.00004-.519526.10542-.707031.29297l-4 4c-.390367.39053-.390367 1.02353 0 1.41406l4 4c.390506.39042 1.023556.39042 1.414062 0 .390422-.39051.390422-1.02355 0-1.41406l-3.292969-3.29297 3.292969-3.29297c.390422-.39051.390422-1.02355 0-1.41406-.187505-.18755-.44183-.29293-.707031-.29297zm10 0c-.265201.00004-.519526.10542-.707031.29297-.390422.39051-.390422 1.02355 0 1.41406l3.292969 3.29297-3.292969 3.29297c-.390422.39051-.390422 1.02355 0 1.41406.390506.39042 1.023556.39042 1.414062 0l4-4c.390367-.39053.390367-1.02353 0-1.41406l-4-4c-.187505-.18755-.44183-.29293-.707031-.29297z" fill="#eaedf9"/><path d="m-70 308.64999 4-12" fill="#a2aee9" stroke-width="2"/></g></g></svg>