<svg height="32" viewBox="0 0 32 32" width="32" xmlns="http://www.w3.org/2000/svg"><g transform="translate(84 -286.64999)"><path d="m-78.999999 287.64999h21.999999c1.108 0 2 .89202 2 2.00001v26.00001c0 1.10797-.892 1.99998-2 1.99998h-21.999999c-1.108 0-2-.89201-2-1.99998v-26c0-1.108.892-2 2-2.00002z" fill="#a3b7cc"/><path d="m-78.999999 288.65001h21.999999c.554 0 1 .44599 1 1v26c0 .55401-.446 1-1 1h-21.999999c-.554 0-1-.44599-1-1v-26c0-.55399.446-1 1-1z" fill="#fafafa"/><path d="m.31505312 292.32434c-.14656525 0-.26458332.11803-.26458332.26459v.52916.26459h.26458332.52916665.26458333v-.26459-.52916-.26459h-.26458333zm.79374998 1.05834v1.05833h1.0583333v-1.05833zm1.0583333 0h1.0583333v-1.05834h-1.0583333zm1.0583333 0v1.05833h1.0583333v-1.05833zm1.0583333 0h1.0583333v-1.05834h-1.0583333zm1.0583333 0v1.05833h1.0583333v-1.05833zm0 1.05833h-1.0583333v1.05833h1.0583333zm0 1.05833v1.05834h1.0583333v-1.05834zm0 1.05834h-1.0583333v1.05833h1.0583333zm0 1.05833v.26458.52917.26458h.7937499.2645834v-.26458-.79375zm0 1.05833h-1.0583333v1.05834h1.0583333zm-1.0583333 0v-1.05833h-1.0583333v1.05833zm-1.0583333 0h-1.0583333v1.05834h1.0583333zm-1.0583333 0v-1.05833h-1.0583333v1.05833zm-1.0583333 0h-1.0583333v.79375s-.00098022.26459.26458332.26459h.79374998zm0-1.05833v-1.05833h-1.0583333v1.05833zm0-1.05833h1.0583333v-1.05834h-1.0583333zm0-1.05834v-1.05833h-1.0583333v1.05833zm1.0583333 0h1.0583333v-1.05833h-1.0583333zm1.0583333 0v1.05834h1.0583333v-1.05834zm0 1.05834h-1.0583333v1.05833h1.0583333z" fill="#e9edf1" transform="matrix(3.7795277 0 0 3.7795277 -80.190752 -816.19796)"/></g><g fill="#70a983" transform="translate(.5 -272.64999)"><path d="m5.5 295.64999h5v2h-5z"/><path d="m5.5 298.64999h2v2h-2z"/><path d="m8.5 298.64999h5v2h-5z"/><path d="m14.5 298.64999h5v2h-5z"/><path d="m23.5 295.64999h2v2h-2z"/><path d="m20.5 298.64999h5v2h-5z"/><path d="m20.5 295.64999h2v2h-2z"/><path d="m11.5 295.64999h2v2h-2z"/><path d="m14.5 295.64999h5v2h-5z"/></g><g stroke-linecap="round" stroke-linejoin="round" stroke-miterlimit="1.8" transform="matrix(3.7795276 0 0 3.7795276 3 -1)"><g stroke-width=".529167"><path d="m1.0583332 1.5874995h4.7624998c.1465792 0 .2645833.1180042.2645833.2645834v3.7041664c0 .1465792-.1180041.2645833-.2645833.2645833h-4.7624998c-.14657916 0-.26458336-.1180041-.26458336-.2645833v-3.7041664c0-.1465792.1180042-.2645834.26458336-.2645834z" fill="#a3b7cc"/><path d="m1.0583333 1.8520831h4.7624998v3.7041664h-4.7624998z" fill="#f1f1f1"/><path d="m1.0583333 1.5875c-.14657899 0-.26458331.1180043-.26458331.2645833v.79375l.00000027.5291672v.2645834h.26458334 4.7625.2645833v-.2645834l-.0000003-.5291672v-.79375c0-.146579-.1180043-.2645833-.2645833-.2645833z" fill="#70a983"/><path d="m1.0583332 1.8520828h4.7624998l.0000003 1.3229172h-4.7624998z" fill="#bae0bd"/></g><rect fill="#70a983" height=".79375" ry=".396875" stroke-width="1.05833" width=".79375" x="1.322917" y="2.116667"/><rect fill="#70a983" height=".79375" ry=".396875" stroke-width="1.05833" width=".79375" x="2.38125" y="2.116667"/><rect fill="#70a983" height=".79375" ry=".396875" stroke-width="1.05833" width=".79375" x="3.439583" y="2.116667"/></g></svg>