<svg height="32" viewBox="0 0 32 32" width="32" xmlns="http://www.w3.org/2000/svg"><g transform="translate(28 -264.774985)"><path d="m-22.999999 265.77501h21.9999988c1.108 0 2 .89202 2 2.00001v26.00001c0 1.10797-.892 1.99998-2 1.99998h-21.9999988c-1.108 0-2-.89201-2-1.99998v-26c0-1.108.892-2.00001 2-2.00002z" fill="#a3b7cc"/><path d="m-22.999999 266.77503h21.9999988c.554 0 1 .44599 1 1v26c0 .55401-.446 1-1 1h-21.9999988c-.554 0-1-.44599-1-1v-26c0-.554.446-1 1-1z" fill="#f1f1f1"/></g><g transform="matrix(3.7795275 0 0 3.7795275 -11.999999 -1087.51963)"><path d="m9.5249999 290.64999h-.79375-.2645834-1.5875-.5291667-.2645833-.5291667-.2645833v.26459.52916 3.43959h1.5875 2.6458334v-.26459-.52916-.26459-.52916-.26459-.52916-.26459-.52916-.26459-.52916zm-3.9687501.26459h.5291667v.52916h-.5291667zm.79375 0h.5291667v.52916h-.5291667zm.79375 0h.5291667v.52916h-.5291667zm.7937501 0h.5291666v.52916h-.5291666zm.79375 0h.5291666v.52916h-.5291666zm-3.1750001.79375h.5291667v.52916h-.5291667zm.79375 0h.5291667v.52916h-.5291667zm.79375 0h.5291667v.52916h-.5291667zm.7937501 0h.5291666v.52916h-.5291666zm.79375 0h.5291666v.52916h-.5291666zm-3.1750001.79375h.5291667v.52916h-.5291667zm.79375 0h.5291667v.52916h-.5291667zm.79375 0h.5291667v.52916h-.5291667zm.7937501 0h.5291666v.52916h-.5291666zm.79375 0h.5291666v.52916h-.5291666zm-3.1750001.79375h.5291667v.52916h-.5291667zm.79375 0h.5291667v.52916h-.5291667zm.79375 0h.5291667v.52916h-.5291667zm.7937501 0h.5291666v.52916h-.5291666zm.79375 0h.5291666v.52916h-.5291666zm-3.1750001.79375h.5291667v.52916h-.5291667zm.79375 0h.5291667v.52916h-.5291667zm.79375 0h.5291667v.52916h-.5291667zm.7937501 0h.5291666v.52916h-.5291666zm.79375 0h.5291666v.52916h-.5291666z" fill="#a3b7cc" opacity=".98"/><path d="m4.4979165 288.00415c-.2931578 0-.5291667.23601-.5291667.52917v.79375l-.0000008.00001v.52917h.5291667l5.8208333-.00001h.529167v-.52917l.000001-.00001v-.79375c0-.29316-.236009-.52917-.529167-.52917z" fill="#c74343" opacity=".98"/><path d="m4.4979165 288.26873c-.1465786 0-.2645834.11801-.2645834.26459v.79375l-.0000008.00001v.26459h.2645834l5.8208333-.00001h.264584v-.26459l.000001-.00001v-.79375c0-.14658-.118005-.26459-.264584-.26459z" fill="#f78f8f" opacity=".98"/></g></svg>