<?xml version="1.0" encoding="UTF-8" standalone="no"?>
<!-- Created with Inkscape (http://www.inkscape.org/) -->

<svg
   width="32"
   height="32"
   viewBox="0 0 8.4666664 8.4666666"
   version="1.1"
   id="svg5"
   inkscape:version="1.2.1 (9c6d41e410, 2022-07-14)"
   sodipodi:docname="text-x-hex.svg"
   xml:space="preserve"
   xmlns:inkscape="http://www.inkscape.org/namespaces/inkscape"
   xmlns:sodipodi="http://sodipodi.sourceforge.net/DTD/sodipodi-0.dtd"
   xmlns="http://www.w3.org/2000/svg"
   xmlns:svg="http://www.w3.org/2000/svg"><sodipodi:namedview
     id="namedview7"
     pagecolor="#ffffff"
     bordercolor="#000000"
     borderopacity="0.25"
     inkscape:showpageshadow="false"
     inkscape:pageopacity="0.0"
     inkscape:pagecheckerboard="0"
     inkscape:deskcolor="#d1d1d1"
     inkscape:document-units="px"
     showgrid="true"
     inkscape:zoom="28.963094"
     inkscape:cx="16.279338"
     inkscape:cy="15.588804"
     inkscape:window-width="2160"
     inkscape:window-height="1335"
     inkscape:window-x="0"
     inkscape:window-y="0"
     inkscape:window-maximized="1"
     inkscape:current-layer="g3405"><inkscape:grid
       type="xygrid"
       id="grid290"
       originx="0"
       originy="0" /></sodipodi:namedview><defs
     id="defs2" /><g
     inkscape:label="Capa 1"
     inkscape:groupmode="layer"
     id="layer1"><g
       id="g3405"
       transform="translate(0.26458333,0.26458358)"
       style="fill:#9bcfe2;fill-opacity:1"><path
         id="rect845"
         style="fill:#a5b8cd;stroke-width:0.529167;stroke-linecap:round;stroke-linejoin:round;stroke-miterlimit:1.8;paint-order:stroke fill markers;stop-color:#000000;fill-opacity:1"
         d="M 1.0583333,-3.3000001e-7 H 6.8791666 C 7.1723249,-3.3000001e-7 7.4083332,0.23600799 7.4083332,0.52916631 V 7.408333 c 0,0.2931583 -0.2360083,0.5291667 -0.5291666,0.5291667 H 1.0583333 c -0.29315834,0 -0.52916666,-0.2360084 -0.52916666,-0.5291667 V 0.52916631 C 0.52916664,0.23600799 0.76517496,-3.3000001e-7 1.0583333,-3.3000001e-7 Z" /><path
         id="rect901"
         style="fill:#f1f1f1;stroke-width:0.529167;stroke-linecap:round;stroke-linejoin:round;stroke-miterlimit:1.8;paint-order:stroke fill markers;stop-color:#000000;fill-opacity:1"
         d="m 1.0583333,0.26458302 h 5.8208333 c 0.1465791,0 0.2645833,0.11800416 0.2645833,0.26458332 V 7.408333 c 0,0.1465792 -0.1180042,0.2645833 -0.2645833,0.2645833 H 1.0583333 c -0.14657915,0 -0.26458331,-0.1180041 -0.26458331,-0.2645833 V 0.52916634 c 0,-0.14657916 0.11800416,-0.26458332 0.26458331,-0.26458332 z" /><path
         id="rect1922"
         style="fill:#a5b8cd;fill-opacity:1;stroke-width:0.529167;stroke-linecap:round;stroke-linejoin:round;stroke-miterlimit:1.8;paint-order:stroke fill markers;stop-color:#000000"
         d="M 4.7624998,4.233333 V 4.7624997 H 4.2333331 V 5.2916663 H 4.7624998 V 5.820833 H 4.2333331 V 6.3499997 H 4.7624998 V 6.8791663 H 5.2916664 V 6.3499997 H 5.8208331 V 6.8791663 H 6.3499997 V 6.3499997 H 6.8791664 V 5.820833 H 6.3499997 V 5.2916663 H 6.8791664 V 4.7624997 H 6.3499997 V 4.233333 H 5.8208331 V 4.7624997 H 5.2916664 V 4.233333 Z M 5.2916664,5.2916663 H 5.8208331 V 5.820833 H 5.2916664 Z" /><path
         id="path6"
         style="fill:#a5b8cd;fill-opacity:1;stroke-width:0.264583"
         d="M 1.3229169,0.7937499 V 1.3229166 H 2.6458336 V 0.7937499 Z m 1.5875,0 V 1.3229166 H 3.4395836 V 0.7937499 Z m 0.79375,0 V 1.3229166 H 5.0270835 V 0.7937499 Z m 1.5875,0 V 1.3229166 H 5.8208335 V 0.7937499 Z m -3.96875,0.79375 V 2.1166665 H 3.4395836 V 1.5874999 Z m 2.38125,0 V 2.1166665 H 4.2333335 V 1.5874999 Z m 0.79375,0 V 2.1166665 H 5.8208335 V 1.5874999 Z m -3.175,0.79375 V 2.9104165 H 1.8520836 V 2.3812499 Z m 0.79375,0 V 2.9104165 H 2.6458336 V 2.3812499 Z m 0.79375,0 V 2.9104165 H 4.2333335 V 2.3812499 Z m 1.5875,0 V 2.9104165 H 5.0270835 V 2.3812499 Z m 0.79375,0 V 2.9104165 H 5.8208335 V 2.3812499 Z m -3.96875,0.79375 V 3.7041665 H 2.6458336 V 3.1749999 Z m 1.5875,0 V 3.7041665 H 3.4395836 V 3.1749999 Z m 0.79375,0 V 3.7041665 H 5.0270835 V 3.1749999 Z m -2.38125,0.79375 V 4.4979165 H 1.8520836 V 3.9687499 Z m 0.79375,0 V 4.4979165 H 3.4395836 V 3.9687499 Z m -0.79375,0.7937499 V 5.2916665 H 2.6458336 V 4.7624998 Z m 1.5875,0 V 5.2916665 H 3.4395836 V 4.7624998 Z m -1.5875,0.79375 V 6.0854165 H 1.8520836 V 5.5562498 Z m 0.79375,0 v 0.5291667 h 0.79375 V 5.5562498 Z m 1.0583333,0 V 6.0854165 H 3.7041669 V 5.5562498 Z m -1.8520833,0.79375 V 6.8791665 H 2.6458336 V 6.3499998 Z m 1.5875,0 v 0.5291667 h 0.79375 V 6.3499998 Z" /></g></g></svg>
