<svg height="32" viewBox="0 0 32 32" width="32" xmlns="http://www.w3.org/2000/svg"><g transform="translate(-8.417447 -261.14828)"><path d="m13.417447 262.14828h22c1.108 0 2 .89202 2 2.00001v26.00001c0 1.10797-.892 1.99998-2 1.99998h-22c-1.108 0-2-.89201-2-1.99998v-26c0-1.108.892-2.00001 2-2.00002z" fill="#d16040"/><path d="m13.417447 263.1483h22c.554 0 1 .44599 1 1v26c0 .55401-.446 1-1 1h-22c-.554 0-1-.44599-1-1v-26c0-.554.446-1 1-1z" fill="#ff8f64"/><path d="m17.417447 269.14828v3a12 12 0 0 1 12 12h3a15 15 0 0 0 -15-15zm0 6v3a6 6 0 0 1 6 6h3a9 9 0 0 0 -9-9zm.5 6c-1.384999 0-2.5 1.115-2.5 2.5s1.115001 2.5 2.5 2.5 2.5-1.115 2.5-2.5-1.115001-2.5-2.5-2.5z" fill="#ffe8e1"/></g></svg>