<?xml version="1.0" encoding="UTF-8" standalone="no"?>
<svg
   height="32"
   viewBox="0 0 32 32"
   width="32"
   version="1.1"
   id="svg64"
   sodipodi:docname="text-x-csharp.svg"
   xml:space="preserve"
   inkscape:version="1.2.1 (9c6d41e410, 2022-07-14)"
   xmlns:inkscape="http://www.inkscape.org/namespaces/inkscape"
   xmlns:sodipodi="http://sodipodi.sourceforge.net/DTD/sodipodi-0.dtd"
   xmlns="http://www.w3.org/2000/svg"
   xmlns:svg="http://www.w3.org/2000/svg"><defs
     id="defs68" /><sodipodi:namedview
     id="namedview66"
     pagecolor="#ffffff"
     bordercolor="#000000"
     borderopacity="0.25"
     inkscape:showpageshadow="2"
     inkscape:pageopacity="0.0"
     inkscape:pagecheckerboard="0"
     inkscape:deskcolor="#d1d1d1"
     showgrid="true"
     inkscape:zoom="14.75"
     inkscape:cx="17.491525"
     inkscape:cy="16.067797"
     inkscape:window-width="2160"
     inkscape:window-height="1330"
     inkscape:window-x="0"
     inkscape:window-y="0"
     inkscape:window-maximized="1"
     inkscape:current-layer="svg64"><inkscape:grid
       type="xygrid"
       id="grid390" /></sodipodi:namedview><g
     transform="translate(0 -282.64999)"
     id="g62"><g
       transform="translate(28 -.00002)"
       id="g6"><path
         d="m-22.999999 283.65001h21.9999988c1.108 0 2 .89202 2 2.00001v26.00001c0 1.10797-.892 1.99998-2 1.99998h-21.9999988c-1.108 0-2-.89201-2-1.99998v-26c0-1.108.892-2 2-2.00002z"
         fill="#36404d"
         id="path2" /><path
         d="m-22.999999 284.65003h21.9999988c.554 0 1 .44599 1 1v26c0 .55401-.446 1-1 1h-21.9999988c-.554 0-1-.44599-1-1v-26c0-.55399.446-1 1-1z"
         fill="#4b6477"
         id="path4" /></g><path
       id="path8"
       d="M 6 286.64999 L 6 288.64999 L 11 288.64999 L 11 286.64999 L 6 286.64999 z M 15 289.64999 L 15 291.64999 L 17 291.64999 L 17 289.64999 L 15 289.64999 z M 18 289.64999 L 18 291.64999 L 23 291.64999 L 23 289.64999 L 18 289.64999 z M 6 292.64999 L 6 294.64999 L 8 294.64999 L 8 292.64999 L 6 292.64999 z M 21 292.64999 L 21 294.64999 L 23 294.64999 L 23 292.64999 L 21 292.64999 z M 12 295.64999 L 12 297.64999 L 14 297.64999 L 14 295.64999 L 12 295.64999 z M 18 299.64999 L 18 301.64999 L 16 301.64999 L 16 303.64999 L 18 303.64999 L 18 305.64999 L 16 305.64999 L 16 307.64999 L 18 307.64999 L 18 309.64999 L 20 309.64999 L 20 307.64999 L 22 307.64999 L 22 309.64999 L 24 309.64999 L 24 307.64999 L 26 307.64999 L 26 305.64999 L 24 305.64999 L 24 303.64999 L 26 303.64999 L 26 301.64999 L 24 301.64999 L 24 299.64999 L 22 299.64999 L 22 301.64999 L 20 301.64999 L 20 299.64999 L 18 299.64999 z M 6 301.64999 L 6 303.64999 L 11 303.64999 L 11 301.64999 L 6 301.64999 z M 20 303.64999 L 22 303.64999 L 22 305.64999 L 20 305.64999 L 20 303.64999 z M 9 304.64999 L 9 306.64999 L 12 306.64999 L 12 304.64999 L 9 304.64999 z "
       style="fill:#67d4f1;fill-opacity:1" /><path
       id="path10"
       d="M 12 286.64999 L 12 288.64999 L 14 288.64999 L 14 286.64999 L 12 286.64999 z M 21 286.64999 L 21 288.64999 L 23 288.64999 L 23 286.64999 L 21 286.64999 z M 6 289.64999 L 6 291.64999 L 14 291.64999 L 14 289.64999 L 6 289.64999 z M 12 292.64999 L 12 294.64999 L 17 294.64999 L 17 292.64999 L 12 292.64999 z M 6 298.64999 L 6 300.64999 L 8 300.64999 L 8 298.64999 L 6 298.64999 z M 6 307.64999 L 6 309.64999 L 11 309.64999 L 11 307.64999 L 6 307.64999 z "
       style="fill:#ffffff;fill-opacity:1" /><path
       id="path12"
       d="M 15 286.64999 L 15 288.64999 L 20 288.64999 L 20 286.64999 L 15 286.64999 z M 9 292.64999 L 9 294.64999 L 11 294.64999 L 11 292.64999 L 9 292.64999 z M 18 292.64999 L 18 294.64999 L 20 294.64999 L 20 292.64999 L 18 292.64999 z M 15 295.64999 L 15 297.64999 L 20 297.64999 L 20 295.64999 L 15 295.64999 z M 9 298.64999 L 9 300.64999 L 14 300.64999 L 14 298.64999 L 9 298.64999 z M 12 301.64999 L 12 303.64999 L 14 303.64999 L 14 301.64999 L 12 301.64999 z M 6 304.64999 L 6 306.64999 L 8 306.64999 L 8 304.64999 L 6 304.64999 z "
       style="fill:#ace7f7;fill-opacity:1" /><g
       fill="#fff"
       id="g24" /><path
       d="m6 295.64999h5v2h-5z"
       fill="#42a5f5"
       id="path34" /></g></svg>
