<svg height="32" viewBox="0 0 32 32" width="32" xmlns="http://www.w3.org/2000/svg"><g transform="translate(84 -286.64999)"><path d="m-79 287.64997h21.999999c1.108 0 2 .89202 2 2.00001v26.00001c0 1.10797-.892 1.99998-2 1.99998h-21.999999c-1.108 0-2-.89201-2-1.99998v-26c0-1.108.892-2 2-2.00002z" fill="#4972c5"/><path d="m-78.999999 288.65001h21.999999c.554 0 1 .44599 1 1v26c0 .55401-.446 1-1 1h-21.999999c-.554 0-1-.44599-1-1v-26c0-.55399.446-1 1-1z" fill="#5ca5ff"/><path d="m-.00001478 285.29288c-1.10799602 0-1.99999802.892-1.99999802 2s.892002 2 1.99999802 2c1.10800198 0 2.00000398-.892 2.00000398-2s-.892002-2-2.00000398-2zm0 6c-1.10799602 0-1.99999802.892-1.99999802 2v3 3c0 1.108.892002 2 1.99999802 2 1.10800198 0 2.00000398-.892 2.00000398-2v-3-3c0-1.108-.892002-2-2.00000398-2z" fill="#e6f9ff" transform="matrix(1.00000004545 0 0 1.00000012104 -67.99998913867 9.35707988668)"/></g></svg>