<?xml version="1.0" encoding="UTF-8" standalone="no"?>
<svg
   height="32"
   viewBox="0 0 32 32"
   width="32"
   version="1.1"
   id="svg10"
   sodipodi:docname="text-x-po.svg"
   inkscape:version="1.2.1 (9c6d41e410, 2022-07-14)"
   xml:space="preserve"
   xmlns:inkscape="http://www.inkscape.org/namespaces/inkscape"
   xmlns:sodipodi="http://sodipodi.sourceforge.net/DTD/sodipodi-0.dtd"
   xmlns="http://www.w3.org/2000/svg"
   xmlns:svg="http://www.w3.org/2000/svg"><defs
     id="defs14"><style
       id="current-color-scheme"
       type="text/css">
      .ColorScheme-Text {
        color:#122036;
      }
      </style><style
       id="current-color-scheme-2"
       type="text/css">
      .ColorScheme-Text {
        color:#122036;
      }
      </style><style
       id="current-color-scheme-0"
       type="text/css">
      .ColorScheme-Text {
        color:#122036;
      }
      </style><style
       id="current-color-scheme-5"
       type="text/css">
      .ColorScheme-Text {
        color:#122036;
      }
      </style><style
       id="current-color-scheme-2-3"
       type="text/css">
      .ColorScheme-Text {
        color:#122036;
      }
      </style><style
       id="current-color-scheme-0-5"
       type="text/css">
      .ColorScheme-Text {
        color:#122036;
      }
      </style></defs><sodipodi:namedview
     id="namedview12"
     pagecolor="#ffffff"
     bordercolor="#000000"
     borderopacity="0.25"
     inkscape:showpageshadow="2"
     inkscape:pageopacity="0.0"
     inkscape:pagecheckerboard="0"
     inkscape:deskcolor="#d1d1d1"
     showgrid="true"
     inkscape:zoom="20.85965"
     inkscape:cx="17.330109"
     inkscape:cy="16.155592"
     inkscape:window-width="2160"
     inkscape:window-height="1330"
     inkscape:window-x="0"
     inkscape:window-y="0"
     inkscape:window-maximized="1"
     inkscape:current-layer="g8"><inkscape:grid
       type="xygrid"
       id="grid297" /></sodipodi:namedview><g
     transform="translate(6.375 -264.64999)"
     id="g8"><rect
       style="fill:#3182d9;fill-opacity:1;stroke-width:2;stroke-linecap:round;stroke-linejoin:round;stroke-miterlimit:1.8;paint-order:stroke fill markers;stop-color:#000000"
       id="rect1420"
       width="26"
       height="30"
       x="-3.375"
       y="265.64999"
       ry="1.9999961" /><rect
       style="fill:#50c1f9;fill-opacity:1;stroke-width:2;stroke-linecap:round;stroke-linejoin:round;stroke-miterlimit:1.8;paint-order:stroke fill markers;stop-color:#000000"
       id="rect1441"
       width="24"
       height="28"
       x="-2.375"
       y="266.64999"
       ry="1" /><path
       id="path351"
       style="fill:#e6f9ff;stroke-width:2.57863;stroke-linecap:round;stroke-linejoin:round;stroke-miterlimit:1.8;paint-order:stroke fill markers;stop-color:#000000;fill-opacity:1"
       d="M 9.625 272.64999 A 8 8 0 0 0 1.625 280.64999 A 8 8 0 0 0 9.625 288.64999 L 17.625 288.64999 A 1.0001 1.0001 0 0 0 18.332031 286.94296 L 16.357422 284.96835 A 8 8 0 0 0 17.625 280.64999 A 8 8 0 0 0 9.625 272.64999 z M 5.625 279.64999 C 6.1789989 279.64999 6.625 280.09599 6.625 280.64999 C 6.625 281.20399 6.1789989 281.64999 5.625 281.64999 C 5.0710011 281.64999 4.625 281.20399 4.625 280.64999 C 4.625 280.09599 5.0710011 279.64999 5.625 279.64999 z M 9.625 279.64999 C 10.178999 279.64999 10.625 280.09599 10.625 280.64999 C 10.625 281.20399 10.178999 281.64999 9.625 281.64999 C 9.0710011 281.64999 8.625 281.20399 8.625 280.64999 C 8.625 280.09599 9.0710011 279.64999 9.625 279.64999 z M 13.625 279.64999 C 14.178999 279.64999 14.625 280.09599 14.625 280.64999 C 14.625 281.20399 14.178999 281.64999 13.625 281.64999 C 13.071001 281.64999 12.625 281.20399 12.625 280.64999 C 12.625 280.09599 13.071001 279.64999 13.625 279.64999 z " /><g
       id="path416" /></g></svg>
