<?xml version="1.0" encoding="UTF-8" standalone="no"?>
<!-- Created with Inkscape (http://www.inkscape.org/) -->

<svg
   width="32"
   height="32"
   viewBox="0 0 32 32"
   version="1.1"
   id="svg8"
   inkscape:version="1.2.1 (9c6d41e410, 2022-07-14)"
   sodipodi:docname="text-x-authors.svg"
   xml:space="preserve"
   xmlns:inkscape="http://www.inkscape.org/namespaces/inkscape"
   xmlns:sodipodi="http://sodipodi.sourceforge.net/DTD/sodipodi-0.dtd"
   xmlns="http://www.w3.org/2000/svg"
   xmlns:svg="http://www.w3.org/2000/svg"
   xmlns:rdf="http://www.w3.org/1999/02/22-rdf-syntax-ns#"
   xmlns:cc="http://creativecommons.org/ns#"
   xmlns:dc="http://purl.org/dc/elements/1.1/"><title
     id="title7895">Antu icon Theme</title><defs
     id="defs2"><style
       type="text/css"
       id="current-color-scheme">
      .ColorScheme-Text {
        color:#122036;
      }
      </style><style
       type="text/css"
       id="current-color-scheme-2">
      .ColorScheme-Text {
        color:#122036;
      }
      </style><style
       type="text/css"
       id="current-color-scheme-0">
      .ColorScheme-Text {
        color:#122036;
      }
      </style><style
       id="current-color-scheme-5"
       type="text/css">
      .ColorScheme-Text {
        color:#122036;
      }
      </style><style
       id="current-color-scheme-53"
       type="text/css">
      .ColorScheme-Text {
        color:#122036;
      }
      </style></defs><sodipodi:namedview
     id="base"
     pagecolor="#ffffff"
     bordercolor="#666666"
     borderopacity="1.0"
     inkscape:pageopacity="0.0"
     inkscape:pageshadow="2"
     inkscape:zoom="22.627417"
     inkscape:cx="25.698912"
     inkscape:cy="19.423339"
     inkscape:document-units="px"
     inkscape:current-layer="layer1"
     showgrid="true"
     units="px"
     inkscape:window-width="2160"
     inkscape:window-height="1335"
     inkscape:window-x="0"
     inkscape:window-y="0"
     inkscape:window-maximized="1"
     objecttolerance="10"
     gridtolerance="10"
     guidetolerance="10"
     inkscape:showpageshadow="2"
     inkscape:pagecheckerboard="0"
     inkscape:deskcolor="#d1d1d1"><inkscape:grid
       type="xygrid"
       id="grid7897"
       empspacing="4" /></sodipodi:namedview><metadata
     id="metadata5"><rdf:RDF><cc:Work
         rdf:about=""><dc:format>image/svg+xml</dc:format><dc:type
           rdf:resource="http://purl.org/dc/dcmitype/StillImage" /><dc:title>Antu icon Theme</dc:title></cc:Work></rdf:RDF></metadata><g
     inkscape:label="Capa 1"
     inkscape:groupmode="layer"
     id="layer1"
     transform="translate(0,-282.64999)"><g
       id="g11901"
       transform="translate(16,8)"><path
         inkscape:connector-curvature="0"
         style="opacity:1;fill:#66798f;fill-opacity:1;stroke:none;stroke-width:1.99999988;stroke-linecap:round;stroke-linejoin:round;stroke-miterlimit:4;stroke-dasharray:none;stroke-opacity:1"
         d="m -11,275.64999 h 21.999999 c 1.108,0 2,0.892 2,2 v 26 c 0,1.108 -0.892,2 -2,2 H -11 c -1.108,0 -2,-0.892 -2,-2 v -26 c 0,-1.108 0.892,-2 2,-2 z"
         id="rect827" /><path
         inkscape:connector-curvature="0"
         style="opacity:1;fill:#b0c1d4;fill-opacity:1;stroke:none;stroke-width:1.99999988;stroke-linecap:round;stroke-linejoin:round;stroke-miterlimit:4;stroke-dasharray:none;stroke-opacity:1"
         d="m -11,276.64999 h 21.999999 c 0.554,0 1,0.446 1,1 v 26 c 0,0.554 -0.446,1 -1,1 H -11 c -0.554,0 -1,-0.446 -1,-1 v -26 c 0,-0.554 0.446,-1 1,-1 z"
         id="rect829" /></g><path
       id="path7581"
       style="opacity:1;fill:#66798f;stroke-width:2.4;stroke-linecap:round;stroke-linejoin:round;stroke-miterlimit:1.8;paint-order:stroke fill markers;stop-color:#000000;fill-opacity:1"
       d="M 16 289.64999 A 9 9 0 0 0 7 298.64999 A 9 9 0 0 0 16 307.64999 A 9 9 0 0 0 25 298.64999 A 9 9 0 0 0 16 289.64999 z M 16 291.64999 A 7 7 0 0 1 23 298.64999 A 7 7 0 0 1 16 305.64999 A 7 7 0 0 1 9 298.64999 A 7 7 0 0 1 16 291.64999 z M 16 294.64999 A 4 4 0 0 0 12.535156 296.64999 A 4 4 0 0 0 12.535156 300.64999 A 4 4 0 0 0 16 302.64999 L 18 302.64999 L 18 300.64999 L 16 300.64999 A 2 2 0 0 1 15.652344 300.61874 A 2 2 0 0 1 15.316406 300.5289 A 2 2 0 0 1 15 300.38241 A 2 2 0 0 1 14.714844 300.18124 A 2 2 0 0 1 14.46875 299.93515 A 2 2 0 0 1 14.267578 299.64999 A 2 2 0 0 1 14.121094 299.33358 A 2 2 0 0 1 14.03125 298.99765 A 2 2 0 0 1 14 298.64999 A 2 2 0 0 1 14.03125 298.30233 A 2 2 0 0 1 14.121094 297.9664 A 2 2 0 0 1 14.267578 297.64999 A 2 2 0 0 1 14.46875 297.36483 A 2 2 0 0 1 14.714844 297.11874 A 2 2 0 0 1 15 296.91757 A 2 2 0 0 1 15.316406 296.77108 A 2 2 0 0 1 15.652344 296.68124 A 2 2 0 0 1 16 296.64999 L 18 296.64999 L 18 294.64999 L 16 294.64999 z " /></g></svg>
