<?xml version="1.0" encoding="UTF-8" standalone="no"?>
<svg
   height="32"
   viewBox="0 0 32 32"
   width="32"
   version="1.1"
   id="svg42"
   sodipodi:docname="text-x-cmake.svg"
   xml:space="preserve"
   inkscape:version="1.2.1 (9c6d41e410, 2022-07-14)"
   xmlns:inkscape="http://www.inkscape.org/namespaces/inkscape"
   xmlns:sodipodi="http://sodipodi.sourceforge.net/DTD/sodipodi-0.dtd"
   xmlns="http://www.w3.org/2000/svg"
   xmlns:svg="http://www.w3.org/2000/svg"><defs
     id="defs46" /><sodipodi:namedview
     id="namedview44"
     pagecolor="#ffffff"
     bordercolor="#000000"
     borderopacity="0.25"
     inkscape:showpageshadow="2"
     inkscape:pageopacity="0.0"
     inkscape:pagecheckerboard="0"
     inkscape:deskcolor="#d1d1d1"
     showgrid="true"
     inkscape:zoom="10.429825"
     inkscape:cx="31.112698"
     inkscape:cy="19.511353"
     inkscape:window-width="2160"
     inkscape:window-height="1335"
     inkscape:window-x="0"
     inkscape:window-y="0"
     inkscape:window-maximized="1"
     inkscape:current-layer="svg42"><inkscape:grid
       type="xygrid"
       id="grid1273" /></sodipodi:namedview><g
     transform="translate(84 -286.64999)"
     id="g40"><path
       d="m-79 287.64997h21.999999c1.108 0 2 .89202 2 2.00001v26.00001c0 1.10797-.892 1.99998-2 1.99998h-21.999999c-1.108 0-2-.89201-2-1.99998v-26c0-1.108.892-2 2-2.00002z"
       fill="#a3b7cc"
       id="path2" /><path
       d="m-78.999999 288.65001h21.999999c.554 0 1 .44599 1 1v26c0 .55401-.446 1-1 1h-21.999999c-.554 0-1-.44599-1-1v-26c0-.55399.446-1 1-1z"
       fill="#fafafa"
       id="path4" /><path
       d="m-79 288.64999c-.553947 0-1 .4461-1 1.00003v1.99997 1.00003h1 2 1v-1.00003-1.99997-1.00003h-1zm3 4.00003v3.99998h4v-3.99998zm4 0h4v-4.00003h-4zm4 0v3.99998h4v-3.99998zm4 0h4v-4.00003h-4zm4 0v3.99998h4v-3.99998zm0 3.99998h-4v3.99999h4zm0 3.99999v4.00003h4v-4.00003zm0 4.00003h-4v3.99998h4zm0 3.99998v.99999 2.00001.99999h3 1v-.99999-3zm0 3.99999h-4v4.00003h4zm-4 0v-3.99999h-4v3.99999zm-4 0h-4v4.00003h4zm-4 0v-3.99999h-4v3.99999zm-4 0h-4v4.00003h4zm0-3.99999v-3.99998h-4v3.99998zm0-3.99998h4v-4.00003h-4zm0-4.00003v-3.99999h-4v3.99999zm4 0h4v-3.99999h-4zm4 0v4.00003h4v-4.00003zm0 4.00003h-4v3.99998h4z"
       fill="#dfe6ec"
       id="path6" /></g><path
     style="color:#000000;fill:#4f92db;fill-opacity:1;stroke-linecap:round;stroke-linejoin:round;stroke-miterlimit:1.8;paint-order:stroke fill markers"
     d="m 16.230469,8.0273438 c -0.451473,-0.107041 -0.917278,0.1104966 -1.125,0.5253906 L 8.1054688,22.552734 c -0.4439965,0.885311 0.5309715,1.808245 1.390625,1.316407 l 7.0000002,-4 C 16.80795,19.690935 17.000292,19.359181 17,19 V 9 C 16.999767,8.5366684 16.681319,8.134163 16.230469,8.0273438 Z"
     id="path1478"
     sodipodi:nodetypes="cccccccc" /><path
     style="color:#000000;fill:#5ac0ff;fill-opacity:1;stroke-width:2;stroke-linecap:round;stroke-linejoin:round;stroke-miterlimit:1.8;paint-order:stroke fill markers"
     d="M 9,23 16,9 v 10 z"
     id="path1480" /><g
     id="path1340-3"><path
       style="color:#000000;fill:#c74343;fill-opacity:1;stroke-linecap:round;stroke-linejoin:round;stroke-miterlimit:1.8;paint-order:stroke fill markers"
       d="M 15.769531,8.0273438 C 15.318681,8.134163 15.000233,8.5366684 15,9 v 10 3 c -4.2e-5,0.498005 0.366325,0.920159 0.859375,0.990234 l 7,1 c 0.798421,0.11344 1.395876,-0.716233 1.035156,-1.4375 l -7,-13.9999996 c -0.207722,-0.414894 -0.673527,-0.6324316 -1.125,-0.5253906 z"
       id="path1472"
       sodipodi:nodetypes="ccccccccc" /></g><path
     style="color:#000000;fill:#f78f8f;fill-opacity:1;stroke-width:2;stroke-linecap:round;stroke-linejoin:round;stroke-miterlimit:1.8;paint-order:stroke fill markers"
     d="M 23,23 16,9 v 10 3 z"
     id="path1474" /><path
     style="color:#000000;fill:#5e9c76;fill-opacity:1;stroke-linecap:round;stroke-linejoin:round;stroke-miterlimit:1.8;paint-order:stroke fill markers"
     d="m 14.316406,19.050781 c -0.27684,-0.09192 -0.580014,-0.05839 -0.830078,0.0918 l -4.9999999,3 C 7.6176305,22.664394 7.9866282,23.998676 9,24 h 14 c 1.135814,0.0013 1.394322,-1.591209 0.316406,-1.949219 z"
     id="path1484"
     sodipodi:nodetypes="ccccccc" /><path
     style="color:#000000;fill:#bae0bd;fill-opacity:1;stroke-width:2;stroke-linecap:round;stroke-linejoin:round;stroke-miterlimit:1.8;-inkscape-stroke:none;paint-order:stroke fill markers"
     d="m 9,23 5,-3 9,3 z"
     id="path1486" /></svg>
