<svg height="32" viewBox="0 0 32 32" width="32" xmlns="http://www.w3.org/2000/svg"><g transform="translate(18 -297.024985)"><path d="m-13 298.02501h21.999999c1.108 0 2 .89202 2 2.00001v26.00001c0 1.10797-.892 1.99998-2 1.99998h-21.999999c-1.108 0-2-.89201-2-1.99998v-26c0-1.108.892-2.00001 2-2.00002z" fill="#dd4f66"/><path d="m-13 299.02503h21.999999c.554 0 1 .44599 1 1v26c0 .55401-.446 1-1 1h-21.999999c-.554 0-1-.44599-1-1v-26c0-.554.446-1 1-1z" fill="#ff778a"/><path d="m-5 298.02499v1 10c0 1.66199 1.3380034 3 3 3 1.66199668 0 3-1.33801 3-3v-10-1z" fill="#36404d"/><path d="m-4 299.02499v10c0 1.10798.8920011 2 2 2 1.10799889 0 2-.89202 2-2v-10z" fill="#4b6477"/><g fill="#eff0f3"><path d="m-2 309.02499v1h1v-1z"/><path d="m-2 308.02499h-1v1h1z"/><path d="m-2 307.02499v1h1v-1z"/><path d="m-2 306.02499h-1v1h1z"/><path d="m-2 305.02499v1h1v-1z"/><path d="m-2 304.02499h-1v1h1z"/><path d="m-2 303.02499v1h1v-1z"/><path d="m-2 302.02499h-1v1h1z"/><path d="m-2 301.02499v1h1v-1z"/><path d="m-2 300.02499h-1v1h1z"/><path d="m-1 299.02499h-1v1h1z"/></g><path d="m-2 314.02499c-3.3137051 0-5.9999953 2.68629-6 6 .0000047 3.31371 2.6862949 6 6 6s5.9999953-2.68629 6-6c-.0000047-3.31371-2.6862949-6-6-6zm0 1c2.76142062 0 4.9999953 2.23858 5 5-.0000047 2.76142-2.23857938 5-5 5-2.7614206 0-4.9999953-2.23858-5-5 .0000047-2.76142 2.2385794-5 5-5z" fill="#dd4f66"/><circle cx="-2" cy="320.02499" fill="#fbebee" r="5" stroke-linecap="square" stroke-miterlimit="1.8" stroke-width="2.10819"/><path d="m-2 318.02499-.9394531 3.66601a1 1 0 0 0 -.0507813.19727l-.0097656.03711h.0058594a1 1 0 0 0 -.0058594.09961 1 1 0 0 0 1 1 1 1 0 0 0 1-1 1 1 0 0 0 -.0039062-.09961h.0039062l-.0117188-.04297v-.00391a1 1 0 0 0 -.0527343-.20703z" fill="#36404d" stroke-linecap="square" stroke-miterlimit="1.8" stroke-width="2"/><path d="m-2 316.02499a4 4 0 0 0 -4 4h1a3 3 0 0 1 3-3 3 3 0 0 1 3 3h1a4 4 0 0 0 -4-4z" fill="#36404d" stroke-linecap="square" stroke-miterlimit="1.8" stroke-width="2"/><path d="m-2 316.02499v1a3 3 0 0 1 3 3h1a4 4 0 0 0 -4-4z" fill="#dd4f66" stroke-linecap="square" stroke-miterlimit="1.8" stroke-width="2"/></g></svg>