<svg height="32" viewBox="0 0 32 32" width="32" xmlns="http://www.w3.org/2000/svg"><g transform="translate(84 -286.64997)"><path d="m-79 287.64997h21.999999c1.108 0 2 .89202 2 2.00001v26.00001c0 1.10797-.892 1.99998-2 1.99998h-21.999999c-1.108 0-2-.89201-2-1.99998v-26c0-1.108.892-2 2-2.00002z" fill="#a3b7cc"/><path d="m-78.999999 288.65001h21.999999c.554 0 1 .44599 1 1v26c0 .55401-.446 1-1 1h-21.999999c-.554 0-1-.44599-1-1v-26c0-.55399.446-1 1-1z" fill="#fafafa"/><path d="m-79 288.64999c-.553947 0-1 .4461-1 1.00003v1.99997 1.00003h1 2 1v-1.00003-1.99997-1.00003h-1zm3 4.00003v3.99998h4v-3.99998zm4 0h4v-4.00003h-4zm4 0v3.99998h4v-3.99998zm4 0h4v-4.00003h-4zm4 0v3.99998h4v-3.99998zm0 3.99998h-4v3.99999h4zm0 3.99999v4.00003h4v-4.00003zm0 4.00003h-4v3.99998h4zm0 3.99998v.99999 2.00001.99999h3 1v-.99999-3zm0 3.99999h-4v4.00003h4zm-4 0v-3.99999h-4v3.99999zm-4 0h-4v4.00003h4zm-4 0v-3.99999h-4v3.99999zm-4 0h-4v4.00003h4zm0-3.99999v-3.99998h-4v3.99998zm0-3.99998h4v-4.00003h-4zm0-4.00003v-3.99999h-4v3.99999zm4 0h4v-3.99999h-4zm4 0v4.00003h4v-4.00003zm0 4.00003h-4v3.99998h4z" fill="#dfe6ec"/></g><g stroke-linecap="round" stroke-linejoin="round" stroke-miterlimit="1.8" transform="translate(-3.478518 8.88672)"><g><path d="m18.478516-1.8867187c-2.198698 0-4 1.80130139-4 4-2.198699 0-4 1.8013019-4 3.9999999v2.0000001c0 2.1986977 1.801301 3.9999997 4 3.9999997h1a1.0001 1.0001 0 0 0 1-1v-1.9999997c0-.040369.000944-.07611.0039-.1054688.0024-.024046.009-.057416.01758-.099609.007-.034426.01416-.065755.02344-.095703.01125-.036317.0226-.064704.0332-.089844.01394-.033083.02785-.063594.04102-.087891.01491-.027506.02997-.054072.04883-.082031.01776-.026335.03843-.05367.05859-.078125.02319-.028125.0454-.051258.06445-.070312.01905-.019046.04407-.041201.07227-.064453.02445-.02016.04983-.040829.07617-.058594.02793-.018838.05455-.033935.08203-.048828.02421-.01312.05472-.028984.08789-.042969.02521-.010628.05355-.020008.08984-.03125.02993-.00927.0613-.018387.0957-.025391.04224-.0086.07552-.013193.09961-.015625.02908-.00293.06481-.00391.105469-.00391h4c.09774 0 .198765-.00492.304687-.015625.110784-.011177.210656-.028924.298828-.046875.09606-.019555.191665-.042703.28711-.072266.08907-.02759.182813-.061713.277343-.1015625.08655-.036484.174492-.076675.263672-.125.08592-.046557.167704-.097519.246094-.1503906.07998-.053947.158151-.1106319.232422-.171875.07051-.058145.141547-.1220174.21289-.1933594.0714-.071391.135252-.1443794.19336-.2148437.0612-.074221.117912-.1504689.171875-.2304688.05288-.078407.103855-.1602241.15039-.2460937.04836-.089231.09047-.1771226.126954-.2636719.03979-.09441.07199-.1881645.09961-.2773438.02956-.095452.05467-.1911042.07422-.2871093.01797-.088235.03375-.1880789.04492-.2988282.01064-.105435.01563-.2065568.01563-.3046875v-1-1.9999999c0-1.94784914-1.403845-3.5885027-3.263672-3.9335938-.239456-.044413-.485381-.066406-.736328-.066406zm2.36914 1.86718745a1.0001 1.0001 0 0 0 .296875.16015625l-.292969.005859c.930348.17262644 1.626954.970039 1.626954 1.9667973v1.9999999 1c0 .040369-.000944.074157-.0039.1035157-.0024.024045-.009.057414-.01758.099609-.007.034424-.01416.065751-.02344.095703-.01122.036225-.02254.066489-.0332.091797-.01398.033169-.02793.06375-.04102.087891-.0149.027503-.03192.052119-.05078.080078-.01779.026367-.03646.053644-.05664.078125-.02328.028236-.04547.053283-.06445.072266-.01903.019033-.04408.04121-.07227.064453-.02443.020146-.04979.038846-.07617.056641-.02798.01887-.05457.033949-.08203.048828a1.0001 1.0001 0 0 0 0 .00195c-.02419.013109-.05472.027031-.08789.041016-.02519.010618-.05547.021951-.0918.033203-.02996.00928-.05937.016438-.09375.023437-.04226.0086-.07559.013202-.09961.015625a1.0001 1.0001 0 0 0 -.002 0c-.02887.00292-.06276.00586-.103515.00586h-4c-.09784 0-.198964.00301-.304688.013672-.110704.011176-.210628.02892-.298828.046875-.09603.01955-.19359.044647-.289063.074219-.08911.027598-.180883.05977-.27539.099609-.08654.036483-.174504.078637-.263672.1269532-.08589.04654-.167661.095533-.246094.1484375-.08003.053975-.15817.1126005-.232422.1738281-.0705.058136-.141557.1220309-.21289.1933594-.07132.071319-.135169.1423137-.19336.2128906-.06122.074246-.119849.1504354-.173828.2304687-.05288.078407-.101904.1621811-.148437.2480469-.04826.089075-.09044.1770367-.126953.2636719-.03988.094578-.07202.1863039-.09961.2753906-.02956.095455-.05467.1911076-.07422.2871094-.01797.088236-.03375.18808-.04492.2988281-.01064.1054349-.01563.2085099-.01563.3066407v1c-1.125282 0-2-.8747184-2-2v-1.9999978c0-1.1252816.874718-2 2-2h1 4a1.0001 1.0001 0 0 0 1-.9999999v-1a1.0001 1.0001 0 0 0 -1-1.0000001h-2.59375c.348803-.5653469.864125-.99999995 1.59375-.99999995h2c.128424 0 .252946.0109278.373046.0332031z" fill="#347cce"/><path d="m18.478368-.88738c-1.661991 0-3 1.3380083-3 3h4v1h-4-1c-1.661992 0-3 1.3380085-3 3v2c0 1.6619915 1.338008 3 3 3h1v-2c0-.06925.003-.1376811.0098-.2050781s.01797-.134004.03125-.1992188c.01328-.065214.02941-.1287045.04883-.1914062.01942-.062702.04117-.1237345.06641-.1835938.02523-.059859.05327-.1190951.08398-.1757812.03072-.056686.06374-.1108793.09961-.1640625.03587-.053184.07454-.1049464.115234-.1542969.04069-.049351.08372-.097391.128907-.1425781.04519-.045187.09323-.088212.142578-.1289063.04935-.040694.101113-.079364.154297-.1152343.05318-.035871.107376-.068892.164062-.099609.05669-.030718.115922-.05875.175781-.083984.05986-.025234.120892-.046986.183594-.066406.0627-.019421.126192-.035551.191406-.048828.06522-.013277.131822-.024446.199219-.03125.0674-.0068.135829-.00977.205078-.00977h4c.06925 0 .137681-.00296.205078-.00977.0674-.0068.134004-.017973.199219-.03125.06522-.013277.128704-.029407.191406-.048828.0627-.019421.123735-.041172.183594-.066406.05986-.025234.119095-.053267.175781-.083984.05669-.030718.110879-.063738.164063-.099609.05318-.035871.104946-.07454.154297-.1152344.04935-.040694.09739-.083719.142578-.1289063.04519-.045187.08821-.093228.128906-.1425781.04069-.049351.07936-.1011134.115234-.1542969.03587-.053183.06889-.107376.09961-.1640625.03072-.056686.05875-.115922.08398-.1757812.02523-.059859.04699-.1208917.06641-.1835938.01942-.062702.03555-.1261916.04883-.1914062.01328-.065215.02445-.1318214.03125-.1992188.0068-.067397.0098-.1358283.0098-.2050781v-1-2c0-1.47230514-1.050223-2.69035991-2.445312-2.94921875-.0509.0114969-.101071.0237863-.150391.0390625.04932-.0152762.09949-.0275656.150391-.0390625-.179778-.033344-.365041-.0507747-.554727-.0507747z" fill="#6bb1ff" stroke-width="2"/></g><g><path d="m23.478516 2.1132813a1.0001 1.0001 0 0 0 -1 1v1.9999999c0 .040369-.0029.074157-.0059.1035157-.0024.024046-.007.057416-.01563.099609-.007.034426-.01416.065755-.02344.095703-.01125.036317-.0226.066657-.0332.091797-.01394.033083-.02785.063593-.04102.087891-.01491.027506-.03192.052119-.05078.080078-.01776.026335-.03648.05367-.05664.078125-.02319.028125-.0454.053211-.06445.072266-.01905.019046-.04407.041201-.07227.064453-.02445.02016-.04983.038876-.07617.056641-.02793.018838-.05455.035888-.08203.050781-.02421.01312-.05472.027031-.08789.041016-.02521.010628-.0555.021961-.0918.033203-.02993.00927-.05935.016434-.09375.023437-.04224.0086-.07747.013193-.101563.015625-.02875.00284-.06361.00586-.103515.00586h-4c-.09775 0-.200719.00297-.306641.013672-.109933.011182-.209265.029039-.296875.046875-.09606.019555-.193618.044656-.289063.074219-.08907.02759-.18086.059759-.27539.099609-.08655.036484-.174492.078628-.263672.1269532-.08592.046557-.167704.095566-.246094.1484375-.07998.053947-.158151.112585-.232422.1738281-.07051.058145-.141547.1220174-.21289.1933594-.0714.071391-.135252.1424263-.19336.2128906-.06119.074221-.119865.1504689-.173828.2304687-.05288.078407-.101902.1621773-.148437.2480469-.04836.089231-.09047.1771226-.126953.2636719-.03979.09441-.07199.1862114-.09961.2753906-.02956.095452-.05467.1930574-.07422.2890625-.01797.088235-.0357.1861258-.04687.296875-.01064.1054351-.01367.20851-.01367.3066407v1 2c0 1.94785 1.401891 3.58655 3.261718 3.931641a1.0001 1.0001 0 0 0 .002 0c.239445.04441.485384.06836.736329.06836h2c2.198697 0 4-1.801301 4-4 2.198698 0 4-1.801302 4-4v-2.0000018c0-2.1986976-1.801302-3.9999999-4-3.9999999zm1 1.9999999c1.125282 0 2 .8747191 2 2v2.0000001c0 1.1252816-.874718 1.9999997-2 1.9999997h-1-4a1.0001 1.0001 0 0 0 -1 1v1a1.0001 1.0001 0 0 0 1 1h2.59375c-.348804.565347-.864125 1-1.59375 1h-2c-.128427 0-.252936-.01288-.373047-.03516l.002.06836a1.0001 1.0001 0 0 0 -.267578-.0625l.265625-.0059c-.930348-.172626-1.626953-.968084-1.626953-1.964844v-2-.9999997c0-.040369.000944-.07611.0039-.1054688.0024-.024045.009-.057414.01758-.099609.007-.034424.01416-.065751.02344-.095703.01122-.036225.02254-.064536.0332-.089844.01398-.033169.02793-.06375.04102-.087891.0149-.027503.02997-.054072.04883-.082031.01779-.026367.03841-.053644.05859-.078125.02328-.028236.04547-.05133.06445-.070312.01903-.019033.04408-.04121.07227-.064453.02443-.020146.04979-.040799.07617-.058594.02798-.01887.05457-.033949.08203-.048828.02419-.013109.05472-.028984.08789-.042969.02519-.010618.05352-.019998.08984-.03125.02996-.00928.06132-.018391.0957-.025391.04226-.0086.07559-.013202.09961-.015625.02887-.00292.06471-.00391.105469-.00391h4c.09784 0 .198964-.00496.304687-.015625.110704-.011176.210628-.02892.298828-.046875.09603-.019551.191637-.042694.28711-.072266.08911-.027598.182836-.061723.277343-.1015625.08654-.036483.174505-.076684.263672-.125.08589-.04654.167662-.097486.246094-.1503906.08003-.053975.158171-.1106474.232422-.171875.0705-.058136.141557-.1220309.21289-.1933594.07132-.071319.135169-.1442668.19336-.2148437.06122-.074246.117896-.1504355.171875-.2304688.05288-.078407.103857-.1602279.15039-.2460937.04826-.089075.09044-.1770367.126954-.2636719.03988-.094578.07202-.188257.09961-.2773438.02956-.095455.05467-.1911075.07422-.2871093.01797-.088236.03375-.18808.04492-.2988282.01064-.1054348.01563-.2065567.01563-.3046875z" fill="#f7b656"/><path d="m20.478368 15.11262c1.661991 0 3-1.338008 3-3h-4v-1h4 1c1.661992 0 3-1.3380085 3-3v-2c0-1.661991-1.338008-3-3-3h-1v2c0 .06925-.003.1376811-.0098.2050781s-.01797.134004-.03125.1992188c-.01328.065214-.02941.1287045-.04883.1914062-.01942.062702-.04117.1237345-.06641.1835938-.02523.059859-.05327.1190951-.08398.1757812-.03072.056686-.06374.1108793-.09961.1640625-.03587.053184-.07454.1049464-.115234.1542969-.04069.049351-.08372.097391-.128907.1425781-.04519.045187-.09323.088212-.142578.1289063-.04935.040694-.101113.079364-.154297.1152343-.05318.035871-.107376.068892-.164062.099609-.05669.030718-.115922.05875-.175781.083984-.05986.025234-.120892.046986-.183594.066406-.0627.019421-.126192.035551-.191406.048828-.06522.013277-.131822.024446-.199219.03125-.0674.0068-.135829.00977-.205078.00977h-4c-.06925 0-.137681.00296-.205078.00977-.0674.0068-.134004.017973-.199219.03125-.06522.013277-.128704.029407-.191406.048828-.0627.019421-.123735.041172-.183594.066406-.05986.025234-.119095.053267-.175781.083984-.05669.030718-.110879.063738-.164063.099609-.05318.035871-.104946.07454-.154297.1152344-.04935.040694-.09739.083719-.142578.1289063-.04519.045187-.08821.093228-.128906.1425781-.04069.049351-.07936.1011134-.115234.1542969-.03587.053183-.06889.107376-.09961.1640625-.03072.056686-.05875.115922-.08398.1757812-.02523.059859-.04699.1208917-.06641.1835938-.01942.062702-.03555.1261916-.04883.1914062-.01328.065215-.02445.1318214-.03125.1992188-.0068.067397-.0098.1358283-.0098.2050781v1.0000005 1.999999c0 1.472306 1.050223 2.69036 2.445312 2.949219.0509-.0115.101071-.02379.150391-.03906-.04932.01528-.09949.02756-.150391.03906.179778.03334.365041.05077.554727.05077z" fill="#ffeba0" stroke-width="2"/></g></g></svg>