<svg height="32" viewBox="0 0 32 32" width="32" xmlns="http://www.w3.org/2000/svg"><g transform="translate(0 -282.64999)"><g transform="translate(28 -.00002)"><path d="m-22.999999 283.65001h21.9999988c1.108 0 2 .89202 2 2.00001v26.00001c0 1.10797-.892 1.99998-2 1.99998h-21.9999988c-1.108 0-2-.89201-2-1.99998v-26c0-1.108.892-2 2-2.00002z" fill="#36404d"/><path d="m-22.999999 284.65003h21.9999988c.554 0 1 .44599 1 1v26c0 .55401-.446 1-1 1h-21.9999988c-.554 0-1-.44599-1-1v-26c0-.55399.446-1 1-1z" fill="#4b6477"/></g><path d="m6 286.64999h5v2h-5z" fill="#fff"/><path d="m12 286.64999h2v2h-2z" fill="#ff778a"/><path d="m15 286.64999h5v2h-5z" fill="#fbebee"/><path d="m21 286.64999h2v2h-2z" fill="#ff778a"/><path d="m6 289.64999h8v2h-8z" fill="#fbebee"/><path d="m15 289.64999h2v2h-2z" fill="#ff778a"/><path d="m18 289.64999h5v2h-5z" fill="#fff"/><path d="m6 292.64999h2v2h-2z" fill="#fff"/><path d="m9 292.64999h2v2h-2z" fill="#ff778a"/><path d="m12 292.64999h5v2h-5z" fill="#fbebee"/><path d="m18 292.64999h2v2h-2z" fill="#fbebee"/><path d="m21 292.64999h2v2h-2z" fill="#fff"/><path d="m6 295.64999h5v2h-5z" fill="#fbebee"/><path d="m6 298.64999h2v2h-2z" fill="#fbebee"/><path d="m9 298.64999h5v2h-5z" fill="#ff778a"/><path d="m6 301.64999h5v2h-5z" fill="#fff"/><path d="m6 304.64999h2v2h-2z" fill="#ff778a"/><path d="m13 304.64999h2v2h-2z" fill="#fff"/><path d="m9 304.64999h3v2h-3z" fill="#fbebee"/><path d="m6 307.64999h5v2h-5z" fill="#fbebee"/><path d="m12 307.64999h3v2h-3z" fill="#ff778a"/><path d="m12 301.64999h2v2h-2z" fill="#fbebee"/><path d="m12 295.64999h2v2h-2z" fill="#fff"/><path d="m15 295.64999h5v2h-5z" fill="#ff778a"/><path d="m17 301.64999v2l9 1v-2z" fill="#dd4f66"/><path d="m17 304.64999v2l9 1v-2z" fill="#dd4f66"/><g fill="#ff778a" stroke-linecap="round" stroke-linejoin="round" stroke-miterlimit="1.8" stroke-width="4"><path d="m17 307.64999 9-1v3l-9 1z"/><path d="m17 303.64999 9-1v3l-9 1z"/><path d="m17 299.64999 9-1v3l-9 1z"/></g></g></svg>