<svg height="32" viewBox="0 0 32 32" width="32" xmlns="http://www.w3.org/2000/svg"><g transform="translate(4 -285.27499)"><path d="m1 286.27499h21.999999c1.108 0 2 .892 2 2v26c0 1.108-.892 2-2 2h-21.999999c-1.108 0-2-.892-2-2v-26c0-1.108.892-2 2-2z" fill="#6e7cd4"/><path d="m1 287.27499h21.999999c.554 0 1 .446 1 1v26c0 .554-.446 1-1 1h-21.999999c-.554 0-1-.446-1-1v-26c0-.554.446-1 1-1z" fill="#93a0e6"/><g fill="#f0f2fb"><path d="m4 294.27499v2h16v-2zm0 4v2h5.9999995v-2zm0 4v2h5.9999995v-2zm0 4v2h5.9999995v-2z" opacity=".98"/><path d="m12 306.27499 3-3-3-3v-2h8v3h-2v-1h-3l3 3-3 3h3v-1h2v3h-8z"/></g></g></svg>