<svg height="32" viewBox="0 0 32 32" width="32" xmlns="http://www.w3.org/2000/svg"><g transform="translate(28 -276.39999)"><path d="m-23 277.39999h21.999999c1.108 0 2 .892 2 2v26c0 1.108-.892 2-2 2h-21.999999c-1.108 0-2-.892-2-2v-26c0-1.108.892-2 2-2z" fill="#da4452"/><path d="m-23 278.39999h21.999999c.554 0 1 .446 1 1v26c0 .554-.446 1-1 1h-21.999999c-.554 0-1-.446-1-1v-26c0-.554.446-1 1-1z" fill="#f86c82"/></g><path d="m8.7764189 285.35212v.79375l2.1166671.00001v-.79375zm-.5291667.26458v.79375h-.1322916c-.07329 0-.1322917.059-.1322917.1323v1.32291c0 .0733.059002.13229.1322917.13229h.396875v-.79375l2.6458334.00001v.79375h.396875c.07329 0 .132292-.059.132292-.13229v-1.32292c0-.0733-.059-.13229-.132292-.13229h-.132292v-.79375h-.264583v.79375l-2.6458334-.00001v-.79375zm.5291667 1.85209v1.05833l2.1166671.00001v-1.05834z" fill="#feeef1" opacity=".99" transform="matrix(3.7795276 0 0 3.7795276 -21.17071768066 -1067.4962257486)"/></svg>