<svg height="32" viewBox="0 0 32 32" width="32" xmlns="http://www.w3.org/2000/svg"><g transform="translate(0 -282.64999)"><path d="m-21 1021.3622h21.999999c1.108 0 2 .892 2 2v26c0 1.108-.892 2-2 2h-21.999999c-1.108 0-2-.892-2-2v-26c0-1.108.892-2 2-2z" fill="#dd4f66" transform="translate(26 -737.71221)"/><path d="m-21 1022.3622h21.999999c.554 0 1 .446 1 1v26c0 .554-.446 1-1 1h-21.999999c-.554 0-1-.446-1-1v-26c0-.554.446-1 1-1z" fill="#ff778a" transform="translate(26 -737.71221)"/><path d="m9 290.64999c-.553993 0-1 .44599-1 1v14c0 .55396.446007 1 1 1h14c.553993 0 1-.44603 1-1v-7-7c0-.55401-.446007-.99999-1-1zm0 1h14v5 2 2 3 2h-14v-2-3-2-2z" fill="#fbebee"/><path d="m9 299.14986h2l1-2 2 6 2-4h2l1-4 2 6 1-2h1" fill="none" stroke="#fbebee" stroke-linecap="round" stroke-linejoin="round" stroke-miterlimit="1.8"/></g></svg>