<svg height="32" viewBox="0 0 32 32" width="32" xmlns="http://www.w3.org/2000/svg"><g transform="translate(4 -285.27499)"><g transform="matrix(3.7795275 0 0 3.7795275 18 -805.2445)"><path d="m1.0583332 290.91458h.5291667c.1465791 0 .2645833.118.2645833.26458v1.32292c0 .14658-.1180042.26458-.2645833.26458h-.5291667c-.14657922 0-.26458332-.118-.26458332-.26458v-1.32292c0-.14658.1180041-.26458.26458332-.26458z" fill="#287bc2" opacity=".98"/><path d="m1.0583332 289.06249h.5291667c.1465791 0 .2645833.11801.2645833.26459v1.32291c0 .14658-.1180042.26459-.2645833.26459h-.5291667c-.14657922 0-.26458332-.11801-.26458332-.26459v-1.32291c0-.14658.1180041-.26459.26458332-.26459z" fill="#d72f4a" opacity=".98"/><path d="m1.0583332 289.32708h.5291667v1.32291h-.5291667z" fill="#ff778a" opacity=".98"/><path d="m1.0583332 291.17916h.5291667v1.32292h-.5291667z" fill="#78c1ff" opacity=".98"/><path d="m1.0583332 292.76666h.5291667c.1465791 0 .2645833.118.2645833.26458v1.32292c0 .14658-.1180042.26458-.2645833.26458h-.5291667c-.14657922 0-.26458332-.118-.26458332-.26458v-1.32292c0-.14658.1180041-.26458.26458332-.26458z" fill="#60963f" opacity=".98"/><path d="m1.0583332 293.03124h.5291667v1.32292h-.5291667z" fill="#a0d580" opacity=".98"/><path d="m1.0583332 294.61874h.5291667c.1465791 0 .2645833.11801.2645833.26459v1.32291c0 .14658-.1180042.26459-.2645833.26459h-.5291667c-.14657922 0-.26458332-.11801-.26458332-.26459v-1.32291c0-.14658.1180041-.26459.26458332-.26459z" fill="#957adc" opacity=".98"/><path d="m1.0583332 294.88333h.5291667v1.32291h-.5291667z" fill="#b3a4ee" opacity=".98"/></g><path d="m1 286.27499h19.999999c1.108 0 2 .892 2 2v26c0 1.108-.892 2-2 2h-19.999999c-1.108 0-2-.892-2-2v-26c0-1.108.892-2 2-2z" fill="#d68d5c"/><path d="m1 287.27499h19.999999c.554 0 1 .446 1 1v26c0 .554-.446 1-1 1h-19.999999c-.554 0-1-.446-1-1v-26c0-.554.446-1 1-1z" fill="#efc7a5"/><path d="m11 295.27499c-1.662 0-3.0000004 1.33799-3.0000004 3s1.3380004 3 3.0000004 3 3-1.33799 3-3-1.338-3-3-3zm0 6.99999c-2.7614245 0-5.0000005 2.23858-5.0000005 5.00001 3.2163525 1.24777 6.5338565 1.41664 10.0000005 0 0-2.76143-2.238576-5.00001-5-5.00001z" fill="#d68d5c" opacity=".98"/></g></svg>