<?xml version="1.0" encoding="UTF-8" standalone="no"?>
<!-- Created with Inkscape (http://www.inkscape.org/) -->

<svg
   width="48"
   height="48"
   viewBox="0 0 48 48"
   version="1.1"
   id="svg1"
   inkscape:version="1.3.2 (091e20ef0f, 2023-11-25, custom)"
   sodipodi:docname="elisa48.svg"
   xmlns:inkscape="http://www.inkscape.org/namespaces/inkscape"
   xmlns:sodipodi="http://sodipodi.sourceforge.net/DTD/sodipodi-0.dtd"
   xmlns="http://www.w3.org/2000/svg"
   xmlns:svg="http://www.w3.org/2000/svg">
  <sodipodi:namedview
     id="namedview1"
     pagecolor="#ffffff"
     bordercolor="#000000"
     borderopacity="0.25"
     inkscape:showpageshadow="false"
     inkscape:pageopacity="0.0"
     inkscape:pagecheckerboard="true"
     inkscape:deskcolor="#d1d1d1"
     inkscape:document-units="px"
     inkscape:zoom="5.8054181"
     inkscape:cx="51.761991"
     inkscape:cy="58.049221"
     inkscape:window-width="2560"
     inkscape:window-height="1356"
     inkscape:window-x="0"
     inkscape:window-y="0"
     inkscape:window-maximized="1"
     inkscape:current-layer="layer1" />
  <defs
     id="defs1" />
  <g
     inkscape:label="Capa 1"
     inkscape:groupmode="layer"
     id="layer1">
    <g
       id="g1"
       transform="translate(-36,-47.000002)">
      <path
         id="rect30-3"
         style="fill:#353641;stroke-width:2;stroke-linecap:round;stroke-linejoin:round;paint-order:stroke fill markers"
         d="M 39.000003,52 H 81 c 1.662,0 3,1.338001 3,3.000003 v 31.999998 c 0,1.662002 -1.338,3.000003 -3,3.000003 H 39.000003 C 37.338001,90.000004 36,88.662003 36,87.000001 V 55.000003 C 36,53.338001 37.338001,52 39.000003,52 Z" />
      <path
         id="rect30"
         style="fill:#545665;stroke-width:2;stroke-linecap:round;stroke-linejoin:round;paint-order:stroke fill markers"
         d="M 39.000003,53 H 80.8821 c 1.108,0 2,0.892001 2,2.000003 v 32.000002 c 0,1.108002 -0.892,2.000003 -2,2.000003 H 39.000003 C 37.892001,89.000008 37,88.108007 37,87.000005 V 55.000003 C 37,53.892001 37.892001,53 39.000003,53 Z" />
      <path
         id="rect20-6"
         style="fill:#353641;stroke-width:2;stroke-linecap:round;stroke-linejoin:round;paint-order:stroke fill markers"
         d="M 41.000003,57 H 79 c 0.554,0 1,0.446001 1,1.000003 V 78.999997 C 80,79.553999 79.554,80 79,80 H 41.000003 C 40.446001,80 40,79.553999 40,78.999997 V 58.000003 C 40,57.446001 40.446001,57 41.000003,57 Z" />
      <path
         id="rect23-0"
         style="fill:#4db6ac;stroke-width:2;stroke-linecap:round;stroke-linejoin:round;paint-order:stroke fill markers"
         d="M 41,58 H 79 V 79 H 41 Z" />
      <path
         id="rect23-0-6"
         style="fill:#fdfbfc;stroke-width:2;stroke-linecap:round;stroke-linejoin:round;paint-order:stroke fill markers"
         d="M 41,58.000001 H 79 V 69.000003 H 41 Z" />
      <path
         id="rect24-2-6"
         style="fill:#353641;stroke-width:2;stroke-linecap:round;stroke-linejoin:round;paint-order:stroke fill markers"
         d="m 49,63.000003 h 22 c 3.324,0 6,2.676 6,6 0,3.324 -2.676,6 -6,6 H 49 c -3.324,0 -6,-2.676 -6,-6 0,-3.324 2.676,-6 6,-6 z" />
      <path
         id="rect24-2"
         style="fill:#545665;stroke-width:2;stroke-linecap:round;stroke-linejoin:round;paint-order:stroke fill markers"
         d="m 49,64.000005 h 22 c 2.77,0 5,2.229999 5,4.999998 0,2.77 -2.23,4.999999 -5,4.999999 H 49 c -2.77,0 -5,-2.229999 -5,-4.999999 0,-2.769999 2.23,-4.999998 5,-4.999998 z" />
      <path
         id="rect26-1"
         style="fill:#353641;stroke-width:2;stroke-linecap:round;stroke-linejoin:round;paint-order:stroke fill markers"
         d="m 49,65.000003 c 2.216,0 4,1.784 4,4 0,2.216 -1.784,4 -4,4 -2.216,0 -4,-1.784 -4,-4 0,-2.216 1.784,-4 4,-4 z" />
      <path
         id="rect26-0-8"
         style="fill:#353641;stroke-width:2;stroke-linecap:round;stroke-linejoin:round;paint-order:stroke fill markers"
         d="m 71,65.000003 c 2.216,0 4,1.784 4,4 0,2.216 -1.784,4 -4,4 -2.216,0 -4,-1.784 -4,-4 0,-2.216 1.784,-4 4,-4 z" />
      <path
         id="rect27-7"
         style="fill:#353641;stroke-width:2;stroke-linecap:round;stroke-linejoin:round;paint-order:stroke fill markers"
         d="m 54,65.000003 h 12 v 8 H 54 Z" />
      <path
         id="rect28-9-9"
         style="fill:#dbe2e3;fill-opacity:1;stroke-width:2;stroke-linecap:round;stroke-linejoin:round;paint-order:stroke fill markers"
         d="m 55,65.999999 h 10 v 6.000004 H 55 Z" />
      <path
         id="path37"
         style="fill:#898d96;fill-opacity:1;stroke-width:2;stroke-linecap:round;stroke-linejoin:round;paint-order:stroke fill markers"
         d="m 58.33008,72.000003 c 0.42966,-0.908636 0.66992,-1.924657 0.66992,-3 0,-1.075343 -0.24026,-2.091364 -0.66992,-3 H 55 v 6 z" />
      <path
         id="rect29-2"
         style="fill:#dbe2e3;fill-opacity:1;stroke-width:1.987;stroke-linecap:round;stroke-linejoin:round;paint-order:stroke fill markers"
         d="m 71,65.999999 c 1.662,0 3,1.338002 3,3.000004 0,1.662001 -1.338,3.000003 -3,3.000003 -1.662,0 -3,-1.338002 -3,-3.000003 0,-1.662002 1.338,-3.000004 3,-3.000004 z" />
      <path
         id="rect29-2-2"
         style="fill:#dbe2e3;fill-opacity:1;stroke-width:1.987;stroke-linecap:round;stroke-linejoin:round;paint-order:stroke fill markers"
         d="m 49,65.999999 c 1.662,0 3,1.338002 3,3.000004 0,1.662001 -1.338,3.000003 -3,3.000003 -1.662,0 -3,-1.338002 -3,-3.000003 0,-1.662002 1.338,-3.000004 3,-3.000004 z" />
      <path
         id="rect21-3"
         style="fill:#353641;stroke-width:2;stroke-linecap:round;stroke-linejoin:round;paint-order:stroke fill markers"
         d="m 44,81.000003 h 32 v 8.000004 H 44 Z" />
      <path
         id="rect22-7"
         style="fill:#545665;stroke-width:2;stroke-linecap:round;stroke-linejoin:round;paint-order:stroke fill markers"
         d="m 45,82.000003 h 30 v 7 H 45 Z" />
      <path
         id="rect31"
         style="fill:#353641;stroke-width:2.00344;stroke-linecap:round;stroke-linejoin:round;paint-order:stroke fill markers"
         d="m 48.5,83.000003 c 1.385,0 2.5,1.115 2.5,2.5 0,1.385 -1.115,2.5 -2.5,2.5 -1.385,0 -2.5,-1.115 -2.5,-2.5 0,-1.385 1.115,-2.5 2.5,-2.5 z" />
      <path
         id="rect31-5"
         style="fill:#353641;stroke-width:2.00344;stroke-linecap:round;stroke-linejoin:round;paint-order:stroke fill markers"
         d="m 71.5,83.000003 c 1.385,0 2.5,1.115 2.5,2.5 0,1.385 -1.115,2.5 -2.5,2.5 -1.385,0 -2.5,-1.115 -2.5,-2.5 0,-1.385 1.115,-2.5 2.5,-2.5 z" />
      <path
         id="rect32"
         style="fill:#fdfbfc;stroke-width:2;stroke-linecap:round;stroke-linejoin:round;paint-order:stroke fill markers"
         d="m 48.5,84.000003 c 0.831,0 1.5,0.669 1.5,1.5 0,0.831 -0.669,1.5 -1.5,1.5 -0.831,0 -1.5,-0.669 -1.5,-1.5 0,-0.831 0.669,-1.5 1.5,-1.5 z" />
      <path
         id="rect33"
         style="fill:#fdfbfc;stroke-width:2;stroke-linecap:round;stroke-linejoin:round;paint-order:stroke fill markers"
         d="m 71.5,84.000003 c 0.831,0 1.5,0.669 1.5,1.5 0,0.831 -0.669,1.5 -1.5,1.5 -0.831,0 -1.5,-0.669 -1.5,-1.5 0,-0.831 0.669,-1.5 1.5,-1.5 z" />
      <path
         id="rect34"
         style="fill:#353641;stroke-width:2;stroke-linecap:round;stroke-linejoin:round;paint-order:stroke fill markers"
         d="m 52,83.000003 h 16 v 1 H 52 Z" />
      <path
         id="rect35"
         style="fill:#353641;stroke-width:2;stroke-linecap:round;stroke-linejoin:round;paint-order:stroke fill markers"
         d="m 52,85.000003 h 16 v 1 H 52 Z" />
      <path
         id="rect36"
         style="fill:#353641;stroke-width:2;stroke-linecap:round;stroke-linejoin:round;paint-order:stroke fill markers"
         d="m 52,87.000003 h 16 v 1 H 52 Z" />
    </g>
  </g>
</svg>
