<?xml version="1.0" encoding="UTF-8" standalone="no"?>
<!-- Created with Inkscape (http://www.inkscape.org/) -->

<svg
   width="48"
   height="48"
   viewBox="0 0 12.7 12.7"
   version="1.1"
   id="svg5"
   inkscape:version="1.2.2 (b0a8486541, 2022-12-01)"
   sodipodi:docname="libreoffice-calc.svg"
   xmlns:inkscape="http://www.inkscape.org/namespaces/inkscape"
   xmlns:sodipodi="http://sodipodi.sourceforge.net/DTD/sodipodi-0.dtd"
   xmlns="http://www.w3.org/2000/svg"
   xmlns:svg="http://www.w3.org/2000/svg">
  <sodipodi:namedview
     id="namedview7"
     pagecolor="#ffffff"
     bordercolor="#9c9c9c"
     borderopacity="0.24705882"
     inkscape:showpageshadow="false"
     inkscape:pageopacity="0.0"
     inkscape:pagecheckerboard="0"
     inkscape:deskcolor="#5e5e5e"
     inkscape:document-units="px"
     showgrid="true"
     inkscape:zoom="5.1754899"
     inkscape:cx="90.619441"
     inkscape:cy="49.850353"
     inkscape:window-width="2560"
     inkscape:window-height="1363"
     inkscape:window-x="0"
     inkscape:window-y="0"
     inkscape:window-maximized="1"
     inkscape:current-layer="layer1">
    <inkscape:grid
       type="xygrid"
       id="grid132"
       originx="0"
       originy="0" />
  </sodipodi:namedview>
  <defs
     id="defs2" />
  <g
     inkscape:label="Capa 1"
     inkscape:groupmode="layer"
     id="layer1">
    <g
       id="g22003"
       transform="translate(-14.552091,-5.291667)">
      <path
         id="path2529"
         style="color:#000000;fill:#30a86d;fill-opacity:1;stroke-width:0.264583;stroke-linecap:round;stroke-linejoin:round;-inkscape-stroke:none"
         d="m 16.66875,5.820834 c -0.43516,0 -0.79375,0.3585897 -0.79375,0.7937499 V 16.66875 c 0,0.435161 0.358591,0.79375 0.79375,0.79375 h 8.466666 c 0.435158,0 0.79375,-0.358589 0.79375,-0.79375 v -5.820833 c 2.5e-5,-0.06765 -0.02586,-0.132744 -0.07235,-0.181901 L 21.358902,5.9035162 c -0.04999,-0.052806 -0.119518,-0.082706 -0.192236,-0.082682 z m 5.820833,0 c -0.230406,2.645e-4 -0.350418,0.2744443 -0.194303,0.4438993 l 3.174999,3.4395833 c 0.16335,0.1766491 0.458582,0.061283 0.458887,-0.179316 V 6.6145839 c 0,0 0.0036,-0.1875234 -0.09405,-0.3829235 -0.0977,-0.1953948 -0.346923,-0.4108264 -0.6997,-0.4108264 z"
         sodipodi:nodetypes="ssssssccccscccccssc" />
      <path
         id="path2533"
         style="color:#000000;fill:#53d18a;fill-opacity:1;stroke-width:0.529167;stroke-linecap:round;stroke-linejoin:round;-inkscape-stroke:none"
         d="m 16.66875,6.0854173 c -0.293158,0 -0.529167,0.2360083 -0.529167,0.5291666 V 16.66875 c 0,0.293159 0.236009,0.529167 0.529167,0.529167 h 8.466666 c 0.293158,0 0.529167,-0.236008 0.529167,-0.529167 V 10.847917 L 21.166666,6.0854173 Z m 5.820833,0 3.175,3.4395833 V 6.6145839 c 0,0 -1e-6,-0.5291666 -0.529167,-0.5291666 z" />
      <g
         id="g4963"
         transform="matrix(0.26458333,0,0,0.26458333,24.341666,-62.349058)"
         style="fill:#cff2df;fill-opacity:1">
        <path
           id="rect3199"
           d="m -26,265.64999 v 1 4 5 1 4 1 4 1 4 1 5 h 14 2 4 1 5 v -1 -20 h -5 v -1 -4 h -5 v -5 h -15 z m 1,1 h 4 v 4 h -4 z m 5,0 h 4 v 4 h -4 z m 5,0 h 4 v 4 h -4 z m -10,5 h 4 v 4 h -4 z m 5,0 h 4 v 4 h -4 z m 5,0 h 4 v 4 h -4 z m 5,0 h 4 v 4 h -4 z m -15,5 h 4 v 4 h -4 z m 5,0 h 4 v 4 h -4 z m 5,0 h 4 v 4 h -4 z m 5,0 h 4 v 4 h -4 z m 5,0 h 4 v 4 h -4 z m -20,5 h 4 v 4 h -4 z m 5,0 h 4 v 4 h -4 z m 5,0 h 4 v 4 h -4 z m 5,0 h 4 v 4 h -4 z m 5,0 h 4 v 4 h -4 z m -20,5 h 4 v 4 h -4 z m 5,0 h 4 v 4 h -4 z m 5,0 h 4 v 4 h -4 z m 5,0 h 4 v 4 h -4 z m 5,0 h 4 v 4 h -4 z m -20,5 h 4 v 4 h -4 z m 5,0 h 4 v 4 h -4 z m 5,0 h 4 v 4 h -1 -3 z m 5,0 h 4 v 4 h -4 z m 5,0 h 4 v 4 h -4 z"
           style="opacity:1;vector-effect:none;fill:#cff2df;fill-opacity:1;stroke:none;stroke-width:2;stroke-linecap:round;stroke-linejoin:round;stroke-miterlimit:4;stroke-dasharray:none;stroke-dashoffset:0;stroke-opacity:1"
           inkscape:connector-curvature="0" />
      </g>
    </g>
  </g>
</svg>
