<?xml version="1.0" encoding="UTF-8" standalone="no"?>
<!-- Created with Inkscape (http://www.inkscape.org/) -->

<svg
   width="48"
   height="48"
   viewBox="0 0 12.7 12.7"
   version="1.1"
   id="svg5"
   inkscape:version="1.2.2 (b0a8486541, 2022-12-01)"
   sodipodi:docname="libreoffice-writer.svg"
   xmlns:inkscape="http://www.inkscape.org/namespaces/inkscape"
   xmlns:sodipodi="http://sodipodi.sourceforge.net/DTD/sodipodi-0.dtd"
   xmlns="http://www.w3.org/2000/svg"
   xmlns:svg="http://www.w3.org/2000/svg">
  <sodipodi:namedview
     id="namedview7"
     pagecolor="#ffffff"
     bordercolor="#9c9c9c"
     borderopacity="0.24705882"
     inkscape:showpageshadow="false"
     inkscape:pageopacity="0.0"
     inkscape:pagecheckerboard="0"
     inkscape:deskcolor="#5e5e5e"
     inkscape:document-units="px"
     showgrid="true"
     inkscape:zoom="5.1754899"
     inkscape:cx="90.619441"
     inkscape:cy="49.850353"
     inkscape:window-width="2560"
     inkscape:window-height="1363"
     inkscape:window-x="0"
     inkscape:window-y="0"
     inkscape:window-maximized="1"
     inkscape:current-layer="layer1">
    <inkscape:grid
       type="xygrid"
       id="grid132"
       originx="0"
       originy="0" />
  </sodipodi:namedview>
  <defs
     id="defs2" />
  <g
     inkscape:label="Capa 1"
     inkscape:groupmode="layer"
     id="layer1">
    <g
       id="g7583"
       transform="translate(-15.875008,-13.229167)">
      <path
         id="path2529"
         style="color:#000000;fill:#4a73c6;fill-opacity:1;stroke-width:0.264583;stroke-linecap:round;stroke-linejoin:round;-inkscape-stroke:none"
         d="m 17.991667,13.758334 c -0.43516,0 -0.79375,0.35859 -0.79375,0.79375 V 24.60625 c 0,0.435161 0.358591,0.79375 0.79375,0.79375 h 8.466666 c 0.435158,0 0.79375,-0.358589 0.79375,-0.79375 v -5.820833 c 2.5e-5,-0.06765 -0.02586,-0.132744 -0.07235,-0.181901 l -4.497917,-4.7625 c -0.04999,-0.0528 -0.119518,-0.08271 -0.192236,-0.08268 z m 5.820833,0 c -0.230406,2.65e-4 -0.350418,0.274444 -0.194303,0.443899 l 3.174999,3.439584 c 0.16335,0.176649 0.458582,0.06128 0.458887,-0.179316 v -2.910417 c 0,0 0.0036,-0.187523 -0.09405,-0.382924 -0.0977,-0.195394 -0.346922,-0.410826 -0.699699,-0.410826 z"
         sodipodi:nodetypes="ssssssccccscccccssc" />
      <path
         id="path2533"
         style="color:#000000;fill:#5ca5ff;fill-opacity:1;stroke-width:0.529167;stroke-linecap:round;stroke-linejoin:round;-inkscape-stroke:none"
         d="m 17.991667,14.022917 c -0.293158,0 -0.529167,0.236009 -0.529167,0.529167 V 24.60625 c 0,0.293159 0.236009,0.529167 0.529167,0.529167 h 8.466666 c 0.293158,0 0.529167,-0.236008 0.529167,-0.529167 v -5.820833 l -4.497917,-4.7625 z m 5.820833,0 3.175,3.439584 v -2.910417 c 0,0 -1e-6,-0.529167 -0.529167,-0.529167 z" />
      <path
         id="rect3682"
         d="m 19.314583,18.256251 v 0.79375 h 3.439584 v -0.79375 z m 0,1.5875 v 0.79375 h 5.820834 v -0.79375 z m 0,1.5875 v 0.79375 h 5.820834 v -0.79375 z"
         style="vector-effect:none;fill:#d2e5ff;fill-opacity:1;stroke:none;stroke-width:0.529167;stroke-linecap:round;stroke-linejoin:round;stroke-miterlimit:4;stroke-dasharray:none;stroke-dashoffset:0;stroke-opacity:1"
         inkscape:connector-curvature="0" />
    </g>
  </g>
</svg>
