<?xml version="1.0" encoding="UTF-8" standalone="no"?>
<!-- Created with Inkscape (http://www.inkscape.org/) -->

<svg
   width="48"
   height="48"
   viewBox="0 0 48 48"
   version="1.1"
   id="svg8"
   inkscape:version="1.4.2 (ebf0e940d0, 2025-05-08)"
   sodipodi:docname="preferences-desktop-display.svg"
   xmlns:inkscape="http://www.inkscape.org/namespaces/inkscape"
   xmlns:sodipodi="http://sodipodi.sourceforge.net/DTD/sodipodi-0.dtd"
   xmlns="http://www.w3.org/2000/svg"
   xmlns:svg="http://www.w3.org/2000/svg"
   xmlns:rdf="http://www.w3.org/1999/02/22-rdf-syntax-ns#"
   xmlns:cc="http://creativecommons.org/ns#"
   xmlns:dc="http://purl.org/dc/elements/1.1/">
  <title
     id="title7895">Antu icon Theme</title>
  <defs
     id="defs2" />
  <sodipodi:namedview
     id="base"
     pagecolor="#ffffff"
     bordercolor="#666666"
     borderopacity="1.0"
     inkscape:pageopacity="0.0"
     inkscape:pageshadow="2"
     inkscape:zoom="11.313709"
     inkscape:cx="26.295532"
     inkscape:cy="17.324115"
     inkscape:document-units="px"
     inkscape:current-layer="g6256"
     showgrid="true"
     units="px"
     inkscape:window-width="2560"
     inkscape:window-height="1367"
     inkscape:window-x="0"
     inkscape:window-y="0"
     inkscape:window-maximized="1"
     objecttolerance="10"
     gridtolerance="10"
     guidetolerance="10"
     inkscape:snap-bbox="true"
     inkscape:bbox-paths="true"
     inkscape:bbox-nodes="true"
     inkscape:snap-bbox-edge-midpoints="true"
     inkscape:snap-bbox-midpoints="true"
     inkscape:object-paths="true"
     inkscape:snap-intersection-paths="true"
     inkscape:showpageshadow="2"
     inkscape:pagecheckerboard="0"
     inkscape:deskcolor="#d1d1d1">
    <inkscape:grid
       type="xygrid"
       id="grid7897"
       empspacing="4"
       originx="0"
       originy="0"
       spacingy="1"
       spacingx="1"
       units="px" />
  </sodipodi:namedview>
  <metadata
     id="metadata5">
    <rdf:RDF>
      <cc:Work
         rdf:about="">
        <dc:format>image/svg+xml</dc:format>
        <dc:type
           rdf:resource="http://purl.org/dc/dcmitype/StillImage" />
        <dc:title>Antu icon Theme</dc:title>
      </cc:Work>
    </rdf:RDF>
  </metadata>
  <g
     inkscape:label="Capa 1"
     inkscape:groupmode="layer"
     id="layer1"
     transform="translate(0,-266.64999)">
    <g
       id="g6256"
       transform="translate(12,-6)">
      <g
         id="g1"
         transform="matrix(0.90759401,0,0,0.94949237,1.0204836,15.071475)">
        <path
           sodipodi:nodetypes="ssccssssccssssccsss"
           inkscape:connector-curvature="0"
           id="rect5395"
           d="m 8,307.64999 c -0.554,0 -1,0.446 -1,1 v 4 c 0,0 0,1 -1,1 H 4 c -0.554,0 -1,0.446 -1,1 v 2 c 0,0.554 0.446,1 1,1 h 4 7 4 c 0.554,0 1,-0.446 1,-1 v -2 c 0,-0.554 -0.446,-1 -1,-1 h -2 c 0,0 -1,0.004 -1,-1 v -4 c 0,-0.554 -0.446,-1 -1,-1 z"
           style="opacity:1;vector-effect:none;fill:#a3b7cc;fill-opacity:1;stroke:none;stroke-width:6;stroke-linecap:square;stroke-linejoin:round;stroke-miterlimit:18;stroke-dasharray:none;stroke-dashoffset:0;stroke-opacity:1;paint-order:markers stroke fill" />
        <path
           sodipodi:nodetypes="ccccccccccccc"
           inkscape:connector-curvature="0"
           id="rect5401"
           d="m 8.000287,308.64999 v 4 c 0,0 0.0074,2 -2,2 h -2 v 2 h 4 7 4 v -2 h -2 c 0,0 -2,0.007 -2,-2 v -4 z"
           style="opacity:1;vector-effect:none;fill:#e1ebf2;fill-opacity:1;stroke:none;stroke-width:6;stroke-linecap:square;stroke-linejoin:round;stroke-miterlimit:18;stroke-dasharray:none;stroke-dashoffset:0;stroke-opacity:1;paint-order:markers stroke fill" />
        <path
           id="rect5391"
           d="M -7.9999986,275.64999 H 31.999999 c 1.108,0 2.000001,0.892 2.000001,2 v 30 c 0,1.108 -0.892001,2 -2.000001,2 H -7.9999986 c -1.1080008,0 -2.0000014,-0.892 -2.0000014,-2 v -30 c 0,-1.108 0.8920006,-2 2.0000014,-2 z"
           style="opacity:1;vector-effect:none;fill:#36404d;fill-opacity:1;stroke:none;stroke-width:6;stroke-linecap:square;stroke-linejoin:round;stroke-miterlimit:18;stroke-dasharray:none;stroke-dashoffset:0;stroke-opacity:1;paint-order:markers stroke fill"
           inkscape:connector-curvature="0" />
        <path
           id="rect5393"
           d="m -7,277.64999 h 38 c 0.554,0 1,0.446 1,1 v 28 c 0,0.554 -0.446,1 -1,1 H -7 c -0.554,0 -1,-0.446 -1,-1 v -28 c 0,-0.554 0.446,-1 1,-1 z"
           style="opacity:1;vector-effect:none;fill:#4b6477;fill-opacity:1;stroke:none;stroke-width:6;stroke-linecap:square;stroke-linejoin:round;stroke-miterlimit:18;stroke-dasharray:none;stroke-dashoffset:0;stroke-opacity:1;paint-order:markers stroke fill"
           inkscape:connector-curvature="0" />
        <path
           id="rect5455"
           d="m -2,281.64999 h 6 c 0.554,0 1,0.446 1,1 v 20 c 0,0.554 -0.446,1 -1,1 h -6 c -0.554,0 -1,-0.446 -1,-1 v -20 c 0,-0.554 0.446,-1 1,-1 z"
           style="opacity:1;vector-effect:none;fill:#c74343;fill-opacity:1;stroke:none;stroke-width:6;stroke-linecap:square;stroke-linejoin:round;stroke-miterlimit:18;stroke-dasharray:none;stroke-dashoffset:0;stroke-opacity:1;paint-order:markers stroke fill"
           inkscape:connector-curvature="0" />
        <path
           id="rect5455-2"
           d="m 20,281.64999 h 6 c 0.554,0 1,0.446 1,1 v 20 c 0,0.554 -0.446,1 -1,1 h -6 c -0.554,0 -1,-0.446 -1,-1 v -20 c 0,-0.554 0.446,-1 1,-1 z"
           style="opacity:1;vector-effect:none;fill:#5e9c76;fill-opacity:1;stroke:none;stroke-width:6;stroke-linecap:square;stroke-linejoin:round;stroke-miterlimit:18;stroke-dasharray:none;stroke-dashoffset:0;stroke-opacity:1;paint-order:markers stroke fill"
           inkscape:connector-curvature="0" />
        <path
           id="rect5455-8"
           d="m 9,281.64999 h 6 c 0.554,0 1,0.446 1,1 v 20 c 0,0.554 -0.446,1 -1,1 H 9 c -0.554,0 -1,-0.446 -1,-1 v -20 c 0,-0.554 0.446,-1 1,-1 z"
           style="opacity:1;vector-effect:none;fill:#287bc2;fill-opacity:1;stroke:none;stroke-width:6;stroke-linecap:square;stroke-linejoin:round;stroke-miterlimit:18;stroke-dasharray:none;stroke-dashoffset:0;stroke-opacity:1;paint-order:markers stroke fill"
           inkscape:connector-curvature="0" />
        <path
           id="rect5455-29"
           d="m -2,282.64999 h 6 v 20 h -6 z"
           style="opacity:1;vector-effect:none;fill:#f78f8f;fill-opacity:1;stroke:none;stroke-width:6;stroke-linecap:square;stroke-linejoin:round;stroke-miterlimit:18;stroke-dasharray:none;stroke-dashoffset:0;stroke-opacity:1;paint-order:markers stroke fill"
           inkscape:connector-curvature="0" />
        <path
           id="rect5455-29-9"
           d="m 9,282.64999 h 6 v 20 H 9 Z"
           style="opacity:1;vector-effect:none;fill:#78c1ff;fill-opacity:1;stroke:none;stroke-width:6;stroke-linecap:square;stroke-linejoin:round;stroke-miterlimit:18;stroke-dasharray:none;stroke-dashoffset:0;stroke-opacity:1;paint-order:markers stroke fill"
           inkscape:connector-curvature="0" />
        <path
           id="rect5455-29-6"
           d="m 20,282.64999 h 6 v 20 h -6 z"
           style="opacity:1;vector-effect:none;fill:#bae0bd;fill-opacity:1;stroke:none;stroke-width:6;stroke-linecap:square;stroke-linejoin:round;stroke-miterlimit:18;stroke-dasharray:none;stroke-dashoffset:0;stroke-opacity:1;paint-order:markers stroke fill"
           inkscape:connector-curvature="0" />
      </g>
    </g>
  </g>
</svg>
