<?xml version="1.0" encoding="UTF-8" standalone="no"?>
<!-- Created with Inkscape (http://www.inkscape.org/) -->

<svg
   width="48"
   height="48"
   viewBox="0 0 48 48"
   version="1.1"
   id="svg8"
   inkscape:version="1.3.2 (091e20ef0f, 2023-11-25, custom)"
   sodipodi:docname="kdeconnect.svg"
   xml:space="preserve"
   xmlns:inkscape="http://www.inkscape.org/namespaces/inkscape"
   xmlns:sodipodi="http://sodipodi.sourceforge.net/DTD/sodipodi-0.dtd"
   xmlns="http://www.w3.org/2000/svg"
   xmlns:svg="http://www.w3.org/2000/svg"
   xmlns:rdf="http://www.w3.org/1999/02/22-rdf-syntax-ns#"
   xmlns:cc="http://creativecommons.org/ns#"
   xmlns:dc="http://purl.org/dc/elements/1.1/"><title
     id="title7895">Antu icon Theme</title><defs
     id="defs2" /><sodipodi:namedview
     id="base"
     pagecolor="#ffffff"
     bordercolor="#666666"
     borderopacity="1.0"
     inkscape:pageopacity="0.0"
     inkscape:pageshadow="2"
     inkscape:zoom="11.313709"
     inkscape:cx="58.115335"
     inkscape:cy="19.091882"
     inkscape:document-units="px"
     inkscape:current-layer="g1532"
     showgrid="true"
     units="px"
     inkscape:window-width="2560"
     inkscape:window-height="1356"
     inkscape:window-x="0"
     inkscape:window-y="0"
     inkscape:window-maximized="1"
     objecttolerance="10"
     gridtolerance="10"
     guidetolerance="10"
     inkscape:snap-bbox="true"
     inkscape:bbox-paths="true"
     inkscape:bbox-nodes="true"
     inkscape:snap-bbox-edge-midpoints="true"
     inkscape:snap-bbox-midpoints="true"
     inkscape:object-paths="true"
     inkscape:snap-intersection-paths="true"
     inkscape:showpageshadow="2"
     inkscape:pagecheckerboard="0"
     inkscape:deskcolor="#d1d1d1"><inkscape:grid
       type="xygrid"
       id="grid7897"
       empspacing="4"
       originx="0"
       originy="0"
       spacingy="1"
       spacingx="1"
       units="px"
       visible="true" /></sodipodi:namedview><metadata
     id="metadata5"><rdf:RDF><cc:Work
         rdf:about=""><dc:format>image/svg+xml</dc:format><dc:type
           rdf:resource="http://purl.org/dc/dcmitype/StillImage" /><dc:title>Antu icon Theme</dc:title></cc:Work></rdf:RDF></metadata><g
     inkscape:label="Capa 1"
     inkscape:groupmode="layer"
     id="layer1"
     transform="translate(0,-266.64999)"><g
       id="g1817"
       transform="translate(36,12)"><path
         inkscape:connector-curvature="0"
         style="opacity:1;vector-effect:none;fill:#363c4d;fill-opacity:1;stroke:none;stroke-width:2;stroke-linecap:round;stroke-linejoin:round;stroke-miterlimit:4;stroke-dasharray:none;stroke-dashoffset:0;stroke-opacity:1"
         d="m -22,256.64999 c -2.216001,0 -4,1.784 -4,4 v 36 c 0,2.216 1.783999,4 4,4 h 20 c 2.216001,0 4,-1.784 4,-4 v -36 c 0,-2.216 -1.783999,-4 -4,-4 h -2 -16 z"
         id="rect978" /><path
         id="rect1046"
         d="m -22,257.64999 c -1.662,0 -3,1.338 -3,3 v 36 c 0,1.66199 1.338,3 3,3 h 20 c 1.662,0 3,-1.33801 3,-3 v -36 c 0,-1.662 -1.338,-3 -3,-3 h -2 -16 z m 4.5,38 h 11 c 0.277,0 0.5,0.223 0.5,0.5 0,0.277 -0.223,0.5 -0.5,0.5 h -11 c -0.277,0 -0.5,-0.223 -0.5,-0.5 0,-0.277 0.223,-0.5 0.5,-0.5 z"
         style="opacity:1;vector-effect:none;fill:#4b6377;fill-opacity:1;stroke:none;stroke-width:2;stroke-linecap:round;stroke-linejoin:round;stroke-miterlimit:4;stroke-dasharray:none;stroke-dashoffset:0;stroke-opacity:1"
         inkscape:connector-curvature="0"
         sodipodi:nodetypes="ssssssssssssssssss" /><path
         inkscape:connector-curvature="0"
         style="opacity:1;vector-effect:none;fill:#60b6fe;fill-opacity:1;stroke:none;stroke-width:2;stroke-linecap:round;stroke-linejoin:round;stroke-miterlimit:4;stroke-dasharray:none;stroke-dashoffset:0;stroke-opacity:1"
         d="m -22,258.64999 c -1.108,0 -2,0.89199 -2,2 v 36 c 0,1.108 0.892,2 2,2 h 20 c 1.108,0 2,-0.892 2,-2 v -36 c 0,-1.10801 -0.892,-2 -2,-2 h -2.839844 c -3.160156,0 -11.160156,0 -14.320312,0 z m 4.5,37 h 11 c 0.277,0 0.5,0.223 0.5,0.5 0,0.277 -0.223,0.5 -0.5,0.5 h -11 c -0.277,0 -0.5,-0.223 -0.5,-0.5 0,-0.277 0.223,-0.5 0.5,-0.5 z"
         id="path1115"
         sodipodi:nodetypes="ssssssssccssssssss" /><path
         id="rect1"
         style="fill:#3173c9;stroke:none;stroke-width:2.46886;stroke-linecap:round;stroke-linejoin:round;paint-order:stroke fill markers;fill-opacity:1"
         d="m -21,289.64999 c -0.553999,0 -1,0.446 -1,1 v 2 c 0,0.554 0.446001,1 1,1 h 2 c 0.553999,0 1,-0.446 1,-1 v -2 c 0,-0.554 -0.446001,-1 -1,-1 z m 5,0 c -0.553999,0 -1,0.446 -1,1 v 2 c 0,0.554 0.446001,1 1,1 h 2 c 0.553999,0 1,-0.446 1,-1 v -2 c 0,-0.554 -0.446001,-1 -1,-1 z m 6,0 c -0.553999,0 -1,0.446 -1,1 v 2 c 0,0.554 0.446001,1 1,1 h 2 c 0.5539994,0 1,-0.446 1,-1 v -2 c 0,-0.554 -0.4460006,-1 -1,-1 z m 5,0 c -0.5539994,0 -1,0.446 -1,1 v 2 c 0,0.554 0.4460006,1 1,1 h 2 c 0.5539995,0 1,-0.446 1,-1 v -2 c 0,-0.554 -0.4460005,-1 -1,-1 z"
         sodipodi:nodetypes="ssssssssssssssssssssssssssssssssssss" /><path
         id="rect2"
         style="fill:#363c4d;fill-opacity:1;stroke:none;stroke-width:4;stroke-linecap:round;stroke-linejoin:round;paint-order:stroke fill markers"
         d="m -15.4735,260.64999 c -0.830999,0 -1.5,0.669 -1.5,1.5 0,0.831 0.669001,1.5 1.5,1.5 0.830998,0 1.499999,-0.669 1.499999,-1.5 0,-0.831 -0.669001,-1.5 -1.499999,-1.5 z m 3.999999,0 c -0.830999,0 -1.5,0.669 -1.5,1.5 0,0.831 0.669001,1.5 1.5,1.5 H -8.5265 c 0.8309992,0 1.5,-0.669 1.5,-1.5 0,-0.831 -0.6690008,-1.5 -1.5,-1.5 z"
         sodipodi:nodetypes="ssssssssssss" /><g
         id="g1532"
         transform="matrix(3.7795275,0,0,3.7795275,27.62509,-835.74456)"><path
           id="path847"
           style="color:#122036;fill:#3173c9;fill-opacity:1;stroke:none;stroke-width:0.264583"
           d="m -9.9549718,292.46898 -0.5291672,0.52916 0.7937505,0.79375 -0.7937505,0.79375 0.5291672,0.52917 1.3229167,-1.32292 z m -1.5875002,0.26458 c -0.146579,0 -0.264583,0.118 -0.264583,0.26458 0,0.14658 0.118004,0.26459 0.264583,0.26459 0.146579,0 0.264583,-0.11801 0.264583,-0.26459 0,-0.14658 -0.118004,-0.26458 -0.264583,-0.26458 z m -0.396875,1.05833 c -0.219868,0 -0.396875,0.17701 -0.396875,0.39688 0,0.21986 0.177007,0.39687 0.396875,0.39687 0.219869,0 0.396875,-0.17701 0.396875,-0.39687 0,-0.21987 -0.177006,-0.39688 -0.396875,-0.39688 z m 0.79375,1.05834 c -0.366447,0 -0.661458,0.295 -0.661458,0.66145 0,0.36645 0.295011,0.66146 0.661458,0.66146 0.366448,0 0.661458,-0.29501 0.661458,-0.66146 0,-0.36645 -0.29501,-0.66145 -0.661458,-0.66145 z" /></g></g></g></svg>
