<?xml version="1.0" encoding="UTF-8" standalone="no"?>
<!-- Created with Inkscape (http://www.inkscape.org/) -->

<svg
   width="48"
   height="48"
   viewBox="0 0 48 48"
   version="1.1"
   id="svg8"
   inkscape:version="1.2.2 (b0a8486541, 2022-12-01)"
   sodipodi:docname="window-duplicate.svg"
   xmlns:inkscape="http://www.inkscape.org/namespaces/inkscape"
   xmlns:sodipodi="http://sodipodi.sourceforge.net/DTD/sodipodi-0.dtd"
   xmlns="http://www.w3.org/2000/svg"
   xmlns:svg="http://www.w3.org/2000/svg"
   xmlns:rdf="http://www.w3.org/1999/02/22-rdf-syntax-ns#"
   xmlns:cc="http://creativecommons.org/ns#"
   xmlns:dc="http://purl.org/dc/elements/1.1/">
  <title
     id="title7895">Antu icon Theme</title>
  <defs
     id="defs2" />
  <sodipodi:namedview
     id="base"
     pagecolor="#ffffff"
     bordercolor="#666666"
     borderopacity="1.0"
     inkscape:pageopacity="0.0"
     inkscape:pageshadow="2"
     inkscape:zoom="11.313708"
     inkscape:cx="39.15604"
     inkscape:cy="-2.4748738"
     inkscape:document-units="px"
     inkscape:current-layer="layer1"
     showgrid="true"
     units="px"
     inkscape:window-width="2560"
     inkscape:window-height="1353"
     inkscape:window-x="0"
     inkscape:window-y="0"
     inkscape:window-maximized="1"
     objecttolerance="10"
     gridtolerance="10"
     guidetolerance="10"
     inkscape:snap-bbox="true"
     inkscape:bbox-nodes="true"
     inkscape:bbox-paths="true"
     inkscape:snap-bbox-edge-midpoints="true"
     inkscape:snap-bbox-midpoints="true"
     inkscape:object-paths="true"
     inkscape:snap-intersection-paths="true"
     inkscape:object-nodes="true"
     inkscape:snap-smooth-nodes="false"
     inkscape:snap-midpoints="false"
     inkscape:showpageshadow="false"
     showborder="true"
     showguides="false"
     inkscape:pagecheckerboard="0"
     inkscape:deskcolor="#d1d1d1">
    <inkscape:grid
       type="xygrid"
       id="grid7897"
       empspacing="4" />
  </sodipodi:namedview>
  <metadata
     id="metadata5">
    <rdf:RDF>
      <cc:Work
         rdf:about="">
        <dc:format>image/svg+xml</dc:format>
        <dc:type
           rdf:resource="http://purl.org/dc/dcmitype/StillImage" />
        <dc:title>Antu icon Theme</dc:title>
      </cc:Work>
    </rdf:RDF>
  </metadata>
  <g
     inkscape:label="Capa 1"
     inkscape:groupmode="layer"
     id="layer1"
     transform="translate(0,-266.64999)">
    <g
       id="g1082">
      <path
         inkscape:connector-curvature="0"
         id="rect905-6"
         d="m 1.999996,274.64999 h 38.000008 c 1.107998,0 1.999996,0.892 1.999996,2 V 300.65 c 0,1.108 -0.891998,1.99999 -1.999996,1.99999 H 1.999996 C 0.891998,302.64999 0,301.758 0,300.65 v -24.00001 c 0,-1.108 0.891998,-2 1.999996,-2 z"
         style="opacity:1;fill:#a3b7cc;fill-opacity:1;stroke:none;stroke-width:2;stroke-linecap:round;stroke-linejoin:round;stroke-miterlimit:4;stroke-dasharray:none;stroke-opacity:1"
         sodipodi:nodetypes="sssssssss" />
      <path
         inkscape:connector-curvature="0"
         id="rect928-2"
         d="m 2,275.64999 h 38 c 0.554,0 1,0.446 1,1 v 24 c 0,0.554 -0.446,1 -1,1 H 2 c -0.554,0 -1,-0.446 -1,-1 v -24 c 0,-0.554 0.446,-1 1,-1 z"
         style="opacity:1;fill:#f1f1f1;fill-opacity:1;stroke:none;stroke-width:2;stroke-linecap:round;stroke-linejoin:round;stroke-miterlimit:4;stroke-dasharray:none;stroke-opacity:1"
         sodipodi:nodetypes="sssssssss" />
      <path
         id="rect905-2-6"
         d="m 2,266.64999 c -1.107998,0 -2,0.892 -2,2 v 6 2 h 4 34 2 2 v -2 -1 -5 c 0,-1.108 -0.892002,-2 -2,-2 z"
         style="opacity:1;fill:#36404d;fill-opacity:1;stroke:none;stroke-width:2;stroke-linecap:round;stroke-linejoin:round;stroke-miterlimit:4;stroke-dasharray:none;stroke-opacity:1"
         inkscape:connector-curvature="0" />
      <path
         id="rect928-9-1"
         d="m 2,267.64999 c -0.554,0 -1,0.446 -1,1 v 6 1 h 4 32 3 1 v -1 -2 -4 c 0,-0.554 -0.446,-1 -1,-1 z"
         style="opacity:1;fill:#4b6477;fill-opacity:1;stroke:none;stroke-width:2;stroke-linecap:round;stroke-linejoin:round;stroke-miterlimit:4;stroke-dasharray:none;stroke-opacity:1"
         inkscape:connector-curvature="0" />
    </g>
    <g
       id="g1088">
      <path
         inkscape:connector-curvature="0"
         id="rect905"
         d="m 7.999996,286.64999 h 38.000008 c 1.107998,0 1.999996,0.892 1.999996,2 V 312.65 c 0,1.108 -0.891998,1.99999 -1.999996,1.99999 H 7.999996 C 6.891998,314.64999 6,313.758 6,312.65 v -24.00001 c 0,-1.108 0.891998,-2 1.999996,-2 z"
         style="opacity:1;fill:#a3b7cc;fill-opacity:1;stroke:none;stroke-width:2;stroke-linecap:round;stroke-linejoin:round;stroke-miterlimit:4;stroke-dasharray:none;stroke-opacity:1"
         sodipodi:nodetypes="sssssssss" />
      <path
         inkscape:connector-curvature="0"
         id="rect928"
         d="m 8,287.64999 h 38 c 0.554,0 1,0.446 1,1 v 24 c 0,0.554 -0.446,1 -1,1 H 8 c -0.554,0 -1,-0.446 -1,-1 v -24 c 0,-0.554 0.446,-1 1,-1 z"
         style="opacity:1;fill:#f1f1f1;fill-opacity:1;stroke:none;stroke-width:2;stroke-linecap:round;stroke-linejoin:round;stroke-miterlimit:4;stroke-dasharray:none;stroke-opacity:1"
         sodipodi:nodetypes="sssssssss" />
      <path
         id="rect905-2"
         d="m 8,278.64999 c -1.107998,0 -2,0.892 -2,2 v 6 2 h 4 34 2 2 v -2 -1 -5 c 0,-1.108 -0.892002,-2 -2,-2 z"
         style="opacity:1;fill:#007ecc;fill-opacity:1;stroke:none;stroke-width:2;stroke-linecap:round;stroke-linejoin:round;stroke-miterlimit:4;stroke-dasharray:none;stroke-opacity:1"
         inkscape:connector-curvature="0" />
      <path
         id="rect928-9"
         d="m 8,279.64999 c -0.554,0 -1,0.446 -1,1 v 6 1 h 4 32 3 1 v -1 -2 -4 c 0,-0.554 -0.446,-1 -1,-1 z"
         style="opacity:1;fill:#5ac0ff;fill-opacity:1;stroke:none;stroke-width:2;stroke-linecap:round;stroke-linejoin:round;stroke-miterlimit:4;stroke-dasharray:none;stroke-opacity:1"
         inkscape:connector-curvature="0" />
    </g>
    <rect
       style="fill:#007ecc;fill-opacity:1;stroke-width:3.2;stroke-linecap:round;stroke-linejoin:round;paint-order:stroke markers fill;stop-color:#000000"
       id="rect68977"
       width="4"
       height="4.0000033"
       x="9"
       y="281.64999"
       ry="2" />
    <rect
       style="fill:#d7f0fe;fill-opacity:1;stroke-width:2.66667;stroke-linecap:round;stroke-linejoin:round;paint-order:stroke markers fill;stop-color:#000000"
       id="rect68979"
       width="2"
       height="2.0000026"
       x="10"
       y="282.64999"
       ry="1.0000013" />
    <rect
       style="fill:#007ecc;fill-opacity:1;stroke-width:3.2;stroke-linecap:round;stroke-linejoin:round;paint-order:stroke markers fill;stop-color:#000000"
       id="rect68977-2"
       width="4"
       height="4.0000033"
       x="14"
       y="281.64999"
       ry="2" />
    <rect
       style="fill:#d7f0fe;fill-opacity:1;stroke-width:2.66667;stroke-linecap:round;stroke-linejoin:round;paint-order:stroke markers fill;stop-color:#000000"
       id="rect68979-1"
       width="2"
       height="2.0000026"
       x="15"
       y="282.64999"
       ry="1.0000013" />
    <rect
       style="fill:#007ecc;fill-opacity:1;stroke-width:3.2;stroke-linecap:round;stroke-linejoin:round;paint-order:stroke markers fill;stop-color:#000000"
       id="rect68977-5"
       width="4"
       height="4.0000033"
       x="19"
       y="281.64999"
       ry="2" />
    <rect
       style="fill:#d7f0fe;fill-opacity:1;stroke-width:2.66667;stroke-linecap:round;stroke-linejoin:round;paint-order:stroke markers fill;stop-color:#000000"
       id="rect68979-0"
       width="2"
       height="2.0000026"
       x="20"
       y="282.64999"
       ry="1.0000013" />
    <rect
       style="fill:#36404d;fill-opacity:1;stroke-width:3.2;stroke-linecap:round;stroke-linejoin:round;paint-order:stroke markers fill;stop-color:#000000"
       id="rect68977-9"
       width="4"
       height="4.0000033"
       x="3"
       y="269.64999"
       ry="2" />
    <rect
       style="fill:#d7f0fe;fill-opacity:1;stroke-width:2.66667;stroke-linecap:round;stroke-linejoin:round;paint-order:stroke markers fill;stop-color:#000000"
       id="rect68979-04"
       width="2"
       height="2.0000026"
       x="4"
       y="270.64999"
       ry="1.0000013" />
    <rect
       style="fill:#36404d;fill-opacity:1;stroke-width:3.2;stroke-linecap:round;stroke-linejoin:round;paint-order:stroke markers fill;stop-color:#000000"
       id="rect68977-2-0"
       width="4"
       height="4.0000033"
       x="8"
       y="269.64999"
       ry="2" />
    <rect
       style="fill:#d7f0fe;fill-opacity:1;stroke-width:2.66667;stroke-linecap:round;stroke-linejoin:round;paint-order:stroke markers fill;stop-color:#000000"
       id="rect68979-1-1"
       width="2"
       height="2.0000026"
       x="9"
       y="270.64999"
       ry="1.0000013" />
    <rect
       style="fill:#36404d;fill-opacity:1;stroke-width:3.2;stroke-linecap:round;stroke-linejoin:round;paint-order:stroke markers fill;stop-color:#000000"
       id="rect68977-5-3"
       width="4"
       height="4.0000033"
       x="13"
       y="269.64999"
       ry="2" />
    <rect
       style="fill:#d7f0fe;fill-opacity:1;stroke-width:2.66667;stroke-linecap:round;stroke-linejoin:round;paint-order:stroke markers fill;stop-color:#000000"
       id="rect68979-0-7"
       width="2"
       height="2.0000026"
       x="14"
       y="270.64999"
       ry="1.0000013" />
  </g>
</svg>
