<?xml version="1.0" encoding="UTF-8" standalone="no"?>
<!-- Created with Inkscape (http://www.inkscape.org/) -->

<svg
   width="22"
   height="22"
   viewBox="0 0 22 22"
   version="1.1"
   id="svg5"
   inkscape:version="1.4 (e7c3feb100, 2024-10-09)"
   sodipodi:docname="kdeconnect.svg"
   xml:space="preserve"
   xmlns:inkscape="http://www.inkscape.org/namespaces/inkscape"
   xmlns:sodipodi="http://sodipodi.sourceforge.net/DTD/sodipodi-0.dtd"
   xmlns="http://www.w3.org/2000/svg"
   xmlns:svg="http://www.w3.org/2000/svg"><sodipodi:namedview
     id="namedview7"
     pagecolor="#ffffff"
     bordercolor="#000000"
     borderopacity="0.25"
     inkscape:showpageshadow="false"
     inkscape:pageopacity="0.0"
     inkscape:pagecheckerboard="0"
     inkscape:deskcolor="#d1d1d1"
     inkscape:document-units="px"
     showgrid="true"
     inkscape:zoom="19.028871"
     inkscape:cx="11.43"
     inkscape:cy="3.6523449"
     inkscape:window-width="1890"
     inkscape:window-height="1048"
     inkscape:window-x="0"
     inkscape:window-y="0"
     inkscape:window-maximized="1"
     inkscape:current-layer="layer1"><inkscape:grid
       type="xygrid"
       id="grid3636"
       originx="0"
       originy="0"
       spacingy="1"
       spacingx="1"
       units="px"
       visible="true" /></sodipodi:namedview><defs
     id="defs2"><style
       type="text/css"
       id="current-color-scheme">
      .ColorScheme-Text {
        color:#36404d;
      }
      </style><style
       type="text/css"
       id="current-color-scheme-67">
      .ColorScheme-Text {
        color:#122036;
      }
      </style><style
       type="text/css"
       id="current-color-scheme-7">
      .ColorScheme-Text {
        color:#122036;
      }
      </style><style
       type="text/css"
       id="current-color-scheme-5">
      .ColorScheme-Text {
        color:#122036;
      }
      </style><style
       type="text/css"
       id="current-color-scheme-6">
      .ColorScheme-Text {
        color:#122036;
      }
      </style><style
       type="text/css"
       id="current-color-scheme-1">
      .ColorScheme-Text {
        color:#122036;
      }
      </style><style
       id="current-color-scheme-10"
       type="text/css">
      .ColorScheme-Text {
        color:#122036;
      }
      </style><style
       id="current-color-scheme-5-7"
       type="text/css">
      .ColorScheme-Text {
        color:#122036;
      }
      </style><style
       id="current-color-scheme-1-2"
       type="text/css">
      .ColorScheme-Text {
        color:#122036;
      }
      </style><style
       type="text/css"
       id="current-color-scheme-10-9">
      .ColorScheme-Text {
        color:#122036;
      }
      </style><linearGradient
       id="linearGradient5124"
       gradientUnits="userSpaceOnUse"
       x1="6.9150009"
       x2="6.9150009"
       y1="18.041945"
       y2="9.8719463"
       gradientTransform="matrix(0.26458333,0,0,0.26458333,1.8295938,4.3404147)"><stop
         offset="0"
         stop-color="#eff0f1"
         id="stop5120"
         style="stop-color:#33518f;stop-opacity:1;" /><stop
         offset="1"
         stop-color="#fcfcfc"
         id="stop5122" /></linearGradient><style
       id="current-color-scheme-62"
       type="text/css">
      .ColorScheme-Text {
        color:#122036;
      }
      </style><style
       id="current-color-scheme-6-9"
       type="text/css">
      .ColorScheme-Text {
        color:#122036;
      }
      </style><style
       type="text/css"
       id="current-color-scheme-67-1">
      .ColorScheme-Text {
        color:#36404d;
      }
      </style><linearGradient
       id="h"
       gradientUnits="userSpaceOnUse"
       x1="6.9150009"
       x2="6.9150009"
       y1="18.041945"
       y2="9.8719463"
       gradientTransform="matrix(0.26458333,0,0,0.26458333,1.8295938,4.3404147)"><stop
         offset="0"
         stop-color="#eff0f1"
         id="stop2818" /><stop
         offset="1"
         stop-color="#fcfcfc"
         id="stop2820" /></linearGradient><style
       id="current-color-scheme-0"
       type="text/css">
      .ColorScheme-Text {
        color:#122036;
      }
      </style><style
       id="current-color-scheme-6-2"
       type="text/css">
      .ColorScheme-Text {
        color:#122036;
      }
      </style><style
       type="text/css"
       id="current-color-scheme-67-3">
      .ColorScheme-Text {
        color:#36404d;
      }
      </style></defs><g
     inkscape:label="Capa 1"
     inkscape:groupmode="layer"
     id="layer1"
     transform="matrix(1.2815271,0,0,1,-3.0705222,0)"><g
       id="g2"
       transform="matrix(3.7795276,0,0,3.7795276,-1.0000001,-1.0000001)"><path
         id="rect1728-7"
         style="fill:#4b6377;fill-opacity:1;stroke-width:0.529167;stroke-linecap:round;stroke-linejoin:round;stroke-miterlimit:1.8;paint-order:fill markers stroke;stop-color:#000000"
         d="m 1.8520833,0.79374999 h 2.6458343 c 0.1465792,0 0.2645834,0.11800416 0.2645834,0.26458331 v 4.2333332 c 0,0.1465791 -0.1180042,0.2645833 -0.2645834,0.2645833 H 1.8520833 C 1.7055042,5.5562498 1.5875,5.4382456 1.5875,5.2916665 V 1.0583333 c 0,-0.14657915 0.1180042,-0.26458331 0.2645833,-0.26458331 z"
         sodipodi:nodetypes="sssssssss" /><path
         id="rect3634"
         style="opacity:1;fill:#44acff;fill-opacity:1;stroke-width:0.529167;stroke-linecap:round;stroke-linejoin:round;stroke-miterlimit:1.8;paint-order:fill markers stroke;stop-color:#000000"
         d="M 1.8520833,1.0583333 H 4.4979166 V 5.2916664 H 1.8520833 Z" /><path
         id="rect1728"
         style="opacity:1;fill:#363c4d;fill-opacity:1;stroke-width:0.529167;stroke-linecap:round;stroke-linejoin:round;stroke-miterlimit:1.8;paint-order:fill markers stroke;stop-color:#000000"
         d="m 1.8520833,0.52916666 c -0.2931574,0 -0.5291666,0.23600926 -0.5291666,0.52916664 v 4.2333333 c 0,0.2931574 0.2360092,0.5291667 0.5291666,0.5291667 h 2.6458333 c 0.2931574,0 0.5291667,-0.2360093 0.5291667,-0.5291667 V 1.0583333 c 0,-0.29315738 -0.2360093,-0.52916664 -0.5291667,-0.52916664 H 3.7052002 2.6447998 Z m -0.00103,0.26458333 H 2.38125 c 0,0 1.5735957,0 1.5875,0 h 0.5302002 c 0.1461319,0 0.2635498,0.11741778 0.2635498,0.26354981 V 5.2927002 C 4.7625,5.4388321 4.6450821,5.55625 4.4989502,5.55625 H 1.8510498 C 1.7049177,5.55625 1.5875,5.4388321 1.5875,5.2927002 V 1.0572998 c 0,-0.14613203 0.1174177,-0.26354981 0.2635498,-0.26354981 z m 1.0593668,0 h 0.5291632 z"
         sodipodi:nodetypes="ssssssssccscccsssssssscccc" /><path
         id="rect6388"
         style="opacity:1;fill:#363c4d;fill-opacity:1;stroke-width:0.529167;stroke-linecap:round;stroke-linejoin:round;stroke-miterlimit:1.8;paint-order:fill markers stroke;stop-color:#000000"
         d="m 2.5135416,4.7624998 h 1.3229166 c 0.07329,0 0.1322917,0.059002 0.1322917,0.1322917 0,0.07329 -0.059002,0.1322917 -0.1322917,0.1322917 H 2.5135416 c -0.07329,0 -0.1322917,-0.059002 -0.1322917,-0.1322917 0,-0.07329 0.059002,-0.1322917 0.1322917,-0.1322917 z" /><rect
         style="fill:#363c4d;fill-opacity:1;stroke-width:1.05833;stroke-linecap:round;stroke-linejoin:round;paint-order:stroke fill markers"
         id="rect2"
         width="1.5404458"
         height="0.52916652"
         x="2.4283042"
         y="1.3229166"
         ry="0.26458326" /><path
         id="path5002-28"
         style="fill:#0062ae;fill-opacity:1;stroke-width:0.979193"
         d="M 2.6458333,2.38125 C 2.499708,2.3812501 2.38125,2.4997081 2.38125,2.6458334 c 10e-8,0.1461253 0.118458,0.2645832 0.2645833,0.2645833 0.1461253,-10e-8 0.2645832,-0.118458 0.2645833,-0.2645833 0,-0.1461253 -0.118458,-0.2645833 -0.2645833,-0.2645834 z m 0.79375,0 L 3.175,2.6458334 3.7041666,3.175 3.175,3.7041667 3.4395833,3.96875 4.2333333,3.175 Z M 2.38125,3.175 c -0.1461254,0 -0.2645834,0.118458 -0.2645834,0.2645834 0,0.1461254 0.118458,0.2645833 0.2645834,0.2645833 0.1461253,0 0.2645833,-0.118458 0.2645833,-0.2645833 C 2.6458333,3.293458 2.5273754,3.175 2.38125,3.175 Z m 0.5291666,0.79375 c -0.1461254,0 -0.2645833,0.118458 -0.2645833,0.2645834 0,0.1461253 0.118458,0.2645833 0.2645833,0.2645833 C 3.056542,4.4979167 3.175,4.3794588 3.175,4.2333334 3.175,4.087208 3.056542,3.96875 2.9104166,3.96875 Z"
         sodipodi:nodetypes="ssssscccccccssssssssss" /></g></g></svg>
