<?xml version="1.0" encoding="UTF-8" standalone="no"?>
<!-- Created with Inkscape (http://www.inkscape.org/) -->

<svg
   width="22"
   height="22"
   viewBox="0 0 22 22"
   version="1.1"
   id="svg5"
   inkscape:version="1.4.2 (ebf0e940d0, 2025-05-08)"
   sodipodi:docname="kdeconnect.svg"
   xml:space="preserve"
   xmlns:inkscape="http://www.inkscape.org/namespaces/inkscape"
   xmlns:sodipodi="http://sodipodi.sourceforge.net/DTD/sodipodi-0.dtd"
   xmlns="http://www.w3.org/2000/svg"
   xmlns:svg="http://www.w3.org/2000/svg"><sodipodi:namedview
     id="namedview7"
     pagecolor="#ffffff"
     bordercolor="#000000"
     borderopacity="0.25"
     inkscape:showpageshadow="false"
     inkscape:pageopacity="0.0"
     inkscape:pagecheckerboard="0"
     inkscape:deskcolor="#d1d1d1"
     inkscape:document-units="px"
     showgrid="true"
     inkscape:zoom="53.821775"
     inkscape:cx="7.0882092"
     inkscape:cy="10.980686"
     inkscape:window-width="2560"
     inkscape:window-height="1367"
     inkscape:window-x="0"
     inkscape:window-y="0"
     inkscape:window-maximized="1"
     inkscape:current-layer="layer1"><inkscape:grid
       type="xygrid"
       id="grid3636"
       originx="0"
       originy="0"
       spacingy="1"
       spacingx="1"
       units="px"
       visible="true" /></sodipodi:namedview><defs
     id="defs2"><style
       type="text/css"
       id="current-color-scheme">
      .ColorScheme-Text {
        color:#36404d;
      }
      </style><style
       type="text/css"
       id="current-color-scheme-67">
      .ColorScheme-Text {
        color:#122036;
      }
      </style><style
       type="text/css"
       id="current-color-scheme-7">
      .ColorScheme-Text {
        color:#122036;
      }
      </style><style
       type="text/css"
       id="current-color-scheme-5">
      .ColorScheme-Text {
        color:#122036;
      }
      </style><style
       type="text/css"
       id="current-color-scheme-6">
      .ColorScheme-Text {
        color:#122036;
      }
      </style><style
       type="text/css"
       id="current-color-scheme-1">
      .ColorScheme-Text {
        color:#122036;
      }
      </style><style
       id="current-color-scheme-10"
       type="text/css">
      .ColorScheme-Text {
        color:#122036;
      }
      </style><style
       id="current-color-scheme-5-7"
       type="text/css">
      .ColorScheme-Text {
        color:#122036;
      }
      </style><style
       id="current-color-scheme-1-2"
       type="text/css">
      .ColorScheme-Text {
        color:#122036;
      }
      </style><style
       type="text/css"
       id="current-color-scheme-10-9">
      .ColorScheme-Text {
        color:#122036;
      }
      </style><linearGradient
       id="linearGradient5124"
       gradientUnits="userSpaceOnUse"
       x1="6.9150009"
       x2="6.9150009"
       y1="18.041945"
       y2="9.8719463"
       gradientTransform="matrix(0.26458333,0,0,0.26458333,1.8295938,4.3404147)"><stop
         offset="0"
         stop-color="#eff0f1"
         id="stop5120"
         style="stop-color:#33518f;stop-opacity:1;" /><stop
         offset="1"
         stop-color="#fcfcfc"
         id="stop5122" /></linearGradient><style
       id="current-color-scheme-62"
       type="text/css">
      .ColorScheme-Text {
        color:#122036;
      }
      </style><style
       id="current-color-scheme-6-9"
       type="text/css">
      .ColorScheme-Text {
        color:#122036;
      }
      </style><style
       type="text/css"
       id="current-color-scheme-67-1">
      .ColorScheme-Text {
        color:#36404d;
      }
      </style><linearGradient
       id="h"
       gradientUnits="userSpaceOnUse"
       x1="6.9150009"
       x2="6.9150009"
       y1="18.041945"
       y2="9.8719463"
       gradientTransform="matrix(0.26458333,0,0,0.26458333,1.8295938,4.3404147)"><stop
         offset="0"
         stop-color="#eff0f1"
         id="stop2818" /><stop
         offset="1"
         stop-color="#fcfcfc"
         id="stop2820" /></linearGradient><style
       id="current-color-scheme-0"
       type="text/css">
      .ColorScheme-Text {
        color:#122036;
      }
      </style><style
       id="current-color-scheme-6-2"
       type="text/css">
      .ColorScheme-Text {
        color:#122036;
      }
      </style><style
       type="text/css"
       id="current-color-scheme-67-3">
      .ColorScheme-Text {
        color:#36404d;
      }
      </style></defs><g
     inkscape:label="Capa 1"
     inkscape:groupmode="layer"
     id="layer1"
     transform="matrix(1.2815271,0,0,1,-3.0705222,0)"><path
       id="rect1728-7"
       style="fill:#4b6377;fill-opacity:1;stroke-width:2.0104;stroke-linecap:round;stroke-linejoin:round;stroke-miterlimit:1.8;paint-order:fill markers stroke;stop-color:#000000"
       d="m 5.159104,2.8327581 11.681796,0.01858 c 0.618257,9.833e-4 0.84052,0.4038114 0.84052,0.9054068 V 18.243255 c 0,0.501595 -0.236761,0.905407 -0.855018,0.905407 H 5.4055735 c -0.6182557,0 -1.1159856,-0.403812 -1.1159856,-0.905407 V 3.7567447 c 0,-0.5015954 0.2512609,-0.9249699 0.8695161,-0.9239866 z"
       sodipodi:nodetypes="sssssssss" /><path
       id="rect3634"
       style="fill:#44acff;fill-opacity:1;stroke-width:2.07466;stroke-linecap:round;stroke-linejoin:round;stroke-miterlimit:1.8;paint-order:fill markers stroke;stop-color:#000000"
       d="M 5.1156094,3.7567447 H 17.000376 V 18.243255 H 5.1156094 Z"
       sodipodi:nodetypes="ccccc" /><path
       id="rect1728"
       style="fill:#363c4d;fill-opacity:1;stroke-width:1.98694;stroke-linecap:round;stroke-linejoin:round;stroke-miterlimit:1.8;paint-order:fill markers stroke;stop-color:#000000"
       d="M 5.1218229,1.9645108 C 3.9140092,1.9703901 3.492563,2.7535571 3.492563,3.7567447 V 18.243255 c 0,1.003188 0.4794303,1.810814 1.6872527,1.810814 H 17.153643 c 1.207822,0 1.600264,-0.807626 1.600264,-1.810814 V 3.7567447 c 0,-1.0031876 -0.319984,-1.7622002 -1.527773,-1.773654 L 13.307685,1.945931 H 8.9387845 Z m 0.5466917,0.8868271 h 2.1844326 6.5405758 l 2.430919,0.01858 c 0.60206,0.0046 0.839368,0.383225 0.839368,0.8832904 V 18.246792 c 0,0.500065 -0.208301,0.88329 -0.810372,0.88329 H 5.3495361 c -0.6020713,0 -0.9853469,-0.346067 -0.9843503,-0.84613 L 4.3941823,3.7346283 C 4.3951789,3.2345645 4.7474648,2.8513379 5.3495361,2.8513379 Z m 4.3646414,0 h 2.180175 z"
       sodipodi:nodetypes="ssssssssccscccsssssssscccc" /><path
       id="rect6388"
       style="fill:#363c4d;fill-opacity:1;stroke-width:1.90306;stroke-linecap:round;stroke-linejoin:round;stroke-miterlimit:1.8;paint-order:fill markers stroke;stop-color:#000000"
       d="M 8.4999998,16.432441 H 13.5 c 0.277001,0 0.5,0.201905 0.5,0.452704 0,0.250799 -0.223,0.452703 -0.5,0.452703 H 8.4999998 c -0.2770016,0 -0.5000002,-0.201905 -0.5000002,-0.452703 0,-0.2508 0.2229997,-0.452704 0.5000002,-0.452704 z" /><rect
       style="fill:#363c4d;fill-opacity:1;stroke-width:3.8061;stroke-linecap:round;stroke-linejoin:round;paint-order:stroke fill markers"
       id="rect2"
       width="5.8221574"
       height="1.8108133"
       x="8.1778431"
       y="4.6621518"
       ry="0.90540665" /><path
       id="path5002-28"
       style="fill:#0062ae;fill-opacity:1;stroke-width:3.5215"
       d="M 8.9999999,8.2837794 C 8.4477153,8.2837798 8,8.6891443 8,9.1891866 c 4e-7,0.5000423 0.4477153,0.9054064 0.9999999,0.9054064 0.5522846,0 0.9999995,-0.4053641 0.9999999,-0.9054064 0,-0.5000423 -0.4477153,-0.9054068 -0.9999999,-0.9054072 z M 12,8.2837794 11,9.1891866 13,11 11,12.810814 12,13.716221 15,11 Z M 8,11 c -0.552285,0 -1.0000003,0.405365 -1.0000003,0.905407 0,0.500043 0.4477153,0.905407 1.0000003,0.905407 0.5522846,0 0.9999999,-0.405364 0.9999999,-0.905407 C 8.9999999,11.405365 8.552285,11 8,11 Z m 1.9999998,2.716221 c -0.552285,0 -0.9999999,0.405364 -0.9999999,0.905407 0,0.500042 0.4477153,0.905407 0.9999999,0.905407 C 10.552285,15.527035 11,15.121671 11,14.621628 11,14.121585 10.552285,13.716221 9.9999998,13.716221 Z"
       sodipodi:nodetypes="ssssscccccccssssssssss" /></g></svg>
