<?xml version="1.0" encoding="UTF-8" standalone="no"?>
<!-- Created with Inkscape (http://www.inkscape.org/) -->

<svg
   width="22"
   height="22"
   viewBox="0 0 22 22"
   version="1.1"
   id="svg5"
   inkscape:version="1.3.2 (091e20ef0f, 2023-11-25, custom)"
   sodipodi:docname="preferences-desktop-sound.svg"
   xml:space="preserve"
   xmlns:inkscape="http://www.inkscape.org/namespaces/inkscape"
   xmlns:sodipodi="http://sodipodi.sourceforge.net/DTD/sodipodi-0.dtd"
   xmlns="http://www.w3.org/2000/svg"
   xmlns:svg="http://www.w3.org/2000/svg"><sodipodi:namedview
     id="namedview7"
     pagecolor="#ffffff"
     bordercolor="#000000"
     borderopacity="0.25"
     inkscape:showpageshadow="false"
     inkscape:pageopacity="0.0"
     inkscape:pagecheckerboard="0"
     inkscape:deskcolor="#d1d1d1"
     inkscape:document-units="px"
     showgrid="true"
     inkscape:zoom="26.910888"
     inkscape:cx="28.111298"
     inkscape:cy="13.303166"
     inkscape:window-width="2560"
     inkscape:window-height="1356"
     inkscape:window-x="0"
     inkscape:window-y="0"
     inkscape:window-maximized="1"
     inkscape:current-layer="layer1"><inkscape:grid
       type="xygrid"
       id="grid3636"
       originx="0"
       originy="0"
       spacingy="1"
       spacingx="1"
       units="px"
       visible="true" /></sodipodi:namedview><defs
     id="defs2"><style
       type="text/css"
       id="current-color-scheme">
      .ColorScheme-Text {
        color:#36404d;
      }
      </style><style
       type="text/css"
       id="current-color-scheme-67">
      .ColorScheme-Text {
        color:#122036;
      }
      </style><style
       type="text/css"
       id="current-color-scheme-7">
      .ColorScheme-Text {
        color:#122036;
      }
      </style><style
       type="text/css"
       id="current-color-scheme-5">
      .ColorScheme-Text {
        color:#122036;
      }
      </style><style
       type="text/css"
       id="current-color-scheme-6">
      .ColorScheme-Text {
        color:#122036;
      }
      </style><style
       type="text/css"
       id="current-color-scheme-1">
      .ColorScheme-Text {
        color:#122036;
      }
      </style><style
       id="current-color-scheme-10"
       type="text/css">
      .ColorScheme-Text {
        color:#122036;
      }
      </style><style
       id="current-color-scheme-5-7"
       type="text/css">
      .ColorScheme-Text {
        color:#122036;
      }
      </style><style
       id="current-color-scheme-1-2"
       type="text/css">
      .ColorScheme-Text {
        color:#122036;
      }
      </style><style
       type="text/css"
       id="current-color-scheme-10-9">
      .ColorScheme-Text {
        color:#122036;
      }
      </style><style
       type="text/css"
       id="current-color-scheme-61">
      .ColorScheme-Text {
        color:#36404d;
      }
      </style></defs><g
     inkscape:label="Capa 1"
     inkscape:groupmode="layer"
     id="layer1"><g
       id="g1"
       transform="translate(-33,4.0000003)"><g
         id="g2"
         transform="matrix(3.7795276,0,0,3.7795276,32,-4.9999999)"><path
           id="rect1728"
           style="opacity:1;fill:#36404d;fill-opacity:1;stroke-width:0.529167;stroke-linecap:round;stroke-linejoin:round;stroke-miterlimit:1.8;paint-order:fill markers stroke;stop-color:#000000"
           d="m 1.0583333,0.52916664 h 4.2333332 c 0.2931583,0 0.5291666,0.23600832 0.5291666,0.52916666 v 4.2333332 c 0,0.2931583 -0.2360083,0.5291666 -0.5291666,0.5291666 H 1.0583333 c -0.29315834,0 -0.52916666,-0.2360083 -0.52916666,-0.5291666 V 1.0583333 c 0,-0.29315834 0.23600832,-0.52916666 0.52916666,-0.52916666 z" /><path
           id="rect1728-7"
           style="fill:#4b6477;fill-opacity:1;stroke-width:0.529167;stroke-linecap:round;stroke-linejoin:round;stroke-miterlimit:1.8;paint-order:fill markers stroke;stop-color:#000000"
           d="m 1.0583333,0.79374999 h 4.2333341 c 0.1465792,0 0.2645834,0.11800416 0.2645834,0.26458331 v 4.2333332 c 0,0.1465791 -0.1180042,0.2645833 -0.2645834,0.2645833 H 1.0583333 c -0.14657915,0 -0.26458331,-0.1180042 -0.26458331,-0.2645833 V 1.0583333 c 0,-0.14657915 0.11800416,-0.26458331 0.26458331,-0.26458331 z" /><path
           id="rect2499"
           style="opacity:1;fill:#e1ebf2;fill-opacity:1;stroke:none;stroke-width:0.529167;stroke-linecap:round;stroke-linejoin:round;stroke-miterlimit:1.8;paint-order:fill markers stroke;stop-color:#000000"
           d="m 1.0583333,1.0583333 v 0.79375 H 1.5875 v -0.79375 z m 3.7041667,0 v 0.79375 h 0.5291666 v -0.79375 z M 1.0583333,2.1166666 v 0.79375 H 1.5875 v -0.79375 z m 3.7041667,0 v 0.79375 h 0.5291666 v -0.79375 z M 1.0583333,3.175 V 3.96875 H 1.5875 V 3.175 Z m 3.7041667,0 V 3.96875 H 5.2916666 V 3.175 Z M 1.0583333,4.2333333 v 0.79375 H 1.5875 v -0.79375 z m 3.7041667,0 v 0.79375 h 0.5291666 v -0.79375 z" /><path
           id="rect2719"
           style="opacity:1;fill:#5f9aff;fill-opacity:1;stroke:none;stroke-width:0.529167;stroke-linecap:round;stroke-linejoin:round;stroke-miterlimit:1.8;paint-order:fill markers stroke;stop-color:#000000"
           d="M 1.8520833,1.0583333 V 2.9104166 H 4.4979166 V 1.0583333 Z m 0,2.38125 V 5.2916666 H 4.4979166 V 3.4395833 Z" /><g
           id="g2018"
           transform="translate(3.175,-290.91458)"
           style="fill:#e1ebf2;fill-opacity:1"><path
             id="path4"
             style="color:#122036;fill:#e1ebf2;fill-opacity:1;stroke:none;stroke-width:0.264583"
             class="ColorScheme-Text"
             d="m -2.5e-8,292.76666 v 0.52917 0.83871 c -0.082699585,-0.0291 -0.171707995,-0.045 -0.264583335,-0.045 -0.43973708,0 -0.79374994,0.35402 -0.79374994,0.79375 -1e-7,0.43974 0.35401286,0.79375 0.79374994,0.79375 0.43973711,0 0.79375,-0.35401 0.79375,-0.79375 0,-0.007 1.7183e-4,-0.0138 0,-0.0207 v -1.30225 l 0.52916666,-0.26451 v -1.05833 z"
             sodipodi:nodetypes="cccssssccccc" /></g></g></g></g></svg>
