<?xml version="1.0" encoding="UTF-8" standalone="no"?>
<!-- Created with Inkscape (http://www.inkscape.org/) -->

<svg
   width="22"
   height="22"
   viewBox="0 0 22 22"
   version="1.1"
   id="svg5"
   inkscape:version="1.3.2 (091e20ef0f, 2023-11-25, custom)"
   sodipodi:docname="preferences-security-apparmor.svg"
   xml:space="preserve"
   xmlns:inkscape="http://www.inkscape.org/namespaces/inkscape"
   xmlns:sodipodi="http://sodipodi.sourceforge.net/DTD/sodipodi-0.dtd"
   xmlns="http://www.w3.org/2000/svg"
   xmlns:svg="http://www.w3.org/2000/svg"><sodipodi:namedview
     id="namedview7"
     pagecolor="#ffffff"
     bordercolor="#000000"
     borderopacity="0.25"
     inkscape:showpageshadow="false"
     inkscape:pageopacity="0.0"
     inkscape:pagecheckerboard="0"
     inkscape:deskcolor="#d1d1d1"
     inkscape:document-units="px"
     showgrid="true"
     inkscape:zoom="19.028872"
     inkscape:cx="-5.9120688"
     inkscape:cy="-0.4729655"
     inkscape:window-width="2560"
     inkscape:window-height="1356"
     inkscape:window-x="0"
     inkscape:window-y="0"
     inkscape:window-maximized="1"
     inkscape:current-layer="g58460-3-0-7-2"><inkscape:grid
       type="xygrid"
       id="grid3636"
       originx="0"
       originy="0"
       spacingy="1"
       spacingx="1"
       units="px"
       visible="true" /></sodipodi:namedview><defs
     id="defs2"><style
       type="text/css"
       id="current-color-scheme">
      .ColorScheme-Text {
        color:#36404d;
      }
      </style><style
       type="text/css"
       id="current-color-scheme-67">
      .ColorScheme-Text {
        color:#122036;
      }
      </style><style
       type="text/css"
       id="current-color-scheme-7">
      .ColorScheme-Text {
        color:#122036;
      }
      </style><style
       type="text/css"
       id="current-color-scheme-5">
      .ColorScheme-Text {
        color:#122036;
      }
      </style><style
       type="text/css"
       id="current-color-scheme-6">
      .ColorScheme-Text {
        color:#122036;
      }
      </style><style
       type="text/css"
       id="current-color-scheme-1">
      .ColorScheme-Text {
        color:#122036;
      }
      </style><style
       id="current-color-scheme-10"
       type="text/css">
      .ColorScheme-Text {
        color:#122036;
      }
      </style><style
       id="current-color-scheme-5-7"
       type="text/css">
      .ColorScheme-Text {
        color:#122036;
      }
      </style><style
       id="current-color-scheme-1-2"
       type="text/css">
      .ColorScheme-Text {
        color:#122036;
      }
      </style><style
       type="text/css"
       id="current-color-scheme-10-9">
      .ColorScheme-Text {
        color:#122036;
      }
      </style><style
       type="text/css"
       id="current-color-scheme-675">
      .ColorScheme-Text {
        color:#36404d;
      }
      </style><style
       type="text/css"
       id="current-color-scheme-78">
      .ColorScheme-Text {
        color:#122036;
      }
      </style><style
       type="text/css"
       id="current-color-scheme-1-35">
      .ColorScheme-Text {
        color:#122036;
      }
      </style><style
       id="current-color-scheme-10-6"
       type="text/css">
      .ColorScheme-Text {
        color:#122036;
      }
      </style><style
       id="current-color-scheme-5-2"
       type="text/css">
      .ColorScheme-Text {
        color:#122036;
      }
      </style><style
       id="current-color-scheme-1-2-9"
       type="text/css">
      .ColorScheme-Text {
        color:#122036;
      }
      </style><style
       type="text/css"
       id="current-color-scheme-10-9-1">
      .ColorScheme-Text {
        color:#122036;
      }
      </style><style
       type="text/css"
       id="current-color-scheme-6-2">
      .ColorScheme-Text {
        color:#122036;
      }
      </style><style
       type="text/css"
       id="current-color-scheme-1-9">
      .ColorScheme-Text {
        color:#122036;
      }
      </style><style
       id="current-color-scheme-10-1"
       type="text/css">
      .ColorScheme-Text {
        color:#122036;
      }
      </style><style
       type="text/css"
       id="current-color-scheme-7-7">
      .ColorScheme-Text {
        color:#122036;
      }
      </style><style
       type="text/css"
       id="current-color-scheme-1-5">
      .ColorScheme-Text {
        color:#122036;
      }
      </style><style
       id="current-color-scheme-10-3"
       type="text/css">
      .ColorScheme-Text {
        color:#122036;
      }
      </style><style
       id="current-color-scheme-5-5"
       type="text/css">
      .ColorScheme-Text {
        color:#122036;
      }
      </style><style
       id="current-color-scheme-1-2-6"
       type="text/css">
      .ColorScheme-Text {
        color:#122036;
      }
      </style><style
       type="text/css"
       id="current-color-scheme-10-9-2">
      .ColorScheme-Text {
        color:#122036;
      }
      </style><style
       type="text/css"
       id="current-color-scheme-6-9">
      .ColorScheme-Text {
        color:#122036;
      }
      </style><style
       type="text/css"
       id="current-color-scheme-1-9-1">
      .ColorScheme-Text {
        color:#122036;
      }
      </style><style
       id="current-color-scheme-10-1-2"
       type="text/css">
      .ColorScheme-Text {
        color:#122036;
      }
      </style><style
       id="current-color-scheme-75"
       type="text/css">
      .ColorScheme-Text {
        color:#122036;
      }
      </style><style
       id="current-color-scheme-1-3"
       type="text/css">
      .ColorScheme-Text {
        color:#122036;
      }
      </style><style
       type="text/css"
       id="current-color-scheme-10-5">
      .ColorScheme-Text {
        color:#122036;
      }
      </style><style
       type="text/css"
       id="current-color-scheme-5-6">
      .ColorScheme-Text {
        color:#122036;
      }
      </style><style
       type="text/css"
       id="current-color-scheme-1-2-2">
      .ColorScheme-Text {
        color:#122036;
      }
      </style><style
       id="current-color-scheme-10-9-9"
       type="text/css">
      .ColorScheme-Text {
        color:#122036;
      }
      </style><style
       id="current-color-scheme-6-1"
       type="text/css">
      .ColorScheme-Text {
        color:#122036;
      }
      </style><style
       id="current-color-scheme-1-9-2"
       type="text/css">
      .ColorScheme-Text {
        color:#122036;
      }
      </style><style
       type="text/css"
       id="current-color-scheme-10-1-7">
      .ColorScheme-Text {
        color:#122036;
      }
      </style><style
       id="current-color-scheme-7-0"
       type="text/css">
      .ColorScheme-Text {
        color:#122036;
      }
      </style><style
       id="current-color-scheme-1-5-9"
       type="text/css">
      .ColorScheme-Text {
        color:#122036;
      }
      </style><style
       type="text/css"
       id="current-color-scheme-10-3-3">
      .ColorScheme-Text {
        color:#122036;
      }
      </style><style
       type="text/css"
       id="current-color-scheme-5-5-6">
      .ColorScheme-Text {
        color:#122036;
      }
      </style><style
       type="text/css"
       id="current-color-scheme-1-2-6-0">
      .ColorScheme-Text {
        color:#122036;
      }
      </style><style
       id="current-color-scheme-10-9-2-6"
       type="text/css">
      .ColorScheme-Text {
        color:#122036;
      }
      </style><style
       id="current-color-scheme-6-9-2"
       type="text/css">
      .ColorScheme-Text {
        color:#122036;
      }
      </style><style
       id="current-color-scheme-1-9-1-6"
       type="text/css">
      .ColorScheme-Text {
        color:#122036;
      }
      </style><style
       type="text/css"
       id="current-color-scheme-10-1-2-1">
      .ColorScheme-Text {
        color:#122036;
      }
      </style><style
       type="text/css"
       id="current-color-scheme-6753">
      .ColorScheme-Text {
        color:#36404d;
      }
      </style></defs><g
     inkscape:label="Capa 1"
     inkscape:groupmode="layer"
     id="layer1"><g
       id="g58460-3-0-7-2"
       transform="matrix(0.26458333,0,0,0.26458333,-60.854166,-15.08125)"><g
         id="g1"
         transform="translate(-94.488196,45.354326)"><g
           id="g2"
           transform="matrix(3.7795276,0,0,3.7795276,-548.58268,-207.56693)"><path
             id="rect917"
             style="opacity:1;fill:#36404d;fill-opacity:1;stroke-width:0.529167;stroke-linecap:round;stroke-linejoin:round;stroke-miterlimit:1.8;paint-order:fill markers stroke;stop-color:#000000"
             d="M 0.79374999,0.52916666 V 3.175 3.4395833 c 0,1.3192111 1.06203881,2.38125 2.38125001,2.38125 1.3192111,0 2.38125,-1.0620389 2.38125,-2.38125 V 3.175 0.52916666 Z"
             transform="matrix(3.7795276,0,0,3.7795276,230,57.000001)" /><path
             id="rect913"
             style="opacity:1;fill:#4b6477;fill-opacity:1;stroke-width:0.529167;stroke-linecap:round;stroke-linejoin:round;stroke-miterlimit:1.8;paint-order:fill markers stroke;stop-color:#000000"
             d="M 1.0583333,0.79374999 V 2.9104166 3.4395833 c 0,1.1726321 0.9440346,2.1166667 2.1166667,2.1166667 1.1726321,0 2.1166666,-0.9440346 2.1166666,-2.1166667 V 2.9104166 0.79374999 H 3.175 Z"
             transform="matrix(3.7795276,0,0,3.7795276,230,57.000001)" /><rect
             style="opacity:1;fill:#738695;fill-opacity:1;stroke-width:0.529167;stroke-linecap:round;stroke-linejoin:round;stroke-miterlimit:1.8;paint-order:fill markers stroke;stop-color:#000000"
             id="rect3926"
             width="2.1166666"
             height="2.3812499"
             x="1.0583333"
             y="0.79374999"
             transform="matrix(3.7795276,0,0,3.7795276,230,57.000001)" /><path
             id="path4014"
             style="fill:#738695;fill-opacity:1;stroke-width:0.529167;stroke-linecap:round;stroke-linejoin:round;stroke-miterlimit:1.8;paint-order:fill markers stroke;stop-color:#000000"
             d="m 3.175,5.55625 c 0.018322,0 0.036569,-5.86e-5 0.054777,-5.168e-4 0.018208,-4.582e-4 0.036172,-0.00116 0.05426,-0.00207 0.018088,-9.11e-4 0.036297,-0.00226 0.05426,-0.00362 0.017963,-0.00136 0.035911,-0.00285 0.053743,-0.00465 0.017832,-0.0018 0.035531,-0.00396 0.053227,-0.0062 0.017696,-0.00224 0.035156,-0.00457 0.05271,-0.00723 0.017554,-0.00267 0.035303,-0.00569 0.05271,-0.00879 0.017407,-0.00309 0.034938,-0.00631 0.052193,-0.00982 0.017255,-0.00351 0.034063,-0.00744 0.05116,-0.011369 0.017097,-0.00393 0.034226,-0.00807 0.05116,-0.012402 0.016933,-0.00434 0.033879,-0.0087 0.050643,-0.013436 0.016764,-0.00474 0.033536,-0.00985 0.050126,-0.014986 0.01659,-0.00514 0.032683,-0.010489 0.049093,-0.01602 0.01641,-0.00553 0.032868,-0.011135 0.049093,-0.017053 0.016225,-0.00592 0.032542,-0.011786 0.048576,-0.018087 0.016034,-0.0063 0.031705,-0.012961 0.047542,-0.019637 0.015838,-0.00668 0.031906,-0.013623 0.047542,-0.020671 0.015636,-0.00705 0.03108,-0.014291 0.046509,-0.021704 0.015429,-0.00741 0.030776,-0.014965 0.045992,-0.022738 0.015216,-0.00777 0.030477,-0.015644 0.045475,-0.023771 0.014998,-0.00813 0.029667,-0.016328 0.044442,-0.024805 0.014775,-0.00848 0.029379,-0.017018 0.043925,-0.025838 0.014546,-0.00882 0.029097,-0.01823 0.043408,-0.027388 0.014311,-0.00916 0.028303,-0.018414 0.042375,-0.027905 0.014071,-0.00949 0.028032,-0.019121 0.041858,-0.028939 0.013826,-0.00982 0.027766,-0.019833 0.041341,-0.029972 0.013575,-0.01014 0.026989,-0.020033 0.040308,-0.030489 0.013319,-0.010456 0.026217,-0.021272 0.039274,-0.032039 0.013057,-0.010767 0.025967,-0.021484 0.038757,-0.032556 0.01279,-0.011072 0.025723,-0.022734 0.038241,-0.034107 0.012518,-0.011372 0.024968,-0.02244 0.037207,-0.034106 0.012239,-0.011667 0.024218,-0.023701 0.036173,-0.035657 0.011956,-0.011956 0.02399,-0.023934 0.035657,-0.036174 0.011667,-0.012239 0.022734,-0.02469 0.034106,-0.037207 0.011372,-0.012518 0.023034,-0.02545 0.034106,-0.03824 0.011072,-0.01279 0.021789,-0.0257 0.032556,-0.038757 0.010767,-0.013057 0.021583,-0.025955 0.032039,-0.039274 0.010456,-0.013319 0.020349,-0.026732 0.030489,-0.040308 0.01014,-0.013575 0.020154,-0.027515 0.029972,-0.041341 0.00982,-0.013826 0.019448,-0.027786 0.028939,-0.041858 0.00949,-0.014072 0.018747,-0.028063 0.027905,-0.042375 0.00916,-0.014311 0.018568,-0.028862 0.027388,-0.043408 0.00882,-0.014546 0.017362,-0.02915 0.025838,-0.043925 0.00848,-0.014775 0.016677,-0.029443 0.024805,-0.044442 0.00813,-0.014998 0.015998,-0.030259 0.023771,-0.045475 0.00777,-0.015216 0.015325,-0.030563 0.022738,-0.045992 0.00741,-0.015429 0.014657,-0.030873 0.021704,-0.046509 0.00705,-0.015636 0.013994,-0.031705 0.020671,-0.047542 0.00668,-0.015838 0.013337,-0.031508 0.019637,-0.047542 0.0063,-0.016034 0.012168,-0.032351 0.018087,-0.048576 0.00592,-0.016225 0.011522,-0.032683 0.017053,-0.049093 0.00553,-0.01641 0.010881,-0.032503 0.01602,-0.049093 0.00514,-0.01659 0.010246,-0.033362 0.014986,-0.050126 0.00474,-0.016764 0.0091,-0.03371 0.013436,-0.050643 0.00434,-0.016933 0.00847,-0.034063 0.012402,-0.05116 0.00393,-0.017097 0.00786,-0.033905 0.011369,-0.05116 0.00351,-0.017255 0.00673,-0.034786 0.00982,-0.052193 0.00309,-0.017407 0.00612,-0.035156 0.00879,-0.05271 0.00267,-0.017554 0.005,-0.035014 0.00723,-0.05271 0.00224,-0.017696 0.0044,-0.035395 0.0062,-0.053227 0.0018,-0.017832 0.00329,-0.03578 0.00465,-0.053743 0.00136,-0.017963 0.00271,-0.036172 0.00362,-0.05426 9.11e-4,-0.018088 0.00161,-0.036052 0.00207,-0.05426 4.582e-4,-0.018208 5.167e-4,-0.036455 5.167e-4,-0.054777 V 3.175 H 3.175 Z"
             transform="matrix(3.7795276,0,0,3.7795276,230,57.000001)" /><path
             id="path2333-1-9-9-6"
             style="fill:#dde8ee;fill-opacity:1;stroke:none;stroke-width:2;stroke-linecap:round;stroke-linejoin:round;stroke-miterlimit:1.8;stroke-dasharray:none;stroke-opacity:1;paint-order:fill markers stroke;stop-color:#000000"
             d="m 242,63.000001 c -1.662,0 -3,1.338001 -3,3 v 1 c -0.554,0 -1,0.446 -1,1 v 4 c 0,0.554 0.446,1 1,1 h 6 c 0.554,0 1,-0.446 1,-1 v -4 c 0,-0.554 -0.446,-1 -1,-1 v -1 c 0,-1.661999 -1.338,-3 -3,-3 z m 0,1 c 1.108,0 2,0.892001 2,2 v 1 h -4 v -1 c 0,-1.107999 0.892,-2 2,-2 z" /></g></g></g></g></svg>
