<?xml version="1.0" encoding="UTF-8" standalone="no"?>
<svg
   height="22"
   viewBox="0 0 22 22"
   width="22"
   version="1.1"
   id="svg7"
   sodipodi:docname="preferences-system-network-ntp.svg"
   inkscape:version="1.3.2 (091e20ef0f, 2023-11-25, custom)"
   xmlns:inkscape="http://www.inkscape.org/namespaces/inkscape"
   xmlns:sodipodi="http://sodipodi.sourceforge.net/DTD/sodipodi-0.dtd"
   xmlns="http://www.w3.org/2000/svg"
   xmlns:svg="http://www.w3.org/2000/svg">
  <defs
     id="defs7" />
  <sodipodi:namedview
     id="namedview7"
     pagecolor="#ffffff"
     bordercolor="#000000"
     borderopacity="0.25"
     inkscape:showpageshadow="2"
     inkscape:pageopacity="0.0"
     inkscape:pagecheckerboard="0"
     inkscape:deskcolor="#d1d1d1"
     showgrid="true"
     inkscape:zoom="52.363636"
     inkscape:cx="10.990451"
     inkscape:cy="13.291667"
     inkscape:window-width="2560"
     inkscape:window-height="1356"
     inkscape:window-x="0"
     inkscape:window-y="0"
     inkscape:window-maximized="1"
     inkscape:current-layer="svg7">
    <inkscape:grid
       id="grid7"
       units="px"
       originx="0"
       originy="0"
       spacingx="1"
       spacingy="1"
       empcolor="#0099e5"
       empopacity="0.30196078"
       color="#0099e5"
       opacity="0.14901961"
       empspacing="5"
       dotted="false"
       gridanglex="30"
       gridanglez="30"
       visible="true" />
  </sodipodi:namedview>
  <g
     stroke-linecap="round"
     stroke-linejoin="round"
     stroke-miterlimit="1.8"
     transform="matrix(3.7795276 0 0 3.7795276 -1 -1)"
     id="g7">
    <path
       d="m3.1749999.52916664c1.4657916 0 2.6458332 1.18004166 2.6458332 2.64583326s-1.1800416 2.6458332-2.6458332 2.6458332-2.64583326-1.1800416-2.64583326-2.6458332 1.18004166-2.64583326 2.64583326-2.64583326z"
       fill="#1466b2"
       stroke-width=".529167"
       id="path1" />
    <path
       d="m3.175.79374999c1.3192124 0 2.3812499 1.06203741 2.3812499 2.38124991 0 1.3192124-1.0620375 2.3812499-2.3812499 2.3812499-1.3192125 0-2.38124995-1.0620375-2.38124995-2.3812499 0-1.3192125 1.06203745-2.38124991 2.38124995-2.38124991z"
       fill="#5ca5ff"
       stroke-width=".47625"
       id="path2" />
    <path
       d="m2.9042155.66197509a.1322915.1322915 0 0 0 -.091467.0428914c-.196405.21401049-.3628593.42134601-.5022952.62270101a.39687499.39687499 0 0 1 -.0005168 0 .39687499.39687499 0 0 0 -.060978-.00465.39687499.39687499 0 0 0 -.396875.396875.39687499.39687499 0 0 0 .091984.2537312c-.1023265.2326955-.1681927.4567506-.202055.6728264a.39687499.39687499 0 0 0 -.0222208-.0005168.39687499.39687499 0 0 0 -.3198772.162264c-.1805403-.0817374-.3608457-.17391-.54053544-.2769857a.1322915.1322915 0 0 0 -.0997355-.013436.1322915.1322915 0 0 0 -.0800985.062528.1322915.1322915 0 0 0 .0490926.1793173c.19747396.1132778.39581754.2148238.59479574.303858a.39687499.39687499 0 0 0 .3963583.3762044.39687499.39687499 0 0 0 .036173-.00207c.00527.026909.011376.053448.01757.080099.076043.327192.215925.6321076.3917074.9224243a.39687499.39687499 0 0 0 -.0480587.1798364c-.2061599.0786929-.4064328.1753518-.5994466.2940389a.1322915.1322915 0 0 0 -.042891.181901.1322915.1322915 0 0 0 .1813842.044958c.1741233-.1070706.3557009-.195745.5436357-.2682001a.39687499.39687499 0 0 0 .3136759.1545125.39687499.39687499 0 0 0 .057361-.00465c.1619986.2100389.3331941.4149392.5012614.6180501a.1322915.1322915 0 0 0 .1875854.01757.1322915.1322915 0 0 0 .01757-.1855184c-.1594147-.1926551-.3185-.38455-.4681886-.5777434a.39687499.39687499 0 0 0 .0981853-.2196248c.461914-.0868757.9510441-.1075938 1.455725-.0956014.0830238.1749586.1786762.3480538.287321.5183146a.1322915.1322915 0 0 0 .1834513.040824.1322915.1322915 0 0 0 .039274-.1834513c-.0770973-.1208216-.1468676-.2428327-.210323-.365352.20434.00949.4107686.022898.6185669.038757a.1322915.1322915 0 0 0 .142627-.1209225.1322915.1322915 0 0 0 -.1229899-.142627c-.2562934-.0195603-.5125662-.0359823-.7668783-.0454753-.0961378-.2226865-.1701556-.4483414-.2216919-.6764445a.39687499.39687499 0 0 0 .1379761-.1488281c.4394485-.0886811.8391417-.2481634 1.1787394-.4728393a.1322915.1322915 0 0 0 .0366903-.1834514.1322915.1322915 0 0 0 -.1834513-.037207c-.2847771.1884069-.6218129.3277276-.9958049.4123779a.39687499.39687499 0 0 0 -.2619995-.2831868c-.0132129-.5895728.1174932-1.1956114.3948079-1.8184937a.1322915.1322915 0 0 0 -.0687296-.17414953.1322915.1322915 0 0 0 -.1736328.06666263c-.2906673.6528734-.4269842 1.2997188-.4123779 1.9306315a.39687499.39687499 0 0 0 -.2604493.372587c-.49995.0119009-1.0386119-.0610027-1.5890502-.2289266a.39687499.39687499 0 0 0 .0015502-.0356567.39687499.39687499 0 0 0 -.1260904-.2904215c.0242209-.2044592.0810919-.4182009.1777669-.6438884a.39687499.39687499 0 0 0 .080615.00827.39687499.39687499 0 0 0 .3968752-.3968767.39687499.39687499 0 0 0 -.1033529-.2671672c.1289588-.1820927.2831484-.3717423.4650879-.56999104a.1322915.1322915 0 0 0 -.0077514-.18706869.1322915.1322915 0 0 0 -.0956014-.03358968zm-.9002035 2.65926921c.6222513.1951953 1.2339308.2757698 1.8014404.2506307a.39687499.39687499 0 0 0 .0005168.0005167.39687499.39687499 0 0 0 .2526978.1291911c.046084.2059601.1086839.4098227.1881022.6108154-.3125371-.00427-.6217157.00443-.9244914.03514-.1600572.016233-.3188777.038615-.4749064.068213a.39687499.39687499 0 0 0 -.3338298-.1824179.39687499.39687499 0 0 0 -.144694.0268717c-.1536773-.2593479-.273227-.524662-.3374471-.8009846-.0106095-.0456501-.0196953-.0915358-.0273885-.1379761z"
       fill="#e6f9ff"
       stroke-width=".793748"
       id="path3" />
    <path
       d="m3.175.52916667c-1.4657902 0-2.64583341 1.18004323-2.64583341 2.64583333s1.18004321 2.6458333 2.64583341 2.6458333c1.4657901 0 2.6458333-1.1800432 2.6458333-2.6458333s-1.1800432-2.64583333-2.6458333-2.64583333zm0 .2645833c1.319211 0 2.3812499 1.06203883 2.3812499 2.38125003 0 1.3192111-1.0620389 2.38125-2.3812499 2.38125-1.3192112 0-2.38125001-1.0620389-2.38125001-2.38125 0-1.3192112 1.06203881-2.38125003 2.38125001-2.38125003z"
       fill="#4972c5"
       stroke-width=".529167"
       id="path4" />
  </g>
  <g
     id="g1448"
     transform="matrix(3.7795275,0,0,3.7795275,14,-1096.5196)">
    <path
       id="path844"
       d="m 0.26458329,292.23749 c -1.02605413,0 -1.85208329,0.82603 -1.85208329,1.85208 0,1.02606 0.82602916,1.85209 1.85208329,1.85209 1.02605421,0 1.85208341,-0.82603 1.85208341,-1.85209 0,-1.02605 -0.8260292,-1.85208 -1.85208341,-1.85208 z"
       style="fill:#36404d;fill-opacity:1;stroke:none;stroke-width:0.264583"
       inkscape:connector-curvature="0" />
    <path
       id="rect838"
       d="m 0.26458329,292.50207 c 0.87947501,0 1.58750001,0.70803 1.58750001,1.5875 0,0.87948 -0.708025,1.5875 -1.58750001,1.5875 -0.87947496,0 -1.58749999,-0.70802 -1.58749999,-1.5875 0,-0.87947 0.70802503,-1.5875 1.58749999,-1.5875 z"
       style="opacity:1;fill:#4b6477;fill-opacity:1;stroke:none;stroke-width:0.529167;stroke-linecap:round;stroke-linejoin:round;stroke-miterlimit:4;stroke-dasharray:none;stroke-opacity:1;paint-order:fill markers stroke"
       inkscape:connector-curvature="0" />
    <path
       id="rect840"
       d="m 0.26458329,292.76666 c 0.7328959,0 1.32291671,0.59002 1.32291671,1.32291 0,0.7329 -0.59002081,1.32292 -1.32291671,1.32292 -0.7328958,0 -1.32291659,-0.59002 -1.32291659,-1.32292 0,-0.73289 0.59002079,-1.32291 1.32291659,-1.32291 z"
       style="opacity:1;fill:#f1f1f1;fill-opacity:1;stroke:none;stroke-width:0.529167;stroke-linecap:round;stroke-linejoin:round;stroke-miterlimit:4;stroke-dasharray:none;stroke-opacity:1;paint-order:fill markers stroke"
       inkscape:connector-curvature="0" />
    <path
       id="rect846"
       d="m 0.26458329,293.82499 c 0.1465792,0 0.2645834,0.11801 0.2645834,0.26459 v 0.79374 c 0,0.14658 -0.1180042,0.26459 -0.2645834,0.26459 C 0.11800419,295.14791 0,295.0299 0,294.88332 v -0.79374 c 0,-0.14658 0.11800419,-0.26459 0.26458329,-0.26459 z"
       style="opacity:1;fill:#f78f8f;fill-opacity:1;stroke:none;stroke-width:0.529167;stroke-linecap:round;stroke-linejoin:round;stroke-miterlimit:4;stroke-dasharray:none;stroke-opacity:1;paint-order:fill markers stroke"
       inkscape:connector-curvature="0"
       sodipodi:nodetypes="sssssss" />
    <path
       id="path4-3"
       d="m 0.26458329,293.03124 c 0.1465792,0 0.2645834,0.118 0.2645834,0.26458 v 0.52917 H 1.0583333 c 0.1465792,0 0.2645834,0.11801 0.2645834,0.26459 0,0.14658 -0.1180042,0.26458 -0.2645834,0.26458 H 0.26458329 C 0.11800419,294.35416 0,294.23616 0,294.08958 v -0.79376 c 0,-0.14658 0.11800419,-0.26458 0.26458329,-0.26458 z"
       style="fill:#36404d;fill-opacity:1;stroke:none;stroke-width:0.264583"
       inkscape:connector-curvature="0"
       sodipodi:nodetypes="sscsssssss" />
  </g>
</svg>
