<?xml version="1.0" encoding="UTF-8" standalone="no"?>
<!-- Created with Inkscape (http://www.inkscape.org/) -->

<svg
   width="22"
   height="22"
   viewBox="0 0 22 22"
   version="1.1"
   id="svg5"
   inkscape:version="1.3.2 (091e20ef0f, 2023-11-25, custom)"
   sodipodi:docname="preferences-log.svg"
   xml:space="preserve"
   xmlns:inkscape="http://www.inkscape.org/namespaces/inkscape"
   xmlns:sodipodi="http://sodipodi.sourceforge.net/DTD/sodipodi-0.dtd"
   xmlns="http://www.w3.org/2000/svg"
   xmlns:svg="http://www.w3.org/2000/svg"><sodipodi:namedview
     id="namedview7"
     pagecolor="#ffffff"
     bordercolor="#000000"
     borderopacity="0.25"
     inkscape:showpageshadow="false"
     inkscape:pageopacity="0.0"
     inkscape:pagecheckerboard="0"
     inkscape:deskcolor="#d1d1d1"
     inkscape:document-units="px"
     showgrid="true"
     inkscape:zoom="26.910888"
     inkscape:cx="24.246692"
     inkscape:cy="15.346948"
     inkscape:window-width="2560"
     inkscape:window-height="1356"
     inkscape:window-x="0"
     inkscape:window-y="0"
     inkscape:window-maximized="1"
     inkscape:current-layer="layer1-7"><inkscape:grid
       type="xygrid"
       id="grid271"
       originx="0"
       originy="0"
       spacingy="1"
       spacingx="1"
       units="px"
       visible="true" /></sodipodi:namedview><defs
     id="defs2"><style
       id="current-color-scheme"
       type="text/css">
      .ColorScheme-Text {
        color:#122036;
      }
      </style><style
       id="current-color-scheme-6"
       type="text/css">
      .ColorScheme-Text {
        color:#122036;
      }
      </style><style
       type="text/css"
       id="current-color-scheme-67">
      .ColorScheme-Text {
        color:#36404d;
      }
      </style><style
       id="current-color-scheme-0"
       type="text/css">
      .ColorScheme-Text {
        color:#122036;
      }
      </style><style
       id="current-color-scheme-6-2"
       type="text/css">
      .ColorScheme-Text {
        color:#122036;
      }
      </style><style
       type="text/css"
       id="current-color-scheme-67-3">
      .ColorScheme-Text {
        color:#36404d;
      }
      </style><style
       id="current-color-scheme-675"
       type="text/css">
      .ColorScheme-Text {
        color:#122036;
      }
      </style><style
       id="current-color-scheme-1"
       type="text/css">
      .ColorScheme-Text {
        color:#122036;
      }
      </style><style
       type="text/css"
       id="current-color-scheme-10">
      .ColorScheme-Text {
        color:#122036;
      }
      </style><style
       type="text/css"
       id="current-color-scheme-6-3">
      .ColorScheme-Text {
        color:#122036;
      }
      </style><style
       type="text/css"
       id="current-color-scheme-1-9">
      .ColorScheme-Text {
        color:#122036;
      }
      </style><style
       id="current-color-scheme-10-1"
       type="text/css">
      .ColorScheme-Text {
        color:#122036;
      }
      </style><style
       type="text/css"
       id="current-color-scheme-56">
      .ColorScheme-Text {
        color:#122036;
      }
      </style><style
       type="text/css"
       id="current-color-scheme-1-91">
      .ColorScheme-Text {
        color:#122036;
      }
      </style><style
       id="current-color-scheme-10-2"
       type="text/css">
      .ColorScheme-Text {
        color:#122036;
      }
      </style><style
       id="current-color-scheme-5"
       type="text/css">
      .ColorScheme-Text {
        color:#122036;
      }
      </style><style
       id="current-color-scheme-1-2"
       type="text/css">
      .ColorScheme-Text {
        color:#122036;
      }
      </style><style
       type="text/css"
       id="current-color-scheme-10-9">
      .ColorScheme-Text {
        color:#122036;
      }
      </style><style
       type="text/css"
       id="current-color-scheme-6-7">
      .ColorScheme-Text {
        color:#122036;
      }
      </style><style
       type="text/css"
       id="current-color-scheme-1-9-0">
      .ColorScheme-Text {
        color:#122036;
      }
      </style><style
       id="current-color-scheme-10-1-9"
       type="text/css">
      .ColorScheme-Text {
        color:#122036;
      }
      </style></defs><g
     inkscape:label="Capa 1"
     inkscape:groupmode="layer"
     id="layer1"><g
       inkscape:label="Capa 1"
       id="layer1-7"
       transform="matrix(3.7795276,0,0,3.7795276,-0.9999997,-0.99999928)"><path
         id="rect1345-5"
         style="opacity:1;fill:#363c4d;fill-opacity:1;stroke-width:0.529167;stroke-linecap:round;stroke-linejoin:round;stroke-miterlimit:1.8;paint-order:fill markers stroke;stop-color:#000000"
         d="m 0.52916663,0.52916645 5.29166657,2.3e-7 c 0.1465792,1e-8 0.2645833,0.11800417 0.2645833,0.26458331 V 5.5562498 c 0,0.1465792 -0.1180041,0.2645833 -0.2645833,0.2645833 l -5.29166658,-2e-7 c -0.14657918,0 -0.26458335,-0.1180041 -0.26458335,-0.2645833 l 10e-9,-4.76249981 c 0,-0.14657916 0.11800417,-0.26458334 0.26458335,-0.26458334 z"
         sodipodi:nodetypes="sssssssss" /><path
         id="rect1345-7-9"
         style="fill:#4b6477;fill-opacity:1;stroke-width:0.529167;stroke-linecap:round;stroke-linejoin:round;stroke-miterlimit:1.8;paint-order:fill markers stroke;stop-color:#000000"
         d="M 0.79374991,1.0583331 H 5.5562499 V 5.2916664 H 0.79374991 Z"
         sodipodi:nodetypes="ccccc" /></g><path
       style="fill:#e8f6ff;fill-opacity:1;stroke:none;stroke-width:1;stroke-linecap:round;stroke-linejoin:round;stroke-miterlimit:4;stroke-dasharray:none;stroke-dashoffset:0;stroke-opacity:1"
       d="m 3.0371597,3.9999477 v 2 h 5.0000004 v -2 z m 6.0000004,0 v 2 H 11.03716 v -2 z m 2.9999999,0 v 2 h 5 v -2 z m -9.0000003,3 v 2 H 11.03716 v -2 z m 9.0000003,0 v 2 h 2 v -2 z m 3,0 v 2 L 19,9 V 7 Z m -12.0000003,3 v 2.0000003 h 2 V 9.9999477 Z m 3,0 V 11.999948 H 8.0371601 V 9.9999477 Z m 3.0000004,0 V 11.999948 H 14.03716 V 9.9999477 Z m 5.9999999,0 v 2.0000003 h 2 V 9.9999477 Z M 3.0371597,12.999948 v 2 h 5.0000004 v -2 z m 6.0000004,0 v 2 H 11.03716 v -2 z m 2.9999999,0 v 2 h 5 v -2 z m -9.0000003,3 v 2 h 2 v -2 z m 3,0 v 2 H 11.03716 v -2 z m 6.0000003,0 v 2 h 3 v -2 z"
       id="rect4405-6"
       sodipodi:nodetypes="cccccccccccccccccccccccccccccccccccccccccccccccccccccccccccccccccccccccccccccccc" /><g
       id="path33222"
       transform="translate(-50.404298,-430.50586)"><path
         style="color:#000000;fill:#f7b351;fill-opacity:1;stroke-linecap:round;stroke-linejoin:round;stroke-miterlimit:1.8;paint-order:fill markers stroke"
         d="m 64.403733,438.50668 c -0.334344,3e-5 -0.646559,0.16713 -0.832031,0.44531 l -6.868577,11.99918 c -0.442845,0.66455 0.03344,1.55452 0.832031,1.55469 l 13.868577,8.2e-4 c 0.798589,-1.7e-4 1.274876,-0.89014 0.832031,-1.55469 l -7,-12 c -0.185472,-0.27818 -0.497687,-0.44528 -0.832031,-0.44531 z m -0.868577,5.80191 5.999437,6.19809 -10.130296,-8.2e-4 z"
         id="path33228"
         sodipodi:nodetypes="cccccccccccc" /><path
         style="color:#000000;fill:#ffd94c;fill-opacity:1;stroke-width:2;stroke-linecap:round;stroke-linejoin:round;stroke-miterlimit:1.8;paint-order:fill markers stroke"
         d="m 57.53572,451.50504 13.868577,8.2e-4 -7,-12 z"
         id="path33226"
         sodipodi:nodetypes="cccc" /></g><path
       id="rect34256"
       style="fill:#906411;fill-opacity:1;stroke-width:2;stroke-linecap:round;stroke-linejoin:round;stroke-miterlimit:1.8;paint-order:fill markers stroke;stop-color:#000000"
       d="m 13.999999,13 c 0.554,0 1,0.446 1,0.99999 V 16 c 0,0.554 -0.446,1 -1,1 C 13.446,17 13,16.554 13,16 V 13.99999 C 13,13.446 13.446,13 13.999999,13 Z" /><path
       id="rect34258"
       style="fill:#906411;fill-opacity:1;stroke-width:2;stroke-linecap:round;stroke-linejoin:round;stroke-miterlimit:1.8;paint-order:fill markers stroke;stop-color:#000000"
       d="m 14,18 c 0.554,0 1,0.446 1,1 0,0.554 -0.446,1 -1,1 -0.554,0 -1,-0.446 -1,-1 0,-0.554 0.446,-1 1,-1 z" /></g></svg>
