<svg height="22" viewBox="0 0 22 22" width="22" xmlns="http://www.w3.org/2000/svg"><g stroke-linecap="round" stroke-linejoin="round" stroke-miterlimit="1.8" transform="matrix(3.7795276 0 0 3.7795276 -1 -1)"><path d="m3.1749999.52916664c1.4657916 0 2.6458332 1.18004166 2.6458332 2.64583326s-1.1800416 2.6458332-2.6458332 2.6458332-2.64583326-1.1800416-2.64583326-2.6458332 1.18004166-2.64583326 2.64583326-2.64583326z" fill="#1466b2" stroke-width=".529167"/><path d="m3.175.79374999c1.3192124 0 2.3812499 1.06203741 2.3812499 2.38124991 0 1.3192124-1.0620375 2.3812499-2.3812499 2.3812499-1.3192125 0-2.38124995-1.0620375-2.38124995-2.3812499 0-1.3192125 1.06203745-2.38124991 2.38124995-2.38124991z" fill="#5ca5ff" stroke-width=".47625"/><path d="m2.9042155.66197509a.1322915.1322915 0 0 0 -.091467.0428914c-.196405.21401049-.3628593.42134601-.5022952.62270101a.39687499.39687499 0 0 1 -.0005168 0 .39687499.39687499 0 0 0 -.060978-.00465.39687499.39687499 0 0 0 -.396875.396875.39687499.39687499 0 0 0 .091984.2537312c-.1023265.2326955-.1681927.4567506-.202055.6728264a.39687499.39687499 0 0 0 -.0222208-.0005168.39687499.39687499 0 0 0 -.3198772.162264c-.1805403-.0817374-.3608457-.17391-.54053544-.2769857a.1322915.1322915 0 0 0 -.0997355-.013436.1322915.1322915 0 0 0 -.0800985.062528.1322915.1322915 0 0 0 .0490926.1793173c.19747396.1132778.39581754.2148238.59479574.303858a.39687499.39687499 0 0 0 .3963583.3762044.39687499.39687499 0 0 0 .036173-.00207c.00527.026909.011376.053448.01757.080099.076043.327192.215925.6321076.3917074.9224243a.39687499.39687499 0 0 0 -.0480587.1798364c-.2061599.0786929-.4064328.1753518-.5994466.2940389a.1322915.1322915 0 0 0 -.042891.181901.1322915.1322915 0 0 0 .1813842.044958c.1741233-.1070706.3557009-.195745.5436357-.2682001a.39687499.39687499 0 0 0 .3136759.1545125.39687499.39687499 0 0 0 .057361-.00465c.1619986.2100389.3331941.4149392.5012614.6180501a.1322915.1322915 0 0 0 .1875854.01757.1322915.1322915 0 0 0 .01757-.1855184c-.1594147-.1926551-.3185-.38455-.4681886-.5777434a.39687499.39687499 0 0 0 .0981853-.2196248c.461914-.0868757.9510441-.1075938 1.455725-.0956014.0830238.1749586.1786762.3480538.287321.5183146a.1322915.1322915 0 0 0 .1834513.040824.1322915.1322915 0 0 0 .039274-.1834513c-.0770973-.1208216-.1468676-.2428327-.210323-.365352.20434.00949.4107686.022898.6185669.038757a.1322915.1322915 0 0 0 .142627-.1209225.1322915.1322915 0 0 0 -.1229899-.142627c-.2562934-.0195603-.5125662-.0359823-.7668783-.0454753-.0961378-.2226865-.1701556-.4483414-.2216919-.6764445a.39687499.39687499 0 0 0 .1379761-.1488281c.4394485-.0886811.8391417-.2481634 1.1787394-.4728393a.1322915.1322915 0 0 0 .0366903-.1834514.1322915.1322915 0 0 0 -.1834513-.037207c-.2847771.1884069-.6218129.3277276-.9958049.4123779a.39687499.39687499 0 0 0 -.2619995-.2831868c-.0132129-.5895728.1174932-1.1956114.3948079-1.8184937a.1322915.1322915 0 0 0 -.0687296-.17414953.1322915.1322915 0 0 0 -.1736328.06666263c-.2906673.6528734-.4269842 1.2997188-.4123779 1.9306315a.39687499.39687499 0 0 0 -.2604493.372587c-.49995.0119009-1.0386119-.0610027-1.5890502-.2289266a.39687499.39687499 0 0 0 .0015502-.0356567.39687499.39687499 0 0 0 -.1260904-.2904215c.0242209-.2044592.0810919-.4182009.1777669-.6438884a.39687499.39687499 0 0 0 .080615.00827.39687499.39687499 0 0 0 .3968752-.3968767.39687499.39687499 0 0 0 -.1033529-.2671672c.1289588-.1820927.2831484-.3717423.4650879-.56999104a.1322915.1322915 0 0 0 -.0077514-.18706869.1322915.1322915 0 0 0 -.0956014-.03358968zm-.9002035 2.65926921c.6222513.1951953 1.2339308.2757698 1.8014404.2506307a.39687499.39687499 0 0 0 .0005168.0005167.39687499.39687499 0 0 0 .2526978.1291911c.046084.2059601.1086839.4098227.1881022.6108154-.3125371-.00427-.6217157.00443-.9244914.03514-.1600572.016233-.3188777.038615-.4749064.068213a.39687499.39687499 0 0 0 -.3338298-.1824179.39687499.39687499 0 0 0 -.144694.0268717c-.1536773-.2593479-.273227-.524662-.3374471-.8009846-.0106095-.0456501-.0196953-.0915358-.0273885-.1379761z" fill="#e6f9ff" stroke-width=".793748"/><path d="m3.175.52916667c-1.4657902 0-2.64583341 1.18004323-2.64583341 2.64583333s1.18004321 2.6458333 2.64583341 2.6458333c1.4657901 0 2.6458333-1.1800432 2.6458333-2.6458333s-1.1800432-2.64583333-2.6458333-2.64583333zm0 .2645833c1.319211 0 2.3812499 1.06203883 2.3812499 2.38125003 0 1.3192111-1.0620389 2.38125-2.3812499 2.38125-1.3192112 0-2.38125001-1.0620389-2.38125001-2.38125 0-1.3192112 1.06203881-2.38125003 2.38125001-2.38125003z" fill="#4972c5" stroke-width=".529167"/><path d="m4.4979166 2.9104166c.879475 0 1.5875.708025 1.5875 1.5875s-.708025 1.5875-1.5875 1.5875-1.5875-.708025-1.5875-1.5875.708025-1.5875 1.5875-1.5875z" fill="#36404d" stroke-width=".262396"/><path d="m4.4979168 3.1750002c.7328958 0 1.3229166.5900208 1.3229166 1.3229166s-.5900208 1.3229166-1.3229166 1.3229166-1.3229166-.5900208-1.3229166-1.3229166.5900208-1.3229166 1.3229166-1.3229166z" fill="#4b6477" stroke-width=".218663"/><path d="m4.2333333 3.4395833v.79375h.5291667v-.79375zm-.2645833.1410767c-.316771.1824745-.5291667.5239896-.5291667.9172566 0 .5863143.4720191 1.0583334 1.0583333 1.0583334.5863143 0 1.0583334-.4720191 1.0583334-1.0583334 0-.393267-.2123957-.7347821-.5291667-.9172566v.38809.515214c.0001145.00455 0 .00937 0 .013953 0 .2931571-.2360096.5291667-.5291667.5291667-.2931572 0-.5291666-.2360096-.5291666-.5291667 0-.00451-.0001109-.00895 0-.013436v-.515731z" fill="#e1ebf2" stroke-width=".17493"/></g></svg>