<?xml version="1.0" encoding="UTF-8" standalone="no"?>
<!-- Created with Inkscape (http://www.inkscape.org/) -->

<svg
   width="22"
   height="22"
   viewBox="0 0 22 22"
   version="1.1"
   id="svg5"
   inkscape:version="1.3.2 (091e20ef0f, 2023-11-25, custom)"
   sodipodi:docname="preferences-system-time.svg"
   xml:space="preserve"
   xmlns:inkscape="http://www.inkscape.org/namespaces/inkscape"
   xmlns:sodipodi="http://sodipodi.sourceforge.net/DTD/sodipodi-0.dtd"
   xmlns="http://www.w3.org/2000/svg"
   xmlns:svg="http://www.w3.org/2000/svg"><sodipodi:namedview
     id="namedview7"
     pagecolor="#ffffff"
     bordercolor="#000000"
     borderopacity="0.25"
     inkscape:showpageshadow="false"
     inkscape:pageopacity="0.0"
     inkscape:pagecheckerboard="0"
     inkscape:deskcolor="#d1d1d1"
     inkscape:document-units="px"
     showgrid="true"
     inkscape:zoom="26.910889"
     inkscape:cx="18.932857"
     inkscape:cy="10.36755"
     inkscape:window-width="2560"
     inkscape:window-height="1356"
     inkscape:window-x="0"
     inkscape:window-y="0"
     inkscape:window-maximized="1"
     inkscape:current-layer="layer1"><inkscape:grid
       type="xygrid"
       id="grid3636"
       originx="0"
       originy="0"
       spacingy="1"
       spacingx="1"
       units="px"
       visible="true" /></sodipodi:namedview><defs
     id="defs2"><style
       type="text/css"
       id="current-color-scheme">
      .ColorScheme-Text {
        color:#36404d;
      }
      </style><style
       type="text/css"
       id="current-color-scheme-67">
      .ColorScheme-Text {
        color:#122036;
      }
      </style><style
       type="text/css"
       id="current-color-scheme-7">
      .ColorScheme-Text {
        color:#122036;
      }
      </style><style
       type="text/css"
       id="current-color-scheme-5">
      .ColorScheme-Text {
        color:#122036;
      }
      </style><style
       type="text/css"
       id="current-color-scheme-6">
      .ColorScheme-Text {
        color:#122036;
      }
      </style><style
       type="text/css"
       id="current-color-scheme-1">
      .ColorScheme-Text {
        color:#122036;
      }
      </style><style
       id="current-color-scheme-10"
       type="text/css">
      .ColorScheme-Text {
        color:#122036;
      }
      </style><style
       id="current-color-scheme-5-7"
       type="text/css">
      .ColorScheme-Text {
        color:#122036;
      }
      </style><style
       id="current-color-scheme-1-2"
       type="text/css">
      .ColorScheme-Text {
        color:#122036;
      }
      </style><style
       type="text/css"
       id="current-color-scheme-10-9">
      .ColorScheme-Text {
        color:#122036;
      }
      </style></defs><g
     inkscape:label="Capa 1"
     inkscape:groupmode="layer"
     id="layer1"><g
       id="g2"
       transform="matrix(3.7795276,0,0,3.7795276,-1.0000002,-1)"><path
         id="rect2967"
         style="opacity:1;fill:#a5b8cd;fill-opacity:1;stroke-width:0.529167;stroke-linecap:round;stroke-linejoin:round;stroke-miterlimit:1.8;paint-order:fill markers stroke;stop-color:#000000"
         d="M 0.79374999,0.52916664 H 4.4979164 c 0.1465792,0 0.2645833,0.11800417 0.2645833,0.26458335 V 4.4979164 c 0,0.1465792 -0.1180041,0.2645833 -0.2645833,0.2645833 H 0.79374999 c -0.14657918,0 -0.26458335,-0.1180041 -0.26458335,-0.2645833 V 0.79374999 c 0,-0.14657918 0.11800417,-0.26458335 0.26458335,-0.26458335 z" /><path
         id="rect3504"
         style="opacity:1;fill:#f1f1f1;fill-opacity:1;stroke-width:0.529167;stroke-linecap:round;stroke-linejoin:round;stroke-miterlimit:1.8;paint-order:fill markers stroke;stop-color:#000000"
         d="M 0.79374999,0.79374999 H 4.4979166 V 4.4979166 H 0.79374999 Z" /><path
         id="rect15701"
         style="opacity:1;fill:#36404d;fill-opacity:1;stroke-width:0.370417;stroke-linecap:round;stroke-linejoin:round;stroke-miterlimit:1.8;paint-order:fill markers stroke;stop-color:#000000"
         d="m 3.9687501,2.1166666 c 1.026054,0 1.8520833,0.8260293 1.8520833,1.8520834 0,1.0260541 -0.8260293,1.8520833 -1.8520833,1.8520833 -1.0260542,0 -1.8520834,-0.8260292 -1.8520834,-1.8520833 0,-1.0260541 0.8260292,-1.8520833 1.8520834,-1.8520834 z" /><path
         id="rect15701-2"
         style="fill:#4b6477;fill-opacity:1;stroke-width:0.3175;stroke-linecap:round;stroke-linejoin:round;stroke-miterlimit:1.8;paint-order:fill markers stroke;stop-color:#000000"
         d="m 3.96875,2.3812499 c 0.8794748,0 1.5874998,0.7080249 1.5874998,1.5875 0,0.8794749 -0.708025,1.5874999 -1.5874998,1.5874999 -0.8794752,0 -1.5875001,-0.708025 -1.5875001,-1.5874999 0,-0.8794751 0.7080249,-1.5875 1.5875001,-1.5875 z" /><path
         id="rect15701-2-3"
         style="fill:#f1f1f1;fill-opacity:1;stroke-width:0.264583;stroke-linecap:round;stroke-linejoin:round;stroke-miterlimit:1.8;paint-order:fill markers stroke;stop-color:#000000"
         d="m 3.96875,2.6458332 c 0.7328957,0 1.3229165,0.5900208 1.3229165,1.3229167 0,0.7328958 -0.5900208,1.3229166 -1.3229165,1.3229166 -0.7328959,0 -1.3229168,-0.5900208 -1.3229168,-1.3229166 0,-0.7328959 0.5900209,-1.3229167 1.3229168,-1.3229167 z" /><path
         id="rect4836"
         style="opacity:1;fill:#c84747;fill-opacity:1;stroke-width:0.529167;stroke-linecap:round;stroke-linejoin:round;stroke-miterlimit:1.8;paint-order:fill markers stroke;stop-color:#000000"
         d="m 0.79374999,0.52916666 c -0.14657903,0 -0.26458333,0.1180043 -0.26458333,0.26458333 V 1.0583333 1.5875 1.8520833 H 0.79374999 4.4979166 4.7625 V 1.5875 1.0583333 0.79374999 c 0,-0.14657903 -0.1180043,-0.26458333 -0.2645834,-0.26458333 z" /><path
         id="rect4892"
         style="opacity:1;fill:#f68d8d;fill-opacity:1;stroke-width:0.529167;stroke-linecap:round;stroke-linejoin:round;stroke-miterlimit:1.8;paint-order:fill markers stroke;stop-color:#000000"
         d="M 0.79374999,0.79374999 H 4.4979166 V 1.5875 H 0.79374999 Z" /><path
         id="rect8063"
         style="opacity:1;fill:#36404d;fill-opacity:1;stroke-width:0.529167;stroke-linecap:round;stroke-linejoin:round;stroke-miterlimit:1.8;paint-order:fill markers stroke;stop-color:#000000"
         d="M 3.7041666,3.175 V 3.96875 4.2333334 4.4979167 H 4.7625 V 3.96875 H 4.2333333 V 3.175 Z" /></g></g></svg>
