<svg height="22" viewBox="0 0 22 22" width="22" xmlns="http://www.w3.org/2000/svg"><g fill="#ffb8a3" stroke-linecap="round" stroke-linejoin="round" stroke-miterlimit="1.8" stroke-width=".529167" transform="matrix(3.7795276 0 0 3.7795276 -1 -1)"><path d="m1.0583333.52916664h4.2333332c.2931583 0 .5291666.23600832.5291666.52916666v4.2333332c0 .2931583-.2360083.5291666-.5291666.5291666h-4.2333332c-.29315834 0-.52916666-.2360083-.52916666-.5291666v-4.2333332c0-.29315834.23600832-.52916666.52916666-.52916666z" fill="#2381cc"/><path d="m1.0583333.79374999h4.2333341c.1465792 0 .2645834.11800416.2645834.26458331v4.2333332c0 .1465791-.1180042.2645833-.2645834.2645833h-4.2333341c-.14657915 0-.26458331-.1180042-.26458331-.2645833v-4.2333332c0-.14657915.11800416-.26458331.26458331-.26458331z" fill="#6fb8f1"/></g><path d="m-7.0429833 293.32371c-.5130271 0-.9260417.41302-.9260417.92605 0 .009.00236.0163.00259.0248h-.00259c0 .63665.79375 1.4304 1.5875 1.95957.7937501-.52917 1.5875001-1.32292 1.5875001-1.95544h-.0031c.0003175-.01.0031-.019.0031-.0289 0-.51303-.4130146-.92605-.9260417-.92605-.2600963 0-.4935625.10701-.6614584.27854-.1678958-.17153-.401362-.27854-.6614583-.27854z" fill="#ebf5fd" transform="matrix(3.7795275 0 0 3.7795275 35.119149 -1102.625028)"/></svg>