<?xml version="1.0" encoding="UTF-8" standalone="no"?>
<svg
   height="22"
   viewBox="0 0 22 22"
   width="22"
   id="svg2"
   version="1.1"
   inkscape:version="1.3.2 (091e20ef0f, 2023-11-25, custom)"
   sodipodi:docname="preferences-web-browser-cache.svg"
   xml:space="preserve"
   xmlns:inkscape="http://www.inkscape.org/namespaces/inkscape"
   xmlns:sodipodi="http://sodipodi.sourceforge.net/DTD/sodipodi-0.dtd"
   xmlns="http://www.w3.org/2000/svg"
   xmlns:svg="http://www.w3.org/2000/svg"
   xmlns:rdf="http://www.w3.org/1999/02/22-rdf-syntax-ns#"
   xmlns:cc="http://creativecommons.org/ns#"
   xmlns:dc="http://purl.org/dc/elements/1.1/"><metadata
     id="metadata10"><rdf:RDF><cc:Work
         rdf:about=""><dc:format>image/svg+xml</dc:format><dc:type
           rdf:resource="http://purl.org/dc/dcmitype/StillImage" /></cc:Work></rdf:RDF></metadata><sodipodi:namedview
     pagecolor="#ffffff"
     bordercolor="#666666"
     borderopacity="1"
     objecttolerance="10"
     gridtolerance="10"
     guidetolerance="10"
     inkscape:pageopacity="0"
     inkscape:pageshadow="2"
     inkscape:window-width="2560"
     inkscape:window-height="1356"
     id="namedview8"
     showgrid="true"
     inkscape:zoom="21.454545"
     inkscape:cx="16.336865"
     inkscape:cy="6.8050849"
     inkscape:window-x="0"
     inkscape:window-y="0"
     inkscape:window-maximized="1"
     inkscape:current-layer="svg2"
     inkscape:snap-bbox="true"
     inkscape:bbox-paths="true"
     inkscape:bbox-nodes="true"
     inkscape:snap-bbox-edge-midpoints="true"
     inkscape:snap-bbox-midpoints="true"
     inkscape:object-paths="true"
     inkscape:snap-intersection-paths="true"
     inkscape:snap-smooth-nodes="true"
     inkscape:showpageshadow="2"
     inkscape:pagecheckerboard="0"
     inkscape:deskcolor="#d1d1d1"><inkscape:grid
       type="xygrid"
       id="grid816"
       originx="0"
       originy="0"
       spacingy="1"
       spacingx="1"
       units="px"
       visible="true" /></sodipodi:namedview><defs
     id="defs2"><style
       type="text/css"
       id="current-color-scheme">
      .ColorScheme-Text {
        color:#122036;
      }
      </style><style
       type="text/css"
       id="current-color-scheme-675">
      .ColorScheme-Text {
        color:#36404d;
      }
      </style><style
       type="text/css"
       id="current-color-scheme-67">
      .ColorScheme-Text {
        color:#122036;
      }
      </style><style
       type="text/css"
       id="current-color-scheme-7">
      .ColorScheme-Text {
        color:#122036;
      }
      </style><style
       type="text/css"
       id="current-color-scheme-5">
      .ColorScheme-Text {
        color:#122036;
      }
      </style><style
       type="text/css"
       id="current-color-scheme-6">
      .ColorScheme-Text {
        color:#122036;
      }
      </style><style
       type="text/css"
       id="current-color-scheme-1">
      .ColorScheme-Text {
        color:#122036;
      }
      </style><style
       id="current-color-scheme-10"
       type="text/css">
      .ColorScheme-Text {
        color:#122036;
      }
      </style><style
       id="current-color-scheme-5-7"
       type="text/css">
      .ColorScheme-Text {
        color:#122036;
      }
      </style><style
       id="current-color-scheme-1-2"
       type="text/css">
      .ColorScheme-Text {
        color:#122036;
      }
      </style><style
       type="text/css"
       id="current-color-scheme-10-9">
      .ColorScheme-Text {
        color:#122036;
      }
      </style></defs><g
     inkscape:label="Capa 1"
     id="layer1"
     transform="matrix(3.7795276,0,0,3.7795276,-0.99999994,-1.0000001)"><path
       id="rect1575"
       style="opacity:1;fill:#b0c1d4;fill-opacity:0.992157;stroke:none;stroke-width:0.529167;stroke-linecap:round;stroke-linejoin:round;stroke-miterlimit:1.8;paint-order:fill markers stroke;stop-color:#000000"
       d="m 2.38125,0.52916666 c -0.1465789,0 -0.2645834,0.11800445 -0.2645834,0.26458333 V 1.3229167 H 1.3229167 c -0.146579,0 -0.2645834,0.1180044 -0.2645834,0.2645833 V 1.8520833 2.1166666 2.38125 h 0.2645834 v 3.175 c 0,0.1465788 0.1180044,0.2645833 0.2645833,0.2645833 h 3.175 c 0.1465788,0 0.2645833,-0.1180045 0.2645833,-0.2645833 v -3.175 H 5.2916666 V 2.1166666 1.8520833 1.5875 c 0,-0.1465789 -0.1180045,-0.2645833 -0.2645833,-0.2645833 h -0.79375 V 0.79374999 c 0,-0.14657888 -0.1180045,-0.26458333 -0.2645833,-0.26458333 z" /><path
       id="rect4393"
       style="opacity:1;fill:#e0eaf2;fill-opacity:1;stroke:none;stroke-width:0.529167;stroke-linecap:round;stroke-linejoin:round;stroke-miterlimit:1.8;paint-order:fill markers stroke;stop-color:#000000"
       d="M 2.38125,0.79374999 V 1.0583333 1.3229167 H 2.6458333 V 1.0583333 H 3.7041666 V 1.3229167 H 3.96875 V 1.0583333 0.79374999 H 3.7041666 Z M 1.3229167,1.5875 V 2.1166666 H 5.0270833 V 1.5875 Z M 1.5875,2.38125 v 3.175 h 3.175 v -3.175 z" /><path
       id="rect7494"
       style="opacity:1;fill:#b0c1d4;fill-opacity:0.992157;stroke:none;stroke-width:0.529167;stroke-linecap:round;stroke-linejoin:round;stroke-miterlimit:1.8;paint-order:fill markers stroke;stop-color:#000000"
       d="m 2.38125,2.9104166 c -0.146579,0 -0.2645834,0.1180044 -0.2645834,0.2645834 v 1.5875 c 0,0.146579 0.1180044,0.2645833 0.2645834,0.2645833 0.146579,0 0.2645833,-0.1180043 0.2645833,-0.2645833 V 3.175 c 0,-0.146579 -0.1180043,-0.2645834 -0.2645833,-0.2645834 z m 0.79375,0 c -0.146579,0 -0.2645834,0.1180044 -0.2645834,0.2645834 v 1.5875 c 0,0.146579 0.1180044,0.2645833 0.2645834,0.2645833 0.146579,0 0.2645833,-0.1180043 0.2645833,-0.2645833 V 3.175 C 3.4395833,3.028421 3.321579,2.9104166 3.175,2.9104166 Z m 0.79375,0 c -0.146579,0 -0.2645834,0.1180044 -0.2645834,0.2645834 v 1.5875 c 0,0.146579 0.1180044,0.2645833 0.2645834,0.2645833 0.146579,0 0.2645833,-0.1180043 0.2645833,-0.2645833 V 3.175 c 0,-0.146579 -0.1180043,-0.2645834 -0.2645833,-0.2645834 z" /></g></svg>
