<?xml version="1.0" encoding="UTF-8" standalone="no"?>
<!-- Created with Inkscape (http://www.inkscape.org/) -->

<svg
   width="22"
   height="22"
   viewBox="0 0 22 22"
   version="1.1"
   id="svg5"
   inkscape:version="1.3.2 (091e20ef0f, 2023-11-25, custom)"
   sodipodi:docname="preferences-system-bluetooth.svg"
   xml:space="preserve"
   xmlns:inkscape="http://www.inkscape.org/namespaces/inkscape"
   xmlns:sodipodi="http://sodipodi.sourceforge.net/DTD/sodipodi-0.dtd"
   xmlns="http://www.w3.org/2000/svg"
   xmlns:svg="http://www.w3.org/2000/svg"><sodipodi:namedview
     id="namedview7"
     pagecolor="#ffffff"
     bordercolor="#000000"
     borderopacity="0.25"
     inkscape:showpageshadow="false"
     inkscape:pageopacity="0.0"
     inkscape:pagecheckerboard="0"
     inkscape:deskcolor="#d1d1d1"
     inkscape:document-units="px"
     showgrid="true"
     inkscape:zoom="26.910887"
     inkscape:cx="10.274652"
     inkscape:cy="8.2866091"
     inkscape:window-width="2560"
     inkscape:window-height="1356"
     inkscape:window-x="0"
     inkscape:window-y="0"
     inkscape:window-maximized="1"
     inkscape:current-layer="layer1"><inkscape:grid
       type="xygrid"
       id="grid3636"
       originx="0"
       originy="0"
       spacingy="1"
       spacingx="1"
       units="px"
       visible="true" /></sodipodi:namedview><defs
     id="defs2"><style
       type="text/css"
       id="current-color-scheme">
      .ColorScheme-Text {
        color:#36404d;
      }
      </style><style
       type="text/css"
       id="current-color-scheme-67">
      .ColorScheme-Text {
        color:#122036;
      }
      </style><style
       type="text/css"
       id="current-color-scheme-7">
      .ColorScheme-Text {
        color:#122036;
      }
      </style><style
       type="text/css"
       id="current-color-scheme-5">
      .ColorScheme-Text {
        color:#122036;
      }
      </style><style
       type="text/css"
       id="current-color-scheme-6">
      .ColorScheme-Text {
        color:#122036;
      }
      </style><style
       type="text/css"
       id="current-color-scheme-1">
      .ColorScheme-Text {
        color:#122036;
      }
      </style><style
       id="current-color-scheme-10"
       type="text/css">
      .ColorScheme-Text {
        color:#122036;
      }
      </style><style
       id="current-color-scheme-5-7"
       type="text/css">
      .ColorScheme-Text {
        color:#122036;
      }
      </style><style
       id="current-color-scheme-1-2"
       type="text/css">
      .ColorScheme-Text {
        color:#122036;
      }
      </style><style
       type="text/css"
       id="current-color-scheme-10-9">
      .ColorScheme-Text {
        color:#122036;
      }
      </style></defs><g
     inkscape:label="Capa 1"
     inkscape:groupmode="layer"
     id="layer1"><g
       id="path3904-7-5" /><g
       id="g1"
       transform="translate(-22,6.0000005)"><path
         id="rect1345"
         style="fill:#137acb;fill-opacity:1;stroke-width:3.99999;stroke-linecap:round;stroke-linejoin:round;stroke-miterlimit:1.8;paint-order:fill markers stroke;stop-color:#000000"
         d="m 33,-5 c 3.878,0 7,3.122 7,7.0000002 v 5.9999993 c 0,3.8780005 -3.122,6.9999995 -7,6.9999995 -3.878,0 -7,-3.121999 -7,-6.9999995 V 2.0000002 C 26,-1.878 29.122,-5 33,-5 Z" /><path
         id="rect1399"
         style="fill:#44acff;fill-opacity:1;stroke-width:3.99999;stroke-linecap:round;stroke-linejoin:round;stroke-miterlimit:1.8;paint-order:fill markers stroke;stop-color:#000000"
         d="m 33,-3.9999999 c 3.324,0 6,2.6760001 6,6.0000001 V 7.9999995 C 39,11.324 36.324,14 33,14 29.676,14 27,11.324 27,7.9999995 V 2.0000002 c 0,-3.324 2.676,-6.0000001 6,-6.0000001 z" /><g
         id="path3904-7"
         style="fill:#e5f3ff;fill-opacity:1"
         transform="matrix(3.7795276,0,0,3.7795276,21,-6.9999999)"><path
           id="path4171"
           style="color:#000000;fill:#e5f3ff;fill-opacity:1;stroke-linecap:round;stroke-linejoin:round;stroke-miterlimit:1.8;paint-order:fill markers stroke"
           d="m 3.175,1.3239502 c -0.03455,-9.57e-5 -0.068783,0.00658 -0.1007691,0.019637 -0.099251,0.040644 -0.1641514,0.1371792 -0.164331,0.2444296 V 2.534729 L 2.5683187,2.1931478 c -0.049737,-0.049748 -0.1172386,-0.077641 -0.1875855,-0.077515 -0.070347,-1.266e-4 -0.137848,0.027766 -0.1875854,0.077515 -0.1039903,0.1034389 -0.1039903,0.271732 0,0.3751709 l 0.607198,0.607198 -0.607198,0.6056478 c -0.1039903,0.1034389 -0.1039903,0.271732 0,0.3751709 0.1034389,0.1039903 0.271732,0.1039903 0.3751709,0 L 2.9098999,3.8137207 v 0.9477457 c -3.681e-4,0.2358967 0.2847896,0.3543318 0.451652,0.1875855 L 4.1563354,4.1563354 c 0.1039755,-0.103445 0.1039755,-0.2717259 0,-0.3751709 L 3.644222,3.2706014 c -6.852e-4,-6.928e-4 -0.00137,-0.00138 -0.00207,-0.00207 -0.00476,-0.00572 -0.00976,-0.011237 -0.014986,-0.016536 L 3.5496541,3.1744832 4.1563354,2.5683187 c 0.1039755,-0.103445 0.1039755,-0.2717259 0,-0.3751709 L 3.3615519,1.4004313 C 3.3118978,1.3513176 3.2448404,1.3238259 3.175,1.3239502 Z"
           sodipodi:nodetypes="ccccccccccccccccccccccccc" /></g><g
         id="path4082-5"
         transform="matrix(3.7795276,0,0,3.7795276,21,-6.9999999)"><path
           style="color:#000000;fill:#1463bf;stroke-width:0.529167;stroke-linecap:round;stroke-linejoin:round;stroke-miterlimit:1.8;paint-order:fill markers stroke"
           d="M 3.175,3.175 2.38125,3.96875"
           id="path4156" /></g></g></g></svg>
