<?xml version="1.0" encoding="UTF-8" standalone="no"?>
<!-- Created with Inkscape (http://www.inkscape.org/) -->

<svg
   width="22"
   height="22"
   viewBox="0 0 22 22"
   version="1.1"
   id="svg5"
   inkscape:version="1.3.2 (091e20ef0f, 2023-11-25, custom)"
   sodipodi:docname="preferences-desktop-activities.svg"
   xml:space="preserve"
   xmlns:inkscape="http://www.inkscape.org/namespaces/inkscape"
   xmlns:sodipodi="http://sodipodi.sourceforge.net/DTD/sodipodi-0.dtd"
   xmlns="http://www.w3.org/2000/svg"
   xmlns:svg="http://www.w3.org/2000/svg"><sodipodi:namedview
     id="namedview7"
     pagecolor="#ffffff"
     bordercolor="#000000"
     borderopacity="0.25"
     inkscape:showpageshadow="false"
     inkscape:pageopacity="0.0"
     inkscape:pagecheckerboard="0"
     inkscape:deskcolor="#d1d1d1"
     inkscape:document-units="px"
     showgrid="true"
     inkscape:zoom="38.057742"
     inkscape:cx="4.6114139"
     inkscape:cy="8.224345"
     inkscape:window-width="2560"
     inkscape:window-height="1356"
     inkscape:window-x="0"
     inkscape:window-y="0"
     inkscape:window-maximized="1"
     inkscape:current-layer="g1"><inkscape:grid
       type="xygrid"
       id="grid3636"
       originx="0"
       originy="0"
       spacingy="1"
       spacingx="1"
       units="px"
       visible="true" /></sodipodi:namedview><defs
     id="defs2"><style
       type="text/css"
       id="current-color-scheme">
      .ColorScheme-Text {
        color:#36404d;
      }
      </style><style
       type="text/css"
       id="current-color-scheme-67">
      .ColorScheme-Text {
        color:#122036;
      }
      </style><style
       type="text/css"
       id="current-color-scheme-7">
      .ColorScheme-Text {
        color:#122036;
      }
      </style><style
       type="text/css"
       id="current-color-scheme-5">
      .ColorScheme-Text {
        color:#122036;
      }
      </style><style
       type="text/css"
       id="current-color-scheme-6">
      .ColorScheme-Text {
        color:#122036;
      }
      </style><style
       type="text/css"
       id="current-color-scheme-1">
      .ColorScheme-Text {
        color:#122036;
      }
      </style><style
       id="current-color-scheme-10"
       type="text/css">
      .ColorScheme-Text {
        color:#122036;
      }
      </style><style
       id="current-color-scheme-5-7"
       type="text/css">
      .ColorScheme-Text {
        color:#122036;
      }
      </style><style
       id="current-color-scheme-1-2"
       type="text/css">
      .ColorScheme-Text {
        color:#122036;
      }
      </style><style
       type="text/css"
       id="current-color-scheme-10-9">
      .ColorScheme-Text {
        color:#122036;
      }
      </style></defs><g
     inkscape:label="Capa 1"
     inkscape:groupmode="layer"
     id="layer1"><g
       id="g1"
       transform="translate(0.9999999)"><path
         id="rect1728"
         style="fill:#b1c1d4;fill-opacity:1;stroke-width:1.8;stroke-linecap:round;stroke-linejoin:round;stroke-miterlimit:1.8;paint-order:fill markers stroke;stop-color:#000000"
         d="M 2.7999998,1.9999997 H 17.199999 c 0.9972,0 1.800001,0.8028 1.800001,1.8 V 18.2 C 19,19.1972 18.197199,20 17.199999,20 H 2.7999998 c -0.9972,0 -1.79999994,-0.8028 -1.79999994,-1.8 V 3.7999997 c 0,-0.9972 0.80279994,-1.8 1.79999994,-1.8 z" /><path
         id="rect1728-7"
         style="fill:#ecf6ff;fill-opacity:1;stroke-width:1.77778;stroke-linecap:round;stroke-linejoin:round;stroke-miterlimit:1.8;paint-order:fill markers stroke;stop-color:#000000"
         d="M 2.8888885,3.0000013 H 17.111111 C 17.603555,3.0000013 18,3.3964457 18,3.8888899 V 18.111109 c 0,0.492444 -0.396445,0.888889 -0.888889,0.888889 H 2.8888885 c -0.4924442,0 -0.8888886,-0.396445 -0.8888886,-0.888889 V 3.8888899 c 0,-0.4924442 0.3964444,-0.8888886 0.8888886,-0.8888886 z" /><path
         id="rect2556"
         style="fill:#c74343;fill-opacity:1;stroke-width:1.5;stroke-linecap:round;stroke-linejoin:round;stroke-miterlimit:1.8;paint-order:fill markers stroke;stop-color:#000000"
         d="m 10,7.9999997 c 1.662,0 3,1.3379999 3,2.9999993 C 13,12.662 11.662,14 10,14 8.3380002,14 7.0000003,12.662 7.0000003,10.999999 7.0000003,9.3379996 8.3380002,7.9999997 10,7.9999997 Z" /><path
         id="rect2556-5"
         style="fill:#1d86d9;fill-opacity:1;stroke-width:1.5;stroke-linecap:round;stroke-linejoin:round;stroke-miterlimit:1.8;paint-order:fill markers stroke;stop-color:#000000"
         d="m 3.0000015,8.0000005 c 1.6619999,0 2.9999998,1.338 2.9999998,3.0000005 0,1.662 -1.3379999,3 -2.9999998,3 -1.6620002,0 -3.0000002,-1.338 -3.0000002,-3 0,-1.6620005 1.338,-3.0000005 3.0000002,-3.0000005 z" /><path
         id="rect2556-5-5"
         style="fill:#44acff;fill-opacity:1;stroke-width:1;stroke-linecap:round;stroke-linejoin:round;stroke-miterlimit:1.8;paint-order:fill markers stroke;stop-color:#000000"
         d="m 3.0000009,8.9999996 c 1.108,0 2,0.892 2,2.0000004 0,1.108 -0.892,2 -2,2 -1.108,0 -2,-0.892 -2,-2 0,-1.1080004 0.892,-2.0000004 2,-2.0000004 z" /><path
         id="rect2556-5-5-2"
         style="fill:#f78f8f;fill-opacity:1;stroke-width:1;stroke-linecap:round;stroke-linejoin:round;stroke-miterlimit:1.8;paint-order:fill markers stroke;stop-color:#000000"
         d="m 10,8.9999996 c 1.108,0 2,0.892 2,2.0000004 0,1.108 -0.892,2 -2,2 -1.1079998,0 -1.9999998,-0.892 -1.9999998,-2 0,-1.1080004 0.892,-2.0000004 1.9999998,-2.0000004 z" /><path
         id="rect2556-3"
         style="fill:#5e9c76;fill-opacity:1;stroke-width:1.5;stroke-linecap:round;stroke-linejoin:round;stroke-miterlimit:1.8;paint-order:fill markers stroke;stop-color:#000000"
         d="m 16.999999,8.0000007 c 1.662,0 3,1.3380001 3,3.0000003 0,1.662 -1.338,3 -3,3 -1.662,0 -3,-1.338 -3,-3 0,-1.6620002 1.338,-3.0000002 3,-3.0000003 z" /><path
         id="rect2556-5-5-2-9"
         style="fill:#bae0bd;fill-opacity:1;stroke-width:1;stroke-linecap:round;stroke-linejoin:round;stroke-miterlimit:1.8;paint-order:fill markers stroke;stop-color:#000000"
         d="m 16.999998,8.9999999 c 1.108,0 2,0.892 2,2.0000001 0,1.108 -0.892,2 -2,2 -1.108,0 -2,-0.892 -2,-2 0,-1.1080001 0.892,-2.0000001 2,-2.0000001 z" /></g></g></svg>
