<svg height="64" viewBox="0 0 64 64" width="64" xmlns="http://www.w3.org/2000/svg"><g transform="translate(-60 -35)"><path d="m77 36h30c2.216 0 4 1.784 4 4v54c0 2.216-1.784 4-4 4h-30c-2.216 0-4-1.784-4-4v-54c0-2.216 1.784-4 4-4z" fill="#363c4d"/><path d="m77 37h30c1.662 0 3 1.338 3 3v54c0 1.662-1.338 3-3 3h-30c-1.662 0-3-1.338-3-3v-54c0-1.662 1.338-3 3-3z" fill="#4b6377"/><path d="m77 38h30c1.108 0 2 .892 2 2v54.00001c0 1.108-.892 2-2 2h-30c-1.108 0-2-.892-2-2v-54.00001c0-1.108.892-2 2-2z" fill="#ff778a"/><rect fill="#363c4d" height="2.000003" ry=".983427" stroke-width="2" width="19" x="82.5" y="92.000008"/><path d="m88.5 40.00001c-.813687 0-1.46875.65506-1.46875 1.46875v.0625c0 .81368.655063 1.46875 1.46875 1.46875s1.46875-.65507 1.46875-1.46875v-.0625c0-.81369-.655063-1.46875-1.46875-1.46875zm3.9375 0c-.813687 0-1.46875.65506-1.46875 1.46875v.0625c0 .81368.655063 1.46875 1.46875 1.46875h3.0625c.813687 0 1.46875-.65507 1.46875-1.46875v-.0625c0-.81369-.655063-1.46875-1.46875-1.46875z" fill="#363c4d" stroke-width="2"/><path d="m91.962891 55c-.349886.0127-.667692.207712-.837891.513672l-9.998047 18c-.370495.666619.110388 1.486368.873047 1.486328h20c.76266.00004 1.2455-.819709.875-1.486328l-10-18c-.182844-.32871-.536223-.527432-.912109-.513672zm.037109 7c.553998 0 1 .446001 1 1v5c0 .553999-.446002 1-1 1s-1-.446001-1-1v-5c0-.553999.446002-1 1-1zm0 8c.553998 0 1 .446001 1 1s-.446002 1-1 1-1-.446001-1-1 .446002-1 1-1zm-13.320312 14c-.376734 0-.679688.302958-.679688.679688v2.640624c0 .37673.302955.679688.679688.679688h2.640624c.376734 0 .679688-.302958.679688-.679688v-2.640624c0-.37673-.302954-.679688-.679688-.679688zm6 0c-.376734 0-.679688.302958-.679688.679688v2.640624c0 .37673.302955.679688.679688.679688h2.640624c.376734 0 .679688-.302958.679688-.679688v-2.640624c0-.37673-.302954-.679688-.679688-.679688zm6 0c-.376734 0-.679688.302958-.679688.679688v2.640624c0 .37673.302955.679688.679688.679688h2.640624c.376733 0 .679688-.302958.679688-.679688v-2.640624c0-.37673-.302955-.679688-.679688-.679688zm6 0c-.376735 0-.679688.302958-.679688.679688v2.640624c0 .37673.302954.679688.679688.679688h2.640624c.376733 0 .679688-.302958.679688-.679688v-2.640624c0-.37673-.302955-.679688-.679688-.679688zm6.000002 0c-.37674 0-.67969.302958-.67969.679688v2.640624c0 .37673.30295.679688.67969.679688h2.64062c.37674 0 .67969-.302958.67969-.679688v-2.640624c0-.37673-.30295-.679688-.67969-.679688z" fill="#d7304a"/></g></svg>