<svg height="64" viewBox="0 0 64 64" width="64" xmlns="http://www.w3.org/2000/svg"><g transform="matrix(.99999999606 0 0 .99999999606 38.00000108909 -256.64998885808)"><path d="m-21 257.64999h30c2.216 0 4 1.784 4 4v54c0 2.216-1.784 4-4 4h-30c-2.216 0-4-1.784-4-4v-54c0-2.216 1.784-4 4-4z" fill="#363c4d"/><path d="m-21 258.64999h30c1.662 0 3 1.338 3 3v54c0 1.662-1.338 3-3 3h-30c-1.662 0-3-1.338-3-3v-54c0-1.662 1.338-3 3-3z" fill="#4b6377"/></g><g stroke-linecap="round" stroke-linejoin="round" transform="matrix(.99999999606 0 0 .99999999606 .00000123879 -250.64998888171)"><path d="m17 253.64999h30c1.108 0 2 .892 2 2v54.00001c0 1.108-.892 2-2 2h-30c-1.108 0-2-.892-2-2v-54.00001c0-1.108.892-2 2-2z" fill="#60b6fe"/><path d="m23.483427 307.64999h17.033146c.544819 0 .983427.43861.983427.98343v.0331c0 .54482-.438608.98343-.983427.98343h-17.033146c-.544819.00005-.983427-.43856-.983427-.98338v-.0331c0-.54482.438608-.98343.983427-.98343z" fill="#363c4d" stroke-width="2"/><path d="m28.5 255.65c-.813687 0-1.46875.65506-1.46875 1.46875v.0625c0 .81368.655063 1.46875 1.46875 1.46875s1.46875-.65507 1.46875-1.46875v-.0625c0-.81369-.655063-1.46875-1.46875-1.46875zm3.9375 0c-.813687 0-1.46875.65506-1.46875 1.46875v.0625c0 .81368.655063 1.46875 1.46875 1.46875h3.0625c.813687 0 1.46875-.65507 1.46875-1.46875v-.0625c0-.81369-.655063-1.46875-1.46875-1.46875z" fill="#363c4d" stroke-width="2"/><path d="m32 268.64999c-3.877992 0-7 3.122-7 7v2c-1.108008 0-2 .89199-2 2v11c0 1.10801.891992 2 2 2h14c1.108008 0 2-.89199 2-2v-11c0-1.10801-.891992-2-2-2v-2c0-3.878-3.122008-7-7-7zm0 3c2.215996 0 4 1.784 4 4v2h-8v-2c0-2.216 1.784004-4 4-4zm0 10c1.107994 0 2 .892 2 2 0 .74107-.404205 1.37905-1 1.72461v3.27539h-2v-3.27539c-.595795-.34556-1-.98354-1-1.72461 0-1.108.892006-2 2-2zm-13.320313 18c-.376732 0-.679687.30296-.679687.67969v2.64062c0 .37673.302955.67969.679687.67969h2.640625c.376734 0 .679688-.30296.679688-.67969v-2.64062c0-.37673-.302954-.67969-.679688-.67969zm6 0c-.376732 0-.679687.30296-.679687.67969v2.64062c0 .37673.302955.67969.679687.67969h2.640625c.376734 0 .679688-.30296.679688-.67969v-2.64062c0-.37673-.302954-.67969-.679688-.67969zm6 0c-.376732 0-.679687.30296-.679687.67969v2.64062c0 .37673.302955.67969.679687.67969h2.640626c.376732 0 .679687-.30296.679687-.67969v-2.64062c0-.37673-.302955-.67969-.679687-.67969zm6.000001 0c-.376734 0-.679688.30296-.679688.67969v2.64062c0 .37673.302954.67969.679688.67969h2.640625c.376732 0 .679687-.30296.679687-.67969v-2.64062c0-.37673-.302955-.67969-.679687-.67969zm6 0c-.376734 0-.679688.30296-.679688.67969v2.64062c0 .37673.302954.67969.679688.67969h2.640625c.376732 0 .679687-.30296.679687-.67969v-2.64062c0-.37673-.302955-.67969-.679687-.67969z" fill="#3173c9"/></g></svg>