<svg
    height="96"
    viewBox="0 0 25.399999 25.4"
    width="96"
    xmlns="http://www.w3.org/2000/svg">
    <defs id="kuyenfoldercolor">
    <style type="text/css" id="current-color-scheme">
      .ColorScheme-Highlight {
        color:#03b2fe;
      }
      </style>
  </defs>
    <g
        stroke-linecap="round"
        stroke-linejoin="round"
        stroke-miterlimit="1.8">
        <g
            stroke-width="1.33333"
            transform="matrix(.39687498955 0 0 .39687498955 -2.3812499973 -136.38608957054)">
            <path
                d="m11.333338 345.64998 15.333329.00001c6.000001 0 8.666665 8 13.333333 8l24.666662-.00001c2.954671 0 5.333338 2.37867 5.333338 5.33334v33.33336c0 2.95466-2.378667 5.33334-5.333338 5.33334h-53.333324c-2.9546681 0-5.3333384-2.37868-5.3333384-5.33334v-41.33336c0-2.95467 2.3786703-5.33334 5.3333384-5.33334z"
                style="fill:currentColor"
                class="ColorScheme-Highlight"/>
            <path
                d="m11.333327 346.31668 15.333342-.00001c5.333331 0 8 8 13.333331 8l24.66667.00001c2.585331 0 4.66666 2.08133 4.66666 4.66667v33.33332c0 2.58533-2.081329 4.66666-4.66666 4.66666h-53.333343c-2.5853284 0-4.6666599-2.08133-4.6666599-4.66666v-41.33332c0-2.58535 2.0813315-4.66667 4.6666599-4.66667z"
                fill="#fff"
                fill-opacity=".09"/>
            <path
                d="m11.333333 345.64998c-2.9546684 0-5.3333334 2.37867-5.3333334 5.33334v41.33333c0 2.95467 2.378665 5.33333 5.3333334 5.33333h53.333334c2.954658 0 5.333328-2.37866 5.333328-5.33333v-33.33333c0-2.95467-2.37867-5.33334-5.333328-5.33334h-24.666672c-4.66665 0-7.33334-8-13.333331-8zm0 .66667h15.333331c5.333331 0 8.000011 8 13.333331 8h24.666672c2.585329 0 4.666668 2.08133 4.666668 4.66667v33.33333c0 2.58533-2.081339 4.66667-4.666668 4.66667h-53.333334c-2.5853312 0-4.6666681-2.08134-4.6666681-4.66667v-41.33333c0-2.58534 2.0813369-4.66667 4.6666681-4.66667z"
                fill-opacity=".2"/>
            <path
                d="m11.333338 361.64998 15.999994.00001c5.333336 0 7.333335-8 12.666668-8l24.666662-.00001c2.954671 0 5.333338 2.37867 5.333338 5.33334v41.33336c0 2.95467-2.378667 5.33334-5.333338 5.33334h-53.333324c-2.9546681 0-5.3333384-2.37867-5.3333384-5.33334v-33.33336c0-2.95467 2.3786703-5.33334 5.3333384-5.33334z"
                style="fill:currentColor"
                class="ColorScheme-Highlight"/>
            <path
                d="m40 354.31667c-4.66664 0-6.666703 8-12.666667 8h-16c-2.5853152 0-4.6666667 2.08136-4.6666667 4.66666v33.33334c0 2.58528 2.0813515 4.66666 4.6666667 4.66666h53.333334c2.585311 0 4.666666-2.08138 4.666666-4.66666v-41.33334c0-2.5853-2.081355-4.66666-4.666666-4.66666zm-9.997396 15.33333c2.573791 0 4.666667 2.09287 4.666667 4.66667 0 2.57378-2.092876 4.66666-4.666667 4.66666-2.573792 0-4.666667-2.09288-4.666667-4.66666 0-2.5738 2.092876-4.66667 4.666667-4.66667zm13.335938 10c.226995.00085.437964.11713.559895.30859l9.333334 14.66667c.282523.44387-.036343 1.02477-.5625 1.02474h-29.333334c-.557299.00091-.869698-.64172-.524739-1.07943l7.333333-9.33333c.257082-.3271.747668-.34147 1.023438-.02995l4.834635 5.10938 6.773438-10.36198c.123351-.19076.335338-.30536.5625-.30469z"
                fill="#fff"
                fill-opacity=".3"/>
            <path
                d="m40 353.65c-5.33332 0-7.333329 8-12.66667 8h-15.999999c-2.954663 0-5.3333306 2.37866-5.3333306 5.33333v33.33333c0 2.95467 2.3786676 5.33334 5.3333306 5.33334h53.333339c2.95466 0 5.33333-2.37867 5.33333-5.33334v-41.33333c0-2.95467-2.37867-5.33333-5.33333-5.33333zm0 .66666h24.66667c2.58532 0 4.66666 2.08133 4.66666 4.66667v41.33333c0 2.58533-2.08134 4.66667-4.66666 4.66667h-53.333339c-2.5853258 0-4.6666626-2.08134-4.6666626-4.66667v-33.33333c0-2.58534 2.0813368-4.66667 4.6666626-4.66667h15.999999c6.000001 0 8.00001-8 12.66667-8z"
                fill-opacity=".15"/>
            </g>
            <path
                d="m-103.16603 215.10501c-3.86069 0-7 3.1393-7 7 0 3.86068 3.13931 7 7 7 3.860689 0 6.999999-3.13932 6.999999-7 0-3.8607-3.13931-7-6.999999-7zm20.003905 15c-.340743-.001-.658723.1709-.84375.45703l-10.160157 15.54297-7.251948-7.66406c-.41366-.46728-1.14954-.44575-1.53516.0449l-11 14c-.51744.65656-.0488 1.6205.78711 1.61914h43.999999c.789237.00004 1.267536-.8713.84375-1.53711l-14.000001-22c-.182896-.2872-.49935-.46162-.839843-.46289z"
                fill-opacity=".2"
                stroke-width="2"
                transform="matrix(.26458332799 0 0 .26458332799 36.82196220661 -46.59444962172)"/>
            </g>
            </svg>
