<svg
    height="96"
    viewBox="0 0 96 96"
    width="96"
    xmlns="http://www.w3.org/2000/svg">
    <defs id="kuyenfoldercolor">
    <style type="text/css" id="current-color-scheme">
      .ColorScheme-Highlight {
        color:#03b2fe;
      }
      </style>
  </defs>
    <g
        transform="matrix(.39687499 0 0 .39687499 -2.11666648104 -136.38608646687)">
        <g
            stroke-linecap="round"
            stroke-linejoin="round"
            stroke-miterlimit="1.8"
            stroke-width="5.03936">
            <path
                d="m25.49083 351.20898 57.95274.00004c22.67717 0 32.7559 30.23622 50.3937 30.23622l93.22833-.00004c11.16726 0 20.1575 8.99025 20.1575 20.15751v125.98433c0 11.16725-8.99024 20.15751-20.1575 20.15751h-201.57477c-11.16725 0-20.1575-8.99026-20.1575-20.15751v-156.22055c0-11.16726 8.99025-20.15751 20.1575-20.15751z"
                style="fill:currentColor"
                class="ColorScheme-Highlight"/>
            <path
                d="m25.490788 353.72877 57.95279-.00004c20.157472 0 30.236222 30.23622 50.393692 30.23622l93.22836.00004c9.77133 0 17.63777 7.86645 17.63777 17.63781v125.98421c0 9.77132-7.86644 17.63777-17.63777 17.63777h-201.574842c-9.77132 0-17.6377698-7.86645-17.6377698-17.63777v-156.22043c0-9.77137 7.8664498-17.63781 17.6377698-17.63781z"
                fill="#fff"
                fill-opacity=".09"/>
            <path
                d="m25.49081 351.20898c-11.16725 0-20.15748 8.99025-20.15748 20.15751v156.22046c0 11.16726 8.99023 20.15747 20.15748 20.15747h201.57481c11.16721 0 20.15746-8.99021 20.15746-20.15747v-125.98424c0-11.16726-8.99025-20.15751-20.15746-20.15751h-93.22837c-17.63773 0-27.71656-30.23622-50.39369-30.23622zm0 2.5197h57.95275c20.15747 0 30.23626 30.23622 50.39369 30.23622h93.22837c9.77132 0 17.6378 7.86645 17.6378 17.63781v125.98424c0 9.77133-7.86648 17.63781-17.6378 17.63781h-201.57481c-9.77133 0-17.6378-7.86648-17.6378-17.63781v-156.22046c0-9.77137 7.86647-17.63781 17.6378-17.63781z"
                fill-opacity=".2"/>
            <path
                d="m25.49083 411.68142 60.47242.00004c20.15749 0 27.71654-30.23622 47.87402-30.23622l93.22833-.00004c11.16726 0 20.1575 8.99025 20.1575 20.15751v156.22055c0 11.16726-8.99024 20.15751-20.1575 20.15751h-201.57477c-11.16725 0-20.1575-8.99025-20.1575-20.15751v-125.98433c0-11.16726 8.99025-20.15751 20.1575-20.15751z"
                style="fill:currentColor"
                class="ColorScheme-Highlight"/>
            <path
                d="m133.83727 383.96495c-17.63776 0-25.19689 30.23622-47.874014 30.23622h-60.472442c-9.77131 0-17.6377958 7.86646-17.6377958 17.6378v125.98425c0 9.77131 7.8664858 17.6378 17.6377958 17.6378h201.574806c9.7713 0 17.6378-7.86649 17.6378-17.6378v-156.22047c0-9.77134-7.8665-17.6378-17.6378-17.6378zm-20.15748 68.0315h26.38288l-13.78445 20.15748zm-7.55905 2.51968 15.11811 22.67717-20.15748 32.75591h-27.716539zm37.79527 0 32.75591 55.43308h-27.71654l-20.15748-32.75591zm-70.551179 60.47245h25.196851l-12.598426 20.15748zm32.755909 0h37.79527l12.59843 20.15748h-62.992128zm45.35433 0h25.19685l-12.59843 20.15748z" fill="#fff"
                fill-opacity=".3"/>
            <path
                d="m133.83727 381.44527c-20.15743 0-27.71652 30.23623-47.874027 30.23623h-60.47244c-11.16723 0-20.1574699 8.99021-20.1574699 20.15746v125.98425c0 11.16726 8.9902399 20.1575 20.1574699 20.1575h201.574827c11.16722 0 20.15747-8.99024 20.15747-20.1575v-156.22047c0-11.16725-8.99025-20.15747-20.15747-20.15747zm0 2.51966h93.22836c9.77129 0 17.63777 7.86645 17.63777 17.63781v156.22047c0 9.77132-7.86648 17.63781-17.63777 17.63781h-201.574827c-9.77131 0-17.6377799-7.86649-17.6377799-17.63781v-125.98425c0-9.77136 7.8664699-17.6378 17.6377799-17.6378h60.47244c22.677167 0 30.236257-30.23623 47.874027-30.23623z"
                fill-opacity=".15"/>
            </g>
            <path
                d="m113.67979 451.99645 12.59843 20.15748 13.78444-20.15748zm-7.55905 2.51969-32.755911 55.43307h27.716541l20.15748-32.75591zm37.79527 0-15.11811 22.67716 20.15748 32.75591h27.71654zm-70.551181 60.47244 12.59843 20.15748 12.59842-20.15748zm32.755911 0-12.598431 20.15748h62.992131l-12.59843-20.15748zm45.35433 0 12.59842 20.15748 12.59843-20.15748z" fill-opacity=".2"/>
            </g>
            </svg>
