<?xml version="1.0" encoding="UTF-8" standalone="no"?>
<!-- Created with Inkscape (http://www.inkscape.org/) -->

<svg
   width="96"
   height="96"
   viewBox="0 0 96 96"
   version="1.1"
   id="svg1"
   inkscape:version="1.3.2 (091e20ef0f, 2023-11-25, custom)"
   sodipodi:docname="folder-github.svg"
   xmlns:inkscape="http://www.inkscape.org/namespaces/inkscape"
   xmlns:sodipodi="http://sodipodi.sourceforge.net/DTD/sodipodi-0.dtd"
   xmlns="http://www.w3.org/2000/svg"
   xmlns:svg="http://www.w3.org/2000/svg">
   <defs id="kuyenfoldercolor">
    <style type="text/css" id="current-color-scheme">
      .ColorScheme-Highlight {
        color:#03b2fe;
      }
      </style>
  </defs>
  <sodipodi:namedview
     id="namedview1"
     pagecolor="#ffffff"
     bordercolor="#000000"
     borderopacity="0.25"
     inkscape:showpageshadow="false"
     inkscape:pageopacity="0.0"
     inkscape:pagecheckerboard="true"
     inkscape:deskcolor="#d1d1d1"
     inkscape:document-units="px"
     inkscape:zoom="5.8054181"
     inkscape:cx="51.675865"
     inkscape:cy="58.135348"
     inkscape:window-width="1469"
     inkscape:window-height="1243"
     inkscape:window-x="0"
     inkscape:window-y="0"
     inkscape:window-maximized="0"
     inkscape:current-layer="layer1" />
  <defs
     id="defs1" />
  <g
     inkscape:label="Capa 1"
     inkscape:groupmode="layer"
     id="layer1">
    <path
       d="m 8.000008,2.999975 22.999993,1.6e-5 c 9.000002,0 12.999997,12 19.999999,12 l 36.99999,-1.6e-5 C 92.432,14.999975 96,18.56798 96,22.999987 v 50.000028 c 0,4.432 -3.568,8.00001 -8.00001,8.00001 H 8.000008 C 3.568006,81.000025 0,77.432015 0,73.000015 V 10.999987 C 0,6.567981 3.568006,2.999975 8.000008,2.999975 Z"
       style="fill:currentColor"
       class="ColorScheme-Highlight"/>
    <path
       d="m 7.999991,4.000027 23.000013,-1.6e-5 c 7.999997,0 12,12 19.999996,12 l 37,1.6e-5 c 3.878,0 6.99999,3.121997 6.99999,7.000005 v 49.999982 c 0,3.877993 -3.12199,6.99999 -6.99999,6.99999 H 7.999991 c -3.877992,0 -6.999989,-3.121997 -6.999989,-6.99999 V 11.000033 c 0,-3.878013 3.121997,-7.000006 6.999989,-7.000006 z"
       fill="#ffffff"
       fill-opacity="0.09"
       id="path2"
       style="stroke-width:0.396875" />
    <path
       d="m 8,2.999985 c -4.432002,0 -8,3.568006 -8,8.000012 v 61.999994 c 0,4.432006 3.567998,7.999995 8,7.999995 h 80 c 4.43199,0 7.99999,-3.567989 7.99999,-7.999995 V 22.999997 c 0,-4.432007 -3.568,-8.000012 -7.99999,-8.000012 H 50.999992 c -6.999974,0 -11.000009,-12 -19.999995,-12 z m 0,1.000006 h 22.999997 c 7.999996,0 12.000015,12 19.999995,12 H 88 c 3.87799,0 7,3.121997 7,7.000006 v 49.999994 c 0,3.877996 -3.12201,7.000005 -7,7.000005 H 8 c -3.877997,0 -7.000002,-3.122009 -7.000002,-7.000005 V 10.999997 C 0.999998,7.121985 4.122003,3.999991 8,3.999991 Z"
       fill-opacity="0.2"
       id="path3"
       style="stroke-width:0.396875" />
    <path
       d="m 8.000008,26.999974 23.999991,1.6e-5 C 40.000003,26.99999 43.000001,14.999991 51,14.999991 l 36.99999,-1.6e-5 C 92.432,14.999975 96,18.56798 96,22.999987 v 62.000028 c 0,4.43201 -3.568,8.00001 -8.00001,8.00001 H 8.000008 C 3.568006,93.000025 0,89.432025 0,85.000015 V 34.999986 C 0,30.56798 3.568006,26.999974 8.000008,26.999974 Z"
       style="fill:currentColor"
       class="ColorScheme-Highlight"/>
    <path
       id="path5"
       style="stroke-width:0.396875;fill:#ffffff;fill-opacity:0.30000001"
       d="M 51 16 C 44.000005 16 40.999991 28 32 28 L 8 28 C 4.1220079 28 1 31.121995 1 35 L 1 85 C 1 88.877992 4.1220079 92 8 92 L 88 92 C 91.877986 92 95 88.877992 95 85 L 95 23 C 95 19.121996 91.877986 16 88 16 L 51 16 z M 30.933594 41.001953 C 31.273216 40.989944 31.623914 41.064628 31.957031 41.246094 L 40.765625 46.050781 C 41.173865 46.021681 41.58411 46.001953 42 46.001953 L 53 46.001953 C 53.10358 46.001953 53.205544 46.008266 53.308594 46.009766 L 62.042969 41.246094 C 62.313388 41.098704 62.614165 41.015906 62.921875 41.003906 C 64.056004 40.959686 64.99965 41.866949 65 43.001953 L 65 50.941406 C 68.090597 54.016478 70 58.277498 70 63.001953 C 70 72.419934 62.418021 80.001953 53 80.001953 L 42 80.001953 C 32.581999 80.001953 25 72.419934 25 63.001953 C 25 58.811512 26.504098 54.986634 29 52.029297 L 29 43.001953 C 29.000567 41.863938 29.914726 41.037981 30.933594 41.001953 z " />
    <path
       d="m 51,15.000013 c -7.99998,0 -10.999993,12.000003 -19.000004,12.000003 H 7.999997 c -4.431994,0 -7.999995,3.56799 -7.999995,7.999992 v 49.999998 c 0,4.432009 3.568001,8.000009 7.999995,8.000009 H 88 c 4.43199,0 8,-3.568 8,-8.000009 V 23.000008 c 0,-4.432002 -3.56801,-7.999995 -8,-7.999995 z m 0,0.99999 h 37 c 3.87799,0 6.99999,3.121997 6.99999,7.000005 v 61.999998 c 0,3.877992 -3.122,7.000009 -6.99999,7.000009 H 7.999997 c -3.877988,0 -6.999994,-3.122017 -6.999994,-7.000009 V 35.000008 c 0,-3.878008 3.122006,-7.000002 6.999994,-7.000002 H 31.999996 C 40.999997,28.000006 44.00001,16.000003 51,16.000003 Z"
       fill-opacity="0.15"
       id="path6"
       style="stroke-width:0.396875" />
    <path
       id="rect1912"
       style="fill:#000000;fill-opacity:0.2;stroke-width:1.99999;stroke-linecap:round;stroke-linejoin:round;stroke-miterlimit:1.8;paint-order:fill markers stroke;stop-color:#000000"
       d="m 62.92196,41.003967 c -0.30771,0.012 -0.60849,0.0948 -0.87891,0.24219 l -8.7344,4.76367 c -0.10305,-0.0015 -0.20502,-0.0075 -0.3086,-0.0075 H 42.00003 c -0.41589,0 -0.82614,0.0198 -1.23438,0.0489 L 31.95704,41.246532 C 30.62457,40.520667 29.00075,41.484672 29,43.002027 v 9.027345 c -2.4959,2.95734 -4,6.782205 -4,10.97265 0,9.41799 7.58202,16.999995 17.00003,16.999995 h 11.00002 c 9.41803,0 17.00005,-7.582005 17.00005,-16.999995 0,-4.72446 -1.90942,-8.98548 -5.00002,-12.060555 v -7.93944 c -3.5e-4,-1.135005 -0.94399,-2.04228 -2.07812,-1.99806 z"
       sodipodi:nodetypes="sccssccccssssccs" />
  </g>
</svg>
