<svg height="96" viewBox="0 0 25.399999 25.4" width="96" xmlns="http://www.w3.org/2000/svg"><defs id="kuyenfoldercolor">
    <style type="text/css" id="current-color-scheme">
      .ColorScheme-Highlight {
        color:#03b2fe;
      }
      </style>
  </defs><g stroke-linecap="round" stroke-linejoin="round" stroke-miterlimit="1.8" stroke-width="1.33333" transform="matrix(.39687499 0 0 .39687499 -2.38124994 -136.38609003875)"><path d="m11.333338 345.64998 15.333329.00001c6.000001 0 8.666665 8 13.333333 8l24.666662-.00001c2.954671 0 5.333338 2.37867 5.333338 5.33334v33.33336c0 2.95466-2.378667 5.33334-5.333338 5.33334h-53.333324c-2.9546681 0-5.3333384-2.37868-5.3333384-5.33334v-41.33336c0-2.95467 2.3786703-5.33334 5.3333384-5.33334z" style="fill:currentColor"
class="ColorScheme-Highlight"/><path d="m11.333327 346.31668 15.333342-.00001c5.333331 0 8 8 13.333331 8l24.66667.00001c2.585331 0 4.66666 2.08133 4.66666 4.66667v33.33332c0 2.58533-2.081329 4.66666-4.66666 4.66666h-53.333343c-2.5853284 0-4.6666599-2.08133-4.6666599-4.66666v-41.33332c0-2.58535 2.0813315-4.66667 4.6666599-4.66667z" fill="#fff" fill-opacity=".09"/><path d="m11.333333 345.64998c-2.9546684 0-5.3333334 2.37867-5.3333334 5.33334v41.33333c0 2.95467 2.378665 5.33333 5.3333334 5.33333h53.333334c2.954658 0 5.333328-2.37866 5.333328-5.33333v-33.33333c0-2.95467-2.37867-5.33334-5.333328-5.33334h-24.666672c-4.66665 0-7.33334-8-13.333331-8zm0 .66667h15.333331c5.333331 0 8.000011 8 13.333331 8h24.666672c2.585329 0 4.666668 2.08133 4.666668 4.66667v33.33333c0 2.58533-2.081339 4.66667-4.666668 4.66667h-53.333334c-2.5853312 0-4.6666681-2.08134-4.6666681-4.66667v-41.33333c0-2.58534 2.0813369-4.66667 4.6666681-4.66667z" fill-opacity=".2"/><path d="m11.333338 361.64998 15.999994.00001c5.333336 0 7.333335-8 12.666668-8l24.666662-.00001c2.954671 0 5.333338 2.37867 5.333338 5.33334v41.33336c0 2.95467-2.378667 5.33334-5.333338 5.33334h-53.333324c-2.9546681 0-5.3333384-2.37867-5.3333384-5.33334v-33.33336c0-2.95467 2.3786703-5.33334 5.3333384-5.33334z" style="fill:currentColor"
class="ColorScheme-Highlight"/><path d="m40 354.31667c-4.666631 0-6.666715 8-12.666667 8h-16c-2.5853099 0-4.6666665 2.08137-4.6666665 4.66666v33.33334c0 2.58526 2.0813566 4.66666 4.6666665 4.66666h53.333334c2.585305 0 4.666667-2.0814 4.666667-4.66666v-41.33334c0-2.58529-2.081362-4.66666-4.666667-4.66666zm-8.498698 14.67187h.001302a2.6666707 2.6666707 0 0 1 1.308594.44141l12.427083 8.28515c3.96674 1.55209 6.761719 5.40521 6.761719 9.9349 0 5.90929-4.757376 10.66667-10.666667 10.66667-5.240917 0-9.574754-3.74205-10.488281-8.71094l-3.94401 2.86979a2.6666707 2.6666707 0 0 1 -.101563.0612 2.6666666 2.6666666 0 0 1 -.190104.11458 2.6666707 2.6666707 0 0 1 -.169271.08854 2.6666666 2.6666666 0 0 1 -.291667.11198 2.6666707 2.6666707 0 0 1 -.183593.05078 2.6666666 2.6666666 0 0 1 -.283854.05469 2.6666707 2.6666707 0 0 1 -.167969.01432 2.6666666 2.6666666 0 0 1 -.276042.00521 2.6666707 2.6666707 0 0 1 -.139323-.00651 2.6666666 2.6666666 0 0 1 -.355469-.05599 2.6666707 2.6666707 0 0 1 -.122395-.03125 2.6666666 2.6666666 0 0 1 -.322917-.11198 2.6666707 2.6666707 0 0 1 -.113281-.05338 2.6666666 2.6666666 0 0 1 -.287761-.15886 2.6666707 2.6666707 0 0 1 -.079427-.05078 2.6666666 2.6666666 0 0 1 -.335937-.27213 2.6666666 2.6666666 0 0 1 -.231771-.25261 2.6666666 2.6666666 0 0 1 -.048177-.06901 2.6666707 2.6666707 0 0 1 -.02474-.02864 2.6666707 2.6666707 0 0 1 -.032552-.05339 2.6666666 2.6666666 0 0 1 -.171875-.28646 2.6666707 2.6666707 0 0 1 -.049479-.09635 2.6666666 2.6666666 0 0 1 -.234375-.81771 2.6666707 2.6666707 0 0 1 -.007813-.08984 2.6666666 2.6666666 0 0 1 -.005208-.36328 2.6666707 2.6666707 0 0 1 .001302-.07292 2.6666666 2.6666666 0 0 1 .210938-.84636 2.6666707 2.6666707 0 0 1 .03125-.0651 2.6666666 2.6666666 0 0 1 .177083-.32161 2.6666707 2.6666707 0 0 1 .045573-.06901 2.6666666 2.6666666 0 0 1 .273437-.33855 2.6666666 2.6666666 0 0 1 .252605-.23177l7.394531-5.91536h-7.059896a2.6666707 2.6666707 0 0 1 -2.667969-2.66667 2.6666707 2.6666707 0 0 1 2.667969-2.66797h10.522135l-4.670572-3.11458a2.6666707 2.6666707 0 0 1 -.738282-3.69662 2.6666707 2.6666707 0 0 1 1.692709-1.13671 2.6666707 2.6666707 0 0 1 .69401-.04688zm9.830729 11.32813c-4.062653 0-7.333333 3.27068-7.333333 7.33333 0 4.06266 3.27068 7.33333 7.333333 7.33333 4.062658 0 7.333334-3.27067 7.333334-7.33333 0-4.06265-3.270676-7.33333-7.333334-7.33333zm0 2.66666c2.585326 0 4.666667 2.08134 4.666667 4.66667 0 2.58532-2.081341 4.66667-4.666667 4.66667-2.585325 0-4.666666-2.08135-4.666666-4.66667 0-2.58533 2.081341-4.66667 4.666666-4.66667z" fill="#fff" fill-opacity=".3"/><path d="m40 353.65c-5.33332 0-7.333329 8-12.66667 8h-15.999999c-2.954663 0-5.3333306 2.37866-5.3333306 5.33333v33.33333c0 2.95467 2.3786676 5.33334 5.3333306 5.33334h53.333339c2.95466 0 5.33333-2.37867 5.33333-5.33334v-41.33333c0-2.95467-2.37867-5.33333-5.33333-5.33333zm0 .66666h24.66667c2.58532 0 4.66666 2.08133 4.66666 4.66667v41.33333c0 2.58533-2.08134 4.66667-4.66666 4.66667h-53.333339c-2.5853258 0-4.6666626-2.08134-4.6666626-4.66667v-33.33333c0-2.58534 2.0813368-4.66667 4.6666626-4.66667h15.999999c6.000001 0 8.00001-8 12.66667-8z" fill-opacity=".15"/></g><path d="m-6.8814652 2.7899327a1.0583349 1.0583349 0 0 0 -.2754354.018604 1.0583349 1.0583349 0 0 0 -.6717936.4511353 1.0583349 1.0583349 0 0 0 .2930053 1.4670939l1.8536336 1.2361002h-4.1759721a1.0583349 1.0583349 0 0 0 -1.0588506 1.0588501 1.0583349 1.0583349 0 0 0 1.0588506 1.0583333h2.8018958l-2.9347048 2.3476605a1.0583333 1.0583333 0 0 0 -.1002526.09198 1.0583333 1.0583333 0 0 0 -.10852.134358 1.0583349 1.0583349 0 0 0 -.01809.02739 1.0583333 1.0583333 0 0 0 -.07028.127641 1.0583349 1.0583349 0 0 0 -.0124.02584 1.0583333 1.0583333 0 0 0 -.08372.335897 1.0583349 1.0583349 0 0 0 -.001.02894 1.0583333 1.0583333 0 0 0 .0021.144177 1.0583349 1.0583349 0 0 0 .0031.03566 1.0583333 1.0583333 0 0 0 .09302.324528 1.0583349 1.0583349 0 0 0 .01964.03824 1.0583333 1.0583333 0 0 0 .06821.113688 1.0583349 1.0583349 0 0 0 .01292.02119 1.0583349 1.0583349 0 0 0 .0098.01137 1.0583333 1.0583333 0 0 0 .01912.02739 1.0583333 1.0583333 0 0 0 .09198.100253 1.0583333 1.0583333 0 0 0 .1333256.108003 1.0583349 1.0583349 0 0 0 .03152.02015 1.0583333 1.0583333 0 0 0 .114205.06305 1.0583349 1.0583349 0 0 0 .04496.02119 1.0583333 1.0583333 0 0 0 .128158.04444 1.0583349 1.0583349 0 0 0 .04858.0124 1.0583333 1.0583333 0 0 0 .1410765.02222 1.0583349 1.0583349 0 0 0 .055294.0026 1.0583333 1.0583333 0 0 0 .109554-.0021 1.0583349 1.0583349 0 0 0 .066663-.0057 1.0583333 1.0583333 0 0 0 .1126546-.0217 1.0583349 1.0583349 0 0 0 .072864-.02015 1.0583333 1.0583333 0 0 0 .1157552-.04444 1.0583349 1.0583349 0 0 0 .067179-.03514 1.0583333 1.0583333 0 0 0 .075448-.04547 1.0583349 1.0583349 0 0 0 .040308-.02429l1.5652791-1.138948c.3625564 1.972032 2.0825453 3.457154 4.1625365 3.457154 2.34525184 0 4.2333333-1.888082 4.2333333-4.233334 0-1.7977214-1.10925562-3.3269274-2.6835571-3.9429118l-4.9319986-3.2881618a1.0583349 1.0583349 0 0 0 -.5193481-.1751831zm3.9015705 4.4958495c1.612369 0 2.91041658 1.2980493 2.91041658 2.9104168 0 1.612368-1.29804758 2.910417-2.91041658 2.910417-1.612367 0-2.9104166-1.298049-2.9104166-2.910417 0-1.6123675 1.2980496-2.9104168 2.9104166-2.9104168zm0 1.0583333c-1.0260521 0-1.8520833.8260313-1.8520833 1.8520835 0 1.026052.8260312 1.852083 1.8520833 1.852083s1.8520833-.826031 1.8520833-1.852083c0-1.0260522-.8260312-1.8520835-1.8520833-1.8520835z" fill-opacity=".2" transform="matrix(.99999999887 0 0 .99999999887 17.0022944341 7.26635708229)"/></svg>
