<svg height="96" viewBox="0 0 25.399999 25.4" width="96" xmlns="http://www.w3.org/2000/svg">
    <defs id="kuyenfoldercolor">
    <style type="text/css" id="current-color-scheme">
      .ColorScheme-Highlight {
        color:#03b2fe;
      }
      </style>
  </defs>
    <g
        stroke-linecap="round"
        stroke-linejoin="round"
        stroke-miterlimit="1.8">
        <g stroke-width="1.33333" transform="matrix(.39687499 0 0 .39687499 -2.38124994 -136.38609043562)"><path d="m11.333338 345.64998 15.333329.00001c6.000001 0 8.666665 8 13.333333 8l24.666662-.00001c2.954671 0 5.333338 2.37867 5.333338 5.33334v33.33336c0 2.95466-2.378667 5.33334-5.333338 5.33334h-53.333324c-2.9546681 0-5.3333384-2.37868-5.3333384-5.33334v-41.33336c0-2.95467 2.3786703-5.33334 5.3333384-5.33334z" style="fill:currentColor"
class="ColorScheme-Highlight"/>
            <path d="m11.333327 346.31668 15.333342-.00001c5.333331 0 8 8 13.333331 8l24.66667.00001c2.585331 0 4.66666 2.08133 4.66666 4.66667v33.33332c0 2.58533-2.081329 4.66666-4.66666 4.66666h-53.333343c-2.5853284 0-4.6666599-2.08133-4.6666599-4.66666v-41.33332c0-2.58535 2.0813315-4.66667 4.6666599-4.66667z" fill="#fff" fill-opacity=".09"/><path d="m11.333333 345.64998c-2.9546684 0-5.3333334 2.37867-5.3333334 5.33334v41.33333c0 2.95467 2.378665 5.33333 5.3333334 5.33333h53.333334c2.954658 0 5.333328-2.37866 5.333328-5.33333v-33.33333c0-2.95467-2.37867-5.33334-5.333328-5.33334h-24.666672c-4.66665 0-7.33334-8-13.333331-8zm0 .66667h15.333331c5.333331 0 8.000011 8 13.333331 8h24.666672c2.585329 0 4.666668 2.08133 4.666668 4.66667v33.33333c0 2.58533-2.081339 4.66667-4.666668 4.66667h-53.333334c-2.5853312 0-4.6666681-2.08134-4.6666681-4.66667v-41.33333c0-2.58534 2.0813369-4.66667 4.6666681-4.66667z" fill-opacity=".2"/><path d="m11.333338 361.64998 15.999994.00001c5.333336 0 7.333335-8 12.666668-8l24.666662-.00001c2.954671 0 5.333338 2.37867 5.333338 5.33334v41.33336c0 2.95467-2.378667 5.33334-5.333338 5.33334h-53.333324c-2.9546681 0-5.3333384-2.37867-5.3333384-5.33334v-33.33336c0-2.95467 2.3786703-5.33334 5.3333384-5.33334z" style="fill:currentColor"
class="ColorScheme-Highlight"/>
            <path d="m40 354.31667c-4.666631 0-6.666715 8-12.666667 8h-16c-2.5853099 0-4.6666665 2.08137-4.6666665 4.66666v33.33334c0 2.58526 2.0813566 4.66666 4.6666665 4.66666h53.333334c2.585305 0 4.666667-2.0814 4.666667-4.66666v-41.33334c0-2.58529-2.081362-4.66666-4.666667-4.66666zm-10.666667 16.66666a.66673331.66673331 0 0 1 .666667.66797c0 .02717.001984.04841.003906.06771.001599.01607.003349.03958.009115.06771.004665.02297.012027.0438.018229.0638.007486.0242.012455.04304.019531.0599.009321.02219.021178.04373.029948.05989.009915.01835.018645.03339.03125.05209.011837.01747.026886.03705.040365.05338.015497.01878.028947.03542.041666.04818.012728.01267.029448.0262.048177.04167.016266.01345.033241.02596.050782.03776.018624.01258.036386.02398.054687.03385.016187.00874.03651.018.058594.02734.01686.00708.037.01428.061198.02214.019821.00611.040723.01126.063802.01562.028129.00603.050245.00867.066406.01042.019323.00175.041852.00391.069011.00391s.050998-.00216.070312-.00391c.016161-.00148.038278-.0043.066406-.01042.02308-.00471.04399-.00951.063802-.01562.023604-.00734.043316-.01515.059896-.02214.022084-.00926.042407-.0186.058594-.02734.018301-.00987.036072-.02127.054688-.03385.017541-.01188.035817-.02431.052083-.03776.018738-.01547.034147-.02892.046875-.04167.012719-.01284.027472-.0294.042969-.04818.013479-.01633.027225-.03583.039062-.05338.012606-.0187.022637-.03383.032552-.05209.008771-.01625.018023-.03779.027344-.05989.007102-.01686.014623-.0357.022135-.0599.006185-.02.010996-.04083.015625-.0638.005775-.02813.010059-.05164.011719-.06771.001922-.0193.003906-.04054.003906-.06771a.66673331.66673331 0 0 1 .665365-.66797h1.998698a.66673331.66673331 0 0 1 .667969.66797c0 .02717.001984.04841.003906.06771.00159.01607.003349.03958.009114.06771.004665.02297.010725.04388.016928.0638.007486.0242.015059.04304.022135.0599.009321.02219.018573.04373.027344.05989.009915.01835.019955.03339.032552.05209.011828.01747.025575.03705.039062.05338.015506.01878.031552.03542.044271.04818.012737.01267.028146.0262.046875.04167.016275.01345.033249.02596.050781.03776.018607.01258.036387.02398.054688.03385.016187.00874.036501.018.058594.02734.016851.00708.037.01428.061198.02214.019812.00611.03942.01126.0625.01562.028128.00603.051547.00867.067708.01042.019323.00175.043153.00391.070312.00391s.050999-.00216.070313-.00391c.016161-.00148.038269-.0043.066406-.01042.02308-.00471.042688-.00951.0625-.01562.024198-.00751.045649-.01515.0625-.02214.022092-.00926.041105-.0186.057292-.02734.018301-.00987.036081-.02127.054687-.03385.017533-.01188.034498-.02431.050782-.03776.018729-.01547.03544-.02892.048177-.04167.012719-.01284.027463-.0294.042968-.04818.013479-.01633.027235-.03583.039063-.05338.012597-.0187.022646-.03383.032552-.05209.008771-.01625.018023-.03779.027344-.05989.007102-.01686.014623-.0357.022135-.0599.006176-.02.012297-.04083.016927-.0638.005696-.02813.008757-.05164.010417-.06771.001938-.0193.002604-.04054.002604-.06771a.66673331.66673331 0 0 1 .665365-.66797h2.667968a.66673331.66673331 0 0 1 .666667.66797c0 .02717.001985.04841.003906.06771.001599.01607.003349.03958.009115.06771.004665.02297.010725.0438.016927.0638.007486.0242.016362.04304.023438.0599h-.002605c.009312.0221.019867.04373.028646.05989.009915.01835.019947.03339.032552.05209.011837.01747.025584.03705.039063.05338.015497.01878.030258.03542.042969.04818.012727.01267.029456.0262.048177.04167.016274.01345.033249.02596.050781.03776.018615.01258.036386.02398.054687.03385.016187.00874.036502.018.058594.02734.01686.00708.037.01428.061198.02214.019821.00611.039429.01126.0625.01562.028129.00603.050245.00867.066406.01042.019323.00175.043154.00391.070313.00391s.050998-.00216.070312-.00391c.016161-.00148.038269-.0043.066407-.01042.023079-.00471.043989-.00951.063802-.01562.024197-.00751.044347-.01515.061198-.02214.022083-.00926.041113-.0186.057291-.02734.018301-.00987.036072-.02127.054688-.03385.017532-.01188.034498-.02431.050781-.03776.018738-.01547.035449-.02892.048177-.04167.012719-.01284.027472-.0294.042969-.04818.013488-.01633.027234-.03583.039062-.05338.012606-.0187.022646-.03383.032552-.05209.008771-.01625.018023-.03779.027344-.05989.007102-.01686.014623-.0357.022136-.0599.006184-.02.010995-.04091.015625-.0638.005774-.02813.010059-.05164.011718-.06771.001922-.0193.003907-.04054.003907-.06771a.66673331.66673331 0 0 1 .665364-.66797h2.001302a.66673331.66673331 0 0 1 .665365.66797c0 .02717.000682.04841.002604.06771.00159.01607.004651.03958.010417.06771.004664.02297.010724.0438.016927.0638.007495.0242.015059.04304.022135.0599.009321.02219.018573.04373.027344.05989.009915.01835.019955.03339.032552.05209.011828.01747.025575.03705.039062.05338.015497.01878.03025.03542.042969.04818.012737.01267.029448.0262.048177.04167.016275.01345.033249.02596.050782.03776.018606.01258.036386.02398.054687.03385.016178.00874.035199.018.057292.02734.016851.00708.038302.01428.0625.02214.019812.00611.03942.01126.0625.01562.028128.00603.050245.00867.066406.01042.019323.00175.043154.00391.070312.00391.027159 0 .050999-.00216.070313-.00391.016161-.00148.038278-.0043.066406-.01042.02308-.00471.042679-.00951.0625-.01562.024189-.00751.044338-.01515.061198-.02214.022092-.00926.042407-.0186.058594-.02734.018301-.00987.036072-.02127.054687-.03385.017533-.01188.034507-.02431.050782-.03776.018729-.01538.035449-.02892.048177-.04167.012719-.01284.027463-.0294.042968-.04818.013488-.01633.027235-.03583.039063-.05338.012605-.0187.022637-.03383.032552-.05209.008771-.01625.018023-.03779.027344-.05989.007111-.01695.014623-.0357.022135-.0599.006185-.02.012297-.04083.016927-.0638.005696-.02813.008757-.05164.010417-.06771.001938-.0193.002604-.04054.002604-.06771a.66673331.66673331 0 0 1 .667969-.66797h.665364c1.09646 0 1.998698.90353 1.998698 2v1.33464a.66673331.66673331 0 0 1 -.665364.66536c-.027159 0-.049696.00086-.069011.00261-.01616.00148-.038269.0043-.066406.01041-.023079.00472-.043998.01082-.063802.01693-.024198.00751-.044347.01515-.061198.02214-.022092.00926-.042407.01861-.058594.02734-.018301.00987-.036089.01997-.054687.03255-.017532.0118-.034498.02561-.050781.03907-.018738.01537-.03545.03021-.048177.04296-.012719.01276-.02617.0294-.041667.04818-.013488.01634-.027235.03322-.039063.05078-.012605.0187-.022646.03643-.032552.05469-.00877.01616-.020627.03649-.029948.05859-.007102.01686-.012018.037-.019531.0612-.006185.02001-.012297.03961-.016927.0625-.005696.02822-.008757.05033-.010417.06641-.001921.0193-.003906.04314-.003906.07031s.001985.05101.003906.07031c.00159.01608.004652.03828.010417.06641.004665.02297.010725.04249.016927.0625.007504.0242.012456.04573.019531.0625.00933.02219.021213.04122.029948.05729.009933.01835.019982.03608.032552.05469.011881.01764.025654.03453.039063.05078.015497.01878.028948.03542.041667.04818.01264.01266.029334.02742.048177.04297.016326.01345.033179.02718.050781.03906.018659.01258.036308.02259.054687.03255.016118.00865.036432.018.058594.02734.016781.00708.037.01428.061198.02214.01997.00611.040889.01256.063802.01693.02805.00602.050333.00867.066406.01041.019324.00177.041852.00261.069011.00261a.66673331.66673331 0 0 1 .665364.66536v1.33464a.66673331.66673331 0 0 1 -.665364.66797c-.027159 0-.049696.00085-.069011.0026-.016073.00149-.038356.0043-.066406.01042-.022913.00471-.043841.00951-.063802.01562-.024198.00751-.044417.01515-.061198.02214-.022171.00926-.042476.01861-.058594.02734-.018379.00987-.036028.02128-.054687.03386-.017602.01188-.034455.0243-.050781.03776-.018852.01554-.035537.0303-.048177.04296-.012623.01267-.026135.02801-.041667.04688-.013409.01625-.027182.03574-.039063.05338-.01257.0187-.022619.03505-.032552.05339-.008718.01616-.020609.03641-.029948.05859-.007075.01678-.012018.0357-.019531.0599-.006185.02-.012297.04091-.016927.0638-.005696.02813-.008757.05164-.010417.06771-.001921.01931-.003906.04184-.003906.06901s.001985.04971.003906.06901c.00159.01607.004652.03958.010417.06771.004665.02289.010725.0438.016927.0638.007495.0242.012456.04304.019531.0599.009321.0221.021178.04243.029948.05859.009906.01826.019956.03599.032552.05469.011828.01756.025619.03444.039063.05078.015462.01878.029.03551.041667.04818.01264.01266.029334.02872.048177.04427.016274.01345.033249.02596.050781.03776.018598.01258.036386.02268.054687.03255.016187.00874.036589.01939.058594.02865.016781.00707.037.01427.061198.02213.01997.0062.04081.01126.063802.01563.028129.00559.050246.00736.066406.00911.019324.00175.041852.00391.069011.00391a.66673331.66673331 0 0 1 .665364.66797v1.33203a.66673331.66673331 0 0 1 -.665364.66666c-.027159 0-.049696.00086-.069011.00261-.01616.00148-.038269.0043-.066406.01041-.022913.00463-.043911.01082-.063802.01693-.024198.00751-.044347.01515-.061198.02214-.022092.00934-.042407.01991-.058594.02864-.018301.00987-.036089.01998-.054687.03256-.017532.01179-.034498.0256-.050781.03906-.018738.01546-.03545.03021-.048177.04297-.012719.01275-.02617.02809-.041667.04687-.013488.01634-.027235.03453-.039063.05208-.012605.0187-.022646.03643-.032552.05469-.008718.01608-.020609.03519-.029948.05729-.007102.01686-.012018.037-.019531.0612-.006193.02001-.012297.04092-.016927.0638-.005696.02822-.008757.05034-.010417.06641-.001921.01931-.003906.04314-.003906.07031s.001985.04971.003906.06901c.00159.01608.004652.03828.010417.06641.004674.02297.010725.04388.016927.0638.007504.0242.012456.04443.019531.0612.00933.0221.021213.04252.029948.05859.009933.01835.019982.03608.032552.05469.011881.01765.025654.03453.039063.05078.015497.01878.028948.03542.041667.04818.012727.01267.029386.0262.048177.04167.016326.01345.033179.02718.050781.03906.018659.01258.036308.02259.054687.03255.016118.00865.036432.018.058594.02734.016781.00708.037.01428.061198.02214.01997.0062.040889.01126.063802.01562.028216.0056.05042.00998.066406.01172.019324.00175.041852.00261.069011.00261a.66673331.66673331 0 0 1 .665364.66536v1.33464a.66673331.66673331 0 0 1 -.665364.66666c-.027081 0-.049609-.00044-.069011.00131-.016073.00166-.038356.0069-.066406.01302-.022913.00471-.043841.0082-.063802.01432-.024198.00751-.044417.01515-.061198.02214-.022171.00925-.042476.0186-.058594.02734-.018449.01004-.03615.02266-.054687.03516-.017602.01188-.034455.023-.050781.03645-.018852.01555-.035537.03031-.048177.04297-.012623.01267-.026135.02931-.041667.04818-.013444.01633-.027235.03322-.039063.05078-.01257.01861-.022619.03634-.032552.05469-.008718.01616-.020609.03771-.029948.05989-.007075.01686-.012018.0357-.019531.0599-.006185.02-.012297.03961-.016927.0625-.005696.02822-.008757.05163-.010417.06771-.001921.0193-.003906.04184-.003906.06901s.001985.05101.003906.07031c.00159.01607.004652.03828.010417.06641.004665.02297.010725.04379.016927.0638.007495.0242.012456.04434.019531.0612.009321.0221.021204.04113.029948.05729.009898.01826.019956.03599.032552.05469.011828.01755.025619.03574.039063.05208.015462.01878.029.03421.041667.04687.01264.01267.029334.02873.048177.04428.016274.01345.033249.02596.050781.03776.018598.01258.036386.02259.054687.03255.016187.00873.036589.01938.058594.02864.016781.00708.037.01298.061198.02084.01997.00611.04081.01256.063802.01692.028129.00603.050246.00867.066406.01042.019324.00175.041852.00391.069011.00391a.66673331.66673331 0 0 1 .665364.66666v1.33204a.66673331.66673331 0 0 1 -.665364.66796c-.027159 0-.049696.00086-.069011.00261-.015986.00148-.03819.0043-.066406.01041-.022913.00463-.043841.01082-.063802.01693-.024276.00751-.044347.01385-.061198.02084-.022171.00934-.042546.01991-.058594.02864-.018301.00987-.036089.01997-.054687.03255-.017532.0118-.034498.02561-.050781.03907-.018738.01537-.03545.03021-.048177.04296-.012719.01276-.02617.0294-.041667.04818-.013488.01634-.027235.03322-.039063.05078-.012544.01861-.022619.03635-.032552.05469-.008718.01607-.020609.03641-.029948.05859-.007075.01678-.012018.037-.019531.0612-.006193.02001-.012297.03961-.016927.0625-.005696.02813-.008757.05033-.010417.06641-.001921.0193-.003906.04314-.003906.07031s.001985.05101.003906.07031c.00159.01608.004652.03828.010417.06641.004665.02297.010725.04388.016927.0638.007504.02429.012456.04182.019531.0586.00933.02218.021213.04382.029948.05989.009933.01835.019982.03608.032552.05469.011881.01764.025654.03583.039063.05208.015497.01878.028948.03412.041667.04688.012727.01266.029386.0275.048177.04297.016326.01345.033179.02588.050781.03776.018659.01258.036308.02389.054687.03385.016118.00874.036432.018.058594.02734.016781.00708.037.01428.061198.02214.01997.0062.040889.01126.063802.01562.028216.0056.05042.00998.066406.01172.019324.00157.041852 0 .069011 0a.66673331.66673331 0 0 1 .665364.66797v1.33334c0 1.09647-.902232 2-1.998698 2h-.665364a.66673331.66673331 0 0 1 -.667969-.66667c0-.02717-.000682-.05101-.002604-.07031-.00159-.01608-.004651-.03828-.010417-.06641-.004665-.02297-.010725-.0438-.016927-.0638-.007495-.0242-.015059-.04443-.022135-.0612-.009312-.0221-.0186-.04113-.027344-.05729-.009932-.01835-.019982-.03608-.032552-.05469-.011828-.01756-.025618-.03575-.039063-.05208-.01554-.01887-.030354-.0343-.042968-.04688-.012641-.01258-.029343-.02742-.048177-.04297-.016318-.01345-.033179-.02718-.050782-.03906-.018615-.01258-.036386-.02268-.054687-.03255-.016117-.00865-.036432-.018-.058594-.02734-.016781-.00708-.037-.01428-.061198-.02214-.019978-.0062-.039595-.01126-.0625-.01563-.028041-.00559-.050333-.00997-.066406-.01171-.019236-.00175-.043154-.00261-.070313-.00261-.027158 0-.051076.00086-.070312.00261-.016074.00166-.038356.0056-.066406.01171-.022914.00472-.042531.00951-.0625.01563-.024198.00751-.045719.01515-.0625.02214-.022162.00925-.041175.0186-.057292.02734-.018301.00987-.036081.01997-.054687.03255-.017603.01188-.034455.02561-.050782.03906-.018842.01555-.035528.03031-.048177.04297-.012623.01267-.027437.02801-.042969.04688-.013444.01633-.027234.03452-.039062.05208-.012571.01861-.02262.03634-.032552.05469-.008744.01616-.018032.03519-.027344.05729-.007067.01668-.014623.037-.022135.0612-.006176.02-.012298.04091-.016927.0638-.005696.02822-.008757.05033-.010417.06641-.001938.0193-.002604.04314-.002604.07031a.66673331.66673331 0 0 1 -.665365.66667h-2.001302a.66673331.66673331 0 0 1 -.665364-.66667c0-.02717-.001985-.05101-.003907-.07031-.001607-.01608-.005953-.03828-.011718-.06641-.004665-.02297-.009423-.0438-.015625-.0638-.007504-.0242-.01506-.04443-.022136-.0612-.009312-.0221-.018599-.04113-.027344-.05729-.009932-.01835-.019981-.03608-.032552-.05469-.011828-.01756-.025618-.03575-.039062-.05208-.015532-.01887-.030346-.03421-.042969-.04688-.01264-.01258-.029334-.02742-.048177-.04297-.016327-.01345-.033179-.02718-.050781-.03906-.018616-.01258-.036387-.02268-.054688-.03255-.0161-.00865-.035121-.018-.057291-.02734-.016782-.00708-.037001-.01428-.061198-.02214-.019979-.0062-.040898-.01126-.063802-.01563-.02805-.00559-.050333-.00997-.066407-.01171-.019236-.00175-.043153-.00261-.070312-.00261s-.051077.00086-.070313.00261c-.016073.00166-.038356.0056-.066406.01171-.022913.00472-.042522.00951-.0625.01563-.024189.00751-.044408.01515-.061198.02214-.022171.00925-.042476.0186-.058594.02734-.018301.00987-.036072.01997-.054687.03255-.017602.01188-.034455.02561-.050781.03906-.018843.01555-.035537.03031-.048177.04297-.012615.01267-.027437.02801-.042969.04688-.013436.01633-.027226.03452-.039063.05208-.012579.01861-.022619.03634-.032552.05469-.008753.01616-.01804.03519-.027344.05729a.66673331.66673331 0 0 0 -.001302 0c-.007075.01668-.01332.037-.020833.0612-.006185.02-.012297.04091-.016927.0638-.005696.02822-.008757.05033-.010417.06641-.001937.0193-.003906.04314-.003906.07031a.66673331.66673331 0 0 1 -.667969.66667h-2.666666a.66673331.66673331 0 0 1 -.664063-.66667c0-.02717-.001984-.05101-.003906-.07031-.001581-.01608-.004651-.03828-.010417-.06641-.004665-.02297-.010725-.04389-.016927-.0638-.007504-.0242-.01506-.04443-.022135-.0612-.009312-.0221-.0186-.04113-.027344-.05729-.009932-.01835-.019982-.03608-.032552-.05469-.011828-.01756-.025619-.03575-.039063-.05208-.01554-.01887-.030346-.0343-.042968-.04688-.01265-.01266-.029335-.02742-.048178-.04297-.016326-.01345-.033179-.02718-.050781-.03906-.018607-.01258-.036386-.02268-.054687-.03255-.016117-.00865-.03513-.018-.057292-.02734-.016781-.00708-.038302-.01428-.0625-.02214-.019978-.0062-.039595-.01126-.0625-.01563-.02805-.00559-.050333-.00997-.066406-.01171-.019236-.00175-.043154-.00261-.070313-.00261s-.051076.00086-.070312.00261c-.016074.00166-.038356.0056-.066406.01171-.022914.00472-.042531.00951-.0625.01563-.024198.00751-.044417.01515-.061198.02214-.022171.00925-.042477.0186-.058594.02734-.018301.00987-.036081.01997-.054688.03255-.017593.01188-.034454.02561-.050781.03906-.018843.01555-.035528.03031-.048177.04297-.012623.01267-.027428.02801-.042969.04688-.013444.01633-.027234.03452-.039062.05208-.012571.01861-.02262.03634-.032552.05469-.008745.01616-.018032.03519-.027344.05729-.007076.01668-.014623.037-.022135.0612-.006176.02-.012298.04091-.016928.0638-.005695.02822-.008756.05033-.010416.06641-.001939.0193-.002604.04314-.002604.07031a.66673331.66673331 0 0 1 -.667969.66667h-1.998698a.66673331.66673331 0 0 1 -.665365-.66667c0-.02717-.001984-.05101-.003906-.07031-.001616-.01608-.005953-.03828-.011719-.06641-.004673-.02297-.009422-.0438-.015625-.0638-.007503-.0242-.015059-.04443-.022135-.0612-.009312-.0221-.018599-.04113-.027344-.05729-.009932-.01835-.019973-.03608-.032552-.05469-.011837-.01756-.025627-.03583-.039062-.05208-.015532-.01887-.030346-.03421-.042969-.04688-.012641-.01258-.028032-.02742-.046875-.04297-.016318-.01345-.034473-.02718-.052083-.03906-.018616-.01258-.036387-.02268-.054688-.03255-.016117-.00865-.037734-.018-.059896-.02734-.016798-.00708-.034396-.01428-.058594-.02214-.019978-.0062-.040897-.01126-.063802-.01563-.028041-.00559-.050332-.00997-.066406-.01171-.019236-.00175-.043153-.00261-.070312-.00261s-.049775.00086-.069011.00261c-.016073.00166-.039658.0056-.067708.01171-.022914.00472-.042522.00951-.0625.01563-.02418.00751-.044408.01515-.061198.02214-.022162.00925-.042477.0186-.058594.02734-.018301.00987-.036063.01997-.054687.03255-.017603.01188-.034463.02561-.050782.03906-.018842.01555-.035536.03031-.048177.04297-.012623.01267-.026134.02801-.041666.04688-.013436.01633-.028528.03452-.040365.05208-.012579.01861-.021318.03634-.03125.05469-.008744.01616-.020636.03519-.029948.05729-.007076.01668-.012018.037-.019531.0612-.006185.02-.013599.04091-.018229.0638-.005705.02822-.007455.05033-.009115.06641-.001922.0193-.003906.04314-.003906.07031a.66673331.66673331 0 0 1 -.666667.66797h-.665364c-1.096465 0-2.001302-.90354-2.001302-2v-1.33334a.66673331.66673331 0 0 1 .666666-.66796c.027159 0 .050998.00174.070313 0 .015986-.00166.03819-.00561.066406-.01172.022913-.00472.042522-.00951.0625-.01563.024189-.00751.044408-.01515.061198-.02213.022162-.00926.042477-.01861.058594-.02735.018371-.00996.036011-.02127.054687-.03385.017602-.01188.034463-.02431.050781-.03776.018791-.01546.03545-.03022.048178-.04297.012727-.01276.027471-.0294.042968-.04818.013401-.01625.027174-.03313.039063-.05078.012579-.01861.022619-.03634.032552-.05469.008727-.01616.018005-.0377.027344-.05989.007075-.01686.014622-.0357.022135-.0599.006176-.02.012297-.03952.016927-.0625.005696-.02813.008757-.05033.010417-.0664.001938-.01931.002604-.04315.002604-.07032s-.000682-.051-.002604-.07031c-.00159-.01607-.004651-.03828-.010417-.06641-.004665-.02297-.010725-.04249-.016927-.0625-.007504-.02419-.01506-.04442-.022135-.06119-.009339-.02211-.018609-.04252-.027344-.0586-.009933-.01834-.020008-.03608-.032552-.05469-.011837-.01755-.025584-.03444-.039063-.05078-.015497-.01878-.030249-.03542-.042968-.04817-.012728-.01267-.029448-.02751-.048178-.04297-.016265-.01337-.03324-.02727-.050781-.03906-.018615-.01258-.036386-.0226-.054687-.03256-.016056-.00873-.036432-.0193-.058594-.02864-.01686-.00708-.036922-.01297-.061198-.02084-.019978-.00611-.039595-.01256-.0625-.01692-.028216-.00603-.05042-.00867-.066406-.01042-.019315-.00176-.043154-.0026-.070313-.0026a.66673331.66673331 0 0 1 -.666666-.66797v-1.33203a.66673331.66673331 0 0 1 .666666-.66667c.027159 0 .050998-.00216.070313-.00391.016161-.00148.038277-.0043.066406-.01041.022992-.00463.042522-.01082.0625-.01693.024189-.00743.044408-.01385.061198-.02083.022014-.00926.042407-.01991.058594-.02865.018301-.00987.036072-.01997.054687-.03255.017541-.01188.034516-.02431.050781-.03776.018843-.01555.035537-.03161.048178-.04427.012675-.01267.027506-.0281.042968-.04688.013436-.01633.027226-.03452.039063-.05208.012605-.0187.022654-.03643.032552-.05469.008744-.01616.018023-.03519.027344-.05729.007102-.01686.014622-.037.022135-.0612.006185-.02.012297-.04091.016927-.0638.005696-.02822.008757-.05033.010417-.06641.001938-.0193.002604-.04314.002604-.07031s-.000682-.05101-.002604-.07031c-.00159-.01608-.004651-.03828-.010417-.06641-.004665-.02297-.010725-.04249-.016927-.0625-.007504-.02428-.01506-.04312-.022135-.05989-.009339-.02219-.018609-.04383-.027344-.0599-.009933-.01834-.019973-.03599-.032552-.05469-.011837-.01756-.025627-.03453-.039063-.05078-.015532-.01887-.030346-.03551-.042968-.04818-.012641-.01257-.029335-.02742-.048178-.04296-.016318-.01346-.03317-.02458-.050781-.03646-.018554-.01258-.036246-.0252-.054687-.03516-.016117-.00865-.036432-.018-.058594-.02734-.016781-.00708-.037-.01428-.061198-.02214-.019978-.00646-.039595-.00995-.0625-.01432-.028041-.00603-.050333-.01127-.066406-.01302-.019402-.00157-.043241-.0013-.070313-.0013a.66673331.66673331 0 0 1 -.666666-.66667v-1.33464a.66673331.66673331 0 0 1 .666666-.66536c.027159 0 .050998-.00086.070313-.0026.015986-.00166.03819-.00561.066406-.01172.022913-.00472.042522-.00951.0625-.01563.024189-.00751.044408-.01515.061198-.02213.022162-.00926.042477-.01861.058594-.02735.018371-.00996.036011-.01997.054687-.03255.017602-.01188.034463-.02561.050781-.03906.018791-.01546.03545-.02892.048178-.04167.012727-.01284.027471-.02939.042968-.04818.013401-.01624.027174-.03313.039063-.05078.012579-.0186.022619-.03634.032552-.05468.008727-.01608.018005-.03641.027344-.0586.007075-.01677.014622-.037.022135-.0612.006176-.02.012297-.04082.016927-.0638.005696-.02813.008757-.05033.010417-.0664.001938-.01931.002604-.04185.002604-.06902 0-.02716-.000682-.051-.002604-.07031-.00159-.01607-.004651-.03828-.010417-.0664-.004665-.02298-.010725-.0438-.016927-.06381-.007495-.02419-.01506-.04433-.022135-.06119-.009339-.02211-.018609-.04252-.027344-.0586-.009915-.01826-.019947-.03599-.032552-.05469-.011837-.01755-.025584-.03444-.039063-.05078-.015497-.01878-.030249-.03542-.042968-.04817-.012728-.01267-.029448-.02621-.048178-.04167-.016265-.01337-.03324-.02727-.050781-.03906-.018615-.01258-.036386-.02268-.054687-.03255-.016196-.00874-.03651-.02061-.058594-.02995v.0026c-.01686-.00707-.037-.01427-.061198-.02213-.0199-.00612-.039595-.01256-.0625-.01693-.028129-.00603-.050245-.00867-.066406-.01042-.019315-.00174-.043154-.0039-.070313-.0039a.66673331.66673331 0 0 1 -.666666-.66667v-1.33333a.66673331.66673331 0 0 1 .666666-.66667c.027159 0 .050998-.00216.070313-.00391.016161-.00122.038277-.003.066406-.00911.022992-.00472.042522-.00951.0625-.01563.024189-.00751.044408-.01514.061198-.02213.022014-.00926.042407-.02121.058594-.02995.018301-.00987.036072-.01867.054687-.03125.017541-.01188.034516-.02431.050781-.03776.018843-.01555.035537-.0316.048178-.04427.012675-.01267.027506-.0294.042968-.04818.013436-.01633.027226-.03322.039063-.05078.012308-.01826.022838-.03556.032552-.05338.00877-.01625.018023-.0378.027344-.0599.007102-.01686.014622-.0357.022135-.0599.006185-.01991.012297-.04213.016927-.0651.005696-.02822.008757-.05033.010417-.06641.001938-.0193.002604-.04184.002604-.06901s-.000682-.0497-.002604-.06901c-.00159-.01598-.004651-.03958-.010417-.06771-.004665-.02297-.010725-.04379-.016927-.0638-.007504-.02428-.01506-.04312-.022135-.05989-.009339-.02219-.018609-.04252-.027344-.0586-.009933-.01834-.019973-.03469-.032552-.05338-.011889-.01756-.025662-.03714-.039063-.05339-.015532-.01887-.030346-.03421-.042968-.04687-.012641-.01258-.029335-.02742-.048178-.04297-.016318-.01346-.03317-.02588-.050781-.03776-.018676-.01267-.036316-.0239-.054687-.03386-.016117-.00865-.036432-.01799-.058594-.02734-.016781-.00708-.037-.01427-.061198-.02214-.019978-.0062-.039595-.01125-.0625-.01562-.028041-.00603-.050333-.00867-.066406-.01042-.019315-.00174-.043154-.0026-.070313-.0026a.66673331.66673331 0 0 1 -.666666-.66667v-1.33463a.66673331.66673331 0 0 1 .666666-.66537c.027159 0 .050998-.00086.070313-.0026.016073-.00149.038356-.0043.066406-.01042.022913-.00463.042522-.01081.0625-.01693.024189-.00751.044408-.01514.061198-.02213.022162-.00926.042477-.01861.058594-.02735.018371-.00995.036011-.01997.054687-.03255.017602-.01188.034463-.02561.050781-.03906.018843-.01555.035537-.0303.048178-.04297.012727-.01275.027471-.02939.042968-.04818.013401-.01624.027174-.03313.039063-.05078.012579-.0186.022619-.03634.032552-.05468.008727-.01608.018005-.03511.027344-.0573.007075-.01677.014622-.0383.022135-.0625.006185-.02.012297-.03952.016927-.0625.005696-.02813.008757-.05033.010417-.0664.001938-.01931.002604-.04315.002604-.07032 0-.02716-.000682-.051-.002604-.07031-.00159-.01607-.004651-.03828-.010417-.0664-.004665-.02298-.010725-.0425-.016927-.0625-.007486-.02429-.01506-.04564-.022135-.0625-.009321-.02211-.018574-.04113-.027344-.0573-.009915-.01834-.019947-.03599-.032552-.05468-.011837-.01756-.025584-.03445-.039063-.05078-.015497-.01879-.030249-.03543-.042968-.04818-.012728-.01267-.029448-.02751-.048178-.04297-.016265-.01337-.03324-.02718-.050781-.03906-.018615-.01258-.036386-.02268-.054687-.03255-.016196-.00874-.03651-.018-.058594-.02735-.01686-.00707-.037-.01427-.061198-.02213-.019821-.00612-.039421-.01256-.0625-.01693-.028129-.00603-.050245-.00867-.066406-.01042-.019315-.00176-.043154-.0026-.070313-.0026a.66673331.66673331 0 0 1 -.666666-.66537v-1.33463c0-1.09648.904843-2 2.001302-2l.665364-.0013zm1.333334 4.00261v17.33333h14.666666v-17.33333zm8.369791 5.33333c1.661987 0 3 1.33805 3 3 0 .12468-.021843.24285-.036458.36328 1.149814.1465 2.036458 1.11252 2.036458 2.30339 0 1.2927-1.040669 2.33333-2.333333 2.33333h-7.333333c-1.292662 0-2.333334-1.04066-2.333334-2.33333 0-1.17973.869839-2.14028 2.003907-2.30078-.000525-.00987-.003907-.02251-.003907-.03256 0-.73864.594682-1.33333 1.333334-1.33333.28967 0 .555233.09299.773437.2487.333674-1.29335 1.492773-2.2487 2.893229-2.2487z" fill="#fff" fill-opacity=".3"/><path d="m40 353.65c-5.33332 0-7.333329 8-12.66667 8h-15.999999c-2.954663 0-5.3333306 2.37866-5.3333306 5.33333v33.33333c0 2.95467 2.3786676 5.33334 5.3333306 5.33334h53.333339c2.95466 0 5.33333-2.37867 5.33333-5.33334v-41.33333c0-2.95467-2.37867-5.33333-5.33333-5.33333zm0 .66666h24.66667c2.58532 0 4.66666 2.08133 4.66666 4.66667v41.33333c0 2.58533-2.08134 4.66667-4.66666 4.66667h-53.333339c-2.5853258 0-4.6666626-2.08134-4.6666626-4.66667v-33.33333c0-2.58534 2.0813368-4.66667 4.6666626-4.66667h15.999999c6.000001 0 8.00001-8 12.66667-8z" fill-opacity=".15"/></g><path d="m56.236949 316.68766-.76167.001c-1.255163 0-2.290973 1.0343-2.290973 2.28948v1.52781a.76323708.76323708 0 0 0 .76316.76167c.03109 0 .05838.00098.08049.003.0185.002.04382.005.07602.0119.02642.005.04886.0124.07155.0194.0277.009.05076.0172.07006.0253.02528.0107.04854.0213.06708.0313.02095.0113.04129.0229.0626.0373.02008.0136.03951.0294.05813.0447.02144.0177.04058.0347.05515.0492.01456.0146.03145.0336.04919.0551.01543.0187.03117.038.04472.0581.01443.0214.02591.0416.03726.0626.01004.0185.02063.0403.0313.0656.0081.0193.01677.0438.02534.0716.0071.0229.01404.0452.01938.0715.0066.0322.0101.0576.01192.076.0022.0221.003.0494.003.0805s-.000781.0584-.003.0805c-.0019.0184-.0054.0438-.01192.076-.0053.0263-.0123.0487-.01938.0716-.0086.0277-.01724.0523-.02534.0715-.01069.0254-.02131.0472-.0313.0656-.01137.021-.02286.0413-.03726.0626-.01361.0202-.02938.0395-.04472.0581-.01774.0215-.03462.0405-.04919.0551-.01447.0145-.03358.0314-.05515.0492-.01868.0154-.03798.0311-.05813.0447-.02138.0144-.04157.0259-.0626.0373-.01845.01-.04171.0207-.06708.0313-.01922.008-.04237.0167-.07006.0253-.02287.007-.04532.0141-.07155.0194-.03211.007-.05762.0102-.07602.0119-.02211.002-.0494.003-.08049.003a.76323708.76323708 0 0 0 -.76316.76167v1.52782a.76323708.76323708 0 0 0 .76316.76316c.03109 0 .05838.002.08049.004.0184.002.04392.005.07602.0119.02622.005.04868.0108.07155.0179.0277.009.05085.0172.07006.0253.02537.0107.04863.0214.06708.0313.02103.0114.04122.0242.0626.0387.02016.0136.03945.0278.05813.0432.02157.0178.04068.0348.05515.0492.01445.0145.03141.0321.04919.0537.01534.0186.03111.041.04472.0611.0144.0214.02589.0401.03726.0611.01.0184.02061.0417.0313.0671.0081.0192.01675.0408.02534.0686.0071.0229.01404.0467.01938.073.0066.0322.0101.0592.01192.0775.0022.0221.003.0479.003.079s-.000781.0569-.003.079c-.0019.0184-.0054.0437-.01192.076-.0053.0263-.0123.0517-.01938.0745-.0086.0277-.01721.0493-.02534.0686-.01067.0253-.02126.05-.0313.0686-.01112.0204-.02317.0402-.03726.0611-.01355.0201-.02934.0394-.04472.0581-.0177.0215-.03468.0407-.04919.0552-.01447.0145-.03358.0329-.05515.0507-.01862.0154-.03805.0296-.05813.0432-.02131.0144-.04165.0245-.0626.0358-.01853.01-.04188.0237-.06708.0343-.01922.008-.04237.0167-.07006.0253-.02287.007-.04523.0125-.07155.0179-.0322.007-.05752.009-.07602.0104-.02211.002-.0494.004-.08049.004a.76323708.76323708 0 0 0 -.76316.76316v1.52632a.76323708.76323708 0 0 0 .76316.76316c.03109 0 .05838.002.08049.004.0185.002.04382.005.07602.0119.02622.005.04877.0124.07155.0194.0277.009.05076.0172.07006.0253v-.003c.02528.0107.04854.0243.06708.0343.02095.0113.04129.0229.0626.0373.02008.0135.03951.0294.05813.0447.02144.0177.04058.0332.05515.0477.01456.0146.03145.0337.04919.0552.01543.0187.03117.038.04472.0581.01443.0214.02591.0417.03726.0626.01.0184.02061.0418.0313.0671.0081.0193.01676.0424.02534.0701.0071.0229.01404.0467.01938.073.0066.0322.0101.0576.01192.076.0022.0221.003.0494.003.0805s-.000781.0569-.003.079c-.0019.0184-.0054.0438-.01192.076-.0053.0263-.01231.0501-.01938.073-.0086.0277-.01724.0509-.02534.0701-.01069.0254-.02131.0487-.0313.0671-.01137.021-.02286.0413-.03726.0626-.01361.0202-.02938.0395-.04472.0581-.01774.0215-.03462.0405-.04919.0552-.01457.0146-.03364.03-.05515.0477-.01868.0154-.03798.0311-.05813.0447-.02138.0144-.04157.0259-.0626.0373-.01845.01-.04171.0207-.06708.0313-.01922.008-.04237.0167-.07006.0253-.02287.007-.04532.0125-.07155.0179-.0323.007-.05772.0115-.07602.0134-.02211.002-.0494.004-.08049.004a.76323708.76323708 0 0 0 -.76316.76167v1.52782a.76323708.76323708 0 0 0 .76316.76316c.03099 0 .05828-.0008.08049.001.0184.002.04392.008.07602.0149.02622.005.04868.009.07155.0164.0277.009.05085.0172.07006.0253.02537.0107.04863.0214.06708.0313.02111.0114.04136.0258.0626.0402.02016.0136.03945.0263.05813.0417.02157.0178.04068.0348.05515.0492.01445.0145.03141.0335.04919.0551.01538.0186.03117.038.04472.0581.0144.0214.02589.0416.03726.0626.01.0184.02061.0432.0313.0686.0081.0192.01675.0408.02534.0686.0071.0229.01404.0452.01938.0715.0066.0322.0101.0576.01192.076.0022.0221.003.0494.003.0805s-.000781.0584-.003.0805c-.0019.0184-.0054.0437-.01192.076-.0053.0262-.0123.0501-.01938.073-.0086.0277-.01721.0508-.02534.0701-.01067.0253-.02129.0471-.0313.0656-.01133.0209-.02283.0412-.03726.0626-.01355.0201-.02934.0409-.04472.0596-.0177.0215-.03468.0392-.04919.0537-.01447.0145-.03358.0329-.05515.0507-.01862.0154-.03805.0296-.05813.0432-.02131.0144-.04165.026-.0626.0373-.01853.01-.04188.0222-.06708.0328-.01922.008-.04237.0153-.07006.0238-.02287.007-.04523.0141-.07155.0194-.0322.007-.05752.0102-.07602.0119-.02211.002-.0494.004-.08049.004a.76323708.76323708 0 0 0 -.76316.76316v1.52483a.76323708.76323708 0 0 0 .76316.76465c.03109 0 .05838.00098.08049.003.0183.002.04372.005.07602.0119.02622.005.04868.0124.07155.0194.02779.009.05076.0158.07006.0239.02537.0107.0487.0228.06708.0328.02095.0114.04129.0229.0626.0373.02008.0135.03951.0294.05813.0447.02144.0177.04058.0347.05515.0492.01456.0146.03145.0337.04919.0552.01543.0187.03117.038.04472.0581.01436.0213.02589.0416.03726.0626.01.0184.02061.0418.0313.0671.0081.0192.01675.0424.02534.0701.0071.0229.01404.0452.01938.0715.0066.0322.0101.0576.01192.076.0022.0221.003.0494.003.0805s-.000781.0584-.003.0805c-.0019.0184-.0054.0438-.01192.076-.0053.0263-.01231.0487-.01938.0716-.0086.0277-.01724.0493-.02534.0686-.01069.0254-.02131.0501-.0313.0686-.01137.021-.02286.0413-.03726.0626-.01361.0202-.02938.0395-.04472.0581-.01774.0215-.03462.0405-.04919.0551s-.03364.0315-.05515.0492c-.01868.0154-.03798.0296-.05813.0432-.02138.0144-.04157.0274-.0626.0388-.01845.01-.04171.0207-.06708.0313-.01922.008-.04237.0167-.07006.0253-.02287.007-.04532.0125-.07155.0179-.0323.007-.05772.0115-.07602.0134-.02211.002-.0494.001-.08049.001a.76323708.76323708 0 0 0 -.76316.76465v1.52632c0 1.25517 1.035804 2.28949 2.290973 2.28949h.76167a.76323708.76323708 0 0 0 .763161-.76465c0-.0311.0023-.0584.0045-.0805.0019-.0184.0039-.0437.01043-.076.0053-.0262.01379-.0501.02087-.073.0086-.0277.01426-.0509.02236-.07.01066-.0253.02427-.0471.03428-.0656.01137-.021.02137-.0413.03577-.0626.01355-.0201.03083-.0409.04621-.0596.01778-.0216.03325-.0392.0477-.0537.01447-.0145.03358-.0314.05515-.0492.01868-.0154.03798-.0311.05813-.0447.02132-.0144.04165-.026.0626-.0373.01845-.01.04171-.0207.06708-.0313.01922-.008.04237-.0167.07005-.0253.02287-.007.04532-.0125.07155-.0179.03211-.007.05911-.0115.07751-.0134.02202-.002.04791-.004.079-.004s.05847.002.08049.004c.0184.002.04392.007.07602.0134.02622.005.05017.0108.07304.0179.0277.009.04785.0172.06708.0253.02537.0107.05011.0214.06856.0313.02095.0113.04129.0229.0626.0373.02016.0136.04094.0293.05962.0447.02157.0178.03919.0348.05366.0492.01445.0145.03141.0321.04919.0537.01538.0186.03117.0395.04472.0596.0144.0213.02589.0416.03726.0626.01001.0185.02064.0403.0313.0656.0081.0192.01675.0423.02534.07.0071.0229.01254.0467.01789.073.0066.0322.01156.0576.01341.076.0022.0221.0045.0494.0045.0805a.76323708.76323708 0 0 0 .76167.76316h2.287992a.76323708.76323708 0 0 0 .764651-.76316c0-.0311.000781-.0584.003-.0805.0019-.0184.0054-.0437.01192-.076.0053-.0262.01231-.0501.01938-.073.0086-.0277.01724-.0509.02534-.07.01066-.0253.02129-.0471.0313-.0656.01137-.021.02287-.0413.03726-.0626.01354-.0201.02933-.0409.04472-.0596.01779-.0216.03474-.0392.04919-.0537.01448-.0145.03358-.0314.05515-.0492.01869-.0154.03799-.0311.05813-.0447.0213-.0144.04165-.026.0626-.0373.01845-.01.04169-.0207.06707-.0313.01921-.008.04236-.0167.07006-.0253.02286-.007.04532-.0125.07155-.0179.03211-.007.05762-.0115.07602-.0134.02202-.002.0494-.004.08049-.004s.05847.002.08049.004c.0184.002.04391.007.07602.0134.02622.005.04868.0108.07155.0179.0277.009.05234.0172.07155.0253.02537.0107.04713.0214.06558.0313.02095.0113.0413.0229.0626.0373.02015.0136.03944.0293.05813.0447.02157.0178.04067.0347.05515.0492.01445.0144.0314.0321.04919.0537.01539.0187.03118.0395.04472.0596.01439.0213.02589.0416.03726.0626.01001.0185.02064.0403.0313.0656.0081.0192.01675.0423.02534.07.0071.0228.01404.0467.01938.073.0066.0322.01011.0576.01192.076.0022.0221.003.0494.003.0805a.76323708.76323708 0 0 0 .76167.76316h3.052643a.76323708.76323708 0 0 0 .764651-.76316c0-.0311.000782-.0584.003-.0805.0019-.0184.0054-.0437.01192-.076.0053-.0262.0123-.0501.01938-.073.0086-.0277.01575-.0509.02385-.07a.76323708.76323708 0 0 0 .0015 0c.01065-.0253.02128-.0471.0313-.0656.01137-.021.02286-.0413.03726-.0626.01355-.0201.02934-.0409.04472-.0596.01778-.0216.03475-.0392.04919-.0537.01447-.0145.03358-.0314.05515-.0492.01869-.0154.03798-.0311.05813-.0447.02131-.0144.04165-.026.0626-.0373.01845-.01.04169-.0207.06707-.0313.01922-.008.04237-.0167.07006-.0253.02287-.007.04532-.0125.07155-.0179.03211-.007.05762-.0115.07602-.0134.02202-.002.0494-.004.08049-.004s.05847.002.08049.004c.0184.002.04391.007.07602.0134.02622.005.05017.0108.07304.0179.0277.009.05085.0172.07006.0253.02538.0107.04715.0214.06558.0313.02095.0113.04129.0229.0626.0373.02015.0136.03944.0293.05813.0447.02157.0178.04068.0348.05515.0492.01445.0145.03141.0321.04919.0537.01539.0187.03118.0395.04472.0596.01439.0213.02589.0416.03726.0626.01001.0185.02064.0403.0313.0656.0081.0192.01675.0423.02534.07.0071.0229.01255.0467.01789.073.0066.0322.01157.0576.01341.076.0022.0221.0045.0494.0045.0805a.76323708.76323708 0 0 0 .76167.76316h2.290973a.76323708.76323708 0 0 0 .76167-.76316c0-.0311.000781-.0584.003-.0805.0019-.0184.0054-.0437.01192-.076.0053-.0262.01231-.0501.01938-.073.0086-.0277.01725-.0509.02534-.07.01066-.0253.02129-.0471.0313-.0656.01137-.021.02287-.0413.03726-.0626.01354-.0201.02933-.0409.04472-.0596.01778-.0216.03474-.0392.04919-.0537.01448-.0145.03358-.0314.05515-.0492.01869-.0154.03798-.0311.05813-.0447.0213-.0144.04165-.026.0626-.0373.01845-.01.04021-.0207.06558-.0313.01921-.008.04385-.0167.07155-.0253.02286-.007.04532-.0125.07155-.0179.03211-.007.05762-.0115.07602-.0134.02202-.002.0494-.004.08049-.004s.05847.002.08049.004c.0184.002.04392.007.07602.0134.02622.005.04868.0108.07155.0179.0277.009.05084.0172.07005.0253.02537.0107.04863.0214.06708.0313.02095.0113.04129.0229.0626.0373.02015.0136.03945.0293.05813.0447.02156.0178.04068.0348.05515.0492.01444.0144.0314.0321.04919.0537.01539.0187.03118.0395.04472.0596.01439.0213.02589.0416.03726.0626.01001.0185.02064.0403.0313.0656.0081.0192.01676.0423.02534.07.0071.0229.01404.0467.01938.073.0066.0322.0101.0576.01192.076.0022.0221.003.0494.003.0805a.76323708.76323708 0 0 0 .764651.76316h.76167c1.25517 0 2.287992-1.03431 2.287992-2.28949v-1.52632a.76323708.76323708 0 0 0 -.76167-.76465c-.03109 0-.05688.00079-.079-.001-.0183-.002-.04372-.007-.07602-.0134-.02623-.005-.05018-.0108-.07304-.0179-.0277-.009-.05085-.0172-.07006-.0253-.02537-.0107-.04863-.0213-.06708-.0313-.02104-.0114-.04124-.0244-.0626-.0388-.02015-.0136-.03944-.0278-.05813-.0432-.02151-.0177-.04058-.0347-.05515-.0492-.01456-.0146-.02996-.0322-.0477-.0537-.01535-.0186-.03112-.0394-.04472-.0596-.01439-.0213-.02589-.0416-.03726-.0626-.01-.0184-.0236-.0432-.03428-.0686-.0081-.0192-.01377-.0393-.02236-.0671-.0071-.0228-.01404-.0467-.01938-.073-.0066-.0322-.0101-.0576-.01192-.076-.0022-.0221-.0045-.0494-.0045-.0805s.0023-.0584.0045-.0805c.0019-.0184.0054-.0438.01192-.076.0053-.0262.01229-.0486.01938-.0715.0086-.0277.01426-.0509.02236-.0701.01069-.0254.0243-.0487.03428-.0671.01137-.021.0229-.0413.03726-.0626.01354-.0201.02928-.0394.04472-.0581.01774-.0215.03314-.0406.0477-.0552.01457-.0146.0337-.0316.05515-.0492.01864-.0154.03806-.0312.05813-.0447.02129-.0144.04165-.026.0626-.0373.01837-.01.0417-.0221.06708-.0328.01929-.008.04227-.0153.07006-.0239.02285-.007.04681-.0141.07304-.0194.0323-.007.05772-.0102.07602-.0119.02211-.002.04791-.003.079-.003a.76323708.76323708 0 0 0 .76167-.76465v-1.52483a.76323708.76323708 0 0 0 -.76167-.76316c-.03109 0-.05688-.002-.079-.004-.0185-.002-.04382-.005-.07602-.0119-.02632-.005-.05018-.0124-.07304-.0194-.0277-.009-.05085-.0157-.07006-.0238-.02519-.0106-.04855-.0228-.06708-.0328-.02095-.0114-.04131-.0229-.0626-.0373-.02007-.0135-.0395-.0278-.05813-.0432-.02157-.0178-.04068-.0362-.05515-.0507-.0145-.0145-.03-.0322-.0477-.0537-.01539-.0187-.03118-.0395-.04472-.0596-.01442-.0214-.02593-.0417-.03726-.0626-.01001-.0185-.02361-.0403-.03428-.0656-.0081-.0193-.01378-.0424-.02236-.0701-.0071-.0229-.01404-.0467-.01938-.073-.0066-.0322-.0101-.0576-.01192-.076-.0022-.0221-.0045-.0494-.0045-.0805s.0023-.0569.0045-.079c.0019-.0184.0054-.0452.01192-.0775.0053-.0262.0123-.0487.01938-.0716.0086-.0277.01426-.0493.02236-.0686.01069-.0254.0243-.0501.03428-.0686.01137-.021.02287-.0413.03726-.0626.01354-.0201.02933-.0394.04472-.0581.01778-.0216.03325-.0406.0477-.0551.01447-.0145.03357-.0314.05515-.0492.01869-.0154.03798-.0281.05813-.0417.02122-.0143.04148-.0287.0626-.0402.01845-.01.0417-.0207.06708-.0313.01921-.008.04236-.0167.07006-.0253.02285-.007.04681-.011.07304-.0164.03211-.007.05762-.013.07602-.0149.02221-.002.048-.001.079-.001a.76323708.76323708 0 0 0 .76167-.76317v-1.52781a.76323708.76323708 0 0 0 -.76167-.76167c-.03109 0-.05688-.002-.079-.004-.0183-.002-.04372-.007-.07602-.0134-.02623-.005-.05018-.0108-.07304-.0179-.0277-.009-.05085-.0172-.07006-.0253-.02537-.0107-.04863-.0214-.06708-.0313-.02104-.0114-.04124-.0229-.0626-.0373-.02015-.0136-.03944-.0293-.05813-.0447-.02151-.0177-.04058-.0332-.05515-.0477-.01456-.0146-.02996-.0337-.0477-.0552-.01535-.0186-.03112-.0379-.04472-.0581-.01439-.0213-.02589-.0416-.03726-.0626-.01-.0184-.0236-.0418-.03428-.0671-.0081-.0192-.01377-.0423-.02236-.07-.0071-.0228-.01403-.0467-.01938-.073-.0066-.0322-.0101-.0576-.01192-.076-.0022-.0221-.0045-.0479-.0045-.079s.0023-.0584.0045-.0805c.0019-.0184.0054-.0437.01192-.076.0053-.0262.01229-.0501.01938-.073.0086-.0277.01423-.0508.02236-.0701.01069-.0253.0243-.0472.03428-.0656.01134-.0209.02283-.0412.03726-.0626.01354-.0201.02928-.0409.04472-.0596.01774-.0215.03314-.0391.0477-.0537.01457-.0146.0337-.0315.05515-.0492.01864-.0154.03806-.0312.05813-.0447.02129-.0144.04165-.026.0626-.0373.01853-.01.04179-.0221.06708-.0328v.001c.01929-.008.04236-.0167.07006-.0253.02277-.007.04681-.0141.07304-.0194.03221-.007.05752-.0102.07602-.0119.02211-.002.04791-.004.079-.004a.76323708.76323708 0 0 0 .76167-.76316v-1.52483a.76323708.76323708 0 0 0 -.76167-.76465c-.03109 0-.05688-.002-.079-.004-.0185-.002-.04382-.004-.07602-.0104-.02632-.005-.05018-.0108-.07304-.0179-.0277-.009-.05085-.0172-.07006-.0253-.02519-.0106-.04855-.0228-.06708-.0328-.02095-.0113-.04131-.0229-.0626-.0373-.02007-.0135-.0395-.0278-.05813-.0432-.02157-.0178-.04068-.0362-.05515-.0507-.0145-.0145-.03-.0336-.0477-.0551-.01539-.0187-.03118-.038-.04472-.0581-.01442-.0214-.02592-.0417-.03726-.0626-.01004-.0185-.02361-.0418-.03428-.0671-.0081-.0193-.01378-.0409-.02236-.0686-.0071-.0229-.01404-.0468-.01938-.073-.0066-.0322-.0101-.0591-.01192-.0775-.0022-.0221-.0045-.0479-.0045-.079s.0023-.0569.0045-.079c.0019-.0184.0054-.0453.01192-.0775.0053-.0262.0123-.0501.01938-.073.0086-.0277.01426-.0494.02236-.0686.01069-.0254.0243-.0486.03428-.0671.01137-.021.02287-.0397.03726-.0611.0136-.0202.02937-.0425.04472-.0611.01778-.0216.03325-.0392.0477-.0537.01447-.0145.03357-.0314.05515-.0492.01869-.0154.03798-.0296.05813-.0432.02136-.0144.04156-.0274.0626-.0387.01845-.01.0417-.0207.06708-.0313.01921-.008.04236-.0167.07006-.0253.02285-.007.04681-.0125.07304-.0179.03211-.007.05762-.0102.07602-.0119.02211-.002.04791-.003.079-.003a.76323708.76323708 0 0 0 .76167-.76466v-1.52781a.76323708.76323708 0 0 0 -.76167-.76167c-.03109 0-.05688-.00098-.079-.003-.0184-.002-.04391-.005-.07602-.0119-.02623-.005-.05018-.0124-.07304-.0194-.0277-.009-.05085-.0172-.07006-.0253-.02537-.0107-.04863-.0214-.06708-.0313-.02104-.0114-.04124-.0229-.0626-.0373-.02015-.0136-.03944-.0293-.05813-.0447-.02157-.0178-.04068-.0347-.05515-.0492-.01456-.0146-.02996-.0337-.0477-.0552-.01535-.0186-.03112-.0379-.04472-.0581-.01439-.0213-.02589-.0416-.03726-.0626-.01-.0184-.0236-.0402-.03428-.0656-.0081-.0192-.01377-.0438-.02236-.0715-.0071-.0229-.01404-.0453-.01938-.0716-.0066-.0322-.0101-.0576-.01192-.076-.0022-.0221-.0045-.0494-.0045-.0805s.0023-.0584.0045-.0805c.0019-.0184.0054-.0437.01192-.076.0053-.0262.0123-.0486.01938-.0715.0086-.0277.01423-.0508.02236-.0701.01067-.0253.02424-.0486.03428-.0671.01134-.0209.02283-.0412.03726-.0626.01354-.0201.02928-.0394.04472-.0581.01774-.0215.03314-.0405.0477-.0551.01457-.0146.0337-.0316.05515-.0492.01864-.0154.03806-.0312.05813-.0447.02129-.0144.04165-.026.0626-.0373.01853-.01.04179-.0207.06708-.0313.01929-.008.04236-.0167.07006-.0253.02267-.007.04662-.014.07304-.0194.03221-.007.05752-.0102.07602-.0119.02211-.002.04791-.003.079-.003a.76323708.76323708 0 0 0 .76167-.76167v-1.52781c0-1.25518-1.032828-2.28948-2.287992-2.28948h-.76167a.76323708.76323708 0 0 0 -.764651.76465c0 .0311-.000782.0554-.003.0775-.0019.0184-.0054.0453-.01192.0775-.0053.0263-.0123.0501-.01938.073-.0086.0277-.0172.0492-.02534.0686-.01067.0253-.02126.05-.0313.0686-.01135.0209-.02283.0382-.03726.0596-.01354.0201-.02928.0424-.04472.0611-.01775.0215-.03463.0405-.04919.0552-.01457.0146-.03371.0301-.05515.0477-.01863.0154-.03806.0296-.05813.0432-.02131.0144-.04165.0274-.0626.0387-.01853.01-.04179.0207-.06708.0313-.0193.008-.04236.0167-.07005.0253-.02269.007-.04513.0125-.07155.0179-.0322.007-.05752.0102-.07602.0119-.02211.002-.0494.004-.08049.004s-.05837-.002-.08049-.004c-.0185-.002-.04382-.005-.07602-.0119-.02642-.005-.04887-.0109-.07155-.0179-.0277-.009-.05226-.0172-.07155-.0253-.02529-.0107-.04706-.0213-.06558-.0313-.02095-.0113-.0413-.0243-.0626-.0387-.02007-.0135-.0395-.0278-.05813-.0432-.02144-.0177-.04057-.0332-.05515-.0477-.01456-.0146-.03145-.0337-.04919-.0552-.01544-.0187-.03118-.0411-.04472-.0611-.01442-.0214-.02591-.0386-.03726-.0596-.01004-.0185-.02063-.0432-.0313-.0686-.0081-.0193-.01676-.0409-.02534-.0686-.0071-.0229-.01404-.0467-.01938-.073-.0066-.0322-.0101-.0591-.01192-.0775-.0022-.0221-.003-.0464-.003-.0775a.76323708.76323708 0 0 0 -.76167-.76465h-2.290973a.76323708.76323708 0 0 0 -.76167.76465c0 .0311-.0023.0554-.0045.0775-.0019.0184-.0068.0453-.01341.0775-.0053.0262-.01081.0501-.01789.073-.0086.0277-.01721.0493-.02534.0686-.01067.0253-.02126.05-.0313.0686-.01134.0209-.02283.0382-.03726.0596-.01354.0201-.02928.0424-.04472.0611-.01774.0215-.03463.0405-.04919.0552-.01457.0146-.0337.03-.05515.0477-.01864.0154-.03806.0296-.05813.0432-.02131.0144-.04165.0274-.0626.0387-.01852.01-.0403.0207-.06558.0313-.01929.008-.04236.0167-.07006.0253-.02268.007-.04662.0125-.07304.0179-.03221.007-.05752.0102-.07602.0119-.02211.002-.0494.004-.08049.004s-.05837-.002-.08049-.004c-.0185-.002-.04382-.005-.07602-.0119-.02641-.005-.04886-.0109-.07155-.0179-.0277-.009-.05076-.0172-.07006-.0253-.02529-.0107-.04854-.0213-.06707-.0313-.02095-.0113-.04129-.0243-.0626-.0387-.02007-.0135-.0395-.0278-.05813-.0432-.02143-.0177-.04058-.0332-.05515-.0477-.01455-.0146-.03145-.0337-.04919-.0552-.01543-.0187-.03117-.0411-.04472-.0611-.01443-.0214-.02591-.0386-.03726-.0596-.01005-.0185-.02213-.0433-.03279-.0686h.003c-.0081-.0193-.01826-.0409-.02683-.0686-.0071-.0229-.01404-.0467-.01938-.073-.0066-.0322-.0086-.0591-.01043-.0775-.0022-.0221-.0045-.0464-.0045-.0775a.76323708.76323708 0 0 0 -.76316-.76465h-3.054134a.76323708.76323708 0 0 0 -.76167.76465c0 .0311-.000781.0554-.003.0775-.0019.0184-.0054.0453-.01192.0775-.0053.0263-.01231.0501-.01938.073-.0086.0277-.01721.0493-.02534.0686-.01067.0253-.02126.05-.0313.0686-.01134.0209-.02284.0382-.03726.0596-.01354.0201-.02929.0424-.04472.0611-.01775.0215-.03463.0405-.04919.0552-.01458.0146-.03371.03-.05515.0477-.01864.0154-.03806.0296-.05813.0432-.0213.0144-.04165.0274-.0626.0387-.01853.01-.04029.0207-.06558.0313-.01929.008-.04385.0167-.07155.0253-.02268.007-.04513.0125-.07155.0179-.03221.007-.05752.0102-.07602.0119-.02211.002-.0494.004-.08049.004s-.05837-.002-.08049-.004c-.0185-.002-.04382-.005-.07602-.0119-.02642-.005-.04887-.0109-.07155-.0179-.0277-.009-.05077-.0172-.07006-.0253-.02529-.0107-.04854-.0213-.06707-.0313-.02095-.0113-.0413-.0243-.0626-.0387-.02007-.0135-.0395-.0278-.05813-.0432-.02144-.0177-.04057-.0332-.05515-.0477-.01456-.0146-.03144-.0337-.04919-.0552-.01544-.0187-.03118-.0411-.04472-.0611-.01442-.0214-.02591-.0386-.03726-.0596-.01004-.0185-.02063-.0432-.0313-.0686-.0081-.0193-.01677-.0409-.02534-.0686-.0071-.0228-.01404-.0467-.01938-.073-.0066-.0322-.0101-.0591-.01192-.0775-.0022-.0221-.003-.0464-.003-.0775a.76323708.76323708 0 0 0 -.764651-.76465h-2.287992a.76323708.76323708 0 0 0 -.76167.76465c0 .0311-.0023.0554-.0045.0775-.0019.0184-.0068.0453-.01341.0775-.0053.0263-.01081.0501-.01789.073-.0086.0277-.01721.0493-.02534.0686-.01067.0253-.02126.05-.0313.0686-.01135.0209-.02283.0382-.03726.0596-.01355.0201-.02929.0424-.04472.0611-.01774.0215-.03463.0405-.04919.0552-.01457.0146-.03221.03-.05366.0477-.01862.0154-.03954.0296-.05962.0432-.02131.0144-.04165.0274-.0626.0387-.01853.01-.0418.0207-.06708.0313-.01898.008-.04154.0169-.06856.0253-.02268.007-.04662.0125-.07304.0179-.0322.007-.05752.0102-.07602.0119-.02211.002-.0494.004-.08049.004s-.05688-.002-.079-.004c-.0185-.002-.04382-.005-.07602-.0119-.02642-.005-.05035-.0109-.07304-.0179-.0277-.009-.05075-.0172-.07005-.0253-.02528-.0107-.04855-.0213-.06708-.0313-.02095-.0113-.04128-.0243-.0626-.0387-.02008-.0135-.03951-.0278-.05813-.0432-.02144-.0177-.04058-.0332-.05515-.0477-.01456-.0146-.02996-.0337-.0477-.0552-.01543-.0187-.03266-.0411-.04621-.0611-.01443-.0214-.02442-.0386-.03577-.0596-.01004-.0185-.02361-.0432-.03428-.0686-.0081-.0193-.01379-.0409-.02236-.0686-.0071-.0229-.01553-.0467-.02087-.073-.0066-.0322-.0086-.0591-.01043-.0775-.0022-.0221-.0045-.0464-.0045-.0775a.76323708.76323708 0 0 0 -.763161-.76465zm1.526321 4.58045h16.789538v19.84218h-16.789538zm9.581246 6.10529c-1.603162 0-2.930029 1.09362-3.311999 2.57417-.249788-.17825-.553788-.28469-.885386-.28469-.845566 0-1.526321.68076-1.526321 1.52632 0 .0115.0039.026.0045.0373-1.298215.18373-2.293954 1.2833-2.293954 2.63379 0 1.47978 1.191299 2.67107 2.671063 2.67107h8.394769c1.479767 0 2.671063-1.19126 2.671063-2.67107 0-1.36324-1.014977-2.46908-2.331218-2.63678.01673-.13787.04174-.27314.04174-.41586 0-1.90251-1.531676-3.43422-3.434223-3.43422z" fill-opacity=".2" transform="matrix(.34669408055 0 0 .34669408055 -10.23660042957 -98.94530685417)"/></g></svg>
