<svg
    height="96"
    viewBox="0 0 25.399999 25.4"
    width="96"
    xmlns="http://www.w3.org/2000/svg">
    <defs id="kuyenfoldercolor">
    <style type="text/css" id="current-color-scheme">
      .ColorScheme-Highlight {
        color:#03b2fe;
      }
      </style>
  </defs>
    <g
        stroke-linecap="round"
        stroke-linejoin="round"
        stroke-miterlimit="1.8"
        stroke-width="1.33333"
        transform="matrix(.39687499 0 0 .39687499 -2.38124994 -136.38609003875)">
        <g
            transform="matrix(.99999999887 0 0 .99999999887 .00000041588 -.00000267772)">
            <path
                d="m11.333338 345.64998 15.333329.00001c6.000001 0 8.666665 8 13.333333 8l24.666662-.00001c2.954671 0 5.333338 2.37867 5.333338 5.33334v33.33336c0 2.95466-2.378667 5.33334-5.333338 5.33334h-53.333324c-2.9546681 0-5.3333384-2.37868-5.3333384-5.33334v-41.33336c0-2.95467 2.3786703-5.33334 5.3333384-5.33334z"
                style="fill:currentColor"
                class="ColorScheme-Highlight"/>
            <path
                d="m11.333327 346.31668 15.333342-.00001c5.333331 0 8 8 13.333331 8l24.66667.00001c2.585331 0 4.66666 2.08133 4.66666 4.66667v33.33332c0 2.58533-2.081329 4.66666-4.66666 4.66666h-53.333343c-2.5853284 0-4.6666599-2.08133-4.6666599-4.66666v-41.33332c0-2.58535 2.0813315-4.66667 4.6666599-4.66667z"
                fill="#fff"
                fill-opacity=".09"/>
            <path
                d="m11.333333 345.64998c-2.9546684 0-5.3333334 2.37867-5.3333334 5.33334v41.33333c0 2.95467 2.378665 5.33333 5.3333334 5.33333h53.333334c2.954658 0 5.333328-2.37866 5.333328-5.33333v-33.33333c0-2.95467-2.37867-5.33334-5.333328-5.33334h-24.666672c-4.66665 0-7.33334-8-13.333331-8zm0 .66667h15.333331c5.333331 0 8.000011 8 13.333331 8h24.666672c2.585329 0 4.666668 2.08133 4.666668 4.66667v33.33333c0 2.58533-2.081339 4.66667-4.666668 4.66667h-53.333334c-2.5853312 0-4.6666681-2.08134-4.6666681-4.66667v-41.33333c0-2.58534 2.0813369-4.66667 4.6666681-4.66667z"
                fill-opacity=".2"/>
            <path
                d="m11.333338 361.64998 15.999994.00001c5.333336 0 7.333335-8 12.666668-8l24.666662-.00001c2.954671 0 5.333338 2.37867 5.333338 5.33334v41.33336c0 2.95467-2.378667 5.33334-5.333338 5.33334h-53.333324c-2.9546681 0-5.3333384-2.37867-5.3333384-5.33334v-33.33336c0-2.95467 2.3786703-5.33334 5.3333384-5.33334z"
                style="fill:currentColor"
                class="ColorScheme-Highlight"/>
            <path
                d="m40 354.31667c-4.666628 0-6.666721 8-12.666667 8h-16c-2.5853077 0-4.6666669 2.08138-4.6666669 4.66667v33.33333c0 2.58526 2.0813592 4.66667 4.6666669 4.66667h53.333333c2.585303 0 4.666667-2.08141 4.666667-4.66667v-41.33333c0-2.58529-2.081364-4.66667-4.666667-4.66667zm-1.326823 16a.66673168.66673168 0 0 1 .572916.33854l14 24.66537a.66673168.66673168 0 0 1 -.579427.99609h-28.666666a.66673168.66673168 0 0 1 -.572917-1.00781l14.666667-24.66537a.66673168.66673168 0 0 1 .579427-.32682zm-.006511 8.66667c-.738665 0-1.333333.59466-1.333333 1.33333v6c0 .73867.594668 1.33333 1.333333 1.33333s1.333334-.59466 1.333334-1.33333v-6c0-.73867-.594669-1.33333-1.333334-1.33333zm0 10c-.738665 0-1.333333.59466-1.333333 1.33333s.594668 1.33333 1.333333 1.33333 1.333334-.59466 1.333334-1.33333-.594669-1.33333-1.333334-1.33333z"
                fill="#fff"
                fill-opacity=".3"/>
            <path
                d="m40 353.65c-5.33332 0-7.333329 8-12.66667 8h-15.999999c-2.954663 0-5.3333306 2.37866-5.3333306 5.33333v33.33333c0 2.95467 2.3786676 5.33334 5.3333306 5.33334h53.333339c2.95466 0 5.33333-2.37867 5.33333-5.33334v-41.33333c0-2.95467-2.37867-5.33333-5.33333-5.33333zm0 .66666h24.66667c2.58532 0 4.66666 2.08133 4.66666 4.66667v41.33333c0 2.58533-2.08134 4.66667-4.66666 4.66667h-53.333339c-2.5853258 0-4.6666626-2.08134-4.6666626-4.66667v-33.33333c0-2.58534 2.0813368-4.66667 4.6666626-4.66667h15.999999c6.000001 0 8.00001-8 12.66667-8z"
                fill-opacity=".15"/>
            </g>
            <path
                d="m38.673167 370.31667a.66673168.66673168 0 0 0 -.579427.32682l-14.666667 24.66537a.66673168.66673168 0 0 0 .572917 1.00781h28.666666a.66673168.66673168 0 0 0 .57943-.99609l-14.000002-24.66537a.66673168.66673168 0 0 0 -.572917-.33854zm-.0065 8.66667c.738665 0 1.333333.59466 1.333333 1.33333v6c0 .73867-.594668 1.33333-1.333333 1.33333-.738666 0-1.333334-.59466-1.333334-1.33333v-6c0-.73867.594668-1.33333 1.333334-1.33333zm0 10c.738665 0 1.333333.59466 1.333333 1.33333s-.594668 1.33333-1.333333 1.33333c-.738666 0-1.333334-.59466-1.333334-1.33333s.594668-1.33333 1.333334-1.33333z"
                fill-opacity=".2"/>
            </g>
            </svg>
