<svg
    height="96"
    viewBox="0 0 25.399999 25.4"
    width="96"
    xmlns="http://www.w3.org/2000/svg">
    <defs id="kuyenfoldercolor">
    <style type="text/css" id="current-color-scheme">
      .ColorScheme-Highlight {
        color:#03b2fe;
      }
      </style>
  </defs>
    <g
        stroke-linecap="round"
        stroke-linejoin="round"
        stroke-miterlimit="1.8"
        stroke-width="5.03936"
        transform="matrix(.10500650645 0 0 .10500650645 -.56003466401 -36.08548512851)">
        <path
            d="m25.49083 351.20898 57.95274.00004c22.67717 0 32.7559 30.23622 50.3937 30.23622l93.22833-.00004c11.16726 0 20.1575 8.99025 20.1575 20.15751v125.98433c0 11.16725-8.99024 20.15751-20.1575 20.15751h-201.57477c-11.16725 0-20.1575-8.99026-20.1575-20.15751v-156.22055c0-11.16726 8.99025-20.15751 20.1575-20.15751z"
            style="fill:currentColor"
            class="ColorScheme-Highlight"/>
        <path
            d="m25.490788 353.72877 57.95279-.00004c20.157472 0 30.236222 30.23622 50.393692 30.23622l93.22836.00004c9.77133 0 17.63777 7.86645 17.63777 17.63781v125.98421c0 9.77132-7.86644 17.63777-17.63777 17.63777h-201.574842c-9.77132 0-17.6377698-7.86645-17.6377698-17.63777v-156.22043c0-9.77137 7.8664498-17.63781 17.6377698-17.63781z"
            fill="#fff"
            fill-opacity=".09"/>
        <path
            d="m25.49081 351.20898c-11.16725 0-20.15748 8.99025-20.15748 20.15751v156.22046c0 11.16726 8.99023 20.15747 20.15748 20.15747h201.57481c11.16721 0 20.15746-8.99021 20.15746-20.15747v-125.98424c0-11.16726-8.99025-20.15751-20.15746-20.15751h-93.22837c-17.63773 0-27.71656-30.23622-50.39369-30.23622zm0 2.5197h57.95275c20.15747 0 30.23626 30.23622 50.39369 30.23622h93.22837c9.77132 0 17.6378 7.86645 17.6378 17.63781v125.98424c0 9.77133-7.86648 17.63781-17.6378 17.63781h-201.57481c-9.77133 0-17.6378-7.86648-17.6378-17.63781v-156.22046c0-9.77137 7.86647-17.63781 17.6378-17.63781z"
            fill-opacity=".2"/>
        <path
            d="m25.49083 477.19323 60.47242.00004c20.15749 0 27.71654-30.23622 47.87402-30.23622l93.22833-.00004c11.16726 0 20.1575 8.99025 20.1575 20.15751v90.70874c0 11.16726-8.99024 20.15751-20.1575 20.15751h-201.57477c-11.16725 0-20.1575-8.99025-20.1575-20.15751v-60.47252c0-11.16726 8.99025-20.15752 20.1575-20.15751z"
            style="fill:currentColor"
            class="ColorScheme-Highlight"/>
        <path
            d="m133.83727 449.47676c-17.63778 0-25.19687 30.23622-47.874014 30.23622h-60.472442c-9.77132 0-17.6377958 7.86645-17.6377958 17.6378v60.47244c0 9.77132 7.8664758 17.6378 17.6377958 17.6378h201.574806c9.77131 0 17.6378-7.86648 17.6378-17.6378v-90.70866c0-9.77135-7.86649-17.6378-17.6378-17.6378z"
            fill="#fff"
            fill-opacity=".3"/>
        <path
            d="m133.83727 446.95708c-20.15743 0-27.71652 30.23623-47.874027 30.23623h-60.47244c-11.16723 0-20.1574699 8.99021-20.1574699 20.15746v60.47244c0 11.16726 8.9902399 20.1575 20.1574699 20.1575h201.574827c11.16722 0 20.15747-8.99024 20.15747-20.1575v-90.70866c0-11.16725-8.99025-20.15747-20.15747-20.15747zm0 2.51966h93.22836c9.77129 0 17.63777 7.86645 17.63777 17.63781v90.70866c0 9.77132-7.86648 17.63781-17.63777 17.63781h-201.574827c-9.77131 0-17.6377799-7.86649-17.6377799-17.63781v-60.47244c0-9.77136 7.8664699-17.6378 17.6377799-17.6378h60.47244c22.677167 0 30.236257-30.23623 47.874027-30.23623z"
            fill-opacity=".15"/>
        </g>
        </svg>
