<svg
    height="96"
    viewBox="0 0 25.399999 25.4"
    width="96"
    xmlns="http://www.w3.org/2000/svg">
    <defs id="kuyenfoldercolor">
    <style type="text/css" id="current-color-scheme">
      .ColorScheme-Highlight {
        color:#03b2fe;
      }
      </style>
  </defs>
    <g
        stroke-linecap="round"
        stroke-linejoin="round"
        stroke-miterlimit="1.8"
        transform="matrix(.39687499 0 0 .39687499 -2.38124994 -136.38609003875)">
        <g
            stroke-width="1.33333"
            transform="matrix(.99999999887 0 0 .99999999887 -.00000014437 .00000117974)">
            <path
                d="m11.333338 345.64998 15.333329.00001c6.000001 0 8.666665 8 13.333333 8l24.666662-.00001c2.954671 0 5.333338 2.37867 5.333338 5.33334v33.33336c0 2.95466-2.378667 5.33334-5.333338 5.33334h-53.333324c-2.9546681 0-5.3333384-2.37868-5.3333384-5.33334v-41.33336c0-2.95467 2.3786703-5.33334 5.3333384-5.33334z"
                style="fill:currentColor"
                class="ColorScheme-Highlight"/>
            <path
                d="m11.333327 346.31668 15.333342-.00001c5.333331 0 8 8 13.333331 8l24.66667.00001c2.585331 0 4.66666 2.08133 4.66666 4.66667v33.33332c0 2.58533-2.081329 4.66666-4.66666 4.66666h-53.333343c-2.5853284 0-4.6666599-2.08133-4.6666599-4.66666v-41.33332c0-2.58535 2.0813315-4.66667 4.6666599-4.66667z"
                fill="#fff"
                fill-opacity=".09"/>
            <path
                d="m11.333333 345.64998c-2.9546684 0-5.3333334 2.37867-5.3333334 5.33334v41.33333c0 2.95467 2.378665 5.33333 5.3333334 5.33333h53.333334c2.954658 0 5.333328-2.37866 5.333328-5.33333v-33.33333c0-2.95467-2.37867-5.33334-5.333328-5.33334h-24.666672c-4.66665 0-7.33334-8-13.333331-8zm0 .66667h15.333331c5.333331 0 8.000011 8 13.333331 8h24.666672c2.585329 0 4.666668 2.08133 4.666668 4.66667v33.33333c0 2.58533-2.081339 4.66667-4.666668 4.66667h-53.333334c-2.5853312 0-4.6666681-2.08134-4.6666681-4.66667v-41.33333c0-2.58534 2.0813369-4.66667 4.6666681-4.66667z"
                fill-opacity=".2"/>
            <path
                d="m11.333338 361.64998 15.999994.00001c5.333336 0 7.333335-8 12.666668-8l24.666662-.00001c2.954671 0 5.333338 2.37867 5.333338 5.33334v41.33336c0 2.95467-2.378667 5.33334-5.333338 5.33334h-53.333324c-2.9546681 0-5.3333384-2.37867-5.3333384-5.33334v-33.33336c0-2.95467 2.3786703-5.33334 5.3333384-5.33334z"
                style="fill:currentColor"
                class="ColorScheme-Highlight"/>
            <path
                d="m40 354.31667c-4.666648 0-6.666691 8-12.666667 8h-16c-2.5853203 0-4.6666667 2.08135-4.6666667 4.66666v33.33334c0 2.58529 2.0813464 4.66666 4.6666667 4.66666h53.333334c2.585317 0 4.666666-2.08137 4.666666-4.66666v-1.33334h-25.333333c-5.122867-.0002-9.741253-3.08616-11.701823-7.81901-1.96111-4.73319-.877782-10.18171 2.744792-13.80469 2.451968-2.45174 5.801842-3.79112 9.268229-3.70573 1.558408.03842 3.09632.3642 4.536458.96094 4.732855 1.96057 7.818811 6.57896 7.819011 11.70183h-2.666667c-.00021-4.04445-2.436611-7.69055-6.173177-9.23829-3.736676-1.54831-8.038118-.69317-10.898438 2.16667-2.85984 2.86032-3.714987 7.16175-2.166666 10.89844 1.547733 3.73656 5.193846 6.17298 9.238281 6.17318h25.333333v-1.33334h-25.333333c-3.505217-.0002-6.665192-2.11183-8.006511-5.35026-1.341331-3.23807-.600307-6.96526 1.877605-9.44401 1.677433-1.67778 3.969358-2.59466 6.341145-2.53646 1.066369.02628 2.118728.24922 3.104167.65755 3.238437 1.3413 5.350051 4.50131 5.350261 8.00652h-2.666667c-.00021-2.42678-1.462279-4.61449-3.704427-5.54297-2.241798-.9282-4.821993-.41485-6.537761 1.30078-1.715619 1.71578-2.228982 4.29597-1.300781 6.53776.928475 2.24217 3.116181 3.70421 5.542969 3.70443h25.333333v-1.33334h-25.333333c-1.887248 0-3.588732-1.13672-4.311198-2.88021-.722393-1.74389-.323078-3.75126 1.011719-5.08593.903119-.90335 2.137063-1.39709 3.414062-1.36589.57435.01413 1.141136.1342 1.671875.35417 1.743498.72246 2.880209 2.42393 2.880209 4.3112h-2.666667c.00001-.80882-.487166-1.53804-1.234375-1.84766-.747389-.30959-1.607688-.13845-2.179688.43359-.572049.57202-.743193 1.4323-.433593 2.17969.309629.74722 1.038837 1.23438 1.847656 1.23438h25.333333v-29.33334c0-2.58531-2.081349-4.66666-4.666666-4.66666z" fill="#fff" fill-opacity=".3"/>
            <path
                d="m40 353.65c-5.33332 0-7.333329 8-12.66667 8h-15.999999c-2.954663 0-5.3333306 2.37866-5.3333306 5.33333v33.33333c0 2.95467 2.3786676 5.33334 5.3333306 5.33334h53.333339c2.95466 0 5.33333-2.37867 5.33333-5.33334v-41.33333c0-2.95467-2.37867-5.33333-5.33333-5.33333zm0 .66666h24.66667c2.58532 0 4.66666 2.08133 4.66666 4.66667v41.33333c0 2.58533-2.08134 4.66667-4.66666 4.66667h-53.333339c-2.5853258 0-4.6666626-2.08134-4.6666626-4.66667v-33.33333c0-2.58534 2.0813368-4.66667 4.6666626-4.66667h15.999999c6.000001 0 8.00001-8 12.66667-8z" fill-opacity=".15"/></g><path d="m44.311398 373.65385c-3.46639-.0854-6.816254 1.25397-9.268225 3.70572-3.622577 3.62298-4.705902 9.07148-2.74479 13.80468 1.960572 4.73285 6.578953 7.81881 11.701825 7.81901h25.333331v-2.66666h-25.333331c-4.044439-.0002-7.69055-2.43661-9.238285-6.17318-1.548322-3.73669-.693173-8.03812 2.16667-10.89844 2.860323-2.85984 7.161755-3.71497 10.898435-2.16665 3.73657 1.54774 6.17297 5.19382 6.17318 9.23827h2.66666c-.0002-5.12287-3.08615-9.74125-7.81901-11.70182-1.44014-.59674-2.97805-.92251-4.53646-.96093zm-.099 3.99869c-2.37179-.0582-4.663706.85868-6.341141 2.53646-2.477914 2.47875-3.218936 6.20594-1.877603 9.44401 1.34132 3.23843 4.501294 5.35005 8.006514 5.35025h25.333331v-2.66666h-25.333331c-2.42679-.00022-4.614495-1.46227-5.542971-3.70444-.928202-2.24179-.414839-4.82197 1.300782-6.53775 1.715769-1.71563 4.295959-2.22899 6.537759-1.30079 2.24215.92848 3.70422 3.1162 3.70443 5.54298h2.66666c-.00021-3.50521-2.11182-6.6652-5.35026-8.0065-.98544-.40834-2.03779-.63128-3.10416-.65756zm-.0976 3.99869c-1.277-.0312-2.51095.46254-3.41407 1.36589-1.334798 1.33468-1.734111 3.34204-1.011717 5.08594.722467 1.74349 2.423947 2.8802 4.311197 2.8802h25.333331v-2.66666h-25.333331c-.80882 0-1.53803-.48715-1.84766-1.23437-.3096-.74739-.13845-1.60768.4336-2.1797.572-.57204 1.4323-.74318 2.17969-.43359.74721.30962 1.23438 1.03884 1.23437 1.84766h2.66667c0-1.88727-1.13671-3.58874-2.88021-4.3112-.53074-.21997-1.09753-.34004-1.67188-.35417z" fill-opacity=".2" stroke-width="1.29915"/></g></svg>
