<svg height="96" viewBox="0 0 25.399999 25.4" width="96" xmlns="http://www.w3.org/2000/svg"><defs id="kuyenfoldercolor">
    <style type="text/css" id="current-color-scheme">
      .ColorScheme-Highlight {
        color:#03b2fe;
      }
      </style>
  </defs><g stroke-linecap="round" stroke-linejoin="round" stroke-miterlimit="1.8" stroke-width="1.33333" transform="matrix(.39687499 0 0 .39687499 -2.38124994 -136.38609003875)"><path d="m11.333338 345.64998 15.333329.00001c6.000001 0 8.666665 8 13.333333 8l24.666662-.00001c2.954671 0 5.333338 2.37867 5.333338 5.33334v33.33336c0 2.95466-2.378667 5.33334-5.333338 5.33334h-53.333324c-2.9546681 0-5.3333384-2.37868-5.3333384-5.33334v-41.33336c0-2.95467 2.3786703-5.33334 5.3333384-5.33334z" style="fill:currentColor"
class="ColorScheme-Highlight"/><path d="m11.333327 346.31668 15.333342-.00001c5.333331 0 8 8 13.333331 8l24.66667.00001c2.585331 0 4.66666 2.08133 4.66666 4.66667v33.33332c0 2.58533-2.081329 4.66666-4.66666 4.66666h-53.333343c-2.5853284 0-4.6666599-2.08133-4.6666599-4.66666v-41.33332c0-2.58535 2.0813315-4.66667 4.6666599-4.66667z" fill="#fff" fill-opacity=".09"/><path d="m11.333333 345.64998c-2.9546684 0-5.3333334 2.37867-5.3333334 5.33334v41.33333c0 2.95467 2.378665 5.33333 5.3333334 5.33333h53.333334c2.954658 0 5.333328-2.37866 5.333328-5.33333v-33.33333c0-2.95467-2.37867-5.33334-5.333328-5.33334h-24.666672c-4.66665 0-7.33334-8-13.333331-8zm0 .66667h15.333331c5.333331 0 8.000011 8 13.333331 8h24.666672c2.585329 0 4.666668 2.08133 4.666668 4.66667v33.33333c0 2.58533-2.081339 4.66667-4.666668 4.66667h-53.333334c-2.5853312 0-4.6666681-2.08134-4.6666681-4.66667v-41.33333c0-2.58534 2.0813369-4.66667 4.6666681-4.66667z" fill-opacity=".2"/><path d="m11.333338 361.64998 15.999994.00001c5.333336 0 7.333335-8 12.666668-8l24.666662-.00001c2.954671 0 5.333338 2.37867 5.333338 5.33334v41.33336c0 2.95467-2.378667 5.33334-5.333338 5.33334h-53.333324c-2.9546681 0-5.3333384-2.37867-5.3333384-5.33334v-33.33336c0-2.95467 2.3786703-5.33334 5.3333384-5.33334z" style="fill:currentColor"
class="ColorScheme-Highlight"/><path d="m40 354.31667c-4.66663 0-6.666715 8-12.666667 8h-16c-2.5853096 0-4.6666665 2.08138-4.6666665 4.66666v33.33334c0 2.58526 2.0813569 4.66666 4.6666665 4.66666h53.333334c2.585305 0 4.666667-2.0814 4.666667-4.66666v-41.33334c0-2.58528-2.081362-4.66666-4.666667-4.66666zm-7.277344 16.66666c2.071975 0 3.938154.84876 5.277344 2.22005 1.33919-1.37129 3.205369-2.22005 5.277344-2.22005 4.057859 0 7.326235 3.25572 7.382812 7.31901.004223.03511.006205.07015.006511.10547 0 .26854-.014328.53197-.041667.79297-.206761 3.1297-1.603545 5.81134-3.654948 8.13021-2.223953 2.51394-5.194937 4.671-8.384114 6.80729-.35456.23747-.817305.23747-1.171876 0-3.189166-2.13629-6.160171-4.29335-8.384114-6.80729-2.051405-2.31887-3.448178-5.00052-3.654948-8.13021-.027402-.261-.041667-.52442-.041667-.79297-.000105-.03256.001057-.06531.003907-.09765.052156-4.06723 3.324739-7.32683 7.385416-7.32683z" fill="#fff" fill-opacity=".3"/><path d="m40 353.65c-5.33332 0-7.333329 8-12.66667 8h-15.999999c-2.954663 0-5.3333306 2.37866-5.3333306 5.33333v33.33333c0 2.95467 2.3786676 5.33334 5.3333306 5.33334h53.333339c2.95466 0 5.33333-2.37867 5.33333-5.33334v-41.33333c0-2.95467-2.37867-5.33333-5.33333-5.33333zm0 .66666h24.66667c2.58532 0 4.66666 2.08133 4.66666 4.66667v41.33333c0 2.58533-2.08134 4.66667-4.66666 4.66667h-53.333339c-2.5853258 0-4.6666626-2.08134-4.6666626-4.66667v-33.33333c0-2.58534 2.0813368-4.66667 4.6666626-4.66667h15.999999c6.000001 0 8.00001-8 12.66667-8z" fill-opacity=".15"/></g><path d="m92.999969 279.15002c-3.84697 0-6.946683 3.0734-6.996095 6.90821-.0027.0305-.004.0611-.0039.0918 0 .2532.0131.50196.03906.74805.195888 2.95085 1.519453 5.47965 3.462895 7.66601 2.1069 2.37029 4.92202 4.40375 7.943345 6.41797.33591.2239.77348.2239 1.10938 0 3.021336-2.01422 5.836446-4.04768 7.943356-6.41797 1.94344-2.18636 3.26701-4.71515 3.46289-7.66601.0259-.24609.0391-.49486.0391-.74805-.00029-.0333-.002-.0665-.006-.0996-.0536-3.8311-3.1498-6.90039-6.9941-6.90039-1.96293 0-3.731286.80082-4.999996 2.09375-1.26871-1.29293-3.037065-2.09375-4.999995-2.09375z" fill-opacity=".2" opacity=".99" transform="matrix(.41892269425 0 0 .42092869143 -28.3544222414 -106.65433767327)"/></svg>
