<svg
    height="96"
    viewBox="0 0 25.399999 25.4"
    width="96"
    xmlns="http://www.w3.org/2000/svg">
    <defs id="kuyenfoldercolor">
    <style type="text/css" id="current-color-scheme">
      .ColorScheme-Highlight {
        color:#03b2fe;
      }
      </style>
  </defs>
    <g
        stroke-linecap="round"
        stroke-linejoin="round"
        stroke-miterlimit="1.8"
        transform="matrix(.39687499 0 0 .39687499 -2.38124994 -136.38609003875)">
        <g
            stroke-width="1.33333"
            transform="matrix(.99999999887 0 0 .99999999887 -.00000014437 .00000117974)">
            <path
                d="m11.333338 345.64998 15.333329.00001c6.000001 0 8.666665 8 13.333333 8l24.666662-.00001c2.954671 0 5.333338 2.37867 5.333338 5.33334v33.33336c0 2.95466-2.378667 5.33334-5.333338 5.33334h-53.333324c-2.9546681 0-5.3333384-2.37868-5.3333384-5.33334v-41.33336c0-2.95467 2.3786703-5.33334 5.3333384-5.33334z"
                style="fill:currentColor"
                class="ColorScheme-Highlight"/>
            <path
                d="m11.333327 346.31668 15.333342-.00001c5.333331 0 8 8 13.333331 8l24.66667.00001c2.585331 0 4.66666 2.08133 4.66666 4.66667v33.33332c0 2.58533-2.081329 4.66666-4.66666 4.66666h-53.333343c-2.5853284 0-4.6666599-2.08133-4.6666599-4.66666v-41.33332c0-2.58535 2.0813315-4.66667 4.6666599-4.66667z"
                fill="#fff"
                fill-opacity=".09"/>
            <path
                d="m11.333333 345.64998c-2.9546684 0-5.3333334 2.37867-5.3333334 5.33334v41.33333c0 2.95467 2.378665 5.33333 5.3333334 5.33333h53.333334c2.954658 0 5.333328-2.37866 5.333328-5.33333v-33.33333c0-2.95467-2.37867-5.33334-5.333328-5.33334h-24.666672c-4.66665 0-7.33334-8-13.333331-8zm0 .66667h15.333331c5.333331 0 8.000011 8 13.333331 8h24.666672c2.585329 0 4.666668 2.08133 4.666668 4.66667v33.33333c0 2.58533-2.081339 4.66667-4.666668 4.66667h-53.333334c-2.5853312 0-4.6666681-2.08134-4.6666681-4.66667v-41.33333c0-2.58534 2.0813369-4.66667 4.6666681-4.66667z"
                fill-opacity=".2"/>
            <path
                d="m11.333338 361.64998 15.999994.00001c5.333336 0 7.333335-8 12.666668-8l24.666662-.00001c2.954671 0 5.333338 2.37867 5.333338 5.33334v41.33336c0 2.95467-2.378667 5.33334-5.333338 5.33334h-53.333324c-2.9546681 0-5.3333384-2.37867-5.3333384-5.33334v-33.33336c0-2.95467 2.3786703-5.33334 5.3333384-5.33334z"
                style="fill:currentColor"
                class="ColorScheme-Highlight"/>
            <path
                d="m40 354.31667c-4.666636 0-6.666709 8-12.666667 8h-16c-2.5853127 0-4.6666668 2.08136-4.6666668 4.66666v33.33334c0 2.58527 2.0813541 4.66666 4.6666668 4.66666h53.333334c2.585308 0 4.666666-2.08139 4.666666-4.66666v-41.33334c0-2.5853-2.081358-4.66666-4.666666-4.66666zm.666666 18.66666c4.431986 0 8.000001 3.56803 8.000001 8 0 .23761-.012463.4722-.032553.70443 2.653341.31189 4.699219 2.55573 4.699219 5.29557 0 2.95467-2.378675 5.33334-5.333333 5.33334h-20c-2.954658 0-5.333334-2.37867-5.333334-5.33334 0-2.76101 2.077192-5.01926 4.760417-5.30338.449219-2.30257 2.46835-4.02995 4.90625-4.02995.34625 0 .684343.03516 1.010417.10156 1.237404-2.81265 4.042737-4.76823 7.322916-4.76823z"
                fill="#fff"
                fill-opacity=".3"/>
            <path
                d="m40 353.65c-5.33332 0-7.333329 8-12.66667 8h-15.999999c-2.954663 0-5.3333306 2.37866-5.3333306 5.33333v33.33333c0 2.95467 2.3786676 5.33334 5.3333306 5.33334h53.333339c2.95466 0 5.33333-2.37867 5.33333-5.33334v-41.33333c0-2.95467-2.37867-5.33333-5.33333-5.33333zm0 .66666h24.66667c2.58532 0 4.66666 2.08133 4.66666 4.66667v41.33333c0 2.58533-2.08134 4.66667-4.66666 4.66667h-53.333339c-2.5853258 0-4.6666626-2.08134-4.6666626-4.66667v-33.33333c0-2.58534 2.0813368-4.66667 4.6666626-4.66667h15.999999c6.000001 0 8.00001-8 12.66667-8z"
                fill-opacity=".15"/>
            </g>
            <path
                d="m40.666667 372.98333c-3.280183 0-6.085512 1.95558-7.322917 4.76823-.326074-.0664-.664167-.10156-1.010417-.10156-2.437903 0-4.457031 1.72738-4.90625 4.02995-2.683228.28412-4.760416 2.54237-4.760416 5.30338 0 2.95467 2.378672 5.33334 5.333333 5.33334h20c2.954661 0 5.333333-2.37867 5.333333-5.33334 0-2.73984-2.045875-4.98368-4.699218-5.29557.02009-.23223.03255-.46682.03255-.70443 0-4.43198-3.56801-8-8-8z"
                fill-opacity=".2"
                stroke-width="1.29352"/>
            </g>
            </svg>
