<svg height="96" viewBox="0 0 25.399999 25.4" width="96" xmlns="http://www.w3.org/2000/svg"><defs id="kuyenfoldercolor">
    <style type="text/css" id="current-color-scheme">
      .ColorScheme-Highlight {
        color:#03b2fe;
      }
      </style>
  </defs><g transform="matrix(.39687499 0 0 .39687499 -2.38125 -136.38609)"><g stroke-linecap="round" stroke-linejoin="round" stroke-miterlimit="1.8" stroke-width="1.33333"><path d="m11.333338 345.64998 15.333329.00001c6.000001 0 8.666665 8 13.333333 8l24.666662-.00001c2.954671 0 5.333338 2.37867 5.333338 5.33334v33.33336c0 2.95466-2.378667 5.33334-5.333338 5.33334h-53.333324c-2.9546681 0-5.3333384-2.37868-5.3333384-5.33334v-41.33336c0-2.95467 2.3786703-5.33334 5.3333384-5.33334z" style="fill:currentColor"
class="ColorScheme-Highlight"/><path d="m11.333327 346.31668 15.333342-.00001c5.333331 0 8 8 13.333331 8l24.66667.00001c2.585331 0 4.66666 2.08133 4.66666 4.66667v33.33332c0 2.58533-2.081329 4.66666-4.66666 4.66666h-53.333343c-2.5853284 0-4.6666599-2.08133-4.6666599-4.66666v-41.33332c0-2.58535 2.0813315-4.66667 4.6666599-4.66667z" fill="#fff" fill-opacity=".09"/><path d="m11.333333 345.64998c-2.9546684 0-5.3333334 2.37867-5.3333334 5.33334v41.33333c0 2.95467 2.378665 5.33333 5.3333334 5.33333h53.333334c2.954658 0 5.333328-2.37866 5.333328-5.33333v-33.33333c0-2.95467-2.37867-5.33334-5.333328-5.33334h-24.666672c-4.66665 0-7.33334-8-13.333331-8zm0 .66667h15.333331c5.333331 0 8.000011 8 13.333331 8h24.666672c2.585329 0 4.666668 2.08133 4.666668 4.66667v33.33333c0 2.58533-2.081339 4.66667-4.666668 4.66667h-53.333334c-2.5853312 0-4.6666681-2.08134-4.6666681-4.66667v-41.33333c0-2.58534 2.0813369-4.66667 4.6666681-4.66667z" fill-opacity=".2"/><path d="m11.333338 361.64998 15.999994.00001c5.333336 0 7.333335-8 12.666668-8l24.666662-.00001c2.954671 0 5.333338 2.37867 5.333338 5.33334v41.33336c0 2.95467-2.378667 5.33334-5.333338 5.33334h-53.333324c-2.9546681 0-5.3333384-2.37867-5.3333384-5.33334v-33.33336c0-2.95467 2.3786703-5.33334 5.3333384-5.33334z" style="fill:currentColor"
class="ColorScheme-Highlight"/><path d="m40 354.31667c-4.666653 0-6.666685 8-12.666667 8h-16c-2.5853228 0-4.6666663 2.08135-4.6666663 4.66666v33.33334c0 2.5853 2.0813435 4.66666 4.6666663 4.66666h53.333334c2.58532 0 4.666667-2.08136 4.666667-4.66666v-41.33334c0-2.58531-2.081347-4.66666-4.666667-4.66666zm-13.333333 15.33333h22.666667c.738665 0 1.333333.59466 1.333333 1.33333v25.33334c0 .73864-.594668 1.33333-1.333333 1.33333h-22.666667c-.738663 0-1.333334-.59469-1.333334-1.33333v-25.33334c0-.73867.594671-1.33333 1.333334-1.33333zm1.333333 2.66667c-.369332 0-.666667.29733-.666667.66666v2c0 .36934.297335.66667.666667.66667h.666667c.369329 0 .666666-.29733.666666-.66667v-2c0-.36933-.297337-.66666-.666666-.66666zm19.333334 0c-.369331 0-.666667.29733-.666667.66666v2c0 .36934.297336.66667.666667.66667h.666666c.369331 0 .666667-.29733.666667-.66667v-2c0-.36933-.297336-.66666-.666667-.66666zm-14.666667.66666c-.738664 0-1.333334.59467-1.333334 1.33334v18.66666c0 .73867.59467 1.33334 1.333334 1.33334h10.666667c.738663 0 1.333333-.59467 1.333333-1.33334v-18.66666c0-.73867-.59467-1.33334-1.333333-1.33334zm-4.666667 4c-.369332 0-.666667.29734-.666667.66667v2c0 .36933.297335.66667.666667.66667h.666667c.369329 0 .666666-.29734.666666-.66667v-2c0-.36933-.297337-.66667-.666666-.66667zm19.333334 0c-.369331 0-.666667.29734-.666667.66667v2c0 .36933.297336.66667.666667.66667h.666666c.369331 0 .666667-.29734.666667-.66667v-2c0-.36933-.297336-.66667-.666667-.66667zm-12.660157 1.33334a.66673334.66673334 0 0 1 .376302.11979l6.666667 4.66666a.66673334.66673334 0 0 1 0 1.09245l-6.666667 4.66667a.66673334.66673334 0 0 1 -1.049479-.54557v-9.33334a.66673334.66673334 0 0 1 .673177-.66666zm-6.673177 3.33333c-.369332 0-.666667.29733-.666667.66667v2c0 .36933.297335.66666.666667.66666h.666667c.369329 0 .666666-.29733.666666-.66666v-2c0-.36934-.297337-.66667-.666666-.66667zm19.333334 0c-.369331 0-.666667.29733-.666667.66667v2c0 .36933.297336.66666.666667.66666h.666666c.369331 0 .666667-.29733.666667-.66666v-2c0-.36934-.297336-.66667-.666667-.66667zm-19.333334 4.66667c-.369332 0-.666667.29733-.666667.66666v2c0 .36934.297335.66667.666667.66667h.666667c.369329 0 .666666-.29733.666666-.66667v-2c0-.36933-.297337-.66666-.666666-.66666zm19.333334 0c-.369331 0-.666667.29733-.666667.66666v2c0 .36934.297336.66667.666667.66667h.666666c.369331 0 .666667-.29733.666667-.66667v-2c0-.36933-.297336-.66666-.666667-.66666zm-19.333334 4.66666c-.369332 0-.666667.29734-.666667.66667v2c0 .36933.297335.66667.666667.66667h.666667c.369329 0 .666666-.29734.666666-.66667v-2c0-.36933-.297337-.66667-.666666-.66667zm19.333334 0c-.369331 0-.666667.29734-.666667.66667v2c0 .36933.297336.66667.666667.66667h.666666c.369331 0 .666667-.29734.666667-.66667v-2c0-.36933-.297336-.66667-.666667-.66667z" fill="#fff" fill-opacity=".3"/><path d="m40 353.65c-5.33332 0-7.333329 8-12.66667 8h-15.999999c-2.954663 0-5.3333306 2.37866-5.3333306 5.33333v33.33333c0 2.95467 2.3786676 5.33334 5.3333306 5.33334h53.333339c2.95466 0 5.33333-2.37867 5.33333-5.33334v-41.33333c0-2.95467-2.37867-5.33333-5.33333-5.33333zm0 .66666h24.66667c2.58532 0 4.66666 2.08133 4.66666 4.66667v41.33333c0 2.58533-2.08134 4.66667-4.66666 4.66667h-53.333339c-2.5853258 0-4.6666626-2.08134-4.6666626-4.66667v-33.33333c0-2.58534 2.0813368-4.66667 4.6666626-4.66667h15.999999c6.000001 0 8.00001-8 12.66667-8z" fill-opacity=".15"/></g><path d="m26.666667 369.65c-.738664 0-1.333334.59466-1.333334 1.33333v25.33333c0 .73865.59467 1.33334 1.333334 1.33334h22.666666c.738666 0 1.333334-.59469 1.333334-1.33334v-25.33333c0-.73867-.594668-1.33333-1.333334-1.33333zm1.333333 2.66666h.666667c.36933 0 .666666.29734.666666.66667v2c0 .36933-.297336.66667-.666666.66667h-.666667c-.369332 0-.666667-.29734-.666667-.66667v-2c0-.36933.297335-.66667.666667-.66667zm19.333333 0h.666667c.369331 0 .666667.29734.666667.66667v2c0 .36933-.297336.66667-.666667.66667h-.666667c-.369331 0-.666666-.29734-.666666-.66667v-2c0-.36933.297335-.66667.666666-.66667zm-14.666666.66667h10.666666c.738665 0 1.333334.59467 1.333334 1.33333v18.66667c0 .73867-.594669 1.33333-1.333334 1.33333h-10.666666c-.738665 0-1.333334-.59466-1.333334-1.33333v-18.66667c0-.73866.594669-1.33333 1.333334-1.33333zm-4.666667 4h.666667c.36933 0 .666666.29733.666666.66667v2c0 .36933-.297336.66666-.666666.66666h-.666667c-.369332 0-.666667-.29733-.666667-.66666v-2c0-.36934.297335-.66667.666667-.66667zm19.333333 0h.666667c.369331 0 .666667.29733.666667.66667v2c0 .36933-.297336.66666-.666667.66666h-.666667c-.369331 0-.666666-.29733-.666666-.66666v-2c0-.36934.297335-.66667.666666-.66667zm-12.660156 1.33333a.66673334.66673334 0 0 0 -.673177.66667v9.33333a.66673334.66673334 0 0 0 1.049479.54558l6.666667-4.66667a.66673334.66673334 0 0 0 0-1.09245l-6.666667-4.66667a.66673334.66673334 0 0 0 -.376302-.11979zm-6.673177 3.33334h.666667c.36933 0 .666666.29733.666666.66666v2c0 .36934-.297336.66667-.666666.66667h-.666667c-.369332 0-.666667-.29733-.666667-.66667v-2c0-.36933.297335-.66666.666667-.66666zm19.333333 0h.666667c.369331 0 .666667.29733.666667.66666v2c0 .36934-.297336.66667-.666667.66667h-.666667c-.369331 0-.666666-.29733-.666666-.66667v-2c0-.36933.297335-.66666.666666-.66666zm-19.333333 4.66666h.666667c.36933 0 .666666.29734.666666.66667v2c0 .36933-.297336.66667-.666666.66667h-.666667c-.369332 0-.666667-.29734-.666667-.66667v-2c0-.36933.297335-.66667.666667-.66667zm19.333333 0h.666667c.369331 0 .666667.29734.666667.66667v2c0 .36933-.297336.66667-.666667.66667h-.666667c-.369331 0-.666666-.29734-.666666-.66667v-2c0-.36933.297335-.66667.666666-.66667zm-19.333333 4.66667h.666667c.36933 0 .666666.29733.666666.66667v2c0 .36933-.297336.66666-.666666.66666h-.666667c-.369332 0-.666667-.29733-.666667-.66666v-2c0-.36934.297335-.66667.666667-.66667zm19.333333 0h.666667c.369331 0 .666667.29733.666667.66667v2c0 .36933-.297336.66666-.666667.66666h-.666667c-.369331 0-.666666-.29733-.666666-.66666v-2c0-.36934.297335-.66667.666666-.66667z" fill-opacity=".2"/></g></svg>
