<svg
    height="96"
    viewBox="0 0 25.399999 25.4"
    width="96"
    xmlns="http://www.w3.org/2000/svg">
    <defs id="kuyenfoldercolor">
    <style type="text/css" id="current-color-scheme">
      .ColorScheme-Highlight {
        color:#03b2fe;
      }
      </style>
  </defs>
    <g
        stroke-linecap="round"
        stroke-linejoin="round"
        stroke-miterlimit="1.8">
        <g
            stroke-width="1.33333"
            transform="matrix(.39687499 0 0 .39687499 -2.38124994 -136.38609003875)">
            <path
                d="m11.333338 345.64998 15.333329.00001c6.000001 0 8.666665 8 13.333333 8l24.666662-.00001c2.954671 0 5.333338 2.37867 5.333338 5.33334v33.33336c0 2.95466-2.378667 5.33334-5.333338 5.33334h-53.333324c-2.9546681 0-5.3333384-2.37868-5.3333384-5.33334v-41.33336c0-2.95467 2.3786703-5.33334 5.3333384-5.33334z"
                style="fill:currentColor"
class="ColorScheme-Highlight"/>
            <path
                d="m11.333327 346.31668 15.333342-.00001c5.333331 0 8 8 13.333331 8l24.66667.00001c2.585331 0 4.66666 2.08133 4.66666 4.66667v33.33332c0 2.58533-2.081329 4.66666-4.66666 4.66666h-53.333343c-2.5853284 0-4.6666599-2.08133-4.6666599-4.66666v-41.33332c0-2.58535 2.0813315-4.66667 4.6666599-4.66667z"
                fill="#fff"
                fill-opacity=".09"/>
            <path
                d="m11.333333 345.64998c-2.9546684 0-5.3333334 2.37867-5.3333334 5.33334v41.33333c0 2.95467 2.378665 5.33333 5.3333334 5.33333h53.333334c2.954658 0 5.333328-2.37866 5.333328-5.33333v-33.33333c0-2.95467-2.37867-5.33334-5.333328-5.33334h-24.666672c-4.66665 0-7.33334-8-13.333331-8zm0 .66667h15.333331c5.333331 0 8.000011 8 13.333331 8h24.666672c2.585329 0 4.666668 2.08133 4.666668 4.66667v33.33333c0 2.58533-2.081339 4.66667-4.666668 4.66667h-53.333334c-2.5853312 0-4.6666681-2.08134-4.6666681-4.66667v-41.33333c0-2.58534 2.0813369-4.66667 4.6666681-4.66667z"
                fill-opacity=".2"/>
            <path
                d="m11.333338 361.64998 15.999994.00001c5.333336 0 7.333335-8 12.666668-8l24.666662-.00001c2.954671 0 5.333338 2.37867 5.333338 5.33334v41.33336c0 2.95467-2.378667 5.33334-5.333338 5.33334h-53.333324c-2.9546681 0-5.3333384-2.37867-5.3333384-5.33334v-33.33336c0-2.95467 2.3786703-5.33334 5.3333384-5.33334z"
                style="fill:currentColor"
class="ColorScheme-Highlight"/>
            <path
                d="m40 354.31667c-4.66663 0-6.666715 8-12.666667 8h-16c-2.5853096 0-4.6666665 2.08138-4.6666665 4.66666v33.33334c0 2.58526 2.0813569 4.66666 4.6666665 4.66666h53.333334c2.585305 0 4.666667-2.0814 4.666667-4.66666v-41.33334c0-2.58528-2.081362-4.66666-4.666667-4.66666zm16 17.33333c4.431984 0 8 3.56801 8 8v.66667 1.33333.66667.66666 9.33334l-2-2-2 2-2-2-2 2-2-2-2 2-2-2-2 2v-9.33334-.66666-.66667-1.33333-.66667c0-4.43199 3.568019-8 8-8zm-33.766927.0026c2.427332.05311 4.763926.93272 6.623698 2.49349l-6.856771 8.17058h10.666667c.000101 5.00157-3.475047 9.33157-8.358073 10.41406-4.882758 1.08209-9.861735-1.37357-11.975261-5.90625-2.113677-4.53263-.794358-9.92522 3.173177-12.97005 1.926241-1.47812 4.29913-2.25483 6.726563-2.20183zm30.10026 5.33073c-.92333 0-1.666666.74334-1.666666 1.66667s.743336 1.66667 1.666666 1.66667c.923331 0 1.666667-.74334 1.666667-1.66667s-.743336-1.66667-1.666667-1.66667zm7.333334 0c-.923331 0-1.666667.74334-1.666667 1.66667s.743336 1.66667 1.666667 1.66667c.92333 0 1.666666-.74334 1.666666-1.66667s-.743336-1.66667-1.666666-1.66667zm-42 .66667c-1.292663 0-2.333334 1.04066-2.333334 2.33333 0 1.29265 1.040671 2.33334 2.333334 2.33334 1.292662 0 2.333333-1.04069 2.333333-2.33334 0-1.29267-1.040671-2.33333-2.333333-2.33333zm19.666666 3.33333c1.107998 0 2 .892 2 2s-.892002 2-2 2-2-.892-2-2 .892002-2 2-2zm6 0c1.107998 0 2 .892 2 2s-.892002 2-2 2-2-.892-2-2 .892002-2 2-2z" fill="#fff" fill-opacity=".3"/>
            <path
                d="m40 353.65c-5.33332 0-7.333329 8-12.66667 8h-15.999999c-2.954663 0-5.3333306 2.37866-5.3333306 5.33333v33.33333c0 2.95467 2.3786676 5.33334 5.3333306 5.33334h53.333339c2.95466 0 5.33333-2.37867 5.33333-5.33334v-41.33333c0-2.95467-2.37867-5.33333-5.33333-5.33333zm0 .66666h24.66667c2.58532 0 4.66666 2.08133 4.66666 4.66667v41.33333c0 2.58533-2.08134 4.66667-4.66666 4.66667h-53.333339c-2.5853258 0-4.6666626-2.08134-4.6666626-4.66667v-33.33333c0-2.58534 2.0813368-4.66667 4.6666626-4.66667h15.999999c6.000001 0 8.00001-8 12.66667-8z"
                fill-opacity=".15"/></g><path d="m22.233073 374.31927c-2.427435-.053-4.80032.7237-6.726563 2.20182-3.967539 3.04484-5.286856 8.43742-3.173177 12.97005 2.113528 4.53269 7.092498 6.98834 11.975261 5.90625 4.883031-1.08249 8.358174-5.41248 8.358073-10.41406h-10.666667l6.856771-8.17057c-1.859774-1.56077-4.196363-2.44038-6.623698-2.49349zm33.76748-.003c-4.431986 0-8 3.56801-8 8v.66667 1.33333.66667.66666l-.000553 9.33373 2-2 2 2 2-2 2 2 2-2 2 2 2-2 2 2 .000553-9.33327v-.66666-.66667-1.33333-.66667c0-4.43199-3.568012-8-8-8zm-38.333886 5.99993c1.292664 0 2.333333 1.04067 2.333333 2.33334 0 1.29265-1.040669 2.33333-2.333333 2.33333s-2.333334-1.04068-2.333334-2.33333c0-1.29267 1.04067-2.33334 2.333334-2.33334zm34.667219-.6666c.923332 0 1.666667.74334 1.666667 1.66667s-.743335 1.66667-1.666667 1.66667c-.923331 0-1.666666-.74334-1.666666-1.66667s.743335-1.66667 1.666666-1.66667zm7.333334 0c.923331 0 1.666666.74334 1.666666 1.66667s-.743335 1.66667-1.666666 1.66667c-.923332 0-1.666667-.74334-1.666667-1.66667s.743335-1.66667 1.666667-1.66667zm-22.333887 4.0004c-1.107999 0-2 .892-2 2s.892001 2 2 2 2-.892 2-2-.892001-2-2-2zm6 0c-1.107999 0-2 .892-2 2s.892001 2 2 2 2-.892 2-2-.892001-2-2-2z" fill-opacity=".2" stroke-width="1.33334" transform="matrix(.39687499 0 0 .39687499 -2.38135987437 -137.44434330896)"/></g></svg>
