<svg
    height="96"
    viewBox="0 0 25.399999 25.4"
    width="96"
    xmlns="http://www.w3.org/2000/svg">
    <defs id="kuyenfoldercolor">
    <style type="text/css" id="current-color-scheme">
      .ColorScheme-Highlight {
        color:#03b2fe;
      }
      </style>
  </defs>
    <g
        stroke-linecap="round"
        stroke-linejoin="round"
        stroke-miterlimit="1.8"
        transform="matrix(.39687499 0 0 .39687499 -2.38124994 -136.38609003875)">
        <g
            stroke-width="5.03936"
            transform="matrix(.26458333 0 0 .26458333 4.588889 252.72594)">
            <path
                d="m25.49083 351.20898 57.95274.00004c22.67717 0 32.7559 30.23622 50.3937 30.23622l93.22833-.00004c11.16726 0 20.1575 8.99025 20.1575 20.15751v125.98433c0 11.16725-8.99024 20.15751-20.1575 20.15751h-201.57477c-11.16725 0-20.1575-8.99026-20.1575-20.15751v-156.22055c0-11.16726 8.99025-20.15751 20.1575-20.15751z"
                style="fill:currentColor"
                class="ColorScheme-Highlight"/>
            <path
                d="m25.490788 353.72877 57.95279-.00004c20.157472 0 30.236222 30.23622 50.393692 30.23622l93.22836.00004c9.77133 0 17.63777 7.86645 17.63777 17.63781v125.98421c0 9.77132-7.86644 17.63777-17.63777 17.63777h-201.574842c-9.77132 0-17.6377698-7.86645-17.6377698-17.63777v-156.22043c0-9.77137 7.8664498-17.63781 17.6377698-17.63781z"
                fill="#fff"
                fill-opacity=".09"/>
            <path
                d="m25.49081 351.20898c-11.16725 0-20.15748 8.99025-20.15748 20.15751v156.22046c0 11.16726 8.99023 20.15747 20.15748 20.15747h201.57481c11.16721 0 20.15746-8.99021 20.15746-20.15747v-125.98424c0-11.16726-8.99025-20.15751-20.15746-20.15751h-93.22837c-17.63773 0-27.71656-30.23622-50.39369-30.23622zm0 2.5197h57.95275c20.15747 0 30.23626 30.23622 50.39369 30.23622h93.22837c9.77132 0 17.6378 7.86645 17.6378 17.63781v125.98424c0 9.77133-7.86648 17.63781-17.6378 17.63781h-201.57481c-9.77133 0-17.6378-7.86648-17.6378-17.63781v-156.22046c0-9.77137 7.86647-17.63781 17.6378-17.63781z"
                fill-opacity=".2"/>
            <path
                d="m25.49083 411.68142 60.47242.00004c20.15749 0 27.71654-30.23622 47.87402-30.23622l93.22833-.00004c11.16726 0 20.1575 8.99025 20.1575 20.15751v156.22055c0 11.16726-8.99024 20.15751-20.1575 20.15751h-201.57477c-11.16725 0-20.1575-8.99025-20.1575-20.15751v-125.98433c0-11.16726 8.99025-20.15751 20.1575-20.15751z"
                fill="#03b2fe"/>
            <path
                d="m133.83727 383.96495c-17.63776 0-25.1969 30.23622-47.874016 30.23622h-60.472443c-9.77131 0-17.6377951 7.86646-17.6377951 17.6378v125.98425c0 9.77131 7.8664851 17.6378 17.6377951 17.6378h201.574809c9.7713 0 17.63779-7.86649 17.63779-17.6378v-156.22047c0-9.77134-7.86649-17.6378-17.63779-17.6378zm-50.393702 65.51182h85.669292c2.79182 0 5.03937 2.24755 5.03937 5.03937v75.59055c0 2.79182-2.24755 5.03937-5.03937 5.03937h-85.669292c-2.791805 0-5.03937-2.24755-5.03937-5.03937v-75.59055c0-2.79182 2.247565-5.03937 5.03937-5.03937zm12.598426 12.59842c-1.395914 0-2.519685 1.12376-2.519685 2.51969v5.03937h-2.519685c-1.395873 0-2.519685 1.12379-2.519685 2.51968v10.07874c0 1.39589 1.123812 2.51969 2.519685 2.51969h2.519685v10.07874h-2.519685c-1.395873 0-2.519685 1.12383-2.519685 2.51968v10.07874c0 1.39586 1.123812 2.51969 2.519685 2.51969h2.519685v2.51968c0 1.39593 1.123771 2.51969 2.519685 2.51969h12.598426v5.03937c0 1.39589 1.12381 2.51968 2.51968 2.51968h30.23623c1.39586 0 2.51968-1.12379 2.51968-2.51968v-5.03937h12.59843c1.39591 0 2.51968-1.12376 2.51968-2.51969v-2.51968h2.51969c1.39585 0 2.51968-1.12383 2.51968-2.51969v-10.07874c0-1.39585-1.12383-2.51968-2.51968-2.51968h-2.51969v-10.07874h2.51969c1.39585 0 2.51968-1.1238 2.51968-2.51969v-10.07874c0-1.39589-1.12383-2.51968-2.51968-2.51968h-2.51969v-5.03937c0-1.39593-1.12377-2.51969-2.51968-2.51969zm7.559056 10.07874h10.07874v17.6378h-10.07874zm17.63779 0h10.07875v17.6378h-10.07875zm17.6378 0h10.07874v17.6378h-10.07874z" fill="#fff" fill-opacity=".3"/>
            <path
                d="m133.83727 381.44527c-20.15743 0-27.71652 30.23623-47.874027 30.23623h-60.47244c-11.16723 0-20.1574699 8.99021-20.1574699 20.15746v125.98425c0 11.16726 8.9902399 20.1575 20.1574699 20.1575h201.574827c11.16722 0 20.15747-8.99024 20.15747-20.1575v-156.22047c0-11.16725-8.99025-20.15747-20.15747-20.15747zm0 2.51966h93.22836c9.77129 0 17.63777 7.86645 17.63777 17.63781v156.22047c0 9.77132-7.86648 17.63781-17.63777 17.63781h-201.574827c-9.77131 0-17.6377799-7.86649-17.6377799-17.63781v-125.98425c0-9.77136 7.8664699-17.6378 17.6377799-17.6378h60.47244c22.677167 0 30.236257-30.23623 47.874027-30.23623z"
                fill-opacity=".15"/>
            </g>
            <path
                d="m26.666667 371.65c-.738666 0-1.333334.59466-1.333334 1.33333v20c0 .73867.594668 1.33333 1.333334 1.33333h22.666663c.73867 0 1.33333-.59466 1.33333-1.33333v-20c0-.73867-.59466-1.33333-1.33333-1.33333zm3.333333 3.33333h16c.36934 0 .66667.29733.66667.66667v1.33333h.66666c.36932 0 .66667.29734.66667.66667v2.66666c0 .36933-.29735.66667-.66667.66667h-.66666v2.66667h.66666c.36932 0 .66667.29734.66667.66666v2.66667c0 .36932-.29735.66667-.66667.66667h-.66666v.66666c0 .36934-.29733.66667-.66667.66667h-3.33333v1.33333c0 .36933-.29734.66667-.66667.66667h-8c-.36933 0-.66667-.29734-.66667-.66667v-1.33333h-3.33333c-.369336 0-.666667-.29733-.666667-.66667v-.66666h-.666666c-.369325 0-.666667-.29735-.666667-.66667v-2.66667c0-.36932.297342-.66666.666667-.66666h.666666v-2.66667h-.666666c-.369325 0-.666667-.29734-.666667-.66667v-2.66666c0-.36933.297342-.66667.666667-.66667h.666666v-1.33333c0-.36934.297331-.66667.666667-.66667zm2 2.66668v4.66666l2.66667-.00001v-4.66666zm4.66667 0v4.66666l2.66666-.00001v-4.66666zm4.66666-.00001v4.66666l2.66667.00001v-4.66666z"
                fill-opacity=".2"
                stroke-width="1.33333"/>
            </g>
            </svg>
