<svg
    height="96"
    viewBox="0 0 96 96"
    width="96"
    xmlns="http://www.w3.org/2000/svg">
    <defs id="kuyenfoldercolor">
    <style type="text/css" id="current-color-scheme">
      .ColorScheme-Highlight {
        color:#03b2fe;
      }
      </style>
  </defs>
    <g
        stroke-linecap="round"
        stroke-linejoin="round"
        stroke-miterlimit="1.8"
        stroke-width="5.03936"
        transform="matrix(.39687499 0 0 .39687499 -2.116666 -136.386086)">
        <path
            d="m25.49083 351.20898 57.95274.00004c22.67717 0 32.7559 30.23622 50.3937 30.23622l93.22833-.00004c11.16726 0 20.1575 8.99025 20.1575 20.15751v125.98433c0 11.16725-8.99024 20.15751-20.1575 20.15751h-201.57477c-11.16725 0-20.1575-8.99026-20.1575-20.15751v-156.22055c0-11.16726 8.99025-20.15751 20.1575-20.15751z"
            style="fill:currentColor"
            class="ColorScheme-Highlight"/>
        <path
            d="m25.490788 353.72877 57.95279-.00004c20.157472 0 30.236222 30.23622 50.393692 30.23622l93.22836.00004c9.77133 0 17.63777 7.86645 17.63777 17.63781v125.98421c0 9.77132-7.86644 17.63777-17.63777 17.63777h-201.574842c-9.77132 0-17.6377698-7.86645-17.6377698-17.63777v-156.22043c0-9.77137 7.8664498-17.63781 17.6377698-17.63781z"
            fill="#fff"
            fill-opacity=".09"/>
        <path
            d="m25.49081 351.20898c-11.16725 0-20.15748 8.99025-20.15748 20.15751v156.22046c0 11.16726 8.99023 20.15747 20.15748 20.15747h201.57481c11.16721 0 20.15746-8.99021 20.15746-20.15747v-125.98424c0-11.16726-8.99025-20.15751-20.15746-20.15751h-93.22837c-17.63773 0-27.71656-30.23622-50.39369-30.23622zm0 2.5197h57.95275c20.15747 0 30.23626 30.23622 50.39369 30.23622h93.22837c9.77132 0 17.6378 7.86645 17.6378 17.63781v125.98424c0 9.77133-7.86648 17.63781-17.6378 17.63781h-201.57481c-9.77133 0-17.6378-7.86648-17.6378-17.63781v-156.22046c0-9.77137 7.86647-17.63781 17.6378-17.63781z"
            fill-opacity=".2"/>
        <path
            d="m25.49083 411.68142 60.47242.00004c20.15749 0 27.71654-30.23622 47.87402-30.23622l93.22833-.00004c11.16726 0 20.1575 8.99025 20.1575 20.15751v156.22055c0 11.16726-8.99024 20.15751-20.1575 20.15751h-201.57477c-11.16725 0-20.1575-8.99025-20.1575-20.15751v-125.98433c0-11.16726 8.99025-20.15751 20.1575-20.15751z"
            style="fill:currentColor"
            class="ColorScheme-Highlight"/>
        <path
            d="m133.83727 383.96495c-17.63776 0-25.19689 30.23622-47.874014 30.23622h-60.472442c-9.77131 0-17.6377959 7.86646-17.6377959 17.6378v125.98425c0 9.77131 7.8664859 17.6378 17.6377959 17.6378h201.574806c9.7713 0 17.6378-7.86649 17.6378-17.6378v-156.22047c0-9.77134-7.8665-17.6378-17.6378-17.6378zm-25.19685 50.3937v12.59843l-7.55905 2.51968v5.03937 18.39567l-.02461-.02952c.00756.17695.02461.35234.02461.53149 0 7.67743-6.180826 13.85827-13.858271 13.85827-7.677475 0-13.858268-6.18092-13.858268-13.85827 0-7.67761 6.180793-13.85826 13.858268-13.85826 2.274139 0 4.409428.55295 6.299213 1.51574v-21.67323zm42.83465 12.59843v22.67717l-17.6378 7.55905v46.61418 1.25984c0 15.35488-12.36164 27.71653-27.71653 27.71653-15.354923 0-27.716539-12.36165-27.716539-27.71653v-1.25984c0-15.35496 12.361616-27.71654 27.716539-27.71654 4.54351 0 8.82177 1.08981 12.59842 3.01181v-39.54724zm30.26083 29.50787v12.59843l-7.55906 2.51968v5.03938 18.39566l-.02461-.02952c.00681.17699.02461.35234.02461.53149 0 7.67739-6.1808 13.85827-13.85827 13.85827-7.67746 0-13.85826-6.18096-13.85826-13.85827 0-7.67761 6.1808-13.85826 13.85826-13.85826 2.27414 0 4.40945.55295 6.29922 1.51574v-21.67323z"
            fill="#fff"
            fill-opacity=".3"/>
        <path
            d="m133.83727 381.44527c-20.15743 0-27.71652 30.23623-47.874027 30.23623h-60.47244c-11.16723 0-20.1574699 8.99021-20.1574699 20.15746v125.98425c0 11.16726 8.9902399 20.1575 20.1574699 20.1575h201.574827c11.16722 0 20.15747-8.99024 20.15747-20.1575v-156.22047c0-11.16725-8.99025-20.15747-20.15747-20.15747zm0 2.51966h93.22836c9.77129 0 17.63777 7.86645 17.63777 17.63781v156.22047c0 9.77132-7.86648 17.63781-17.63777 17.63781h-201.574827c-9.77131 0-17.6377799-7.86649-17.6377799-17.63781v-125.98425c0-9.77136 7.8664699-17.6378 17.6377799-17.6378h60.47244c22.677167 0 30.236257-30.23623 47.874027-30.23623z"
            fill-opacity=".15"/>
        <path
            d="m66.666669 361.65-4 1.33333v5.73438c-.500006-.25474-1.064966-.40104-1.666666-.40104-2.031334 0-3.666667 1.63529-3.666667 3.66666 0 2.0313 1.635333 3.66667 3.666667 3.66667 2.031326 0 3.666666-1.63535 3.666666-3.66667 0-.0474-.0047-.0938-.0067-.14062l.0067.008v-4.86719-1.33333l2-.66667zm11.333331 3.33333-8.666664 3.33334v10.46354c-.99924-.50853-2.131193-.79688-3.333333-.79688-4.06266 0-7.33334 3.27067-7.33334 7.33334v.33333c0 4.06265 3.27068 7.33333 7.33334 7.33333 4.062653 0 7.33333-3.27068 7.33333-7.33333v-.33333-12.33334l4.666667-2zm8.00651 7.8073-4 1.33333v5.73437c-.500001-.25474-1.064967-.40104-1.666667-.40104-2.03133 0-3.666666 1.6353-3.666666 3.66667 0 2.03129 1.635336 3.66667 3.666666 3.66667 2.031333 0 3.666667-1.63536 3.666667-3.66667 0-.0474-.0047-.0938-.0065-.14063l.0065.008v-4.86718-1.33334l2-.66666z"
            fill-opacity=".2"
            stroke-linecap="round"
            stroke-linejoin="round"
            stroke-miterlimit="1.8"
            stroke-width="2.66667"
            transform="matrix(3.7795276 0 0 3.7795276 -143.3280956 -932.50749459528)"/>
        </g>
        </svg>
