<svg
    height="96"
    viewBox="0 0 96 96"
    width="96"
    xmlns="http://www.w3.org/2000/svg">
    <defs id="kuyenfoldercolor">
    <style type="text/css" id="current-color-scheme">
      .ColorScheme-Highlight {
        color:#03b2fe;
      }
      </style>
  </defs>
    <g
        stroke-linecap="round"
        stroke-linejoin="round"
        stroke-miterlimit="1.8"
        stroke-width="5.03936"
        transform="matrix(.39687499 0 0 .39687499 -2.11666648104 -136.38608646687)">
        <path
            d="m25.49083 351.20898 57.95274.00004c22.67717 0 32.7559 30.23622 50.3937 30.23622l93.22833-.00004c11.16726 0 20.1575 8.99025 20.1575 20.15751v125.98433c0 11.16725-8.99024 20.15751-20.1575 20.15751h-201.57477c-11.16725 0-20.1575-8.99026-20.1575-20.15751v-156.22055c0-11.16726 8.99025-20.15751 20.1575-20.15751z"
            style="fill:currentColor"
            class="ColorScheme-Highlight"/>
        <path
            d="m25.490788 353.72877 57.95279-.00004c20.157472 0 30.236222 30.23622 50.393692 30.23622l93.22836.00004c9.77133 0 17.63777 7.86645 17.63777 17.63781v125.98421c0 9.77132-7.86644 17.63777-17.63777 17.63777h-201.574842c-9.77132 0-17.6377698-7.86645-17.6377698-17.63777v-156.22043c0-9.77137 7.8664498-17.63781 17.6377698-17.63781z"
            fill="#fff"
            fill-opacity=".09"/>
        <path
            d="m25.49081 351.20898c-11.16725 0-20.15748 8.99025-20.15748 20.15751v156.22046c0 11.16726 8.99023 20.15747 20.15748 20.15747h201.57481c11.16721 0 20.15746-8.99021 20.15746-20.15747v-125.98424c0-11.16726-8.99025-20.15751-20.15746-20.15751h-93.22837c-17.63773 0-27.71656-30.23622-50.39369-30.23622zm0 2.5197h57.95275c20.15747 0 30.23626 30.23622 50.39369 30.23622h93.22837c9.77132 0 17.6378 7.86645 17.6378 17.63781v125.98424c0 9.77133-7.86648 17.63781-17.6378 17.63781h-201.57481c-9.77133 0-17.6378-7.86648-17.6378-17.63781v-156.22046c0-9.77137 7.86647-17.63781 17.6378-17.63781z"
            fill-opacity=".2"/>
        <path
            d="m25.49083 411.68142 60.47242.00004c20.15749 0 27.71654-30.23622 47.87402-30.23622l93.22833-.00004c11.16726 0 20.1575 8.99025 20.1575 20.15751v156.22055c0 11.16726-8.99024 20.15751-20.1575 20.15751h-201.57477c-11.16725 0-20.1575-8.99025-20.1575-20.15751v-125.98433c0-11.16726 8.99025-20.15751 20.1575-20.15751z"
            style="fill:currentColor"
            class="ColorScheme-Highlight"/>
        <path
            d="m133.83727 383.96495c-17.63778 0-25.19687 30.23622-47.874014 30.23622h-60.472442c-9.77132 0-17.6377958 7.86645-17.6377958 17.6378v125.98425c0 9.77132 7.8664758 17.6378 17.6377958 17.6378h201.574806c9.77131 0 17.6378-7.86648 17.6378-17.6378v-156.22047c0-9.77135-7.86649-17.6378-17.6378-17.6378zm-4.96555 60.47244a5.0398808 5.0398808 0 0 1 3.69095 1.688l18.90748 21.2746v-2.80511c0-2.79179 2.24759-5.03937 5.03937-5.03937h2.51968c2.79177 0 5.03937 2.24758 5.03937 5.03937v16.97834l8.80414 9.9065a5.0398808 5.0398808 0 0 1 -3.76477 8.38583h-83.149605a5.0398808 5.0398808 0 0 1 -3.666339-8.4941l42.839564-45.35433a5.0398808 5.0398808 0 0 1 3.74016-1.57973zm-35.35433 55.43308h5.039371 57.952759 5.03937v5.03937 15.11811 15.11811c0 2.79178-2.24758 5.03937-5.03937 5.03937h-57.952759c-2.791799 0-5.039371-2.24759-5.039371-5.03937v-15.11811-15.11811z"
            fill="#fff"
            fill-opacity=".3"/>
        <path
            d="m133.83727 381.44527c-20.15743 0-27.71652 30.23623-47.874027 30.23623h-60.47244c-11.16723 0-20.1574699 8.99021-20.1574699 20.15746v125.98425c0 11.16726 8.9902399 20.1575 20.1574699 20.1575h201.574827c11.16722 0 20.15747-8.99024 20.15747-20.1575v-156.22047c0-11.16725-8.99025-20.15747-20.15747-20.15747zm0 2.51966h93.22836c9.77129 0 17.63777 7.86645 17.63777 17.63781v156.22047c0 9.77132-7.86648 17.63781-17.63777 17.63781h-201.574827c-9.77131 0-17.6377799-7.86649-17.6377799-17.63781v-125.98425c0-9.77136 7.8664699-17.6378 17.6377799-17.6378h60.47244c22.677167 0 30.236257-30.23623 47.874027-30.23623z"
            fill-opacity=".15"/>
        <path
            d="m128.87352 444.43796a5.0398808 5.0398808 0 0 0 -3.74015 1.57969l-42.839574 45.35434a5.0398808 5.0398808 0 0 0 3.666338 8.49411h83.149606a5.0398808 5.0398808 0 0 0 3.76477-8.38583l-8.80414-9.90648v-16.97836c0-2.79179-2.24759-5.03936-5.03936-5.03936h-2.51969c-2.79178 0-5.03937 2.24757-5.03937 5.03936v2.80513l-18.90748-21.27462a5.0398808 5.0398808 0 0 0 -3.69095-1.68798zm-35.35433 55.43305v5.0394 15.11811 15.11811c0 2.79178 2.247571 5.03935 5.039372 5.03935h57.952758c2.79179 0 5.03937-2.24757 5.03937-5.03935v-15.11811-15.11811-5.0394h-5.03937-57.952758z" fill-opacity=".2"/>
        </g>
        </svg>
