<svg
    height="96"
    viewBox="0 0 25.399999 25.4"
    width="96"
    xmlns="http://www.w3.org/2000/svg">
    <defs id="kuyenfoldercolor">
    <style type="text/css" id="current-color-scheme">
      .ColorScheme-Highlight {
        color:#03b2fe;
      }
      </style>
  </defs>
    <g
        transform="matrix(.39687499 0 0 .39687499 -2.38124994 -136.38609003875)">
        <rect
            fill="#363c4d"
            height="60"
            ry="4" width="64"
            x="6"
            y="345.64999"/>
        <rect
            fill="#4b6477"
            height="58.666653"
            ry="3.333333"
            width="62.666668"
            x="6.666667"
            y="346.31668"/>
        <rect
            fill="#363c4d"
            height="53.333317"
            ry="2"
            width="57.333332"
            x="9.333333"
            y="348.98334"/>
        <rect
            style="fill:currentColor"
            class="ColorScheme-Highlight"
            height="52.000008"
            ry="1.333333"
            width="56"
            x="10"
            y="349.64999"/>
        <path
            d="m20 356.98333c-.369333 0-.666667.29734-.666667.66667v16.66666c0 .36933.297334.66667.666667.66667h20.666667c.369332 0 .666666-.29734.666666-.66667v-16.66666c0-.36933-.297334-.66667-.666666-.66667zm23.333333 10.66667v6.66666s.0098 2.66667-2.666666 2.66667h-6v8c0 .36933.297334.66667.666666.66667h20.666667c.369333 0 .666667-.29734.666667-.66667v-16.66667c0-.36933-.297334-.66666-.666667-.66666zm-30.666666 22.66666v6.66667 1.33333c0 .36933.297334.66667.666666.66667h49.333334c.369332 0 .666666-.29734.666666-.66667v-6-2z" fill-opacity=".2"/>
        <path
            d="m11.333333 349.65c-.738666 0-1.3333332.59467-1.3333332 1.33333v49.33334c0 .73866.5946672 1.33333 1.3333332 1.33333h53.333334c.738666 0 1.333333-.59467 1.333333-1.33333v-49.33334c0-.73866-.594667-1.33333-1.333333-1.33333zm8.666667 7.33333h20.666667c.369331 0 .666666.29734.666666.66667v16.66667c0 .36933-.297335.66666-.666666.66666h-20.666667c-.369333 0-.666667-.29733-.666667-.66666v-16.66667c0-.36933.297334-.66667.666667-.66667zm23.333333 10.66667h12.666667c.369333 0 .666667.29734.666667.66667v16.66666c0 .36933-.297334.66667-.666667.66667h-20.666667c-.369331 0-.666666-.29734-.666666-.66667v-8h6c2.67646 0 2.666666-2.66666 2.666666-2.66666zm-30.666666 22.66667h50.666666v2 6c0 .36933-.297335.66666-.666666.66666h-49.333334c-.369331 0-.666666-.29733-.666666-.66666v-1.33334z"
            fill="#fff"
            fill-opacity=".3"/>
        </g>
        </svg>
