<svg height="16" viewBox="0 0 4.2333332 4.2333335" width="16" xmlns="http://www.w3.org/2000/svg"><defs id="kuyenfoldercolor">
    <style type="text/css" id="current-color-scheme">
      .ColorScheme-Highlight {
        color:#03b2fe;
      }
      </style>
  </defs><g transform="translate(2.116667 -291.972913)"><path d="m-1.5875 292.50208h.79375015c.79374996 0 .52916666.52917 1.05833326.52917h1.32291659c.1465792 0 .2645834.118.2645834.26458v2.11667c0 .14658-.1180042.26458-.2645834.26458h-3.175c-.1465792 0-.2645833-.118-.2645833-.26458v-2.64584c0-.14658.1180041-.26458.2645833-.26458z" style="fill:currentColor"
class="ColorScheme-Highlight"/><path d="m-1.5875 292.76666h.79375015c.79374996 0 .26458326.52917 1.05833326.52917h1.32291659v2.11667h-3.175z" fill="#fff" fill-opacity=".06"/><path d="m-1.5875 292.50209c-.1465791 0-.2645833.118-.2645833.26458v2.64583c0 .14658.1180042.26459.2645833.26459h3.175c.1465791 0 .2645833-.11801.2645833-.26459v-2.11666c0-.14658-.1180042-.26459-.2645833-.26459h-1.3229166c-.5291661 0-.2645842-.52916-1.0583334-.52916zm0 .26458h.79375c.7937492 0 .2645842.52917 1.0583334.52917h1.3229166v2.11666h-3.175z" fill-opacity=".2"/><path d="m-1.5875 293.56041h1.06730241c.2556144 0 .2556144-.52916.784781-.52916h1.32291659c.1465792 0 .2645834.118.2645834.26458v2.38125c0 .14658-.1180042.26458-.2645834.26458h-3.175c-.1465792 0-.2645833-.118-.2645833-.26458v-1.85208c0-.14658.1180041-.26459.2645833-.26459z" style="fill:currentColor"
class="ColorScheme-Highlight"/><path d="m-1.5875 293.825h1.05833341c.5291667 0 .2645834-.52917.79375-.52917h1.32291659v2.38125h-3.175z" fill="#fff" fill-opacity=".3"/><path d="m.26458341 293.03124c-.52916601 0-.52935081.52917-.78496501.52917h-1.0671183c-.1465791 0-.2645833.118-.2645833.26458v1.85209c0 .14658.1180042.26458.2645833.26458h3.175c.146579 0 .2645833-.118.2645833-.26458v-2.38125c0-.14658-.1180043-.26459-.2645833-.26459zm0 .26459h1.32291669v2.38125h-3.175v-1.85209h1.0583333c.5291662 0 .264584-.52916.79375001-.52916z" fill-opacity=".2"/></g><g transform="translate(-7.408331 -291.972918)"><path d="m9.7895807 293.03125v.52917.26458l-.0000001.79375c0 .29316.2360084.52917.5291664.52917.293159 0 .529167-.23601.529167-.52917v-.79375-.26458-.52917h-.529167z" fill="#36404d"/><path d="m10.054164 293.29583v.26459 1.05833c0 .14658.118004.26459.264583.26459.14658 0 .264584-.11801.264584-.26459v-1.05833-.26459h-.264584z" fill="#4b6477"/><g fill="#e6f9ff"><path d="m10.318747 293.29585h-.264583v.26458h.264583z"/><path d="m10.318747 293.56043v.26459h.264584v-.26459z"/><path d="m10.318747 293.82502h-.264583v.26458h.264583z"/><path d="m10.318747 294.0896v.26458h.264584v-.26458z"/><path d="m10.318747 294.35418h-.264583v.26459h.264583z"/></g></g></svg>
