<svg height="16" viewBox="0 0 4.2333332 4.2333335" width="16" xmlns="http://www.w3.org/2000/svg"><defs id="kuyenfoldercolor">
    <style type="text/css" id="current-color-scheme">
      .ColorScheme-Highlight {
        color:#03b2fe;
      }
      </style>
  </defs><g transform="translate(0 -292.76666)"><path d="m.5028117 293.29583c-.1251857 0-.23822841.10169-.2382284.22686l.00000023 2.98587c.00000001.12528.1130427.22686.2382284.22686h3.22770977c.125186 0 .2382285-.10169.2382285-.22686l-.0000002-2.99c0-.1253-.113043-.22244-.2382285-.22273z" fill="#36404d"/><path d="m.5291666 293.56041h3.175l.0000002 2.91043h-3.17499997z" fill="#4b6477"/><g stroke-linecap="round" stroke-linejoin="round" stroke-miterlimit="1.8" stroke-width=".529167"><path d="m.79374999 293.82498h2.64583321l.0000002 2.38126h-2.64583318z" fill="#36404d"/><path d="m1.0583333 294.08957h2.1166665l.0000002 1.85209h-2.1166665z" style="fill:currentColor"
class="ColorScheme-Highlight"/><path d="m1.0583333 294.08958v1.85208h2.1166667v-1.85208zm.2645834 1.05833h1.5875v.52917h-1.5875z" fill="#fff" fill-opacity=".3"/></g><path d="m1.3229167 295.14791h1.5875v.52917h-1.5875z" fill-opacity=".2"/></g></svg>
