<svg height="22" viewBox="0 0 5.8208332 5.8208335" width="22" xmlns="http://www.w3.org/2000/svg" xmlns:xlink="http://www.w3.org/1999/xlink"><defs id="kuyenfoldercolor">
    <style type="text/css" id="current-color-scheme">
      .ColorScheme-Highlight {
        color:#03b2fe;
      }
      </style>
  </defs><linearGradient id="a" gradientTransform="matrix(.99999999 0 0 -.99999999 3.704166 9.260416)" gradientUnits="userSpaceOnUse" x1="3.704167" x2="3.704166" y1=".529166" y2="5.291667"><stop offset="0" stop-color="#2f435a"/><stop offset="1" stop-color="#384d63"/></linearGradient><g transform="translate(-3.96875 -3.439584)"><g stroke-linecap="round" stroke-linejoin="round" stroke-width=".529167"><path d="m4.4979167 8.9958336 4.7625001-.0000001c.2931583 0 .5291666-.2360083.5291666-.5291667v-4.2333334c0-.1465792-.059002-.2788708-.1546489-.3745177-.095647-.095647-.2279385-.1546489-.3745177-.1546489l-2.38125.0000001h-2.3812501c-.1465792 0-.2788708.059002-.3745177.1546489-.095647.095647-.1546489.2279385-.1546489.3745177v4.2333334c0 .2931584.2360083.5291667.5291666.5291667z" fill="#36404d" stroke-miterlimit="1.8"/><path d="m4.4979162 8.73125 4.762501-.0000001c.1465792 0 .2645834-.1180041.2645834-.2645833v-4.2333334c0-.07329-.029501-.1394354-.077324-.1872588-.047823-.047823-.1139693-.077324-.1872589-.077324l-2.3812509.0000001h-2.3812506c-.07329 0-.1394354.029501-.1872589.077324-.047823.047823-.077324.1139692-.077324.1872588v4.2333334c0 .1465792.1180041.2645833.2645829.2645833z" fill="url(#a)" stroke-miterlimit="1.8"/><path d="m4.4979167 4.2333335h4.7625003v4.2333336h-4.7625003z" fill="#36404d"/><path d="m4.7625 4.497917h4.233334v3.704167h-4.233334z" style="fill:currentColor"
class="ColorScheme-Highlight"/></g><g fill-opacity=".301961"><path d="m4.7625 4.497917v3.7041666h4.233333v-3.7041666zm.529166.2645833h1.852084v1.5875h-1.852084zm2.116667.5291667h1.058333v1.5875h-1.852083v-.2645834h.79375zm-2.38125 2.1166666h3.704167v.5291667h-3.704167z" fill="#fff"/><path d="m5.2916664 4.7625003v1.5875h1.8520833v-1.5875zm2.1166666.5291666v1.3229167h-.79375v.2645833h1.8520834v-1.5875zm-2.38125 2.1166667v.5291667h3.7041667v-.5291667z" fill="#070707"/></g></g></svg>
