<?xml version="1.0" encoding="UTF-8" standalone="no"?>
<!-- Created with Inkscape (http://www.inkscape.org/) -->

<svg
   width="32"
   height="32"
   viewBox="0 0 32 32"
   version="1.1"
   id="svg8"
   inkscape:version="1.3.2 (091e20ef0f, 2023-11-25, custom)"
   sodipodi:docname="applications-engineering.svg"
   xml:space="preserve"
   xmlns:inkscape="http://www.inkscape.org/namespaces/inkscape"
   xmlns:sodipodi="http://sodipodi.sourceforge.net/DTD/sodipodi-0.dtd"
   xmlns="http://www.w3.org/2000/svg"
   xmlns:svg="http://www.w3.org/2000/svg"
   xmlns:rdf="http://www.w3.org/1999/02/22-rdf-syntax-ns#"
   xmlns:cc="http://creativecommons.org/ns#"
   xmlns:dc="http://purl.org/dc/elements/1.1/"><title
     id="title7895">Antu icon Theme</title><defs
     id="defs2"><style
       type="text/css"
       id="current-color-scheme">
      .ColorScheme-Text {
        color:#36404d;
      }
      </style><style
       type="text/css"
       id="current-color-scheme-67">
      .ColorScheme-Text {
        color:#122036;
      }
      </style><style
       type="text/css"
       id="current-color-scheme-7">
      .ColorScheme-Text {
        color:#122036;
      }
      </style><style
       type="text/css"
       id="current-color-scheme-5">
      .ColorScheme-Text {
        color:#122036;
      }
      </style><style
       type="text/css"
       id="current-color-scheme-6">
      .ColorScheme-Text {
        color:#122036;
      }
      </style><style
       type="text/css"
       id="current-color-scheme-1">
      .ColorScheme-Text {
        color:#122036;
      }
      </style><style
       id="current-color-scheme-10"
       type="text/css">
      .ColorScheme-Text {
        color:#122036;
      }
      </style><style
       id="current-color-scheme-5-7"
       type="text/css">
      .ColorScheme-Text {
        color:#122036;
      }
      </style><style
       id="current-color-scheme-1-2"
       type="text/css">
      .ColorScheme-Text {
        color:#122036;
      }
      </style><style
       type="text/css"
       id="current-color-scheme-10-9">
      .ColorScheme-Text {
        color:#122036;
      }
      </style><style
       type="text/css"
       id="current-color-scheme-675">
      .ColorScheme-Text {
        color:#122036;
      }
      </style><style
       type="text/css"
       id="current-color-scheme-7-3">
      .ColorScheme-Text {
        color:#122036;
      }
      </style><style
       type="text/css"
       id="current-color-scheme-5-5">
      .ColorScheme-Text {
        color:#122036;
      }
      </style><style
       type="text/css"
       id="current-color-scheme-3">
      .ColorScheme-Text {
        color:#36404d;
      }
      </style><style
       type="text/css"
       id="current-color-scheme-93">
      .ColorScheme-Text {
        color:#36404d;
      }
      </style></defs><sodipodi:namedview
     id="base"
     pagecolor="#ffffff"
     bordercolor="#666666"
     borderopacity="1.0"
     inkscape:pageopacity="0.0"
     inkscape:pageshadow="2"
     inkscape:zoom="15.839192"
     inkscape:cx="18.024909"
     inkscape:cy="10.038391"
     inkscape:document-units="px"
     inkscape:current-layer="g2369"
     showgrid="true"
     units="px"
     inkscape:window-width="2560"
     inkscape:window-height="1364"
     inkscape:window-x="0"
     inkscape:window-y="0"
     inkscape:window-maximized="1"
     objecttolerance="10"
     gridtolerance="10"
     guidetolerance="10"
     inkscape:showpageshadow="2"
     inkscape:pagecheckerboard="0"
     inkscape:deskcolor="#d1d1d1"><inkscape:grid
       type="xygrid"
       id="grid7897"
       empspacing="4"
       originx="0"
       originy="0"
       spacingy="1"
       spacingx="1"
       units="px"
       visible="true" /></sodipodi:namedview><metadata
     id="metadata5"><rdf:RDF><cc:Work
         rdf:about=""><dc:format>image/svg+xml</dc:format><dc:type
           rdf:resource="http://purl.org/dc/dcmitype/StillImage" /><dc:title>Antu icon Theme</dc:title></cc:Work></rdf:RDF></metadata><g
     inkscape:label="Capa 1"
     inkscape:groupmode="layer"
     id="layer1"
     transform="translate(0,-282.64999)"><g
       id="g2369"
       transform="translate(25,-8)"><path
         id="path12329"
         d="m -24,292.64999 c -0.55401,0 -1,0.446 -1,1 v 26 c 0,0.554 0.44599,1 1,1 H 6 c 0.55401,0 1,-0.446 1,-1 v -26 c 0,-0.554 -0.44599,-1 -1,-1 h -14 -3 z"
         style="fill:#36404d;fill-opacity:1;stroke-width:1.00000012"
         inkscape:connector-curvature="0" /><path
         sodipodi:nodetypes="ccccc"
         inkscape:connector-curvature="0"
         id="path1011"
         d="m -24,298.64999 v 21 h 13 v -21 z"
         style="fill:#e1ebf2;fill-opacity:1;stroke-width:1" /><path
         sodipodi:nodetypes="ccccc"
         inkscape:connector-curvature="0"
         id="path13-5-2-9-4-2-6-6"
         d="m -10,298.64999 v 21 H 6 v -21 z"
         style="fill:#4b6477;fill-opacity:1;stroke-width:1" /><path
         sodipodi:nodetypes="ccccc"
         id="rect4537-2"
         d="m -24,293.64999 v 4 H 6 v -4 z"
         style="fill:#4b6477;fill-opacity:1;stroke:none;stroke-width:0.40000001;stroke-linecap:round;stroke-linejoin:round;stroke-miterlimit:4;stroke-dasharray:none;stroke-opacity:1"
         inkscape:connector-curvature="0" /><path
         id="rect993"
         d="m -17,304.64999 h 4 v 1 h -4 z"
         style="opacity:1;fill:#36404d;fill-opacity:1;stroke:none;stroke-width:6;stroke-linecap:round;stroke-linejoin:round;stroke-miterlimit:4;stroke-dasharray:none;stroke-dashoffset:0;stroke-opacity:1;paint-order:stroke markers fill"
         inkscape:connector-curvature="0" /><path
         id="rect1017"
         d="m -22,300.64999 v 1 h -1 v 1 h 1 v 1 h -1 v 1 h 1 v 1 h 1 v -1 h 1 v 1 h 1 v -1 h 1 v -1 h -1 v -1 h 1 v -1 h -1 v -1 h -1 v 1 h -1 v -1 z m 1,2 h 1 v 1 h -1 z"
         style="opacity:1;fill:#36404d;fill-opacity:1;stroke:none;stroke-width:6;stroke-linecap:round;stroke-linejoin:round;stroke-miterlimit:4;stroke-dasharray:none;stroke-dashoffset:0;stroke-opacity:1;paint-order:stroke markers fill"
         inkscape:connector-curvature="0" /><g
         id="g2"
         transform="matrix(3.7795276,0,0,3.7795276,-11.095811,296.6497)"><path
           id="path6374"
           style="color:#000000;fill:#e1ebf2;fill-opacity:1;stroke-linecap:round;stroke-linejoin:round;stroke-miterlimit:1.8;paint-order:fill markers stroke"
           d="M 1.6128501,1.5875764 C 1.5199352,1.5877873 1.4336414,1.6364845 1.3859905,1.7162507 L 0.59120702,3.0386506 c -0.04996,0.083599 -0.04996,0.1882188 0,0.271818 L 1.3859905,4.6344188 c 0.048132,0.079017 0.1343376,0.1273259 0.2268596,0.127124 h 1.5875 c 0.092522,2.019e-4 0.1787273,-0.048107 0.2268595,-0.127124 L 4.2199261,3.3104686 c 0.04996,-0.083599 0.04996,-0.1882188 0,-0.271818 L 3.4272096,1.7162507 C 3.3795588,1.6364845 3.2932651,1.5877873 3.2003501,1.5875764 Z m 0.7797973,1.0583333 c 0.00455,-1.145e-4 0.00937,0 0.013953,0 0.293158,0 0.5291666,0.2360087 0.5291666,0.5291667 0,0.293158 -0.2360086,0.5291666 -0.5291666,0.5291666 -0.293158,0 -0.5291667,-0.2360086 -0.5291667,-0.5291666 0,-0.2885775 0.2284376,-0.5219497 0.5152137,-0.5291667 z" /><path
           id="rect6460-7"
           style="fill:#a3b7cc;fill-opacity:1;stroke:none;stroke-width:0.352778;stroke-linecap:round;stroke-linejoin:round;stroke-miterlimit:1.8;stroke-dasharray:none;stroke-opacity:1;paint-order:fill markers stroke;stop-color:#000000"
           d="m 2.3859295,2.3813264 c -0.4301647,0.010826 -0.7730794,0.3608838 -0.7730794,0.79375 0,0.4397371 0.3540129,0.79375 0.79375,0.79375 0.4397371,0 0.79375,-0.3540129 0.79375,-0.79375 0,-0.4397371 -0.3540129,-0.79375 -0.79375,-0.79375 -0.00687,0 -0.013843,-1.719e-4 -0.020671,0 z m 0.00672,0.2645833 c 0.00455,-1.145e-4 0.00937,0 0.013953,0 0.293158,0 0.5291666,0.2360087 0.5291666,0.5291667 0,0.293158 -0.2360086,0.5291666 -0.5291666,0.5291666 -0.293158,0 -0.5291667,-0.2360086 -0.5291667,-0.5291666 0,-0.2885775 0.2284376,-0.5219497 0.5152137,-0.5291667 z" /></g></g></g><style
     type="text/css"
     id="current-color-scheme-9">
        .ColorScheme-Text {
            color:#232629;
        }
    </style></svg>
