<?xml version="1.0" encoding="UTF-8" standalone="no"?>
<!-- Created with Inkscape (http://www.inkscape.org/) -->

<svg
   width="22"
   height="22"
   viewBox="0 0 22 22"
   version="1.1"
   id="svg1"
   sodipodi:docname="emblem-mounted.svg"
   inkscape:version="1.3.2 (091e20ef0f, 2023-11-25, custom)"
   xmlns:inkscape="http://www.inkscape.org/namespaces/inkscape"
   xmlns:sodipodi="http://sodipodi.sourceforge.net/DTD/sodipodi-0.dtd"
   xmlns="http://www.w3.org/2000/svg"
   xmlns:svg="http://www.w3.org/2000/svg">
  <sodipodi:namedview
     id="namedview1"
     pagecolor="#ffffff"
     bordercolor="#000000"
     borderopacity="0.25"
     inkscape:showpageshadow="false"
     inkscape:pageopacity="0.0"
     inkscape:pagecheckerboard="true"
     inkscape:deskcolor="#d1d1d1"
     inkscape:document-units="px"
     inkscape:zoom="23.221672"
     inkscape:cx="3.1866783"
     inkscape:cy="7.3853423"
     inkscape:window-width="1469"
     inkscape:window-height="1243"
     inkscape:window-x="0"
     inkscape:window-y="0"
     inkscape:window-maximized="0"
     inkscape:current-layer="layer1" />
  <defs
     id="defs1" />
  <g
     inkscape:label="Capa 1"
     inkscape:groupmode="layer"
     id="layer1">
    <g
       id="g1"
       transform="translate(14.999999,8.9999586)">
      <path
         id="rect242"
         style="fill:#70ab84;fill-opacity:1;stroke-width:3.99999;stroke-linecap:round;stroke-linejoin:round"
         d="m -3.9999988,-7.9999652 c 5.5400005,0 10.0000007,4.4599938 10.0000007,9.9999875 0,5.5399938 -4.4600002,10.0000257 -10.0000007,10.0000257 C -9.5399994,12.000048 -14,7.5400161 -14,2.0000223 c 0,-5.5399937 4.4600006,-9.9999875 10.0000012,-9.9999875 z" />
      <path
         id="rect366"
         style="fill:#bae0bd;fill-opacity:1;stroke-width:4;stroke-linecap:round;stroke-linejoin:round"
         d="m -3.999999,-7.0000348 c 4.986,0 9,4.014 9,9 0,4.986 -4.014,8.9999998 -9,8.9999998 -4.986,0 -9,-4.0139998 -9,-8.9999998 0,-4.986 4.014,-9 9,-9 z" />
      <path
         id="path2"
         style="color:#000000;fill:#70ab84;stroke-width:0.6;stroke-linecap:round;stroke-linejoin:round;-inkscape-stroke:none;paint-order:stroke fill markers"
         d="m -6.9746086,-4.000032 c -0.1786788,-0.0048 -0.3553812,0.03834 -0.5117184,0.125004 -0.3180624,0.177048 -0.5148066,0.512934 -0.513672,0.876954 l 0.027342,10.001952 c 0.00288,0.784458 0.8665674,1.260384 1.5312498,0.84375 L 1.5312494,2.847624 C 2.1566204,2.455068 2.1555698,1.543428 1.5292694,1.152312 l -7.9980468,-4.999998 c -0.1519164,-0.095208 -0.3266322,-0.147822 -0.5058594,-0.152346 z"
         sodipodi:nodetypes="ccccccccc" />
    </g>
  </g>
</svg>
