<?xml version="1.0" encoding="UTF-8" standalone="no"?>
<!-- Created with Inkscape (http://www.inkscape.org/) -->

<svg
   width="22"
   height="22"
   viewBox="0 0 22 22"
   version="1.1"
   id="svg1"
   inkscape:version="1.3.2 (091e20ef0f, 2023-11-25, custom)"
   sodipodi:docname="emblem-select-add.svg"
   xmlns:inkscape="http://www.inkscape.org/namespaces/inkscape"
   xmlns:sodipodi="http://sodipodi.sourceforge.net/DTD/sodipodi-0.dtd"
   xmlns="http://www.w3.org/2000/svg"
   xmlns:svg="http://www.w3.org/2000/svg">
  <sodipodi:namedview
     id="namedview1"
     pagecolor="#ffffff"
     bordercolor="#000000"
     borderopacity="0.25"
     inkscape:showpageshadow="false"
     inkscape:pageopacity="0.0"
     inkscape:pagecheckerboard="true"
     inkscape:deskcolor="#d1d1d1"
     inkscape:document-units="px"
     inkscape:zoom="23.221672"
     inkscape:cx="3.1866783"
     inkscape:cy="7.3853423"
     inkscape:window-width="1469"
     inkscape:window-height="1243"
     inkscape:window-x="0"
     inkscape:window-y="0"
     inkscape:window-maximized="0"
     inkscape:current-layer="layer1" />
  <defs
     id="defs1" />
  <g
     inkscape:label="Capa 1"
     inkscape:groupmode="layer"
     id="layer1">
    <g
       id="g1"
       transform="translate(14.999999,-1.0000414)">
      <path
         id="rect242"
         style="fill:#70ab84;fill-opacity:1;stroke-width:3.99999;stroke-linecap:round;stroke-linejoin:round"
         d="m -3.9999988,2.0000348 c 5.5400005,0 10.0000007,4.4599938 10.0000007,9.9999872 0,5.539994 -4.4600002,10.000026 -10.0000007,10.000026 C -9.5399994,22.000048 -14,17.540016 -14,12.000022 -14,6.4600286 -9.5399994,2.0000348 -3.9999988,2.0000348 Z" />
      <path
         id="rect366"
         style="fill:#bae0bd;fill-opacity:1;stroke-width:4;stroke-linecap:round;stroke-linejoin:round"
         d="m -3.999999,2.9999652 c 4.986,0 9,4.014 9,8.9999998 0,4.986 -4.014,9 -9,9 -4.986,0 -9,-4.014 -9,-9 0,-4.9859998 4.014,-8.9999998 9,-8.9999998 z" />
      <path
         id="rect1"
         style="fill:#70ab84;stroke-width:2;stroke-linecap:round;stroke-linejoin:round;paint-order:stroke fill markers"
         d="m -9.9999994,10.999966 h 12 v 2.000004 h -12 z" />
      <path
         id="rect1-6"
         style="fill:#70ab84;stroke-width:2;stroke-linecap:round;stroke-linejoin:round;paint-order:stroke fill markers"
         d="m -2.999995,5.999974 v 12 h -2.0000058 v -12 z" />
    </g>
  </g>
</svg>
