<svg height="48" viewBox="0 0 12.7 12.7" width="48" xmlns="http://www.w3.org/2000/svg"><defs id="kuyenfoldercolor">
    <style type="text/css" id="current-color-scheme">
      .ColorScheme-Highlight {
        color:#03b2fe;
      }
      </style>
  </defs><g transform="translate(5.027084 -282.447903)"><path d="m-4.2333332 282.97707c-.4351619 0-.79375.35859-.79375.79375v10.31875c0 .43516.3585881.79375.79375.79375h11.1124998c.435162 0 .79375-.35859.79375-.79375v-8.73125c0-.43516-.358588-.79375-.79375-.79375h-5.8203163c-.13387419 0-.20482799-.0441-.30540779-.15813-.10058-.11401-.2026518-.29867-.3162596-.50074-.1136084-.20207-.2406949-.42267-.4335653-.60669-.1928707-.18401-.466638-.32194-.7973674-.32194z" style="fill:currentColor"
class="ColorScheme-Highlight"/><path d="m-4.2333332 283.24217h3.43958231c1.0583334 0 .9912861 1.5875 1.85208339 1.5875h5.8208331c.293159 0 .529167.23601.529167.52917v8.73124c0 .29316-.236008.52917-.529167.52917h-11.1124988c-.2931585 0-.5291665-.23601-.5291665-.52917v-10.31874c0-.29316.236008-.52917.5291665-.52917z" fill="#fff" fill-opacity=".08"/><path d="m-4.2333337 282.97707c-.4351615 0-.79375.35859-.79375.79375v10.31875c0 .43516.3585885.79375.79375.79375h11.1125c.4351616 0 .79375-.35859.79375-.79375v-8.73125c0-.43516-.3585884-.79375-.79375-.79375h-5.8203166c-.13387401 0-.20482801-.0441-.30540771-.15813-.1005799-.11401-.2026521-.29868-.3162597-.50075-.1136083-.20207-.2406951-.42266-.4335653-.60668-.1928705-.18401-.4666383-.32194-.79736737-.32194zm0 .2651h3.43958332c1.05833237 0 .99128687 1.5875 1.85208338 1.5875h5.8208333c.2931587 0 .5291667.236.5291667.52916v8.73125c0 .29316-.236008.52917-.5291667.52917h-11.1125c-.2931582 0-.5291667-.23601-.5291667-.52917v-10.31875c0-.29316.2360085-.52916.5291667-.52916z" fill-opacity=".2"/><path d="m1.0583333 284.56457c-.29652439 0-.54026169.1538-.70228279.33745-.162021.18365-.2708169.39637-.3803385.59117-.1095214.19481-.2183329.37005-.3374472.4837-.1191141.11364-.2335774.17518-.4320149.17518h-3.43958331c-.4351626 0-.79375.35859-.79375.79375v7.14375c0 .43516.3585874.79375.79375.79375h11.1125c.435163 0 .79375-.35859.79375-.79375v-8.73125c0-.43516-.358587-.79375-.79375-.79375z" style="fill:currentColor"
class="ColorScheme-Highlight"/><path d="m1.0583329 284.82967c-.86078982 0-.79375943 1.5875-1.85208337 1.5875h-3.43958333c-.2931558 0-.5291667.23602-.5291667.52917v7.14375c0 .29316.2360109.52916.5291667.52916h11.1125c.2931553 0 .5291667-.236.5291667-.52916v-8.73125c0-.29315-.2360114-.52917-.5291667-.52917zm-1.85208337 2.64532h.26458334v.26458c0 .01832.00165398.03598.00516764.05323.00351102.01725.0088275.03427.01550293.05012.00667808.01584.01479733.03089.02428792.04496.0094898.01407.02059965.0268.03255616.03876.01195597.01194.02468679.02306.03875732.03255.01407132.0095.02912055.01763.0449585.02429.01583714.00667.03287267.01199.05012613.01551.01725479.00357.03490435.00516.05322673.00516.01832185 0 .03597326-.00165.05322673-.00516.01725478-.00352.03428819-.00884.05012613-.01551.01583715-.00666.03088797-.01479.0449585-.02429.01407185-.00948.02680082-.02059.03875732-.03255.01195572-.01196.02306556-.02468.03255616-.03876.00949059-.01407.01761249-.02911.02428792-.04496.00667543-.01584.01198927-.03287.01550293-.05012.00350043-.01726.00516764-.03492.00516764-.05323v-.26458h.52916667v.26458c0 .01832.00165398.03598.00516764.05323.00351102.01725.0088275.03427.01550293.05012.00667808.01584.01479733.03089.02428793.04496.0094898.01407.02059964.0268.03255615.03876.01195598.01194.0246868.02306.03875732.03255.01407132.0095.02912056.01763.0449585.02429.01583768.00667.03287268.01199.05012614.01551.01725478.00357.03490435.00516.05322672.00516.01832238 0 .03597327-.00165.05322673-.00516.01725478-.00352.0342882-.00884.05012614-.01551.01583768-.00666.03088797-.01479.04495849-.02429.01407185-.00948.02680082-.02059.03875733-.03255.01195571-.01196.02306558-.02468.03255618-.03876.0094906-.01407.0176125-.02911.0242879-.04496.0066754-.01584.0119893-.03287.0155029-.05012.0035005-.01726.0051677-.03492.0051677-.05323v-.26458h.5291666v.26458c0 .01832.001654.03598.0051677.05323.003511.01725.0088275.03427.0155029.05012.0066781.01584.0147973.03089.0242879.04496.0094896.01407.0205997.0268.0325562.03876.011956.01194.0246868.02306.0387573.03255.0140713.0095.0291206.01763.0449585.02429.0158377.00667.0328727.01199.0501261.01551.0172548.00357.0349044.00516.0532268.00516.0183223 0 .0359732-.00165.0532267-.00516.017254-.00352.0342882-.00884.0501261-.01551.0158377-.00666.030888-.01479.0449585-.02429.0140716-.00948.0268008-.02059.0387574-.03255.0119557-.01196.0230655-.02468.0325561-.03876.0094906-.01407.0176125-.02911.0242879-.04496.0066755-.01584.0119893-.03287.015503-.05012.0035004-.01726.0051676-.03492.0051676-.05323v-.26458h.5291667v.26458c0 .01832.0016539.03598.0051676.05323.003511.01725.0088275.03427.0155029.05012.0066781.01584.0147974.03089.024288.04496.0094895.01407.0205996.0268.0325561.03876.011956.01194.0246868.02306.0387573.03255.0140714.0095.0291206.01763.0449585.02429.0158377.00667.0328727.01199.0501262.01551.0172548.00357.0349043.00516.0532267.00516s.0359733-.00165.0532267-.00516c.0172545-.00352.0342882-.00884.0501262-.01551.0158376-.00666.0308879-.01479.0449585-.02429.0140715-.00948.0268008-.02059.0387573-.03255.0119557-.01196.0230655-.02468.0325561-.03876.0094906-.01407.0176125-.02911.024288-.04496.0066754-.01584.0119892-.03287.0155029-.05012.0035004-.01726.0051676-.03492.0051676-.05323v-.26458h.2645834c.2931527 0 .5291666.23601.5291666.52916h-.2645833c-.0183224 0-.0359706.00165-.0532267.00517-.0172548.00352-.0342882.00884-.0501262.0155-.0158379.00667-.0308879.01479-.0449585.02429-.0140718.00949-.0268008.0206-.0387573.03256-.0119554.01195-.0230655.02468-.0325561.03876-.0094906.01407-.0176125.02911-.024288.04495-.0066754.01584-.0119892.03288-.0155029.05013-.0035004.01725-.0051676.03489-.0051676.05323 0 .01832.0016539.03597.0051676.05322.003511.01726.0088275.03428.0155029.05013.0066781.01584.0147974.03088.024288.04496.0094895.01407.0206023.0268.0325561.03876.011956.01194.0246868.02305.0387573.03255.0140714.0095.0291206.01762.0449585.02429.0158377.00667.0328727.01198.0501262.0155.0172548.00357.0349043.00517.0532267.00517h.2645833v.52917h-.2645833c-.0183224 0-.0359706.00165-.0532267.00516-.0172548.00352-.0342882.00884-.0501262.01551-.0158379.00666-.0308879.01479-.0449585.02429-.0140718.00948-.0268008.02059-.0387573.03255-.0119554.01196-.0230655.02468-.0325561.03876-.0094906.01407-.0176125.02911-.024288.04496-.0066754.01584-.0119892.03287-.0155029.05012-.0035004.01726-.0051676.03489-.0051676.05323 0 .01832.0016539.03598.0051676.05323.003511.01725.0088275.03427.0155029.05012.0066781.01584.0147974.03089.024288.04496.0094895.01407.0206023.0268.0325561.03876.011956.01194.0246868.02306.0387573.03255.0140714.0095.0291206.01763.0449585.02429.0158377.00667.0328727.01199.0501262.01551.0172548.00357.0349043.00516.0532267.00516h.2645833v.52917h-.2645833c-.0183224 0-.0359706.00165-.0532267.00517-.0172548.00352-.0342882.00883-.0501262.0155-.0158379.00667-.0308879.01479-.0449585.02429-.0140718.00948-.0268008.0206-.0387573.03255-.0119554.01196-.0230655.02469-.0325561.03876-.0094906.01408-.0176125.02911-.024288.04496-.0066754.01584-.0119892.03288-.0155029.05013-.0035004.01725-.0051676.03489-.0051676.05322s.0016539.03598.0051676.05323c.003511.01726.0088275.03428.0155029.05013.0066781.01583.0147974.03088.024288.04495.0094895.01408.0206023.0268.0325561.03876.011956.01195.0246868.02306.0387573.03256.0140714.0095.0291206.01762.0449585.02429.0158377.00666.0328727.01198.0501262.0155.0172548.00357.0349043.00517.0532267.00517h.2645833v.52916h-.2645833c-.0183224 0-.0359706.00165-.0532267.00517-.0172548.00352-.0342882.00884-.0501262.0155-.0158379.00667-.0308879.01479-.0449585.02429-.0140718.00949-.0268008.0206-.0387573.03256-.0119554.01195-.0230655.02468-.0325561.03876-.0094906.01407-.0176125.02911-.024288.04495-.0066754.01584-.0119892.03288-.0155029.05013-.0035004.01725-.0051676.03489-.0051676.05323 0 .01832.0016539.03597.0051676.05322.003511.01726.0088275.03428.0155029.05013.0066781.01584.0147974.03088.024288.04496.0094895.01407.0206023.0268.0325561.03876.011956.01194.0246868.02305.0387573.03255.0140714.0095.0291206.01762.0449585.02429.0158377.00667.0328727.01198.0501262.0155.0172548.00357.0349043.00517.0532267.00517h.2645833v.52917h-.2645833c-.0183224 0-.0359706.00165-.0532267.00516-.0172548.00352-.0342882.00884-.0501262.01551-.0158379.00666-.0308879.01479-.0449585.02429-.0140718.00948-.0268008.02059-.0387573.03255-.0119554.01196-.0230655.02468-.0325561.03876-.0094906.01407-.0176125.02911-.024288.04496-.0066754.01584-.0119892.03287-.0155029.05012-.0035004.01726-.0051676.03489-.0051676.05323 0 .01832.0016539.03598.0051676.05323.003511.01725.0088275.03427.0155029.05012.0066781.01584.0147974.03089.024288.04496.0094895.01407.0206023.0268.0325561.03876.011956.01194.0246868.02306.0387573.03255.0140714.0095.0291206.01763.0449585.02429.0158377.00667.0328727.01199.0501262.01551.0172548.00357.0349043.00516.0532267.00516h.2645833c0 .29316-.2360139.52917-.5291666.52917h-.2645834v-.26458c0-.01833-.0016539-.03598-.0051676-.05323-.003511-.01726-.0088275-.03428-.0155029-.05013-.0066781-.01583-.0147974-.03088-.024288-.04495-.0094898-.01408-.0205996-.0268-.0325561-.03876-.0119557-.01195-.0246868-.02306-.0387573-.03256-.0140716-.0095-.0291206-.01762-.0449585-.02429-.015838-.00666-.0328727-.01198-.0501262-.0155-.0172548-.00357-.0349043-.00517-.0532267-.00517s-.0359706.00165-.0532267.00517c-.0172548.00352-.0342882.00884-.0501262.0155-.0158379.00667-.0308879.01479-.0449585.02429-.0140718.00949-.0268008.0206-.0387573.03256-.0119554.01195-.0230655.02468-.0325561.03876-.0094906.01407-.0176125.02911-.024288.04495-.0066754.01584-.0119892.03288-.0155029.05013-.0035004.01725-.0051676.03489-.0051676.05323v.26458h-.5291667v-.26458c0-.01833-.001654-.03598-.0051676-.05323-.0035111-.01726-.0088275-.03428-.015503-.05013-.006678-.01583-.0147973-.03088-.0242879-.04495-.0094898-.01408-.0205996-.0268-.0325561-.03876-.011956-.01195-.0246868-.02306-.0387574-.03256-.0140716-.0095-.0291205-.01762-.0449585-.02429-.0158379-.00666-.0328726-.01198-.0501261-.0155-.0172548-.00357-.0349044-.00517-.0532267-.00517-.0183227 0-.0359707.00165-.0532268.00517-.0172547.00352-.0342882.00884-.0501261.0155-.0158379.00667-.030888.01479-.0449585.02429-.0140718.00949-.0268008.0206-.0387573.03256-.0119555.01195-.0230656.02468-.0325562.03876-.0094906.01407-.0176125.02911-.0242879.04495s-.0119893.03288-.0155029.05013c-.0035005.01725-.0051677.03489-.0051677.05323v.26458h-.5291666v-.26458c0-.01833-.001654-.03598-.0051677-.05323-.003511-.01726-.0088275-.03428-.0155029-.05013-.0066781-.01583-.0147973-.03088-.0242879-.04495-.0094898-.01408-.02059967-.0268-.03255618-.03876-.01195598-.01195-.0246868-.02306-.03875733-.03256-.01407079-.0095-.02912055-.01762-.04495849-.02429-.01583794-.00666-.03287003-.01198-.05012614-.0155-.01725399-.00357-.03490435-.00517-.05322673-.00517-.01832264 0-.03597061.00165-.05322672.00517-.01725479.00352-.0342882.00884-.05012614.0155-.01583794.00667-.03088797.01479-.0449585.02429-.01407185.00949-.02680081.0206-.03875732.03256-.01195572.01195-.02306556.02468-.03255615.03876-.0094906.01407-.0176125.02911-.02428793.04495s-.01198926.03288-.01550293.05013c-.00350043.01725-.00516764.03489-.00516764.05323v.26458h-.52916667v-.26458c0-.01833-.00165398-.03598-.00516764-.05323-.00351102-.01726-.0088275-.03428-.01550293-.05013-.00667808-.01583-.01479733-.03088-.02428792-.04495-.0094898-.01408-.02059965-.0268-.03255616-.03876-.01195598-.01195-.02468679-.02306-.03875732-.03256-.01407132-.0095-.02912055-.01762-.0449585-.02429-.01583794-.00666-.03287003-.01198-.05012613-.0155-.01725452-.00357-.03490435-.00517-.05322673-.00517-.01832264 0-.03597062.00165-.05322673.00517-.01725478.00352-.03428819.00884-.05012613.0155-.01583795.00667-.03088797.01479-.0449585.02429-.01407185.00949-.02680082.0206-.03875732.03256-.01195572.01195-.02306556.02468-.03255616.03876-.00949059.01407-.01761249.02911-.02428792.04495s-.01198927.03288-.01550293.05013c-.00350043.01725-.00516764.03489-.00516764.05323v.26458h-.26458334c-.29315273 0-.52916663-.23601-.52916663-.52917h.2645833c.0183218 0 .0359733-.00165.0532267-.00516.01725481-.00352.03428822-.00884.05012616-.01551.01583715-.00666.03088797-.01479.0449585-.02429.01407185-.00948.02680082-.02059.03875732-.03255.01195572-.01196.02306556-.02468.03255616-.03876.00949059-.01407.01761249-.02911.02428792-.04496.00667543-.01584.01198927-.03287.01550293-.05012.00350043-.01726.00516764-.03492.00516764-.05323 0-.01832-.00165398-.03598-.00516764-.05323-.00351102-.01725-.0088275-.03427-.01550293-.05012-.00667808-.01584-.01479733-.03089-.02428792-.04496-.0094898-.01407-.02059965-.0268-.03255616-.03876-.01195597-.01194-.02468679-.02306-.03875732-.03255-.01407132-.0095-.02912055-.01763-.0449585-.02429-.01583794-.00667-.03287003-.01199-.05012616-.01551-.0172545-.00357-.0349043-.00516-.0532267-.00516h-.2645833v-.52917h.2645833c.0183218 0 .0359733-.00165.0532267-.00517.01725481-.00352.03428822-.00883.05012616-.0155.01583715-.00667.03088797-.01479.0449585-.02429.01407185-.00948.02680082-.0206.03875732-.03255.01195572-.01196.02306556-.02469.03255616-.03876.00949059-.01408.01761249-.02911.02428792-.04496.00667543-.01584.01198927-.03288.01550293-.05013.00350043-.01725.00516764-.03491.00516764-.05322 0-.01833-.00165398-.03598-.00516764-.05323-.00351102-.01726-.0088275-.03428-.01550293-.05013-.00667808-.01583-.01479733-.03088-.02428792-.04495-.0094898-.01408-.02059965-.0268-.03255616-.03876-.01195597-.01195-.02468679-.02306-.03875732-.03256-.01407132-.0095-.02912055-.01762-.0449585-.02429-.01583794-.00666-.03287003-.01198-.05012616-.0155-.0172545-.00357-.0349043-.00517-.0532267-.00517h-.2645833v-.52916h.2645833c.0183218 0 .0359733-.00165.0532267-.00517.01725481-.00352.03428822-.00884.05012616-.0155.01583715-.00667.03088797-.01479.0449585-.02429.01407185-.00949.02680082-.0206.03875732-.03256.01195572-.01195.02306556-.02468.03255616-.03876.00949059-.01407.01761249-.02911.02428792-.04495s.01198927-.03288.01550293-.05013c.00350043-.01725.00516764-.03492.00516764-.05323 0-.01832-.00165398-.03597-.00516764-.05322-.00351102-.01726-.0088275-.03428-.01550293-.05013-.00667808-.01584-.01479733-.03088-.02428792-.04496-.0094898-.01407-.02059965-.0268-.03255616-.03876-.01195597-.01194-.02468679-.02305-.03875732-.03255-.01407132-.0095-.02912055-.01762-.0449585-.02429-.01583794-.00667-.03287003-.01198-.05012616-.0155-.0172545-.00357-.0349043-.00517-.0532267-.00517h-.2645833v-.52917h.2645833c.0183218 0 .0359733-.00165.0532267-.00516.01725481-.00352.03428822-.00884.05012616-.01551.01583715-.00666.03088797-.01479.0449585-.02429.01407185-.00948.02680082-.02059.03875732-.03255.01195572-.01196.02306556-.02468.03255616-.03876.00949059-.01407.01761249-.02911.02428792-.04496.00667543-.01584.01198927-.03287.01550293-.05012.00350043-.01726.00516764-.03492.00516764-.05323 0-.01832-.00165398-.03598-.00516764-.05323-.00351102-.01725-.0088275-.03427-.01550293-.05012-.00667808-.01584-.01479733-.03089-.02428792-.04496-.0094898-.01407-.02059965-.0268-.03255616-.03876-.01195597-.01194-.02468679-.02306-.03875732-.03255-.01407132-.0095-.02912055-.01763-.0449585-.02429-.01583794-.00667-.03287003-.01199-.05012616-.01551-.0172545-.00357-.0349043-.00516-.0532267-.00516h-.2645833v-.52917h.2645833c.0183218 0 .0359733-.00165.0532267-.00517.01725481-.00352.03428822-.00883.05012616-.0155.01583715-.00667.03088797-.01479.0449585-.02429.01407185-.00948.02680082-.0206.03875732-.03255.01195572-.01196.02306556-.02469.03255616-.03876.00949059-.01408.01761249-.02911.02428792-.04496.00667543-.01584.01198927-.03288.01550293-.05013.00350043-.01725.00516764-.03491.00516764-.05322 0-.01833-.00165398-.03598-.00516764-.05323-.00351102-.01726-.0088275-.03428-.01550293-.05013-.00667808-.01583-.01479733-.03088-.02428792-.04495-.0094898-.01408-.02059965-.0268-.03255616-.03876-.01195597-.01195-.02468679-.02306-.03875732-.03256-.01407132-.0095-.02912055-.01762-.0449585-.02429-.01583794-.00666-.03287003-.01198-.05012616-.0155-.0172545-.00357-.0349043-.00517-.0532267-.00517h-.2645833c0-.29315.2360139-.52916.52916663-.52916zm.52916667 1.05833v3.70417h3.175v-3.70417zm1.8520833 1.05833c.2931575 0 .5291667.23601.5291667.52917 0 .00431.0001019.00863 0 .01292.3027381.06088.5291667.32735.5291667.64854 0 .36645-.2950119.66146-.6614584.66146h-1.4552083c-.29315751 0-.52916667-.23601-.52916667-.52917 0-.19858.10824786-.37093.26923422-.46147-.00282575-.02221-.00465088-.0447-.00465088-.0677 0-.29315.23600889-.52916.52916666-.52916.10925376 0 .21043467.03258.29455567.08888.0721542-.20626.2677029-.35347.4991943-.35347z" fill="#fff" fill-opacity=".3"/><path d="m1.0583325 284.56457c-.2965241 0-.5402618.1538-.7022827.33745s-.2708171.39638-.3803386.59118c-.1095213.19481-.2183329.37004-.3374471.48369-.119114.11364-.2335777.17518-.432015.17518h-3.4395833c-.4351622 0-.79375.35859-.79375.79375v7.14375c0 .43516.3585878.79375.79375.79375h11.1125004c.435162 0 .79375-.35859.79375-.79375v-8.73125c0-.43516-.358588-.79375-.79375-.79375zm0 .2651h5.8208337c.293157 0 .529166.23602.529166.52917v8.73125c0 .29316-.236009.52916-.529166.52916h-11.1125004c-.2931582 0-.5291667-.236-.5291667-.52916v-7.14375c0-.29315.2360085-.52917.5291667-.52917h3.4395833c1.0583324 0 .9912869-1.5875 1.8520834-1.5875z" fill-opacity=".2"/></g><path d="m72.968755 328.8473c-1.10798 0-2 .89202-2 2h1c.06925 0 .135957.006.201171.0195.06522.0133.129594.0334.189454.0586s.116738.0559.169921.0918c.05318.0359.101297.0779.146485.12305.04519.0452.08718.0933.123047.14648.03587.0532.06656.11006.0918.16992.02523.0599.04532.12424.05859.18946.01328.0652.01953.13192.01953.20117 0 .0692-.0063.13596-.01953.20117-.01328.0652-.03336.12959-.05859.18945-.02523.0599-.05593.11674-.0918.16993-.03587.0532-.07786.10129-.123047.14648-.04519.0452-.0933.0872-.146485.12305-.05318.0359-.110064.0666-.169921.0918-.05986.0252-.124239.0453-.189454.0586-.06521.0133-.131923.0195-.201171.0195h-1v2h1c.06925 0 .135957.006.201171.0195.06522.0133.129594.0334.189454.0586s.116738.0559.169921.0918c.05318.0359.101297.0779.146485.12305.04519.0452.08718.0933.123047.14648.03587.0532.06656.11006.0918.16992.02523.0599.04532.12424.05859.18946.01328.0652.01953.13192.01953.20117 0 .0692-.0063.13596-.01953.20117-.01328.0652-.03336.12959-.05859.18945-.02523.0599-.05593.11674-.0918.16993-.03587.0532-.07786.10129-.123047.14648-.04519.0452-.0933.0872-.146485.12305-.05318.0359-.110064.0666-.169921.0918-.05986.0252-.124239.0453-.189454.0586-.06521.0133-.131923.0195-.201171.0195h-1v2h1c.06925 0 .135957.006.201171.0195.06522.0133.129594.0334.189454.0586s.116738.0559.169921.0918c.05318.0359.101297.0779.146485.12305.04519.0452.08718.0933.123047.14648.03587.0532.06656.11006.0918.16992.02523.0599.04532.12424.05859.18946.01328.0652.01953.13192.01953.20117 0 .0692-.0063.13596-.01953.20117-.01328.0652-.03336.12959-.05859.18945-.02523.0599-.05593.11674-.0918.16993-.03587.0532-.07786.10129-.123047.14648-.04519.0452-.0933.0872-.146485.12305-.05318.0359-.110064.0666-.169921.0918-.05986.0252-.124239.0453-.189454.0586-.06521.0133-.131923.0195-.201171.0195h-1v2h1c.06925 0 .135957.006.201171.0195.06522.0133.129594.0334.189454.0586s.116738.0559.169921.0918c.05318.0359.101297.0779.146485.12305.04519.0452.08718.0933.123047.14648.03587.0532.06656.11006.0918.16992.02523.0599.04532.12424.05859.18946.01328.0652.01953.13192.01953.20117 0 .0692-.0063.13596-.01953.20117-.01328.0652-.03336.12959-.05859.18945-.02523.0599-.05593.11674-.0918.16993-.03587.0532-.07786.10129-.123047.14648-.04519.0452-.0933.0872-.146485.12305-.05318.0359-.110064.0666-.169921.0918-.05986.0252-.124239.0453-.189454.0586-.06521.0133-.131923.0195-.201171.0195h-1v2h1c.06925 0 .135957.006.201171.0195.06522.0133.129594.0334.189454.0586s.116738.0559.169921.0918c.05318.0359.101297.0779.146485.12305.04519.0452.08718.0933.123047.14648.03587.0532.06656.11006.0918.16992.02523.0599.04532.12424.05859.18946.01328.0652.01953.13192.01953.20117 0 .0692-.0063.13596-.01953.20117-.01328.0652-.03336.12959-.05859.18945-.02523.0599-.05593.11674-.0918.16993-.03587.0532-.07786.10129-.123047.14648-.04519.0452-.0933.0872-.146485.12305-.05318.0359-.110064.0666-.169921.0918-.05986.0252-.124239.0453-.189454.0586-.06521.0133-.131923.0195-.201171.0195h-1c0 1.10798.89202 2 2 2h1v-1c0-.0693.0063-.13596.01953-.20117.01328-.0652.03336-.1296.05859-.18946.02523-.0599.05593-.11673.0918-.16992.03587-.0532.07786-.10129.123047-.14648.04519-.0452.0933-.0872.146485-.12305.05318-.0359.110062-.0666.169922-.0918s.124238-.0453.189453-.0586c.06522-.0133.131921-.0195.201172-.0195.06925 0 .135957.006.201171.0195.06522.0133.129594.0334.189454.0586s.116738.0559.169921.0918c.05318.0359.101297.0779.146485.12305.04519.0452.08718.0933.123047.14648.03587.0532.06656.11006.0918.16992.02523.0599.04532.12424.05859.18946.01328.0652.01953.13192.01953.20117v1h2v-1c0-.0693.0063-.13596.01953-.20117.01328-.0652.03336-.1296.05859-.18946.02523-.0599.05593-.11673.0918-.16992.03587-.0532.07786-.10129.123047-.14648.04519-.0452.0933-.0872.146485-.12305.05318-.0359.110062-.0666.169922-.0918s.124238-.0453.189453-.0586c.06522-.0133.131921-.0195.201172-.0195.06925 0 .135959.006.201171.0195.06522.0133.129594.0334.189454.0586s.11674.0559.169921.0918c.05318.0359.101297.0779.146485.12305.04519.0452.08718.0933.123047.14648.03587.0532.06656.11006.0918.16992.02523.0599.04532.12424.05859.18946.01328.0652.01953.13192.01953.20117v1h2v-1c0-.0693.0063-.13596.01953-.20117.01328-.0652.03336-.1296.05859-.18946.02523-.0599.05593-.11673.0918-.16992.03587-.0532.07786-.10129.123046-.14648.04519-.0452.0933-.0872.146485-.12305.05318-.0359.110062-.0666.169922-.0918s.124238-.0453.189453-.0586c.06522-.0133.131921-.0195.201172-.0195.06925 0 .135957.006.201172.0195.06521.0133.129593.0334.189453.0586s.116738.0559.169922.0918c.05318.0359.101296.0779.146484.12305.04519.0452.08718.0933.123047.14648.03587.0532.06656.11006.0918.16992.02523.0599.04532.12424.05859.18946.01328.0652.01953.13192.01953.20117v1h2v-1c0-.0693.0063-.13596.01953-.20117.01328-.0652.03336-.1296.05859-.18946.02523-.0599.05593-.11673.0918-.16992.03587-.0532.07786-.10129.123046-.14648.04519-.0452.0933-.0872.146485-.12305.05318-.0359.110062-.0666.169922-.0918s.124238-.0453.189453-.0586c.06522-.0133.131922-.0195.201172-.0195s.135957.006.201172.0195c.06521.0133.129593.0334.189453.0586s.116738.0559.169922.0918c.05318.0359.101297.0779.146484.12305.04519.0452.08718.0933.123047.14648.03587.0532.06656.11006.0918.16992.02523.0599.04532.12424.05859.18946.01328.0652.01953.13192.01953.20117v1h1c1.10798 0 2-.89202 2-2h-1c-.06925 0-.135957-.006-.201172-.0195-.06521-.0133-.129594-.0334-.189453-.0586-.05986-.0252-.116739-.0559-.169922-.0918-.05318-.0359-.101297-.0779-.146485-.12305-.04518-.0452-.08718-.0933-.123046-.14648-.03587-.0532-.06656-.11007-.0918-.16993-.02523-.0599-.04532-.12423-.05859-.18945-.01328-.0652-.01953-.13192-.01953-.20117 0-.0693.0063-.13596.01953-.20117.01328-.0652.03336-.1296.05859-.18946.02523-.0599.05593-.11673.0918-.16992.03587-.0532.07786-.10129.123046-.14648.04519-.0452.0933-.0872.146485-.12305.05318-.0359.110062-.0666.169922-.0918s.124238-.0453.189453-.0586c.06522-.0133.131922-.0195.201172-.0195h1v-2h-1c-.06925 0-.135957-.006-.201172-.0195-.06521-.0133-.129594-.0334-.189453-.0586-.05986-.0252-.116739-.0559-.169922-.0918-.05318-.0359-.101297-.0779-.146485-.12305-.04518-.0452-.08718-.0933-.123046-.14648-.03587-.0532-.06656-.11007-.0918-.16993-.02523-.0599-.04532-.12423-.05859-.18945-.01328-.0652-.01953-.13192-.01953-.20117 0-.0693.0063-.13596.01953-.20117.01328-.0652.03336-.1296.05859-.18946.02523-.0599.05593-.11673.0918-.16992.03587-.0532.07786-.10129.123046-.14648.04519-.0452.0933-.0872.146485-.12305.05318-.0359.110062-.0666.169922-.0918s.124238-.0453.189453-.0586c.06522-.0133.131922-.0195.201172-.0195h1v-2h-1c-.06925 0-.135957-.006-.201172-.0195-.06521-.0133-.129594-.0334-.189453-.0586-.05986-.0252-.116739-.0559-.169922-.0918-.05318-.0359-.101297-.0779-.146485-.12305-.04518-.0452-.08718-.0933-.123046-.14648-.03587-.0532-.06656-.11007-.0918-.16993-.02523-.0599-.04532-.12423-.05859-.18945-.01328-.0652-.01953-.13192-.01953-.20117 0-.0693.0063-.13596.01953-.20117.01328-.0652.03336-.1296.05859-.18946.02523-.0599.05593-.11673.0918-.16992.03587-.0532.07786-.1013.123046-.14648.04519-.0452.0933-.0872.146485-.12305.05318-.0359.110062-.0666.169922-.0918s.124238-.0453.189453-.0586c.06522-.0133.131922-.0195.201172-.0195h1v-2h-1c-.06925 0-.135957-.006-.201172-.0195-.06521-.0133-.129594-.0334-.189453-.0586-.05986-.0252-.116739-.0559-.169922-.0918-.05318-.0359-.101297-.0779-.146485-.12305-.04518-.0452-.08718-.0933-.123046-.14648-.03587-.0532-.06656-.11007-.0918-.16993-.02523-.0599-.04532-.12423-.05859-.18945-.01328-.0652-.01953-.13192-.01953-.20117 0-.0693.0063-.13596.01953-.20117.01328-.0652.03336-.1296.05859-.18946.02523-.0599.05593-.11673.0918-.16992.03587-.0532.07786-.1013.123046-.14648.04519-.0452.0933-.0872.146485-.12305.05318-.0359.110062-.0666.169922-.0918s.124238-.0453.189453-.0586c.06522-.0133.131922-.0195.201172-.0195h1v-2h-1c-.06925 0-.135957-.006-.201172-.0195-.06521-.0133-.129594-.0334-.189453-.0586-.05986-.0252-.116739-.0559-.169922-.0918-.05318-.0359-.101297-.0779-.146485-.12305-.04518-.0452-.08718-.0933-.123046-.14648-.03587-.0532-.06656-.11007-.0918-.16993-.02523-.0599-.04532-.12423-.05859-.18945-.01328-.0652-.01953-.13192-.01953-.20117 0-.0693.0063-.13596.01953-.20117.01328-.0652.03336-.1296.05859-.18946.02523-.0599.05593-.11673.0918-.16992.03587-.0532.07786-.1013.123046-.14648.04519-.0452.0933-.0872.146485-.12305.05318-.0359.110062-.0666.169922-.0918s.124238-.0453.189453-.0586c.06522-.0133.131922-.0195.201172-.0195h1c0-1.10798-.89202-2-2-2h-1v1c0 .0692-.0063.13596-.01953.20117-.01328.0652-.03336.12959-.05859.18945-.02523.0599-.05593.11674-.0918.16993-.03587.0532-.07786.10129-.123047.14648-.04519.0452-.0933.0872-.146484.12305-.05318.0359-.110063.0666-.169922.0918-.05986.0252-.124239.0453-.189453.0586-.06521.0133-.131922.0195-.201172.0195s-.135957-.006-.201172-.0195c-.06521-.0133-.129594-.0334-.189453-.0586-.05986-.0252-.116739-.0559-.169922-.0918-.05318-.0359-.101297-.0779-.146485-.12305-.04519-.0452-.08718-.0933-.123046-.14648-.03587-.0532-.06656-.11007-.0918-.16993-.02523-.0599-.04532-.12423-.05859-.18945-.01328-.0652-.01953-.13192-.01953-.20117v-1h-2v1c0 .0692-.0063.13596-.01953.20117-.01328.0652-.03336.12959-.05859.18945-.02523.0599-.05593.11674-.0918.16993-.03587.0532-.07786.10129-.123047.14648-.04519.0452-.0933.0872-.146484.12305-.05318.0359-.110063.0666-.169922.0918-.05986.0252-.124241.0453-.189453.0586-.06521.0133-.131922.0195-.201172.0195s-.135957-.006-.201172-.0195c-.06521-.0133-.129594-.0334-.189453-.0586-.05986-.0252-.116739-.0559-.169922-.0918-.05318-.0359-.101297-.0779-.146485-.12305-.04519-.0452-.08718-.0933-.123046-.14648-.03587-.0532-.06656-.11007-.0918-.16993-.02523-.0599-.04532-.12423-.05859-.18945-.01328-.0652-.01953-.13192-.01953-.20117v-1h-2v1c0 .0692-.0063.13596-.01953.20117-.01328.0652-.03336.12959-.05859.18945-.02523.0599-.05593.11674-.0918.16993-.03587.0532-.07786.10129-.123047.14648-.04519.0452-.0933.0872-.146485.12305-.05318.0359-.110062.0666-.169921.0918-.05986.0252-.124239.0453-.189454.0586-.06521.0133-.131921.0195-.201171.0195s-.135957-.006-.201172-.0195c-.06521-.0133-.129594-.0334-.189453-.0586-.05986-.0252-.116739-.0559-.169922-.0918-.05318-.0359-.101297-.0779-.146485-.12305-.04519-.0452-.08718-.0933-.123047-.14648-.03587-.0532-.06656-.11007-.0918-.16993-.02523-.0599-.04532-.12423-.05859-.18945-.01328-.0652-.01953-.13192-.01953-.20117v-1h-2v1c0 .0692-.0063.13596-.01953.20117-.01328.0652-.03336.12959-.05859.18945-.02523.0599-.05593.11674-.0918.16993-.03587.0532-.07786.10129-.123047.14648-.04519.0452-.0933.0872-.146485.12305-.05318.0359-.110064.0666-.169921.0918-.05986.0252-.124239.0453-.189454.0586-.06521.0133-.131923.0195-.201171.0195-.06925 0-.135957-.006-.201172-.0195-.06521-.0133-.129596-.0334-.189453-.0586-.05986-.0252-.116739-.0559-.169922-.0918-.05318-.0359-.101297-.0779-.146485-.12305-.04519-.0452-.08718-.0933-.123047-.14648-.03587-.0532-.06656-.11007-.0918-.16993-.02523-.0599-.04532-.12423-.05859-.18945-.01328-.0652-.01953-.13192-.01953-.20117v-1zm2 4h12v14h-12zm7 4c-.874929 0-1.61401.55638-1.886719 1.33594-.317938-.21279-.700353-.33594-1.113281-.33594-1.107999 0-2 .892-2 2 0 .0869.0069.1719.01758.25586-.608453.34221-1.017578.99361-1.017578 1.74414 0 1.108.892002 2 2 2h5.5c1.384996 0 2.5-1.115 2.5-2.5 0-1.21396-.855792-2.22108-2-2.45117.000385-.0162 0-.0325 0-.0488 0-1.108-.892002-2-2-2z" fill-opacity=".2" stroke-linecap="round" stroke-linejoin="round" stroke-miterlimit="1.8" stroke-width="2" transform="matrix(.26458333 0 0 .26458333 -15.072981 -81.98043)"/></svg>
