<svg height="48" viewBox="0 0 12.7 12.7" width="48" xmlns="http://www.w3.org/2000/svg"><defs id="kuyenfoldercolor">
    <style type="text/css" id="current-color-scheme">
      .ColorScheme-Highlight {
        color:#03b2fe;
      }
      </style>
  </defs><g transform="translate(0 -284.30005)"><g transform="translate(5.027084 1.852147)"><path d="m-4.2333332 282.97707c-.4351619 0-.79375.35859-.79375.79375v10.31875c0 .43516.3585881.79375.79375.79375h11.1124998c.435162 0 .79375-.35859.79375-.79375v-8.73125c0-.43516-.358588-.79375-.79375-.79375h-5.8203163c-.13387419 0-.20482799-.0441-.30540779-.15813-.10058-.11401-.2026518-.29867-.3162596-.50074-.1136084-.20207-.2406949-.42267-.4335653-.60669-.1928707-.18401-.466638-.32194-.7973674-.32194z" style="fill:currentColor"
class="ColorScheme-Highlight"/><path d="m-4.2333332 283.24217h3.43958231c1.0583334 0 .9912861 1.5875 1.85208339 1.5875h5.8208331c.293159 0 .529167.23601.529167.52917v8.73124c0 .29316-.236008.52917-.529167.52917h-11.1124988c-.2931585 0-.5291665-.23601-.5291665-.52917v-10.31874c0-.29316.236008-.52917.5291665-.52917z" fill="#fff" fill-opacity=".08"/><path d="m-4.2333337 282.97707c-.4351615 0-.79375.35859-.79375.79375v10.31875c0 .43516.3585885.79375.79375.79375h11.1125c.4351616 0 .79375-.35859.79375-.79375v-8.73125c0-.43516-.3585884-.79375-.79375-.79375h-5.8203166c-.13387401 0-.20482801-.0441-.30540771-.15813-.1005799-.11401-.2026521-.29868-.3162597-.50075-.1136083-.20207-.2406951-.42266-.4335653-.60668-.1928705-.18401-.4666383-.32194-.79736737-.32194zm0 .2651h3.43958332c1.05833237 0 .99128687 1.5875 1.85208338 1.5875h5.8208333c.2931587 0 .5291667.236.5291667.52916v8.73125c0 .29316-.236008.52917-.5291667.52917h-11.1125c-.2931582 0-.5291667-.23601-.5291667-.52917v-10.31875c0-.29316.2360085-.52916.5291667-.52916z" fill-opacity=".2"/><path d="m1.0583333 284.56457c-.29652439 0-.54026169.1538-.70228279.33745-.162021.18365-.2708169.39637-.3803385.59117-.1095214.19481-.2183329.37005-.3374472.4837-.1191141.11364-.2335774.17518-.4320149.17518h-3.43958331c-.4351626 0-.79375.35859-.79375.79375v7.14375c0 .43516.3585874.79375.79375.79375h11.1125c.435163 0 .79375-.35859.79375-.79375v-8.73125c0-.43516-.358587-.79375-.79375-.79375z" style="fill:currentColor"
class="ColorScheme-Highlight"/><path d="m1.0583329 284.82967c-.86079314 0-.79375523 1.5875-1.85208337 1.5875h-3.43958333c-.293157 0-.5291667.23602-.5291667.52917v7.14375c0 .29316.2360097.52916.5291667.52916h11.1125c.2931565 0 .5291667-.236.5291667-.52916v-.52969h-4.7625v-.52916h4.7625v-.26459h-4.7625v-.52916h4.7625v-.26459h-4.7625v-.52916h4.7625v-6.0849c0-.29315-.2360102-.52917-.5291667-.52917zm1.6257405 3.43958a2.6458333 2.6458333 0 0 1 .973584.20102 2.6458333 2.6458333 0 0 1 1.633492 2.4443h-.5291666a2.1166667 2.1166667 0 0 0 -.0062012-.16536 2.1166667 2.1166667 0 0 0 -.0273885-.20981 2.1166667 2.1166667 0 0 0 -.0475423-.20567 2.1166667 2.1166667 0 0 0 -.0682129-.20051 2.1166667 2.1166667 0 0 0 -.08785-.19275 2.1166667 2.1166667 0 0 0 -.1069702-.18242 2.1166667 2.1166667 0 0 0 -.1240234-.17105 2.1166667 2.1166667 0 0 0 -.1410767-.15813 2.1166667 2.1166667 0 0 0 -.155546-.14314 2.1166667 2.1166667 0 0 0 -.1694987-.12661 2.1166667 2.1166667 0 0 0 -.1813843-.10955 2.1166667 2.1166667 0 0 0 -.1912028-.09044 2.1166667 2.1166667 0 0 0 -.1550293-.05736 2.1166667 2.1166667 0 0 0 -.2041219-.05529 2.1166667 2.1166667 0 0 0 -.2087728-.03462 2.1166667 2.1166667 0 0 0 -.2108398-.01396 2.1166667 2.1166667 0 0 0 -.2113566.00775 2.1166667 2.1166667 0 0 0 -.2098064.02843 2.1166667 2.1166667 0 0 0 -.2056722.04961 2.1166667 2.1166667 0 0 0 -.1999878.06924 2.1166667 2.1166667 0 0 0 -.1917195.0894 2.1166667 2.1166667 0 0 0 -.1819011.10801 2.1166667 2.1166667 0 0 0 -.1705322.12557 2.1166667 2.1166667 0 0 0 -.1565796.14211 2.1166667 2.1166667 0 0 0 -.1121378.12092 2.1166667 2.1166667 0 0 0 -.12970788.16795 2.1166667 2.1166667 0 0 0 -.11162109.17932 2.1166667 2.1166667 0 0 0 -.09353435.18965 2.1166667 2.1166667 0 0 0 -.07389729.19844 2.1166667 2.1166667 0 0 0 -.05374349.20464 2.1166667 2.1166667 0 0 0 -.03307292.20877 2.1166667 2.1166667 0 0 0 -.01240234.21136 2.1166667 2.1166667 0 0 0 .00930175.21135 2.1166667 2.1166667 0 0 0 .02997233.20929 2.1166667 2.1166667 0 0 0 .05064291.20568 2.1166667 2.1166667 0 0 0 .07131347.19895 2.1166667 2.1166667 0 0 0 .06924642.15038 2.1166667 2.1166667 0 0 0 .10490316.18345 2.1166667 2.1166667 0 0 0 .12298991.17208 2.1166667 2.1166667 0 0 0 .14004311.15917 2.1166667 2.1166667 0 0 0 .1545126.14417 2.1166667 2.1166667 0 0 0 .1684651.12816 2.1166667 2.1166667 0 0 0 .1803508.11059 2.1166667 2.1166667 0 0 0 .190686.09198 2.1166667 2.1166667 0 0 0 .1989543.07235 2.1166667 2.1166667 0 0 0 .2046386.05219 2.1166667 2.1166667 0 0 0 .2092896.03204 2.1166667 2.1166667 0 0 0 .2113566.01034v.52916a2.6458333 2.6458333 0 0 1 -2.44429525-1.63349 2.6458333 2.6458333 0 0 1 .5736084-2.88303 2.6458333 2.6458333 0 0 1 1.90944415-.77463zm-.0118856.79272a1.8520833 1.8520833 0 0 1 .682129.14108 1.8520833 1.8520833 0 0 1 1.1430826 1.711h-.5291666a1.3229167 1.3229167 0 0 0 -.0041341-.10335 1.3229167 1.3229167 0 0 0 -.0165365-.13126 1.3229167 1.3229167 0 0 0 -.0299723-.12867 1.3229167 1.3229167 0 0 0 -.0428915-.12506 1.3229167 1.3229167 0 0 0 -.054777-.12041 1.3229167 1.3229167 0 0 0 -.0666626-.1142 1.3229167 1.3229167 0 0 0 -.0775146-.10697 1.3229167 1.3229167 0 0 0 -.0883667-.0987 1.3229167 1.3229167 0 0 0 -.0971517-.0894 1.3229167 1.3229167 0 0 0 -.1059367-.07907 1.3229167 1.3229167 0 0 0 -.1131714-.06873 1.3229167 1.3229167 0 0 0 -.1193726-.05632 1.3229167 1.3229167 0 0 0 -.0971517-.03566 1.3229167 1.3229167 0 0 0 -.1276407-.03462 1.3229167 1.3229167 0 0 0 -.1302247-.02171 1.3229167 1.3229167 0 0 0 -.1322916-.00878 1.3229167 1.3229167 0 0 0 -.1317749.00465 1.3229167 1.3229167 0 0 0 -.1312582.01808 1.3229167 1.3229167 0 0 0 -.1286743.03101 1.3229167 1.3229167 0 0 0 -.1245402.04341 1.3229167 1.3229167 0 0 0 -.1198893.05581 1.3229167 1.3229167 0 0 0 -.1136882.06718 1.3229167 1.3229167 0 0 0 -.1064534.07855 1.3229167 1.3229167 0 0 0 -.0981852.08888 1.3229167 1.3229167 0 0 0 -.07028.07596 1.3229167 1.3229167 0 0 0 -.0806152.10439 1.3229167 1.3229167 0 0 0 -.07028.11214 1.3229167 1.3229167 0 0 0 -.0583943.11885 1.3229167 1.3229167 0 0 0 -.045992.12403 1.3229167 1.3229167 0 0 0 -.0335897.12764 1.3229167 1.3229167 0 0 0 -.0206706.13074 1.3229167 1.3229167 0 0 0 -.0077515.13177 1.3229167 1.3229167 0 0 0 .0056844.1323 1.3229167 1.3229167 0 0 0 .0186036.13074 1.3229167 1.3229167 0 0 0 .0320393.12867 1.3229167 1.3229167 0 0 0 .0444418.12454 1.3229167 1.3229167 0 0 0 .0434082.09354 1.3229167 1.3229167 0 0 0 .0656291.11472 1.3229167 1.3229167 0 0 0 .0769978.10749 1.3229167 1.3229167 0 0 0 .0873332.09973 1.3229167 1.3229167 0 0 0 .0966349.08992 1.3229167 1.3229167 0 0 0 .10542.0801 1.3229167 1.3229167 0 0 0 .1126546.06924 1.3229167 1.3229167 0 0 0 .1188558.05736 1.3229167 1.3229167 0 0 0 .1240234.04548 1.3229167 1.3229167 0 0 0 .1281576.03307 1.3229167 1.3229167 0 0 0 .1307413.01912 1.3229167 1.3229167 0 0 0 .1322917.00724v.52916a1.8520833 1.8520833 0 0 1 -1.71100667-1.14308 1.8520833 1.8520833 0 0 1 .40152587-2.01848 1.8520833 1.8520833 0 0 1 1.3363525-.5426zm-.0113688.79427h.0005168a1.0583333 1.0583333 0 0 1 .3896403.08061 1.0583333 1.0583333 0 0 1 .6531901.97772h-.5291667a.52916667.52916667 0 0 0 -.002067-.04186.52916667.52916667 0 0 0 -.006718-.05219.52916667.52916667 0 0 0 -.0118855-.05168.52916667.52916667 0 0 0 -.0170533-.05012.52916667.52916667 0 0 0 -.0222208-.04806.52916667.52916667 0 0 0 -.026355-.04599.52916667.52916667 0 0 0 -.0315226-.04238.52916667.52916667 0 0 0 -.03514-.03979.52916667.52916667 0 0 0 -.0387573-.03566.52916667.52916667 0 0 0 -.0423747-.03152.52916667.52916667 0 0 0 -.0454753-.02739.52916667.52916667 0 0 0 -.0475423-.02222.52916667.52916667 0 0 0 -.0387573-.01499.52916667.52916667 0 0 0 -.0511597-.01343.52916667.52916667 0 0 0 -.0521932-.00827.52916667.52916667 0 0 0 -.0527099-.00413.52916667.52916667 0 0 0 -.05271.00206.52916667.52916667 0 0 0 -.05271.00724.52916667.52916667 0 0 0 -.0511596.01188.52916667.52916667 0 0 0 -.0501262.01757.52916667.52916667 0 0 0 -.048059.02222.52916667.52916667 0 0 0 -.0454753.02739.52916667.52916667 0 0 0 -.0423747.03101.52916667.52916667 0 0 0 -.0392741.03566.52916667.52916667 0 0 0 -.0279052.03048.52916667.52916667 0 0 0 -.0325562.04186.52916667.52916667 0 0 0 -.0279053.04496.52916667.52916667 0 0 0 -.0232544.04703.52916667.52916667 0 0 0 -.0186035.04961.52916667.52916667 0 0 0 -.0134358.05116.52916667.52916667 0 0 0 -.0082683.05219.52916667.52916667 0 0 0 -.0031006.05323.52916667.52916667 0 0 0 .0020671.05271.52916667.52916667 0 0 0 .0077515.05219.52916667.52916667 0 0 0 .0129191.05116.52916667.52916667 0 0 0 .01757.05012.52916667.52916667 0 0 0 .0170532.03721.52916667.52916667 0 0 0 .026355.04599.52916667.52916667 0 0 0 .0310058.04341.52916667.52916667 0 0 0 .0346232.03928.52916667.52916667 0 0 0 .0387573.03617.52916667.52916667 0 0 0 .0423747.03204.52916667.52916667 0 0 0 .0449585.0279.52916667.52916667 0 0 0 .0475423.02274.52916667.52916667 0 0 0 .0496094.01809.52916667.52916667 0 0 0 .0516764.01343.52916667.52916667 0 0 0 .0521932.00776.52916667.52916667 0 0 0 .05271.0031v.52916a1.0583333 1.0583333 0 0 1 -.9777181-.65319 1.0583333 1.0583333 0 0 1 .2294434-1.15341 1.0583333 1.0583333 0 0 1 .7637776-.31006z" fill="#fff" fill-opacity=".3"/><path d="m1.0583325 284.56457c-.2965241 0-.5402618.1538-.7022827.33745s-.2708171.39638-.3803386.59118c-.1095213.19481-.2183329.37004-.3374471.48369-.119114.11364-.2335777.17518-.432015.17518h-3.4395833c-.4351622 0-.79375.35859-.79375.79375v7.14375c0 .43516.3585878.79375.79375.79375h11.1125004c.435162 0 .79375-.35859.79375-.79375v-8.73125c0-.43516-.358588-.79375-.79375-.79375zm0 .2651h5.8208337c.293157 0 .529166.23602.529166.52917v8.73125c0 .29316-.236009.52916-.529166.52916h-11.1125004c-.2931582 0-.5291667-.236-.5291667-.52916v-7.14375c0-.29315.2360085-.52917.5291667-.52917h3.4395833c1.0583324 0 .9912869-1.5875 1.8520834-1.5875z" fill-opacity=".2"/></g><path d="m7.7111569 290.1214a2.6458333 2.6458333 0 0 0 -1.9094439.77463 2.6458333 2.6458333 0 0 0 -.573608 2.88303 2.6458333 2.6458333 0 0 0 2.444295 1.63349v-.52916a2.1166667 2.1166667 0 0 1 -.211357-.0104 2.1166667 2.1166667 0 0 1 -.20929-.032 2.1166667 2.1166667 0 0 1 -.204638-.0522 2.1166667 2.1166667 0 0 1 -.198955-.0723 2.1166667 2.1166667 0 0 1 -.190686-.092 2.1166667 2.1166667 0 0 1 -.18035-.11059 2.1166667 2.1166667 0 0 1 -.168465-.12816 2.1166667 2.1166667 0 0 1 -.154513-.14417 2.1166667 2.1166667 0 0 1 -.140043-.15917 2.1166667 2.1166667 0 0 1 -.12299-.17208 2.1166667 2.1166667 0 0 1 -.104903-.18345 2.1166667 2.1166667 0 0 1 -.06925-.15038 2.1166667 2.1166667 0 0 1 -.07131-.19896 2.1166667 2.1166667 0 0 1 -.05064-.20567 2.1166667 2.1166667 0 0 1 -.02997-.20929 2.1166667 2.1166667 0 0 1 -.0093-.21135 2.1166667 2.1166667 0 0 1 .0124-.21136 2.1166667 2.1166667 0 0 1 .03307-.20877 2.1166667 2.1166667 0 0 1 .05374-.20464 2.1166667 2.1166667 0 0 1 .0739-.19844 2.1166667 2.1166667 0 0 1 .09353-.18965 2.1166667 2.1166667 0 0 1 .111621-.17932 2.1166667 2.1166667 0 0 1 .129708-.16795 2.1166667 2.1166667 0 0 1 .112138-.12092 2.1166667 2.1166667 0 0 1 .15658-.14211 2.1166667 2.1166667 0 0 1 .170532-.12557 2.1166667 2.1166667 0 0 1 .181901-.10801 2.1166667 2.1166667 0 0 1 .191719-.0894 2.1166667 2.1166667 0 0 1 .199988-.0692 2.1166667 2.1166667 0 0 1 .205672-.0496 2.1166667 2.1166667 0 0 1 .209807-.0284 2.1166667 2.1166667 0 0 1 .2113561-.008 2.1166667 2.1166667 0 0 1 .2108398.0139 2.1166667 2.1166667 0 0 1 .2087729.0346 2.1166667 2.1166667 0 0 1 .2041219.0553 2.1166667 2.1166667 0 0 1 .1550294.0574 2.1166667 2.1166667 0 0 1 .1912027.0904 2.1166667 2.1166667 0 0 1 .1813843.10955 2.1166667 2.1166667 0 0 1 .1694987.12661 2.1166667 2.1166667 0 0 1 .1555459.14314 2.1166667 2.1166667 0 0 1 .1410769.15813 2.1166667 2.1166667 0 0 1 .1240234.17105 2.1166667 2.1166667 0 0 1 .10697.18242 2.1166667 2.1166667 0 0 1 .08785.19275 2.1166667 2.1166667 0 0 1 .068213.20051 2.1166667 2.1166667 0 0 1 .047542.20567 2.1166667 2.1166667 0 0 1 .027388.2098 2.1166667 2.1166667 0 0 1 .0062.16537h.529167a2.6458333 2.6458333 0 0 0 -1.6334905-2.44429 2.6458333 2.6458333 0 0 0 -.9735841-.20103zm-.011885.79324a1.8520833 1.8520833 0 0 0 -1.3363529.5426 1.8520833 1.8520833 0 0 0 -.401525 2.01848 1.8520833 1.8520833 0 0 0 1.711006 1.14308v-.52916a1.3229167 1.3229167 0 0 1 -.132291-.007 1.3229167 1.3229167 0 0 1 -.130742-.0196 1.3229167 1.3229167 0 0 1 -.128157-.0326 1.3229167 1.3229167 0 0 1 -.124024-.0455 1.3229167 1.3229167 0 0 1 -.118856-.0574 1.3229167 1.3229167 0 0 1 -.112654-.0693 1.3229167 1.3229167 0 0 1 -.10542-.0801 1.3229167 1.3229167 0 0 1 -.09663-.0899 1.3229167 1.3229167 0 0 1 -.08733-.0997 1.3229167 1.3229167 0 0 1 -.077-.10748 1.3229167 1.3229167 0 0 1 -.06563-.11472 1.3229167 1.3229167 0 0 1 -.04341-.0935 1.3229167 1.3229167 0 0 1 -.04444-.12454 1.3229167 1.3229167 0 0 1 -.03204-.12867 1.3229167 1.3229167 0 0 1 -.0186-.13074 1.3229167 1.3229167 0 0 1 -.0057-.1323 1.3229167 1.3229167 0 0 1 .0077-.13177 1.3229167 1.3229167 0 0 1 .02067-.13074 1.3229167 1.3229167 0 0 1 .03359-.12764 1.3229167 1.3229167 0 0 1 .04599-.12403 1.3229167 1.3229167 0 0 1 .05839-.11885 1.3229167 1.3229167 0 0 1 .07028-.11214 1.3229167 1.3229167 0 0 1 .08061-.10439 1.3229167 1.3229167 0 0 1 .07028-.076 1.3229167 1.3229167 0 0 1 .09819-.0889 1.3229167 1.3229167 0 0 1 .106453-.0785 1.3229167 1.3229167 0 0 1 .113689-.0672 1.3229167 1.3229167 0 0 1 .119889-.0558 1.3229167 1.3229167 0 0 1 .12454-.0434 1.3229167 1.3229167 0 0 1 .128675-.031 1.3229167 1.3229167 0 0 1 .131258-.0181 1.3229167 1.3229167 0 0 1 .1317704-.005 1.3229167 1.3229167 0 0 1 .1322916.009 1.3229167 1.3229167 0 0 1 .1302248.0217 1.3229167 1.3229167 0 0 1 .1276408.0346 1.3229167 1.3229167 0 0 1 .097152.0357 1.3229167 1.3229167 0 0 1 .1193726.0563 1.3229167 1.3229167 0 0 1 .1131715.0687 1.3229167 1.3229167 0 0 1 .1059365.0791 1.3229167 1.3229167 0 0 1 .097152.0894 1.3229167 1.3229167 0 0 1 .088367.0987 1.3229167 1.3229167 0 0 1 .077515.10696 1.3229167 1.3229167 0 0 1 .066662.11421 1.3229167 1.3229167 0 0 1 .054777.1204 1.3229167 1.3229167 0 0 1 .042892.12506 1.3229167 1.3229167 0 0 1 .029972.12868 1.3229167 1.3229167 0 0 1 .016536.13125 1.3229167 1.3229167 0 0 1 .00414.10336h.5291666a1.8520833 1.8520833 0 0 0 -1.1430828-1.71101 1.8520833 1.8520833 0 0 0 -.6821289-.14107zm-.011369.79375a1.0583333 1.0583333 0 0 0 -.7637769.31005 1.0583333 1.0583333 0 0 0 -.229444 1.15342 1.0583333 1.0583333 0 0 0 .977719.65319v-.52916a.52916667.52916667 0 0 1 -.05271-.003.52916667.52916667 0 0 1 -.05219-.008.52916667.52916667 0 0 1 -.05168-.0134.52916667.52916667 0 0 1 -.04961-.0181.52916667.52916667 0 0 1 -.04754-.0227.52916667.52916667 0 0 1 -.04496-.0279.52916667.52916667 0 0 1 -.04237-.032.52916667.52916667 0 0 1 -.03876-.0362.52916667.52916667 0 0 1 -.03462-.0393.52916667.52916667 0 0 1 -.03101-.0434.52916667.52916667 0 0 1 -.02636-.046.52916667.52916667 0 0 1 -.01705-.0372.52916667.52916667 0 0 1 -.01757-.0501.52916667.52916667 0 0 1 -.01292-.0512.52916667.52916667 0 0 1 -.0077-.0522.52916667.52916667 0 0 1 -.0021-.0527.52916667.52916667 0 0 1 .0031-.0532.52916667.52916667 0 0 1 .0083-.0522.52916667.52916667 0 0 1 .01344-.0512.52916667.52916667 0 0 1 .0186-.0496.52916667.52916667 0 0 1 .02325-.047.52916667.52916667 0 0 1 .0279-.045.52916667.52916667 0 0 1 .03256-.0419.52916667.52916667 0 0 1 .0279-.0305.52916667.52916667 0 0 1 .03927-.0356.52916667.52916667 0 0 1 .04237-.031.52916667.52916667 0 0 1 .04547-.0274.52916667.52916667 0 0 1 .04806-.0222.52916667.52916667 0 0 1 .05013-.0176.52916667.52916667 0 0 1 .05116-.0119.52916667.52916667 0 0 1 .05271-.007.52916667.52916667 0 0 1 .05271-.002.52916667.52916667 0 0 1 .05271.004.52916667.52916667 0 0 1 .052193.008.52916667.52916667 0 0 1 .05116.0139.52916667.52916667 0 0 1 .038757.0145.52916667.52916667 0 0 1 .047542.0227.52916667.52916667 0 0 1 .045475.0274.52916667.52916667 0 0 1 .042375.0315.52916667.52916667 0 0 1 .038757.0356.52916667.52916667 0 0 1 .03514.0398.52916667.52916667 0 0 1 .031523.0424.52916667.52916667 0 0 1 .026355.046.52916667.52916667 0 0 1 .02222.0481.52916667.52916667 0 0 1 .017052.0501.52916667.52916667 0 0 1 .011885.0517.52916667.52916667 0 0 1 .00672.0522.52916667.52916667 0 0 1 .00206.0414h.5291667a1.0583333 1.0583333 0 0 0 -.6531901-.97772 1.0583333 1.0583333 0 0 0 -.3896402-.0806zm-.014986 1.5875v.52916h4.7624991v-.52916zm0 .79375v.52916h4.7624991v-.52916zm0 .79375v.52916h4.7624991v-.52916z" fill-opacity=".2"/></g></svg>
