<svg height="48" viewBox="0 0 12.7 12.7" width="48" xmlns="http://www.w3.org/2000/svg"><defs id="kuyenfoldercolor">
    <style type="text/css" id="current-color-scheme">
      .ColorScheme-Highlight {
        color:#03b2fe;
      }
      </style>
  </defs><g transform="translate(5.55625 -283.770817)"><g transform="translate(-.529166 1.32291)"><path d="m-4.2333332 282.97707c-.4351619 0-.79375.35859-.79375.79375v10.31875c0 .43516.3585881.79375.79375.79375h11.1124998c.435162 0 .79375-.35859.79375-.79375v-8.73125c0-.43516-.358588-.79375-.79375-.79375h-5.8203163c-.13387419 0-.20482799-.0441-.30540779-.15813-.10058-.11401-.2026518-.29867-.3162596-.50074-.1136084-.20207-.2406949-.42267-.4335653-.60669-.1928707-.18401-.466638-.32194-.7973674-.32194z" style="fill:currentColor"
class="ColorScheme-Highlight"/><path d="m-4.2333332 283.24217h3.43958231c1.0583334 0 .9912861 1.5875 1.85208339 1.5875h5.8208331c.293159 0 .529167.23601.529167.52917v8.73124c0 .29316-.236008.52917-.529167.52917h-11.1124988c-.2931585 0-.5291665-.23601-.5291665-.52917v-10.31874c0-.29316.236008-.52917.5291665-.52917z" fill="#fff" fill-opacity=".08"/><path d="m-4.2333337 282.97707c-.4351615 0-.79375.35859-.79375.79375v10.31875c0 .43516.3585885.79375.79375.79375h11.1125c.4351616 0 .79375-.35859.79375-.79375v-8.73125c0-.43516-.3585884-.79375-.79375-.79375h-5.8203166c-.13387401 0-.20482801-.0441-.30540771-.15813-.1005799-.11401-.2026521-.29868-.3162597-.50075-.1136083-.20207-.2406951-.42266-.4335653-.60668-.1928705-.18401-.4666383-.32194-.79736737-.32194zm0 .2651h3.43958332c1.05833237 0 .99128687 1.5875 1.85208338 1.5875h5.8208333c.2931587 0 .5291667.236.5291667.52916v8.73125c0 .29316-.236008.52917-.5291667.52917h-11.1125c-.2931582 0-.5291667-.23601-.5291667-.52917v-10.31875c0-.29316.2360085-.52916.5291667-.52916z" fill-opacity=".2"/><path d="m1.0583333 284.56457c-.29652439 0-.54026169.1538-.70228279.33745-.162021.18365-.2708169.39637-.3803385.59117-.1095214.19481-.2183329.37005-.3374472.4837-.1191141.11364-.2335774.17518-.4320149.17518h-3.43958331c-.4351626 0-.79375.35859-.79375.79375v7.14375c0 .43516.3585874.79375.79375.79375h11.1125c.435163 0 .79375-.35859.79375-.79375v-8.73125c0-.43516-.358587-.79375-.79375-.79375z" style="fill:currentColor"
class="ColorScheme-Highlight"/><path d="m1.0583325 284.82967c-.86078982 0-.79375943 1.5875-1.85208337 1.5875h-3.43958333c-.2931558 0-.5291667.23602-.5291667.52917v7.14375c0 .29316.2360109.52917.5291667.52917h11.1125c.2931553 0 .5291667-.23601.5291667-.52917v-8.73125c0-.29315-.2360114-.52917-.5291667-.52917zm-1.67793379 3.44062c.06187114-.00248.12426098-.00248.18655192.00052.46419504.02108.90855594.19431 1.2645223.49299l-1.36064046 1.62161h2.11666663c.0000468.99242-.68942371 1.85163-1.65829668 2.06654-.96900622.21486-1.95717332-.27246-2.37659912-1.17202-.4195156-.89957-.1575903-1.96984.6299357-2.57401.3463074-.26569.7647623-.41713 1.19785971-.43563zm-.83560791 1.05678c-.2198685 0-.396875.17701-.396875.39688 0 .21986.1770065.39687.396875.39687s.396875-.17701.396875-.39687c0-.21987-.1770065-.39688-.396875-.39688zm4.6302083.52917c.293158 0 .5291667.23601.5291667.52917s-.2360087.52916-.5291667.52916-.5291666-.236-.5291666-.52916.2360086-.52917.5291666-.52917zm1.5875 0c.293158 0 .5291667.23601.5291667.52917s-.2360087.52916-.5291667.52916-.5291666-.236-.5291666-.52916.2360086-.52917.5291666-.52917z" fill="#fff" fill-opacity=".3"/><path d="m1.0583325 284.56457c-.2965241 0-.5402618.1538-.7022827.33745s-.2708171.39638-.3803386.59118c-.1095213.19481-.2183329.37004-.3374471.48369-.119114.11364-.2335777.17518-.432015.17518h-3.4395833c-.4351622 0-.79375.35859-.79375.79375v7.14375c0 .43516.3585878.79375.79375.79375h11.1125004c.435162 0 .79375-.35859.79375-.79375v-8.73125c0-.43516-.358588-.79375-.79375-.79375zm0 .2651h5.8208337c.293157 0 .529166.23602.529166.52917v8.73125c0 .29316-.236009.52916-.529166.52916h-11.1125004c-.2931582 0-.5291667-.236-.5291667-.52916v-7.14375c0-.29315.2360085-.52917.5291667-.52917h3.4395833c1.0583324 0 .9912869-1.5875 1.8520834-1.5875z" fill-opacity=".2"/></g><path d="m-1.1487174 289.5932c-.4330978.0185-.851552.16995-1.1978597.43564-.7875268.60417-1.0494517 1.67443-.6299357 2.574.4194262.89957 1.407592 1.38688 2.37659915 1.17202.96887399-.21491 1.65834345-1.07412 1.65829665-2.06654h-2.1166666l1.36064038-1.62161c-.35596671-.29868-.80032674-.47191-1.26452232-.49299-.0622906-.003-.12468066-.003-.18655186-.00052zm-.8356079 1.05679c.2198687 0 .396875.177.396875.39687 0 .21986-.1770063.39688-.396875.39688s-.396875-.17702-.396875-.39688c0-.21987.1770063-.39687.396875-.39687zm4.6301752.52916c-.2931583 0-.5291667.23601-.5291667.52917s.2360084.52916.5291667.52916.5291667-.236.5291667-.52916-.2360084-.52917-.5291667-.52917zm1.5875 0c-.2931583 0-.5291667.23601-.5291667.52917s.2360084.52916.5291667.52916.5291666-.236.5291666-.52916-.2360083-.52917-.5291666-.52917z" fill-opacity=".2"/></g></svg>
