<svg height="48" viewBox="0 0 12.7 12.7" width="48" xmlns="http://www.w3.org/2000/svg"><defs id="kuyenfoldercolor">
    <style type="text/css" id="current-color-scheme">
      .ColorScheme-Highlight {
        color:#03b2fe;
      }
      </style>
  </defs><g transform="translate(5.027084 -282.4479)"><path d="m-4.2333332 282.97707c-.4351619 0-.79375.35859-.79375.79375v10.31875c0 .43516.3585881.79375.79375.79375h11.1124998c.435162 0 .79375-.35859.79375-.79375v-8.73125c0-.43516-.358588-.79375-.79375-.79375h-5.8203163c-.13387419 0-.20482799-.0441-.30540779-.15813-.10058-.11401-.2026518-.29867-.3162596-.50074-.1136084-.20207-.2406949-.42267-.4335653-.60669-.1928707-.18401-.466638-.32194-.7973674-.32194z" style="fill:currentColor"
class="ColorScheme-Highlight"/><path d="m-4.2333332 283.24217h3.43958231c1.0583334 0 .9912861 1.5875 1.85208339 1.5875h5.8208331c.293159 0 .529167.23601.529167.52917v8.73124c0 .29316-.236008.52917-.529167.52917h-11.1124988c-.2931585 0-.5291665-.23601-.5291665-.52917v-10.31874c0-.29316.236008-.52917.5291665-.52917z" fill="#fff" fill-opacity=".08"/><path d="m-4.2333337 282.97707c-.4351615 0-.79375.35859-.79375.79375v10.31875c0 .43516.3585885.79375.79375.79375h11.1125c.4351616 0 .79375-.35859.79375-.79375v-8.73125c0-.43516-.3585884-.79375-.79375-.79375h-5.8203166c-.13387401 0-.20482801-.0441-.30540771-.15813-.1005799-.11401-.2026521-.29868-.3162597-.50075-.1136083-.20207-.2406951-.42266-.4335653-.60668-.1928705-.18401-.4666383-.32194-.79736737-.32194zm0 .2651h3.43958332c1.05833237 0 .99128687 1.5875 1.85208338 1.5875h5.8208333c.2931587 0 .5291667.236.5291667.52916v8.73125c0 .29316-.236008.52917-.5291667.52917h-11.1125c-.2931582 0-.5291667-.23601-.5291667-.52917v-10.31875c0-.29316.2360085-.52916.5291667-.52916z" fill-opacity=".2"/><path d="m1.0583333 284.56457c-.29652439 0-.54026169.1538-.70228279.33745-.162021.18365-.2708169.39637-.3803385.59117-.1095214.19481-.2183329.37005-.3374472.4837-.1191141.11364-.2335774.17518-.4320149.17518h-3.43958331c-.4351626 0-.79375.35859-.79375.79375v7.14375c0 .43516.3585874.79375.79375.79375h11.1125c.435163 0 .79375-.35859.79375-.79375v-8.73125c0-.43516-.358587-.79375-.79375-.79375z" style="fill:currentColor"
class="ColorScheme-Highlight"/><path d="m1.0583325 284.82967c-.86078982 0-.79375943 1.5875-1.85208337 1.5875h-3.43958333c-.2931558 0-.5291667.23601-.5291667.52916v7.14375c0 .29316.2360109.52917.5291667.52917h11.1125c.2931553 0 .5291667-.23601.5291667-.52917v-8.73125c0-.29315-.2360114-.52916-.5291667-.52916zm-1.5952515 3.43906a.2646098.2646098 0 0 1 .17311605.05788l.91984049.73639h1.26865646l.9198405-.73639a.26460955.26460955 0 0 1 .2640665-.03876.26460955.26460955 0 0 1 .162264.20826l.1948202 1.34875c.213351.30184.3384806.67086.3384806 1.07022 0 1.02604-.8260351 1.85209-1.8520833 1.85209h-1.3229167c-1.02604821 0-1.8520833-.82605-1.8520833-1.85209 0-.39894.125014-.76752.33796383-1.06918l.19482015-1.34979a.2646098.2646098 0 0 1 .16278077-.20826.2646098.2646098 0 0 1 .09043375-.01912z" fill="#fff" fill-opacity=".3"/><path d="m1.0583325 284.56457c-.2965241 0-.5402618.1538-.7022827.33745s-.2708171.39638-.3803386.59118c-.1095213.19481-.2183329.37004-.3374471.48369-.119114.11364-.2335777.17518-.432015.17518h-3.4395833c-.4351622 0-.79375.35859-.79375.79375v7.14375c0 .43516.3585878.79375.79375.79375h11.1125004c.435162 0 .79375-.35859.79375-.79375v-8.73125c0-.43516-.358588-.79375-.79375-.79375zm0 .2651h5.8208337c.293157 0 .529166.23602.529166.52917v8.73125c0 .29316-.236009.52916-.529166.52916h-11.1125004c-.2931582 0-.5291667-.236-.5291667-.52916v-7.14375c0-.29315.2360085-.52917.5291667-.52917h3.4395833c1.0583324 0 .9912869-1.5875 1.8520834-1.5875z" fill-opacity=".2"/></g><path d="m-1.0100952 292.71328a.15877502.15877502 0 0 0 -.054263.0115.15877502.15877502 0 0 0 -.097674.12496l-.1168988.80992c-.1277774.18101-.20279.40217-.20279.64155 0 .61566.495649 1.11131 1.11131399 1.11131h.79379521c.615665 0 1.111314-.49565 1.111314-1.11131 0-.23963-.075082-.46106-.2031001-.64217l-.1168988-.8093a.15877487.15877487 0 0 0 -.097364-.12496.15877487.15877487 0 0 0 -.15844908.0233l-.55193607.44186h-.76123768l-.55193608-.44186a.15877502.15877502 0 0 0 -.10387559-.0347z" fill-opacity=".2" stroke-linecap="round" stroke-linejoin="round" stroke-miterlimit="1.8" stroke-width=".317518" transform="matrix(1.6665707 0 0 1.6665707 6.17356 -482.00654)"/></svg>
