<svg height="48" viewBox="0 0 12.7 12.7" width="48" xmlns="http://www.w3.org/2000/svg"><defs id="kuyenfoldercolor">
    <style type="text/css" id="current-color-scheme">
      .ColorScheme-Highlight {
        color:#03b2fe;
      }
      </style>
  </defs><g transform="translate(0 -284.29999)"><g transform="translate(5.027084 1.85209)"><path d="m-4.2333332 282.97707c-.4351619 0-.79375.35859-.79375.79375v10.31875c0 .43516.3585881.79375.79375.79375h11.1124998c.435162 0 .79375-.35859.79375-.79375v-8.73125c0-.43516-.358588-.79375-.79375-.79375h-5.8203163c-.13387419 0-.20482799-.0441-.30540779-.15813-.10058-.11401-.2026518-.29867-.3162596-.50074-.1136084-.20207-.2406949-.42267-.4335653-.60669-.1928707-.18401-.466638-.32194-.7973674-.32194z" style="fill:currentColor"
class="ColorScheme-Highlight"/><path d="m-4.2333332 283.24217h3.43958231c1.0583334 0 .9912861 1.5875 1.85208339 1.5875h5.8208331c.293159 0 .529167.23601.529167.52917v8.73124c0 .29316-.236008.52917-.529167.52917h-11.1124988c-.2931585 0-.5291665-.23601-.5291665-.52917v-10.31874c0-.29316.236008-.52917.5291665-.52917z" fill="#fff" fill-opacity=".08"/><path d="m-4.2333337 282.97707c-.4351615 0-.79375.35859-.79375.79375v10.31875c0 .43516.3585885.79375.79375.79375h11.1125c.4351616 0 .79375-.35859.79375-.79375v-8.73125c0-.43516-.3585884-.79375-.79375-.79375h-5.8203166c-.13387401 0-.20482801-.0441-.30540771-.15813-.1005799-.11401-.2026521-.29868-.3162597-.50075-.1136083-.20207-.2406951-.42266-.4335653-.60668-.1928705-.18401-.4666383-.32194-.79736737-.32194zm0 .2651h3.43958332c1.05833237 0 .99128687 1.5875 1.85208338 1.5875h5.8208333c.2931587 0 .5291667.236.5291667.52916v8.73125c0 .29316-.236008.52917-.5291667.52917h-11.1125c-.2931582 0-.5291667-.23601-.5291667-.52917v-10.31875c0-.29316.2360085-.52916.5291667-.52916z" fill-opacity=".2"/><path d="m1.0583333 284.56457c-.29652439 0-.54026169.1538-.70228279.33745-.162021.18365-.2708169.39637-.3803385.59117-.1095214.19481-.2183329.37005-.3374472.4837-.1191141.11364-.2335774.17518-.4320149.17518h-3.43958331c-.4351626 0-.79375.35859-.79375.79375v7.14375c0 .43516.3585874.79375.79375.79375h11.1125c.435163 0 .79375-.35859.79375-.79375v-8.73125c0-.43516-.358587-.79375-.79375-.79375z" style="fill:currentColor"
class="ColorScheme-Highlight"/><path d="m1.0583327 284.82967c-.86078733 0-.79376258 1.5875-1.85208337 1.5875h-3.43958333c-.2931549 0-.5291667.23601-.5291667.52916v7.14375c0 .29316.2360118.52917.5291667.52917h11.1125c.2931544 0 .5291667-.23601.5291667-.52917v-8.73125c0-.29315-.2360123-.52916-.5291667-.52916zm-1.27692468 2.91196a.52916666.52916666 0 0 1 .25734864.09354l2.24844154 1.57406c.8209814.24307 1.4169678 1.00032 1.4169678 1.90221 0 1.09934-.8850355 1.98438-1.984375 1.98438-.93845176 0-1.72020903-.6451-1.92908122-1.51774l-.55552164.37052a.52916666.52916666 0 0 1 -.73380534-.14676.52916666.52916666 0 0 1 .1467611-.73381l1.31051429-.87385c.00153-.003.00309088-.00578.00465088-.00878h-1.28622637a.52916666.52916666 0 0 1 -.5291667-.52917.52916666.52916666 0 0 1 .5291667-.52916h1.64744463l-.89245199-.62477a.52916666.52916666 0 0 1 -.13022461-.73691.52916666.52916666 0 0 1 .47955729-.22376zm1.93838298 2.37919c-.6596044 0-1.190625.53101-1.190625 1.19062s.5310206 1.19063 1.190625 1.19063c.6596043 0 1.190625-.53102 1.190625-1.19063s-.5310207-1.19062-1.190625-1.19062zm0 .52916c.3664473 0 .6614583.29501.6614583.66146s-.295011.66146-.6614583.66146c-.3664472 0-.6614583-.29501-.6614583-.66146s.2950111-.66146.6614583-.66146z" fill="#fff" fill-opacity=".3"/><path d="m1.0583325 284.56457c-.2965241 0-.5402618.1538-.7022827.33745s-.2708171.39638-.3803386.59118c-.1095213.19481-.2183329.37004-.3374471.48369-.119114.11364-.2335777.17518-.432015.17518h-3.4395833c-.4351622 0-.79375.35859-.79375.79375v7.14375c0 .43516.3585878.79375.79375.79375h11.1125004c.435162 0 .79375-.35859.79375-.79375v-8.73125c0-.43516-.358588-.79375-.79375-.79375zm0 .2651h5.8208337c.293157 0 .529166.23602.529166.52917v8.73125c0 .29316-.236009.52916-.529166.52916h-11.1125004c-.2931582 0-.5291667-.236-.5291667-.52916v-7.14375c0-.29315.2360085-.52917.5291667-.52917h3.4395833c1.0583324 0 .9912869-1.5875 1.8520834-1.5875z" fill-opacity=".2"/></g><path d="m4.808492 289.59366a.52916666.52916666 0 0 0 -.4795573.22376.52916666.52916666 0 0 0 .1302247.73691l.8924518.62477h-1.6474446a.52916666.52916666 0 0 0 -.5291666.52916.52916666.52916666 0 0 0 .5291666.52917h1.2862264c-.00156.003-.00312.006-.00465.009l-1.3105143.87385a.52916666.52916666 0 0 0 -.1467609.73381.52916666.52916666 0 0 0 .7338051.14676l.5555202-.37052c.2088724.87264.9906286 1.51774 1.9290813 1.51774 1.0993406 0 1.984375-.88504 1.984375-1.98438 0-.90189-.5959856-1.65914-1.4169678-1.90221l-2.2484416-1.57406a.52916666.52916666 0 0 0 -.2573486-.0935zm1.9383829 2.37919c.659605 0 1.190625.53101 1.190625 1.19062s-.53102 1.19063-1.190625 1.19063c-.6596051 0-1.1906249-.53102-1.1906249-1.19063s.5310198-1.19062 1.1906249-1.19062zm0 .52916c-.3664476 0-.6614583.29501-.6614583.66146s.2950107.66146.6614583.66146c.3664477 0 .6614584-.29501.6614584-.66146s-.2950107-.66146-.6614584-.66146z" fill-opacity=".2"/></g></svg>
