<svg height="48" viewBox="0 0 12.7 12.7" width="48" xmlns="http://www.w3.org/2000/svg"><defs id="kuyenfoldercolor">
    <style type="text/css" id="current-color-scheme">
      .ColorScheme-Highlight {
        color:#03b2fe;
      }
      </style>
  </defs><g stroke-linecap="round" stroke-linejoin="round" stroke-miterlimit="1.8" stroke-width=".529167" transform="translate(0 -284.29999)"><path d="m.79374999 284.82916h11.11250001c.439737 0 .79375.35402.79375.79375v10.31875c0 .43973-.354013.79375-.79375.79375h-11.11250001c-.4397375 0-.79374999-.35402-.79374999-.79375v-10.31875c0-.43973.35401249-.79375.79374999-.79375z" fill="#363c4d"/><path d="m.79374996 285.09375h11.11250004c.293159 0 .529167.23601.529167.52917v10.31874c0 .29315-.236008.52916-.529167.52916h-11.11250004c-.29315832 0-.52916664-.23601-.52916664-.52916v-10.31874c0-.29316.23600832-.52917.52916664-.52917z" fill="#4b6477"/><path d="m1.3229166 285.62289h10.0541674c.293158 0 .529166.23601.529166.52917v9.26043c0 .29316-.236008.52917-.529166.52917h-10.0541674c-.2931583 0-.52916661-.23601-.52916661-.52917v-9.26043c0-.29316.23600831-.52917.52916661-.52917z" fill="#363c4d"/><path d="m1.3229166 285.88748h10.0541664c.146579 0 .264583.11801.264583.26459v9.26042c0 .14658-.118004.26458-.264583.26458h-10.0541664c-.1465792 0-.2645833-.118-.2645833-.26458v-9.26042c0-.14658.1180041-.26459.2645833-.26459z" style="fill:currentColor"
class="ColorScheme-Highlight"/><path d="m1.3229167 285.88749c-.1465789 0-.2645834.118-.2645834.26458v9.26042c0 .14658.1180045.26458.2645834.26458h10.0541663c.146579 0 .264584-.118.264584-.26458v-9.26042c0-.14658-.118005-.26458-.264584-.26458zm1.5875 1.05833h3.96875c.1465786 0 .2645833.11801.2645833.26459v3.175c0 .14658-.1180047.26458-.2645833.26458h-3.96875c-.1465788 0-.2645834-.118-.2645834-.26458v-3.175c0-.14658.1180046-.26459.2645834-.26459zm4.7625 1.5875h2.1166666c.1465787 0 .2645837.11801.2645837.26459v3.175c0 .14658-.118005.26458-.2645837.26458h-3.96875c-.1465784 0-.2645833-.118-.2645833-.26458v-.79375h1.3229167c.7966776 0 .79375-.79375.79375-.79375zm-6.0854167 4.7625h9.525v1.85209h-9.525z" fill="#fff" fill-opacity=".3"/><path d="m2.9104167 286.94582c-.1465789 0-.2645834.11801-.2645834.26459v3.175c0 .14658.1180045.26458.2645834.26458h3.96875c.1465788 0 .2645833-.118.2645833-.26458v-3.175c0-.14658-.1180045-.26459-.2645833-.26459zm4.7625 1.5875v1.85209s.00293.79375-.79375.79375h-1.3229167v.79375c0 .14658.1180047.26458.2645833.26458h3.96875c.1465788 0 .2645837-.118.2645837-.26458v-3.175c0-.14658-.1180049-.26459-.2645837-.26459zm-6.0854167 4.7625v1.85209h9.525v-1.85209z" fill-opacity=".2"/></g></svg>
