<?xml version="1.0" encoding="UTF-8" standalone="no"?>
<!-- Created with Inkscape (http://www.inkscape.org/) -->

<svg
   width="64"
   height="64"
   viewBox="0 0 16.933333 16.933333"
   version="1.1"
   id="svg5"
   inkscape:version="1.2.1 (9c6d41e410, 2022-07-14)"
   sodipodi:docname="application-x-blender.svg"
   xmlns:inkscape="http://www.inkscape.org/namespaces/inkscape"
   xmlns:sodipodi="http://sodipodi.sourceforge.net/DTD/sodipodi-0.dtd"
   xmlns="http://www.w3.org/2000/svg"
   xmlns:svg="http://www.w3.org/2000/svg">
  <sodipodi:namedview
     id="namedview7"
     pagecolor="#ffffff"
     bordercolor="#000000"
     borderopacity="0.25"
     inkscape:showpageshadow="false"
     inkscape:pageopacity="0.0"
     inkscape:pagecheckerboard="0"
     inkscape:deskcolor="#d1d1d1"
     inkscape:document-units="px"
     showgrid="true"
     inkscape:zoom="14.481547"
     inkscape:cx="40.15455"
     inkscape:cy="31.833616"
     inkscape:window-width="2160"
     inkscape:window-height="1330"
     inkscape:window-x="0"
     inkscape:window-y="0"
     inkscape:window-maximized="1"
     inkscape:current-layer="layer1">
    <inkscape:grid
       type="xygrid"
       id="grid290"
       originx="0"
       originy="0" />
  </sodipodi:namedview>
  <defs
     id="defs2" />
  <g
     inkscape:label="Capa 1"
     inkscape:groupmode="layer"
     id="layer1">
    <g
       id="g14026"
       transform="translate(-2.1166666,-0.52916632)">
      <path
         id="rect971"
         d="M 4.4979166,0.79374965 H 16.66875 c 0.586316,0 1.058333,0.47201665 1.058333,1.05833335 v 14.287499 c 0,0.586317 -0.472017,1.058334 -1.058333,1.058334 H 4.4979166 c -0.5863167,0 -1.0583334,-0.472017 -1.0583334,-1.058334 V 1.852083 c 0,-0.5863167 0.4720167,-1.05833335 1.0583334,-1.05833335 z"
         style="fill:#a3b7cc;fill-opacity:1;stroke:none;stroke-width:0.529167;stroke-linecap:round;stroke-linejoin:round;stroke-miterlimit:4;stroke-dasharray:none;stroke-dashoffset:0;stroke-opacity:1"
         inkscape:connector-curvature="0"
         sodipodi:nodetypes="sssssssss" />
      <path
         id="rect971-2"
         d="M 4.4979166,1.058333 H 16.66875 c 0.439737,0 0.79375,0.3540125 0.79375,0.79375 v 14.287499 c 0,0.439738 -0.354013,0.79375 -0.79375,0.79375 H 4.4979166 c -0.4397375,0 -0.79375,-0.354012 -0.79375,-0.79375 V 1.852083 c 0,-0.4397375 0.3540125,-0.79375 0.79375,-0.79375 z"
         style="fill:#fafafa;fill-opacity:1;stroke:none;stroke-width:0.529167;stroke-linecap:round;stroke-linejoin:round;stroke-miterlimit:4;stroke-dasharray:none;stroke-dashoffset:0;stroke-opacity:1"
         inkscape:connector-curvature="0"
         sodipodi:nodetypes="sssssssss" />
      <path
         id="rect5971-3"
         style="fill:#dfe6ec;fill-opacity:1;stroke-width:0.423333;stroke-linecap:round;stroke-linejoin:round;stroke-miterlimit:1.8;paint-order:stroke fill markers;stop-color:#000000"
         d="m 4.4979166,1.058333 c -0.439736,0 -0.79375,0.3540125 -0.79375,0.79375 v 0.2645833 h 0.044958 1.0133748 V 1.103291 1.058333 Z M 4.7624999,2.1166663 V 3.1749996 H 5.8208332 V 2.1166663 Z m 1.0583333,0 H 6.8791665 V 1.058333 H 5.8208332 Z m 1.0583333,0 V 3.1749996 H 7.9375 V 2.1166663 Z m 1.0583335,0 H 8.995833 V 1.058333 H 7.9375 Z m 1.058333,0 v 1.0583333 h 1.058334 V 2.1166663 Z m 1.058334,0 H 11.1125 V 1.058333 h -1.058333 z m 1.058333,0 v 1.0583333 h 1.058333 V 2.1166663 Z m 1.058333,0 h 1.058333 V 1.058333 h -1.058333 z m 1.058333,0 V 3.1749996 H 14.2875 V 2.1166663 Z m 1.058334,0 h 1.058333 V 1.058333 H 14.2875 Z m 1.058333,0 v 1.0583333 h 1.058333 V 2.1166663 Z m 1.058333,0 h 1.013375 0.04496 V 1.852083 c 0,-0.4397375 -0.354014,-0.79375 -0.79375,-0.79375 h -0.264584 v 0.044958 z m 0,1.0583333 V 4.2333329 H 17.4625 V 3.1749996 Z m 0,1.0583333 h -1.058333 v 1.0583334 h 1.058333 z m 0,1.0583334 V 6.3499996 H 17.4625 V 5.2916663 Z m 0,1.0583333 h -1.058333 v 1.0583333 h 1.058333 z m 0,1.0583333 V 8.4666662 H 17.4625 V 7.4083329 Z m 0,1.0583333 h -1.058333 v 1.0583333 h 1.058333 z m 0,1.0583333 V 10.583333 H 17.4625 V 9.5249995 Z m 0,1.0583335 h -1.058333 v 1.058333 h 1.058333 z m 0,1.058333 v 1.058333 H 17.4625 v -1.058333 z m 0,1.058333 h -1.058333 v 1.058334 h 1.058333 z m 0,1.058334 v 1.058333 H 17.4625 v -1.058333 z m 0,1.058333 h -1.058333 v 1.058333 h 1.058333 z m 0,1.058333 v 1.013375 0.04496 h 0.264584 c 0.439736,0 0.79375,-0.354012 0.79375,-0.79375 v -0.264583 h -0.04496 z m -1.058333,0 H 14.2875 v 1.058333 h 1.058333 z m -1.058333,0 v -1.058333 h -1.058334 v 1.058333 z m -1.058334,0 h -1.058333 v 1.058333 h 1.058333 z m -1.058333,0 V 14.816666 H 11.1125 v 1.058333 z m -1.058333,0 h -1.058333 v 1.058333 H 11.1125 Z m -1.058333,0 V 14.816666 H 8.995833 v 1.058333 z m -1.058334,0 H 7.9375 v 1.058333 h 1.058333 z m -1.058333,0 V 14.816666 H 6.8791665 v 1.058333 z m -1.0583335,0 H 5.8208332 v 1.058333 h 1.0583333 z m -1.0583333,0 V 14.816666 H 4.7624999 v 1.058333 z m -1.0583333,0 H 3.7491251 3.7041666 v 0.264583 c 0,0.439738 0.354014,0.79375 0.79375,0.79375 h 0.2645833 v -0.04496 z m 0,-1.058333 V 13.758333 H 3.7041666 v 1.058333 z m 0,-1.058333 H 5.8208332 V 12.699999 H 4.7624999 Z m 0,-1.058334 V 11.641666 H 3.7041666 v 1.058333 z m 0,-1.058333 H 5.8208332 V 10.583333 H 4.7624999 Z m 0,-1.058333 V 9.5249995 H 3.7041666 v 1.0583335 z m 0,-1.0583335 H 5.8208332 V 8.4666662 H 4.7624999 Z m 0,-1.0583333 V 7.4083329 H 3.7041666 v 1.0583333 z m 0,-1.0583333 H 5.8208332 V 6.3499996 H 4.7624999 Z m 0,-1.0583333 V 5.2916663 H 3.7041666 v 1.0583333 z m 0,-1.0583333 H 5.8208332 V 4.2333329 H 4.7624999 Z m 0,-1.0583334 V 3.1749996 H 3.7041666 v 1.0583333 z m 1.0583333,0 H 6.8791665 V 3.1749996 H 5.8208332 Z m 1.0583333,0 V 5.2916663 H 7.9375 V 4.2333329 Z m 1.0583335,0 H 8.995833 V 3.1749996 H 7.9375 Z m 1.058333,0 v 1.0583334 h 1.058334 V 4.2333329 Z m 1.058334,0 H 11.1125 V 3.1749996 h -1.058333 z m 1.058333,0 v 1.0583334 h 1.058333 V 4.2333329 Z m 1.058333,0 h 1.058333 V 3.1749996 h -1.058333 z m 1.058333,0 V 5.2916663 H 14.2875 V 4.2333329 Z m 1.058334,0 h 1.058333 V 3.1749996 H 14.2875 Z m 0,1.0583334 v 1.0583333 h 1.058333 V 5.2916663 Z m 0,1.0583333 H 13.229166 V 7.4083329 H 14.2875 Z m 0,1.0583333 v 1.0583333 h 1.058333 V 7.4083329 Z m 0,1.0583333 H 13.229166 V 9.5249995 H 14.2875 Z m 0,1.0583333 v 1.0583335 h 1.058333 V 9.5249995 Z m 0,1.0583335 h -1.058334 v 1.058333 H 14.2875 Z m 0,1.058333 v 1.058333 h 1.058333 v -1.058333 z m 0,1.058333 h -1.058334 v 1.058334 H 14.2875 Z m 0,1.058334 v 1.058333 h 1.058333 v -1.058333 z m -1.058334,0 h -1.058333 v 1.058333 h 1.058333 z m -1.058333,0 V 12.699999 H 11.1125 v 1.058334 z m -1.058333,0 h -1.058333 v 1.058333 H 11.1125 Z m -1.058333,0 V 12.699999 H 8.995833 v 1.058334 z m -1.058334,0 H 7.9375 v 1.058333 h 1.058333 z m -1.058333,0 V 12.699999 H 6.8791665 v 1.058334 z m -1.0583335,0 H 5.8208332 v 1.058333 h 1.0583333 z m 0,-1.058334 V 11.641666 H 5.8208332 v 1.058333 z m 0,-1.058333 H 7.9375 V 10.583333 H 6.8791665 Z m 0,-1.058333 V 9.5249995 H 5.8208332 v 1.0583335 z m 0,-1.0583335 H 7.9375 V 8.4666662 H 6.8791665 Z m 0,-1.0583333 V 7.4083329 H 5.8208332 v 1.0583333 z m 0,-1.0583333 H 7.9375 V 6.3499996 H 6.8791665 Z m 0,-1.0583333 V 5.2916663 H 5.8208332 v 1.0583333 z m 1.0583335,0 H 8.995833 V 5.2916663 H 7.9375 Z m 1.058333,0 v 1.0583333 h 1.058334 V 6.3499996 Z m 1.058334,0 H 11.1125 V 5.2916663 h -1.058333 z m 1.058333,0 v 1.0583333 h 1.058333 V 6.3499996 Z m 1.058333,0 h 1.058333 V 5.2916663 h -1.058333 z m 0,1.0583333 v 1.0583333 h 1.058333 V 7.4083329 Z m 0,1.0583333 H 11.1125 v 1.0583333 h 1.058333 z m 0,1.0583333 v 1.0583335 h 1.058333 V 9.5249995 Z m 0,1.0583335 H 11.1125 v 1.058333 h 1.058333 z m 0,1.058333 v 1.058333 h 1.058333 v -1.058333 z m -1.058333,0 h -1.058333 v 1.058333 H 11.1125 Z m -1.058333,0 V 10.583333 H 8.995833 v 1.058333 z m -1.058334,0 H 7.9375 v 1.058333 h 1.058333 z m 0,-1.058333 V 9.5249995 H 7.9375 v 1.0583335 z m 0,-1.0583335 h 1.058334 V 8.4666662 H 8.995833 Z m 0,-1.0583333 V 7.4083329 H 7.9375 v 1.0583333 z m 1.058334,0 H 11.1125 V 7.4083329 h -1.058333 z m 0,1.0583333 V 10.583333 H 11.1125 V 9.5249995 Z" />
      <path
         id="rect12236"
         style="fill:#f37d5c;fill-opacity:1;stroke:none;stroke-width:0.568056;stroke-linecap:round;stroke-linejoin:round;stroke-miterlimit:1.8;stroke-dasharray:none;stroke-opacity:1;paint-order:stroke fill markers;stop-color:#000000"
         d="M 8.689392,4.7632796 A 0.79374999,0.79374999 0 0 0 8.586556,4.7751656 0.79374999,0.79374999 0 0 0 8.07651,5.1069283 0.79374999,0.79374999 0 0 0 8.281665,6.2107369 l 1.741496,1.1973429 H 7.143233 A 0.79374999,0.79374999 0 0 0 6.35,8.2028633 0.79374999,0.79374999 0 0 0 7.143233,8.9955797 H 8.953976 L 7.000606,10.167601 A 0.79374999,0.79374999 0 0 0 6.727238,11.25539 0.79374999,0.79374999 0 0 0 7.817094,11.529275 L 9.035108,10.79857 c 0.227441,1.382528 1.42225,2.43086 2.871142,2.43086 1.612369,0 2.910417,-1.298048 2.910417,-2.910417 0,-1.0225246 -0.521974,-1.9187809 -1.315165,-2.4375771 -3.22e-4,-2.102e-4 -7.13e-4,-3.067e-4 -0.001,-5.168e-4 a 0.79374999,0.79374999 0 0 0 -0.08578,-0.06873 L 9.180318,4.9022892 A 0.79374999,0.79374999 0 0 0 8.689392,4.7632796 Z" />
      <path
         id="rect12236-8"
         style="fill:#ffb8a3;fill-opacity:1;stroke:none;stroke-width:0.516415;stroke-linecap:round;stroke-linejoin:round;stroke-miterlimit:1.8;stroke-dasharray:none;stroke-opacity:1;paint-order:stroke fill markers;stop-color:#000000"
         d="m 8.773108,5.0294132 a 0.52916503,0.52916503 0 0 0 -0.47749,0.2278931 0.52916503,0.52916503 0 0 0 0.136426,0.7348389 l 2.445328,1.681551 H 7.143233 A 0.52916503,0.52916503 0 0 0 6.61355,8.2028629 0.52916503,0.52916503 0 0 0 7.143233,8.7320295 h 2.64325 c -0.0029,0.00385 -0.0054,0.00802 -0.0083,0.011886 L 7.127699,10.400145 a 0.52916503,0.52916503 0 0 0 -0.168466,0.728638 0.52916503,0.52916503 0 0 0 0.728638,0.167948 l 1.572514,-0.982886 c -3e-6,0.0017 0,0.0034 0,0.0052 0,1.465789 1.180045,2.645834 2.645833,2.645834 1.465789,0 2.645833,-1.180045 2.645833,-2.645834 0,-0.9385061 -0.483681,-1.7598349 -1.216463,-2.2293208 a 0.52916503,0.52916503 0 0 0 -10e-4,-0.00103 0.52916503,0.52916503 0 0 0 -0.07028,-0.057878 L 9.032008,5.1208863 A 0.52916503,0.52916503 0 0 0 8.773109,5.0294193 Z" />
      <path
         id="rect12559"
         style="fill:#a3b7cc;stroke-width:1.41111;stroke-linecap:round;stroke-linejoin:round;stroke-miterlimit:1.8;paint-order:stroke fill markers;stop-color:#000000"
         d="m 11.906251,8.2023463 c 1.172633,0 2.116666,0.9440333 2.116666,2.1166667 0,1.172633 -0.944033,2.116666 -2.116666,2.116666 -1.172634,0 -2.116667,-0.944033 -2.116667,-2.116666 0,-1.1726334 0.944033,-2.1166667 2.116667,-2.1166667 z" />
      <path
         id="rect12559-9"
         style="fill:#e8f6ff;stroke-width:1.23472;stroke-linecap:round;stroke-linejoin:round;stroke-miterlimit:1.8;paint-order:stroke fill markers;stop-color:#000000"
         d="m 11.906251,8.4669289 c 1.026054,0 1.852083,0.8260292 1.852083,1.8520831 0,1.026054 -0.826029,1.852083 -1.852083,1.852083 -1.026054,0 -1.852083,-0.826029 -1.852083,-1.852083 0,-1.0260539 0.826029,-1.8520831 1.852083,-1.8520831 z" />
      <path
         id="rect12559-9-6"
         style="fill:#4f92db;stroke-width:0.881942;stroke-linecap:round;stroke-linejoin:round;stroke-miterlimit:1.8;paint-order:stroke fill markers;stop-color:#000000"
         d="m 11.906249,8.9960961 c 0.732896,0 1.322917,0.5900208 1.322917,1.3229169 0,0.732896 -0.590021,1.322916 -1.322917,1.322916 -0.732895,0 -1.322916,-0.59002 -1.322916,-1.322916 0,-0.7328961 0.590021,-1.3229169 1.322916,-1.3229169 z" />
      <path
         id="rect12559-9-6-4"
         style="fill:#5ac0ff;stroke-width:0.705553;stroke-linecap:round;stroke-linejoin:round;stroke-miterlimit:1.8;paint-order:stroke fill markers;stop-color:#000000"
         d="m 11.90625,9.2606792 c 0.586316,0 1.058333,0.4720167 1.058333,1.0583328 0,0.586317 -0.472017,1.058334 -1.058333,1.058334 -0.586317,0 -1.058334,-0.472017 -1.058334,-1.058334 0,-0.5863161 0.472017,-1.0583328 1.058334,-1.0583328 z" />
    </g>
  </g>
</svg>
