<?xml version="1.0" encoding="UTF-8" standalone="no"?>
<!-- Created with Inkscape (http://www.inkscape.org/) -->

<svg
   width="64"
   height="64"
   viewBox="0 0 16.933333 16.933333"
   version="1.1"
   id="svg1399"
   inkscape:version="1.2.1 (9c6d41e410, 2022-07-14)"
   sodipodi:docname="application-x-smb-server.svg"
   xml:space="preserve"
   xmlns:inkscape="http://www.inkscape.org/namespaces/inkscape"
   xmlns:sodipodi="http://sodipodi.sourceforge.net/DTD/sodipodi-0.dtd"
   xmlns="http://www.w3.org/2000/svg"
   xmlns:svg="http://www.w3.org/2000/svg"
   xmlns:rdf="http://www.w3.org/1999/02/22-rdf-syntax-ns#"
   xmlns:cc="http://creativecommons.org/ns#"
   xmlns:dc="http://purl.org/dc/elements/1.1/"><defs
     id="defs1393"><style
       type="text/css"
       id="current-color-scheme">
      .ColorScheme-Text {
        color:#122036;
      }
      </style><style
       type="text/css"
       id="current-color-scheme-2">
      .ColorScheme-Text {
        color:#122036;
      }
      </style><style
       type="text/css"
       id="current-color-scheme-0">
      .ColorScheme-Text {
        color:#122036;
      }
      </style><style
       id="current-color-scheme-5"
       type="text/css">
      .ColorScheme-Text {
        color:#122036;
      }
      </style><style
       id="current-color-scheme-2-3"
       type="text/css">
      .ColorScheme-Text {
        color:#122036;
      }
      </style><style
       id="current-color-scheme-0-5"
       type="text/css">
      .ColorScheme-Text {
        color:#122036;
      }
      </style><style
       id="current-color-scheme-3"
       type="text/css">
      .ColorScheme-Text {
        color:#122036;
      }
      </style><style
       id="current-color-scheme-2-6"
       type="text/css">
      .ColorScheme-Text {
        color:#122036;
      }
      </style><style
       id="current-color-scheme-0-7"
       type="text/css">
      .ColorScheme-Text {
        color:#122036;
      }
      </style><style
       id="current-color-scheme-5-5"
       type="text/css">
      .ColorScheme-Text {
        color:#122036;
      }
      </style></defs><sodipodi:namedview
     id="base"
     pagecolor="#ffffff"
     bordercolor="#666666"
     borderopacity="1.0"
     inkscape:pageopacity="0.0"
     inkscape:pageshadow="2"
     inkscape:zoom="31.678384"
     inkscape:cx="47.335117"
     inkscape:cy="49.181802"
     inkscape:document-units="px"
     inkscape:current-layer="layer1"
     showgrid="true"
     inkscape:showpageshadow="false"
     units="px"
     inkscape:window-width="2160"
     inkscape:window-height="1330"
     inkscape:window-x="0"
     inkscape:window-y="0"
     inkscape:window-maximized="1"
     inkscape:pagecheckerboard="0"
     inkscape:deskcolor="#d1d1d1"><inkscape:grid
       type="xygrid"
       id="grid840" /></sodipodi:namedview><metadata
     id="metadata1396"><rdf:RDF><cc:Work
         rdf:about=""><dc:format>image/svg+xml</dc:format><dc:type
           rdf:resource="http://purl.org/dc/dcmitype/StillImage" /></cc:Work></rdf:RDF></metadata><g
     inkscape:label="Capa 1"
     inkscape:groupmode="layer"
     id="layer1"
     transform="translate(0,-280.06672)"><g
       transform="matrix(0.26458333,0,0,0.26458333,-6.0000001e-8,213.74891)"
       id="layer1-6"
       inkscape:label="Capa 1"><g
         transform="translate(38,-6)"
         id="g1769"><path
           style="opacity:1;vector-effect:none;fill:#a3b7cc;fill-opacity:1;stroke:none;stroke-width:2;stroke-linecap:round;stroke-linejoin:round;stroke-miterlimit:4;stroke-dasharray:none;stroke-dashoffset:0;stroke-opacity:1"
           d="m 55,-7 c -2.216,0 -4,1.784 -4,4 v 14 4 36 c 0,2.216 1.784,4 4,4 h 46 c 2.216,0 4,-1.784 4,-4 V 15 11 10 -3 c 0,-2.216 -1.784,-4 -4,-4 z"
           transform="translate(-84,264.64999)"
           id="rect971"
           inkscape:connector-curvature="0" /><path
           style="opacity:1;vector-effect:none;fill:#eaeef2;fill-opacity:1;stroke:none;stroke-width:2;stroke-linecap:round;stroke-linejoin:round;stroke-miterlimit:4;stroke-dasharray:none;stroke-dashoffset:0;stroke-opacity:1"
           d="m 55,-6 c -1.662,0 -3,1.338 -3,3 v 12 2 3 37 c 0,1.662 1.338,3 3,3 h 46 c 1.662,0 3,-1.338 3,-3 V 14 11 9 -3 c 0,-1.662 -1.338,-3 -3,-3 z"
           id="rect971-2"
           inkscape:connector-curvature="0"
           sodipodi:nodetypes="sscccsssscccsss"
           transform="translate(-84,264.64999)" /></g></g><path
       id="rect5971-3"
       style="fill:#fafafa;fill-opacity:1;stroke-width:0.423333;stroke-linecap:round;stroke-linejoin:round;stroke-miterlimit:1.8;paint-order:stroke fill markers;stop-color:#000000"
       d="m 2.3812504,280.59594 c -0.439736,0 -0.79375,0.35401 -0.79375,0.79375 v 0.26458 h 0.044958 1.0133749 v -1.01338 -0.045 z m 0.2645834,1.05833 v 1.05833 h 1.0583333 v -1.05833 z m 1.0583333,0 h 1.0583333 v -1.05833 H 3.7041671 Z m 1.0583333,0 v 1.05833 h 1.0583333 v -1.05833 z m 1.0583333,0 H 6.879167 v -1.05833 H 5.8208337 Z m 1.0583333,0 v 1.05833 h 1.0583334 v -1.05833 z m 1.0583334,0 h 1.0583333 v -1.05833 H 7.9375004 Z m 1.0583333,0 v 1.05833 h 1.0583333 v -1.05833 z m 1.0583333,0 h 1.058334 v -1.05833 h -1.058334 z m 1.058334,0 v 1.05833 h 1.058333 v -1.05833 z m 1.058333,0 h 1.058333 v -1.05833 h -1.058333 z m 1.058333,0 v 1.05833 H 14.2875 v -1.05833 z m 1.058333,0 h 1.013375 0.04496 v -0.26458 c 0,-0.43974 -0.354014,-0.79375 -0.79375,-0.79375 h -0.264584 v 0.045 z m 0,1.05833 v 1.05834 h 1.058334 v -1.05834 z m 0,1.05834 h -1.058333 v 1.05833 H 14.2875 Z m 0,1.05833 v 1.05833 h 1.058334 v -1.05833 z m 0,1.05833 h -1.058333 v 1.05834 H 14.2875 Z m 0,1.05834 v 1.05833 h 1.058334 v -1.05833 z m 0,1.05833 h -1.058333 v 1.05833 H 14.2875 Z m 0,1.05833 v 1.05834 h 1.058334 v -1.05834 z m 0,1.05834 h -1.058333 v 1.05833 H 14.2875 Z m 0,1.05833 v 1.05833 h 1.058334 v -1.05833 z m 0,1.05833 h -1.058333 v 1.05834 H 14.2875 Z m 0,1.05834 v 1.05833 h 1.058334 v -1.05833 z m 0,1.05833 h -1.058333 v 1.05833 H 14.2875 Z m 0,1.05833 v 1.01338 0.045 h 0.264584 c 0.439736,0 0.79375,-0.35402 0.79375,-0.79375 v -0.26459 h -0.04496 z m -1.058333,0 h -1.058333 v 1.05834 h 1.058333 z m -1.058333,0 v -1.05833 h -1.058333 v 1.05833 z m -1.058333,0 h -1.058334 v 1.05834 h 1.058334 z m -1.058334,0 v -1.05833 H 8.9958337 v 1.05833 z m -1.0583333,0 H 7.9375004 v 1.05834 h 1.0583333 z m -1.0583333,0 v -1.05833 H 6.879167 v 1.05833 z m -1.0583334,0 H 5.8208337 v 1.05834 H 6.879167 Z m -1.0583333,0 v -1.05833 H 4.7625004 v 1.05833 z m -1.0583333,0 H 3.7041671 v 1.05834 h 1.0583333 z m -1.0583333,0 v -1.05833 H 2.6458338 v 1.05833 z m -1.0583333,0 H 1.6324589 1.5875004 v 0.26459 c 0,0.43973 0.354014,0.79375 0.79375,0.79375 h 0.2645834 v -0.045 z m 0,-1.05833 v -1.05833 H 1.5875004 v 1.05833 z m 0,-1.05833 H 3.7041671 V 292.2376 H 2.6458338 Z m 0,-1.05834 v -1.05833 H 1.5875004 v 1.05833 z m 0,-1.05833 h 1.0583333 v -1.05833 H 2.6458338 Z m 0,-1.05833 V 289.0626 H 1.5875004 v 1.05834 z m 0,-1.05834 h 1.0583333 v -1.05833 H 2.6458338 Z m 0,-1.05833 v -1.05833 H 1.5875004 v 1.05833 z m 0,-1.05833 H 3.7041671 V 285.8876 H 2.6458338 Z m 0,-1.05834 v -1.05833 H 1.5875004 v 1.05833 z m 0,-1.05833 h 1.0583333 v -1.05833 H 2.6458338 Z m 0,-1.05833 V 282.7126 H 1.5875004 v 1.05834 z m 1.0583333,0 H 4.7625004 V 282.7126 H 3.7041671 Z m 1.0583333,0 v 1.05833 h 1.0583333 v -1.05833 z m 1.0583333,0 H 6.879167 V 282.7126 H 5.8208337 Z m 1.0583333,0 v 1.05833 h 1.0583334 v -1.05833 z m 1.0583334,0 H 8.9958337 V 282.7126 H 7.9375004 Z m 1.0583333,0 v 1.05833 h 1.0583333 v -1.05833 z m 1.0583333,0 h 1.058334 v -1.05834 h -1.058334 z m 1.058334,0 v 1.05833 h 1.058333 v -1.05833 z m 1.058333,0 h 1.058333 v -1.05834 h -1.058333 z m 0,1.05833 v 1.05833 h 1.058333 v -1.05833 z m 0,1.05833 h -1.058333 v 1.05834 h 1.058333 z m 0,1.05834 v 1.05833 h 1.058333 v -1.05833 z m 0,1.05833 h -1.058333 v 1.05833 h 1.058333 z m 0,1.05833 v 1.05834 h 1.058333 v -1.05834 z m 0,1.05834 h -1.058333 v 1.05833 h 1.058333 z m 0,1.05833 v 1.05833 h 1.058333 v -1.05833 z m 0,1.05833 h -1.058333 v 1.05834 h 1.058333 z m 0,1.05834 v 1.05833 h 1.058333 v -1.05833 z m -1.058333,0 h -1.058334 v 1.05833 h 1.058334 z m -1.058334,0 V 292.2376 H 8.9958337 v 1.05834 z m -1.0583333,0 H 7.9375004 v 1.05833 h 1.0583333 z m -1.0583333,0 V 292.2376 H 6.879167 v 1.05834 z m -1.0583334,0 H 5.8208337 v 1.05833 H 6.879167 Z m -1.0583333,0 V 292.2376 H 4.7625004 v 1.05834 z m -1.0583333,0 H 3.7041671 v 1.05833 h 1.0583333 z m 0,-1.05834 v -1.05833 H 3.7041671 v 1.05833 z m 0,-1.05833 h 1.0583333 v -1.05833 H 4.7625004 Z m 0,-1.05833 V 289.0626 H 3.7041671 v 1.05834 z m 0,-1.05834 h 1.0583333 v -1.05833 H 4.7625004 Z m 0,-1.05833 v -1.05833 H 3.7041671 v 1.05833 z m 0,-1.05833 H 5.8208337 V 285.8876 H 4.7625004 Z m 0,-1.05834 v -1.05833 H 3.7041671 v 1.05833 z m 1.0583333,0 H 6.879167 v -1.05833 H 5.8208337 Z m 1.0583333,0 v 1.05834 h 1.0583334 v -1.05834 z m 1.0583334,0 h 1.0583333 v -1.05833 H 7.9375004 Z m 1.0583333,0 v 1.05834 h 1.0583333 v -1.05834 z m 1.0583333,0 h 1.058334 v -1.05833 h -1.058334 z m 0,1.05834 v 1.05833 h 1.058334 v -1.05833 z m 0,1.05833 H 8.9958337 v 1.05833 h 1.0583333 z m 0,1.05833 v 1.05834 h 1.058334 v -1.05834 z m 0,1.05834 H 8.9958337 v 1.05833 h 1.0583333 z m 0,1.05833 v 1.05833 h 1.058334 v -1.05833 z m -1.0583333,0 H 7.9375004 v 1.05833 h 1.0583333 z m -1.0583333,0 v -1.05833 H 6.879167 v 1.05833 z m -1.0583334,0 H 5.8208337 v 1.05833 H 6.879167 Z m 0,-1.05833 V 289.0626 H 5.8208337 v 1.05834 z m 0,-1.05834 h 1.0583334 v -1.05833 H 6.879167 Z m 0,-1.05833 v -1.05833 H 5.8208337 v 1.05833 z m 1.0583334,0 h 1.0583333 v -1.05833 H 7.9375004 Z m 0,1.05833 v 1.05834 h 1.0583333 v -1.05834 z" /><g
       id="g2206"
       transform="matrix(0.26458333,0,0,0.26458333,9.260416,206.60516)"
       style="fill:#e6f9ff;fill-opacity:1"><path
         id="rect843"
         style="opacity:1;fill:#8aa3be;fill-opacity:1;stroke:none;stroke-width:2.39314;stroke-linecap:round;stroke-linejoin:round;stroke-miterlimit:4;stroke-dasharray:none;stroke-opacity:1"
         d="m -15.999998,294.64999 c -1.107997,0 -2,0.892 -2,2 v 26 c 0,1.108 0.892003,2 2,2 h 26 c 1.107998,0 2,-0.892 2,-2 v -26 c 0,-1.108 -0.892002,-2 -2,-2 z m 4,6 H 6.0000017 c 0.5539988,0 1,0.446 1,1 v 2 c 0.5539988,0 1,0.446 1,1 v 1 c 0,0.554 -0.4460012,1 -1,1 v 3 c 0.5539988,0 1,0.446 1,1 v 1 c 0,0.554 -0.4460012,1 -1,1 v 4 c 0,0.554 -0.4460012,1 -1,1 h -4 v 1 c 0,0.554 -0.446003,1 -1,1 h -1.99999998 c 0,0.554 -0.44600102,1 -1.00000002,1 h -2 c -0.5539988,0 -1,-0.446 -1,-1 h -1.9999999 c -0.553997,0 -1,-0.446 -1,-1 v -1 h -3.9999998 c -0.554,0 -1,-0.446 -1,-1 v -4 c -0.554,0 -1,-0.446 -1,-1 v -1 c 0,-0.554 0.446,-1 1,-1 v -3 c -0.554,0 -1,-0.446 -1,-1 v -1 c 0,-0.554 0.446,-1 1,-1 v -2 c 0,-0.554 0.446,-1 1,-1 z m 2.9999998,3 c -0.5539995,0 -1,0.446 -1,1 v 5 c 0,0.554 0.4460005,1 1,1 0.5539994,0 1,-0.446 1,-1 v -5 c 0,-0.554 -0.4460006,-1 -1,-1 z m 3.9999999,0 c -0.5539994,0 -0.9999999,0.446 -0.9999999,1 v 5 c 0,0.554 0.4460005,1 0.9999999,1 0.5539995,0 1,-0.446 1,-1 v -5 c 0,-0.554 -0.4460005,-1 -1,-1 z m 4.00000002,0 c -0.55399942,0 -1.00000002,0.446 -1.00000002,1 v 5 c 0,0.554 0.4460006,1 1.00000002,1 0.55399945,0 0.9999999925985,-0.446 0.9999999925985,-1 v -5 c 0,-0.554 -0.4460005425985,-1 -0.9999999925985,-1 z m 3.99999998,0 c -0.5539995,0 -1,0.446 -1,1 v 5 c 0,0.554 0.4460005,1 1,1 0.5539994,0 1,-0.446 1,-1 v -5 c 0,-0.554 -0.4460006,-1 -1,-1 z" /></g><g
       id="g2217"
       transform="matrix(0.26458333,0,0,0.26458333,24.341664,217.71766)"><path
         id="rect875-2"
         d="m -52.999991,273.64999 h 7 v 7 h -7 z"
         style="fill:#c74343;fill-opacity:1;stroke:none;stroke-width:4;stroke-linecap:round;stroke-linejoin:round;stroke-miterlimit:4;stroke-dasharray:none;stroke-dashoffset:0;stroke-opacity:1"
         inkscape:connector-curvature="0" /><path
         id="rect875-2-7"
         d="m -45.999991,273.64999 h 7 v 7 h -7 z"
         style="fill:#5e9c76;fill-opacity:1;stroke:none;stroke-width:4;stroke-linecap:round;stroke-linejoin:round;stroke-miterlimit:4;stroke-dasharray:none;stroke-dashoffset:0;stroke-opacity:1"
         inkscape:connector-curvature="0" /><path
         id="rect875-2-0"
         d="m -52.999991,280.64999 h 7 v 7 h -7 z"
         style="fill:#287bc2;fill-opacity:1;stroke:none;stroke-width:4;stroke-linecap:round;stroke-linejoin:round;stroke-miterlimit:4;stroke-dasharray:none;stroke-dashoffset:0;stroke-opacity:1"
         inkscape:connector-curvature="0" /><path
         id="rect875-2-7-9"
         d="m -45.999991,280.64999 h 7 v 7 h -7 z"
         style="fill:#ffb851;fill-opacity:0.960784;stroke:none;stroke-width:4;stroke-linecap:round;stroke-linejoin:round;stroke-miterlimit:4;stroke-dasharray:none;stroke-dashoffset:0;stroke-opacity:1"
         inkscape:connector-curvature="0" /><path
         id="rect875-2-3"
         d="m -51.999991,274.64999 h 5 v 5 h -5 z"
         style="fill:#f78f8f;fill-opacity:1;stroke:none;stroke-width:4;stroke-linecap:round;stroke-linejoin:round;stroke-miterlimit:4;stroke-dasharray:none;stroke-dashoffset:0;stroke-opacity:1"
         inkscape:connector-curvature="0" /><path
         id="rect875-2-3-6"
         d="m -44.999991,274.64999 h 5 v 5 h -5 z"
         style="fill:#bae0bd;fill-opacity:1;stroke:none;stroke-width:4;stroke-linecap:round;stroke-linejoin:round;stroke-miterlimit:4;stroke-dasharray:none;stroke-dashoffset:0;stroke-opacity:1"
         inkscape:connector-curvature="0" /><path
         id="rect875-2-3-0"
         d="m -51.999991,281.64999 h 5 v 5 h -5 z"
         style="fill:#78c1ff;fill-opacity:1;stroke:none;stroke-width:4;stroke-linecap:round;stroke-linejoin:round;stroke-miterlimit:4;stroke-dasharray:none;stroke-dashoffset:0;stroke-opacity:1"
         inkscape:connector-curvature="0" /><path
         id="rect875-2-3-62"
         d="m -44.999991,281.64999 h 5 v 5 h -5 z"
         style="fill:#ffeea3;fill-opacity:1;stroke:none;stroke-width:4;stroke-linecap:round;stroke-linejoin:round;stroke-miterlimit:4;stroke-dasharray:none;stroke-dashoffset:0;stroke-opacity:1"
         inkscape:connector-curvature="0" /></g></g></svg>
