<?xml version="1.0" encoding="UTF-8" standalone="no"?>
<!-- Created with Inkscape (http://www.inkscape.org/) -->

<svg
   width="64"
   height="64"
   viewBox="0 0 16.933333 16.933333"
   version="1.1"
   id="svg5"
   inkscape:version="1.2.1 (9c6d41e410, 2022-07-14)"
   sodipodi:docname="application-pkcs7-mime.svg"
   xmlns:inkscape="http://www.inkscape.org/namespaces/inkscape"
   xmlns:sodipodi="http://sodipodi.sourceforge.net/DTD/sodipodi-0.dtd"
   xmlns="http://www.w3.org/2000/svg"
   xmlns:svg="http://www.w3.org/2000/svg">
  <sodipodi:namedview
     id="namedview7"
     pagecolor="#ffffff"
     bordercolor="#000000"
     borderopacity="0.25"
     inkscape:showpageshadow="false"
     inkscape:pageopacity="0.0"
     inkscape:pagecheckerboard="0"
     inkscape:deskcolor="#d1d1d1"
     inkscape:document-units="px"
     showgrid="true"
     inkscape:zoom="14.481547"
     inkscape:cx="40.15455"
     inkscape:cy="31.833616"
     inkscape:window-width="2160"
     inkscape:window-height="1330"
     inkscape:window-x="0"
     inkscape:window-y="0"
     inkscape:window-maximized="1"
     inkscape:current-layer="layer1">
    <inkscape:grid
       type="xygrid"
       id="grid290"
       originx="0"
       originy="0" />
  </sodipodi:namedview>
  <defs
     id="defs2" />
  <g
     inkscape:label="Capa 1"
     inkscape:groupmode="layer"
     id="layer1">
    <g
       id="g5167"
       transform="translate(-2.1166675,1.0583315)">
      <path
         inkscape:connector-curvature="0"
         style="vector-effect:none;fill:#36404d;fill-opacity:1;stroke:none;stroke-width:0.529167;stroke-linecap:round;stroke-linejoin:round;stroke-miterlimit:4;stroke-dasharray:none;stroke-dashoffset:0;stroke-opacity:1"
         d="m 4.4979169,-0.79375 c -0.5863169,0 -1.0583329,0.47202 -1.0583329,1.05833 v 3.70417 1.05833 9.525 c 0,0.58632 0.472016,1.05834 1.0583329,1.05834 H 16.66875 c 0.586317,0 1.058334,-0.47202 1.058334,-1.05834 V 5.02708 3.96875 3.70417 0.26458 c 0,-0.58631 -0.472017,-1.05833 -1.058334,-1.05833 z"
         id="rect971" />
      <path
         id="path1498"
         d="M 4.7625002,-0.52917 V 0 0.52917 H 5.8208336 V -0.52917 Z M 5.8208336,0.52917 V 1.5875 H 4.7625002 V 0.52917 H 4.233334 3.704167 v 2.91041 0.52917 0.79375 9.525 H 4.233334 4.7625002 V 13.22917 H 5.8208336 V 14.2875 H 6.8791669 V 13.22917 H 7.9375002 V 14.2875 H 8.9958335 V 13.22917 H 10.054167 V 14.2875 H 11.1125 v -1.05833 h 1.058333 v 1.05833 h 1.058334 V 13.22917 H 14.2875 v 1.05833 h 1.058334 v -1.05833 h 1.058333 V 14.2875 H 16.933334 17.4625 V 4.7625 3.96875 3.43958 0.52917 H 16.933334 16.404167 V 1.5875 H 15.345834 V 0.52917 H 14.2875 V 1.5875 H 13.229167 V 0.52917 H 12.170833 V 1.5875 H 11.1125 V 0.52917 H 10.054167 V 1.5875 H 8.9958335 V 0.52917 H 7.9375002 V 1.5875 H 6.8791669 V 0.52917 Z m 1.0583333,0 H 7.9375002 V -0.52917 H 6.8791669 Z m 2.1166666,0 H 10.054167 V -0.52917 H 8.9958335 Z m 2.1166665,0 h 1.058333 V -0.52917 H 11.1125 Z m 2.116667,0 H 14.2875 v -1.05834 h -1.058333 z m 2.116667,0 h 1.058333 V 0 -0.52917 h -1.058333 z m 1.058333,13.75833 h -1.058333 v 1.05833 h 1.058333 v -0.52916 z m -2.116667,0 h -1.058333 v 1.05833 H 14.2875 Z m -2.116667,0 H 11.1125 v 1.05833 h 1.058333 z m -2.116666,0 H 8.9958335 v 1.05833 h 1.0583335 z m -2.1166668,0 H 6.8791669 v 1.05833 h 1.0583333 z m -2.1166666,0 H 4.7625002 v 0.52917 0.52916 h 1.0583334 z"
         style="vector-effect:none;fill:#4b6477;fill-opacity:1;stroke:none;stroke-width:0.529167;stroke-linecap:round;stroke-linejoin:round;stroke-miterlimit:4;stroke-dasharray:none;stroke-dashoffset:0;stroke-opacity:1"
         inkscape:connector-curvature="0" />
      <path
         id="path2564"
         style="fill:#e0eaf1;fill-opacity:1;stroke-width:0.529167;stroke-linecap:square;stroke-miterlimit:1.8;paint-order:stroke fill markers;stop-color:#000000"
         d="m 11.90625,3.70417 c -1.31921,0 -2.3812498,1.06204 -2.3812498,2.38125 0,0.38562 0.090789,0.74916 0.252181,1.07073 l -0.252181,0.25218 v 0.79375 h -0.79375 v 0.79375 h -0.79375 v 0.79375 h -0.79375 L 6.8791669,10.05417 V 11.1125 H 7.9375002 L 10.835515,8.21449 c 0.321569,0.16139 0.685114,0.25218 1.070735,0.25218 1.31921,0 2.38125,-1.06204 2.38125,-2.38125 0,-1.31921 -1.06204,-2.38125 -2.38125,-2.38125 z m 0.529167,1.05833 c 0.439735,0 0.79375,0.35402 0.79375,0.79375 0,0.43974 -0.354015,0.79375 -0.79375,0.79375 -0.439735,0 -0.79375,-0.35401 -0.79375,-0.79375 0,-0.43973 0.354015,-0.79375 0.79375,-0.79375 z" />
    </g>
  </g>
</svg>
