<?xml version="1.0" encoding="UTF-8" standalone="no"?>
<!-- Created with Inkscape (http://www.inkscape.org/) -->

<svg
   width="64"
   height="64"
   viewBox="0 0 16.933333 16.933333"
   version="1.1"
   id="svg5"
   inkscape:version="1.2.1 (9c6d41e410, 2022-07-14)"
   sodipodi:docname="application-x-python-bytecode.svg"
   xml:space="preserve"
   xmlns:inkscape="http://www.inkscape.org/namespaces/inkscape"
   xmlns:sodipodi="http://sodipodi.sourceforge.net/DTD/sodipodi-0.dtd"
   xmlns="http://www.w3.org/2000/svg"
   xmlns:svg="http://www.w3.org/2000/svg"><sodipodi:namedview
     id="namedview7"
     pagecolor="#ffffff"
     bordercolor="#000000"
     borderopacity="0.25"
     inkscape:showpageshadow="false"
     inkscape:pageopacity="0.0"
     inkscape:pagecheckerboard="0"
     inkscape:deskcolor="#d1d1d1"
     inkscape:document-units="px"
     showgrid="true"
     inkscape:zoom="10.24"
     inkscape:cx="37.841797"
     inkscape:cy="23.535156"
     inkscape:window-width="2160"
     inkscape:window-height="1330"
     inkscape:window-x="0"
     inkscape:window-y="0"
     inkscape:window-maximized="1"
     inkscape:current-layer="layer1"><inkscape:grid
       type="xygrid"
       id="grid290"
       originx="0"
       originy="0" /></sodipodi:namedview><defs
     id="defs2" /><g
     inkscape:label="Capa 1"
     inkscape:groupmode="layer"
     id="layer1"><g
       id="g25007"
       transform="translate(-1.3229165,-0.26457906)"><g
         transform="matrix(0.26458333,0,0,0.26458333,11.377083,-67.64073)"
         id="g1769"><path
           sodipodi:nodetypes="sssssssss"
           inkscape:connector-curvature="0"
           style="opacity:1;fill:#36404d;fill-opacity:1;stroke:none;stroke-width:2;stroke-linecap:round;stroke-linejoin:round;stroke-miterlimit:4;stroke-dasharray:none;stroke-dashoffset:0;stroke-opacity:1"
           d="m -29,257.64999 h 46 c 2.216,0 4,1.784 4,4 v 54 c 0,2.216 -1.784,4 -4,4 h -46 c -2.216,0 -4,-1.784 -4,-4 v -54 c 0,-2.216 1.784,-4 4,-4 z"
           id="rect971" /><path
           sodipodi:nodetypes="sssssssss"
           inkscape:connector-curvature="0"
           style="opacity:1;fill:#4b6477;fill-opacity:1;stroke:none;stroke-width:2;stroke-linecap:round;stroke-linejoin:round;stroke-miterlimit:4;stroke-dasharray:none;stroke-dashoffset:0;stroke-opacity:1"
           d="m -29,258.64999 h 46 c 1.662,0 3,1.338 3,3 v 54 c 0,1.662 -1.338,3 -3,3 h -46 c -1.662,0 -3,-1.338 -3,-3 v -54 c 0,-1.662 1.338,-3 3,-3 z"
           id="rect971-2" /></g><path
         id="path1121"
         d="M 4.497917,3.17499 V 3.70416 H 6.6145836 V 3.17499 Z"
         style="fill:#6bb1ff;fill-opacity:1;stroke:none;stroke-width:0.529167;stroke-linecap:round;stroke-linejoin:round;stroke-miterlimit:4;stroke-dasharray:none;stroke-dashoffset:0;stroke-opacity:1"
         inkscape:connector-curvature="0" /><path
         id="path1119"
         d="m 7.1437503,3.17499 v 0.52917 h 0.79375 V 3.17499 Z"
         style="fill:#6bb1ff;fill-opacity:1;stroke:none;stroke-width:0.529167;stroke-linecap:round;stroke-linejoin:round;stroke-miterlimit:4;stroke-dasharray:none;stroke-dashoffset:0;stroke-opacity:1"
         inkscape:connector-curvature="0" /><path
         id="path1117"
         d="M 8.4666669,3.17499 V 3.70416 H 9.5250002 V 3.17499 Z"
         style="fill:#ffeba0;fill-opacity:1;stroke:none;stroke-width:0.529167;stroke-linecap:round;stroke-linejoin:round;stroke-miterlimit:4;stroke-dasharray:none;stroke-dashoffset:0;stroke-opacity:1"
         inkscape:connector-curvature="0" /><path
         id="path1115"
         d="m 10.054167,3.17499 v 0.52917 h 2.38125 V 3.17499 Z"
         style="fill:#6bb1ff;fill-opacity:1;stroke:none;stroke-width:0.529167;stroke-linecap:round;stroke-linejoin:round;stroke-miterlimit:4;stroke-dasharray:none;stroke-dashoffset:0;stroke-opacity:1"
         inkscape:connector-curvature="0" /><path
         id="path1113"
         d="M 4.497917,4.23333 V 4.76249 H 5.5562503 V 4.23333 Z"
         style="fill:#ffeba0;fill-opacity:1;stroke:none;stroke-width:0.529167;stroke-linecap:round;stroke-linejoin:round;stroke-miterlimit:4;stroke-dasharray:none;stroke-dashoffset:0;stroke-opacity:1"
         inkscape:connector-curvature="0" /><path
         id="path1111"
         d="M 6.085417,4.23333 V 4.76249 H 8.2020836 V 4.23333 Z"
         style="fill:#6bb1ff;fill-opacity:1;stroke:none;stroke-width:0.529167;stroke-linecap:round;stroke-linejoin:round;stroke-miterlimit:4;stroke-dasharray:none;stroke-dashoffset:0;stroke-opacity:1"
         inkscape:connector-curvature="0" /><path
         id="path1109"
         d="m 8.7312502,4.23333 v 0.52916 h 0.2645834 1.0583334 0.529166 1.5875 V 4.23333 h -1.5875 -0.529166 -1.0583334 z"
         style="fill:#ffeba0;fill-opacity:1;stroke:none;stroke-width:0.529167;stroke-linecap:round;stroke-linejoin:round;stroke-miterlimit:4;stroke-dasharray:none;stroke-dashoffset:0;stroke-opacity:1"
         inkscape:connector-curvature="0" /><path
         id="path1107"
         d="m 4.497917,5.29166 v 0.52917 h 0.79375 V 5.29166 Z"
         style="fill:#ffeba0;fill-opacity:1;stroke:none;stroke-width:0.529167;stroke-linecap:round;stroke-linejoin:round;stroke-miterlimit:4;stroke-dasharray:none;stroke-dashoffset:0;stroke-opacity:1"
         inkscape:connector-curvature="0" /><path
         id="path1105"
         d="M 5.8208336,5.29166 V 5.82083 H 6.8791669 V 5.29166 Z"
         style="fill:#6bb1ff;fill-opacity:1;stroke:none;stroke-width:0.529167;stroke-linecap:round;stroke-linejoin:round;stroke-miterlimit:4;stroke-dasharray:none;stroke-dashoffset:0;stroke-opacity:1"
         inkscape:connector-curvature="0" /><path
         id="path1103"
         d="M 7.4083336,5.29166 V 5.82083 H 9.5250002 V 5.29166 Z"
         style="fill:#ffeba0;fill-opacity:1;stroke:none;stroke-width:0.529167;stroke-linecap:round;stroke-linejoin:round;stroke-miterlimit:4;stroke-dasharray:none;stroke-dashoffset:0;stroke-opacity:1"
         inkscape:connector-curvature="0" /><path
         id="path1101"
         d="M 10.054167,5.29166 V 5.82083 H 10.583333 12.435417 12.7 V 5.29166 h -0.264583 -1.852084 z"
         style="fill:#ffeba0;fill-opacity:1;stroke:none;stroke-width:0.529167;stroke-linecap:round;stroke-linejoin:round;stroke-miterlimit:4;stroke-dasharray:none;stroke-dashoffset:0;stroke-opacity:1"
         inkscape:connector-curvature="0" /><path
         id="path1099"
         d="M 4.497917,6.34999 V 6.87916 H 7.4083336 V 6.34999 Z"
         style="fill:#6bb1ff;fill-opacity:1;stroke:none;stroke-width:0.529167;stroke-linecap:round;stroke-linejoin:round;stroke-miterlimit:4;stroke-dasharray:none;stroke-dashoffset:0;stroke-opacity:1"
         inkscape:connector-curvature="0" /><path
         id="path1097"
         d="M 7.9375003,6.34999 V 6.87916 H 8.4666669 8.9958336 9.5250002 11.90625 12.435417 V 6.34999 H 11.90625 9.5250002 8.9958336 8.4666669 Z"
         style="fill:#ffeba0;fill-opacity:1;stroke:none;stroke-width:0.529167;stroke-linecap:round;stroke-linejoin:round;stroke-miterlimit:4;stroke-dasharray:none;stroke-dashoffset:0;stroke-opacity:1"
         inkscape:connector-curvature="0" /><path
         id="path1095"
         d="M 4.497917,7.40833 V 7.93749 H 5.5562503 V 7.40833 Z"
         style="fill:#ffeba0;fill-opacity:1;stroke:none;stroke-width:0.529167;stroke-linecap:round;stroke-linejoin:round;stroke-miterlimit:4;stroke-dasharray:none;stroke-dashoffset:0;stroke-opacity:1"
         inkscape:connector-curvature="0" /><path
         id="path1093"
         d="M 6.085417,7.40833 V 7.93749 H 8.2020836 8.7312502 10.054167 10.583334 12.170833 12.7 V 7.40833 H 12.170833 10.583334 10.054167 8.7312502 8.2020836 Z"
         style="fill:#6bb1ff;fill-opacity:1;stroke:none;stroke-width:0.529167;stroke-linecap:round;stroke-linejoin:round;stroke-miterlimit:4;stroke-dasharray:none;stroke-dashoffset:0;stroke-opacity:1"
         inkscape:connector-curvature="0" /><path
         id="path1091"
         d="M 4.497917,8.46666 V 8.99583 H 7.4083336 V 8.46666 Z"
         style="fill:#6bb1ff;fill-opacity:1;stroke:none;stroke-width:0.529167;stroke-linecap:round;stroke-linejoin:round;stroke-miterlimit:4;stroke-dasharray:none;stroke-dashoffset:0;stroke-opacity:1"
         inkscape:connector-curvature="0" /><path
         id="path1089"
         d="m 7.9375003,8.46666 v 0.52917 h 0.2645833 0.79375 l 1.0583324,-1.1e-6 v -0.52917 l -1.0583324,1.1e-6 h -0.79375 z"
         style="fill:#ffeba0;fill-opacity:1;stroke:none;stroke-width:0.529167;stroke-linecap:round;stroke-linejoin:round;stroke-miterlimit:4;stroke-dasharray:none;stroke-dashoffset:0;stroke-opacity:1"
         inkscape:connector-curvature="0"
         sodipodi:nodetypes="ccccccccc" /><path
         id="path1087"
         d="m 4.497917,9.52499 v 0.52917 H 5.5562503 V 9.52499 Z"
         style="fill:#ffeba0;fill-opacity:1;stroke:none;stroke-width:0.529167;stroke-linecap:round;stroke-linejoin:round;stroke-miterlimit:4;stroke-dasharray:none;stroke-dashoffset:0;stroke-opacity:1"
         inkscape:connector-curvature="0" /><path
         id="path1085"
         d="m 6.085417,9.52499 v 0.52917 l 1.8520832,10e-6 H 8.4666669 8.9958335 V 9.525 H 8.4666669 7.9375002 Z"
         style="fill:#6bb1ff;fill-opacity:1;stroke:none;stroke-width:0.529167;stroke-linecap:round;stroke-linejoin:round;stroke-miterlimit:4;stroke-dasharray:none;stroke-dashoffset:0;stroke-opacity:1"
         inkscape:connector-curvature="0"
         sodipodi:nodetypes="ccccccccc" /><path
         id="path1083"
         d="m 4.497917,10.58333 v 0.52916 h 2.1166666 v -0.52916 z"
         style="fill:#6bb1ff;fill-opacity:1;stroke:none;stroke-width:0.529167;stroke-linecap:round;stroke-linejoin:round;stroke-miterlimit:4;stroke-dasharray:none;stroke-dashoffset:0;stroke-opacity:1"
         inkscape:connector-curvature="0" /><path
         id="path1081"
         d="m 7.1437503,10.58333 v 0.52916 h 1.0583333 l 0.5291661,6e-6 v -0.529167 l -0.5291661,10e-7 z"
         style="fill:#ffeba0;fill-opacity:1;stroke:none;stroke-width:0.529167;stroke-linecap:round;stroke-linejoin:round;stroke-miterlimit:4;stroke-dasharray:none;stroke-dashoffset:0;stroke-opacity:1"
         inkscape:connector-curvature="0"
         sodipodi:nodetypes="ccccccc" /><path
         id="path1079"
         d="m 4.497917,11.64166 v 0.52917 h 2.9104166 v -0.52917 z"
         style="fill:#6bb1ff;fill-opacity:1;stroke:none;stroke-width:0.529167;stroke-linecap:round;stroke-linejoin:round;stroke-miterlimit:4;stroke-dasharray:none;stroke-dashoffset:0;stroke-opacity:1"
         inkscape:connector-curvature="0" /><path
         id="path1075"
         d="m 4.497917,12.69999 v 0.52917 h 1.0583333 v -0.52917 z"
         style="fill:#6bb1ff;fill-opacity:1;stroke:none;stroke-width:0.529167;stroke-linecap:round;stroke-linejoin:round;stroke-miterlimit:4;stroke-dasharray:none;stroke-dashoffset:0;stroke-opacity:1"
         inkscape:connector-curvature="0" /><path
         id="path1073"
         d="m 6.085417,12.69999 v 0.52917 l 1.0583327,2e-6 H 7.6729164 8.202083 v -0.52917 H 7.6729164 7.1437497 Z"
         style="fill:#ffeba0;fill-opacity:1;stroke:none;stroke-width:0.529167;stroke-linecap:round;stroke-linejoin:round;stroke-miterlimit:4;stroke-dasharray:none;stroke-dashoffset:0;stroke-opacity:1"
         inkscape:connector-curvature="0"
         sodipodi:nodetypes="ccccccccc" /><path
         id="path1071"
         d="m 4.497917,13.75833 v 0.52916 h 2.1166666 v -0.52916 z"
         style="fill:#ffeba0;fill-opacity:1;stroke:none;stroke-width:0.529167;stroke-linecap:round;stroke-linejoin:round;stroke-miterlimit:4;stroke-dasharray:none;stroke-dashoffset:0;stroke-opacity:1"
         inkscape:connector-curvature="0" /><path
         id="rect1001"
         d="m 7.1437503,13.75833 v 0.52916 h 1.0583333 l 0.7937499,10e-6 v -0.52916 l -0.7937499,-10e-6 z"
         style="fill:#6bb1ff;fill-opacity:1;stroke:none;stroke-width:0.529167;stroke-linecap:round;stroke-linejoin:round;stroke-miterlimit:4;stroke-dasharray:none;stroke-dashoffset:0;stroke-opacity:1"
         inkscape:connector-curvature="0"
         sodipodi:nodetypes="ccccccc" /></g><g
       id="g10284"
       transform="matrix(0.26458333,0,0,0.26458333,-2.9099023,-65.524063)"><g
         id="path5320-7"
         transform="matrix(1.4666667,0,0,1.4666667,-30.501817,274.21716)"
         style="fill:#347cce;fill-opacity:1"><path
           id="path9356"
           style="color:#000000;fill:#347cce;fill-opacity:1;stroke:#347cce;stroke-width:1.36364;stroke-linecap:round;stroke-linejoin:round;stroke-miterlimit:1.8;stroke-opacity:1;paint-order:stroke fill markers"
           d="m 54.880949,4.3873613 c -1.510905,0 -2.727272,1.2163667 -2.727272,2.7272727 v 0.6818182 h 0.681818 v -0.00133 h 3.414417 V 7.114634 h 0.0013 v 1.3623047 l -2.733931,0.00133 -0.67516,-0.00133 h -0.743075 c -1.854596,0 -3.347834,1.4932402 -3.347834,3.3478333 v 0.804333 c 0,1.854595 1.493238,3.347833 3.347834,3.347833 h 0.06126 v -2.038796 -0.0067 -0.0067 c 0,-0.07058 0.0037,-0.140379 0.01065,-0.209074 0.0069,-0.06869 0.01709,-0.135942 0.03063,-0.202414 0.01354,-0.06647 0.0308,-0.131843 0.0506,-0.195757 0.0198,-0.06391 0.04219,-0.126748 0.06791,-0.187766 0.02573,-0.06102 0.05391,-0.120659 0.08523,-0.178445 0.03132,-0.05779 0.06597,-0.113574 0.102539,-0.167791 0.03657,-0.05422 0.0757,-0.106827 0.117188,-0.157138 0.04149,-0.05031 0.08444,-0.09909 0.130504,-0.145152 0.04607,-0.04607 0.09484,-0.08902 0.145153,-0.130505 0.05031,-0.04149 0.102921,-0.08062 0.157138,-0.117187 0.05422,-0.03657 0.110005,-0.07122 0.167791,-0.102539 0.05779,-0.03132 0.11743,-0.0595 0.178444,-0.08523 0.06102,-0.02573 0.123853,-0.04811 0.187767,-0.06792 0.06391,-0.0198 0.129284,-0.03707 0.195756,-0.0506 0.06647,-0.01354 0.133721,-0.02369 0.202415,-0.03063 0.06869,-0.0069 0.138494,-0.01065 0.209073,-0.01065 h 2.052113 0.688477 1.356978 c 0.755448,0 1.363636,-0.608188 1.363636,-1.363636 V 9.840575 7.1133023 c 0,-0.064921 -0.0027,-0.1291962 -0.0067,-0.193093 V 7.114634 c 0,-1.510906 -1.216368,-2.7272727 -2.727273,-2.7272727 z"
           sodipodi:nodetypes="sscccccccccsssscccscssssssssssssscsccsscsccss" /></g><path
         id="path9356-6"
         style="color:#000000;fill:#6bb1ff;stroke:none;stroke-width:2.00001;stroke-linecap:round;stroke-linejoin:round;stroke-miterlimit:1.8;stroke-opacity:1;paint-order:stroke fill markers"
         d="m 49.990244,280.65196 c -2.215992,0 -4,1.784 -4,4 v 1 h 1 v -0.002 h 5.007812 v -0.99804 h 0.002 V 286.65 l -4.009766,0.002 -0.990234,-0.002 h -1.089844 c -2.720071,0 -4.910156,2.19009 -4.910156,4.91016 v 1.17969 c 0,2.72006 2.190085,4.91015 4.910156,4.91015 h 0.08984 v -2.99023 -0.01 -0.01 c 0,-0.10352 0.0054,-0.20588 0.01563,-0.30664 0.01012,-0.10074 0.02507,-0.19939 0.04492,-0.29688 0.01986,-0.0975 0.04518,-0.19337 0.07422,-0.28711 0.02904,-0.0937 0.06189,-0.1859 0.09961,-0.27539 0.03774,-0.0895 0.07907,-0.17697 0.125,-0.26172 0.04594,-0.0848 0.09676,-0.16658 0.15039,-0.24609 0.05364,-0.0795 0.111026,-0.15668 0.171875,-0.23047 0.06085,-0.0738 0.123846,-0.14533 0.191406,-0.21289 0.06757,-0.0676 0.139098,-0.13056 0.212891,-0.19141 0.07379,-0.0609 0.150951,-0.11824 0.230469,-0.17187 0.07952,-0.0536 0.161342,-0.10446 0.246094,-0.15039 0.08476,-0.0459 0.172231,-0.0873 0.261718,-0.125 0.0895,-0.0377 0.18165,-0.0706 0.275391,-0.0996 0.09373,-0.029 0.189616,-0.0544 0.287109,-0.0742 0.09749,-0.0199 0.196124,-0.0347 0.296875,-0.0449 0.100745,-0.0101 0.203125,-0.0156 0.306641,-0.0156 h 3.009766 1.009765 1.990235 c 1.107989,0 2,-0.89201 2,-2 v -1 -4 c 0,-0.0952 -0.004,-0.18948 -0.0098,-0.2832 v 0.28516 c 0,-2.216 -1.784008,-4 -4,-4 z m 0.5,1 c 0.830997,0 1.5,0.669 1.5,1.5 0,0.831 -0.669003,1.5 -1.5,1.5 -0.830996,0 -1.5,-0.669 -1.5,-1.5 0,-0.831 0.669004,-1.5 1.5,-1.5 z" /><g
         id="path5320-7-0"
         transform="matrix(-1.4666667,0,0,-1.4666667,134.49202,310.0848)"
         style="fill:#f7b656;fill-opacity:1;stroke:#f7b656;stroke-opacity:1"><path
           id="path9356-62"
           style="color:#000000;fill:#f7b656;fill-opacity:1;stroke:#f7b656;stroke-width:1.36364;stroke-linecap:round;stroke-linejoin:round;stroke-miterlimit:1.8;stroke-opacity:1;paint-order:stroke fill markers"
           d="m 54.880949,4.3873613 c -1.510905,0 -2.727272,1.2163667 -2.727272,2.7272727 v 0.6818182 h 0.681818 v -0.00133 h 3.414417 V 7.114634 h 0.0013 v 1.3623047 l -2.733931,0.00133 -0.67516,-0.00133 h -0.743075 c -1.854596,0 -3.347834,1.4932402 -3.347834,3.3478333 v 0.804333 c 0,1.854595 1.493238,3.347833 3.347834,3.347833 h 0.06126 v -2.038796 -0.0067 -0.0067 c 0,-0.07058 0.0037,-0.140379 0.01065,-0.209074 0.0069,-0.06869 0.01709,-0.135942 0.03063,-0.202414 0.01354,-0.06647 0.0308,-0.131843 0.0506,-0.195757 0.0198,-0.06391 0.04219,-0.126748 0.06791,-0.187766 0.02573,-0.06102 0.05391,-0.120659 0.08523,-0.178445 0.03132,-0.05779 0.06597,-0.113574 0.102539,-0.167791 0.03657,-0.05422 0.0757,-0.106827 0.117188,-0.157138 0.04149,-0.05031 0.08444,-0.09909 0.130504,-0.145152 0.04607,-0.04607 0.09484,-0.08902 0.145153,-0.130505 0.05031,-0.04149 0.102921,-0.08062 0.157138,-0.117187 0.05422,-0.03657 0.110005,-0.07122 0.167791,-0.102539 0.05779,-0.03132 0.11743,-0.0595 0.178444,-0.08523 0.06102,-0.02573 0.123853,-0.04811 0.187767,-0.06792 0.06391,-0.0198 0.129284,-0.03707 0.195756,-0.0506 0.06647,-0.01354 0.133721,-0.02369 0.202415,-0.03063 0.06869,-0.0069 0.138494,-0.01065 0.209073,-0.01065 h 2.052113 0.688477 1.356978 c 0.755448,0 1.363636,-0.608188 1.363636,-1.363636 V 9.840575 7.1133023 c 0,-0.064921 -0.0027,-0.1291962 -0.0067,-0.193093 V 7.114634 c 0,-1.510906 -1.216368,-2.7272727 -2.727273,-2.7272727 z"
           sodipodi:nodetypes="sscccccccccsssscccscssssssssssssscsccsscsccss" /></g><path
         id="path9356-6-6"
         style="color:#000000;fill:#ffeba0;fill-opacity:1;stroke:none;stroke-width:2.00001;stroke-linecap:round;stroke-linejoin:round;stroke-miterlimit:1.8;stroke-opacity:1;paint-order:stroke fill markers"
         d="m 57.990244,286.65196 v 2.99023 0.01 0.01 c 0,0.10352 -0.0054,0.20588 -0.01563,0.30664 -0.01012,0.10074 -0.02507,0.19939 -0.04492,0.29688 -0.01986,0.0975 -0.04518,0.19337 -0.07422,0.28711 -0.02904,0.0937 -0.06189,0.1859 -0.09961,0.27539 -0.03774,0.0895 -0.07907,0.17697 -0.125,0.26172 -0.04594,0.0848 -0.09676,0.16658 -0.150391,0.24609 -0.05364,0.0795 -0.111026,0.15668 -0.171875,0.23047 -0.06085,0.0738 -0.123845,0.14533 -0.191406,0.21289 -0.06757,0.0676 -0.139098,0.13056 -0.212891,0.19141 -0.07379,0.0609 -0.15095,0.11824 -0.230468,0.17187 -0.07952,0.0536 -0.161342,0.10446 -0.246094,0.15039 -0.08476,0.0459 -0.172232,0.0873 -0.261719,0.125 -0.0895,0.0377 -0.181649,0.0706 -0.27539,0.0996 -0.09373,0.029 -0.189617,0.0544 -0.28711,0.0742 -0.09749,0.0199 -0.196124,0.0347 -0.296875,0.0449 -0.100745,0.0101 -0.203124,0.0156 -0.30664,0.0156 h -3.009766 -1.009766 -1.990234 c -1.107989,0 -2,0.89201 -2,2 v 1 4 c 0,0.0952 0.004,0.18948 0.0098,0.2832 V 299.65 c 0,2.216 1.784008,4 4,4 h 3 c 2.215991,0 4,-1.784 4,-4 v -1 h -1 v 0.002 h -5.007842 v 0.998 h -0.002 v -1.99804 l 4.009766,-0.002 0.990234,0.002 h 1.089844 c 2.720071,0 4.910156,-2.19009 4.910156,-4.91016 v -1.17969 c 0,-2.72006 -2.190085,-4.91015 -4.910156,-4.91015 z m -4.5,13 c 0.830997,0 1.5,0.669 1.5,1.5 0,0.831 -0.669003,1.5 -1.5,1.5 -0.830996,0 -1.5,-0.669 -1.5,-1.5 0,-0.831 0.669004,-1.5 1.5,-1.5 z" /></g></g></svg>
