<?xml version="1.0" encoding="UTF-8" standalone="no"?>
<!-- Created with Inkscape (http://www.inkscape.org/) -->

<svg
   width="64"
   height="64"
   viewBox="0 0 16.933333 16.933333"
   version="1.1"
   id="svg5"
   inkscape:version="1.2.1 (9c6d41e410, 2022-07-14)"
   sodipodi:docname="application-vnd.flatpak.ref.svg"
   xmlns:inkscape="http://www.inkscape.org/namespaces/inkscape"
   xmlns:sodipodi="http://sodipodi.sourceforge.net/DTD/sodipodi-0.dtd"
   xmlns="http://www.w3.org/2000/svg"
   xmlns:svg="http://www.w3.org/2000/svg">
  <sodipodi:namedview
     id="namedview7"
     pagecolor="#ffffff"
     bordercolor="#000000"
     borderopacity="0.25"
     inkscape:showpageshadow="false"
     inkscape:pageopacity="0.0"
     inkscape:pagecheckerboard="0"
     inkscape:deskcolor="#d1d1d1"
     inkscape:document-units="px"
     showgrid="true"
     inkscape:zoom="20.48"
     inkscape:cx="32.299804"
     inkscape:cy="25.292969"
     inkscape:window-width="2160"
     inkscape:window-height="1330"
     inkscape:window-x="0"
     inkscape:window-y="0"
     inkscape:window-maximized="1"
     inkscape:current-layer="g3460">
    <inkscape:grid
       type="xygrid"
       id="grid290"
       originx="0"
       originy="0" />
  </sodipodi:namedview>
  <defs
     id="defs2" />
  <g
     inkscape:label="Capa 1"
     inkscape:groupmode="layer"
     id="layer1">
    <g
       id="g3460"
       transform="translate(-8.9958335)">
      <path
         id="rect971"
         d="m 11.377083,0.26458335 h 12.170833 c 0.586317,0 1.058334,0.47201666 1.058334,1.05833335 V 15.610416 c 0,0.586317 -0.472017,1.058334 -1.058334,1.058334 H 11.377083 c -0.586317,0 -1.058333,-0.472017 -1.058333,-1.058334 V 1.3229167 c 0,-0.58631669 0.472016,-1.05833335 1.058333,-1.05833335 z"
         style="fill:#a3b7cc;fill-opacity:1;stroke:none;stroke-width:0.529167;stroke-linecap:round;stroke-linejoin:round;stroke-miterlimit:4;stroke-dasharray:none;stroke-dashoffset:0;stroke-opacity:1"
         inkscape:connector-curvature="0"
         sodipodi:nodetypes="sssssssss" />
      <path
         id="rect971-2"
         d="m 11.377083,0.52916668 h 12.170833 c 0.439738,0 0.79375,0.35401249 0.79375,0.79375002 V 15.610416 c 0,0.439738 -0.354012,0.79375 -0.79375,0.79375 H 11.377083 c -0.439737,0 -0.79375,-0.354012 -0.79375,-0.79375 V 1.3229167 c 0,-0.43973753 0.354013,-0.79375002 0.79375,-0.79375002 z"
         style="fill:#fafafa;fill-opacity:1;stroke:none;stroke-width:0.529167;stroke-linecap:round;stroke-linejoin:round;stroke-miterlimit:4;stroke-dasharray:none;stroke-dashoffset:0;stroke-opacity:1"
         inkscape:connector-curvature="0"
         sodipodi:nodetypes="sssssssss" />
      <path
         id="rect5971-3"
         style="fill:#dfe6ec;fill-opacity:1;stroke-width:0.423333;stroke-linecap:round;stroke-linejoin:round;stroke-miterlimit:1.8;paint-order:stroke fill markers;stop-color:#000000"
         d="m 11.377083,0.52916668 c -0.439736,0 -0.79375,0.35401249 -0.79375,0.79375002 V 1.5875 h 0.04496 1.013374 V 0.57412468 0.52916668 Z M 11.641666,1.5875 V 2.6458333 H 12.7 V 1.5875 Z m 1.058334,0 h 1.058333 V 0.52916668 H 12.7 Z m 1.058333,0 v 1.0583333 h 1.058333 V 1.5875 Z m 1.058333,0 H 15.875 V 0.52916668 h -1.058334 z m 1.058334,0 v 1.0583333 h 1.058333 V 1.5875 Z m 1.058333,0 h 1.058333 V 0.52916668 h -1.058333 z m 1.058333,0 V 2.6458333 H 19.05 V 1.5875 Z m 1.058334,0 h 1.058333 V 0.52916668 H 19.05 Z m 1.058333,0 v 1.0583333 h 1.058333 V 1.5875 Z m 1.058333,0 H 22.225 V 0.52916668 h -1.058334 z m 1.058334,0 v 1.0583333 h 1.058333 V 1.5875 Z m 1.058333,0 h 1.013375 0.04496 V 1.3229167 c 0,-0.43973753 -0.354014,-0.79375002 -0.79375,-0.79375002 h -0.264583 v 0.044958 z m 0,1.0583333 v 1.0583333 h 1.058333 V 2.6458333 Z m 0,1.0583333 H 22.225 V 4.7625 h 1.058333 z m 0,1.0583334 v 1.0583333 h 1.058333 V 4.7625 Z m 0,1.0583333 H 22.225 v 1.0583333 h 1.058333 z m 0,1.0583333 v 1.0583333 h 1.058333 V 6.8791666 Z m 0,1.0583333 H 22.225 v 1.0583333 h 1.058333 z m 0,1.0583333 v 1.0583338 h 1.058333 V 8.9958332 Z m 0,1.0583338 H 22.225 V 11.1125 h 1.058333 z m 0,1.058333 v 1.058333 h 1.058333 V 11.1125 Z m 0,1.058333 H 22.225 v 1.058334 h 1.058333 z m 0,1.058334 V 14.2875 h 1.058333 v -1.058333 z m 0,1.058333 H 22.225 v 1.058333 h 1.058333 z m 0,1.058333 v 1.013375 0.04496 h 0.264583 c 0.439736,0 0.79375,-0.354012 0.79375,-0.79375 v -0.264583 h -0.04496 z m -1.058333,0 h -1.058334 v 1.058333 H 22.225 Z m -1.058334,0 V 14.2875 h -1.058333 v 1.058333 z m -1.058333,0 H 19.05 v 1.058333 h 1.058333 z m -1.058333,0 V 14.2875 h -1.058334 v 1.058333 z m -1.058334,0 h -1.058333 v 1.058333 h 1.058333 z m -1.058333,0 V 14.2875 H 15.875 v 1.058333 z m -1.058333,0 h -1.058334 v 1.058333 H 15.875 Z m -1.058334,0 V 14.2875 h -1.058333 v 1.058333 z m -1.058333,0 H 12.7 v 1.058333 h 1.058333 z m -1.058333,0 V 14.2875 h -1.058334 v 1.058333 z m -1.058334,0 h -1.013374 -0.04496 v 0.264583 c 0,0.439738 0.354014,0.79375 0.79375,0.79375 h 0.264583 v -0.04496 z m 0,-1.058333 V 13.229167 H 10.583333 V 14.2875 Z m 0,-1.058333 H 12.7 v -1.058334 h -1.058334 z m 0,-1.058334 V 11.1125 h -1.058333 v 1.058333 z m 0,-1.058333 H 12.7 v -1.058333 h -1.058334 z m 0,-1.058333 V 8.9958332 h -1.058333 v 1.0583338 z m 0,-1.0583338 H 12.7 V 7.9374999 h -1.058334 z m 0,-1.0583333 V 6.8791666 h -1.058333 v 1.0583333 z m 0,-1.0583333 H 12.7 V 5.8208333 h -1.058334 z m 0,-1.0583333 V 4.7625 h -1.058333 v 1.0583333 z m 0,-1.0583333 H 12.7 V 3.7041666 h -1.058334 z m 0,-1.0583334 V 2.6458333 h -1.058333 v 1.0583333 z m 1.058334,0 h 1.058333 V 2.6458333 H 12.7 Z m 1.058333,0 V 4.7625 h 1.058333 V 3.7041666 Z m 1.058333,0 H 15.875 V 2.6458333 h -1.058334 z m 1.058334,0 V 4.7625 h 1.058333 V 3.7041666 Z m 1.058333,0 h 1.058333 V 2.6458333 h -1.058333 z m 1.058333,0 V 4.7625 H 19.05 V 3.7041666 Z m 1.058334,0 h 1.058333 V 2.6458333 H 19.05 Z m 1.058333,0 V 4.7625 h 1.058333 V 3.7041666 Z m 1.058333,0 H 22.225 V 2.6458333 h -1.058334 z m 0,1.0583334 V 5.8208333 H 22.225 V 4.7625 Z m 0,1.0583333 h -1.058333 v 1.0583333 h 1.058333 z m 0,1.0583333 V 7.9374999 H 22.225 V 6.8791666 Z m 0,1.0583333 h -1.058333 v 1.0583333 h 1.058333 z m 0,1.0583333 V 10.054167 H 22.225 V 8.9958332 Z m 0,1.0583338 H 20.108333 V 11.1125 h 1.058333 z m 0,1.058333 v 1.058333 H 22.225 V 11.1125 Z m 0,1.058333 h -1.058333 v 1.058334 h 1.058333 z m 0,1.058334 V 14.2875 H 22.225 v -1.058333 z m -1.058333,0 H 19.05 V 14.2875 h 1.058333 z m -1.058333,0 v -1.058334 h -1.058334 v 1.058334 z m -1.058334,0 H 16.933333 V 14.2875 h 1.058333 z m -1.058333,0 V 12.170833 H 15.875 v 1.058334 z m -1.058333,0 H 14.816666 V 14.2875 H 15.875 Z m -1.058334,0 v -1.058334 h -1.058333 v 1.058334 z m -1.058333,0 H 12.7 V 14.2875 h 1.058333 z m 0,-1.058334 V 11.1125 H 12.7 v 1.058333 z m 0,-1.058333 h 1.058333 v -1.058333 h -1.058333 z m 0,-1.058333 V 8.9958332 H 12.7 v 1.0583338 z m 0,-1.0583338 h 1.058333 V 7.9374999 h -1.058333 z m 0,-1.0583333 V 6.8791666 H 12.7 v 1.0583333 z m 0,-1.0583333 h 1.058333 V 5.8208333 h -1.058333 z m 0,-1.0583333 V 4.7625 H 12.7 v 1.0583333 z m 1.058333,0 H 15.875 V 4.7625 h -1.058334 z m 1.058334,0 v 1.0583333 h 1.058333 V 5.8208333 Z m 1.058333,0 h 1.058333 V 4.7625 h -1.058333 z m 1.058333,0 V 6.8791666 H 19.05 V 5.8208333 Z m 1.058334,0 h 1.058333 V 4.7625 H 19.05 Z m 0,1.0583333 v 1.0583333 h 1.058333 V 6.8791666 Z m 0,1.0583333 H 17.991666 V 8.9958332 H 19.05 Z m 0,1.0583333 v 1.0583338 h 1.058333 V 8.9958332 Z m 0,1.0583338 H 17.991666 V 11.1125 H 19.05 Z m 0,1.058333 v 1.058333 h 1.058333 V 11.1125 Z m -1.058334,0 h -1.058333 v 1.058333 h 1.058333 z m -1.058333,0 V 10.054167 H 15.875 V 11.1125 Z m -1.058333,0 h -1.058334 v 1.058333 H 15.875 Z m 0,-1.058333 V 8.9958332 h -1.058334 v 1.0583338 z m 0,-1.0583338 h 1.058333 V 7.9374999 H 15.875 Z m 0,-1.0583333 V 6.8791666 h -1.058334 v 1.0583333 z m 1.058333,0 h 1.058333 V 6.8791666 h -1.058333 z m 0,1.0583333 v 1.0583338 h 1.058333 V 8.9958332 Z" />
      <g
         id="path2385"
         transform="matrix(0.26458333,0,0,0.26458333,8.9958331,-66.317809)">
        <path
           id="path2507"
           style="color:#000000;fill:#359ef2;stroke-linecap:round;stroke-linejoin:round;stroke-miterlimit:1.8;paint-order:stroke fill markers"
           d="m 32,267.64999 a 1.0001,1.0001 0 0 0 -0.335938,0.0586 l -14,5 A 1.0001,1.0001 0 0 0 17,273.64999 v 18 a 1.0001,1.0001 0 0 0 0.664062,0.94141 l 14,5 a 1.0001,1.0001 0 0 0 0.671876,0 l 14,-5 A 1.0001,1.0001 0 0 0 47,291.64999 v -18 a 1.0001,1.0001 0 0 0 -0.664062,-0.94141 l -14,-5 A 1.0001,1.0001 0 0 0 32,267.64999 Z" />
      </g>
      <path
         style="fill:#95d0ff;fill-opacity:1;stroke-width:0.529167;stroke-linecap:square;stroke-miterlimit:1.8;paint-order:stroke fill markers;stop-color:#000000"
         d="m 17.4625,7.4083332 0,-2.6458332 -3.704167,1.3229166 z"
         id="path2158"
         sodipodi:nodetypes="cccc" />
      <path
         style="fill:#95d0ff;fill-opacity:1;stroke-width:0.529167;stroke-linecap:square;stroke-miterlimit:1.8;paint-order:stroke fill markers;stop-color:#000000"
         d="M 17.4625,7.4083333 21.166666,6.0854166 V 10.847917 L 17.4625,12.170833 Z"
         id="path2160"
         sodipodi:nodetypes="ccccc" />
    </g>
  </g>
</svg>
