<?xml version="1.0" encoding="UTF-8" standalone="no"?>
<!-- Created with Inkscape (http://www.inkscape.org/) -->

<svg
   width="64"
   height="64"
   viewBox="0 0 16.933333 16.933333"
   version="1.1"
   id="svg1399"
   inkscape:version="1.2.1 (9c6d41e410, 2022-07-14)"
   sodipodi:docname="application-vnd.oasis.opendocument.presentation-template.svg"
   xmlns:inkscape="http://www.inkscape.org/namespaces/inkscape"
   xmlns:sodipodi="http://sodipodi.sourceforge.net/DTD/sodipodi-0.dtd"
   xmlns="http://www.w3.org/2000/svg"
   xmlns:svg="http://www.w3.org/2000/svg"
   xmlns:rdf="http://www.w3.org/1999/02/22-rdf-syntax-ns#"
   xmlns:cc="http://creativecommons.org/ns#"
   xmlns:dc="http://purl.org/dc/elements/1.1/">
  <defs
     id="defs1393">
    <style
       type="text/css"
       id="current-color-scheme">
      .ColorScheme-Text {
        color:#122036;
      }
      </style>
    <style
       type="text/css"
       id="current-color-scheme-1">
      .ColorScheme-Text {
        color:#122036;
      }
      </style>
    <style
       id="current-color-scheme-10"
       type="text/css">
      .ColorScheme-Text {
        color:#122036;
      }
      </style>
    <style
       id="current-color-scheme-5"
       type="text/css">
      .ColorScheme-Text {
        color:#122036;
      }
      </style>
    <style
       id="current-color-scheme-1-2"
       type="text/css">
      .ColorScheme-Text {
        color:#122036;
      }
      </style>
    <style
       type="text/css"
       id="current-color-scheme-10-9">
      .ColorScheme-Text {
        color:#122036;
      }
      </style>
    <style
       type="text/css"
       id="current-color-scheme-6">
      .ColorScheme-Text {
        color:#122036;
      }
      </style>
    <style
       type="text/css"
       id="current-color-scheme-1-9">
      .ColorScheme-Text {
        color:#122036;
      }
      </style>
    <style
       id="current-color-scheme-10-1"
       type="text/css">
      .ColorScheme-Text {
        color:#122036;
      }
      </style>
    <style
       type="text/css"
       id="current-color-scheme-7">
      .ColorScheme-Text {
        color:#122036;
      }
      </style>
    <style
       type="text/css"
       id="current-color-scheme-1-5">
      .ColorScheme-Text {
        color:#122036;
      }
      </style>
    <style
       id="current-color-scheme-10-3"
       type="text/css">
      .ColorScheme-Text {
        color:#122036;
      }
      </style>
    <style
       id="current-color-scheme-5-5"
       type="text/css">
      .ColorScheme-Text {
        color:#122036;
      }
      </style>
    <style
       id="current-color-scheme-1-2-6"
       type="text/css">
      .ColorScheme-Text {
        color:#122036;
      }
      </style>
    <style
       type="text/css"
       id="current-color-scheme-10-9-2">
      .ColorScheme-Text {
        color:#122036;
      }
      </style>
    <style
       type="text/css"
       id="current-color-scheme-6-9">
      .ColorScheme-Text {
        color:#122036;
      }
      </style>
    <style
       type="text/css"
       id="current-color-scheme-1-9-1">
      .ColorScheme-Text {
        color:#122036;
      }
      </style>
    <style
       id="current-color-scheme-10-1-2"
       type="text/css">
      .ColorScheme-Text {
        color:#122036;
      }
      </style>
    <style
       id="current-color-scheme-535"
       type="text/css">
      .ColorScheme-Text {
        color:#122036;
      }
      </style>
    <style
       id="current-color-scheme-7-6"
       type="text/css">
      .ColorScheme-Text {
        color:#122036;
      }
      </style>
    <style
       id="current-color-scheme-5-29"
       type="text/css">
      .ColorScheme-Text {
        color:#122036;
      }
      </style>
    <style
       id="current-color-scheme-2"
       type="text/css">
      .ColorScheme-Text {
        color:#122036;
      }
      </style>
    <style
       id="current-color-scheme-7-7"
       type="text/css">
      .ColorScheme-Text {
        color:#122036;
      }
      </style>
    <style
       id="current-color-scheme-5-0"
       type="text/css">
      .ColorScheme-Text {
        color:#122036;
      }
      </style>
    <style
       type="text/css"
       id="current-color-scheme-9">
      .ColorScheme-Text {
        color:#122036;
      }
      </style>
    <style
       type="text/css"
       id="current-color-scheme-1-12">
      .ColorScheme-Text {
        color:#122036;
      }
      </style>
    <style
       id="current-color-scheme-10-7"
       type="text/css">
      .ColorScheme-Text {
        color:#122036;
      }
      </style>
    <style
       type="text/css"
       id="current-color-scheme-6-0">
      .ColorScheme-Text {
        color:#122036;
      }
      </style>
    <style
       type="text/css"
       id="current-color-scheme-7-1">
      .ColorScheme-Text {
        color:#122036;
      }
      </style>
    <style
       type="text/css"
       id="current-color-scheme-5-2">
      .ColorScheme-Text {
        color:#122036;
      }
      </style>
    <style
       id="current-color-scheme-3"
       type="text/css">
      .ColorScheme-Text {
        color:#122036;
      }
      </style>
    <style
       id="current-color-scheme-7-75"
       type="text/css">
      .ColorScheme-Text {
        color:#122036;
      }
      </style>
    <style
       id="current-color-scheme-5-9"
       type="text/css">
      .ColorScheme-Text {
        color:#122036;
      }
      </style>
    <style
       type="text/css"
       id="current-color-scheme-9-2">
      .ColorScheme-Text {
        color:#122036;
      }
      </style>
    <style
       type="text/css"
       id="current-color-scheme-1-2-9">
      .ColorScheme-Text {
        color:#122036;
      }
      </style>
    <style
       id="current-color-scheme-10-8"
       type="text/css">
      .ColorScheme-Text {
        color:#122036;
      }
      </style>
    <style
       type="text/css"
       id="current-color-scheme-6-9-3">
      .ColorScheme-Text {
        color:#122036;
      }
      </style>
    <style
       type="text/css"
       id="current-color-scheme-7-1-7">
      .ColorScheme-Text {
        color:#122036;
      }
      </style>
    <style
       type="text/css"
       id="current-color-scheme-5-2-3">
      .ColorScheme-Text {
        color:#122036;
      }
      </style>
    <style
       type="text/css"
       id="current-color-scheme-106">
      .ColorScheme-Text {
        color:#122036;
      }
      </style>
    <style
       type="text/css"
       id="current-color-scheme-7-3">
      .ColorScheme-Text {
        color:#122036;
      }
      </style>
    <style
       type="text/css"
       id="current-color-scheme-5-20">
      .ColorScheme-Text {
        color:#122036;
      }
      </style>
    <style
       id="current-color-scheme-9-6"
       type="text/css">
      .ColorScheme-Text {
        color:#122036;
      }
      </style>
    <style
       id="current-color-scheme-1-1"
       type="text/css">
      .ColorScheme-Text {
        color:#122036;
      }
      </style>
    <style
       type="text/css"
       id="current-color-scheme-10-5">
      .ColorScheme-Text {
        color:#122036;
      }
      </style>
    <style
       id="current-color-scheme-6-5"
       type="text/css">
      .ColorScheme-Text {
        color:#122036;
      }
      </style>
    <style
       id="current-color-scheme-7-1-4"
       type="text/css">
      .ColorScheme-Text {
        color:#122036;
      }
      </style>
    <style
       id="current-color-scheme-5-2-7"
       type="text/css">
      .ColorScheme-Text {
        color:#122036;
      }
      </style>
    <style
       type="text/css"
       id="current-color-scheme-53">
      .ColorScheme-Text {
        color:#122036;
      }
      </style>
    <style
       type="text/css"
       id="current-color-scheme-1-56">
      .ColorScheme-Text {
        color:#122036;
      }
      </style>
    <style
       id="current-color-scheme-10-2"
       type="text/css">
      .ColorScheme-Text {
        color:#122036;
      }
      </style>
    <style
       id="current-color-scheme-5-91"
       type="text/css">
      .ColorScheme-Text {
        color:#122036;
      }
      </style>
    <style
       id="current-color-scheme-1-2-2"
       type="text/css">
      .ColorScheme-Text {
        color:#122036;
      }
      </style>
    <style
       type="text/css"
       id="current-color-scheme-10-9-6">
      .ColorScheme-Text {
        color:#122036;
      }
      </style>
    <style
       type="text/css"
       id="current-color-scheme-6-7">
      .ColorScheme-Text {
        color:#122036;
      }
      </style>
    <style
       type="text/css"
       id="current-color-scheme-1-9-0">
      .ColorScheme-Text {
        color:#122036;
      }
      </style>
    <style
       id="current-color-scheme-10-1-6"
       type="text/css">
      .ColorScheme-Text {
        color:#122036;
      }
      </style>
    <style
       type="text/css"
       id="current-color-scheme-7-0">
      .ColorScheme-Text {
        color:#122036;
      }
      </style>
    <style
       type="text/css"
       id="current-color-scheme-1-5-2">
      .ColorScheme-Text {
        color:#122036;
      }
      </style>
    <style
       id="current-color-scheme-10-3-6"
       type="text/css">
      .ColorScheme-Text {
        color:#122036;
      }
      </style>
    <style
       id="current-color-scheme-5-5-1"
       type="text/css">
      .ColorScheme-Text {
        color:#122036;
      }
      </style>
    <style
       id="current-color-scheme-1-2-6-8"
       type="text/css">
      .ColorScheme-Text {
        color:#122036;
      }
      </style>
    <style
       type="text/css"
       id="current-color-scheme-10-9-2-7">
      .ColorScheme-Text {
        color:#122036;
      }
      </style>
    <style
       type="text/css"
       id="current-color-scheme-6-9-9">
      .ColorScheme-Text {
        color:#122036;
      }
      </style>
    <style
       type="text/css"
       id="current-color-scheme-1-9-1-9">
      .ColorScheme-Text {
        color:#122036;
      }
      </style>
    <style
       id="current-color-scheme-10-1-2-2"
       type="text/css">
      .ColorScheme-Text {
        color:#122036;
      }
      </style>
  </defs>
  <sodipodi:namedview
     id="base"
     pagecolor="#ffffff"
     bordercolor="#666666"
     borderopacity="1.0"
     inkscape:pageopacity="0.0"
     inkscape:pageshadow="2"
     inkscape:zoom="11.2"
     inkscape:cx="28.705357"
     inkscape:cy="30.982143"
     inkscape:document-units="px"
     inkscape:current-layer="g4401"
     showgrid="true"
     inkscape:showpageshadow="false"
     units="px"
     inkscape:window-width="2160"
     inkscape:window-height="1330"
     inkscape:window-x="0"
     inkscape:window-y="0"
     inkscape:window-maximized="1"
     inkscape:pagecheckerboard="0"
     inkscape:deskcolor="#d1d1d1">
    <inkscape:grid
       type="xygrid"
       id="grid52425" />
  </sodipodi:namedview>
  <metadata
     id="metadata1396">
    <rdf:RDF>
      <cc:Work
         rdf:about="">
        <dc:format>image/svg+xml</dc:format>
        <dc:type
           rdf:resource="http://purl.org/dc/dcmitype/StillImage" />
      </cc:Work>
    </rdf:RDF>
  </metadata>
  <g
     inkscape:label="Capa 1"
     inkscape:groupmode="layer"
     id="layer1"
     transform="translate(0,-280.06672)">
    <g
       id="g4401"
       transform="translate(4.1903543,-4.3239885)">
      <path
         id="rect971"
         d="m -1.8091043,284.65529 c -0.5863167,0 -1.0583333,0.47202 -1.0583333,1.05833 v 3.70417 1.05833 9.525 c 0,0.58632 0.4720166,1.05834 1.0583333,1.05834 H 10.361728 c 0.586317,0 1.058334,-0.47202 1.058334,-1.05834 v -9.525 -1.05833 -0.26458 -3.43959 c 0,-0.58631 -0.472017,-1.05833 -1.058334,-1.05833 z"
         style="opacity:1;vector-effect:none;fill:#c74848;fill-opacity:1;stroke:none;stroke-width:0.52916664;stroke-linecap:round;stroke-linejoin:round;stroke-miterlimit:4;stroke-dasharray:none;stroke-dashoffset:0;stroke-opacity:1"
         inkscape:connector-curvature="0" />
      <path
         id="rect971-2"
         d="m -1.8091043,284.91987 c -0.4397375,0 -0.79375,0.35402 -0.79375,0.79375 v 3.175 0.52917 0.79375 9.78958 c 0,0.43974 0.3540125,0.79375 0.79375,0.79375 H 10.361728 c 0.439738,0 0.79375,-0.35401 0.79375,-0.79375 v -9.78958 -0.79375 -0.52917 -3.175 c 0,-0.43973 -0.354012,-0.79375 -0.79375,-0.79375 z"
         style="opacity:1;vector-effect:none;fill:#f68d8d;fill-opacity:1;stroke:none;stroke-width:0.52916664;stroke-linecap:round;stroke-linejoin:round;stroke-miterlimit:4;stroke-dasharray:none;stroke-dashoffset:0;stroke-opacity:1"
         inkscape:connector-curvature="0" />
      <path
         id="rect5971-3"
         style="fill:#e97a7a;fill-opacity:1;stroke-width:0.423333;stroke-linecap:round;stroke-linejoin:round;stroke-miterlimit:1.8;paint-order:stroke fill markers;stop-color:#000000"
         d="m -1.809104,284.91988 c -0.439736,0 -0.79375,0.35401 -0.79375,0.79375 v 0.26458 h 0.04496 1.013374 v -1.01338 -0.045 z m 0.264583,1.05833 v 1.05833 h 1.05833398 v -1.05833 z m 1.05833398,0 h 1.058333 v -1.05833 h -1.058333 z m 1.058333,0 v 1.05833 H 1.630479 v -1.05833 z m 1.05833302,0 h 1.058334 v -1.05833 H 1.630479 Z m 1.058334,0 v 1.05833 h 1.058333 v -1.05833 z m 1.058333,0 h 1.058333 v -1.05833 H 3.747146 Z m 1.058333,0 v 1.05833 h 1.058334 v -1.05833 z m 1.058334,0 h 1.0583333 v -1.05833 H 5.863813 Z m 1.0583333,0 v 1.05833 h 1.058333 v -1.05833 z m 1.058333,0 h 1.058334 v -1.05833 h -1.058334 z m 1.058334,0 v 1.05833 h 1.0583327 v -1.05833 z m 1.0583327,0 h 1.013375 0.04496 v -0.26458 c 0,-0.43974 -0.354014,-0.79375 -0.79375,-0.79375 h -0.264583 v 0.045 z m 0,1.05833 v 1.05834 h 1.058333 v -1.05834 z m 0,1.05834 H 9.0388133 v 1.05833 h 1.0583327 z m 0,1.05833 v 1.05833 h 1.058333 v -1.05833 z m 0,1.05833 H 9.0388133 v 1.05834 h 1.0583327 z m 0,1.05834 v 1.05833 h 1.058333 v -1.05833 z m 0,1.05833 H 9.0388133 v 1.05833 h 1.0583327 z m 0,1.05833 v 1.05834 h 1.058333 v -1.05834 z m 0,1.05834 H 9.0388133 v 1.05833 h 1.0583327 z m 0,1.05833 v 1.05833 h 1.058333 v -1.05833 z m 0,1.05833 H 9.0388133 v 1.05834 h 1.0583327 z m 0,1.05834 v 1.05833 h 1.058333 v -1.05833 z m 0,1.05833 H 9.0388133 v 1.05833 h 1.0583327 z m 0,1.05833 v 1.01338 0.045 h 0.264583 c 0.439736,0 0.79375,-0.35401 0.79375,-0.79375 v -0.26458 h -0.04496 z m -1.0583327,0 h -1.058334 v 1.05834 h 1.058334 z m -1.058334,0 v -1.05833 h -1.058333 v 1.05833 z m -1.058333,0 H 5.863813 v 1.05834 h 1.0583333 z m -1.0583333,0 v -1.05833 H 4.805479 v 1.05833 z m -1.058334,0 H 3.747146 v 1.05834 h 1.058333 z m -1.058333,0 v -1.05833 H 2.688813 v 1.05833 z m -1.058333,0 H 1.630479 v 1.05834 h 1.058334 z m -1.058334,0 v -1.05833 H 0.57214598 v 1.05833 z m -1.05833302,0 h -1.058333 v 1.05834 h 1.058333 z m -1.058333,0 v -1.05833 H -1.544521 v 1.05833 z m -1.05833398,0 h -1.013374 -0.04496 v 0.26459 c 0,0.43973 0.354014,0.79375 0.79375,0.79375 h 0.264583 v -0.045 z m 0,-1.05833 v -1.05833 h -1.058333 v 1.05833 z m 0,-1.05833 h 1.05833398 v -1.05834 H -1.544521 Z m 0,-1.05834 v -1.05833 h -1.058333 v 1.05833 z m 0,-1.05833 h 1.05833398 v -1.05833 H -1.544521 Z m 0,-1.05833 v -1.05834 h -1.058333 v 1.05834 z m 0,-1.05834 h 1.05833398 v -1.05833 H -1.544521 Z m 0,-1.05833 v -1.05833 h -1.058333 v 1.05833 z m 0,-1.05833 h 1.05833398 v -1.05834 H -1.544521 Z m 0,-1.05834 v -1.05833 h -1.058333 v 1.05833 z m 0,-1.05833 h 1.05833398 v -1.05833 H -1.544521 Z m 0,-1.05833 v -1.05834 h -1.058333 v 1.05834 z m 1.05833398,0 h 1.058333 v -1.05834 h -1.058333 z m 1.058333,0 v 1.05833 H 1.630479 v -1.05833 z m 1.05833302,0 h 1.058334 v -1.05834 H 1.630479 Z m 1.058334,0 v 1.05833 h 1.058333 v -1.05833 z m 1.058333,0 h 1.058333 v -1.05834 H 3.747146 Z m 1.058333,0 v 1.05833 h 1.058334 v -1.05833 z m 1.058334,0 h 1.0583333 v -1.05834 H 5.863813 Z m 1.0583333,0 v 1.05833 h 1.058333 v -1.05833 z m 1.058333,0 h 1.058334 v -1.05834 h -1.058334 z m 0,1.05833 v 1.05833 h 1.058334 v -1.05833 z m 0,1.05833 h -1.058333 v 1.05834 h 1.058333 z m 0,1.05834 v 1.05833 h 1.058334 v -1.05833 z m 0,1.05833 h -1.058333 v 1.05833 h 1.058333 z m 0,1.05833 v 1.05834 h 1.058334 v -1.05834 z m 0,1.05834 h -1.058333 v 1.05833 h 1.058333 z m 0,1.05833 v 1.05833 h 1.058334 v -1.05833 z m 0,1.05833 h -1.058333 v 1.05834 h 1.058333 z m 0,1.05834 v 1.05833 h 1.058334 v -1.05833 z m -1.058333,0 H 5.863813 v 1.05833 h 1.0583333 z m -1.0583333,0 v -1.05834 H 4.805479 v 1.05834 z m -1.058334,0 H 3.747146 v 1.05833 h 1.058333 z m -1.058333,0 v -1.05834 H 2.688813 v 1.05834 z m -1.058333,0 H 1.630479 v 1.05833 h 1.058334 z m -1.058334,0 v -1.05834 H 0.57214598 v 1.05834 z m -1.05833302,0 h -1.058333 v 1.05833 h 1.058333 z m 0,-1.05834 v -1.05833 h -1.058333 v 1.05833 z m 0,-1.05833 H 1.630479 v -1.05833 H 0.57214598 Z m 0,-1.05833 v -1.05834 h -1.058333 v 1.05834 z m 0,-1.05834 H 1.630479 v -1.05833 H 0.57214598 Z m 0,-1.05833 v -1.05833 h -1.058333 v 1.05833 z m 0,-1.05833 H 1.630479 v -1.05834 H 0.57214598 Z m 0,-1.05834 v -1.05833 h -1.058333 v 1.05833 z m 1.05833302,0 h 1.058334 v -1.05833 H 1.630479 Z m 1.058334,0 v 1.05834 h 1.058333 v -1.05834 z m 1.058333,0 h 1.058333 v -1.05833 H 3.747146 Z m 1.058333,0 v 1.05834 h 1.058334 v -1.05834 z m 1.058334,0 h 1.0583333 v -1.05833 H 5.863813 Z m 0,1.05834 v 1.05833 h 1.0583333 v -1.05833 z m 0,1.05833 H 4.805479 v 1.05833 h 1.058334 z m 0,1.05833 v 1.05834 h 1.0583333 v -1.05834 z m 0,1.05834 H 4.805479 v 1.05833 h 1.058334 z m 0,1.05833 v 1.05833 h 1.0583333 v -1.05833 z m -1.058334,0 H 3.747146 v 1.05833 h 1.058333 z m -1.058333,0 v -1.05833 H 2.688813 v 1.05833 z m -1.058333,0 H 1.630479 v 1.05833 h 1.058334 z m 0,-1.05833 v -1.05834 H 1.630479 v 1.05834 z m 0,-1.05834 h 1.058333 v -1.05833 H 2.688813 Z m 0,-1.05833 v -1.05833 H 1.630479 v 1.05833 z m 1.058333,0 h 1.058333 v -1.05833 H 3.747146 Z m 0,1.05833 v 1.05834 h 1.058333 v -1.05834 z" />
      <path
         sodipodi:nodetypes="cccccccccccccccccccccccccc"
         inkscape:connector-curvature="0"
         style="opacity:1;vector-effect:none;fill:#c74848;fill-opacity:1;stroke:none;stroke-width:0.59531248;stroke-linecap:round;stroke-linejoin:round;stroke-miterlimit:4;stroke-dasharray:none;stroke-dashoffset:0;stroke-opacity:1;paint-order:normal"
         d="m 2.1593919,290.47625 v 2.38125 h 2.38125 c 0,-1.31513 -1.0661227,-2.38125 -2.38125,-2.38125 z m -0.2645833,0.26458 c -0.96313102,9e-5 -1.83137442,0.58034 -2.19986492,1.4702 -0.368382,0.88971 -0.1646422,1.91372 0.5162471,2.59467 0.6809475,0.68089 1.70495912,0.88463 2.59467342,0.51625 0.889852,-0.36849 1.4701097,-1.23674 1.4701943,-2.19987 H 1.8948086 Z m 3.4395832,0.79375 v 0.79375 l 3.7044176,-1.3e-4 v -0.79375 z m 1.0583333,1.32292 v 0.79375 l 2.6460843,-1.3e-4 v -0.79375 z m -1.8520832,1.32292 v 0.79375 l 4.4981675,-1.3e-4 v -0.79375 z"
         id="path3687" />
    </g>
  </g>
</svg>
