<?xml version="1.0" encoding="UTF-8" standalone="no"?>
<!-- Created with Inkscape (http://www.inkscape.org/) -->

<svg
   width="64"
   height="64"
   viewBox="0 0 16.933333 16.933333"
   version="1.1"
   id="svg5"
   inkscape:version="1.2.1 (9c6d41e410, 2022-07-14)"
   sodipodi:docname="application-vnd.iccprofile.svg"
   xmlns:inkscape="http://www.inkscape.org/namespaces/inkscape"
   xmlns:sodipodi="http://sodipodi.sourceforge.net/DTD/sodipodi-0.dtd"
   xmlns="http://www.w3.org/2000/svg"
   xmlns:svg="http://www.w3.org/2000/svg">
  <sodipodi:namedview
     id="namedview7"
     pagecolor="#ffffff"
     bordercolor="#000000"
     borderopacity="0.25"
     inkscape:showpageshadow="false"
     inkscape:pageopacity="0.0"
     inkscape:pagecheckerboard="0"
     inkscape:deskcolor="#d1d1d1"
     inkscape:document-units="px"
     showgrid="true"
     inkscape:zoom="14.481547"
     inkscape:cx="40.15455"
     inkscape:cy="31.833616"
     inkscape:window-width="2160"
     inkscape:window-height="1330"
     inkscape:window-x="0"
     inkscape:window-y="0"
     inkscape:window-maximized="1"
     inkscape:current-layer="layer1">
    <inkscape:grid
       type="xygrid"
       id="grid290"
       originx="0"
       originy="0" />
  </sodipodi:namedview>
  <defs
     id="defs2" />
  <g
     inkscape:label="Capa 1"
     inkscape:groupmode="layer"
     id="layer1">
    <g
       id="g1924"
       transform="translate(-1.8520833,-0.26458317)">
      <g
         id="g3063"
         transform="translate(-1.5875,2.9104164)">
        <g
           id="g6756"
           transform="translate(-1.0583333,-1.8520834)">
          <path
             id="rect971"
             d="M 6.8791666,-0.52916665 H 19.05 c 0.586316,0 1.058333,0.47201666 1.058333,1.05833332 V 14.816666 c 0,0.586317 -0.472017,1.058334 -1.058333,1.058334 H 6.8791666 c -0.5863167,0 -1.0583334,-0.472017 -1.0583334,-1.058334 V 0.52916667 c 0,-0.58631666 0.4720167,-1.05833332 1.0583334,-1.05833332 z"
             style="fill:#a3b7cc;fill-opacity:1;stroke:none;stroke-width:0.529167;stroke-linecap:round;stroke-linejoin:round;stroke-miterlimit:4;stroke-dasharray:none;stroke-dashoffset:0;stroke-opacity:1"
             inkscape:connector-curvature="0"
             sodipodi:nodetypes="sssssssss" />
          <path
             id="rect971-2"
             d="M 6.8791666,-0.26458332 H 19.05 c 0.439737,0 0.79375,0.35401249 0.79375,0.79374999 V 14.816666 c 0,0.439738 -0.354013,0.79375 -0.79375,0.79375 H 6.8791666 c -0.4397375,0 -0.79375,-0.354012 -0.79375,-0.79375 V 0.52916667 c 0,-0.4397375 0.3540125,-0.79374999 0.79375,-0.79374999 z"
             style="fill:#fafafa;fill-opacity:1;stroke:none;stroke-width:0.529167;stroke-linecap:round;stroke-linejoin:round;stroke-miterlimit:4;stroke-dasharray:none;stroke-dashoffset:0;stroke-opacity:1"
             inkscape:connector-curvature="0"
             sodipodi:nodetypes="sssssssss" />
          <path
             id="rect5971-3"
             style="fill:#dfe6ec;fill-opacity:1;stroke-width:0.423333;stroke-linecap:round;stroke-linejoin:round;stroke-miterlimit:1.8;paint-order:stroke fill markers;stop-color:#000000"
             d="m 6.8791666,-0.26458332 c -0.439736,0 -0.79375,0.35401249 -0.79375,0.79374999 V 0.79375 h 0.044958 1.0133748 v -1.01337532 -0.044958 z M 7.1437499,0.79375 V 1.8520833 H 8.2020832 V 0.79375 Z m 1.0583333,0 H 9.2604165 V -0.26458332 H 8.2020832 Z m 1.0583333,0 V 1.8520833 H 10.31875 V 0.79375 Z m 1.0583335,0 h 1.058333 V -0.26458332 H 10.31875 Z m 1.058333,0 v 1.0583333 h 1.058334 V 0.79375 Z m 1.058334,0 h 1.058333 v -1.05833332 h -1.058333 z m 1.058333,0 v 1.0583333 h 1.058333 V 0.79375 Z m 1.058333,0 h 1.058333 v -1.05833332 h -1.058333 z m 1.058333,0 V 1.8520833 H 16.66875 V 0.79375 Z m 1.058334,0 h 1.058333 V -0.26458332 H 16.66875 Z m 1.058333,0 v 1.0583333 h 1.058333 V 0.79375 Z m 1.058333,0 h 1.013375 0.04496 V 0.52916667 c 0,-0.4397375 -0.354014,-0.79374999 -0.79375,-0.79374999 h -0.264584 v 0.044958 z m 0,1.0583333 V 2.9104166 H 19.84375 V 1.8520833 Z m 0,1.0583333 H 17.727083 V 3.96875 h 1.058333 z m 0,1.0583334 V 5.0270833 H 19.84375 V 3.96875 Z m 0,1.0583333 h -1.058333 v 1.0583333 h 1.058333 z m 0,1.0583333 V 7.1437499 H 19.84375 V 6.0854166 Z m 0,1.0583333 h -1.058333 v 1.0583333 h 1.058333 z m 0,1.0583333 V 9.2604166 H 19.84375 V 8.2020832 Z m 0,1.0583334 H 17.727083 V 10.31875 h 1.058333 z m 0,1.0583334 v 1.058333 H 19.84375 V 10.31875 Z m 0,1.058333 h -1.058333 v 1.058334 h 1.058333 z m 0,1.058334 v 1.058333 h 1.058334 v -1.058333 z m 0,1.058333 h -1.058333 v 1.058333 h 1.058333 z m 0,1.058333 v 1.013375 0.04496 H 19.05 c 0.439736,0 0.79375,-0.354012 0.79375,-0.79375 v -0.264583 h -0.04496 z m -1.058333,0 H 16.66875 v 1.058333 h 1.058333 z m -1.058333,0 V 13.49375 h -1.058334 v 1.058333 z m -1.058334,0 h -1.058333 v 1.058333 h 1.058333 z m -1.058333,0 V 13.49375 H 13.49375 v 1.058333 z m -1.058333,0 h -1.058333 v 1.058333 h 1.058333 z m -1.058333,0 V 13.49375 h -1.058334 v 1.058333 z m -1.058334,0 H 10.31875 v 1.058333 h 1.058333 z m -1.058333,0 V 13.49375 H 9.2604165 v 1.058333 z m -1.0583335,0 H 8.2020832 v 1.058333 h 1.0583333 z m -1.0583333,0 V 13.49375 H 7.1437499 v 1.058333 z m -1.0583333,0 H 6.1303751 6.0854166 v 0.264583 c 0,0.439738 0.354014,0.79375 0.79375,0.79375 h 0.2645833 v -0.04496 z m 0,-1.058333 V 12.435417 H 6.0854166 v 1.058333 z m 0,-1.058333 H 8.2020832 V 11.377083 H 7.1437499 Z m 0,-1.058334 V 10.31875 H 6.0854166 v 1.058333 z m 0,-1.058333 H 8.2020832 V 9.2604166 H 7.1437499 Z m 0,-1.0583334 V 8.2020832 H 6.0854166 v 1.0583334 z m 0,-1.0583334 H 8.2020832 V 7.1437499 H 7.1437499 Z m 0,-1.0583333 V 6.0854166 H 6.0854166 v 1.0583333 z m 0,-1.0583333 H 8.2020832 V 5.0270833 H 7.1437499 Z m 0,-1.0583333 V 3.96875 H 6.0854166 v 1.0583333 z m 0,-1.0583333 H 8.2020832 V 2.9104166 H 7.1437499 Z m 0,-1.0583334 V 1.8520833 H 6.0854166 v 1.0583333 z m 1.0583333,0 H 9.2604165 V 1.8520833 H 8.2020832 Z m 1.0583333,0 V 3.96875 H 10.31875 V 2.9104166 Z m 1.0583335,0 h 1.058333 V 1.8520833 H 10.31875 Z m 1.058333,0 V 3.96875 h 1.058334 V 2.9104166 Z m 1.058334,0 H 13.49375 V 1.8520833 h -1.058333 z m 1.058333,0 V 3.96875 h 1.058333 V 2.9104166 Z m 1.058333,0 h 1.058333 V 1.8520833 h -1.058333 z m 1.058333,0 V 3.96875 H 16.66875 V 2.9104166 Z m 1.058334,0 h 1.058333 V 1.8520833 H 16.66875 Z m 0,1.0583334 v 1.0583333 h 1.058333 V 3.96875 Z m 0,1.0583333 h -1.058334 v 1.0583333 h 1.058334 z m 0,1.0583333 v 1.0583333 h 1.058333 V 6.0854166 Z m 0,1.0583333 h -1.058334 v 1.0583333 h 1.058334 z m 0,1.0583333 v 1.0583334 h 1.058333 V 8.2020832 Z m 0,1.0583334 H 15.610416 V 10.31875 h 1.058334 z m 0,1.0583334 v 1.058333 h 1.058333 V 10.31875 Z m 0,1.058333 h -1.058334 v 1.058334 h 1.058334 z m 0,1.058334 v 1.058333 h 1.058333 v -1.058333 z m -1.058334,0 h -1.058333 v 1.058333 h 1.058333 z m -1.058333,0 V 11.377083 H 13.49375 v 1.058334 z m -1.058333,0 h -1.058333 v 1.058333 h 1.058333 z m -1.058333,0 v -1.058334 h -1.058334 v 1.058334 z m -1.058334,0 H 10.31875 v 1.058333 h 1.058333 z m -1.058333,0 V 11.377083 H 9.2604165 v 1.058334 z m -1.0583335,0 H 8.2020832 v 1.058333 h 1.0583333 z m 0,-1.058334 V 10.31875 H 8.2020832 v 1.058333 z m 0,-1.058333 H 10.31875 V 9.2604166 H 9.2604165 Z m 0,-1.0583334 V 8.2020832 H 8.2020832 v 1.0583334 z m 0,-1.0583334 H 10.31875 V 7.1437499 H 9.2604165 Z m 0,-1.0583333 V 6.0854166 H 8.2020832 v 1.0583333 z m 0,-1.0583333 H 10.31875 V 5.0270833 H 9.2604165 Z m 0,-1.0583333 V 3.96875 H 8.2020832 v 1.0583333 z m 1.0583335,0 h 1.058333 V 3.96875 H 10.31875 Z m 1.058333,0 v 1.0583333 h 1.058334 V 5.0270833 Z m 1.058334,0 H 13.49375 V 3.96875 h -1.058333 z m 1.058333,0 v 1.0583333 h 1.058333 V 5.0270833 Z m 1.058333,0 h 1.058333 V 3.96875 h -1.058333 z m 0,1.0583333 v 1.0583333 h 1.058333 V 6.0854166 Z m 0,1.0583333 H 13.49375 v 1.0583333 h 1.058333 z m 0,1.0583333 v 1.0583334 h 1.058333 V 8.2020832 Z m 0,1.0583334 H 13.49375 V 10.31875 h 1.058333 z m 0,1.0583334 v 1.058333 h 1.058333 V 10.31875 Z m -1.058333,0 h -1.058333 v 1.058333 h 1.058333 z m -1.058333,0 V 9.2604166 H 11.377083 V 10.31875 Z m -1.058334,0 H 10.31875 v 1.058333 h 1.058333 z m 0,-1.0583334 V 8.2020832 H 10.31875 v 1.0583334 z m 0,-1.0583334 h 1.058334 V 7.1437499 h -1.058334 z m 0,-1.0583333 V 6.0854166 H 10.31875 v 1.0583333 z m 1.058334,0 H 13.49375 V 6.0854166 h -1.058333 z m 0,1.0583333 V 9.2604166 H 13.49375 V 8.2020832 Z" />
        </g>
      </g>
      <g
         id="g1582"
         transform="translate(10.583333,-283.24167)">
        <path
           inkscape:connector-curvature="0"
           style="fill:#5e9c76;fill-opacity:1;stroke:none;stroke-width:0.207385;stroke-linecap:round;stroke-linejoin:round;stroke-miterlimit:4;stroke-dasharray:none;stroke-opacity:1"
           d="m 1.8520834,287.73958 c 1.1726341,0 2.1166667,0.94402 2.1166667,2.11665 0,1.17264 -0.9440326,2.11668 -2.1166667,2.11668 -1.17263328,0 -2.11666638,-0.94404 -2.11666638,-2.11668 0,-1.17263 0.9440331,-2.11665 2.11666638,-2.11665 z"
           id="rect4496-7" />
        <path
           inkscape:connector-curvature="0"
           style="fill:#bae0bd;fill-opacity:1;stroke:none;stroke-width:0.185499;stroke-linecap:round;stroke-linejoin:round;stroke-miterlimit:4;stroke-dasharray:none;stroke-opacity:1"
           d="m 1.8520831,288.00416 c 1.026051,0 1.8520778,0.82604 1.8520778,1.85209 0,1.02605 -0.8260268,1.85208 -1.8520778,1.85208 -1.02605068,0 -1.852076984375,-0.82603 -1.852076984375,-1.85208 0,-1.02605 0.826026304375,-1.85209 1.852076984375,-1.85209 z"
           id="rect4570" />
        <path
           inkscape:connector-curvature="0"
           style="fill:#ffb851;fill-opacity:0.960784;stroke:none;stroke-width:0.207385;stroke-linecap:round;stroke-linejoin:round;stroke-miterlimit:4;stroke-dasharray:none;stroke-opacity:1"
           d="m -2.3812504,287.73958 c 1.1726335,0 2.11666682,0.94402 2.11666682,2.11665 0,1.17264 -0.94403332,2.11668 -2.11666682,2.11668 -1.1726333,0 -2.1166665,-0.94404 -2.1166665,-2.11668 0,-1.17263 0.9440332,-2.11665 2.1166665,-2.11665 z"
           id="rect4496-7-5" />
        <path
           inkscape:connector-curvature="0"
           style="fill:#ffeea3;fill-opacity:1;stroke:none;stroke-width:0.1855;stroke-linecap:round;stroke-linejoin:round;stroke-miterlimit:4;stroke-dasharray:none;stroke-opacity:1"
           d="m -2.3812501,288.00416 c 1.026054,0 1.85208322,0.82602 1.85208322,1.85208 0,1.02606 -0.82602922,1.85209 -1.85208322,1.85209 -1.0260544,0 -1.8520835,-0.82603 -1.8520835,-1.85209 0,-1.02606 0.8260291,-1.85208 1.8520835,-1.85208 z"
           id="rect4570-9" />
        <path
           inkscape:connector-curvature="0"
           style="fill:#287bc2;fill-opacity:1;stroke:none;stroke-width:0.207385;stroke-linecap:round;stroke-linejoin:round;stroke-miterlimit:4;stroke-dasharray:none;stroke-opacity:1"
           d="m 1.8520831,291.97293 c 1.1726334,0 2.1166667,0.94401 2.1166667,2.11665 0,1.17263 -0.9440333,2.11667 -2.1166667,2.11667 -1.17263328,0 -2.11666668,-0.94404 -2.11666668,-2.11667 0,-1.17264 0.9440334,-2.11665 2.11666668,-2.11665 z"
           id="rect4496" />
        <path
           inkscape:connector-curvature="0"
           style="fill:#78c1ff;fill-opacity:1;stroke:none;stroke-width:0.1855;stroke-linecap:round;stroke-linejoin:round;stroke-miterlimit:4;stroke-dasharray:none;stroke-opacity:1"
           d="m 1.8520831,292.2375 c 1.0260542,0 1.8520834,0.82602 1.8520834,1.85208 0,1.02606 -0.8260292,1.8521 -1.8520834,1.8521 -1.02605408,0 -1.852083284375,-0.82604 -1.852083284375,-1.8521 0,-1.02606 0.826029204375,-1.85208 1.852083284375,-1.85208 z"
           id="rect4570-9-6" />
        <path
           inkscape:connector-curvature="0"
           style="fill:#c74343;fill-opacity:1;stroke:none;stroke-width:0.207385;stroke-linecap:round;stroke-linejoin:round;stroke-miterlimit:4;stroke-dasharray:none;stroke-opacity:1"
           d="m -2.3812501,291.97293 c 1.1726335,0 2.11666652,0.94401 2.11666652,2.11665 0,1.17263 -0.94403302,2.11667 -2.11666652,2.11667 -1.1726334,0 -2.1166666,-0.94404 -2.1166666,-2.11667 0,-1.17264 0.9440332,-2.11665 2.1166666,-2.11665 z"
           id="rect4496-3" />
        <path
           inkscape:connector-curvature="0"
           style="fill:#f78f8f;fill-opacity:1;stroke:none;stroke-width:0.1855;stroke-linecap:round;stroke-linejoin:round;stroke-miterlimit:4;stroke-dasharray:none;stroke-opacity:1"
           d="m -2.3812501,292.2375 c 1.026054,0 1.85208322,0.82603 1.85208322,1.85209 0,1.02606 -0.82602922,1.85209 -1.85208322,1.85209 -1.0260543,0 -1.8520834,-0.82603 -1.8520834,-1.85209 0,-1.02606 0.8260291,-1.85209 1.8520834,-1.85209 z"
           id="rect4570-9-6-5" />
        <path
           inkscape:connector-curvature="0"
           style="fill:#b1c1d4;fill-opacity:1;stroke:none;stroke-width:0.207385;stroke-linecap:round;stroke-linejoin:round;stroke-miterlimit:4;stroke-dasharray:none;stroke-opacity:1"
           d="m -0.26458328,289.85625 c 1.1726331,0 2.11666638,0.94401 2.11666638,2.11665 0,1.17263 -0.94403328,2.11667 -2.11666638,2.11667 -1.17263362,0 -2.11666682,-0.94404 -2.11666682,-2.11667 0,-1.17264 0.9440332,-2.11665 2.11666682,-2.11665 z"
           id="rect4496-1" />
        <path
           inkscape:connector-curvature="0"
           style="fill:#ecf6ff;fill-opacity:1;stroke:none;stroke-width:0.1855;stroke-linecap:round;stroke-linejoin:round;stroke-miterlimit:4;stroke-dasharray:none;stroke-opacity:1"
           d="m -0.26458328,290.12082 c 1.0260539,0 1.85208308,0.82603 1.85208308,1.85209 0,1.02606 -0.82602918,1.85209 -1.85208308,1.85209 -1.02605442,0 -1.85208352,-0.82603 -1.85208352,-1.85209 0,-1.02606 0.8260291,-1.85209 1.85208352,-1.85209 z"
           id="rect4570-9-6-2" />
        <path
           style="fill:#4b6477;fill-opacity:1;stroke-width:0.00463516"
           d="m -0.26458328,290.91458 c 0,0 -0.4997815,0.6686 -0.6356202,0.86971 -0.092108,0.13637 -0.15878812,0.29381 -0.15812982,0.47026 0.00161,0.43042 0.35699122,0.77828 0.79375002,0.77669 0.4367586,0.002 0.792139,-0.34627 0.7937498,-0.77669 6.614e-4,-0.17645 -0.066022,-0.33389 -0.1581296,-0.47026 -0.097949,-0.14501 -0.6356202,-0.86971 -0.6356202,-0.86971 z"
           id="path4823-3"
           inkscape:connector-curvature="0"
           sodipodi:nodetypes="ccccccc" />
      </g>
    </g>
  </g>
</svg>
