<?xml version="1.0" encoding="UTF-8" standalone="no"?>
<!-- Created with Inkscape (http://www.inkscape.org/) -->

<svg
   width="64"
   height="64"
   viewBox="0 0 16.933333 16.933333"
   version="1.1"
   id="svg5"
   inkscape:version="1.2.1 (9c6d41e410, 2022-07-14)"
   sodipodi:docname="application-x-nintendo-ds-rom.svg"
   xmlns:inkscape="http://www.inkscape.org/namespaces/inkscape"
   xmlns:sodipodi="http://sodipodi.sourceforge.net/DTD/sodipodi-0.dtd"
   xmlns="http://www.w3.org/2000/svg"
   xmlns:svg="http://www.w3.org/2000/svg">
  <sodipodi:namedview
     id="namedview7"
     pagecolor="#ffffff"
     bordercolor="#000000"
     borderopacity="0.25"
     inkscape:showpageshadow="false"
     inkscape:pageopacity="0.0"
     inkscape:pagecheckerboard="0"
     inkscape:deskcolor="#d1d1d1"
     inkscape:document-units="px"
     showgrid="true"
     inkscape:zoom="40.96"
     inkscape:cx="34.509277"
     inkscape:cy="32.568359"
     inkscape:window-width="2160"
     inkscape:window-height="1330"
     inkscape:window-x="0"
     inkscape:window-y="0"
     inkscape:window-maximized="1"
     inkscape:current-layer="g6756">
    <inkscape:grid
       type="xygrid"
       id="grid290"
       originx="0"
       originy="0" />
  </sodipodi:namedview>
  <defs
     id="defs2" />
  <g
     inkscape:label="Capa 1"
     inkscape:groupmode="layer"
     id="layer1">
    <g
       id="g6756"
       transform="translate(-4.4979166,0.79374982)">
      <path
         id="rect971"
         d="M 6.8791666,-0.52916665 H 19.05 c 0.586316,0 1.058333,0.47201666 1.058333,1.05833332 V 14.816666 c 0,0.586317 -0.472017,1.058334 -1.058333,1.058334 H 6.8791666 c -0.5863167,0 -1.0583334,-0.472017 -1.0583334,-1.058334 V 0.52916667 c 0,-0.58631666 0.4720167,-1.05833332 1.0583334,-1.05833332 z"
         style="fill:#a3b7cc;fill-opacity:1;stroke:none;stroke-width:0.529167;stroke-linecap:round;stroke-linejoin:round;stroke-miterlimit:4;stroke-dasharray:none;stroke-dashoffset:0;stroke-opacity:1"
         inkscape:connector-curvature="0"
         sodipodi:nodetypes="sssssssss" />
      <path
         id="rect971-2"
         d="M 6.8791666,-0.26458332 H 19.05 c 0.439737,0 0.79375,0.35401249 0.79375,0.79374999 V 14.816666 c 0,0.439738 -0.354013,0.79375 -0.79375,0.79375 H 6.8791666 c -0.4397375,0 -0.79375,-0.354012 -0.79375,-0.79375 V 0.52916667 c 0,-0.4397375 0.3540125,-0.79374999 0.79375,-0.79374999 z"
         style="fill:#fafafa;fill-opacity:1;stroke:none;stroke-width:0.529167;stroke-linecap:round;stroke-linejoin:round;stroke-miterlimit:4;stroke-dasharray:none;stroke-dashoffset:0;stroke-opacity:1"
         inkscape:connector-curvature="0"
         sodipodi:nodetypes="sssssssss" />
      <path
         id="rect5971-3"
         style="fill:#dfe6ec;fill-opacity:1;stroke-width:0.423333;stroke-linecap:round;stroke-linejoin:round;stroke-miterlimit:1.8;paint-order:stroke fill markers;stop-color:#000000"
         d="m 6.8791666,-0.26458332 c -0.439736,0 -0.79375,0.35401249 -0.79375,0.79374999 V 0.79375 h 0.044958 1.0133748 v -1.01337532 -0.044958 z M 7.1437499,0.79375 V 1.8520833 H 8.2020832 V 0.79375 Z m 1.0583333,0 H 9.2604165 V -0.26458332 H 8.2020832 Z m 1.0583333,0 V 1.8520833 H 10.31875 V 0.79375 Z m 1.0583335,0 h 1.058333 V -0.26458332 H 10.31875 Z m 1.058333,0 v 1.0583333 h 1.058334 V 0.79375 Z m 1.058334,0 h 1.058333 v -1.05833332 h -1.058333 z m 1.058333,0 v 1.0583333 h 1.058333 V 0.79375 Z m 1.058333,0 h 1.058333 v -1.05833332 h -1.058333 z m 1.058333,0 V 1.8520833 H 16.66875 V 0.79375 Z m 1.058334,0 h 1.058333 V -0.26458332 H 16.66875 Z m 1.058333,0 v 1.0583333 h 1.058333 V 0.79375 Z m 1.058333,0 h 1.013375 0.04496 V 0.52916667 c 0,-0.4397375 -0.354014,-0.79374999 -0.79375,-0.79374999 h -0.264584 v 0.044958 z m 0,1.0583333 V 2.9104166 H 19.84375 V 1.8520833 Z m 0,1.0583333 H 17.727083 V 3.96875 h 1.058333 z m 0,1.0583334 V 5.0270833 H 19.84375 V 3.96875 Z m 0,1.0583333 h -1.058333 v 1.0583333 h 1.058333 z m 0,1.0583333 V 7.1437499 H 19.84375 V 6.0854166 Z m 0,1.0583333 h -1.058333 v 1.0583333 h 1.058333 z m 0,1.0583333 V 9.2604166 H 19.84375 V 8.2020832 Z m 0,1.0583334 H 17.727083 V 10.31875 h 1.058333 z m 0,1.0583334 v 1.058333 H 19.84375 V 10.31875 Z m 0,1.058333 h -1.058333 v 1.058334 h 1.058333 z m 0,1.058334 v 1.058333 h 1.058334 v -1.058333 z m 0,1.058333 h -1.058333 v 1.058333 h 1.058333 z m 0,1.058333 v 1.013375 0.04496 H 19.05 c 0.439736,0 0.79375,-0.354012 0.79375,-0.79375 v -0.264583 h -0.04496 z m -1.058333,0 H 16.66875 v 1.058333 h 1.058333 z m -1.058333,0 V 13.49375 h -1.058334 v 1.058333 z m -1.058334,0 h -1.058333 v 1.058333 h 1.058333 z m -1.058333,0 V 13.49375 H 13.49375 v 1.058333 z m -1.058333,0 h -1.058333 v 1.058333 h 1.058333 z m -1.058333,0 V 13.49375 h -1.058334 v 1.058333 z m -1.058334,0 H 10.31875 v 1.058333 h 1.058333 z m -1.058333,0 V 13.49375 H 9.2604165 v 1.058333 z m -1.0583335,0 H 8.2020832 v 1.058333 h 1.0583333 z m -1.0583333,0 V 13.49375 H 7.1437499 v 1.058333 z m -1.0583333,0 H 6.1303751 6.0854166 v 0.264583 c 0,0.439738 0.354014,0.79375 0.79375,0.79375 h 0.2645833 v -0.04496 z m 0,-1.058333 V 12.435417 H 6.0854166 v 1.058333 z m 0,-1.058333 H 8.2020832 V 11.377083 H 7.1437499 Z m 0,-1.058334 V 10.31875 H 6.0854166 v 1.058333 z m 0,-1.058333 H 8.2020832 V 9.2604166 H 7.1437499 Z m 0,-1.0583334 V 8.2020832 H 6.0854166 v 1.0583334 z m 0,-1.0583334 H 8.2020832 V 7.1437499 H 7.1437499 Z m 0,-1.0583333 V 6.0854166 H 6.0854166 v 1.0583333 z m 0,-1.0583333 H 8.2020832 V 5.0270833 H 7.1437499 Z m 0,-1.0583333 V 3.96875 H 6.0854166 v 1.0583333 z m 0,-1.0583333 H 8.2020832 V 2.9104166 H 7.1437499 Z m 0,-1.0583334 V 1.8520833 H 6.0854166 v 1.0583333 z m 1.0583333,0 H 9.2604165 V 1.8520833 H 8.2020832 Z m 1.0583333,0 V 3.96875 H 10.31875 V 2.9104166 Z m 1.0583335,0 h 1.058333 V 1.8520833 H 10.31875 Z m 1.058333,0 V 3.96875 h 1.058334 V 2.9104166 Z m 1.058334,0 H 13.49375 V 1.8520833 h -1.058333 z m 1.058333,0 V 3.96875 h 1.058333 V 2.9104166 Z m 1.058333,0 h 1.058333 V 1.8520833 h -1.058333 z m 1.058333,0 V 3.96875 H 16.66875 V 2.9104166 Z m 1.058334,0 h 1.058333 V 1.8520833 H 16.66875 Z m 0,1.0583334 v 1.0583333 h 1.058333 V 3.96875 Z m 0,1.0583333 h -1.058334 v 1.0583333 h 1.058334 z m 0,1.0583333 v 1.0583333 h 1.058333 V 6.0854166 Z m 0,1.0583333 h -1.058334 v 1.0583333 h 1.058334 z m 0,1.0583333 v 1.0583334 h 1.058333 V 8.2020832 Z m 0,1.0583334 H 15.610416 V 10.31875 h 1.058334 z m 0,1.0583334 v 1.058333 h 1.058333 V 10.31875 Z m 0,1.058333 h -1.058334 v 1.058334 h 1.058334 z m 0,1.058334 v 1.058333 h 1.058333 v -1.058333 z m -1.058334,0 h -1.058333 v 1.058333 h 1.058333 z m -1.058333,0 V 11.377083 H 13.49375 v 1.058334 z m -1.058333,0 h -1.058333 v 1.058333 h 1.058333 z m -1.058333,0 v -1.058334 h -1.058334 v 1.058334 z m -1.058334,0 H 10.31875 v 1.058333 h 1.058333 z m -1.058333,0 V 11.377083 H 9.2604165 v 1.058334 z m -1.0583335,0 H 8.2020832 v 1.058333 h 1.0583333 z m 0,-1.058334 V 10.31875 H 8.2020832 v 1.058333 z m 0,-1.058333 H 10.31875 V 9.2604166 H 9.2604165 Z m 0,-1.0583334 V 8.2020832 H 8.2020832 v 1.0583334 z m 0,-1.0583334 H 10.31875 V 7.1437499 H 9.2604165 Z m 0,-1.0583333 V 6.0854166 H 8.2020832 v 1.0583333 z m 0,-1.0583333 H 10.31875 V 5.0270833 H 9.2604165 Z m 0,-1.0583333 V 3.96875 H 8.2020832 v 1.0583333 z m 1.0583335,0 h 1.058333 V 3.96875 H 10.31875 Z m 1.058333,0 v 1.0583333 h 1.058334 V 5.0270833 Z m 1.058334,0 H 13.49375 V 3.96875 h -1.058333 z m 1.058333,0 v 1.0583333 h 1.058333 V 5.0270833 Z m 1.058333,0 h 1.058333 V 3.96875 h -1.058333 z m 0,1.0583333 v 1.0583333 h 1.058333 V 6.0854166 Z m 0,1.0583333 H 13.49375 v 1.0583333 h 1.058333 z m 0,1.0583333 v 1.0583334 h 1.058333 V 8.2020832 Z m 0,1.0583334 H 13.49375 V 10.31875 h 1.058333 z m 0,1.0583334 v 1.058333 h 1.058333 V 10.31875 Z m -1.058333,0 h -1.058333 v 1.058333 h 1.058333 z m -1.058333,0 V 9.2604166 H 11.377083 V 10.31875 Z m -1.058334,0 H 10.31875 v 1.058333 h 1.058333 z m 0,-1.0583334 V 8.2020832 H 10.31875 v 1.0583334 z m 0,-1.0583334 h 1.058334 V 7.1437499 h -1.058334 z m 0,-1.0583333 V 6.0854166 H 10.31875 v 1.0583333 z m 1.058334,0 H 13.49375 V 6.0854166 h -1.058333 z m 0,1.0583333 V 9.2604166 H 13.49375 V 8.2020832 Z" />
      <g
         id="g29442"
         transform="translate(-1.3229169,1.0583336)">
        <path
           id="rect30528-2-6"
           style="fill:#36404d;fill-opacity:1;stroke-width:0.529167;stroke-linecap:round;stroke-linejoin:round;stroke-miterlimit:1.8;paint-order:stroke fill markers;stop-color:#000000"
           d="M 12.435416,3.1749998 V 3.7041665 H 11.90625 v 0.5291667 h -0.529167 v 0.5291666 h -0.529167 v 0.79375 H 10.31875 v 3.175 h 1.058333 v 1.3229162 h 0.529167 v 0.529167 h 4.7625 v -0.529167 h 0.529166 V 8.7312498 h 1.058334 v -3.175 h -0.529167 v -0.79375 H 17.197916 V 4.2333332 H 16.66875 V 3.7041665 H 16.139583 V 3.1749998 Z"
           sodipodi:nodetypes="ccccccccccccccccccccccccccccc" />
        <path
           id="rect31357-7-7"
           style="fill:#fcd277;fill-opacity:1;stroke-width:0.529167;stroke-linecap:round;stroke-linejoin:round;stroke-miterlimit:1.8;paint-order:stroke fill markers;stop-color:#000000"
           d="M 12.435416,8.2020831 V 8.7312498 H 11.90625 v 0.79375 h 0.529166 v 0.5291662 h 2.910417 0.79375 V 9.5249998 h 0.529167 v -0.79375 H 16.139583 V 8.2020831 h -0.79375 v 0.79375 h -0.529167 v -0.79375 h -1.058333 v 0.79375 h -0.529167 v -0.79375 z"
           sodipodi:nodetypes="cccccccccccccccccccccc" />
        <path
           id="rect31666-5"
           style="fill:#fcd277;fill-opacity:1;stroke-width:0.529167;stroke-linecap:round;stroke-linejoin:round;stroke-miterlimit:1.8;paint-order:stroke fill markers;stop-color:#000000"
           d="M 12.964583,3.7041665 V 4.2333332 H 12.435416 V 4.7624998 H 11.90625 v 0.5291667 h -0.529167 v 0.79375 H 10.847916 V 8.2020831 H 11.90625 V 7.6729165 h 4.7625 v 0.5291666 h 1.058333 v -1.3229166 -0.79375 h -0.529167 v -0.79375 H 16.66875 V 4.7624998 H 16.139583 V 4.2333332 H 15.610416 V 3.7041665 Z"
           sodipodi:nodetypes="cccccccccccccccccccccccccc" />
        <path
           id="rect28262"
           style="fill:#cc8e54;fill-opacity:1;stroke-width:0.529167;stroke-linecap:square;stroke-miterlimit:1.8;paint-order:stroke fill markers;stop-color:#000000"
           d="M 12.435416,4.2333332 V 4.7624998 H 11.90625 v 0.5291667 h 4.7625 V 4.7624998 H 16.139583 V 4.2333332 Z m -1.058333,1.8520833 v 0 h -0.529167 l 1e-6,1.0583333 h 6.879167 l -1e-6,-1.0583333 h -0.529167 v 0 z m -0.529167,0.2645833 1e-6,0.5291666 v 0.5291667 h 0.529167 V 6.8791664 h 5.820833 v 0.5291667 h 0.529167 V 6.8791664 l -1e-6,-0.5291666 z"
           sodipodi:nodetypes="ccccccccccccccccccccccccccccc" />
      </g>
    </g>
  </g>
</svg>
