<?xml version="1.0" encoding="UTF-8" standalone="no"?>
<!-- Created with Inkscape (http://www.inkscape.org/) -->

<svg
   width="64"
   height="64"
   viewBox="0 0 16.933333 16.933333"
   version="1.1"
   id="svg5"
   inkscape:version="1.2.1 (9c6d41e410, 2022-07-14)"
   sodipodi:docname="application-postscript.svg"
   xmlns:inkscape="http://www.inkscape.org/namespaces/inkscape"
   xmlns:sodipodi="http://sodipodi.sourceforge.net/DTD/sodipodi-0.dtd"
   xmlns="http://www.w3.org/2000/svg"
   xmlns:svg="http://www.w3.org/2000/svg">
  <sodipodi:namedview
     id="namedview7"
     pagecolor="#ffffff"
     bordercolor="#000000"
     borderopacity="0.25"
     inkscape:showpageshadow="false"
     inkscape:pageopacity="0.0"
     inkscape:pagecheckerboard="0"
     inkscape:deskcolor="#d1d1d1"
     inkscape:document-units="px"
     showgrid="true"
     inkscape:zoom="14.481547"
     inkscape:cx="40.15455"
     inkscape:cy="31.833616"
     inkscape:window-width="2160"
     inkscape:window-height="1330"
     inkscape:window-x="0"
     inkscape:window-y="0"
     inkscape:window-maximized="1"
     inkscape:current-layer="layer1">
    <inkscape:grid
       type="xygrid"
       id="grid290"
       originx="0"
       originy="0" />
  </sodipodi:namedview>
  <defs
     id="defs2" />
  <g
     inkscape:label="Capa 1"
     inkscape:groupmode="layer"
     id="layer1">
    <g
       id="g3464"
       transform="translate(-3.7041665,-0.2645785)">
      <path
         sodipodi:nodetypes="sssssssss"
         inkscape:connector-curvature="0"
         style="vector-effect:none;fill:#da4452;fill-opacity:1;stroke:none;stroke-width:0.529167;stroke-linecap:round;stroke-linejoin:round;stroke-miterlimit:4;stroke-dasharray:none;stroke-dashoffset:0;stroke-opacity:1"
         d="M 6.0854167,0.52916 H 18.256249 c 0.586317,0 1.058334,0.47202 1.058334,1.05833 v 14.2875 c 0,0.58632 -0.472017,1.05834 -1.058334,1.05834 H 6.0854167 C 5.4991,16.93333 5.027083,16.46131 5.027083,15.87499 V 1.58749 c 0,-0.58631 0.472017,-1.05833 1.0583337,-1.05833 z"
         id="rect971" />
      <path
         sodipodi:nodetypes="sssssssss"
         inkscape:connector-curvature="0"
         style="vector-effect:none;fill:#f86c82;fill-opacity:1;stroke:none;stroke-width:0.529167;stroke-linecap:round;stroke-linejoin:round;stroke-miterlimit:4;stroke-dasharray:none;stroke-dashoffset:0;stroke-opacity:1"
         d="M 6.0854167,0.79374 H 18.256249 c 0.439738,0 0.79375,0.35402 0.79375,0.79375 v 14.2875 c 0,0.43974 -0.354012,0.79375 -0.79375,0.79375 H 6.0854167 c -0.4397377,0 -0.7937497,-0.35401 -0.7937497,-0.79375 V 1.58749 c 0,-0.43973 0.354012,-0.79375 0.7937497,-0.79375 z"
         id="rect971-2" />
      <path
         inkscape:connector-curvature="0"
         style="opacity:0.99;vector-effect:none;fill:#feecef;fill-opacity:1;stroke:none;stroke-width:0.529167;stroke-linecap:round;stroke-linejoin:round;stroke-miterlimit:4;stroke-dasharray:none;stroke-dashoffset:0;stroke-opacity:1"
         d="m 10.583333,5.55625 c -0.146579,0 -0.264583,0.118 -0.264583,0.26458 v 1.32292 0.26458 h 3.704166 V 6.61458 5.82083 c 0,-0.14658 -0.118004,-0.26458 -0.264583,-0.26458 z M 9.2604167,6.35 v 1.32291 h -0.264583 c -0.146579,0 -0.264584,0.11801 -0.264584,0.26459 v 2.91041 c 0,0.14658 0.118005,0.26459 0.264584,0.26459 h 0.79375 V 9.525 h 4.7624993 v 1.5875 h 0.79375 c 0.14658,0 0.264583,-0.11801 0.264583,-0.26459 V 7.9375 c 0,-0.14658 -0.118003,-0.26459 -0.264583,-0.26459 H 15.08125 V 6.35 H 14.2875 V 7.67291 H 10.054167 V 6.35 Z m 0.7937503,3.43958 v 0.79375 0.79375 0.26458 c 0,0.14658 0.118005,0.26459 0.264583,0.26459 h 3.704166 c 0.146579,0 0.264583,-0.11801 0.264583,-0.26459 V 11.37708 10.58333 9.78958 Z"
         id="rect883-9" />
    </g>
  </g>
</svg>
