<?xml version="1.0" encoding="UTF-8" standalone="no"?>
<!-- Created with Inkscape (http://www.inkscape.org/) -->

<svg
   width="64"
   height="64"
   viewBox="0 0 16.933333 16.933333"
   version="1.1"
   id="svg5"
   inkscape:version="1.2.1 (9c6d41e410, 2022-07-14)"
   sodipodi:docname="application-vnd.appimage.svg"
   xmlns:inkscape="http://www.inkscape.org/namespaces/inkscape"
   xmlns:sodipodi="http://sodipodi.sourceforge.net/DTD/sodipodi-0.dtd"
   xmlns="http://www.w3.org/2000/svg"
   xmlns:svg="http://www.w3.org/2000/svg">
  <sodipodi:namedview
     id="namedview7"
     pagecolor="#ffffff"
     bordercolor="#000000"
     borderopacity="0.25"
     inkscape:showpageshadow="false"
     inkscape:pageopacity="0.0"
     inkscape:pagecheckerboard="0"
     inkscape:deskcolor="#d1d1d1"
     inkscape:document-units="px"
     showgrid="true"
     inkscape:zoom="14.481547"
     inkscape:cx="39.118749"
     inkscape:cy="31.833616"
     inkscape:window-width="2160"
     inkscape:window-height="1330"
     inkscape:window-x="0"
     inkscape:window-y="0"
     inkscape:window-maximized="1"
     inkscape:current-layer="g4367">
    <inkscape:grid
       type="xygrid"
       id="grid290"
       originx="0"
       originy="0" />
  </sodipodi:namedview>
  <defs
     id="defs2" />
  <g
     inkscape:label="Capa 1"
     inkscape:groupmode="layer"
     id="layer1">
    <g
       id="g4367"
       transform="translate(-7.4083332,-0.26458347)">
      <g
         id="g6756"
         transform="translate(2.9104166,1.0583333)">
        <path
           id="rect971"
           d="M 6.8791666,-0.52916665 H 19.05 c 0.586316,0 1.058333,0.47201666 1.058333,1.05833332 V 14.816666 c 0,0.586317 -0.472017,1.058334 -1.058333,1.058334 H 6.8791666 c -0.5863167,0 -1.0583334,-0.472017 -1.0583334,-1.058334 V 0.52916667 c 0,-0.58631666 0.4720167,-1.05833332 1.0583334,-1.05833332 z"
           style="fill:#1d86d9;fill-opacity:1;stroke:none;stroke-width:0.529167;stroke-linecap:round;stroke-linejoin:round;stroke-miterlimit:4;stroke-dasharray:none;stroke-dashoffset:0;stroke-opacity:1"
           inkscape:connector-curvature="0"
           sodipodi:nodetypes="sssssssss" />
        <path
           id="rect971-2"
           d="M 6.8791666,-0.26458332 H 19.05 c 0.439737,0 0.79375,0.35401249 0.79375,0.79374999 V 14.816666 c 0,0.439738 -0.354013,0.79375 -0.79375,0.79375 H 6.8791666 c -0.4397375,0 -0.79375,-0.354012 -0.79375,-0.79375 V 0.52916667 c 0,-0.4397375 0.3540125,-0.79374999 0.79375,-0.79374999 z"
           style="fill:#359ef2;fill-opacity:1;stroke:none;stroke-width:0.529167;stroke-linecap:round;stroke-linejoin:round;stroke-miterlimit:4;stroke-dasharray:none;stroke-dashoffset:0;stroke-opacity:1"
           inkscape:connector-curvature="0"
           sodipodi:nodetypes="sssssssss" />
        <path
           id="rect5971-3"
           style="fill:#44acff;fill-opacity:1;stroke-width:0.423333;stroke-linecap:round;stroke-linejoin:round;stroke-miterlimit:1.8;paint-order:stroke fill markers;stop-color:#000000"
           d="m 6.8791666,-0.26458332 c -0.439736,0 -0.79375,0.35401249 -0.79375,0.79374999 V 0.79375 h 0.044958 1.0133748 v -1.01337532 -0.044958 z M 7.1437499,0.79375 V 1.8520833 H 8.2020832 V 0.79375 Z m 1.0583333,0 H 9.2604165 V -0.26458332 H 8.2020832 Z m 1.0583333,0 V 1.8520833 H 10.31875 V 0.79375 Z m 1.0583335,0 h 1.058333 V -0.26458332 H 10.31875 Z m 1.058333,0 v 1.0583333 h 1.058334 V 0.79375 Z m 1.058334,0 h 1.058333 v -1.05833332 h -1.058333 z m 1.058333,0 v 1.0583333 h 1.058333 V 0.79375 Z m 1.058333,0 h 1.058333 v -1.05833332 h -1.058333 z m 1.058333,0 V 1.8520833 H 16.66875 V 0.79375 Z m 1.058334,0 h 1.058333 V -0.26458332 H 16.66875 Z m 1.058333,0 v 1.0583333 h 1.058333 V 0.79375 Z m 1.058333,0 h 1.013375 0.04496 V 0.52916667 c 0,-0.4397375 -0.354014,-0.79374999 -0.79375,-0.79374999 h -0.264584 v 0.044958 z m 0,1.0583333 V 2.9104166 H 19.84375 V 1.8520833 Z m 0,1.0583333 H 17.727083 V 3.96875 h 1.058333 z m 0,1.0583334 V 5.0270833 H 19.84375 V 3.96875 Z m 0,1.0583333 h -1.058333 v 1.0583333 h 1.058333 z m 0,1.0583333 V 7.1437499 H 19.84375 V 6.0854166 Z m 0,1.0583333 h -1.058333 v 1.0583333 h 1.058333 z m 0,1.0583333 V 9.2604166 H 19.84375 V 8.2020832 Z m 0,1.0583334 H 17.727083 V 10.31875 h 1.058333 z m 0,1.0583334 v 1.058333 H 19.84375 V 10.31875 Z m 0,1.058333 h -1.058333 v 1.058334 h 1.058333 z m 0,1.058334 v 1.058333 h 1.058334 v -1.058333 z m 0,1.058333 h -1.058333 v 1.058333 h 1.058333 z m 0,1.058333 v 1.013375 0.04496 H 19.05 c 0.439736,0 0.79375,-0.354012 0.79375,-0.79375 v -0.264583 h -0.04496 z m -1.058333,0 H 16.66875 v 1.058333 h 1.058333 z m -1.058333,0 V 13.49375 h -1.058334 v 1.058333 z m -1.058334,0 h -1.058333 v 1.058333 h 1.058333 z m -1.058333,0 V 13.49375 H 13.49375 v 1.058333 z m -1.058333,0 h -1.058333 v 1.058333 h 1.058333 z m -1.058333,0 V 13.49375 h -1.058334 v 1.058333 z m -1.058334,0 H 10.31875 v 1.058333 h 1.058333 z m -1.058333,0 V 13.49375 H 9.2604165 v 1.058333 z m -1.0583335,0 H 8.2020832 v 1.058333 h 1.0583333 z m -1.0583333,0 V 13.49375 H 7.1437499 v 1.058333 z m -1.0583333,0 H 6.1303751 6.0854166 v 0.264583 c 0,0.439738 0.354014,0.79375 0.79375,0.79375 h 0.2645833 v -0.04496 z m 0,-1.058333 V 12.435417 H 6.0854166 v 1.058333 z m 0,-1.058333 H 8.2020832 V 11.377083 H 7.1437499 Z m 0,-1.058334 V 10.31875 H 6.0854166 v 1.058333 z m 0,-1.058333 H 8.2020832 V 9.2604166 H 7.1437499 Z m 0,-1.0583334 V 8.2020832 H 6.0854166 v 1.0583334 z m 0,-1.0583334 H 8.2020832 V 7.1437499 H 7.1437499 Z m 0,-1.0583333 V 6.0854166 H 6.0854166 v 1.0583333 z m 0,-1.0583333 H 8.2020832 V 5.0270833 H 7.1437499 Z m 0,-1.0583333 V 3.96875 H 6.0854166 v 1.0583333 z m 0,-1.0583333 H 8.2020832 V 2.9104166 H 7.1437499 Z m 0,-1.0583334 V 1.8520833 H 6.0854166 v 1.0583333 z m 1.0583333,0 H 9.2604165 V 1.8520833 H 8.2020832 Z m 1.0583333,0 V 3.96875 H 10.31875 V 2.9104166 Z m 1.0583335,0 h 1.058333 V 1.8520833 H 10.31875 Z m 1.058333,0 V 3.96875 h 1.058334 V 2.9104166 Z m 1.058334,0 H 13.49375 V 1.8520833 h -1.058333 z m 1.058333,0 V 3.96875 h 1.058333 V 2.9104166 Z m 1.058333,0 h 1.058333 V 1.8520833 h -1.058333 z m 1.058333,0 V 3.96875 H 16.66875 V 2.9104166 Z m 1.058334,0 h 1.058333 V 1.8520833 H 16.66875 Z m 0,1.0583334 v 1.0583333 h 1.058333 V 3.96875 Z m 0,1.0583333 h -1.058334 v 1.0583333 h 1.058334 z m 0,1.0583333 v 1.0583333 h 1.058333 V 6.0854166 Z m 0,1.0583333 h -1.058334 v 1.0583333 h 1.058334 z m 0,1.0583333 v 1.0583334 h 1.058333 V 8.2020832 Z m 0,1.0583334 H 15.610416 V 10.31875 h 1.058334 z m 0,1.0583334 v 1.058333 h 1.058333 V 10.31875 Z m 0,1.058333 h -1.058334 v 1.058334 h 1.058334 z m 0,1.058334 v 1.058333 h 1.058333 v -1.058333 z m -1.058334,0 h -1.058333 v 1.058333 h 1.058333 z m -1.058333,0 V 11.377083 H 13.49375 v 1.058334 z m -1.058333,0 h -1.058333 v 1.058333 h 1.058333 z m -1.058333,0 v -1.058334 h -1.058334 v 1.058334 z m -1.058334,0 H 10.31875 v 1.058333 h 1.058333 z m -1.058333,0 V 11.377083 H 9.2604165 v 1.058334 z m -1.0583335,0 H 8.2020832 v 1.058333 h 1.0583333 z m 0,-1.058334 V 10.31875 H 8.2020832 v 1.058333 z m 0,-1.058333 H 10.31875 V 9.2604166 H 9.2604165 Z m 0,-1.0583334 V 8.2020832 H 8.2020832 v 1.0583334 z m 0,-1.0583334 H 10.31875 V 7.1437499 H 9.2604165 Z m 0,-1.0583333 V 6.0854166 H 8.2020832 v 1.0583333 z m 0,-1.0583333 H 10.31875 V 5.0270833 H 9.2604165 Z m 0,-1.0583333 V 3.96875 H 8.2020832 v 1.0583333 z m 1.0583335,0 h 1.058333 V 3.96875 H 10.31875 Z m 1.058333,0 v 1.0583333 h 1.058334 V 5.0270833 Z m 1.058334,0 H 13.49375 V 3.96875 h -1.058333 z m 1.058333,0 v 1.0583333 h 1.058333 V 5.0270833 Z m 1.058333,0 h 1.058333 V 3.96875 h -1.058333 z m 0,1.0583333 v 1.0583333 h 1.058333 V 6.0854166 Z m 0,1.0583333 H 13.49375 v 1.0583333 h 1.058333 z m 0,1.0583333 v 1.0583334 h 1.058333 V 8.2020832 Z m 0,1.0583334 H 13.49375 V 10.31875 h 1.058333 z m 0,1.0583334 v 1.058333 h 1.058333 V 10.31875 Z m -1.058333,0 h -1.058333 v 1.058333 h 1.058333 z m -1.058333,0 V 9.2604166 H 11.377083 V 10.31875 Z m -1.058334,0 H 10.31875 v 1.058333 h 1.058333 z m 0,-1.0583334 V 8.2020832 H 10.31875 v 1.0583334 z m 0,-1.0583334 h 1.058334 V 7.1437499 h -1.058334 z m 0,-1.0583333 V 6.0854166 H 10.31875 v 1.0583333 z m 1.058334,0 H 13.49375 V 6.0854166 h -1.058333 z m 0,1.0583333 V 9.2604166 H 13.49375 V 8.2020832 Z" />
      </g>
      <g
         id="g1543"
         transform="translate(19.583364,-283.02364)">
        <path
           style="opacity:0.98;vector-effect:none;fill:#b8e1ff;fill-opacity:1;stroke:none;stroke-width:2.25;stroke-linecap:round;stroke-linejoin:round;stroke-miterlimit:4;stroke-dasharray:none;stroke-dashoffset:0;stroke-opacity:1;paint-order:normal"
           d="m 32,23 c -4.986,0 -9,4.014 -9,9 0,4.986 4.014,9 9,9 4.986,0 9,-4.014 9,-9 0,-4.986 -4.014,-9 -9,-9 z m 0,4 c 2.77,0 5,2.23 5,5 0,2.77 -2.23,5 -5,5 -2.77,0 -5,-2.23 -5,-5 0,-2.77 2.23,-5 5,-5 z"
           transform="matrix(0.26458333,0,0,0.26458333,-12.175031,283.28822)"
           id="rect866" />
        <path
           style="color:#000000;font-style:normal;font-variant:normal;font-weight:normal;font-stretch:normal;font-size:medium;line-height:normal;font-family:sans-serif;font-variant-ligatures:normal;font-variant-position:normal;font-variant-caps:normal;font-variant-numeric:normal;font-variant-alternates:normal;font-feature-settings:normal;text-indent:0;text-align:start;text-decoration:none;text-decoration-line:none;text-decoration-style:solid;text-decoration-color:#000000;letter-spacing:normal;word-spacing:normal;text-transform:none;writing-mode:lr-tb;direction:ltr;text-orientation:mixed;dominant-baseline:auto;baseline-shift:baseline;text-anchor:start;white-space:normal;shape-padding:0;clip-rule:nonzero;display:inline;overflow:visible;visibility:visible;opacity:1;isolation:auto;mix-blend-mode:normal;color-interpolation:sRGB;color-interpolation-filters:linearRGB;solid-color:#000000;solid-opacity:1;vector-effect:none;fill:#f0f8fe;fill-opacity:1;fill-rule:nonzero;stroke:none;stroke-width:2;stroke-linecap:round;stroke-linejoin:round;stroke-miterlimit:4;stroke-dasharray:none;stroke-dashoffset:0;stroke-opacity:1;color-rendering:auto;image-rendering:auto;shape-rendering:auto;text-rendering:auto;enable-background:accumulate"
           d="m 22.998047,16 a 1.0001,1.0001 0 0 0 -0.878906,0.53125 l -8.001953,15 a 1.0001,1.0001 0 0 0 0,0.9375 l 8.001953,15 A 1.0001,1.0001 0 0 0 22.998047,48 h 18.003906 a 1.0001,1.0001 0 0 0 0.878906,-0.53125 l 8.001953,-15 a 1.0001,1.0001 0 0 0 0,-0.9375 l -8.001953,-15 A 1.0001,1.0001 0 0 0 41.001953,16 Z M 32,24 c 4.432,0 8,3.568 8,8 0,4.432 -3.568,8 -8,8 -4.432,0 -8,-3.568 -8,-8 0,-4.432 3.568,-8 8,-8 z"
           transform="matrix(0.26458333,0,0,0.26458333,-12.175031,283.28822)"
           id="path848" />
      </g>
    </g>
  </g>
</svg>
