<?xml version="1.0" encoding="UTF-8" standalone="no"?>
<!-- Created with Inkscape (http://www.inkscape.org/) -->

<svg
   width="64"
   height="64"
   viewBox="0 0 64 64"
   version="1.1"
   id="svg8"
   inkscape:version="1.2.1 (9c6d41e410, 2022-07-14)"
   sodipodi:docname="application-mac-binhex40.svg"
   xml:space="preserve"
   xmlns:inkscape="http://www.inkscape.org/namespaces/inkscape"
   xmlns:sodipodi="http://sodipodi.sourceforge.net/DTD/sodipodi-0.dtd"
   xmlns="http://www.w3.org/2000/svg"
   xmlns:svg="http://www.w3.org/2000/svg"
   xmlns:rdf="http://www.w3.org/1999/02/22-rdf-syntax-ns#"
   xmlns:cc="http://creativecommons.org/ns#"
   xmlns:dc="http://purl.org/dc/elements/1.1/"><title
     id="title7895">Antu icon Theme</title><defs
     id="defs2"><style
       id="current-color-scheme"
       type="text/css">
      .ColorScheme-Text {
        color:#122036;
      }
      </style><style
       type="text/css"
       id="current-color-scheme-5">
      .ColorScheme-Text {
        color:#122036;
      }
      </style><style
       type="text/css"
       id="current-color-scheme-2">
      .ColorScheme-Text {
        color:#122036;
      }
      </style><style
       type="text/css"
       id="current-color-scheme-1">
      .ColorScheme-Text {
        color:#122036;
      }
      </style><style
       id="current-color-scheme-10"
       type="text/css">
      .ColorScheme-Text {
        color:#122036;
      }
      </style><style
       type="text/css"
       id="current-color-scheme-0">
      .ColorScheme-Text {
        color:#122036;
      }
      </style><style
       type="text/css"
       id="current-color-scheme-26">
      .ColorScheme-Text {
        color:#122036;
      }
      </style><style
       id="current-color-scheme-27"
       type="text/css">
      .ColorScheme-Text {
        color:#122036;
      }
      </style><style
       id="current-color-scheme-7"
       type="text/css">
      .ColorScheme-Text {
        color:#122036;
      }
      </style><style
       id="current-color-scheme-5-09"
       type="text/css">
      .ColorScheme-Text {
        color:#122036;
      }
      </style><style
       id="current-color-scheme-0-3"
       type="text/css">
      .ColorScheme-Text {
        color:#122036;
      }
      </style><style
       id="current-color-scheme-7-9"
       type="text/css">
      .ColorScheme-Text {
        color:#122036;
      }
      </style><style
       id="current-color-scheme-5-3"
       type="text/css">
      .ColorScheme-Text {
        color:#122036;
      }
      </style><style
       id="current-color-scheme-79"
       type="text/css">
      .ColorScheme-Text {
        color:#122036;
      }
      </style><style
       id="current-color-scheme-7-2"
       type="text/css">
      .ColorScheme-Text {
        color:#122036;
      }
      </style><style
       id="current-color-scheme-5-0"
       type="text/css">
      .ColorScheme-Text {
        color:#122036;
      }
      </style><style
       type="text/css"
       id="current-color-scheme-6">
      .ColorScheme-Text {
        color:#122036;
      }
      </style><style
       id="current-color-scheme-5-2"
       type="text/css">
      .ColorScheme-Text {
        color:#122036;
      }
      </style><style
       id="current-color-scheme-2-1"
       type="text/css">
      .ColorScheme-Text {
        color:#122036;
      }
      </style><style
       id="current-color-scheme-1-7"
       type="text/css">
      .ColorScheme-Text {
        color:#122036;
      }
      </style><style
       type="text/css"
       id="current-color-scheme-10-8">
      .ColorScheme-Text {
        color:#122036;
      }
      </style><style
       id="current-color-scheme-0-5"
       type="text/css">
      .ColorScheme-Text {
        color:#122036;
      }
      </style><style
       id="current-color-scheme-26-7"
       type="text/css">
      .ColorScheme-Text {
        color:#122036;
      }
      </style><style
       type="text/css"
       id="current-color-scheme-27-4">
      .ColorScheme-Text {
        color:#122036;
      }
      </style><style
       type="text/css"
       id="current-color-scheme-7-1">
      .ColorScheme-Text {
        color:#122036;
      }
      </style><style
       type="text/css"
       id="current-color-scheme-5-09-8">
      .ColorScheme-Text {
        color:#122036;
      }
      </style><style
       type="text/css"
       id="current-color-scheme-0-3-5">
      .ColorScheme-Text {
        color:#122036;
      }
      </style><style
       type="text/css"
       id="current-color-scheme-7-9-9">
      .ColorScheme-Text {
        color:#122036;
      }
      </style><style
       type="text/css"
       id="current-color-scheme-5-3-7">
      .ColorScheme-Text {
        color:#122036;
      }
      </style><style
       type="text/css"
       id="current-color-scheme-79-5">
      .ColorScheme-Text {
        color:#122036;
      }
      </style><style
       type="text/css"
       id="current-color-scheme-7-2-3">
      .ColorScheme-Text {
        color:#122036;
      }
      </style><style
       type="text/css"
       id="current-color-scheme-5-0-8">
      .ColorScheme-Text {
        color:#122036;
      }
      </style></defs><sodipodi:namedview
     id="base"
     pagecolor="#ffffff"
     bordercolor="#666666"
     borderopacity="1.0"
     inkscape:pageopacity="0.0"
     inkscape:pageshadow="2"
     inkscape:zoom="16"
     inkscape:cx="53.90625"
     inkscape:cy="19.4375"
     inkscape:document-units="px"
     inkscape:current-layer="layer1"
     showgrid="true"
     units="px"
     inkscape:window-width="2160"
     inkscape:window-height="1330"
     inkscape:window-x="0"
     inkscape:window-y="0"
     inkscape:window-maximized="1"
     objecttolerance="10"
     gridtolerance="10"
     guidetolerance="10"
     inkscape:snap-bbox="true"
     inkscape:bbox-paths="true"
     inkscape:bbox-nodes="true"
     inkscape:snap-bbox-edge-midpoints="true"
     inkscape:snap-bbox-midpoints="true"
     inkscape:object-paths="true"
     inkscape:snap-intersection-paths="true"
     inkscape:showpageshadow="false"
     inkscape:pagecheckerboard="0"
     inkscape:deskcolor="#d1d1d1"><inkscape:grid
       type="xygrid"
       id="grid7897"
       empspacing="4" /></sodipodi:namedview><metadata
     id="metadata5"><rdf:RDF><cc:Work
         rdf:about=""><dc:format>image/svg+xml</dc:format><dc:type
           rdf:resource="http://purl.org/dc/dcmitype/StillImage" /><dc:title>Antu icon Theme</dc:title></cc:Work></rdf:RDF></metadata><g
     inkscape:label="Capa 1"
     inkscape:groupmode="layer"
     id="layer1"
     transform="translate(0,-250.64999)"><path
       id="rect971"
       d="m 9,251.64999 h 46 c 2.216,0 4,1.784 4,4 v 54 c 0,2.216 -1.784,4 -4,4 H 9 c -2.216,0 -4,-1.784 -4,-4 v -54 c 0,-2.216 1.784,-4 4,-4 z"
       style="vector-effect:none;fill:#a3b7cc;fill-opacity:1;stroke:none;stroke-width:2;stroke-linecap:round;stroke-linejoin:round;stroke-miterlimit:4;stroke-dasharray:none;stroke-dashoffset:0;stroke-opacity:1"
       inkscape:connector-curvature="0"
       sodipodi:nodetypes="sssssssss" /><path
       id="rect971-2"
       d="m 9,252.64999 h 46 c 1.662,0 3,1.338 3,3 v 54 c 0,1.662 -1.338,3 -3,3 H 9 c -1.662,0 -3,-1.338 -3,-3 v -54 c 0,-1.662 1.338,-3 3,-3 z"
       style="fill:#fafafa;fill-opacity:1;stroke:none;stroke-width:2;stroke-linecap:round;stroke-linejoin:round;stroke-miterlimit:4;stroke-dasharray:none;stroke-dashoffset:0;stroke-opacity:1"
       inkscape:connector-curvature="0"
       sodipodi:nodetypes="sssssssss" /><path
       id="rect5971-3"
       style="fill:#d8e0e8;fill-opacity:1;stroke-width:1.6;stroke-linecap:round;stroke-linejoin:round;stroke-miterlimit:1.8;paint-order:stroke fill markers;stop-color:#000000"
       d="M 9 252.64999 C 7.3380057 252.64999 6 253.98799 6 255.64999 L 6 256.64999 L 6.1699219 256.64999 L 10 256.64999 L 10 252.81991 L 10 252.64999 L 9 252.64999 z M 10 256.64999 L 10 260.64999 L 14 260.64999 L 14 256.64999 L 10 256.64999 z M 14 256.64999 L 18 256.64999 L 18 252.64999 L 14 252.64999 L 14 256.64999 z M 18 256.64999 L 18 260.64999 L 22 260.64999 L 22 256.64999 L 18 256.64999 z M 22 256.64999 L 26 256.64999 L 26 252.64999 L 22 252.64999 L 22 256.64999 z M 26 256.64999 L 26 260.64999 L 30 260.64999 L 30 256.64999 L 26 256.64999 z M 30 256.64999 L 34 256.64999 L 34 252.64999 L 30 252.64999 L 30 256.64999 z M 34 256.64999 L 34 260.64999 L 38 260.64999 L 38 256.64999 L 34 256.64999 z M 38 256.64999 L 42 256.64999 L 42 252.64999 L 38 252.64999 L 38 256.64999 z M 42 256.64999 L 42 260.64999 L 46 260.64999 L 46 256.64999 L 42 256.64999 z M 46 256.64999 L 50 256.64999 L 50 252.64999 L 46 252.64999 L 46 256.64999 z M 50 256.64999 L 50 260.64999 L 54 260.64999 L 54 256.64999 L 50 256.64999 z M 54 256.64999 L 57.830078 256.64999 L 58 256.64999 L 58 255.64999 C 58 253.98799 56.661994 252.64999 55 252.64999 L 54 252.64999 L 54 252.81991 L 54 256.64999 z M 54 260.64999 L 54 264.64999 L 58 264.64999 L 58 260.64999 L 54 260.64999 z M 54 264.64999 L 50 264.64999 L 50 268.64999 L 54 268.64999 L 54 264.64999 z M 54 268.64999 L 54 272.64999 L 58 272.64999 L 58 268.64999 L 54 268.64999 z M 54 272.64999 L 50 272.64999 L 50 276.64999 L 54 276.64999 L 54 272.64999 z M 54 276.64999 L 54 280.64999 L 58 280.64999 L 58 276.64999 L 54 276.64999 z M 54 280.64999 L 50 280.64999 L 50 284.64999 L 54 284.64999 L 54 280.64999 z M 54 284.64999 L 54 288.64999 L 58 288.64999 L 58 284.64999 L 54 284.64999 z M 54 288.64999 L 50 288.64999 L 50 292.64999 L 54 292.64999 L 54 288.64999 z M 54 292.64999 L 54 296.64999 L 58 296.64999 L 58 292.64999 L 54 292.64999 z M 54 296.64999 L 50 296.64999 L 50 300.64999 L 54 300.64999 L 54 296.64999 z M 54 300.64999 L 54 304.64999 L 58 304.64999 L 58 300.64999 L 54 300.64999 z M 54 304.64999 L 50 304.64999 L 50 308.64999 L 54 308.64999 L 54 304.64999 z M 54 308.64999 L 54 312.48007 L 54 312.64999 L 55 312.64999 C 56.661994 312.64999 58 311.31199 58 309.64999 L 58 308.64999 L 57.830078 308.64999 L 54 308.64999 z M 50 308.64999 L 46 308.64999 L 46 312.64999 L 50 312.64999 L 50 308.64999 z M 46 308.64999 L 46 304.64999 L 42 304.64999 L 42 308.64999 L 46 308.64999 z M 42 308.64999 L 38 308.64999 L 38 312.64999 L 42 312.64999 L 42 308.64999 z M 38 308.64999 L 38 304.64999 L 34 304.64999 L 34 308.64999 L 38 308.64999 z M 34 308.64999 L 30 308.64999 L 30 312.64999 L 34 312.64999 L 34 308.64999 z M 30 308.64999 L 30 304.64999 L 26 304.64999 L 26 308.64999 L 30 308.64999 z M 26 308.64999 L 22 308.64999 L 22 312.64999 L 26 312.64999 L 26 308.64999 z M 22 308.64999 L 22 304.64999 L 18 304.64999 L 18 308.64999 L 22 308.64999 z M 18 308.64999 L 14 308.64999 L 14 312.64999 L 18 312.64999 L 18 308.64999 z M 14 308.64999 L 14 304.64999 L 10 304.64999 L 10 308.64999 L 14 308.64999 z M 10 308.64999 L 6.1699219 308.64999 L 6 308.64999 L 6 309.64999 C 6 311.31199 7.3380057 312.64999 9 312.64999 L 10 312.64999 L 10 312.48007 L 10 308.64999 z M 10 304.64999 L 10 300.64999 L 6 300.64999 L 6 304.64999 L 10 304.64999 z M 10 300.64999 L 14 300.64999 L 14 296.64999 L 10 296.64999 L 10 300.64999 z M 10 296.64999 L 10 292.64999 L 6 292.64999 L 6 296.64999 L 10 296.64999 z M 10 292.64999 L 14 292.64999 L 14 288.64999 L 10 288.64999 L 10 292.64999 z M 10 288.64999 L 10 284.64999 L 6 284.64999 L 6 288.64999 L 10 288.64999 z M 10 284.64999 L 14 284.64999 L 14 280.64999 L 10 280.64999 L 10 284.64999 z M 10 280.64999 L 10 276.64999 L 6 276.64999 L 6 280.64999 L 10 280.64999 z M 10 276.64999 L 14 276.64999 L 14 272.64999 L 10 272.64999 L 10 276.64999 z M 10 272.64999 L 10 268.64999 L 6 268.64999 L 6 272.64999 L 10 272.64999 z M 10 268.64999 L 14 268.64999 L 14 264.64999 L 10 264.64999 L 10 268.64999 z M 10 264.64999 L 10 260.64999 L 6 260.64999 L 6 264.64999 L 10 264.64999 z M 14 264.64999 L 18 264.64999 L 18 260.64999 L 14 260.64999 L 14 264.64999 z M 18 264.64999 L 18 268.64999 L 22 268.64999 L 22 264.64999 L 18 264.64999 z M 22 264.64999 L 26 264.64999 L 26 260.64999 L 22 260.64999 L 22 264.64999 z M 26 264.64999 L 26 268.64999 L 30 268.64999 L 30 264.64999 L 26 264.64999 z M 30 264.64999 L 34 264.64999 L 34 260.64999 L 30 260.64999 L 30 264.64999 z M 34 264.64999 L 34 268.64999 L 38 268.64999 L 38 264.64999 L 34 264.64999 z M 38 264.64999 L 42 264.64999 L 42 260.64999 L 38 260.64999 L 38 264.64999 z M 42 264.64999 L 42 268.64999 L 46 268.64999 L 46 264.64999 L 42 264.64999 z M 46 264.64999 L 50 264.64999 L 50 260.64999 L 46 260.64999 L 46 264.64999 z M 46 268.64999 L 46 272.64999 L 50 272.64999 L 50 268.64999 L 46 268.64999 z M 46 272.64999 L 42 272.64999 L 42 276.64999 L 46 276.64999 L 46 272.64999 z M 46 276.64999 L 46 280.64999 L 50 280.64999 L 50 276.64999 L 46 276.64999 z M 46 280.64999 L 42 280.64999 L 42 284.64999 L 46 284.64999 L 46 280.64999 z M 46 284.64999 L 46 288.64999 L 50 288.64999 L 50 284.64999 L 46 284.64999 z M 46 288.64999 L 42 288.64999 L 42 292.64999 L 46 292.64999 L 46 288.64999 z M 46 292.64999 L 46 296.64999 L 50 296.64999 L 50 292.64999 L 46 292.64999 z M 46 296.64999 L 42 296.64999 L 42 300.64999 L 46 300.64999 L 46 296.64999 z M 46 300.64999 L 46 304.64999 L 50 304.64999 L 50 300.64999 L 46 300.64999 z M 42 300.64999 L 38 300.64999 L 38 304.64999 L 42 304.64999 L 42 300.64999 z M 38 300.64999 L 38 296.64999 L 34 296.64999 L 34 300.64999 L 38 300.64999 z M 34 300.64999 L 30 300.64999 L 30 304.64999 L 34 304.64999 L 34 300.64999 z M 30 300.64999 L 30 296.64999 L 26 296.64999 L 26 300.64999 L 30 300.64999 z M 26 300.64999 L 22 300.64999 L 22 304.64999 L 26 304.64999 L 26 300.64999 z M 22 300.64999 L 22 296.64999 L 18 296.64999 L 18 300.64999 L 22 300.64999 z M 18 300.64999 L 14 300.64999 L 14 304.64999 L 18 304.64999 L 18 300.64999 z M 18 296.64999 L 18 292.64999 L 14 292.64999 L 14 296.64999 L 18 296.64999 z M 18 292.64999 L 22 292.64999 L 22 288.64999 L 18 288.64999 L 18 292.64999 z M 18 288.64999 L 18 284.64999 L 14 284.64999 L 14 288.64999 L 18 288.64999 z M 18 284.64999 L 22 284.64999 L 22 280.64999 L 18 280.64999 L 18 284.64999 z M 18 280.64999 L 18 276.64999 L 14 276.64999 L 14 280.64999 L 18 280.64999 z M 18 276.64999 L 22 276.64999 L 22 272.64999 L 18 272.64999 L 18 276.64999 z M 18 272.64999 L 18 268.64999 L 14 268.64999 L 14 272.64999 L 18 272.64999 z M 22 272.64999 L 26 272.64999 L 26 268.64999 L 22 268.64999 L 22 272.64999 z M 26 272.64999 L 26 276.64999 L 30 276.64999 L 30 272.64999 L 26 272.64999 z M 30 272.64999 L 34 272.64999 L 34 268.64999 L 30 268.64999 L 30 272.64999 z M 34 272.64999 L 34 276.64999 L 38 276.64999 L 38 272.64999 L 34 272.64999 z M 38 272.64999 L 42 272.64999 L 42 268.64999 L 38 268.64999 L 38 272.64999 z M 38 276.64999 L 38 280.64999 L 42 280.64999 L 42 276.64999 L 38 276.64999 z M 38 280.64999 L 34 280.64999 L 34 284.64999 L 38 284.64999 L 38 280.64999 z M 38 284.64999 L 38 288.64999 L 42 288.64999 L 42 284.64999 L 38 284.64999 z M 38 288.64999 L 34 288.64999 L 34 292.64999 L 38 292.64999 L 38 288.64999 z M 38 292.64999 L 38 296.64999 L 42 296.64999 L 42 292.64999 L 38 292.64999 z M 34 292.64999 L 30 292.64999 L 30 296.64999 L 34 296.64999 L 34 292.64999 z M 30 292.64999 L 30 288.64999 L 26 288.64999 L 26 292.64999 L 30 292.64999 z M 26 292.64999 L 22 292.64999 L 22 296.64999 L 26 296.64999 L 26 292.64999 z M 26 288.64999 L 26 284.64999 L 22 284.64999 L 22 288.64999 L 26 288.64999 z M 26 284.64999 L 30 284.64999 L 30 280.64999 L 26 280.64999 L 26 284.64999 z M 26 280.64999 L 26 276.64999 L 22 276.64999 L 22 280.64999 L 26 280.64999 z M 30 280.64999 L 34 280.64999 L 34 276.64999 L 30 276.64999 L 30 280.64999 z M 30 284.64999 L 30 288.64999 L 34 288.64999 L 34 284.64999 L 30 284.64999 z " /><g
       inkscape:label="Capa 1"
       id="layer1-5"
       transform="translate(16,-16.0002)"><path
         id="rect843"
         d="m 3,283.64999 h 26 c 1.108,0 2,0.892 2,2 v 26 c 0,1.108 -0.892,2 -2,2 H 3 c -1.108,0 -2,-0.892 -2,-2 v -26 c 0,-1.108 0.892,-2 2,-2 z"
         style="opacity:1;fill:#287bc2;fill-opacity:1;stroke:none;stroke-width:2.39314;stroke-linecap:round;stroke-linejoin:round;stroke-miterlimit:4;stroke-dasharray:none;stroke-opacity:1"
         inkscape:connector-curvature="0" /><path
         id="rect843-3"
         d="m 3,284.64999 h 26 c 0.553999,0 1,0.446 1,1 v 26 c 0,0.554 -0.446001,1 -1,1 H 3 c -0.554,0 -1,-0.446 -1,-1 v -26 c 0,-0.554 0.446,-1 1,-1 z"
         style="opacity:1;fill:#78c1ff;fill-opacity:1;stroke:none;stroke-width:2.2336;stroke-linecap:round;stroke-linejoin:round;stroke-miterlimit:4;stroke-dasharray:none;stroke-opacity:1"
         inkscape:connector-curvature="0" /><g
         id="g945"
         transform="translate(1.9955523,7)"><path
           style="color:#000000;font-style:normal;font-variant:normal;font-weight:normal;font-stretch:normal;font-size:medium;line-height:normal;font-family:sans-serif;font-variant-ligatures:normal;font-variant-position:normal;font-variant-caps:normal;font-variant-numeric:normal;font-variant-alternates:normal;font-feature-settings:normal;text-indent:0;text-align:start;text-decoration:none;text-decoration-line:none;text-decoration-style:solid;text-decoration-color:#000000;letter-spacing:normal;word-spacing:normal;text-transform:none;writing-mode:lr-tb;direction:ltr;text-orientation:mixed;dominant-baseline:auto;baseline-shift:baseline;text-anchor:start;white-space:normal;shape-padding:0;clip-rule:nonzero;display:inline;overflow:visible;visibility:visible;opacity:1;isolation:auto;mix-blend-mode:normal;color-interpolation:sRGB;color-interpolation-filters:linearRGB;solid-color:#000000;solid-opacity:1;vector-effect:none;fill:#a3b7cc;fill-opacity:1;fill-rule:nonzero;stroke:none;stroke-width:2;stroke-linecap:round;stroke-linejoin:round;stroke-miterlimit:4;stroke-dasharray:none;stroke-dashoffset:0;stroke-opacity:1;color-rendering:auto;image-rendering:auto;shape-rendering:auto;text-rendering:auto;enable-background:accumulate"
           d="m 14,276.65039 c -0.359182,-2.9e-4 -0.690936,0.19205 -0.869141,0.50391 -2.566043,4.50533 -3.075855,9.05874 -3.126953,13.5 -6e-6,0.002 -6e-6,0.004 0,0.006 -0.0032,0.517 0.139316,1.09494 0.564453,1.49414 0.425137,0.39919 0.965142,0.49609 1.431641,0.49609 h 3 c 0,0 -0.0011,2.51784 0.125,5.41797 0.126093,2.90013 0.320373,6.08221 0.925781,7.89844 0.136314,0.40838 0.518687,0.6837 0.949219,0.68345 h 10 c 1.090703,0 2,-0.9093 2,-2 v -26 c 0,-1.0907 -0.909297,-2 -2,-2 z"
           id="rect843-3-5-1"
           inkscape:connector-curvature="0"
           sodipodi:nodetypes="cccccsccccssssc" /><path
           inkscape:connector-curvature="0"
           style="opacity:1;fill:#e8f6ff;fill-opacity:1;stroke:none;stroke-width:2.2336;stroke-linecap:round;stroke-linejoin:round;stroke-miterlimit:4;stroke-dasharray:none;stroke-opacity:1"
           d="m 14,277.64999 h 13 c 0.554,0 1,0.446 1,1 v 26 c 0,0.554 -0.446001,1 -1,1 H 17 c -1,-3 -1,-13 -1,-13 0,-0.57915 -0.372805,-1 -1,-1 h -3 c -0.658458,0 -1,-0.27116 -0.995518,-0.98432 0.05032,-4.37364 0.543893,-8.71124 2.995518,-13.01568 z"
           id="rect843-3-5"
           sodipodi:nodetypes="csssscccccc" /></g><path
         style="color:#000000;font-style:normal;font-variant:normal;font-weight:normal;font-stretch:normal;font-size:medium;line-height:normal;font-family:sans-serif;font-variant-ligatures:normal;font-variant-position:normal;font-variant-caps:normal;font-variant-numeric:normal;font-variant-alternates:normal;font-feature-settings:normal;text-indent:0;text-align:start;text-decoration:none;text-decoration-line:none;text-decoration-style:solid;text-decoration-color:#000000;letter-spacing:normal;word-spacing:normal;text-transform:none;writing-mode:lr-tb;direction:ltr;text-orientation:mixed;dominant-baseline:auto;baseline-shift:baseline;text-anchor:start;white-space:normal;shape-padding:0;clip-rule:nonzero;display:inline;overflow:visible;visibility:visible;opacity:1;isolation:auto;mix-blend-mode:normal;color-interpolation:sRGB;color-interpolation-filters:linearRGB;solid-color:#000000;solid-opacity:1;vector-effect:none;fill:#4f6683;fill-opacity:1;fill-rule:nonzero;stroke:none;stroke-width:1.0263;stroke-linecap:round;stroke-linejoin:round;stroke-miterlimit:4;stroke-dasharray:none;stroke-dashoffset:0;stroke-opacity:1;color-rendering:auto;image-rendering:auto;shape-rendering:auto;text-rendering:auto;enable-background:accumulate"
         d="M 8.984375,291.6246 C 8.4328588,291.63322 7.9924473,292.08674 8,292.63827 v 2 c -0.019125,1.35232 2.019125,1.35232 2,0 v -2 c 0.0077,-0.56377 -0.451871,-1.02248 -1.015625,-1.01367 z m 14,0 c -0.551516,0.009 -0.991928,0.46214 -0.984375,1.01367 v 2 c -0.01912,1.35232 2.019125,1.35232 2,0 v -2 c 0.0077,-0.56377 -0.451871,-1.02248 -1.015625,-1.01367 z m 2.5,11.00195 c -0.179522,10e-4 -0.345432,0.0959 -0.4375,0.25 -1.596339,2.42647 -5.305956,3.74593 -9.058594,3.7461 -3.752637,1.7e-4 -7.4545389,-1.32012 -9.0410154,-3.7461 -0.093805,-0.14786 -0.2565307,-0.2377 -0.4316406,-0.23828 -0.4126979,-0.002 -0.6590075,0.45897 -0.4277344,0.80078 1.8831257,2.8796 5.9132774,4.21112 9.9003904,4.21094 3.987114,-1.8e-4 8.022821,-1.33324 9.916016,-4.21094 0.244599,-0.34067 -5.39e-4,-0.81499 -0.419922,-0.8125 z"
         id="path966"
         inkscape:connector-curvature="0"
         sodipodi:nodetypes="ccccccccccccccscccscc" /></g></g></svg>
