<?xml version="1.0" encoding="UTF-8" standalone="no"?>
<!-- Created with Inkscape (http://www.inkscape.org/) -->

<svg
   width="64"
   height="64"
   viewBox="0 0 16.933333 16.933333"
   version="1.1"
   id="svg5"
   inkscape:version="1.2.1 (9c6d41e410, 2022-07-14)"
   sodipodi:docname="text-x-rpm-spec.svg"
   xmlns:inkscape="http://www.inkscape.org/namespaces/inkscape"
   xmlns:sodipodi="http://sodipodi.sourceforge.net/DTD/sodipodi-0.dtd"
   xmlns="http://www.w3.org/2000/svg"
   xmlns:svg="http://www.w3.org/2000/svg">
  <sodipodi:namedview
     id="namedview7"
     pagecolor="#ffffff"
     bordercolor="#000000"
     borderopacity="0.25"
     inkscape:showpageshadow="false"
     inkscape:pageopacity="0.0"
     inkscape:pagecheckerboard="0"
     inkscape:deskcolor="#d1d1d1"
     inkscape:document-units="px"
     showgrid="true"
     inkscape:zoom="14.481547"
     inkscape:cx="40.15455"
     inkscape:cy="31.833616"
     inkscape:window-width="2160"
     inkscape:window-height="1330"
     inkscape:window-x="0"
     inkscape:window-y="0"
     inkscape:window-maximized="1"
     inkscape:current-layer="layer1">
    <inkscape:grid
       type="xygrid"
       id="grid290"
       originx="0"
       originy="0" />
  </sodipodi:namedview>
  <defs
     id="defs2" />
  <g
     inkscape:label="Capa 1"
     inkscape:groupmode="layer"
     id="layer1">
    <g
       id="g31476"
       transform="translate(-1.8520825,-0.2645785)">
      <g
         id="g2912"
         transform="translate(13.459166,-284.42681)">
        <path
           sodipodi:nodetypes="sssssssss"
           inkscape:connector-curvature="0"
           style="opacity:1;fill:#dd4f66;fill-opacity:1;stroke:none;stroke-width:0.529167;stroke-linecap:round;stroke-linejoin:round;stroke-miterlimit:4;stroke-dasharray:none;stroke-dashoffset:0;stroke-opacity:1"
           d="M -9.2258336,284.95597 H 2.9449991 c 0.586317,0 1.058334,0.47202 1.058334,1.05833 v 14.2875 c 0,0.58632 -0.472017,1.05834 -1.058334,1.05834 H -9.2258336 c -0.5863166,0 -1.0583334,-0.47202 -1.0583334,-1.05834 v -14.2875 c 0,-0.58631 0.4720168,-1.05833 1.0583334,-1.05833 z"
           id="rect971" />
        <path
           sodipodi:nodetypes="sssssssss"
           inkscape:connector-curvature="0"
           style="opacity:1;fill:#ff778a;fill-opacity:1;stroke:none;stroke-width:0.529167;stroke-linecap:round;stroke-linejoin:round;stroke-miterlimit:4;stroke-dasharray:none;stroke-dashoffset:0;stroke-opacity:1"
           d="M -9.2258336,285.22055 H 2.9449991 c 0.439738,0 0.79375,0.35402 0.79375,0.79375 v 14.2875 c 0,0.43974 -0.354012,0.79375 -0.79375,0.79375 H -9.2258336 c -0.4397375,0 -0.7937504,-0.35401 -0.7937504,-0.79375 v -14.2875 c 0,-0.43973 0.3540129,-0.79375 0.7937504,-0.79375 z"
           id="rect971-2" />
        <path
           id="rect1296"
           d="m -4.4633337,284.95597 v 1.32292 2.64583 3.175 c 0,0.7329 0.5900208,1.32292 1.3229167,1.32292 0.7328958,0 1.3229166,-0.59002 1.3229166,-1.32292 v -3.175 -2.64583 -1.32292 H -3.140417 Z"
           style="opacity:1;fill:#36404d;fill-opacity:1;stroke:none;stroke-width:0.529167;stroke-linecap:round;stroke-linejoin:round;stroke-miterlimit:4;stroke-dasharray:none;stroke-dashoffset:0;stroke-opacity:1"
           inkscape:connector-curvature="0" />
        <path
           id="rect1301"
           d="m -4.1987504,285.22055 v 1.05834 3.175 2.64583 c 0,0.58632 0.4720167,1.05833 1.0583334,1.05833 0.5863166,0 1.0583333,-0.47201 1.0583333,-1.05833 v -2.64583 -3.175 -1.05834 H -3.140417 Z"
           style="opacity:1;fill:#4b6477;fill-opacity:1;stroke:none;stroke-width:0.529167;stroke-linecap:round;stroke-linejoin:round;stroke-miterlimit:4;stroke-dasharray:none;stroke-dashoffset:0;stroke-opacity:1"
           inkscape:connector-curvature="0" />
        <path
           id="path856"
           d="m -3.140417,285.22055 v 0.52917 h 0.5291666 v -0.52917 z m 0,0.52917 h -0.5291667 v 0.52917 h 0.5291667 z m 0,0.52917 v 0.52916 h 0.5291666 v -0.52916 z m 0,0.52916 h -0.5291667 v 0.52917 h 0.5291667 z m 0,0.52917 v 0.52917 h 0.5291666 v -0.52917 z m 0,0.52917 h -0.5291667 v 0.52916 h 0.5291667 z m 0,0.52916 v 0.52917 h 0.5291666 v -0.52917 z m 0,0.52917 h -0.5291667 v 0.52917 h 0.5291667 z m 0,0.52917 v 0.52916 h 0.5291666 v -0.52916 z m 0,0.52916 h -0.5291667 v 0.52917 h 0.5291667 z m 0,0.52917 v 0.52917 h 0.5291666 v -0.52917 z m 0,0.52917 h -0.5291667 v 0.52916 h 0.5291667 z m 0,0.52916 v 0.52917 h 0.5291666 v -0.52917 z m 0,0.52917 h -0.5291667 v 0.52917 h 0.5291667 z"
           style="opacity:1;fill:#f2f2f2;fill-opacity:1;stroke:none;stroke-width:0.529167;stroke-linecap:round;stroke-linejoin:round;stroke-miterlimit:4;stroke-dasharray:none;stroke-dashoffset:0;stroke-opacity:1"
           inkscape:connector-curvature="0" />
      </g>
      <rect
         style="fill:#dd4f66;fill-opacity:1;stroke-width:0.547375;stroke-linecap:round;stroke-linejoin:round;stroke-miterlimit:1.8;paint-order:stroke fill markers;stop-color:#000000"
         id="rect27645"
         width="5.2916665"
         height="5.2916665"
         x="7.6729164"
         y="10.054152"
         ry="2.6458333" />
      <rect
         style="fill:#fbebee;fill-opacity:1;stroke-width:0.492638;stroke-linecap:round;stroke-linejoin:round;stroke-miterlimit:1.8;paint-order:stroke fill markers;stop-color:#000000"
         id="rect27645-6"
         width="4.7624998"
         height="4.7624998"
         x="7.9375"
         y="10.31874"
         ry="2.3812499" />
      <path
         id="path27733"
         style="fill:#dd4f66;fill-opacity:1;stroke-width:0.593141;stroke-linecap:round;stroke-linejoin:round;stroke-miterlimit:1.8;paint-order:stroke fill markers;stop-color:#000000"
         d="M 10.31875,10.84791 V 11.1125 A 1.5875,1.5875 0 0 1 11.906249,12.7 h 0.264584 A 1.8520833,1.8520833 0 0 0 10.31875,10.84791 Z" />
      <path
         id="path27733-4"
         style="fill:#36404d;fill-opacity:1;stroke-width:0.593141;stroke-linecap:round;stroke-linejoin:round;stroke-miterlimit:1.8;paint-order:stroke fill markers;stop-color:#000000"
         d="M 10.31875,10.84791 V 11.1125 A 1.5875,1.5875 0 0 0 8.7312503,12.7 H 8.4666663 A 1.8520833,1.8520833 0 0 1 10.31875,10.84791 Z" />
      <path
         id="path30396-8"
         style="fill:#36404d;fill-opacity:1;stroke:none;stroke-width:0.264583;stroke-linecap:round;stroke-linejoin:round;stroke-miterlimit:1.8;stroke-dasharray:none;stroke-opacity:1;paint-order:stroke fill markers;stop-color:#000000"
         d="m 10.31875,11.90625 -0.3834393,0.9586 a 0.52916664,0.52916664 0 0 0 -0.1457276,0.36432 0.52916664,0.52916664 0 0 0 0.00207,0.0439 0.52916664,0.52916664 0 0 0 5.168e-4,0.007 0.52916664,0.52916664 0 0 0 0.00568,0.0413 0.52916664,0.52916664 0 0 0 0.00827,0.0382 0.52916664,0.52916664 0 0 0 0.0031,0.0109 0.52916664,0.52916664 0 0 0 0.011369,0.0356 0.52916664,0.52916664 0 0 0 0.00258,0.008 0.52916664,0.52916664 0 0 0 0.012919,0.0315 0.52916664,0.52916664 0 0 0 0.00413,0.009 0.52916664,0.52916664 0 0 0 0.043925,0.076 0.52916664,0.52916664 0 0 0 0.00517,0.007 0.52916664,0.52916664 0 0 0 0.024288,0.0315 0.52916664,0.52916664 0 0 0 0.028939,0.0315 0.52916664,0.52916664 0 0 0 0.00568,0.006 0.52916664,0.52916664 0 0 0 0.027905,0.0253 0.52916664,0.52916664 0 0 0 0.00413,0.004 0.52916664,0.52916664 0 0 0 0.029972,0.0232 0.52916664,0.52916664 0 0 0 0.0072,0.005 0.52916664,0.52916664 0 0 0 0.07596,0.0439 0.52916664,0.52916664 0 0 0 0.0093,0.004 0.52916664,0.52916664 0 0 0 0.03152,0.0129 0.52916664,0.52916664 0 0 0 0.0077,0.003 0.52916664,0.52916664 0 0 0 0.03566,0.0114 0.52916664,0.52916664 0 0 0 0.01085,0.003 0.52916664,0.52916664 0 0 0 0.03824,0.008 0.52916664,0.52916664 0 0 0 0.04134,0.006 0.52916664,0.52916664 0 0 0 0.0047,5.2e-4 0.52916664,0.52916664 0 0 0 0.0062,5.2e-4 0.52916664,0.52916664 0 0 0 0.03979,0.002 0.52916664,0.52916664 0 0 0 0.03204,-10e-4 0.52916664,0.52916664 0 0 0 0.0077,-5.1e-4 0.52916664,0.52916664 0 0 0 0.03152,-0.003 0.52916664,0.52916664 0 0 0 0.01912,-0.003 0.52916664,0.52916664 0 0 0 0.0052,-10e-4 0.52916664,0.52916664 0 0 0 0.02222,-0.005 0.52916664,0.52916664 0 0 0 0.0088,-0.002 0.52916664,0.52916664 0 0 0 0.02946,-0.008 0.52916664,0.52916664 0 0 0 0.0015,-5.1e-4 0.52916664,0.52916664 0 0 0 0.03566,-0.0129 0.52916664,0.52916664 0 0 0 0.0093,-0.004 0.52916664,0.52916664 0 0 0 0.02791,-0.0124 0.52916664,0.52916664 0 0 0 10e-4,-5.2e-4 0.52916664,0.52916664 0 0 0 0.02842,-0.015 0.52916664,0.52916664 0 0 0 0.0093,-0.006 0.52916664,0.52916664 0 0 0 0.0046,-0.003 0.52916664,0.52916664 0 0 0 0.02687,-0.0171 0.52916664,0.52916664 0 0 0 0.02584,-0.0191 0.52916664,0.52916664 0 0 0 0.0031,-0.003 0.52916664,0.52916664 0 0 0 0.02119,-0.0181 0.52916664,0.52916664 0 0 0 0.0088,-0.008 0.52916664,0.52916664 0 0 0 0.0031,-0.003 0.52916664,0.52916664 0 0 0 0.01137,-0.0114 0.52916664,0.52916664 0 0 0 0.01137,-0.0114 0.52916664,0.52916664 0 0 0 0.0026,-0.003 0.52916664,0.52916664 0 0 0 0.0078,-0.009 0.52916664,0.52916664 0 0 0 0.0021,-0.002 0.52916664,0.52916664 0 0 0 0.01602,-0.0191 0.52916664,0.52916664 0 0 0 0.0026,-0.003 0.52916664,0.52916664 0 0 0 0.01912,-0.0258 0.52916664,0.52916664 0 0 0 0.02429,-0.0388 0.52916664,0.52916664 0 0 0 0.001,-0.002 0.52916664,0.52916664 0 0 0 0.01499,-0.0284 0.52916664,0.52916664 0 0 0 0.0021,-0.004 0.52916664,0.52916664 0 0 0 0.0046,-0.0103 0.52916664,0.52916664 0 0 0 0.0098,-0.0238 0.52916664,0.52916664 0 0 0 0.0021,-0.006 0.52916664,0.52916664 0 0 0 0.01137,-0.0315 0.52916664,0.52916664 0 0 0 0.0036,-0.0139 0.52916664,0.52916664 0 0 0 0.0062,-0.0243 0.52916664,0.52916664 0 0 0 0.0015,-0.007 0.52916664,0.52916664 0 0 0 0.0041,-0.0207 0.52916664,0.52916664 0 0 0 0.0031,-0.0191 0.52916664,0.52916664 0 0 0 0.0031,-0.0315 0.52916664,0.52916664 0 0 0 5.17e-4,-0.008 0.52916664,0.52916664 0 0 0 10e-4,-0.032 0.52916664,0.52916664 0 0 0 -0.145728,-0.36484 z" />
    </g>
  </g>
</svg>
