<?xml version="1.0" encoding="UTF-8" standalone="no"?>
<!-- Created with Inkscape (http://www.inkscape.org/) -->

<svg
   width="64"
   height="64"
   viewBox="0 0 16.933333 16.933333"
   version="1.1"
   id="svg1399"
   inkscape:version="1.2.1 (9c6d41e410, 2022-07-14)"
   sodipodi:docname="image-x-emf.svg"
   xml:space="preserve"
   xmlns:inkscape="http://www.inkscape.org/namespaces/inkscape"
   xmlns:sodipodi="http://sodipodi.sourceforge.net/DTD/sodipodi-0.dtd"
   xmlns="http://www.w3.org/2000/svg"
   xmlns:svg="http://www.w3.org/2000/svg"
   xmlns:rdf="http://www.w3.org/1999/02/22-rdf-syntax-ns#"
   xmlns:cc="http://creativecommons.org/ns#"
   xmlns:dc="http://purl.org/dc/elements/1.1/"><defs
     id="defs1393"><style
       id="current-color-scheme"
       type="text/css">
      .ColorScheme-Text {
        color:#122036;
      }
      </style><style
       id="current-color-scheme-2"
       type="text/css">
      .ColorScheme-Text {
        color:#122036;
      }
      </style><style
       id="current-color-scheme-0"
       type="text/css">
      .ColorScheme-Text {
        color:#122036;
      }
      </style></defs><sodipodi:namedview
     id="base"
     pagecolor="#ffffff"
     bordercolor="#666666"
     borderopacity="1.0"
     inkscape:pageopacity="0.0"
     inkscape:pageshadow="2"
     inkscape:zoom="11.2"
     inkscape:cx="38.169643"
     inkscape:cy="28.035714"
     inkscape:document-units="px"
     inkscape:current-layer="g1779"
     showgrid="true"
     inkscape:showpageshadow="false"
     units="px"
     inkscape:window-width="2160"
     inkscape:window-height="1330"
     inkscape:window-x="0"
     inkscape:window-y="0"
     inkscape:window-maximized="1"
     inkscape:pagecheckerboard="0"
     inkscape:deskcolor="#d1d1d1"><inkscape:grid
       type="xygrid"
       id="grid31362" /></sodipodi:namedview><metadata
     id="metadata1396"><rdf:RDF><cc:Work
         rdf:about=""><dc:format>image/svg+xml</dc:format><dc:type
           rdf:resource="http://purl.org/dc/dcmitype/StillImage" /></cc:Work></rdf:RDF></metadata><g
     inkscape:label="Capa 1"
     inkscape:groupmode="layer"
     id="layer1"
     transform="translate(0,-280.06672)"><g
       id="g1779"
       transform="translate(12.141622,-3.1546885)"><path
         id="rect971"
         d="m -9.7603727,283.48599 c -0.5863163,0 -1.0583333,0.47202 -1.0583333,1.05833 v 3.70417 1.05833 9.525 c 0,0.58632 0.472017,1.05834 1.0583333,1.05834 H 2.41046 c 0.586317,0 1.058334,-0.47202 1.058334,-1.05834 v -9.525 -1.05833 -0.26458 -3.43959 c 0,-0.58631 -0.472017,-1.05833 -1.058334,-1.05833 z"
         style="opacity:1;vector-effect:none;fill:#0b8bf4;fill-opacity:1;stroke:none;stroke-width:0.52916664;stroke-linecap:round;stroke-linejoin:round;stroke-miterlimit:4;stroke-dasharray:none;stroke-dashoffset:0;stroke-opacity:1"
         inkscape:connector-curvature="0" /><path
         id="rect971-2"
         d="m -9.7603727,283.75057 c -0.4397373,0 -0.7937503,0.35402 -0.7937503,0.79375 v 3.175 0.52917 0.79375 9.78958 c 0,0.43974 0.354013,0.79375 0.7937503,0.79375 H 2.41046 c 0.439738,0 0.79375,-0.35401 0.79375,-0.79375 v -9.78958 -0.79375 -0.52917 -3.175 c 0,-0.43973 -0.354012,-0.79375 -0.79375,-0.79375 z"
         style="opacity:1;vector-effect:none;fill:#64b4f6;fill-opacity:1;stroke:none;stroke-width:0.52916664;stroke-linecap:round;stroke-linejoin:round;stroke-miterlimit:4;stroke-dasharray:none;stroke-dashoffset:0;stroke-opacity:1"
         inkscape:connector-curvature="0" /><path
         id="rect5971-3"
         style="fill:#3ea2f4;fill-opacity:1;stroke-width:0.423333;stroke-linecap:round;stroke-linejoin:round;stroke-miterlimit:1.8;paint-order:stroke fill markers;stop-color:#000000"
         d="m -9.7603717,283.75058 c -0.4397363,0 -0.7937493,0.35401 -0.7937493,0.79375 v 0.26458 h 0.04496 1.0133733 v -1.01338 -0.045 z m 0.264583,1.05833 v 1.05833 h 1.058334 v -1.05833 z m 1.058334,0 h 1.058333 v -1.05833 h -1.058333 z m 1.058333,0 v 1.05833 h 1.058333 v -1.05833 z m 1.058333,0 h 1.058334 v -1.05833 h -1.058334 z m 1.058334,0 v 1.05833 h 1.058333 v -1.05833 z m 1.058333,0 h 1.058333 v -1.05833 h -1.058333 z m 1.058333,0 v 1.05833 h 1.058334 v -1.05833 z m 1.058334,0 h 1.058333 v -1.05833 h -1.058333 z m 1.058333,0 v 1.05833 h 1.05833299 v -1.05833 z m 1.05833299,0 H 1.0875453 v -1.05833 H 0.02921129 Z m 1.05833401,0 v 1.05833 h 1.058333 v -1.05833 z m 1.058333,0 h 1.013375 0.04496 v -0.26458 c 0,-0.43974 -0.354014,-0.79375 -0.79375,-0.79375 h -0.264583 v 0.045 z m 0,1.05833 v 1.05834 h 1.058333 v -1.05834 z m 0,1.05834 h -1.058333 v 1.05833 h 1.058333 z m 0,1.05833 v 1.05833 h 1.058333 v -1.05833 z m 0,1.05833 h -1.058333 v 1.05834 h 1.058333 z m 0,1.05834 v 1.05833 h 1.058333 v -1.05833 z m 0,1.05833 h -1.058333 v 1.05833 h 1.058333 z m 0,1.05833 v 1.05834 h 1.058333 v -1.05834 z m 0,1.05834 h -1.058333 v 1.05833 h 1.058333 z m 0,1.05833 v 1.05833 h 1.058333 v -1.05833 z m 0,1.05833 h -1.058333 v 1.05834 h 1.058333 z m 0,1.05834 v 1.05833 h 1.058333 v -1.05833 z m 0,1.05833 h -1.058333 v 1.05833 h 1.058333 z m 0,1.05833 v 1.01338 0.045 h 0.264583 c 0.439736,0 0.79375,-0.35401 0.79375,-0.79375 v -0.26458 h -0.04496 z m -1.058333,0 H 0.02921129 v 1.05834 H 1.0875453 Z m -1.05833401,0 v -1.05833 H -1.0291217 v 1.05833 z m -1.05833299,0 h -1.058333 v 1.05834 h 1.058333 z m -1.058333,0 v -1.05833 h -1.058334 v 1.05833 z m -1.058334,0 h -1.058333 v 1.05834 h 1.058333 z m -1.058333,0 v -1.05833 h -1.058333 v 1.05833 z m -1.058333,0 h -1.058334 v 1.05834 h 1.058334 z m -1.058334,0 v -1.05833 h -1.058333 v 1.05833 z m -1.058333,0 h -1.058333 v 1.05834 h 1.058333 z m -1.058333,0 v -1.05833 h -1.058334 v 1.05833 z m -1.058334,0 h -1.0133733 -0.04496 v 0.26459 c 0,0.43973 0.354013,0.79375 0.7937493,0.79375 h 0.264583 v -0.045 z m 0,-1.05833 v -1.05833 h -1.0583323 v 1.05833 z m 0,-1.05833 h 1.058334 v -1.05834 h -1.058334 z m 0,-1.05834 v -1.05833 h -1.0583323 v 1.05833 z m 0,-1.05833 h 1.058334 v -1.05833 h -1.058334 z m 0,-1.05833 v -1.05834 h -1.0583323 v 1.05834 z m 0,-1.05834 h 1.058334 v -1.05833 h -1.058334 z m 0,-1.05833 v -1.05833 h -1.0583323 v 1.05833 z m 0,-1.05833 h 1.058334 v -1.05834 h -1.058334 z m 0,-1.05834 v -1.05833 h -1.0583323 v 1.05833 z m 0,-1.05833 h 1.058334 v -1.05833 h -1.058334 z m 0,-1.05833 v -1.05834 h -1.0583323 v 1.05834 z m 1.058334,0 h 1.058333 v -1.05834 h -1.058333 z m 1.058333,0 v 1.05833 h 1.058333 v -1.05833 z m 1.058333,0 h 1.058334 v -1.05834 h -1.058334 z m 1.058334,0 v 1.05833 h 1.058333 v -1.05833 z m 1.058333,0 h 1.058333 v -1.05834 h -1.058333 z m 1.058333,0 v 1.05833 h 1.058334 v -1.05833 z m 1.058334,0 h 1.058333 v -1.05834 h -1.058333 z m 1.058333,0 v 1.05833 h 1.05833299 v -1.05833 z m 1.05833299,0 H 1.0875453 v -1.05834 H 0.02921129 Z m 0,1.05833 v 1.05833 H 1.0875453 v -1.05833 z m 0,1.05833 H -1.0291217 v 1.05834 h 1.05833299 z m 0,1.05834 v 1.05833 H 1.0875453 v -1.05833 z m 0,1.05833 H -1.0291217 v 1.05833 h 1.05833299 z m 0,1.05833 v 1.05834 H 1.0875453 v -1.05834 z m 0,1.05834 H -1.0291217 v 1.05833 h 1.05833299 z m 0,1.05833 v 1.05833 H 1.0875453 v -1.05833 z m 0,1.05833 H -1.0291217 v 1.05834 h 1.05833299 z m 0,1.05834 v 1.05833 H 1.0875453 v -1.05833 z m -1.05833299,0 h -1.058333 v 1.05833 h 1.058333 z m -1.058333,0 v -1.05834 h -1.058334 v 1.05834 z m -1.058334,0 h -1.058333 v 1.05833 h 1.058333 z m -1.058333,0 v -1.05834 h -1.058333 v 1.05834 z m -1.058333,0 h -1.058334 v 1.05833 h 1.058334 z m -1.058334,0 v -1.05834 h -1.058333 v 1.05834 z m -1.058333,0 h -1.058333 v 1.05833 h 1.058333 z m 0,-1.05834 v -1.05833 h -1.058333 v 1.05833 z m 0,-1.05833 h 1.058333 v -1.05833 h -1.058333 z m 0,-1.05833 v -1.05834 h -1.058333 v 1.05834 z m 0,-1.05834 h 1.058333 v -1.05833 h -1.058333 z m 0,-1.05833 v -1.05833 h -1.058333 v 1.05833 z m 0,-1.05833 h 1.058333 v -1.05834 h -1.058333 z m 0,-1.05834 v -1.05833 h -1.058333 v 1.05833 z m 1.058333,0 h 1.058334 v -1.05833 h -1.058334 z m 1.058334,0 v 1.05834 h 1.058333 v -1.05834 z m 1.058333,0 h 1.058333 v -1.05833 h -1.058333 z m 1.058333,0 v 1.05834 h 1.058334 v -1.05834 z m 1.058334,0 h 1.058333 v -1.05833 h -1.058333 z m 0,1.05834 v 1.05833 h 1.058333 v -1.05833 z m 0,1.05833 h -1.058334 v 1.05833 h 1.058334 z m 0,1.05833 v 1.05834 h 1.058333 v -1.05834 z m 0,1.05834 h -1.058334 v 1.05833 h 1.058334 z m 0,1.05833 v 1.05833 h 1.058333 v -1.05833 z m -1.058334,0 h -1.058333 v 1.05833 h 1.058333 z m -1.058333,0 v -1.05833 h -1.058333 v 1.05833 z m -1.058333,0 h -1.058334 v 1.05833 h 1.058334 z m 0,-1.05833 v -1.05834 h -1.058334 v 1.05834 z m 0,-1.05834 h 1.058333 v -1.05833 h -1.058333 z m 0,-1.05833 v -1.05833 h -1.058334 v 1.05833 z m 1.058333,0 h 1.058333 v -1.05833 h -1.058333 z m 0,1.05833 v 1.05834 h 1.058333 v -1.05834 z" /><path
         id="rect31416"
         style="fill:#f4fbff;fill-opacity:1;stroke-width:0.529167;stroke-linecap:square;stroke-miterlimit:1.8;paint-order:stroke fill markers;stop-color:#000000"
         d="M -8.4374554 286.92558 L -8.4374554 288.51308 L -7.9082887 288.51308 L -7.9082887 291.15891 L -8.1728721 291.15891 L -8.1728721 292.21724 L -7.9082887 292.21724 L -7.9082887 294.86307 L -8.4374554 294.86307 L -8.4374554 296.45057 L -6.8499554 296.45057 L -6.8499554 295.92141 L -4.2041222 295.92141 L -4.2041222 296.18599 L -3.1457888 296.18599 L -3.1457888 295.92141 L -0.49995556 295.92141 L -0.49995556 296.45057 L 1.0875444 296.45057 L 1.0875444 294.86307 L 0.55837775 294.86307 L 0.55837775 292.21724 L 0.82296108 292.21724 L 0.82296108 291.15891 L 0.55837775 291.15891 L 0.55837775 288.51308 L 1.0875444 288.51308 L 1.0875444 286.92558 L -0.49995556 286.92558 L -0.49995556 287.45474 L -3.1457888 287.45474 L -3.1457888 287.19016 L -4.2041222 287.19016 L -4.2041222 287.45474 L -6.8499554 287.45474 L -6.8499554 286.92558 L -8.4374554 286.92558 z M -8.1728721 287.19016 L -7.1145388 287.19016 L -7.1145388 288.24849 L -8.1728721 288.24849 L -8.1728721 287.19016 z M -0.23537223 287.19016 L 0.82296108 287.19016 L 0.82296108 288.24849 L -0.23537223 288.24849 L -0.23537223 287.19016 z M -3.9395388 287.45474 L -3.4103722 287.45474 L -3.4103722 287.98391 L -3.9395388 287.98391 L -3.9395388 287.45474 z M -6.8499554 287.98391 L -4.2041222 287.98391 L -4.2041222 288.24849 L -3.6749555 288.24849 L -3.1457888 288.24849 L -3.1457888 287.98391 L -0.49995556 287.98391 L -0.49995556 288.51308 L 0.029211094 288.51308 L 0.029211094 291.15891 L -0.23537223 291.15891 L -0.23537223 291.68807 L -0.23537223 292.21724 L 0.029211094 292.21724 L 0.029211094 294.86307 L -0.49995556 294.86307 L -0.49995556 295.39224 L -3.1457888 295.39224 L -3.1457888 295.12766 L -3.6749555 295.12766 L -4.2041222 295.12766 L -4.2041222 295.39224 L -6.8499554 295.39224 L -6.8499554 294.86307 L -7.3791221 294.86307 L -7.3791221 292.21724 L -7.1145388 292.21724 L -7.1145388 291.68807 L -7.1145388 291.15891 L -7.3791221 291.15891 L -7.3791221 288.51308 L -6.8499554 288.51308 L -6.8499554 287.98391 z M -7.1145388 291.68807 C -7.1145388 293.5936 -5.5804827 295.12766 -3.6749555 295.12766 C -1.7694283 295.12766 -0.23537223 293.5936 -0.23537223 291.68807 C -0.23537223 289.78255 -1.7694283 288.24849 -3.6749555 288.24849 C -5.5804827 288.24849 -7.1145388 289.78255 -7.1145388 291.68807 z M -7.9082887 291.42349 L -7.3791221 291.42349 L -7.3791221 291.95266 L -7.9082887 291.95266 L -7.9082887 291.42349 z M 0.029211094 291.42349 L 0.55837775 291.42349 L 0.55837775 291.95266 L 0.029211094 291.95266 L 0.029211094 291.42349 z M -8.1728721 295.12766 L -7.1145388 295.12766 L -7.1145388 296.18599 L -8.1728721 296.18599 L -8.1728721 295.12766 z M -0.23537223 295.12766 L 0.82296108 295.12766 L 0.82296108 296.18599 L -0.23537223 296.18599 L -0.23537223 295.12766 z M -3.9395388 295.39224 L -3.4103722 295.39224 L -3.4103722 295.92141 L -3.9395388 295.92141 L -3.9395388 295.39224 z " /></g></g></svg>
