<?xml version="1.0" encoding="UTF-8" standalone="no"?>
<!-- Created with Inkscape (http://www.inkscape.org/) -->

<svg
   width="64"
   height="64"
   viewBox="0 0 16.933333 16.933333"
   version="1.1"
   id="svg5"
   inkscape:version="1.2.1 (9c6d41e410, 2022-07-14)"
   sodipodi:docname="x-media-podcast.svg"
   xmlns:inkscape="http://www.inkscape.org/namespaces/inkscape"
   xmlns:sodipodi="http://sodipodi.sourceforge.net/DTD/sodipodi-0.dtd"
   xmlns="http://www.w3.org/2000/svg"
   xmlns:svg="http://www.w3.org/2000/svg">
  <sodipodi:namedview
     id="namedview7"
     pagecolor="#ffffff"
     bordercolor="#000000"
     borderopacity="0.25"
     inkscape:showpageshadow="false"
     inkscape:pageopacity="0.0"
     inkscape:pagecheckerboard="0"
     inkscape:deskcolor="#d1d1d1"
     inkscape:document-units="px"
     showgrid="true"
     inkscape:zoom="14.481547"
     inkscape:cx="40.15455"
     inkscape:cy="31.833616"
     inkscape:window-width="2160"
     inkscape:window-height="1330"
     inkscape:window-x="0"
     inkscape:window-y="0"
     inkscape:window-maximized="1"
     inkscape:current-layer="layer1">
    <inkscape:grid
       type="xygrid"
       id="grid290"
       originx="0"
       originy="0" />
  </sodipodi:namedview>
  <defs
     id="defs2" />
  <g
     inkscape:label="Capa 1"
     inkscape:groupmode="layer"
     id="layer1">
    <g
       id="g2770"
       transform="translate(0.26458333,-0.26457908)">
      <g
         transform="matrix(0.26458333,0,0,0.26458333,-0.26458339,-66.05323)"
         id="layer1-6"
         inkscape:label="Capa 1">
        <g
           transform="translate(38,-6)"
           id="g1769">
          <path
             style="opacity:1;fill:#6e7cd4;fill-opacity:1;stroke:none;stroke-width:2;stroke-linecap:round;stroke-linejoin:round;stroke-miterlimit:4;stroke-dasharray:none;stroke-dashoffset:0;stroke-opacity:1"
             d="m 55,-7 c -2.216,0 -4,1.784 -4,4 v 14 4 36 c 0,2.216 1.784,4 4,4 h 46 c 2.216,0 4,-1.784 4,-4 V 15 11 10 -3 c 0,-2.216 -1.784,-4 -4,-4 z"
             transform="translate(-84,264.64999)"
             id="rect971"
             inkscape:connector-curvature="0" />
          <path
             style="opacity:1;fill:#93a0e6;fill-opacity:1;stroke:none;stroke-width:2;stroke-linecap:round;stroke-linejoin:round;stroke-miterlimit:4;stroke-dasharray:none;stroke-dashoffset:0;stroke-opacity:1"
             d="m 55,-6 c -1.662,0 -3,1.338 -3,3 v 12 2 3 37 c 0,1.662 1.338,3 3,3 h 46 c 1.662,0 3,-1.338 3,-3 V 14 11 9 -3 c 0,-1.662 -1.338,-3 -3,-3 z"
             id="rect971-2"
             transform="translate(-84,264.64999)"
             inkscape:connector-curvature="0" />
        </g>
      </g>
      <path
         style="fill:#f0f2fb;fill-opacity:1;stroke:none;stroke-width:1.05833;stroke-linecap:round;stroke-linejoin:round;stroke-miterlimit:4;stroke-dasharray:none;stroke-dashoffset:0;stroke-opacity:1"
         d="m 8.2020841,4.76251 c -1.0260542,0 -1.8520834,0.82603 -1.8520834,1.85208 v 0.26459 h 0.79375 v 0.26458 h -0.79375 v 0.26458 h 0.79375 v 0.26459 h -0.79375 v 0.26458 h 0.79375 v 0.26458 h -0.79375 c 0,1.02606 0.8260292,1.85209 1.8520834,1.85209 1.0260541,0 1.8520839,-0.82603 1.8520839,-1.85209 H 9.2604174 V 7.93751 H 10.054168 V 7.67293 H 9.2604174 V 7.40834 H 10.054168 V 7.14376 H 9.2604174 V 6.87918 H 10.054168 V 6.61459 c 0,-1.02605 -0.8260298,-1.85208 -1.8520839,-1.85208 z M 3.571876,6.35001 c -0.2198687,0 -0.3968749,0.17701 -0.3968749,0.39687 0,0.21987 0.1770062,0.39688 0.3968749,0.39688 0.2198688,0 0.396875,-0.17701 0.396875,-0.39688 0,-0.21986 -0.1770062,-0.39687 -0.396875,-0.39687 z m 9.260417,0 c -0.219869,0 -0.396875,0.17701 -0.396875,0.39687 0,0.21987 0.177006,0.39688 0.396875,0.39688 0.219869,0 0.396875,-0.17701 0.396875,-0.39688 0,-0.21986 -0.177006,-0.39687 -0.396875,-0.39687 z M 8.2020841,6.87918 c 0.2931583,0 0.5291666,0.236 0.5291666,0.52916 0,0.29316 -0.2360083,0.52917 -0.5291666,0.52917 -0.2931584,0 -0.5291667,-0.23601 -0.5291667,-0.52917 0,-0.29316 0.2360083,-0.52916 0.5291667,-0.52916 z M 2.2489593,7.14376 c -0.2198688,0 -0.396875,0.17701 -0.396875,0.39687 0,0.21987 0.1770062,0.39688 0.396875,0.39688 0.2198688,0 0.3968751,-0.17701 0.3968751,-0.39688 0,-0.21986 -0.1770063,-0.39687 -0.3968751,-0.39687 z m 11.9062507,0 c -0.219869,0 -0.396875,0.17701 -0.396875,0.39687 0,0.21987 0.177006,0.39688 0.396875,0.39688 0.219868,0 0.396875,-0.17701 0.396875,-0.39688 0,-0.21986 -0.177007,-0.39687 -0.396875,-0.39687 z M 3.571876,7.67293 c -0.2198687,0 -0.3968749,0.177 -0.3968749,0.39687 0,0.21987 0.1770062,0.39688 0.3968749,0.39688 0.2198688,0 0.396875,-0.17701 0.396875,-0.39688 0,-0.21987 -0.1770062,-0.39687 -0.396875,-0.39687 z m 9.260417,0 c -0.219869,0 -0.396875,0.177 -0.396875,0.39687 0,0.21987 0.177006,0.39688 0.396875,0.39688 0.219869,0 0.396875,-0.17701 0.396875,-0.39688 0,-0.21987 -0.177006,-0.39687 -0.396875,-0.39687 z M 4.7625008,7.93751 c 0.00122,1.69439 1.2362005,3.1355 2.9104166,3.39618 v 1.10174 c 0,0.29315 0.2360083,0.52916 0.5291667,0.52916 0.2931583,0 0.5291666,-0.23601 0.5291666,-0.52916 V 11.33162 C 10.404693,11.07106 11.639438,9.63111 11.641668,7.93751 h -0.79375 c 0,1.46125 -1.1845807,2.64583 -2.6458339,2.64583 -1.4612536,0 -2.6458333,-1.18458 -2.6458333,-2.64583 z M 2.2489593,8.46668 c -0.2198688,0 -0.396875,0.177 -0.396875,0.39687 0,0.21987 0.1770062,0.39688 0.396875,0.39688 0.2198688,0 0.3968751,-0.17701 0.3968751,-0.39688 0,-0.21987 -0.1770063,-0.39687 -0.3968751,-0.39687 z m 11.9062507,0 c -0.219869,0 -0.396875,0.177 -0.396875,0.39687 0,0.21987 0.177006,0.39688 0.396875,0.39688 0.219868,0 0.396875,-0.17701 0.396875,-0.39688 0,-0.21987 -0.177007,-0.39687 -0.396875,-0.39687 z M 3.571876,8.99584 c -0.2198687,0 -0.3968749,0.17701 -0.3968749,0.39688 0,0.21987 0.1770062,0.39687 0.3968749,0.39687 0.2198688,0 0.396875,-0.177 0.396875,-0.39687 0,-0.21987 -0.1770062,-0.39688 -0.396875,-0.39688 z m 9.260417,0 c -0.219869,0 -0.396875,0.17701 -0.396875,0.39688 0,0.21987 0.177006,0.39687 0.396875,0.39687 0.219869,0 0.396875,-0.177 0.396875,-0.39687 0,-0.21987 -0.177006,-0.39688 -0.396875,-0.39688 z M 2.2489593,9.78959 c -0.2198688,0 -0.396875,0.17701 -0.396875,0.39688 0,0.21987 0.1770062,0.39687 0.396875,0.39687 0.2198688,0 0.3968751,-0.177 0.3968751,-0.39687 0,-0.21987 -0.1770063,-0.39688 -0.3968751,-0.39688 z m 11.9062507,0 c -0.219869,0 -0.396875,0.17701 -0.396875,0.39688 0,0.21987 0.177006,0.39687 0.396875,0.39687 0.219868,0 0.396875,-0.177 0.396875,-0.39687 0,-0.21987 -0.177007,-0.39688 -0.396875,-0.39688 z M 3.571876,10.31876 c -0.2198687,0 -0.3968749,0.17701 -0.3968749,0.39687 0,0.21987 0.1770062,0.39688 0.3968749,0.39688 0.2198688,0 0.396875,-0.17701 0.396875,-0.39688 0,-0.21986 -0.1770062,-0.39687 -0.396875,-0.39687 z m 9.260417,0 c -0.219869,0 -0.396875,0.17701 -0.396875,0.39687 0,0.21987 0.177006,0.39688 0.396875,0.39688 0.219869,0 0.396875,-0.17701 0.396875,-0.39688 0,-0.21986 -0.177006,-0.39687 -0.396875,-0.39687 z"
         id="rect4645-1"
         inkscape:connector-curvature="0"
         sodipodi:nodetypes="ssccccccccccccsccccccccccccsssssssssssssssssssssssssssssssssssssccssscccsccssssssssssssssssssssssssssssssssssssssss" />
    </g>
  </g>
</svg>
