<?xml version="1.0" encoding="UTF-8" standalone="no"?>
<!-- Created with Inkscape (http://www.inkscape.org/) -->

<svg
   width="64"
   height="64"
   viewBox="0 0 16.933333 16.933333"
   version="1.1"
   id="svg5"
   inkscape:version="1.2.1 (9c6d41e410, 2022-07-14)"
   sodipodi:docname="text-x-qml.svg"
   xmlns:inkscape="http://www.inkscape.org/namespaces/inkscape"
   xmlns:sodipodi="http://sodipodi.sourceforge.net/DTD/sodipodi-0.dtd"
   xmlns="http://www.w3.org/2000/svg"
   xmlns:svg="http://www.w3.org/2000/svg">
  <sodipodi:namedview
     id="namedview7"
     pagecolor="#ffffff"
     bordercolor="#000000"
     borderopacity="0.25"
     inkscape:showpageshadow="false"
     inkscape:pageopacity="0.0"
     inkscape:pagecheckerboard="0"
     inkscape:deskcolor="#d1d1d1"
     inkscape:document-units="px"
     showgrid="true"
     inkscape:zoom="14.481547"
     inkscape:cx="38.773482"
     inkscape:cy="21.613713"
     inkscape:window-width="2160"
     inkscape:window-height="1330"
     inkscape:window-x="0"
     inkscape:window-y="0"
     inkscape:window-maximized="1"
     inkscape:current-layer="g35057">
    <inkscape:grid
       type="xygrid"
       id="grid290"
       originx="0"
       originy="0" />
  </sodipodi:namedview>
  <defs
     id="defs2" />
  <g
     inkscape:label="Capa 1"
     inkscape:groupmode="layer"
     id="layer1">
    <g
       id="g35057"
       transform="translate(-1.8520833,-0.52916717)">
      <g
         id="g8147"
         transform="translate(-0.2645833)">
        <path
           id="rect971"
           d="M 4.4979166,0.79375035 H 16.66875 c 0.586316,0 1.058333,0.47201665 1.058333,1.05833335 V 16.139583 c 0,0.586317 -0.472017,1.058334 -1.058333,1.058334 H 4.4979166 c -0.5863167,0 -1.0583333,-0.472017 -1.0583333,-1.058334 V 1.8520837 c 0,-0.5863167 0.4720166,-1.05833335 1.0583333,-1.05833335 z"
           style="fill:#a3b7cc;fill-opacity:1;stroke:none;stroke-width:0.529167;stroke-linecap:round;stroke-linejoin:round;stroke-miterlimit:4;stroke-dasharray:none;stroke-dashoffset:0;stroke-opacity:1"
           inkscape:connector-curvature="0"
           sodipodi:nodetypes="sssssssss" />
        <path
           id="rect971-2"
           d="M 4.4979166,1.0583337 H 16.66875 c 0.439737,0 0.79375,0.3540125 0.79375,0.79375 V 16.139583 c 0,0.439738 -0.354013,0.79375 -0.79375,0.79375 H 4.4979166 c -0.4397375,0 -0.79375,-0.354012 -0.79375,-0.79375 V 1.8520837 c 0,-0.4397375 0.3540125,-0.79375 0.79375,-0.79375 z"
           style="fill:#fafafa;fill-opacity:1;stroke:none;stroke-width:0.529167;stroke-linecap:round;stroke-linejoin:round;stroke-miterlimit:4;stroke-dasharray:none;stroke-dashoffset:0;stroke-opacity:1"
           inkscape:connector-curvature="0"
           sodipodi:nodetypes="sssssssss" />
        <path
           id="rect5971-3"
           style="fill:#dfe6ec;fill-opacity:1;stroke-width:0.423333;stroke-linecap:round;stroke-linejoin:round;stroke-miterlimit:1.8;paint-order:stroke fill markers;stop-color:#000000"
           d="m 4.4979166,1.0583337 c -0.439736,0 -0.79375,0.3540125 -0.79375,0.79375 V 2.116667 h 0.044958 1.0133748 V 1.1032917 1.0583337 Z M 4.7624999,2.116667 V 3.1750003 H 5.8208332 V 2.116667 Z m 1.0583333,0 H 6.8791665 V 1.0583337 H 5.8208332 Z m 1.0583333,0 V 3.1750003 H 7.9374999 V 2.116667 Z m 1.0583334,0 H 8.9958332 V 1.0583337 H 7.9374999 Z m 1.0583333,0 V 3.1750003 H 10.054167 V 2.116667 Z m 1.0583338,0 H 11.1125 V 1.0583337 h -1.058333 z m 1.058333,0 v 1.0583333 h 1.058333 V 2.116667 Z m 1.058333,0 h 1.058333 V 1.0583337 h -1.058333 z m 1.058333,0 V 3.1750003 H 14.2875 V 2.116667 Z m 1.058334,0 h 1.058333 V 1.0583337 H 14.2875 Z m 1.058333,0 v 1.0583333 h 1.058333 V 2.116667 Z m 1.058333,0 h 1.013375 0.04496 V 1.8520837 c 0,-0.4397375 -0.354014,-0.79375 -0.79375,-0.79375 h -0.264584 v 0.044958 z m 0,1.0583333 V 4.2333336 H 17.4625 V 3.1750003 Z m 0,1.0583333 H 15.345833 V 5.291667 h 1.058333 z m 0,1.0583334 V 6.3500003 H 17.4625 V 5.291667 Z m 0,1.0583333 h -1.058333 v 1.0583333 h 1.058333 z m 0,1.0583333 V 8.4666669 H 17.4625 V 7.4083336 Z m 0,1.0583333 h -1.058333 v 1.0583333 h 1.058333 z m 0,1.0583333 V 10.583334 H 17.4625 V 9.5250002 Z m 0,1.0583338 h -1.058333 v 1.058333 h 1.058333 z m 0,1.058333 V 12.7 H 17.4625 v -1.058333 z m 0,1.058333 h -1.058333 v 1.058334 h 1.058333 z m 0,1.058334 v 1.058333 H 17.4625 v -1.058333 z m 0,1.058333 H 15.345833 V 15.875 h 1.058333 z m 0,1.058333 v 1.013375 0.04496 h 0.264584 c 0.439736,0 0.79375,-0.354012 0.79375,-0.79375 V 15.875 h -0.04496 z m -1.058333,0 H 14.2875 v 1.058333 h 1.058333 z m -1.058333,0 V 14.816667 H 13.229166 V 15.875 Z m -1.058334,0 h -1.058333 v 1.058333 h 1.058333 z m -1.058333,0 V 14.816667 H 11.1125 V 15.875 Z m -1.058333,0 h -1.058333 v 1.058333 H 11.1125 Z m -1.058333,0 V 14.816667 H 8.9958332 V 15.875 Z m -1.0583338,0 H 7.9374999 v 1.058333 h 1.0583333 z m -1.0583333,0 V 14.816667 H 6.8791665 V 15.875 Z m -1.0583334,0 H 5.8208332 v 1.058333 h 1.0583333 z m -1.0583333,0 V 14.816667 H 4.7624999 V 15.875 Z m -1.0583333,0 H 3.7491251 3.7041666 v 0.264583 c 0,0.439738 0.354014,0.79375 0.79375,0.79375 h 0.2645833 v -0.04496 z m 0,-1.058333 V 13.758334 H 3.7041666 v 1.058333 z m 0,-1.058333 H 5.8208332 V 12.7 H 4.7624999 Z m 0,-1.058334 V 11.641667 H 3.7041666 V 12.7 Z m 0,-1.058333 H 5.8208332 V 10.583334 H 4.7624999 Z m 0,-1.058333 V 9.5250002 H 3.7041666 v 1.0583338 z m 0,-1.0583338 H 5.8208332 V 8.4666669 H 4.7624999 Z m 0,-1.0583333 V 7.4083336 H 3.7041666 v 1.0583333 z m 0,-1.0583333 H 5.8208332 V 6.3500003 H 4.7624999 Z m 0,-1.0583333 V 5.291667 H 3.7041666 v 1.0583333 z m 0,-1.0583333 H 5.8208332 V 4.2333336 H 4.7624999 Z m 0,-1.0583334 V 3.1750003 H 3.7041666 v 1.0583333 z m 1.0583333,0 H 6.8791665 V 3.1750003 H 5.8208332 Z m 1.0583333,0 V 5.291667 H 7.9374999 V 4.2333336 Z m 1.0583334,0 H 8.9958332 V 3.1750003 H 7.9374999 Z m 1.0583333,0 V 5.291667 H 10.054167 V 4.2333336 Z m 1.0583338,0 H 11.1125 V 3.1750003 h -1.058333 z m 1.058333,0 V 5.291667 h 1.058333 V 4.2333336 Z m 1.058333,0 h 1.058333 V 3.1750003 h -1.058333 z m 1.058333,0 V 5.291667 H 14.2875 V 4.2333336 Z m 1.058334,0 h 1.058333 V 3.1750003 H 14.2875 Z m 0,1.0583334 v 1.0583333 h 1.058333 V 5.291667 Z m 0,1.0583333 H 13.229166 V 7.4083336 H 14.2875 Z m 0,1.0583333 v 1.0583333 h 1.058333 V 7.4083336 Z m 0,1.0583333 H 13.229166 V 9.5250002 H 14.2875 Z m 0,1.0583333 v 1.0583338 h 1.058333 V 9.5250002 Z m 0,1.0583338 h -1.058334 v 1.058333 H 14.2875 Z m 0,1.058333 V 12.7 h 1.058333 v -1.058333 z m 0,1.058333 h -1.058334 v 1.058334 H 14.2875 Z m 0,1.058334 v 1.058333 h 1.058333 v -1.058333 z m -1.058334,0 h -1.058333 v 1.058333 h 1.058333 z m -1.058333,0 V 12.7 H 11.1125 v 1.058334 z m -1.058333,0 h -1.058333 v 1.058333 H 11.1125 Z m -1.058333,0 V 12.7 H 8.9958332 v 1.058334 z m -1.0583338,0 H 7.9374999 v 1.058333 h 1.0583333 z m -1.0583333,0 V 12.7 H 6.8791665 v 1.058334 z m -1.0583334,0 H 5.8208332 v 1.058333 h 1.0583333 z m 0,-1.058334 V 11.641667 H 5.8208332 V 12.7 Z m 0,-1.058333 H 7.9374999 V 10.583334 H 6.8791665 Z m 0,-1.058333 V 9.5250002 H 5.8208332 v 1.0583338 z m 0,-1.0583338 H 7.9374999 V 8.4666669 H 6.8791665 Z m 0,-1.0583333 V 7.4083336 H 5.8208332 v 1.0583333 z m 0,-1.0583333 H 7.9374999 V 6.3500003 H 6.8791665 Z m 0,-1.0583333 V 5.291667 H 5.8208332 v 1.0583333 z m 1.0583334,0 H 8.9958332 V 5.291667 H 7.9374999 Z m 1.0583333,0 V 7.4083336 H 10.054167 V 6.3500003 Z m 1.0583338,0 H 11.1125 V 5.291667 h -1.058333 z m 1.058333,0 v 1.0583333 h 1.058333 V 6.3500003 Z m 1.058333,0 h 1.058333 V 5.291667 h -1.058333 z m 0,1.0583333 v 1.0583333 h 1.058333 V 7.4083336 Z m 0,1.0583333 H 11.1125 v 1.0583333 h 1.058333 z m 0,1.0583333 v 1.0583338 h 1.058333 V 9.5250002 Z m 0,1.0583338 H 11.1125 v 1.058333 h 1.058333 z m 0,1.058333 V 12.7 h 1.058333 v -1.058333 z m -1.058333,0 H 10.054167 V 12.7 H 11.1125 Z m -1.058333,0 V 10.583334 H 8.9958332 v 1.058333 z m -1.0583338,0 H 7.9374999 V 12.7 h 1.0583333 z m 0,-1.058333 V 9.5250002 H 7.9374999 v 1.0583338 z m 0,-1.0583338 H 10.054167 V 8.4666669 H 8.9958332 Z m 0,-1.0583333 V 7.4083336 H 7.9374999 v 1.0583333 z m 1.0583338,0 H 11.1125 V 7.4083336 h -1.058333 z m 0,1.0583333 V 10.583334 H 11.1125 V 9.5250002 Z" />
      </g>
      <path
         inkscape:connector-curvature="0"
         style="fill:#70a983;fill-opacity:1;stroke:none;stroke-width:0.213783;stroke-linecap:round;stroke-linejoin:round;stroke-miterlimit:4;stroke-dasharray:none;stroke-opacity:1;paint-order:stroke markers fill"
         d="m 6.6145813,3.7041663 h 7.4083347 c 0.293158,0 0.529166,0.2360084 0.529166,0.5291667 v 6.350003 c 0,0.293158 -0.236008,0.529164 -0.529166,0.529164 H 6.6145813 c -0.2931578,0 -0.5291656,-0.236006 -0.5291656,-0.529164 V 4.233333 c 0,-0.2931583 0.2360078,-0.5291667 0.5291656,-0.5291667 z"
         id="rect941" />
      <path
         inkscape:connector-curvature="0"
         style="fill:#f1f1f1;fill-opacity:1;stroke:none;stroke-width:0.213783;stroke-linecap:round;stroke-linejoin:round;stroke-miterlimit:4;stroke-dasharray:none;stroke-opacity:1;paint-order:stroke markers fill"
         d="m 6.6145824,3.9687497 h 7.4083326 c 0.146579,0 0.264584,0.1180041 0.264584,0.2645833 v 6.35 c 0,0.146579 -0.118005,0.264583 -0.264584,0.264583 H 6.6145824 c -0.1465792,0 -0.2645834,-0.118004 -0.2645834,-0.264583 v -6.35 c 0,-0.1465792 0.1180042,-0.2645833 0.2645834,-0.2645833 z"
         id="rect943" />
      <path
         sodipodi:nodetypes="ssccccccccsss"
         inkscape:connector-curvature="0"
         id="rect866"
         d="m 6.6145824,3.7041663 c -0.2931578,0 -0.5291667,0.2360084 -0.5291667,0.5291667 l 7e-7,1.3229174 v 0.2645833 0.5291667 h 0.5291667 7.4083329 0.529167 V 5.8208337 5.5562504 l -10e-7,-1.3229174 c 0,-0.2931583 -0.236009,-0.5291667 -0.529167,-0.5291667 z"
         style="fill:#70a983;fill-opacity:1;stroke:none;stroke-width:0.213783;stroke-linecap:round;stroke-linejoin:round;stroke-miterlimit:4;stroke-dasharray:none;stroke-opacity:1;paint-order:stroke markers fill" />
      <path
         sodipodi:nodetypes="ssccccccccsss"
         inkscape:connector-curvature="0"
         id="rect868"
         d="m 6.6145824,3.9687497 c -0.1465787,0 -0.2645834,0.1180041 -0.2645834,0.2645833 l 7e-7,1.3229174 V 5.8208337 6.0854171 H 6.6145831 14.022916 14.2875 V 5.8208337 5.5562504 l -10e-7,-1.3229174 c 0,-0.1465792 -0.118005,-0.2645833 -0.264584,-0.2645833 z"
         style="fill:#bae0bd;fill-opacity:1;stroke:none;stroke-width:0.213783;stroke-linecap:round;stroke-linejoin:round;stroke-miterlimit:4;stroke-dasharray:none;stroke-opacity:1;paint-order:stroke markers fill" />
      <path
         inkscape:connector-curvature="0"
         style="fill:#70a983;fill-opacity:1;stroke:none;stroke-width:0.142522;stroke-linecap:round;stroke-linejoin:round;stroke-miterlimit:4;stroke-dasharray:none;stroke-opacity:1;paint-order:stroke markers fill"
         d="m 8.9958331,4.4979171 c 0.2931587,0 0.5291667,0.2360083 0.5291667,0.5291666 0,0.2931584 -0.236008,0.5291667 -0.5291667,0.5291667 -0.2931583,0 -0.5291666,-0.2360083 -0.5291666,-0.5291667 0,-0.2931583 0.2360083,-0.5291666 0.5291666,-0.5291666 z"
         id="rect880-5" />
      <path
         inkscape:connector-curvature="0"
         style="fill:#70a983;fill-opacity:1;stroke:none;stroke-width:0.142522;stroke-linecap:round;stroke-linejoin:round;stroke-miterlimit:4;stroke-dasharray:none;stroke-opacity:1;paint-order:stroke markers fill"
         d="m 7.4083332,4.4979171 c 0.2931583,0 0.5291667,0.2360083 0.5291667,0.5291666 0,0.2931584 -0.2360084,0.5291667 -0.5291667,0.5291667 -0.2931583,0 -0.5291667,-0.2360083 -0.5291667,-0.5291667 0,-0.2931583 0.2360084,-0.5291666 0.5291667,-0.5291666 z"
         id="rect880" />
      <path
         inkscape:connector-curvature="0"
         style="fill:#70a983;fill-opacity:1;stroke:none;stroke-width:0.142522;stroke-linecap:round;stroke-linejoin:round;stroke-miterlimit:4;stroke-dasharray:none;stroke-opacity:1;paint-order:stroke markers fill"
         d="m 10.583333,4.4979171 c 0.293158,0 0.529166,0.2360083 0.529166,0.5291666 0,0.2931584 -0.236008,0.5291667 -0.529166,0.5291667 -0.293158,0 -0.529167,-0.2360083 -0.529167,-0.5291667 0,-0.2931583 0.236009,-0.5291666 0.529167,-0.5291666 z"
         id="rect880-3" />
      <path
         sodipodi:nodetypes="ccccccccccccccccccccccccccccccccccccccccccccccccccccccc"
         inkscape:connector-curvature="0"
         id="rect1001-3-6"
         d="m 6.8791661,11.90625 v 0.529166 H 8.9958327 V 11.90625 Z m 2.6458333,0 v 0.529166 H 10.318749 V 11.90625 Z m 1.3229166,0 v 0.529166 h 1.058333 V 11.90625 Z m 1.5875,0 v 0.529166 h 1.322916 V 11.90625 Z m -5.5562499,1.058333 v 0.529167 h 1.0583333 v -0.529167 z m 1.5875,0 v 0.529167 h 2.1166669 v -0.529167 z m 2.6458329,0 v 0.529167 h 2.38125 v -0.529167 z m -4.2333329,1.058333 v 0.529167 h 0.79375 v -0.529167 z m 1.3229166,0 v 0.529167 h 1.0583334 v -0.529167 z m 1.5875,0 v 0.529167 h 2.1166663 v -0.529167 z m 2.6458333,0 v 0.529167 h 1.322916 v -0.529167 z"
         style="fill:#70a983;fill-opacity:1;stroke:none;stroke-width:0.529167;stroke-linecap:round;stroke-linejoin:round;stroke-miterlimit:4;stroke-dasharray:none;stroke-dashoffset:0;stroke-opacity:1" />
    </g>
  </g>
</svg>
