<?xml version="1.0" encoding="UTF-8" standalone="no"?>
<!-- Created with Inkscape (http://www.inkscape.org/) -->

<svg
   width="64"
   height="64"
   viewBox="0 0 64 64"
   version="1.1"
   id="svg8"
   inkscape:version="1.2.1 (9c6d41e410, 2022-07-14)"
   sodipodi:docname="text-x-hex.svg"
   xmlns:inkscape="http://www.inkscape.org/namespaces/inkscape"
   xmlns:sodipodi="http://sodipodi.sourceforge.net/DTD/sodipodi-0.dtd"
   xmlns="http://www.w3.org/2000/svg"
   xmlns:svg="http://www.w3.org/2000/svg"
   xmlns:rdf="http://www.w3.org/1999/02/22-rdf-syntax-ns#"
   xmlns:cc="http://creativecommons.org/ns#"
   xmlns:dc="http://purl.org/dc/elements/1.1/">
  <title
     id="title7895">Antu icon Theme</title>
  <defs
     id="defs2">
    <style
       id="current-color-scheme"
       type="text/css">
      .ColorScheme-Text {
        color:#122036;
      }
      </style>
    <style
       type="text/css"
       id="current-color-scheme-5">
      .ColorScheme-Text {
        color:#122036;
      }
      </style>
    <style
       type="text/css"
       id="current-color-scheme-2">
      .ColorScheme-Text {
        color:#122036;
      }
      </style>
    <style
       type="text/css"
       id="current-color-scheme-1">
      .ColorScheme-Text {
        color:#122036;
      }
      </style>
    <style
       id="current-color-scheme-10"
       type="text/css">
      .ColorScheme-Text {
        color:#122036;
      }
      </style>
    <style
       type="text/css"
       id="current-color-scheme-0">
      .ColorScheme-Text {
        color:#122036;
      }
      </style>
    <style
       type="text/css"
       id="current-color-scheme-26">
      .ColorScheme-Text {
        color:#122036;
      }
      </style>
    <style
       id="current-color-scheme-27"
       type="text/css">
      .ColorScheme-Text {
        color:#122036;
      }
      </style>
    <style
       id="current-color-scheme-7"
       type="text/css">
      .ColorScheme-Text {
        color:#122036;
      }
      </style>
    <style
       id="current-color-scheme-5-09"
       type="text/css">
      .ColorScheme-Text {
        color:#122036;
      }
      </style>
    <style
       id="current-color-scheme-0-3"
       type="text/css">
      .ColorScheme-Text {
        color:#122036;
      }
      </style>
    <style
       id="current-color-scheme-7-9"
       type="text/css">
      .ColorScheme-Text {
        color:#122036;
      }
      </style>
    <style
       id="current-color-scheme-5-3"
       type="text/css">
      .ColorScheme-Text {
        color:#122036;
      }
      </style>
    <style
       id="current-color-scheme-79"
       type="text/css">
      .ColorScheme-Text {
        color:#122036;
      }
      </style>
    <style
       id="current-color-scheme-7-2"
       type="text/css">
      .ColorScheme-Text {
        color:#122036;
      }
      </style>
    <style
       id="current-color-scheme-5-0"
       type="text/css">
      .ColorScheme-Text {
        color:#122036;
      }
      </style>
  </defs>
  <sodipodi:namedview
     id="base"
     pagecolor="#ffffff"
     bordercolor="#666666"
     borderopacity="1.0"
     inkscape:pageopacity="0.0"
     inkscape:pageshadow="2"
     inkscape:zoom="16"
     inkscape:cx="30.03125"
     inkscape:cy="42.6875"
     inkscape:document-units="px"
     inkscape:current-layer="layer1"
     showgrid="true"
     units="px"
     inkscape:window-width="2160"
     inkscape:window-height="1330"
     inkscape:window-x="0"
     inkscape:window-y="0"
     inkscape:window-maximized="1"
     objecttolerance="10"
     gridtolerance="10"
     guidetolerance="10"
     inkscape:snap-bbox="true"
     inkscape:bbox-paths="true"
     inkscape:bbox-nodes="true"
     inkscape:snap-bbox-edge-midpoints="true"
     inkscape:snap-bbox-midpoints="true"
     inkscape:object-paths="true"
     inkscape:snap-intersection-paths="true"
     inkscape:showpageshadow="false"
     inkscape:pagecheckerboard="0"
     inkscape:deskcolor="#d1d1d1">
    <inkscape:grid
       type="xygrid"
       id="grid7897"
       empspacing="4" />
  </sodipodi:namedview>
  <metadata
     id="metadata5">
    <rdf:RDF>
      <cc:Work
         rdf:about="">
        <dc:format>image/svg+xml</dc:format>
        <dc:type
           rdf:resource="http://purl.org/dc/dcmitype/StillImage" />
        <dc:title>Antu icon Theme</dc:title>
      </cc:Work>
    </rdf:RDF>
  </metadata>
  <g
     inkscape:label="Capa 1"
     inkscape:groupmode="layer"
     id="layer1"
     transform="translate(0,-250.64999)">
    <g
       id="g1769"
       transform="translate(38,-6)">
      <path
         id="rect971"
         d="m -29,257.64999 h 46 c 2.216,0 4,1.784 4,4 v 54 c 0,2.216 -1.784,4 -4,4 h -46 c -2.216,0 -4,-1.784 -4,-4 v -54 c 0,-2.216 1.784,-4 4,-4 z"
         style="opacity:1;vector-effect:none;fill:#a5b8cd;fill-opacity:1;stroke:none;stroke-width:2;stroke-linecap:round;stroke-linejoin:round;stroke-miterlimit:4;stroke-dasharray:none;stroke-dashoffset:0;stroke-opacity:1"
         inkscape:connector-curvature="0"
         sodipodi:nodetypes="sssssssss" />
      <path
         id="rect971-2"
         d="m -29,258.64999 h 46 c 1.662,0 3,1.338 3,3 v 54 c 0,1.662 -1.338,3 -3,3 h -46 c -1.662,0 -3,-1.338 -3,-3 v -54 c 0,-1.662 1.338,-3 3,-3 z"
         style="opacity:1;vector-effect:none;fill:#f1f1f1;fill-opacity:1;stroke:none;stroke-width:2;stroke-linecap:round;stroke-linejoin:round;stroke-miterlimit:4;stroke-dasharray:none;stroke-dashoffset:0;stroke-opacity:1"
         inkscape:connector-curvature="0"
         sodipodi:nodetypes="sssssssss" />
    </g>
    <path
       id="rect1001"
       style="opacity:1;vector-effect:none;fill:#a5b8cd;fill-opacity:1;stroke:none;stroke-width:2;stroke-linecap:round;stroke-linejoin:round;stroke-miterlimit:4;stroke-dasharray:none;stroke-dashoffset:0;stroke-opacity:1"
       d="M 12 261.64999 L 12 263.64999 L 20 263.64999 L 20 261.64999 L 12 261.64999 z M 22 261.64999 L 22 263.64999 L 25 263.64999 L 25 261.64999 L 22 261.64999 z M 27 261.64999 L 27 263.64999 L 31 263.64999 L 31 261.64999 L 27 261.64999 z M 33 261.64999 L 33 263.64999 L 38 263.64999 L 42 263.64999 L 42 261.64999 L 38 261.64999 L 33 261.64999 z M 44 261.64999 L 44 263.64999 L 52 263.64999 L 52 261.64999 L 44 261.64999 z M 12 265.64999 L 12 267.64999 L 16 267.64999 L 16 265.64999 L 12 265.64999 z M 18 265.64999 L 18 267.64999 L 26 267.64999 L 26 265.64999 L 18 265.64999 z M 28 265.64999 L 28 267.64999 L 29 267.64999 L 33 267.64999 L 35 267.64999 L 37 267.64999 L 46 267.64999 L 46 265.64999 L 37 265.64999 L 35 265.64999 L 33 265.64999 L 29 265.64999 L 28 265.64999 z M 48 265.64999 L 48 267.64999 L 52 267.64999 L 52 265.64999 L 48 265.64999 z M 12 269.64999 L 12 271.64999 L 15 271.64999 L 15 269.64999 L 12 269.64999 z M 17 269.64999 L 17 271.64999 L 21 271.64999 L 21 269.64999 L 17 269.64999 z M 23 269.64999 L 23 271.64999 L 31 271.64999 L 31 269.64999 L 23 269.64999 z M 33 269.64999 L 33 271.64999 L 35 271.64999 L 38 271.64999 L 39 271.64999 L 39 269.64999 L 38 269.64999 L 35 269.64999 L 33 269.64999 z M 41 269.64999 L 41 271.64999 L 52 271.64999 L 52 269.64999 L 41 269.64999 z M 12 273.64999 L 12 275.64999 L 23 275.64999 L 23 273.64999 L 12 273.64999 z M 25 273.64999 L 25 275.64999 L 27 275.64999 L 29 275.64999 L 31 275.64999 L 36 275.64999 L 38 275.64999 L 46 275.64999 L 46 273.64999 L 38 273.64999 L 36 273.64999 L 31 273.64999 L 29 273.64999 L 27 273.64999 L 25 273.64999 z M 48 273.64999 L 48 275.64999 L 52 275.64999 L 52 273.64999 L 48 273.64999 z M 12 277.64999 L 12 279.64999 L 16 279.64999 L 16 277.64999 L 12 277.64999 z M 18 277.64999 L 18 279.64999 L 26 279.64999 L 28 279.64999 L 33 279.64999 L 35 279.64999 L 37 279.64999 L 39 279.64999 L 39 277.64999 L 37 277.64999 L 35 277.64999 L 33 277.64999 L 28 277.64999 L 26 277.64999 L 18 277.64999 z M 41 277.64999 L 41 279.64999 L 52 279.64999 L 52 277.64999 L 41 277.64999 z M 12 281.64999 L 12 283.64999 L 23 283.64999 L 23 281.64999 L 12 281.64999 z M 25 281.64999 L 25 283.64999 L 26 283.64999 L 29 283.64999 L 31 283.64999 L 31 281.64999 L 29 281.64999 L 26 281.64999 L 25 281.64999 z M 36 282.64999 L 36 286.64999 L 32 286.64999 L 32 290.64999 L 36 290.64999 L 36 294.64999 L 32 294.64999 L 32 298.64999 L 36 298.64999 L 36 302.64999 L 40 302.64999 L 40 298.64999 L 44 298.64999 L 44 302.64999 L 48 302.64999 L 48 298.64999 L 52 298.64999 L 52 294.64999 L 48 294.64999 L 48 290.64999 L 52 290.64999 L 52 286.64999 L 48 286.64999 L 48 282.64999 L 44 282.64999 L 44 286.64999 L 40 286.64999 L 40 282.64999 L 36 282.64999 z M 12 285.64999 L 12 287.64999 L 16 287.64999 L 16 285.64999 L 12 285.64999 z M 18 285.64999 L 18 287.64999 L 20 287.64999 L 22 287.64999 L 24 287.64999 L 28 287.64999 L 29 287.64999 L 29 285.64999 L 28 285.64999 L 24 285.64999 L 22 285.64999 L 20 285.64999 L 18 285.64999 z M 12 289.64999 L 12 291.64999 L 20 291.64999 L 20 289.64999 L 12 289.64999 z M 22 289.64999 L 22 291.64999 L 26 291.64999 L 29 291.64999 L 29 289.64999 L 26 289.64999 L 22 289.64999 z M 40 290.64999 L 44 290.64999 L 44 294.64999 L 40 294.64999 L 40 290.64999 z M 12 293.64999 L 12 295.64999 L 19 295.64999 L 19 293.64999 L 12 293.64999 z M 21 293.64999 L 21 295.64999 L 22 295.64999 L 25 295.64999 L 27 295.64999 L 27 293.64999 L 25 293.64999 L 22 293.64999 L 21 293.64999 z M 12 297.64999 L 12 299.64999 L 16 299.64999 L 16 297.64999 L 12 297.64999 z M 18 297.64999 L 18 299.64999 L 20 299.64999 L 22 299.64999 L 24 299.64999 L 28 299.64999 L 29 299.64999 L 29 297.64999 L 28 297.64999 L 24 297.64999 L 22 297.64999 L 20 297.64999 L 18 297.64999 z M 12 301.64999 L 12 303.64999 L 20 303.64999 L 20 301.64999 L 12 301.64999 z M 22 301.64999 L 22 303.64999 L 26 303.64999 L 31 303.64999 L 31 301.64999 L 26 301.64999 L 22 301.64999 z " />
  </g>
</svg>
