<?xml version="1.0" encoding="UTF-8" standalone="no"?>
<!-- Created with Inkscape (http://www.inkscape.org/) -->

<svg
   width="64"
   height="64"
   viewBox="0 0 16.933333 16.933333"
   version="1.1"
   id="svg5"
   inkscape:version="1.2.1 (9c6d41e410, 2022-07-14)"
   sodipodi:docname="text-x-log.svg"
   xmlns:inkscape="http://www.inkscape.org/namespaces/inkscape"
   xmlns:sodipodi="http://sodipodi.sourceforge.net/DTD/sodipodi-0.dtd"
   xmlns="http://www.w3.org/2000/svg"
   xmlns:svg="http://www.w3.org/2000/svg">
  <sodipodi:namedview
     id="namedview7"
     pagecolor="#ffffff"
     bordercolor="#000000"
     borderopacity="0.25"
     inkscape:showpageshadow="false"
     inkscape:pageopacity="0.0"
     inkscape:pagecheckerboard="0"
     inkscape:deskcolor="#d1d1d1"
     inkscape:document-units="px"
     showgrid="true"
     inkscape:zoom="14.481547"
     inkscape:cx="21.579186"
     inkscape:cy="21.820873"
     inkscape:window-width="2160"
     inkscape:window-height="1330"
     inkscape:window-x="0"
     inkscape:window-y="0"
     inkscape:window-maximized="1"
     inkscape:current-layer="layer1">
    <inkscape:grid
       type="xygrid"
       id="grid290"
       originx="0"
       originy="0" />
  </sodipodi:namedview>
  <defs
     id="defs2" />
  <g
     inkscape:label="Capa 1"
     inkscape:groupmode="layer"
     id="layer1">
    <g
       id="g48002"
       transform="translate(-3.4401114,-0.52927468)">
      <g
         id="g1769"
         transform="matrix(0.26458333,0,0,0.26458333,13.49375,-67.376143)">
        <path
           id="rect971"
           d="m -29,257.64999 h 46 c 2.216,0 4,1.784 4,4 v 54 c 0,2.216 -1.784,4 -4,4 h -46 c -2.216,0 -4,-1.784 -4,-4 v -54 c 0,-2.216 1.784,-4 4,-4 z"
           style="opacity:1;fill:#36404d;fill-opacity:1;stroke:none;stroke-width:2;stroke-linecap:round;stroke-linejoin:round;stroke-miterlimit:4;stroke-dasharray:none;stroke-dashoffset:0;stroke-opacity:1"
           inkscape:connector-curvature="0"
           sodipodi:nodetypes="sssssssss" />
        <path
           id="rect971-2"
           d="m -29,258.64999 h 46 c 1.662,0 3,1.338 3,3 v 54 c 0,1.662 -1.338,3 -3,3 h -46 c -1.662,0 -3,-1.338 -3,-3 v -54 c 0,-1.662 1.338,-3 3,-3 z"
           style="opacity:1;fill:#4b6477;fill-opacity:1;stroke:none;stroke-width:2;stroke-linecap:round;stroke-linejoin:round;stroke-miterlimit:4;stroke-dasharray:none;stroke-dashoffset:0;stroke-opacity:1"
           inkscape:connector-curvature="0"
           sodipodi:nodetypes="sssssssss" />
      </g>
      <path
         style="fill:#fefefe;fill-opacity:1;stroke:none;stroke-width:0.529167;stroke-linecap:round;stroke-linejoin:round;stroke-miterlimit:4;stroke-dasharray:none;stroke-dashoffset:0;stroke-opacity:1"
         d="M 6.6145833,3.4395826 V 3.9687493 H 8.7312499 V 3.4395826 Z m 2.6458333,0 V 3.9687493 H 10.054167 V 3.4395826 Z m 1.3229164,0 v 0.5291667 h 1.058334 V 3.4395826 Z m 1.5875,0 v 0.5291667 h 1.322917 1.058333 V 3.4395826 H 13.49375 Z m 2.910417,0 v 0.5291667 h 2.116666 V 3.4395826 Z M 6.6145833,4.497916 V 5.0270826 H 7.6729166 V 4.497916 Z m 1.5874999,0 V 5.0270826 H 10.31875 V 4.497916 Z m 2.6458338,0 V 5.0270826 H 11.1125 12.170833 12.7 13.229167 15.610416 V 4.497916 H 13.229167 12.7 12.170833 11.1125 Z m 5.291666,0 v 0.5291666 h 1.058333 V 4.497916 Z M 6.6145833,5.5562493 V 6.0854159 H 7.4083332 V 5.5562493 Z m 1.3229166,0 V 6.0854159 H 8.9958332 V 5.5562493 Z m 1.5875,0 V 6.0854159 H 11.641667 V 5.5562493 Z m 2.6458331,0 V 6.0854159 H 12.7 13.49375 13.758333 V 5.5562493 H 13.49375 12.7 Z m 2.116667,0 v 0.5291666 h 2.910416 V 5.5562493 Z M 6.6145833,6.6145826 V 7.1437493 H 9.5249999 V 6.6145826 Z m 3.4395837,0 v 0.5291667 h 0.529166 0.529167 0.529167 1.322916 0.529167 2.116666 V 6.6145826 H 13.49375 12.964583 11.641667 11.1125 10.583333 Z m 6.085416,0 v 0.5291667 h 1.058333 V 6.6145826 Z M 6.6145833,7.6729159 V 8.2020826 H 7.6729166 V 7.6729159 Z m 1.5874999,0 V 8.2020826 H 10.31875 10.847917 12.170833 12.7 13.229167 13.758333 V 7.6729159 H 13.229167 12.7 12.170833 10.847917 10.31875 Z m 6.0854168,0 v 0.5291667 h 2.910416 V 7.6729159 Z M 6.6145833,8.7312492 V 9.2604159 H 9.5249999 V 8.7312492 Z m 3.4395837,0 v 0.5291667 h 0.264583 0.79375 0.529167 V 8.7312492 H 11.1125 10.31875 Z m 2.116666,0 V 9.2604159 H 14.2875 V 8.7312492 Z m 2.645833,0 V 9.2604159 H 15.875 V 8.7312492 Z m 1.5875,0 v 0.5291667 h 0.79375 V 8.7312492 Z M 6.6145833,9.7895826 V 10.318749 H 7.6729166 V 9.7895826 Z m 1.5874999,0 V 10.318749 H 10.583333 11.1125 11.641667 12.7 12.964583 V 9.7895826 H 12.7 11.641667 11.1125 10.583333 Z m 5.2916668,0 v 0.5291664 h 2.116666 V 9.7895826 Z m 2.645833,0 v 0.5291664 h 1.058333 V 9.7895826 Z M 6.6145833,10.847916 v 0.529167 h 2.1166666 v -0.529167 z m 2.6458333,0 v 0.529167 H 10.31875 11.641667 V 10.847916 H 10.31875 Z m 2.9104164,0 v 0.529167 h 1.058334 v -0.529167 z m 1.5875,0 v 0.529167 h 0.79375 v -0.529167 z m 1.322917,0 v 0.529167 h 2.116666 v -0.529167 z m -8.4666667,1.058333 v 0.529167 h 2.9104166 v -0.529167 z m 3.4395837,0 v 0.529167 h 0.264583 0.79375 0.529167 V 11.906249 H 11.1125 10.31875 Z m 2.116666,0 v 0.529167 H 14.2875 v -0.529167 z m 2.645833,0 v 0.529167 H 15.875 v -0.529167 z m 1.5875,0 v 0.529167 h 0.79375 v -0.529167 z m -9.7895827,1.058334 v 0.529166 h 1.0583333 v -0.529166 z m 1.5874999,0 v 0.529166 H 10.583333 11.1125 11.641667 12.7 12.964583 V 12.964583 H 12.7 11.641667 11.1125 10.583333 Z m 5.2916668,0 v 0.529166 h 2.116666 v -0.529166 z m 2.645833,0 v 0.529166 h 1.058333 v -0.529166 z m -9.5249997,1.058333 v 0.529167 h 2.1166666 v -0.529167 z m 2.6458333,0 v 0.529167 H 10.31875 11.641667 V 14.022916 H 10.31875 Z m 2.9104164,0 v 0.529167 h 1.058334 v -0.529167 z m 1.5875,0 v 0.529167 h 0.79375 v -0.529167 z m 1.322917,0 v 0.529167 h 2.116666 v -0.529167 z"
         id="rect1001"
         inkscape:connector-curvature="0" />
      <g
         inkscape:label="Capa 1"
         id="layer1-6"
         transform="matrix(0.26458333,0,0,0.26458333,11.641667,-65.524057)">
        <path
           style="color:#000000;font-style:normal;font-variant:normal;font-weight:normal;font-stretch:normal;font-size:medium;line-height:normal;font-family:sans-serif;font-variant-ligatures:normal;font-variant-position:normal;font-variant-caps:normal;font-variant-numeric:normal;font-variant-alternates:normal;font-feature-settings:normal;text-indent:0;text-align:start;text-decoration:none;text-decoration-line:none;text-decoration-style:solid;text-decoration-color:#000000;letter-spacing:normal;word-spacing:normal;text-transform:none;writing-mode:lr-tb;direction:ltr;text-orientation:mixed;dominant-baseline:auto;baseline-shift:baseline;text-anchor:start;white-space:normal;shape-padding:0;clip-rule:nonzero;display:inline;overflow:visible;visibility:visible;opacity:1;isolation:auto;mix-blend-mode:normal;color-interpolation:sRGB;color-interpolation-filters:linearRGB;solid-color:#000000;solid-opacity:1;fill:#f7b452;fill-opacity:1;fill-rule:nonzero;stroke:none;stroke-width:2;stroke-linecap:round;stroke-linejoin:round;stroke-miterlimit:4;stroke-dasharray:none;stroke-dashoffset:0;stroke-opacity:1;color-rendering:auto;image-rendering:auto;shape-rendering:auto;text-rendering:auto;enable-background:accumulate"
           d="m 15.976562,284.65039 c -0.359473,0.008 -0.686842,0.20886 -0.857421,0.52539 l -14.0000004,26 C 0.75990068,311.84228 1.242849,312.65077 2,312.65039 h 28 c 0.757151,3.8e-4 1.240099,-0.80811 0.880859,-1.47461 l -14,-26 c -0.178551,-0.33134 -0.528015,-0.53438 -0.904297,-0.52539 z"
           id="path831"
           inkscape:connector-curvature="0"
           sodipodi:nodetypes="cccccccc" />
        <path
           style="fill:#ffd94c;fill-opacity:1;stroke:none;stroke-width:1px;stroke-linecap:butt;stroke-linejoin:miter;stroke-opacity:1"
           d="m 2,311.64999 14,-26 14,26 z"
           id="path871"
           inkscape:connector-curvature="0" />
        <g
           transform="matrix(3.7795274,0,0,3.7795272,-26.253044,-795.40507)"
           id="layer1-3"
           inkscape:label="Capa 1">
          <g
             transform="matrix(0.26458334,0,0,-0.26458336,11.179455,368.12751)"
             id="layer1-60"
             inkscape:label="Capa 1">
            <g
               transform="matrix(0.6,0,0,0.6,9.4,121.46001)"
               id="g2289">
              <g
                 inkscape:label="Capa 1"
                 id="layer1-60-1"
                 transform="matrix(1.6666667,0,0,1.6666667,-15.666667,-202.43335)">
                <path
                   sodipodi:nodetypes="ssssssscssscss"
                   style="opacity:1;fill:#906411;fill-opacity:1;stroke:none;stroke-width:2;stroke-linecap:round;stroke-linejoin:round;stroke-miterlimit:4;stroke-dasharray:none;stroke-opacity:1"
                   d="m -1.4779968e-5,286.29288 c -1.107996020032,0 -1.999998020032,0.892 -1.999998020032,2 0,1.108 0.892002,2 1.999998020032,2 1.108001979968,0 2.000003979968,-0.892 2.000003979968,-2 0,-1.108 -0.892002,-2 -2.000003979968,-2 z m 0,6 c -1.107996020032,0 -1.999998020032,0.892 -1.999998020032,2 v 3 3 c 0,1.108 0.892002,2 1.999998020032,2 1.108001979968,0 2.000003979968,-0.892 2.000003979968,-2 v -3 -3 c 0,-1.108 -0.892002,-2 -2.000003979968,-2 z"
                   id="rect5924-9-3"
                   inkscape:connector-curvature="0" />
              </g>
            </g>
          </g>
        </g>
      </g>
    </g>
  </g>
</svg>
