<?xml version="1.0" encoding="UTF-8" standalone="no"?>
<!-- Created with Inkscape (http://www.inkscape.org/) -->

<svg
   width="64"
   height="64"
   viewBox="0 0 16.933333 16.933333"
   version="1.1"
   id="svg5"
   inkscape:version="1.2.1 (9c6d41e410, 2022-07-14)"
   sodipodi:docname="text-x-python3.svg"
   xmlns:inkscape="http://www.inkscape.org/namespaces/inkscape"
   xmlns:sodipodi="http://sodipodi.sourceforge.net/DTD/sodipodi-0.dtd"
   xmlns="http://www.w3.org/2000/svg"
   xmlns:svg="http://www.w3.org/2000/svg">
  <sodipodi:namedview
     id="namedview7"
     pagecolor="#ffffff"
     bordercolor="#000000"
     borderopacity="0.25"
     inkscape:showpageshadow="false"
     inkscape:pageopacity="0.0"
     inkscape:pagecheckerboard="0"
     inkscape:deskcolor="#d1d1d1"
     inkscape:document-units="px"
     showgrid="true"
     inkscape:zoom="14.481547"
     inkscape:cx="40.15455"
     inkscape:cy="31.833616"
     inkscape:window-width="2160"
     inkscape:window-height="1330"
     inkscape:window-x="0"
     inkscape:window-y="0"
     inkscape:window-maximized="1"
     inkscape:current-layer="layer1">
    <inkscape:grid
       type="xygrid"
       id="grid290"
       originx="0"
       originy="0" />
  </sodipodi:namedview>
  <defs
     id="defs2" />
  <g
     inkscape:label="Capa 1"
     inkscape:groupmode="layer"
     id="layer1">
    <g
       id="g4836"
       transform="translate(-2.1166666,-0.52916717)">
      <g
         id="g8147">
        <path
           id="rect971"
           d="M 4.4979166,0.79375035 H 16.66875 c 0.586316,0 1.058333,0.47201665 1.058333,1.05833335 V 16.139583 c 0,0.586317 -0.472017,1.058334 -1.058333,1.058334 H 4.4979166 c -0.5863167,0 -1.0583333,-0.472017 -1.0583333,-1.058334 V 1.8520837 c 0,-0.5863167 0.4720166,-1.05833335 1.0583333,-1.05833335 z"
           style="fill:#a3b7cc;fill-opacity:1;stroke:none;stroke-width:0.529167;stroke-linecap:round;stroke-linejoin:round;stroke-miterlimit:4;stroke-dasharray:none;stroke-dashoffset:0;stroke-opacity:1"
           inkscape:connector-curvature="0"
           sodipodi:nodetypes="sssssssss" />
        <path
           id="rect971-2"
           d="M 4.4979166,1.0583337 H 16.66875 c 0.439737,0 0.79375,0.3540125 0.79375,0.79375 V 16.139583 c 0,0.439738 -0.354013,0.79375 -0.79375,0.79375 H 4.4979166 c -0.4397375,0 -0.79375,-0.354012 -0.79375,-0.79375 V 1.8520837 c 0,-0.4397375 0.3540125,-0.79375 0.79375,-0.79375 z"
           style="fill:#fafafa;fill-opacity:1;stroke:none;stroke-width:0.529167;stroke-linecap:round;stroke-linejoin:round;stroke-miterlimit:4;stroke-dasharray:none;stroke-dashoffset:0;stroke-opacity:1"
           inkscape:connector-curvature="0"
           sodipodi:nodetypes="sssssssss" />
        <path
           id="rect5971-3"
           style="fill:#dfe6ec;fill-opacity:1;stroke-width:0.423333;stroke-linecap:round;stroke-linejoin:round;stroke-miterlimit:1.8;paint-order:stroke fill markers;stop-color:#000000"
           d="m 4.4979166,1.0583337 c -0.439736,0 -0.79375,0.3540125 -0.79375,0.79375 V 2.116667 h 0.044958 1.0133748 V 1.1032917 1.0583337 Z M 4.7624999,2.116667 V 3.1750003 H 5.8208332 V 2.116667 Z m 1.0583333,0 H 6.8791665 V 1.0583337 H 5.8208332 Z m 1.0583333,0 V 3.1750003 H 7.9374999 V 2.116667 Z m 1.0583334,0 H 8.9958332 V 1.0583337 H 7.9374999 Z m 1.0583333,0 V 3.1750003 H 10.054167 V 2.116667 Z m 1.0583338,0 H 11.1125 V 1.0583337 h -1.058333 z m 1.058333,0 v 1.0583333 h 1.058333 V 2.116667 Z m 1.058333,0 h 1.058333 V 1.0583337 h -1.058333 z m 1.058333,0 V 3.1750003 H 14.2875 V 2.116667 Z m 1.058334,0 h 1.058333 V 1.0583337 H 14.2875 Z m 1.058333,0 v 1.0583333 h 1.058333 V 2.116667 Z m 1.058333,0 h 1.013375 0.04496 V 1.8520837 c 0,-0.4397375 -0.354014,-0.79375 -0.79375,-0.79375 h -0.264584 v 0.044958 z m 0,1.0583333 V 4.2333336 H 17.4625 V 3.1750003 Z m 0,1.0583333 H 15.345833 V 5.291667 h 1.058333 z m 0,1.0583334 V 6.3500003 H 17.4625 V 5.291667 Z m 0,1.0583333 h -1.058333 v 1.0583333 h 1.058333 z m 0,1.0583333 V 8.4666669 H 17.4625 V 7.4083336 Z m 0,1.0583333 h -1.058333 v 1.0583333 h 1.058333 z m 0,1.0583333 V 10.583334 H 17.4625 V 9.5250002 Z m 0,1.0583338 h -1.058333 v 1.058333 h 1.058333 z m 0,1.058333 V 12.7 H 17.4625 v -1.058333 z m 0,1.058333 h -1.058333 v 1.058334 h 1.058333 z m 0,1.058334 v 1.058333 H 17.4625 v -1.058333 z m 0,1.058333 H 15.345833 V 15.875 h 1.058333 z m 0,1.058333 v 1.013375 0.04496 h 0.264584 c 0.439736,0 0.79375,-0.354012 0.79375,-0.79375 V 15.875 h -0.04496 z m -1.058333,0 H 14.2875 v 1.058333 h 1.058333 z m -1.058333,0 V 14.816667 H 13.229166 V 15.875 Z m -1.058334,0 h -1.058333 v 1.058333 h 1.058333 z m -1.058333,0 V 14.816667 H 11.1125 V 15.875 Z m -1.058333,0 h -1.058333 v 1.058333 H 11.1125 Z m -1.058333,0 V 14.816667 H 8.9958332 V 15.875 Z m -1.0583338,0 H 7.9374999 v 1.058333 h 1.0583333 z m -1.0583333,0 V 14.816667 H 6.8791665 V 15.875 Z m -1.0583334,0 H 5.8208332 v 1.058333 h 1.0583333 z m -1.0583333,0 V 14.816667 H 4.7624999 V 15.875 Z m -1.0583333,0 H 3.7491251 3.7041666 v 0.264583 c 0,0.439738 0.354014,0.79375 0.79375,0.79375 h 0.2645833 v -0.04496 z m 0,-1.058333 V 13.758334 H 3.7041666 v 1.058333 z m 0,-1.058333 H 5.8208332 V 12.7 H 4.7624999 Z m 0,-1.058334 V 11.641667 H 3.7041666 V 12.7 Z m 0,-1.058333 H 5.8208332 V 10.583334 H 4.7624999 Z m 0,-1.058333 V 9.5250002 H 3.7041666 v 1.0583338 z m 0,-1.0583338 H 5.8208332 V 8.4666669 H 4.7624999 Z m 0,-1.0583333 V 7.4083336 H 3.7041666 v 1.0583333 z m 0,-1.0583333 H 5.8208332 V 6.3500003 H 4.7624999 Z m 0,-1.0583333 V 5.291667 H 3.7041666 v 1.0583333 z m 0,-1.0583333 H 5.8208332 V 4.2333336 H 4.7624999 Z m 0,-1.0583334 V 3.1750003 H 3.7041666 v 1.0583333 z m 1.0583333,0 H 6.8791665 V 3.1750003 H 5.8208332 Z m 1.0583333,0 V 5.291667 H 7.9374999 V 4.2333336 Z m 1.0583334,0 H 8.9958332 V 3.1750003 H 7.9374999 Z m 1.0583333,0 V 5.291667 H 10.054167 V 4.2333336 Z m 1.0583338,0 H 11.1125 V 3.1750003 h -1.058333 z m 1.058333,0 V 5.291667 h 1.058333 V 4.2333336 Z m 1.058333,0 h 1.058333 V 3.1750003 h -1.058333 z m 1.058333,0 V 5.291667 H 14.2875 V 4.2333336 Z m 1.058334,0 h 1.058333 V 3.1750003 H 14.2875 Z m 0,1.0583334 v 1.0583333 h 1.058333 V 5.291667 Z m 0,1.0583333 H 13.229166 V 7.4083336 H 14.2875 Z m 0,1.0583333 v 1.0583333 h 1.058333 V 7.4083336 Z m 0,1.0583333 H 13.229166 V 9.5250002 H 14.2875 Z m 0,1.0583333 v 1.0583338 h 1.058333 V 9.5250002 Z m 0,1.0583338 h -1.058334 v 1.058333 H 14.2875 Z m 0,1.058333 V 12.7 h 1.058333 v -1.058333 z m 0,1.058333 h -1.058334 v 1.058334 H 14.2875 Z m 0,1.058334 v 1.058333 h 1.058333 v -1.058333 z m -1.058334,0 h -1.058333 v 1.058333 h 1.058333 z m -1.058333,0 V 12.7 H 11.1125 v 1.058334 z m -1.058333,0 h -1.058333 v 1.058333 H 11.1125 Z m -1.058333,0 V 12.7 H 8.9958332 v 1.058334 z m -1.0583338,0 H 7.9374999 v 1.058333 h 1.0583333 z m -1.0583333,0 V 12.7 H 6.8791665 v 1.058334 z m -1.0583334,0 H 5.8208332 v 1.058333 h 1.0583333 z m 0,-1.058334 V 11.641667 H 5.8208332 V 12.7 Z m 0,-1.058333 H 7.9374999 V 10.583334 H 6.8791665 Z m 0,-1.058333 V 9.5250002 H 5.8208332 v 1.0583338 z m 0,-1.0583338 H 7.9374999 V 8.4666669 H 6.8791665 Z m 0,-1.0583333 V 7.4083336 H 5.8208332 v 1.0583333 z m 0,-1.0583333 H 7.9374999 V 6.3500003 H 6.8791665 Z m 0,-1.0583333 V 5.291667 H 5.8208332 v 1.0583333 z m 1.0583334,0 H 8.9958332 V 5.291667 H 7.9374999 Z m 1.0583333,0 V 7.4083336 H 10.054167 V 6.3500003 Z m 1.0583338,0 H 11.1125 V 5.291667 h -1.058333 z m 1.058333,0 v 1.0583333 h 1.058333 V 6.3500003 Z m 1.058333,0 h 1.058333 V 5.291667 h -1.058333 z m 0,1.0583333 v 1.0583333 h 1.058333 V 7.4083336 Z m 0,1.0583333 H 11.1125 v 1.0583333 h 1.058333 z m 0,1.0583333 v 1.0583338 h 1.058333 V 9.5250002 Z m 0,1.0583338 H 11.1125 v 1.058333 h 1.058333 z m 0,1.058333 V 12.7 h 1.058333 v -1.058333 z m -1.058333,0 H 10.054167 V 12.7 H 11.1125 Z m -1.058333,0 V 10.583334 H 8.9958332 v 1.058333 z m -1.0583338,0 H 7.9374999 V 12.7 h 1.0583333 z m 0,-1.058333 V 9.5250002 H 7.9374999 v 1.0583338 z m 0,-1.0583338 H 10.054167 V 8.4666669 H 8.9958332 Z m 0,-1.0583333 V 7.4083336 H 7.9374999 v 1.0583333 z m 1.0583338,0 H 11.1125 V 7.4083336 h -1.058333 z m 0,1.0583333 V 10.583334 H 11.1125 V 9.5250002 Z" />
      </g>
      <g
         id="g4218"
         transform="matrix(0.26458333,0,0,0.26458333,4.9359657,1.9544062)">
        <path
           style="color:#000000;fill:#347cce;fill-opacity:1"
           d="m 19.469379,11.613915 c -1.888458,0 -3.614299,0.533614 -4.917969,1.464844 -1.303669,0.931229 -2.207031,2.322639 -2.207031,3.910156 v 1.625 h -1.625 c -1.5875166,0 -2.9789266,0.903362 -3.9101556,2.207031 -0.93123,1.30367 -1.464844,3.029511 -1.464844,4.917969 v 1.75 c 0,1.888458 0.533614,3.612346 1.464844,4.916016 0.931229,1.303669 2.322639,2.208984 3.9101556,2.208984 h 3.625 v -4.5 c 0,-1.402296 1.097704,-2.5 2.5,-2.5 h 7 c 0,0 1.083753,0.01379 2.197266,-0.542969 1.113512,-0.556756 2.302734,-1.873699 2.302734,-3.957031 v -6.125 c 0,-1.587517 -0.905315,-2.978927 -2.208984,-3.910156 -1.30367,-0.93123 -3.027558,-1.464844 -4.916016,-1.464844 z"
           id="path3186-5-6"
           sodipodi:nodetypes="ssscsssssscsscssssss" />
        <path
           id="path3184-3-2"
           style="color:#000000;fill:#6bb1ff;fill-opacity:1;stroke-width:2"
           d="m 13.343087,33.612622 v -3.5 c 0,-1.938998 1.561001,-3.5 3.499999,-3.5 h 7 c 0,0 3.5,-3e-6 3.5,-3.5 v -6.125 c 0,-2.423748 -2.731403,-4.375 -6.125,-4.375 h -1.75 c -3.393596,0 -6.124999,1.951252 -6.124999,4.375 v 1.625 h 6.999999 v 1 h -9.624999 c -2.4237466,0 -4.3749996,2.731403 -4.3749996,6.125 v 1.75 c 0,3.393597 1.951253,6.125 4.3749996,6.125 z m 4.999999,-17 a 1,1 0 0 1 -1,-1 1,1 0 0 1 1,-1 1,1 0 0 1 1,1 1,1 0 0 1 -1,1 z" />
        <g
           id="path1892-7"
           transform="rotate(180,18.343418,21.112951)">
          <path
             style="color:#000000;fill:#f7b656;fill-opacity:1"
             d="m 14.46875,0.61328125 c -1.888458,0 -3.614299,0.53361445 -4.9179687,1.46484375 C 8.2471116,3.0093543 7.34375,4.400764 7.34375,5.9882812 v 1.625 h -1.625 c -1.5875172,0 -2.9789269,0.9033618 -3.9101563,2.2070313 C 0.87736445,11.123982 0.34375,12.849823 0.34375,14.738281 v 1.75 c 0,1.888458 0.53361445,3.612346 1.4648437,4.916016 0.9312293,1.303669 2.3226391,2.208984 3.9101563,2.208984 h 3.625 v -4.5 c 0,-1.402296 1.097704,-2.5 2.5,-2.5 h 7 c 0,0 1.083753,0.01379 2.197266,-0.542969 1.113512,-0.556756 2.302734,-1.873699 2.302734,-3.957031 V 5.9882812 C 23.34375,4.400764 22.438435,3.0093543 21.134766,2.078125 19.831096,1.1468957 18.107208,0.61328125 16.21875,0.61328125 Z"
             id="path3186-5"
             sodipodi:nodetypes="ssscsssssscsscssssss" />
        </g>
        <path
           id="path3184-3"
           style="color:#000000;fill:#ffeba0;fill-opacity:1;stroke-width:2"
           d="m 28.343086,19.612622 v 3.5 c 0,1.938998 -1.561001,3.5 -3.499999,3.5 h -7 c 0,0 -3.5,3e-6 -3.5,3.5 v 6.125 c 0,2.423748 2.731403,4.375 6.125,4.375 h 1.75 c 3.393596,0 6.124999,-1.951252 6.124999,-4.375 v -1.625 h -6.999999 v -1 h 9.624999 c 2.423747,0 4.375,-2.731403 4.375,-6.125 v -1.75 c 0,-3.393597 -1.951253,-6.125 -4.375,-6.125 z m -4.999999,17 a 1,1 0 0 1 1,1 1,1 0 0 1 -1,1 1,1 0 0 1 -1,-1 1,1 0 0 1 1,-1 z" />
      </g>
    </g>
  </g>
</svg>
