<?xml version="1.0" encoding="UTF-8" standalone="no"?>
<!-- Created with Inkscape (http://www.inkscape.org/) -->

<svg
   width="64"
   height="64"
   viewBox="0 0 16.933333 16.933333"
   version="1.1"
   id="svg5"
   inkscape:version="1.2.1 (9c6d41e410, 2022-07-14)"
   sodipodi:docname="virtualbox-vbox-extpack.svg"
   xmlns:inkscape="http://www.inkscape.org/namespaces/inkscape"
   xmlns:sodipodi="http://sodipodi.sourceforge.net/DTD/sodipodi-0.dtd"
   xmlns="http://www.w3.org/2000/svg"
   xmlns:svg="http://www.w3.org/2000/svg">
  <sodipodi:namedview
     id="namedview7"
     pagecolor="#ffffff"
     bordercolor="#000000"
     borderopacity="0.25"
     inkscape:showpageshadow="false"
     inkscape:pageopacity="0.0"
     inkscape:pagecheckerboard="0"
     inkscape:deskcolor="#d1d1d1"
     inkscape:document-units="px"
     showgrid="true"
     inkscape:zoom="14.481547"
     inkscape:cx="40.15455"
     inkscape:cy="31.833616"
     inkscape:window-width="2160"
     inkscape:window-height="1330"
     inkscape:window-x="0"
     inkscape:window-y="0"
     inkscape:window-maximized="1"
     inkscape:current-layer="layer1">
    <inkscape:grid
       type="xygrid"
       id="grid290"
       originx="0"
       originy="0" />
  </sodipodi:namedview>
  <defs
     id="defs2" />
  <g
     inkscape:label="Capa 1"
     inkscape:groupmode="layer"
     id="layer1">
    <g
       id="g10071"
       transform="translate(-0.2645834,0.52916686)">
      <path
         style="fill:#2fa76c;fill-opacity:1;stroke:none;stroke-width:0.529167;stroke-linecap:round;stroke-linejoin:round;stroke-miterlimit:4;stroke-dasharray:none;stroke-dashoffset:0;stroke-opacity:1"
         d="m 2.6458331,-0.26458371 c -0.5863166,0 -1.0583333,0.47201666 -1.0583333,1.05833332 V 4.4979162 5.5562496 15.081249 c 0,0.586317 0.4720167,1.058334 1.0583333,1.058334 H 14.816666 c 0.586317,0 1.058334,-0.472017 1.058334,-1.058334 V 5.5562496 4.4979162 4.2333329 0.79374961 c 0,-0.58631666 -0.472017,-1.05833332 -1.058334,-1.05833332 z"
         id="rect971"
         inkscape:connector-curvature="0" />
      <path
         style="fill:#90dfb3;fill-opacity:1;stroke:none;stroke-width:0.529167;stroke-linecap:round;stroke-linejoin:round;stroke-miterlimit:4;stroke-dasharray:none;stroke-dashoffset:0;stroke-opacity:1"
         d="m 2.6458331,-3.8e-7 c -0.4397374,0 -0.7937499,0.3540125 -0.7937499,0.79374999 v 3.17499999 0.5291666 0.79375 9.7895828 c 0,0.439738 0.3540125,0.79375 0.7937499,0.79375 H 14.816666 c 0.439738,0 0.79375,-0.354012 0.79375,-0.79375 V 5.2916662 4.4979162 3.9687496 0.79374961 c 0,-0.43973749 -0.354012,-0.79374999 -0.79375,-0.79374999 z"
         id="rect971-2"
         inkscape:connector-curvature="0" />
      <path
         id="rect1291"
         style="fill:#2fa76c;fill-opacity:1;stroke-width:0.60174;stroke-linecap:round;stroke-miterlimit:1.8;paint-order:stroke fill markers;stop-color:#000000"
         d="m 5.0270833,3.9687495 c -0.1465789,0 -0.2645834,0.1180044 -0.2645834,0.2645833 v 7.4083332 c 0,0.146579 0.1180045,0.264584 0.2645834,0.264584 H 12.435417 C 12.581996,11.90625 12.7,11.788245 12.7,11.641666 V 4.2333328 C 12.7,4.0867539 12.581996,3.9687495 12.435417,3.9687495 Z M 5.2916666,4.4979161 H 12.170833 V 7.4072992 H 11.113017 A 0.26460996,0.26460996 0 0 0 10.876856,7.5540603 L 10.392647,8.5224766 9.781315,6.2802362 A 0.26460996,0.26460996 0 0 0 9.5332681,6.0854161 0.26460996,0.26460996 0 0 0 9.2733356,6.2668004 L 8.8046304,7.6729161 H 8.4666665 A 0.26460996,0.26460996 0 0 0 8.2227538,7.833113 L 7.7028889,9.0459588 6.8652139,6.5303502 A 0.26460996,0.26460996 0 0 0 6.3691202,6.5169143 L 5.9060994,7.6729161 H 5.2916666 Z m 4.2080118,2.7631388 0.5648236,2.0680909 a 0.26460996,0.26460996 0 0 0 0.489893,0.04909 l 0.720886,-1.4417719 h 0.895552 V 11.377083 H 5.2916666 V 8.2025995 H 6.0859334 A 0.26460996,0.26460996 0 0 0 6.3319132,8.0362014 L 6.5918456,7.3861119 7.4217691,9.8743318 a 0.26460996,0.26460996 0 0 0 0.4940267,0.01964 L 8.6402994,8.2025995 H 8.9958332 A 0.26460996,0.26460996 0 0 0 9.2459471,8.0206984 Z" />
    </g>
  </g>
</svg>
