<?xml version="1.0" encoding="UTF-8" standalone="no"?>
<!-- Created with Inkscape (http://www.inkscape.org/) -->

<svg
   width="64"
   height="64"
   viewBox="0 0 16.933333 16.933333"
   version="1.1"
   id="svg5"
   inkscape:version="1.2.1 (9c6d41e410, 2022-07-14)"
   sodipodi:docname="virtualbox-ovf.svg"
   xmlns:inkscape="http://www.inkscape.org/namespaces/inkscape"
   xmlns:sodipodi="http://sodipodi.sourceforge.net/DTD/sodipodi-0.dtd"
   xmlns="http://www.w3.org/2000/svg"
   xmlns:svg="http://www.w3.org/2000/svg">
  <sodipodi:namedview
     id="namedview7"
     pagecolor="#ffffff"
     bordercolor="#000000"
     borderopacity="0.25"
     inkscape:showpageshadow="false"
     inkscape:pageopacity="0.0"
     inkscape:pagecheckerboard="0"
     inkscape:deskcolor="#d1d1d1"
     inkscape:document-units="px"
     showgrid="true"
     inkscape:zoom="14.481547"
     inkscape:cx="40.15455"
     inkscape:cy="31.833616"
     inkscape:window-width="2160"
     inkscape:window-height="1330"
     inkscape:window-x="0"
     inkscape:window-y="0"
     inkscape:window-maximized="1"
     inkscape:current-layer="layer1">
    <inkscape:grid
       type="xygrid"
       id="grid290"
       originx="0"
       originy="0" />
  </sodipodi:namedview>
  <defs
     id="defs2" />
  <g
     inkscape:label="Capa 1"
     inkscape:groupmode="layer"
     id="layer1">
    <g
       id="g12872"
       transform="translate(-2.3812496,1.3229169)">
      <path
         style="fill:#fbba55;fill-opacity:1;stroke:none;stroke-width:0.529167;stroke-linecap:round;stroke-linejoin:round;stroke-miterlimit:4;stroke-dasharray:none;stroke-dashoffset:0;stroke-opacity:1"
         d="m 4.7624994,-1.0583337 c -0.5863166,0 -1.0583333,0.47201669 -1.0583333,1.05833335 V 3.7041663 4.7624996 14.287499 c 0,0.586317 0.4720167,1.058334 1.0583333,1.058334 H 16.933333 c 0.586316,0 1.058333,-0.472017 1.058333,-1.058334 V 4.7624996 3.7041663 3.4395829 -3.5e-7 c 0,-0.58631666 -0.472017,-1.05833335 -1.058333,-1.05833335 z"
         id="rect971"
         inkscape:connector-curvature="0" />
      <path
         style="fill:#fcd277;fill-opacity:1;stroke:none;stroke-width:0.529167;stroke-linecap:round;stroke-linejoin:round;stroke-miterlimit:4;stroke-dasharray:none;stroke-dashoffset:0;stroke-opacity:1"
         d="m 4.7624994,-0.79375034 c -0.4397374,0 -0.7937499,0.3540125 -0.7937499,0.79374999 v 3.17499995 0.5291667 0.79375 9.7895827 c 0,0.439738 0.3540125,0.79375 0.7937499,0.79375 H 16.933333 c 0.439737,0 0.79375,-0.354012 0.79375,-0.79375 V 4.4979163 3.7041663 3.1749996 -3.5e-7 c 0,-0.43973749 -0.354013,-0.79374999 -0.79375,-0.79374999 z"
         id="rect971-2"
         inkscape:connector-curvature="0" />
      <path
         id="rect1291"
         style="fill:#f6ac23;fill-opacity:1;stroke-width:0.60174;stroke-linecap:round;stroke-miterlimit:1.8;paint-order:stroke fill markers;stop-color:#000000"
         d="m 7.1437499,3.1749995 c -0.1465789,0 -0.2645834,0.1180044 -0.2645834,0.2645833 v 7.4083332 c 0,0.146579 0.1180045,0.264584 0.2645834,0.264584 h 7.4083331 c 0.146579,0 0.264583,-0.118005 0.264583,-0.264584 V 3.4395828 c 0,-0.1465789 -0.118004,-0.2645833 -0.264583,-0.2645833 z M 7.4083332,3.7041661 H 14.287499 V 6.6135492 H 13.229683 A 0.26460996,0.26460996 0 0 0 12.993522,6.7603103 L 12.509314,7.7287266 11.897982,5.4864862 A 0.26460996,0.26460996 0 0 0 11.649935,5.2916661 0.26460996,0.26460996 0 0 0 11.390002,5.4730504 L 10.921297,6.8791661 H 10.583333 A 0.26460996,0.26460996 0 0 0 10.33942,7.039363 L 9.8195555,8.2522088 8.9818805,5.7366002 A 0.26460996,0.26460996 0 0 0 8.4857868,5.7231643 L 8.022766,6.8791661 H 7.4083332 Z m 4.2080118,2.7631388 0.564823,2.0680909 a 0.26460996,0.26460996 0 0 0 0.489893,0.04909 l 0.720886,-1.4417719 h 0.895552 V 10.583333 H 7.4083332 V 7.4088495 H 8.2026 A 0.26460996,0.26460996 0 0 0 8.4485798,7.2424514 L 8.7085122,6.5923619 9.5384357,9.0805818 a 0.26460996,0.26460996 0 0 0 0.4940263,0.01964 L 10.756966,7.4088495 H 11.1125 a 0.26460996,0.26460996 0 0 0 0.250114,-0.1819011 z" />
    </g>
  </g>
</svg>
