<?xml version="1.0" encoding="UTF-8" standalone="no"?>
<!-- Created with Inkscape (http://www.inkscape.org/) -->

<svg
   width="64"
   height="64"
   viewBox="0 0 16.933333 16.933333"
   version="1.1"
   id="svg5"
   inkscape:version="1.2.1 (9c6d41e410, 2022-07-14)"
   sodipodi:docname="virtualbox-vdi.svg"
   xmlns:inkscape="http://www.inkscape.org/namespaces/inkscape"
   xmlns:sodipodi="http://sodipodi.sourceforge.net/DTD/sodipodi-0.dtd"
   xmlns="http://www.w3.org/2000/svg"
   xmlns:svg="http://www.w3.org/2000/svg">
  <sodipodi:namedview
     id="namedview7"
     pagecolor="#ffffff"
     bordercolor="#000000"
     borderopacity="0.25"
     inkscape:showpageshadow="false"
     inkscape:pageopacity="0.0"
     inkscape:pagecheckerboard="0"
     inkscape:deskcolor="#d1d1d1"
     inkscape:document-units="px"
     showgrid="true"
     inkscape:zoom="14.481547"
     inkscape:cx="40.15455"
     inkscape:cy="31.833616"
     inkscape:window-width="2160"
     inkscape:window-height="1330"
     inkscape:window-x="0"
     inkscape:window-y="0"
     inkscape:window-maximized="1"
     inkscape:current-layer="layer1">
    <inkscape:grid
       type="xygrid"
       id="grid290"
       originx="0"
       originy="0" />
  </sodipodi:namedview>
  <defs
     id="defs2" />
  <g
     inkscape:label="Capa 1"
     inkscape:groupmode="layer"
     id="layer1">
    <g
       id="g6054"
       transform="translate(-3.7041666)">
      <path
         style="fill:#dd4f66;fill-opacity:1;stroke:none;stroke-width:0.529167;stroke-linecap:round;stroke-linejoin:round;stroke-miterlimit:4;stroke-dasharray:none;stroke-dashoffset:0;stroke-opacity:1"
         d="m 6.0854165,0.26458329 c -0.5863167,0 -1.0583334,0.47201666 -1.0583334,1.05833331 v 3.7041666 1.0583333 9.5249995 c 0,0.586317 0.4720167,1.058334 1.0583334,1.058334 H 18.25625 c 0.586316,0 1.058333,-0.472017 1.058333,-1.058334 V 6.0854165 5.0270832 4.7624999 1.3229166 c 0,-0.58631665 -0.472017,-1.05833331 -1.058333,-1.05833331 z"
         id="rect971"
         inkscape:connector-curvature="0" />
      <path
         style="fill:#ff778a;fill-opacity:1;stroke:none;stroke-width:0.529167;stroke-linecap:round;stroke-linejoin:round;stroke-miterlimit:4;stroke-dasharray:none;stroke-dashoffset:0;stroke-opacity:1"
         d="m 6.0854165,0.52916662 c -0.4397375,0 -0.79375,0.3540125 -0.79375,0.79374998 v 3.175 0.5291666 0.79375 9.7895828 c 0,0.439738 0.3540125,0.79375 0.79375,0.79375 H 18.25625 c 0.439737,0 0.79375,-0.354012 0.79375,-0.79375 v -9.7895828 -0.79375 -0.5291666 -3.175 c 0,-0.43973748 -0.354013,-0.79374998 -0.79375,-0.79374998 z"
         id="rect971-2"
         inkscape:connector-curvature="0" />
      <path
         id="rect1291"
         style="fill:#fbebee;fill-opacity:1;stroke-width:0.60174;stroke-linecap:round;stroke-miterlimit:1.8;paint-order:stroke fill markers;stop-color:#000000"
         d="m 8.4666666,4.4979162 c -0.1465789,0 -0.2645834,0.1180044 -0.2645834,0.2645833 v 7.4083325 c 0,0.146579 0.1180045,0.264584 0.2645834,0.264584 H 15.875 c 0.146579,0 0.264583,-0.118005 0.264583,-0.264584 V 4.7624995 c 0,-0.1465789 -0.118004,-0.2645833 -0.264583,-0.2645833 z M 8.7312499,5.0270828 H 15.610416 V 7.9364659 H 14.5526 A 0.26460996,0.26460996 0 0 0 14.316439,8.083227 L 13.83223,9.0516433 13.220898,6.8094029 A 0.26460996,0.26460996 0 0 0 12.972851,6.6145828 0.26460996,0.26460996 0 0 0 12.712919,6.7959671 L 12.244214,8.2020828 H 11.90625 A 0.26460996,0.26460996 0 0 0 11.662337,8.3622797 L 11.142472,9.5751255 10.304797,7.0595169 A 0.26460996,0.26460996 0 0 0 9.8087035,7.046081 L 9.3456827,8.2020828 H 8.7312499 Z m 4.2080121,2.7631388 0.564823,2.0680909 a 0.26460996,0.26460996 0 0 0 0.489893,0.04909 l 0.720886,-1.4417719 h 0.895552 V 11.906249 H 8.7312499 V 8.7317662 H 9.5255167 A 0.26460996,0.26460996 0 0 0 9.7714965,8.5653681 l 0.2599325,-0.6500895 0.829923,2.4882194 a 0.26460996,0.26460996 0 0 0 0.494027,0.01964 l 0.724504,-1.6913718 h 0.355534 A 0.26460996,0.26460996 0 0 0 12.68553,8.5498651 Z" />
    </g>
  </g>
</svg>
