<svg
    height="128"
    viewBox="0 0 33.866666 33.866666"
    width="128"
    xmlns="http://www.w3.org/2000/svg">
    <defs id="kuyenfoldercolor">
    <style type="text/css" id="current-color-scheme">
      .ColorScheme-Highlight {
        color:#03b2fe;
      }
      </style>
  </defs>
    <g
        stroke-linecap="round"
        stroke-linejoin="round"
        stroke-miterlimit="1.8"
        transform="translate(0 -263.13333)">
        <path
            d="m3.439584 264.45625h26.987498c1.75895 0 3.175 1.41605 3.175 3.175v25.13543c0 1.75895-1.41605 3.175-3.175 3.175h-26.987498c-1.75895 0-3.175-1.41605-3.175-3.175v-25.13543c0-1.75895 1.41605-3.175 3.175-3.175z"
            fill="#363c4d"
            stroke-width=".529167"/>
        <path
            d="m3.439584 264.72084h26.987501c1.612371 0 2.910417 1.29805 2.910417 2.91042v25.13542c0 1.61237-1.298046 2.91041-2.910417 2.91041h-26.987501c-1.612371 0-2.910417-1.29804-2.910417-2.91041v-25.13542c0-1.61237 1.298046-2.91042 2.910417-2.91042z" fill="#4b6477"
            stroke-width=".529167"/>
        <path
            d="m3.439583 265.77916h26.987499c1.026054 0 1.852084.82603 1.852084 1.85208v25.13539c0 1.02606-.82603 1.85209-1.852084 1.85209h-26.987499c-1.026054 0-1.852083-.82603-1.852083-1.85209v-25.13539c0-1.02605.826029-1.85208 1.852083-1.85208z" fill="#363c4d"
            stroke-width=".504751"/>
        <path
            d="m3.439584 266.04375h26.987498c.879475 0 1.5875.70802 1.5875 1.5875v25.13542c0 .87947-.708025 1.5875-1.5875 1.5875h-26.987498c-.879475 0-1.5875-.70803-1.5875-1.5875v-25.13542c0-.87948.708025-1.5875 1.5875-1.5875z"
            style="fill:currentColor"
            class="ColorScheme-Highlight"
            stroke-width=".500895"/>
        <g
            fill-opacity=".2">
            <path
                d="m3.4395833 266.04375c-.8794742 0-1.5875.70802-1.5875 1.5875v25.13541c0 .87947.7080258 1.5875 1.5875 1.5875h26.9874997c.879474 0 1.5875-.70803 1.5875-1.5875v-25.13541c0-.87948-.708026-1.5875-1.5875-1.5875zm4.0571166 4.7625h10.6711831c.342018 0 .617533.27552.617533.61753v8.02535c0 .34202-.275515.61753-.617533.61753h-10.6711831c-.3420166 0-.6175334-.27551-.6175334-.61753v-8.02535c0-.34201.2755168-.61753.6175334-.61753zm12.3470501 4.7625h5.997049c.342017 0 .617534.27552.617534.61753v8.02535c0 .34202-.275517.61753-.617534.61753h-10.671183c-.342015 0-.617533-.27551-.617533-.61753v-3.08663h1.322917 1.058333 1.5875c.0229 0 .045603-.00107.068213-.00207s.044889-.00265.067179-.00465.044723-.00527.066663-.00827c.02194-.0029.043542-.00789.065112-.01189.02157-.0044.042909-.00946.064079-.01446.02117-.0054.042305-.01209.063045-.01809.02074-.0064.041215-.01367.061495-.02067.02028-.0074.040145-.01577.059945-.02377.0198-.0084.039621-.01736.058911-.02636.01928-.0092.038094-.01874.056844-.02894.01874-.0101.037114-.02104.055294-.03204s.036153-.0222.053743-.0341.035223-.02399.052193-.03669.03329-.02588.04961-.03928c.01632-.0135.032409-.02766.048059-.04186s.031052-.0285.045992-.0434c.01495-.015.029188-.0304.043408-.046.01422-.0157.028398-.03175.041858-.04805.01345-.0163.026604-.03261.039274-.04961s.02483-.0346.03669-.0522c.01187-.0176.023077-.03554.034107-.05374s.021879-.03649.032039-.05529c.01016-.0187.019639-.03755.028939-.05685.00927-.0193.018055-.03911.026355-.05891.00834-.0198.016371-.03964.023771-.05994s.014271-.0408.020671-.0615c.00643-.0207.012686-.04184.018086-.06304.00547-.0212.01007-.04248.01447-.06408.00439-.0216.008585-.04322.011885-.06512.0034-.022.005969-.04436.008269-.06666s.004067-.04458.005167-.06718c.001089-.0226.001551-.04531.001551-.06821v-2.64583-.26459zm-16.6687501 12.17083h2.1166667 23.2833324 2.116667v2.11667.52916.52917.79375.52917c0 .43973-.354013.79375-.79375.79375h-.529167-.285253-.508497-3.968749-15.6104168-3.7041666-.5291667-.79375c-.439736 0-.79375-.35402-.79375-.79375v-.52917-.79375-.52917-.52916z"
                fill="#fff"
                stroke-width=".500895"/>
            <path
                d="m7.4966999 270.80625c-.342017 0-.617534.27552-.617534.61753v8.02535c0 .34202.275517.61753.617534.61753h10.6711831c.342018 0 .617533-.27551.617533-.61753v-8.02535c0-.34201-.275515-.61753-.617533-.61753zm12.3470501 4.7625v1.32291.26459 2.64583c0 .0229-.000462.0456-.0016.0682-.0011.0226-.0029.0449-.0052.0672s-.0049.0447-.0083.0667c-.0033.0219-.0075.0435-.01188.0651-.0044.0216-.009.0429-.01447.0641-.0054.0212-.01166.0423-.01809.063-.0064.0207-.01327.0412-.02067.0615s-.01543.0401-.02377.0599c-.0083.0198-.01708.0396-.02635.0589-.0093.0193-.01878.0382-.02894.0568-.01016.0188-.02101.0371-.03204.0553s-.02224.0361-.03411.0537c-.01186.0176-.02402.0352-.03669.0522s-.02582.0333-.03927.0496c-.01346.0163-.02764.0324-.04186.048s-.02846.031-.04341.046c-.01494.0149-.03034.0292-.04599.0434s-.03174.0284-.04806.0419c-.01632.0134-.03264.0266-.04961.0393s-.0346.0248-.05219.0367-.03556.0231-.05374.0341-.03655.0219-.05529.032c-.01875.0102-.03756.0197-.05684.0289-.01929.009-.03911.018-.05891.0264-.0198.008-.03966.0164-.05994.0238-.02028.007-.04076.0143-.0615.0207-.02074.006-.04187.0127-.06304.0181-.02117.005-.04251.0101-.06408.0145-.02157.004-.04317.009-.06511.0119-.02194.003-.04437.006-.06666.008s-.04457.004-.06718.005-.04531.002-.06821.002h-1.587417-1.058333-1.322917v3.08663c0 .34202.275517.61753.617533.61753h10.671183c.342017 0 .617534-.27551.617534-.61753v-8.02535c0-.34201-.275517-.61753-.617534-.61753zm-16.6687501 12.17083v2.11667.52916.52917.79375.52917c0 .43973.354013.79375.79375.79375h.79375.529167 3.704166 15.6104171 3.968749.508497.285253.529167c.439737 0 .79375-.35402.79375-.79375v-.52917-.79375-.52917-.52916-2.11667h-2.116667-23.2833321z"
                stroke-width=".529167"/>
            </g>
            </g>
            </svg>
