<svg
    height="128"
    viewBox="0 0 33.866666 33.866666"
    width="128"
    xmlns="http://www.w3.org/2000/svg">
    <defs id="kuyenfoldercolor">
    <style type="text/css" id="current-color-scheme">
      .ColorScheme-Highlight {
        color:#03b2fe;
      }
      </style>
  </defs>
    <path
        style="fill:currentColor"
        d="m3.439583 1.3229166c-1.75437 0-3.175 1.42064-3.175 3.175v24.8708294c0 1.75437 1.42063 3.175 3.175 3.175h26.9875c1.754368 0 3.175-1.42063 3.175-3.175v-20.6374997c0-1.7543697-1.420632-3.1749997-3.175-3.1749997h-12.964583c-.516918 0-.945647-.22364-1.377177-.59686-.431532-.37321-.847997-.8929-1.297595-1.42575-.899198-1.06572-1.970138-2.21072-3.675228-2.21072z"
        class="ColorScheme-Highlight"/>
    <path
        d="m3.439584 1.5874965c-1.612367 0-2.910417 1.2980583-2.910417 2.9104167v24.8708328c0 1.612358 1.29805 2.910417 2.910417 2.910417h26.987499c1.612365 0 2.910417-1.298059 2.910417-2.910417v-20.6374997c0-1.6123583-1.29805-2.9104163-2.910417-2.9104163h-12.964583c-2.381245 0-3.175006-4.2333335-6.35-4.2333335z"
        fill="#fff"
        fill-opacity=".077329"/>
    <path
        d="m3.439583 1.3229166c-1.754371 0-3.175 1.42064-3.175 3.175v24.8708394c0 1.75436 1.420629 3.175 3.175 3.175h26.987499c1.754368 0 3.175-1.42064 3.175-3.175v-20.6374997c0-1.7543697-1.420632-3.1749997-3.175-3.1749997h-12.964583c-.516918 0-.945646-.22365-1.377177-.59687-.431532-.37321-.847997-.8929-1.297595-1.42575-.899197-1.06572-1.970138-2.21072-3.675228-2.21072zm0 .26459h7.672916c3.174997 0 3.968752 4.23333 6.35 4.23333h12.964583c1.612368 0 2.910417 1.29806 2.910417 2.9104197v20.6374997c0 1.61236-1.298051 2.91041-2.910417 2.91041h-26.987499c-1.612368 0-2.910417-1.29805-2.910417-2.91041v-24.8708394c0-1.61236 1.298049-2.91041 2.910417-2.91041z"
        fill-opacity=".2"/>
    <path
        style="fill:currentColor"
        d="m17.991666 5.5562466c-1.70509 0-2.77603 1.14501-3.675227 2.21072-.449599.5328597-.866065 1.0525297-1.297596 1.4257497-.43153.37321-.860258.59687-1.377177.59687h-8.202083c-1.754367 0-3.175 1.4206297-3.175 3.1749997v16.66875c0 1.75436 1.420633 3.175 3.175 3.175h26.9875c1.754369 0 3.175-1.42064 3.175-3.175v-20.9020897c0-1.7543697-1.420631-3.1749997-3.175-3.1749997z"
        class="ColorScheme-Highlight"/>
    <path
        d="m17.991666 5.5562466c-1.70509 0-2.77603 1.14501-3.675227 2.21072-.449599.5328597-.866065 1.0525297-1.297596 1.4257497-.43153.37321-.860258.59687-1.377176.59687h-8.202083c-1.754367 0-3.175 1.4206297-3.175 3.1749997v16.66875c0 1.75436 1.420633 3.175 3.175 3.175h26.987499c1.754369 0 3.175-1.42064 3.175-3.175v-20.9020897c0-1.7543597-1.420631-3.1749997-3.175-3.1749997zm0 .26459h12.435417c1.612367 0 2.910417 1.29805 2.910417 2.9104097v20.9020897c0 1.61236-1.298049 2.91041-2.910417 2.91041h-26.987499c-1.612367 0-2.910417-1.29805-2.910417-2.91041v-16.66875c0-1.61236 1.298048-2.91042 2.910417-2.91042h8.202083c2.381248 0 3.175003-4.2333294 6.349999-4.2333294z"
        fill-opacity=".2"/>
    <path
        d="m17.991666 5.8208298c-3.174957 0-3.968778 4.2333322-6.35 4.2333322h-8.202083c-1.612348 0-2.910416 1.298082-2.910416 2.910417v16.66875c0 1.612335 1.29807 2.910416 2.910416 2.910416h26.9875c1.612342 0 2.910416-1.298081 2.910416-2.910416v-.264584-1.322916-.529167-1.322917-.529166-1.322917-15.6104157c0-1.6123387-1.298075-2.9104165-2.910416-2.9104165zm-3.704166 9.2604162 2.38125 3.96875-2.38125 4.233333h-4.7625zm.264583 0h4.7625l-2.38125 3.96875zm5.036902 0 4.7625 8.202083h-4.7625l-2.38125-4.233333zm-10.063985 8.466666h4.7625l-2.38125 3.96875zm5.027083 0h4.7625l2.38125 3.96875h-9.525zm5.027083 0h4.7625l-2.38125 3.96875z"
        fill="#fff"
        fill-opacity=".3029"/>
    <path
        d="m14.287155 15.07899-4.7625 8.20209h4.7625l2.38125-4.23334zm.264583 0 2.38125 3.96875 2.38125-3.96875zm5.036902 0-2.38125 3.96875 2.38125 4.23334h4.7625zm-10.063985 8.46667 2.38125 3.96875 2.38125-3.96875zm5.027083 0-2.38125 3.96875h9.525l-2.38125-3.96875zm5.027083 0 2.38125 3.96875 2.38125-3.96875z"
        fill-opacity=".2"
        stroke-linecap="round"
        stroke-linejoin="round"/>
</svg>
