<svg
    height="128"
    viewBox="0 0 33.866666 33.866666"
    width="128"
    xmlns="http://www.w3.org/2000/svg">
    <defs id="kuyenfoldercolor">
    <style type="text/css" id="current-color-scheme">
      .ColorScheme-Highlight {
        color:#03b2fe;
      }
      </style>
  </defs>
    <path
        style="fill:currentColor"
        d="m3.439583 1.322917c-1.75437 0-3.175 1.42064-3.175 3.175v24.87083c0 1.75437 1.42063 3.175 3.175 3.175h26.9875c1.754368 0 3.175-1.42063 3.175-3.175v-20.6375c0-1.75437-1.420632-3.175-3.175-3.175h-12.964583c-.516918 0-.945647-.22364-1.377177-.59686-.431532-.37321-.847997-.8929-1.297595-1.42575-.899198-1.06572-1.970138-2.21072-3.675228-2.21072z"
        class="ColorScheme-Highlight"/>
    <path
        d="m3.439584 1.587497c-1.612367 0-2.910417 1.298058-2.910417 2.910417v24.870833c0 1.612358 1.29805 2.910417 2.910417 2.910417h26.987499c1.612365 0 2.910417-1.298059 2.910417-2.910417v-20.637501c0-1.612358-1.29805-2.910416-2.910417-2.910416h-12.964583c-2.381245 0-3.175006-4.233333-6.35-4.233333z" fill="#fff"
        fill-opacity=".077329"/>
    <path
        d="m3.439583 1.322917c-1.754371 0-3.175 1.42064-3.175 3.175v24.87084c0 1.75436 1.420629 3.175 3.175 3.175h26.987499c1.754368 0 3.175-1.42064 3.175-3.175v-20.6375c0-1.75437-1.420632-3.175-3.175-3.175h-12.964583c-.516918 0-.945646-.22365-1.377177-.59687-.431532-.37321-.847997-.8929-1.297595-1.42575-.899197-1.06572-1.970138-2.21072-3.675228-2.21072zm0 .26459h7.672916c3.174997 0 3.968752 4.23333 6.35 4.23333h12.964583c1.612368 0 2.910417 1.29806 2.910417 2.91042v20.6375c0 1.61236-1.298051 2.91041-2.910417 2.91041h-26.987499c-1.612368 0-2.910417-1.29805-2.910417-2.91041v-24.87084c0-1.61236 1.298049-2.91041 2.910417-2.91041z"
        fill-opacity=".2"/>
    <path
        style="fill:currentColor"
        d="m17.991666 5.556247c-1.70509 0-2.77603 1.14501-3.675227 2.21072-.449599.53286-.866065 1.05253-1.297596 1.42575-.43153.37321-.860258.59687-1.377177.59687h-8.202083c-1.754367 0-3.175 1.42063-3.175 3.175v16.66875c0 1.75436 1.420633 3.175 3.175 3.175h26.9875c1.754369 0 3.175-1.42064 3.175-3.175v-20.90209c0-1.75437-1.420631-3.175-3.175-3.175z"
        class="ColorScheme-Highlight"/>
    <path
        d="m17.991666 5.556247c-1.70509 0-2.77603 1.14501-3.675227 2.21072-.449599.53286-.866065 1.05253-1.297596 1.42575-.43153.37321-.860258.59687-1.377176.59687h-8.202083c-1.754367 0-3.175 1.42063-3.175 3.175v16.66875c0 1.75436 1.420633 3.175 3.175 3.175h26.987499c1.754369 0 3.175-1.42064 3.175-3.175v-20.90209c0-1.75436-1.420631-3.175-3.175-3.175zm0 .26459h12.435417c1.612367 0 2.910417 1.29805 2.910417 2.91041v20.90209c0 1.61236-1.298049 2.91041-2.910417 2.91041h-26.987499c-1.612367 0-2.910417-1.29805-2.910417-2.91041v-16.66875c0-1.61236 1.298048-2.91042 2.910417-2.91042h8.202083c2.381248 0 3.175003-4.23333 6.349999-4.23333z"
        fill-opacity=".2"/>
    <path
        d="m17.991666 5.82083c-3.174927 0-3.968798 4.233333-6.35 4.233333h-8.202083c-1.612331 0-2.910416 1.298102-2.910416 2.910417v16.66875c0 1.612315 1.298086 2.910416 2.910416 2.910416h26.9875c1.612322 0 2.910416-1.298101 2.910416-2.910416v-.264584-1.322916-.529167-1.322917-.529166-1.322917-15.610416c0-1.612323-1.298095-2.910417-2.910416-2.910417zm-8.96276 10.054167c1.137599.0072 2.242193.380895 3.150712 1.065568l-3.183785 4.226098h5.29115c.000199 2.455147-1.688571 4.587633-4.078304 5.15059-2.389924.562986-4.852878-.592141-5.948474-2.789494-1.095528-2.197195-.535741-4.859088 1.351855-6.429064.959044-.797909 2.169303-1.231344 3.416846-1.223698zm16.90026.001c2.345177 0 4.233333 1.888159 4.233333 4.233333v1.058367 4.761983l-1.058333-1.058333-1.058333 1.058333-1.058334-1.058333-1.058333 1.058333-1.058333-1.058333-1.091406 1.058333-1.024744-1.058333-1.058333 1.058333v-4.761983-1.058334c0-2.345174 1.88764-4.233333 4.232816-4.233333zm-19.049999 2.6448c-.586294 0-1.058334.472036-1.058334 1.058333s.47204 1.058334 1.058334 1.058334c.586293 0 1.058333-.472037 1.058333-1.058334s-.47204-1.058333-1.058333-1.058333zm17.197916.001c-.439723 0-.793233.35403-.793233.79375 0 .439721.35351.79375.793233.79375.43972 0 .79375-.354029.79375-.79375 0-.43972-.35403-.79375-.79375-.79375zm3.704166 0c-.439723 0-.79375.354025-.79375.79375 0 .439721.354027.79375.79375.79375.43972 0 .79375-.354029.79375-.79375 0-.439725-.35403-.79375-.79375-.79375zm-11.377599 2.1157c.586293 0 1.058333.471522 1.058333 1.057816s-.47204 1.058333-1.058333 1.058333c-.586294 0-1.058334-.472039-1.058334-1.058333s.47204-1.057816 1.058334-1.057816zm3.175 0c.586293 0 1.058333.471522 1.058333 1.057816s-.47204 1.058333-1.058333 1.058333c-.586294 0-1.058334-.472039-1.058334-1.058333s.47204-1.057816 1.058334-1.057816z"
        fill="#fff"
        fill-opacity=".3029"/>
    <path
        d="m9.0289778 15.875095c-1.2475438-.0076-2.4576712.425742-3.4167154 1.223651-1.8875985 1.569978-2.4473329 4.23214-1.3518041 6.429337 1.0955972 2.197355 3.5588377 3.352373 5.9487647 2.789387 2.389735-.562958 4.078347-2.695761 4.078148-5.15091h-5.2914649l3.1841799-4.225938c-.90852-.684673-2.013508-1.058318-3.1511082-1.065527zm16.9006502.001c-2.345179 0-4.233172 1.887995-4.233172 4.233172v1.058293 4.762319l1.058293-1.058293 1.025221 1.058293 1.091365-1.058293 1.058293 1.058293 1.058293-1.058293 1.058293 1.058293 1.058293-1.058293 1.058293 1.058293v-4.762286-1.058293c0-2.345177-1.887994-4.233172-4.233172-4.233172zm-19.0503079 2.644732c.5862944 0 1.058293.471996 1.058293 1.058293 0 .586298-.4719986 1.058293-1.058293 1.058293-.5862943 0-1.058293-.471995-1.058293-1.058293 0-.586297.4719987-1.058293 1.058293-1.058293zm17.1982949.001c.43972 0 .79372.353999.79372.793719 0 .439721-.354.79372-.79372.79372-.439724 0-.79372-.353999-.79372-.79372 0-.43972.353996-.793719.79372-.793719zm3.704025 0c.439721 0 .79372.353993.79372.793719 0 .439721-.353999.79372-.79372.79372-.439724 0-.793719-.353999-.793719-.79372 0-.439726.353995-.793719.793719-.793719zm-11.377683 2.115523c-.586294 0-1.058293.471999-1.058293 1.058293s.471999 1.058293 1.058293 1.058293 1.058293-.471999 1.058293-1.058293-.471999-1.058293-1.058293-1.058293zm3.174879 0c-.586294 0-1.058293.471999-1.058293 1.058293s.471999 1.058293 1.058293 1.058293 1.058293-.471999 1.058293-1.058293-.471999-1.058293-1.058293-1.058293z"
        fill-opacity=".2"/>
    </svg>
