<svg height="128" viewBox="0 0 33.866666 33.866666" width="128" xmlns="http://www.w3.org/2000/svg"><defs id="kuyenfoldercolor">
    <style type="text/css" id="current-color-scheme">
      .ColorScheme-Highlight {
        color:#03b2fe;
      }
      </style>
  </defs>
    <path style="fill:currentColor" d="m3.439583 1.322917c-1.75437 0-3.175 1.42064-3.175 3.175v24.87083c0 1.75437 1.42063 3.175 3.175 3.175h26.9875c1.754368 0 3.175-1.42063 3.175-3.175v-20.6375c0-1.75437-1.420632-3.175-3.175-3.175h-12.964583c-.516918 0-.945647-.22364-1.377177-.59686-.431532-.37321-.847997-.8929-1.297595-1.42575-.899198-1.06572-1.970138-2.21072-3.675228-2.21072z" class="ColorScheme-Highlight"/><path d="m3.439584 1.587497c-1.612367 0-2.910417 1.298058-2.910417 2.910417v24.870833c0 1.612358 1.29805 2.910417 2.910417 2.910417h26.987499c1.612365 0 2.910417-1.298059 2.910417-2.910417v-20.637501c0-1.612358-1.29805-2.910416-2.910417-2.910416h-12.964583c-2.381245 0-3.175006-4.233333-6.35-4.233333z" fill="#fff" fill-opacity=".077329"/><path d="m3.439583 1.322917c-1.754371 0-3.175 1.42064-3.175 3.175v24.87084c0 1.75436 1.420629 3.175 3.175 3.175h26.987499c1.754368 0 3.175-1.42064 3.175-3.175v-20.6375c0-1.75437-1.420632-3.175-3.175-3.175h-12.964583c-.516918 0-.945646-.22365-1.377177-.59687-.431532-.37321-.847997-.8929-1.297595-1.42575-.899197-1.06572-1.970138-2.21072-3.675228-2.21072zm0 .26459h7.672916c3.174997 0 3.968752 4.23333 6.35 4.23333h12.964583c1.612368 0 2.910417 1.29806 2.910417 2.91042v20.6375c0 1.61236-1.298051 2.91041-2.910417 2.91041h-26.987499c-1.612368 0-2.910417-1.29805-2.910417-2.91041v-24.87084c0-1.61236 1.298049-2.91041 2.910417-2.91041z" fill-opacity=".2"/><path style="fill:currentColor" d="m17.991666 5.556247c-1.70509 0-2.77603 1.14501-3.675227 2.21072-.449599.53286-.866065 1.05253-1.297596 1.42575-.43153.37321-.860258.59687-1.377177.59687h-8.202083c-1.754367 0-3.175 1.42063-3.175 3.175v16.66875c0 1.75436 1.420633 3.175 3.175 3.175h26.9875c1.754369 0 3.175-1.42064 3.175-3.175v-20.90209c0-1.75437-1.420631-3.175-3.175-3.175z" class="ColorScheme-Highlight"/><path d="m17.991666 5.556247c-1.70509 0-2.77603 1.14501-3.675227 2.21072-.449599.53286-.866065 1.05253-1.297596 1.42575-.43153.37321-.860258.59687-1.377176.59687h-8.202083c-1.754367 0-3.175 1.42063-3.175 3.175v16.66875c0 1.75436 1.420633 3.175 3.175 3.175h26.987499c1.754369 0 3.175-1.42064 3.175-3.175v-20.90209c0-1.75436-1.420631-3.175-3.175-3.175zm0 .26459h12.435417c1.612367 0 2.910417 1.29805 2.910417 2.91041v20.90209c0 1.61236-1.298049 2.91041-2.910417 2.91041h-26.987499c-1.612367 0-2.910417-1.29805-2.910417-2.91041v-16.66875c0-1.61236 1.298048-2.91042 2.910417-2.91042h8.202083c2.381248 0 3.175003-4.23333 6.349999-4.23333z" fill-opacity=".2"/><path d="m17.991666 5.82083c-3.174978 0-3.968764 4.233333-6.35 4.233333h-8.202083c-1.612359 0-2.910416 1.298068-2.910416 2.910417v16.66875c0 1.612349 1.298059 2.910416 2.910416 2.910416h26.9875c1.612356 0 2.910416-1.298067 2.910416-2.910416v-.264584h-15.081249c-2.889456.00004-5.494412-1.740539-6.600114-4.410066-1.105612-2.669438-.494357-5.742017 1.548742-7.785055 1.365259-1.365398 3.225095-2.119962 5.155758-2.091862.90288.01324 1.795068.19753 2.629297.54312 2.669527 1.105699 4.410106 3.710656 4.410066 6.600114h-1.322916c.00006-.15158-.0058-.303116-.01757-.454236-.01518-.19336-.04001-.385839-.07441-.576709-.03445-.19105-.07843-.380251-.131775-.566891-.05331-.18664-.115916-.370481-.187586-.55087-.07157-.1803-.152119-.356907-.241328-.529167-.08922-.17239-.187015-.340202-.293006-.502812-.106112-.16253-.220288-.319642-.342098-.470772-.121705-.15105-.250885-.295922-.387056-.434082-.136313-.13833-.279464-.269755-.428915-.393775-.14929-.123959-.304686-.240376-.465604-.348815-.160947-.10832-.327208-.208541-.498161-.30024-.170913-.09191-.346316-.175198-.525549-.249598-.140012-.05789-.28223-.110296-.426331-.157096-.184581-.06015-.372057-.111046-.561723-.152445-.18967-.0413-.381284-.07298-.574125-.09509-.192864-.0222-.386721-.03472-.580843-.03772-.19401-.0028-.388039.0041-.58136.02067-.193253.0165-.385557.04275-.576192.07855-.190767.03584-.379622.08121-.565857.135909-.186179.05454-.369515.118303-.54932.191203-.179855.07297-.355947.154863-.527617.245463-.171767.09063-.338892.189799-.500744.297139-.161718.10719-.317976.222399-.468189.345199-.150245.12278-.294258.252997-.431498.390157-.107143.10722-.210059.21858-.308508.33383-.126111.147459-.244771.301127-.355534.460437-.110664.159449-.213285.324326-.307475.494026-.09443.16958-.180319.343772-.257349.521932-.07674.17823-.144518.360187-.203088.545187-.05879.184989-.108291.372816-.148311.562756-.03988.18991-.07023.381702-.09095.574642-.02087.19294-.03209.386783-.03359.580843-.0014.19408.0069.38811.02481.58136.01795.19315.04554.385285.08268.575675.03723.19049.08397.378994.140044.564824.05593.185899.121117.368897.195336.548287.058.139879.12144.277448.19017.412377.08815.17302.184909.341529.289904.504879.104864.16333.217832.321306.338481.473356.120617.15203.248763.297943.383956.437183.135244.13913.277359.271418.425814.396358.148368.12512.302902.242753.463021.352433.160196.10949.325768.210858.496093.303858.170335.09309.345221.177614.523999.253214.178636.07555.360937.142171.54622.199471.185417.05726.373583.105161.56379.143661.190144.0386.382104.06783.575159.08733.193183.0189.387212.02899.58136.02894h15.081241v-.529165h-15.081249c-2.140326.00013-4.069973-1.289089-4.889108-3.266467-.819139-1.977458-.366346-4.253661 1.147217-5.76709 1.011426-1.011389 2.389211-1.570259 3.819405-1.549259.668802.0097 1.329702.146143 1.947685.402042 1.977376.81914 3.266596 2.74878 3.266467 4.889108h-1.322916c.00007-.1033-.0039-.206552-.01189-.309542-.0103-.13202-.0272-.263445-.05064-.393775-.02353-.13009-.05354-.258923-.08992-.386023-.03626-.127279-.07886-.252667-.127641-.375687-.0489-.12291-.103918-.243292-.164848-.360702-.06089-.11764-.127637-.232161-.199987-.343131-.07229-.11079-.150071-.217891-.233061-.320911-.08303-.10304-.171167-.201906-.264067-.296106-.09279-.09421-.190241-.183701-.291971-.268201-.101905-.08449-.207976-.163811-.31781-.237711-.109681-.074-.222994-.142456-.339515-.205156-.116643-.06244-.236339-.118998-.358634-.169498-.09554-.03959-.192598-.07549-.290938-.107487-.12566-.04097-.253288-.07567-.382406-.10387-.129401-.0282-.260134-.05001-.391707-.06511-.131443-.015-.263555-.02332-.395842-.02532-.13227-.0019-.264555.0027-.396358.01395-.1319.0113-.263149.02924-.393258.05374-.129961.0244-.258625.0553-.385506.0925-.126977.03712-.252018.08063-.374654.130225-.122606.04978-.242645.105632-.359668.167432-.116994.0618-.230824.129371-.341064.202571-.110306.07301-.216892.151528-.319361.235128-.102563.08374-.200875.172534-.294555.266134-.07305.07319-.143213.149193-.210323.227893-.08596.10046-.166853.205146-.242363.313676-.07551.108739-.145536.22119-.209806.33693-.06429.11569-.122763.234521-.175183.356051-.05232.121469-.09855.245473-.138493.371553-.04014.12605-.07394.254019-.101286.383439-.0272.12963-.0479.260524-.06201.392224-.01414.13149-.02176.263602-.02274.395842-.00093.13232.0048.264608.01705.396358.01222.13177.03102.262851.05633.392741.02543.12984.05734.258329.0956.384989.03819.12668.08269.251381.133325.373621.03955.09553.08282.189437.129708.281636.06002.11794.125904.232806.197404.344165.07141.11126.148327.218881.230477.322461.0823.1037.169749.203173.261999.298173.09207.09486.188829.185068.289905.270268.101343.08532.206896.165496.31626.240296.109131.07466.221927.143822.337963.207222.116077.06345.235255.120999.357085.172599.121852.05151.246204.09681.372587.135909.12644.0391.254758.07189.384472.09819.12967.0263.260575.04623.392224.05943.131709.0136.263995.01972.396359.01964h15.081256v-.529173h-15.081249c-1.391135-.00008-2.645251-.838126-3.177584-2.123385-.532341-1.285108-.238248-2.764342.745174-3.748091.657382-.65744 1.552915-1.020774 2.482536-1.007174.434757.0064.86437.09508 1.266072.261483 1.285255.532339 2.123304 1.786445 2.123385 3.177584h-1.322917c.0001-.05518-.002-.110365-.0062-.165365-.0056-.07035-.01477-.140406-.02739-.209806-.01241-.0693-.02828-.137973-.04754-.205673-.01937-.06793-.04214-.134804-.06821-.200504-.02605-.06568-.05537-.130053-.08785-.192753-.0326-.06255-.0683-.123418-.10697-.182418-.03847-.05905-.07986-.116149-.124023-.171049-.04436-.05503-.09144-.10783-.141077-.15813-.04943-.05024-.101346-.09804-.155546-.143144-.05435-.04501-.110929-.08721-.169499-.126607-.05859-.03955-.119134-.07605-.181384-.109554-.06219-.0333-.126003-.06353-.191203-.09043-.05091-.0211-.102619-.04026-.155029-.05736-.06708-.0218-.135202-.04029-.204122-.05529-.06897-.015-.138653-.02662-.208773-.03462-.07-.008-.14037-.01295-.21084-.01395-.07054-.001-.141076.0018-.211356.0078-.07036.006-.140386.01542-.209806.02842-.06934.0131-.137983.02971-.205673.04961-.06778.0197-.134527.04285-.199987.06925-.06536.0266-.12934.0564-.19172.0894-.0624.033-.123101.069-.181901.108004-.0589.03897-.115822.08087-.170532.125574-.05453.04471-.10679.09211-.15658.14211-.03894.03883-.07635.07922-.112138.120923-.04602.05378-.08931.109848-.129708.167948-.04017.05788-.07742.117718-.111621.179318-.03431.06162-.06553.124952-.09353.189652-.02793.06487-.05259.131138-.0739.198438-.02131.06727-.03925.135538-.05374.204638-.01449.069-.02557.138673-.03307.208773-.0077.0702-.01179.140757-.0124.211357-.0004.07056.0027.141156.0093.211356.0065.07022.0165.14009.02997.20929.01344.06936.03034.137972.05064.205672.02044.06747.04424.133854.07131.198954.02112.05098.04421.101179.06925.150379.03189.06286.0669.124051.104903.183451.0381.05937.07915.116783.12299.172083.04399.05536.09073.108463.140043.159163.04907.05058.100643.09868.154513.144177.05398.04545.110205.08826.168465.128158.05824.03989.118431.07679.180351.110587.06199.0338.125626.06448.190686.09198.06507.0274.131474.05155.198954.07235.0673.0208.135599.03819.204638.05219.06919.0141.13904.02504.20929.03204.07024.0073.140777.01043.211357.01034h15.081241v-15.610482c0-1.61235-1.298061-2.910417-2.910416-2.910417z" fill="#fff" fill-opacity=".3029"/><path d="m18.360905 15.082004c-1.930665-.0281-3.790497.72646-5.155757 2.09186-2.043102 2.04304-2.654356 5.11562-1.548743 7.78506 1.105703 2.66953 3.710655 4.4101 6.600114 4.41006h15.08125v-1.32291h-15.08125c-.194148.00005-.388177-.01-.58136-.0289-.193055-.0195-.385015-.0487-.575159-.0873-.190207-.0385-.378372-.0864-.563789-.14366-.185283-.0573-.367584-.12392-.54622-.19947-.178779-.0756-.353664-.16012-.523999-.25321-.170326-.093-.335897-.19437-.496094-.30386-.160119-.10968-.314653-.22731-.463021-.35243-.148455-.12494-.29057-.25723-.425814-.39636-.135193-.13924-.263338-.28515-.383955-.43718-.120649-.15205-.233617-.31003-.338481-.47336-.104996-.16335-.201752-.33186-.289905-.50488-.06873-.13493-.132167-.2725-.190169-.41238-.07422-.17939-.139409-.36238-.195337-.54828-.05607-.18583-.102808-.37434-.140043-.56483-.03714-.19039-.06473-.38252-.08268-.57567-.01795-.19325-.02623-.38728-.0248-.58136.0015-.19406.01272-.38791.03359-.58085.02072-.19294.05107-.38473.09095-.57464.04002-.18994.08952-.37776.148311-.56275.05857-.185.126347-.36696.203089-.54519.07703-.17816.162917-.35235.257348-.52193.09419-.1697.196811-.33458.307475-.49403.110763-.15931.229423-.31298.355534-.46044.09845-.11525.201365-.22661.308508-.33383.13724-.13716.281253-.26737.431498-.39015.150213-.1228.306471-.23801.468189-.3452.161853-.10734.328977-.20651.500744-.29714.17167-.0906.347762-.17249.527617-.24546.179806-.0729.363141-.13667.54932-.19121.186235-.0547.37509-.10007.565857-.13591.190635-.0358.382939-.062.576192-.0785.193321-.0166.38735-.0235.58136-.0207.194122.003.387979.0155.580843.0377.192841.0221.384455.0538.574125.0951.189666.0414.377142.0923.561723.15245.144101.0468.286319.0992.426331.15709.179234.0744.354636.15769.525549.2496.170953.0917.337214.19192.498161.30024.160918.10844.316314.22486.465604.34882.149451.12402.292602.25544.428915.39377.136171.13816.265351.28303.387056.43408.12181.15113.235986.30825.342098.47078.105991.16261.203782.33042.293005.50281.08921.17226.169754.34886.241329.52916.07167.18039.134281.36424.187586.55088.05335.18664.09733.37584.131775.56689.0344.19087.05923.38335.07441.57671.01177.15112.01763.30265.01757.45423h1.322916c.00004-2.88946-1.740537-5.49441-4.410067-6.60011-.83423-.34559-1.726416-.52988-2.629297-.54312zm-.02687 1.85208c-1.430196-.021-2.807978.53787-3.819405 1.54926-1.513565 1.51343-1.966357 3.78963-1.147217 5.76709.819135 1.97738 2.748779 3.2666 4.889107 3.26647h15.081249v-1.32292h-15.08125c-.132364.00008-.264649-.006-.396358-.0196-.13165-.0132-.262555-.0331-.392225-.0594-.129714-.0263-.258032-.0591-.384472-.0982-.126383-.0391-.250734-.0844-.372587-.13591-.12183-.0516-.241007-.10915-.357084-.1726-.116037-.0634-.228832-.13256-.337964-.20722-.109364-.0748-.214917-.15497-.31626-.24029-.101076-.0852-.197831-.17541-.289905-.27027-.09225-.095-.179694-.19447-.261999-.29817-.08215-.10358-.15907-.21121-.230477-.32247-.0715-.11136-.137382-.22622-.197404-.34416-.04689-.0922-.09016-.18611-.129708-.28164-.05064-.12224-.09514-.24694-.133325-.37362-.03826-.12666-.07017-.25515-.0956-.38499-.02531-.12989-.04411-.26097-.05633-.39274-.01229-.13175-.01798-.26404-.01705-.39636.000979-.13224.0086-.26435.02274-.39584.01411-.1317.03481-.26259.06201-.39222.02735-.12942.06115-.25739.101286-.38344.03994-.12608.08617-.25008.138493-.37155.05242-.12153.110888-.24037.175183-.35606.06427-.11574.134295-.22819.209806-.33693.07551-.10853.156401-.21321.242363-.31367.06711-.0787.137273-.1547.210323-.22789.09368-.0936.191992-.1824.294555-.26614.102469-.0836.209055-.16212.319361-.23513.11024-.0732.22407-.14077.341064-.20257.117023-.0618.237062-.11765.359668-.16743.122636-.0496.247677-.0931.374654-.13022.126881-.0372.255544-.0681.385506-.0925.130109-.0245.261358-.0424.393258-.0537.131803-.0113.264088-.0159.396358-.014.132287.002.264399.0103.395842.0253.131573.0151.262306.0369.391707.0651.129118.0282.256746.0629.382406.10387.09834.032.195396.0679.290938.10749.122295.0505.24199.10706.358634.1695.116521.0627.229833.13115.339514.20515.109835.0739.215905.15323.31781.23772.101731.0845.199178.17399.291972.2682.0929.0942.181036.19306.264067.2961.08299.10302.160771.21012.233061.32091.07235.11097.139093.22549.199987.34313.06093.11741.115944.2378.164848.36071.04878.12302.09138.2484.127641.37568.03638.1271.06639.25594.08992.38603.02344.13033.04034.26175.05064.39377.008.10299.01195.20624.01188.30954h1.322914c.000129-2.14033-1.289089-4.06996-3.266467-4.8891-.617984-.2559-1.278882-.39234-1.947684-.40205zm-.02739 1.85209c-.929622-.0136-1.825152.34973-2.482535 1.00717-.983423.98375-1.277516 2.46298-.745175 3.74809.532334 1.28526 1.786448 2.12331 3.177584 2.12339h15.08125v-1.32292h-15.08125c-.07058.00009-.14112-.003-.211357-.0103-.07025-.007-.140103-.0179-.209289-.032-.06904-.014-.137337-.0314-.204639-.0522-.06748-.0208-.133884-.045-.198954-.0724-.06506-.0275-.128699-.0582-.190686-.092-.06192-.0338-.122115-.0707-.180351-.11059-.05826-.0399-.114483-.0827-.168465-.12815-.05387-.0455-.105441-.0936-.154513-.14418-.04931-.0507-.09605-.10381-.140043-.15917-.04384-.0553-.08489-.11271-.12299-.17208-.038-.0594-.07301-.12059-.104903-.18345-.02504-.0492-.04813-.0994-.06925-.15038-.02707-.0651-.05087-.13148-.07131-.19895-.0203-.0677-.0372-.13631-.05064-.20567-.01347-.0692-.02347-.13907-.02997-.20929-.0066-.0702-.0097-.1408-.0093-.21136.000608-.0706.0047-.14116.0124-.21136.0075-.0701.01858-.13977.03307-.20877.01449-.0691.03243-.13737.05374-.20464.02131-.0673.04597-.13357.0739-.19844.028-.0647.05922-.12803.09353-.18965.0342-.0616.07145-.12144.111622-.17932.0404-.0581.08369-.11416.129707-.16794.03579-.0417.0732-.0821.112138-.12093.04979-.05.102052-.0974.15658-.14211.05471-.0447.111628-.0866.170532-.12557.0588-.039.119505-.075.181901-.108.06238-.033.126363-.0628.19172-.0894.06546-.0264.132211-.0495.199987-.0692.06769-.0199.136331-.0365.205673-.0496.06942-.013.139441-.0224.209806-.0284.07028-.006.140815-.009.211357-.008.07047.001.140836.006.210839.014.07012.008.139802.0196.208773.0346.06892.015.137045.0335.204122.0553.05241.0171.10412.0363.155029.0574.0652.0269.129016.0571.191203.0904.06225.0335.12279.07.181384.10955.05857.0394.115145.0816.169499.12661.0542.0451.106114.0929.155546.14314.04964.0503.09672.1031.141077.15813.04416.0549.08555.112.124023.17105.03867.059.07437.11987.10697.18242.03248.0627.0618.12707.08785.19275.02607.0657.04884.13258.06821.20051.01926.0677.03513.13637.04754.20567.01262.0694.02176.13946.02739.20981.0042.055.0063.11018.0062.16536h1.322917c-.000081-1.39114-.838129-2.64524-2.123385-3.17758-.401703-.1664-.831314-.25514-1.266072-.26149z" fill-opacity=".2"/></svg>
