<svg
    height="128"
    viewBox="0 0 33.866666 33.866666"
    width="128"
    xmlns="http://www.w3.org/2000/svg">
     <defs id="kuyenfoldercolor">
    <style type="text/css" id="current-color-scheme">
      .ColorScheme-Highlight {
        color:#03b2fe;
      }
      </style>
  </defs>
    <path
        style="fill:currentColor"
        d="m3.439583 1.322917c-1.75437 0-3.175 1.42064-3.175 3.175v24.87083c0 1.75437 1.42063 3.175 3.175 3.175h26.9875c1.754368 0 3.175-1.42063 3.175-3.175v-20.6375c0-1.75437-1.420632-3.175-3.175-3.175h-12.964583c-.516918 0-.945647-.22364-1.377177-.59686-.431532-.37321-.847997-.8929-1.297595-1.42575-.899198-1.06572-1.970138-2.21072-3.675228-2.21072z"
        class="ColorScheme-Highlight"/>
    <path
        d="m3.439584 1.587497c-1.612367 0-2.910417 1.298058-2.910417 2.910417v24.870833c0 1.612358 1.29805 2.910417 2.910417 2.910417h26.987499c1.612365 0 2.910417-1.298059 2.910417-2.910417v-20.637501c0-1.612358-1.29805-2.910416-2.910417-2.910416h-12.964583c-2.381245 0-3.175006-4.233333-6.35-4.233333z" fill="#fff"
        fill-opacity=".077329"/>
    <path
        d="m3.439583 1.322917c-1.754371 0-3.175 1.42064-3.175 3.175v24.87084c0 1.75436 1.420629 3.175 3.175 3.175h26.987499c1.754368 0 3.175-1.42064 3.175-3.175v-20.6375c0-1.75437-1.420632-3.175-3.175-3.175h-12.964583c-.516918 0-.945646-.22365-1.377177-.59687-.431532-.37321-.847997-.8929-1.297595-1.42575-.899197-1.06572-1.970138-2.21072-3.675228-2.21072zm0 .26459h7.672916c3.174997 0 3.968752 4.23333 6.35 4.23333h12.964583c1.612368 0 2.910417 1.29806 2.910417 2.91042v20.6375c0 1.61236-1.298051 2.91041-2.910417 2.91041h-26.987499c-1.612368 0-2.910417-1.29805-2.910417-2.91041v-24.87084c0-1.61236 1.298049-2.91041 2.910417-2.91041z"
        fill-opacity=".2"/>
    <path
        style="fill:currentColor"
        d="m17.991666 5.556247c-1.70509 0-2.77603 1.14501-3.675227 2.21072-.449599.53286-.866065 1.05253-1.297596 1.42575-.43153.37321-.860258.59687-1.377177.59687h-8.202083c-1.754367 0-3.175 1.42063-3.175 3.175v16.66875c0 1.75436 1.420633 3.175 3.175 3.175h26.9875c1.754369 0 3.175-1.42064 3.175-3.175v-20.90209c0-1.75437-1.420631-3.175-3.175-3.175z"
        class="ColorScheme-Highlight"/>
    <path
        d="m17.991666 5.556247c-1.70509 0-2.77603 1.14501-3.675227 2.21072-.449599.53286-.866065 1.05253-1.297596 1.42575-.43153.37321-.860258.59687-1.377176.59687h-8.202083c-1.754367 0-3.175 1.42063-3.175 3.175v16.66875c0 1.75436 1.420633 3.175 3.175 3.175h26.987499c1.754369 0 3.175-1.42064 3.175-3.175v-20.90209c0-1.75436-1.420631-3.175-3.175-3.175zm0 .26459h12.435417c1.612367 0 2.910417 1.29805 2.910417 2.91041v20.90209c0 1.61236-1.298049 2.91041-2.910417 2.91041h-26.987499c-1.612367 0-2.910417-1.29805-2.910417-2.91041v-16.66875c0-1.61236 1.298048-2.91042 2.910417-2.91042h8.202083c2.381248 0 3.175003-4.23333 6.349999-4.23333z"
        fill-opacity=".2"/>
    <path
        d="m17.991666 5.82083c-3.174972 0-3.968768 4.233333-6.35 4.233333h-8.202083c-1.612356 0-2.910416 1.298072-2.910416 2.910417v16.66875c0 1.612345 1.298062 2.910416 2.910416 2.910416h26.9875c1.612352 0 2.910416-1.298071 2.910416-2.910416v-.264584-1.322916-.529167-1.322917-.529166-1.322917-15.610416c0-1.612347-1.298065-2.910417-2.910416-2.910417zm-5.55625 8.995833h6.35l3.439584 3.439584v1.852083h-1.058334v1.058333h1.058334v1.058334h-1.058334v1.058333h1.058334v1.058333h-1.058334v1.058333h1.058334v1.058334h-1.058334v1.058333h-1.058333v-1.058333h-1.058333v1.058333h-1.058334v-1.058333h-1.058333v1.058333h-1.058333v-1.058333h-1.058334v1.058333h-2.38125c-.439736 0-.79375-.35402-.79375-.79375v-11.1125c0-.439749.354014-.79375.79375-.79375zm3.439584 11.641667h1.058333v-1.058334h-1.058333zm0-1.058334v-1.058333h-1.058334v1.058333zm1.058333 0h1.058333v-1.058333h-1.058333zm1.058333 0v1.058334h1.058334v-1.058334zm1.058334 0h1.058333v-1.058333h-1.058333zm1.058333-1.058333h1.058333v-1.058333h-1.058333zm0-1.058333v-1.058333h-1.058333v1.058333zm0-1.058333h1.058333v-1.058334h-1.058333zm0-1.058334v-1.058333h-1.058333v1.058333zm0 4.233333v1.058334h1.058333v-1.058334z"
        fill="#fff"
        fill-opacity=".3029"/>
    <path
        d="m12.435416 14.816667c-.439737 0-.79375.354-.79375.79375v11.1125c0 .43973.354013.79375.79375.79375h2.38125v-1.05833h1.058333v-1.05834h-1.058333v-1.05833h1.058333v1.05833h1.058334v-1.05833h1.058333v1.05833h1.058333v-1.05833h1.058334v-1.05833h-1.058334v-1.05834h1.058334v-1.05833h-1.058334v-1.05833h1.058334v1.05833h1.058333v-1.05833h1.058333v-1.85209l-3.439583-3.43958zm8.73125 6.35v1.05833h1.058333v-1.05833zm0 1.05833h-1.058333v1.05834h1.058333zm0 1.05834v1.05833h1.058333v-1.05833zm0 1.05833h-1.058333v1.05833h1.058333zm0 1.05833v1.05834h1.058333v-1.05834zm0 1.05834h-1.058333v1.05833h1.058333zm-1.058333 0v-1.05834h-1.058334v1.05834zm-1.058334 0h-1.058333v1.05833h1.058333zm-1.058333 0v-1.05834h-1.058333v1.05834zm-1.058333 0h-1.058334v1.05833h1.058334z"
        fill-opacity=".2"/>
</svg>
