<svg
    height="128"
    viewBox="0 0 33.866666 33.866666"
    width="128"
    xmlns="http://www.w3.org/2000/svg">
    <defs id="kuyenfoldercolor">
    <style type="text/css" id="current-color-scheme">
      .ColorScheme-Highlight {
        color:#03b2fe;
      }
      </style>
  </defs>
    <path
        style="fill:currentColor"
        d="m3.439583 1.322917c-1.75437 0-3.175 1.42064-3.175 3.175v24.87083c0 1.75437 1.42063 3.175 3.175 3.175h26.9875c1.754368 0 3.175-1.42063 3.175-3.175v-20.6375c0-1.75437-1.420632-3.175-3.175-3.175h-12.964583c-.516918 0-.945647-.22364-1.377177-.59686-.431532-.37321-.847997-.8929-1.297595-1.42575-.899198-1.06572-1.970138-2.21072-3.675228-2.21072z"
        class="ColorScheme-Highlight"/>
    <path
        d="m3.439584 1.587497c-1.612367 0-2.910417 1.298058-2.910417 2.910417v24.870833c0 1.612358 1.29805 2.910417 2.910417 2.910417h26.987499c1.612365 0 2.910417-1.298059 2.910417-2.910417v-20.637501c0-1.612358-1.29805-2.910416-2.910417-2.910416h-12.964583c-2.381245 0-3.175006-4.233333-6.35-4.233333z" fill="#fff"
        fill-opacity=".077329"/>
    <path
        d="m3.439583 1.322917c-1.754371 0-3.175 1.42064-3.175 3.175v24.87084c0 1.75436 1.420629 3.175 3.175 3.175h26.987499c1.754368 0 3.175-1.42064 3.175-3.175v-20.6375c0-1.75437-1.420632-3.175-3.175-3.175h-12.964583c-.516918 0-.945646-.22365-1.377177-.59687-.431532-.37321-.847997-.8929-1.297595-1.42575-.899197-1.06572-1.970138-2.21072-3.675228-2.21072zm0 .26459h7.672916c3.174997 0 3.968752 4.23333 6.35 4.23333h12.964583c1.612368 0 2.910417 1.29806 2.910417 2.91042v20.6375c0 1.61236-1.298051 2.91041-2.910417 2.91041h-26.987499c-1.612368 0-2.910417-1.29805-2.910417-2.91041v-24.87084c0-1.61236 1.298049-2.91041 2.910417-2.91041z" fill-opacity=".2"/>
    <path
        style="fill:currentColor"
        d="m17.991666 5.556247c-1.70509 0-2.77603 1.14501-3.675227 2.21072-.449599.53286-.866065 1.05253-1.297596 1.42575-.43153.37321-.860258.59687-1.377177.59687h-8.202083c-1.754367 0-3.175 1.42063-3.175 3.175v16.66875c0 1.75436 1.420633 3.175 3.175 3.175h26.9875c1.754369 0 3.175-1.42064 3.175-3.175v-20.90209c0-1.75437-1.420631-3.175-3.175-3.175z"
        class="ColorScheme-Highlight"/>
    <path
        d="m17.991666 5.556247c-1.70509 0-2.77603 1.14501-3.675227 2.21072-.449599.53286-.866065 1.05253-1.297596 1.42575-.43153.37321-.860258.59687-1.377176.59687h-8.202083c-1.754367 0-3.175 1.42063-3.175 3.175v16.66875c0 1.75436 1.420633 3.175 3.175 3.175h26.987499c1.754369 0 3.175-1.42064 3.175-3.175v-20.90209c0-1.75436-1.420631-3.175-3.175-3.175zm0 .26459h12.435417c1.612367 0 2.910417 1.29805 2.910417 2.91041v20.90209c0 1.61236-1.298049 2.91041-2.910417 2.91041h-26.987499c-1.612367 0-2.910417-1.29805-2.910417-2.91041v-16.66875c0-1.61236 1.298048-2.91042 2.910417-2.91042h8.202083c2.381248 0 3.175003-4.23333 6.349999-4.23333z"
        fill-opacity=".2"/>
    <path
        d="m17.991666 5.82083c-3.174969 0-3.96877 4.233333-6.35 4.233333h-8.202083c-1.612354 0-2.910416 1.298074-2.910416 2.910417v16.66875c0 1.612343 1.298064 2.910416 2.910416 2.910416h26.9875c1.61235 0 2.910416-1.298073 2.910416-2.910416v-.264584-1.322916-.529167-1.322917-.529166-1.322917-15.610416c0-1.612345-1.298067-2.910417-2.910416-2.910417zm-3.704166 9.525c1.038716 0 1.974474.423773 2.645833 1.107943.671357-.68417 1.607118-1.107943 2.645833-1.107943 2.034275 0 3.672706 1.624169 3.701066 3.651457.0021.0175.0029.03511.0031.05271 0 .133979-.007.265611-.02067.395841-.103653 1.561489-.804043 2.899661-1.832446 4.0566-1.114907 1.254279-2.604572 2.330316-4.203361 3.396175-.177748.11848-.409291.11848-.587044 0-1.598783-1.065859-3.088461-2.141896-4.203361-3.396175-1.028403-1.156939-1.728788-2.495111-1.832446-4.0566-.01377-.13023-.02067-.261852-.02067-.395841 0-.0163.000667-.03248.0021-.04858.02615-2.029258 1.666413-3.655591 3.7021-3.655591z"
        fill="#fff"
        fill-opacity=".3029"/>
    <path
        d="m14.287534 15.34583c-2.035689 0-3.675954 1.62634-3.702101 3.6556-.0014.0161-.0021.0323-.0021.0486 0 .13399.0069.26562.02067.39585.103658 1.56149.804045 2.89965 1.832449 4.05659 1.114901 1.25428 2.60457 2.33032 4.203354 3.39618.177753.11848.4093.11848.587048 0 1.59879-1.06586 3.088452-2.1419 4.20336-3.39618 1.028404-1.15694 1.728793-2.4951 1.832446-4.05659.01371-.13023.02069-.26187.02069-.39585-.000154-.0176-.0011-.0352-.0032-.0527-.02836-2.02729-1.66677-3.65146-3.701047-3.65146-1.038716 0-1.974472.42377-2.64583 1.10794-.67136-.68417-1.607115-1.10794-2.645832-1.10794z"
        fill-opacity=".2"
        opacity=".99"/>
</svg>
