<svg
    height="128"
    viewBox="0 0 33.866666 33.866666"
    width="128"
    xmlns="http://www.w3.org/2000/svg">
    <defs id="kuyenfoldercolor">
    <style type="text/css" id="current-color-scheme">
      .ColorScheme-Highlight {
        color:#03b2fe;
      }
      </style>
  </defs>
    <path
        style="fill:currentColor"
        d="m3.439583 1.322917c-1.75437 0-3.175 1.42064-3.175 3.175v24.87083c0 1.75437 1.42063 3.175 3.175 3.175h26.9875c1.754368 0 3.175-1.42063 3.175-3.175v-20.6375c0-1.75437-1.420632-3.175-3.175-3.175h-12.964583c-.516918 0-.945647-.22364-1.377177-.59686-.431532-.37321-.847997-.8929-1.297595-1.42575-.899198-1.06572-1.970138-2.21072-3.675228-2.21072z"
        class="ColorScheme-Highlight"/>
    <path
        d="m3.439584 1.587497c-1.612367 0-2.910417 1.298058-2.910417 2.910417v24.870833c0 1.612358 1.29805 2.910417 2.910417 2.910417h26.987499c1.612365 0 2.910417-1.298059 2.910417-2.910417v-20.637501c0-1.612358-1.29805-2.910416-2.910417-2.910416h-12.964583c-2.381245 0-3.175006-4.233333-6.35-4.233333z" fill="#fff"
        fill-opacity=".077329"/>
    <path
        d="m3.439583 1.322917c-1.754371 0-3.175 1.42064-3.175 3.175v24.87084c0 1.75436 1.420629 3.175 3.175 3.175h26.987499c1.754368 0 3.175-1.42064 3.175-3.175v-20.6375c0-1.75437-1.420632-3.175-3.175-3.175h-12.964583c-.516918 0-.945646-.22365-1.377177-.59687-.431532-.37321-.847997-.8929-1.297595-1.42575-.899197-1.06572-1.970138-2.21072-3.675228-2.21072zm0 .26459h7.672916c3.174997 0 3.968752 4.23333 6.35 4.23333h12.964583c1.612368 0 2.910417 1.29806 2.910417 2.91042v20.6375c0 1.61236-1.298051 2.91041-2.910417 2.91041h-26.987499c-1.612368 0-2.910417-1.29805-2.910417-2.91041v-24.87084c0-1.61236 1.298049-2.91041 2.910417-2.91041z"
        fill-opacity=".2"/>
    <path
        style="fill:currentColor"
        d="m17.991666 5.556247c-1.70509 0-2.77603 1.14501-3.675227 2.21072-.449599.53286-.866065 1.05253-1.297596 1.42575-.43153.37321-.860258.59687-1.377177.59687h-8.202083c-1.754367 0-3.175 1.42063-3.175 3.175v16.66875c0 1.75436 1.420633 3.175 3.175 3.175h26.9875c1.754369 0 3.175-1.42064 3.175-3.175v-20.90209c0-1.75437-1.420631-3.175-3.175-3.175z"
        class="ColorScheme-Highlight"/>
    <path
        d="m17.991666 5.556247c-1.70509 0-2.77603 1.14501-3.675227 2.21072-.449599.53286-.866065 1.05253-1.297596 1.42575-.43153.37321-.860258.59687-1.377176.59687h-8.202083c-1.754367 0-3.175 1.42063-3.175 3.175v16.66875c0 1.75436 1.420633 3.175 3.175 3.175h26.987499c1.754369 0 3.175-1.42064 3.175-3.175v-20.90209c0-1.75436-1.420631-3.175-3.175-3.175zm0 .26459h12.435417c1.612367 0 2.910417 1.29805 2.910417 2.91041v20.90209c0 1.61236-1.298049 2.91041-2.910417 2.91041h-26.987499c-1.612367 0-2.910417-1.29805-2.910417-2.91041v-16.66875c0-1.61236 1.298048-2.91042 2.910417-2.91042h8.202083c2.381248 0 3.175003-4.23333 6.349999-4.23333z"
        fill-opacity=".2"/>
    <path
        d="m17.991666 5.82083c-3.174948 0-3.968784 4.233333-6.35 4.233333h-8.202083c-1.612343 0-2.910416 1.298088-2.910416 2.910417v16.66875c0 1.612329 1.298075 2.910416 2.910416 2.910416h26.9875c1.612336 0 2.910416-1.298087 2.910416-2.910416v-.264584-1.322916-.529167-1.322917-.529166-1.322917-15.610416c0-1.612334-1.298081-2.910417-2.910416-2.910417zm-1.058333 8.995833c3.517896 0 6.35 2.832104 6.35 6.35 0 3.517887-2.832104 6.35-6.35 6.35s-6.35-2.832113-6.35-6.35c0-3.517896 2.832104-6.35 6.35-6.35zm0 3.439584c-.439716 0-.79375.35402-.79375.79375v2.645833h-1.322917c-.221945-.00009-.345381.256658-.206705.429948l2.116666 2.645833c.105926.13254.307486.13254.413412 0l2.116666-2.645833c.03898-.04874.05948-.109683.05788-.172083-.0037-.14349-.121055-.257895-.264583-.257865h-1.322919v-2.645833c0-.43973-.354033-.79375-.79375-.79375z"
        fill="#fff"
        fill-opacity=".3029"/>
    <path
        d="m16.933333 14.81667c-3.5179 0-6.35 2.8321-6.35 6.35 0 3.51789 2.8321 6.35 6.35 6.35s6.35-2.83211 6.35-6.35c0-3.5179-2.8321-6.35-6.35-6.35zm0 3.43958c.439717 0 .79375.35402.79375.79375v2.64583h1.322917c.143529-.00003.260925.11438.264583.25787.0016.0624-.0189.12334-.05788.17208l-2.116667 2.64583c-.105926.13254-.307485.13254-.413411 0l-2.116667-2.64583c-.138676-.17329-.01524-.43004.206706-.42995h1.322919v-2.64583c0-.43973.354034-.79375.79375-.79375z"
        fill-opacity=".2"/>
</svg>
