<svg
    height="128"
    viewBox="0 0 33.866666 33.866666"
    width="128"
    xmlns="http://www.w3.org/2000/svg">
    <defs id="kuyenfoldercolor">
    <style type="text/css" id="current-color-scheme">
      .ColorScheme-Highlight {
        color:#03b2fe;
      }
      </style>
  </defs>
    <path
        style="fill:currentColor"
        d="m3.439583 1.322917c-1.75437 0-3.175 1.42064-3.175 3.175v24.87083c0 1.75437 1.42063 3.175 3.175 3.175h26.9875c1.754368 0 3.175-1.42063 3.175-3.175v-20.6375c0-1.75437-1.420632-3.175-3.175-3.175h-12.964583c-.516918 0-.945647-.22364-1.377177-.59686-.431532-.37321-.847997-.8929-1.297595-1.42575-.899198-1.06572-1.970138-2.21072-3.675228-2.21072z"
        class="ColorScheme-Highlight"/>
    <path
        d="m3.439584 1.587497c-1.612367 0-2.910417 1.298058-2.910417 2.910417v24.870833c0 1.612358 1.29805 2.910417 2.910417 2.910417h26.987499c1.612365 0 2.910417-1.298059 2.910417-2.910417v-20.637501c0-1.612358-1.29805-2.910416-2.910417-2.910416h-12.964583c-2.381245 0-3.175006-4.233333-6.35-4.233333z" fill="#fff"
        fill-opacity=".077329"/>
    <path
        d="m3.439583 1.322917c-1.754371 0-3.175 1.42064-3.175 3.175v24.87084c0 1.75436 1.420629 3.175 3.175 3.175h26.987499c1.754368 0 3.175-1.42064 3.175-3.175v-20.6375c0-1.75437-1.420632-3.175-3.175-3.175h-12.964583c-.516918 0-.945646-.22365-1.377177-.59687-.431532-.37321-.847997-.8929-1.297595-1.42575-.899197-1.06572-1.970138-2.21072-3.675228-2.21072zm0 .26459h7.672916c3.174997 0 3.968752 4.23333 6.35 4.23333h12.964583c1.612368 0 2.910417 1.29806 2.910417 2.91042v20.6375c0 1.61236-1.298051 2.91041-2.910417 2.91041h-26.987499c-1.612368 0-2.910417-1.29805-2.910417-2.91041v-24.87084c0-1.61236 1.298049-2.91041 2.910417-2.91041z"
        fill-opacity=".2"/>
    <path
        style="fill:currentColor"
        d="m17.991666 5.556247c-1.70509 0-2.77603 1.14501-3.675227 2.21072-.449599.53286-.866065 1.05253-1.297596 1.42575-.43153.37321-.860258.59687-1.377177.59687h-8.202083c-1.754367 0-3.175 1.42063-3.175 3.175v16.66875c0 1.75436 1.420633 3.175 3.175 3.175h26.9875c1.754369 0 3.175-1.42064 3.175-3.175v-20.90209c0-1.75437-1.420631-3.175-3.175-3.175z"
        class="ColorScheme-Highlight"/>
    <path
        d="m17.991666 5.556247c-1.70509 0-2.77603 1.14501-3.675227 2.21072-.449599.53286-.866065 1.05253-1.297596 1.42575-.43153.37321-.860258.59687-1.377176.59687h-8.202083c-1.754367 0-3.175 1.42063-3.175 3.175v16.66875c0 1.75436 1.420633 3.175 3.175 3.175h26.987499c1.754369 0 3.175-1.42064 3.175-3.175v-20.90209c0-1.75436-1.420631-3.175-3.175-3.175zm0 .26459h12.435417c1.612367 0 2.910417 1.29805 2.910417 2.91041v20.90209c0 1.61236-1.298049 2.91041-2.910417 2.91041h-26.987499c-1.612367 0-2.910417-1.29805-2.910417-2.91041v-16.66875c0-1.61236 1.298048-2.91042 2.910417-2.91042h8.202083c2.381248 0 3.175003-4.23333 6.349999-4.23333z"
        fill-opacity=".2"/>
    <path
        d="m17.991666 5.82083c-3.174981 0-3.968762 4.233333-6.35 4.233333h-8.202083c-1.61236 0-2.910416 1.298066-2.910416 2.910417v16.66875c0 1.612351 1.298058 2.910416 2.910416 2.910416h26.9875c1.612358 0 2.910416-1.298065 2.910416-2.910416v-20.902083c0-1.612352-1.298059-2.910417-2.910416-2.910417zm-8.466666 11.90625c1.465791 0 2.645833 1.180045 2.645833 2.645833 0 1.465789-1.180042 2.645834-2.645833 2.645834s-2.645834-1.180045-2.645834-2.645834c0-1.465788 1.180043-2.645833 2.645834-2.645833zm7.408333 0c1.465789 0 2.645833 1.180045 2.645833 2.645833 0 1.465789-1.180044 2.645834-2.645833 2.645834-1.465791 0-2.645833-1.180045-2.645833-2.645834 0-1.465788 1.180042-2.645833 2.645833-2.645833zm7.408333 0c1.46579 0 2.645833 1.180045 2.645833 2.645833 0 1.465789-1.180043 2.645834-2.645833 2.645834s-2.645833-1.180045-2.645833-2.645834c0-1.465788 1.180043-2.645833 2.645833-2.645833z"
        fill="#fff"
        fill-opacity=".3029"/>
    <path
        d="m9.5249991 17.72708c-1.4657917 0-2.6458333 1.18004-2.6458333 2.64583s1.1800416 2.64583 2.6458333 2.64583c1.4657919 0 2.6458339-1.18004 2.6458339-2.64583s-1.180042-2.64583-2.6458339-2.64583zm7.4083339 0c-1.465792 0-2.645834 1.18004-2.645834 2.64583s1.180042 2.64583 2.645834 2.64583c1.46579 0 2.645832-1.18004 2.645832-2.64583s-1.180042-2.64583-2.645832-2.64583zm7.408332 0c-1.465792 0-2.645833 1.18004-2.645833 2.64583s1.180041 2.64583 2.645833 2.64583c1.465791 0 2.645833-1.18004 2.645833-2.64583s-1.180042-2.64583-2.645833-2.64583z"
        fill-opacity=".2"
        opacity=".99"/>
</svg>
