<svg
    height="128"
    viewBox="0 0 33.866666 33.866666"
    width="128"
    xmlns="http://www.w3.org/2000/svg">
    <defs id="kuyenfoldercolor">
    <style type="text/css" id="current-color-scheme">
      .ColorScheme-Highlight {
        color:#03b2fe;
      }
      </style>
  </defs>
    <path
        style="fill:currentColor"
        d="m3.439583 1.322917c-1.75437 0-3.175 1.42064-3.175 3.175v24.87083c0 1.75437 1.42063 3.175 3.175 3.175h26.9875c1.754368 0 3.175-1.42063 3.175-3.175v-20.6375c0-1.75437-1.420632-3.175-3.175-3.175h-12.964583c-.516918 0-.945647-.22364-1.377177-.59686-.431532-.37321-.847997-.8929-1.297595-1.42575-.899198-1.06572-1.970138-2.21072-3.675228-2.21072z"
        class="ColorScheme-Highlight"/>
    <path
        d="m3.439584 1.587497c-1.612367 0-2.910417 1.298058-2.910417 2.910417v24.870833c0 1.612358 1.29805 2.910417 2.910417 2.910417h26.987499c1.612365 0 2.910417-1.298059 2.910417-2.910417v-20.637501c0-1.612358-1.29805-2.910416-2.910417-2.910416h-12.964583c-2.381245 0-3.175006-4.233333-6.35-4.233333z" fill="#fff"
        fill-opacity=".077329"/>
    <path
        d="m3.439583 1.322917c-1.754371 0-3.175 1.42064-3.175 3.175v24.87084c0 1.75436 1.420629 3.175 3.175 3.175h26.987499c1.754368 0 3.175-1.42064 3.175-3.175v-20.6375c0-1.75437-1.420632-3.175-3.175-3.175h-12.964583c-.516918 0-.945646-.22365-1.377177-.59687-.431532-.37321-.847997-.8929-1.297595-1.42575-.899197-1.06572-1.970138-2.21072-3.675228-2.21072zm0 .26459h7.672916c3.174997 0 3.968752 4.23333 6.35 4.23333h12.964583c1.612368 0 2.910417 1.29806 2.910417 2.91042v20.6375c0 1.61236-1.298051 2.91041-2.910417 2.91041h-26.987499c-1.612368 0-2.910417-1.29805-2.910417-2.91041v-24.87084c0-1.61236 1.298049-2.91041 2.910417-2.91041z" fill-opacity=".2"/>
    <path
        style="fill:currentColor"
        d="m17.991666 5.556247c-1.70509 0-2.77603 1.14501-3.675227 2.21072-.449599.53286-.866065 1.05253-1.297596 1.42575-.43153.37321-.860258.59687-1.377177.59687h-8.202083c-1.754367 0-3.175 1.42063-3.175 3.175v16.66875c0 1.75436 1.420633 3.175 3.175 3.175h26.9875c1.754369 0 3.175-1.42064 3.175-3.175v-20.90209c0-1.75437-1.420631-3.175-3.175-3.175z"
        class="ColorScheme-Highlight"/>
    <path
        d="m17.991666 5.556247c-1.70509 0-2.77603 1.14501-3.675227 2.21072-.449599.53286-.866065 1.05253-1.297596 1.42575-.43153.37321-.860258.59687-1.377176.59687h-8.202083c-1.754367 0-3.175 1.42063-3.175 3.175v16.66875c0 1.75436 1.420633 3.175 3.175 3.175h26.987499c1.754369 0 3.175-1.42064 3.175-3.175v-20.90209c0-1.75436-1.420631-3.175-3.175-3.175zm0 .26459h12.435417c1.612367 0 2.910417 1.29805 2.910417 2.91041v20.90209c0 1.61236-1.298049 2.91041-2.910417 2.91041h-26.987499c-1.612367 0-2.910417-1.29805-2.910417-2.91041v-16.66875c0-1.61236 1.298048-2.91042 2.910417-2.91042h8.202083c2.381248 0 3.175003-4.23333 6.349999-4.23333z"
        fill-opacity=".2"/>
    <path
        d="m17.991666 5.8208332c-3.174945 0-3.968786 4.2333328-6.35 4.2333328h-8.2020827c-1.6123414 0-2.91041664 1.29809-2.91041664 2.910417v16.66875c0 1.612327 1.29807724 2.910416 2.91041664 2.910416h26.9874997c1.612334 0 2.910416-1.298089 2.910416-2.910416v-.264584-1.322916-.529167-1.322917-.529166-1.322917-15.6104162c0-1.6123324-1.298083-2.9104166-2.910416-2.9104166zm.264584 10.0541668v.000516c2.345264 0 4.233333 1.888066 4.233333 4.233334 0 .09824-.00797.194438-.01447.290938 1.5035.18729 2.660303 1.460515 2.660303 3.016353 0 1.685659-1.357051 3.042709-3.042708 3.042709-.044652 0-.088112-.005235-.132292-.007235v.007235h-10.186458-.132292v-.007235c-1.62335-.06929-2.9104162-1.394982-2.9104162-3.03599 0-1.365079.8901651-2.513752 2.1239012-2.901632-.003-.04688-.007235-.093477-.007235-.141077 0-1.172629.944034-2.116666 2.116667-2.116666.491692 0 .941613.167791 1.300179.447001.577558-1.649459 2.13998-2.828251 3.991488-2.828251z"
        fill="#fff"
        fill-opacity=".3029"/>
    <path
        d="m18.256282 15.875c-1.851509 0-3.413928 1.17879-3.991486 2.82825-.358566-.27921-.808487-.447-1.300179-.447-1.172634 0-2.116667.94403-2.116667 2.11666 0 .0476.0042.0942.0072.14108-1.2337372.38788-2.1239002 1.53655-2.1239002 2.90163 0 1.64101 1.2870642 2.9667 2.9104162 3.03599v.007h.132292 10.186457v-.007c.04418.002.08764.007.132292.007 1.685659 0 3.042708-1.35705 3.042708-3.04271 0-1.55584-1.156802-2.82906-2.660303-3.01635.0065-.0965.01447-.1927.01447-.29094 0-2.34527-1.888066-4.23333-4.233333-4.23333z"
        fill-opacity=".2"/>
</svg>
