<svg
    height="128"
    viewBox="0 0 33.866666 33.866666"
    width="128"
    xmlns="http://www.w3.org/2000/svg">
    <defs id="kuyenfoldercolor">
    <style type="text/css" id="current-color-scheme">
      .ColorScheme-Highlight {
        color:#03b2fe;
      }
      </style>
  </defs>
    <path
        d="m3.439583 1.322917c-1.75437 0-3.175 1.42064-3.175 3.175v24.87083c0 1.75437 1.42063 3.175 3.175 3.175h26.9875c1.754368 0 3.175-1.42063 3.175-3.175v-20.6375c0-1.75437-1.420632-3.175-3.175-3.175h-12.964583c-.516918 0-.945647-.22364-1.377177-.59686-.431532-.37321-.847997-.8929-1.297595-1.42575-.899198-1.06572-1.970138-2.21072-3.675228-2.21072z"
        style="fill:currentColor"
class="ColorScheme-Highlight"/>
    <path
        d="m3.4395836 1.587497c-1.6123666 0-2.9104166 1.298058-2.9104166 2.910417v24.870833c0 1.612358 1.29805 2.910417 2.9104166 2.910417h26.9874994c1.612365 0 2.910417-1.298059 2.910417-2.910417v-20.637501c0-1.612358-1.29805-2.910416-2.910417-2.910416h-12.964583c-2.381245 0-3.175006-4.233333-6.35-4.233333z" fill="#fff"
        fill-opacity=".077329"/>
    <path
        d="m3.439583 1.322917c-1.754371 0-3.175 1.42064-3.175 3.175v24.87084c0 1.75436 1.420629 3.175 3.175 3.175h26.987499c1.754368 0 3.175-1.42064 3.175-3.175v-20.6375c0-1.75437-1.420632-3.175-3.175-3.175h-12.964583c-.516918 0-.945646-.22365-1.377177-.59687-.431532-.37321-.847997-.8929-1.297595-1.42575-.899197-1.06572-1.970138-2.21072-3.675228-2.21072zm0 .26459h7.672916c3.174997 0 3.968752 4.23333 6.35 4.23333h12.964583c1.612368 0 2.910417 1.29806 2.910417 2.91042v20.6375c0 1.61236-1.298051 2.91041-2.910417 2.91041h-26.987499c-1.612368 0-2.910417-1.29805-2.910417-2.91041v-24.87084c0-1.61236 1.298049-2.91041 2.910417-2.91041z"
        fill-opacity=".2"/>
    <path
        d="m17.991666 5.556247c-1.70509 0-2.77603 1.14501-3.675227 2.21072-.449599.53286-.866065 1.05253-1.297596 1.42575-.43153.37321-.860258.59687-1.377177.59687h-8.202083c-1.754367 0-3.175 1.42063-3.175 3.175v16.66875c0 1.75436 1.420633 3.175 3.175 3.175h26.9875c1.754369 0 3.175-1.42064 3.175-3.175v-20.90209c0-1.75437-1.420631-3.175-3.175-3.175z"
        style="fill:currentColor"
class="ColorScheme-Highlight"/>
    <path
        d="m17.991666 5.556247c-1.70509 0-2.77603 1.14501-3.675227 2.21072-.449599.53286-.866065 1.05253-1.297596 1.42575-.43153.37321-.860258.59687-1.377176.59687h-8.202083c-1.754367 0-3.175 1.42063-3.175 3.175v16.66875c0 1.75436 1.420633 3.175 3.175 3.175h26.987499c1.754369 0 3.175-1.42064 3.175-3.175v-20.90209c0-1.75436-1.420631-3.175-3.175-3.175zm0 .26459h12.435417c1.612367 0 2.910417 1.29805 2.910417 2.91041v20.90209c0 1.61236-1.298049 2.91041-2.910417 2.91041h-26.987499c-1.612367 0-2.910417-1.29805-2.910417-2.91041v-16.66875c0-1.61236 1.298048-2.91042 2.910417-2.91042h8.202083c2.381248 0 3.175003-4.23333 6.349999-4.23333z"
        fill-opacity=".2"/>
    <path
        d="m17.991666 5.8208332c-3.174921 0-3.968802 4.2333328-6.35 4.2333328h-8.2020827c-1.6123287 0-2.91041664 1.298106-2.91041664 2.910417v16.66875c0 1.612311 1.29808994 2.910416 2.91041664 2.910416h26.9874997c1.612318 0 2.910416-1.298105 2.910416-2.910416v-.264584-1.322916-.529167-1.322917-.529166-1.322917-15.6104162c0-1.6123194-1.298099-2.9104166-2.910416-2.9104166zm-6.35 9.5249998h11.1125c.293158 0 .529167.236007.529167.529167v10.318749c0 .29316-.236009.529167-.529167.529167h-11.1125c-.293157 0-.529166-.236007-.529166-.529167v-10.318749c0-.29316.236009-.529167.529166-.529167zm1.5875 1.852083c-.146579 0-.264583.118004-.264583.264584v.79375h-.264583c-.146577 0-.264584.118003-.264584.264583v1.322917c0 .146579.118007.264583.264584.264583h.264583v1.322917h-.264583c-.146577 0-.264584.118003-.264584.264583v1.322917c0 .146579.118007.264583.264584.264583h.264583v.79375c0 .14658.118005.264583.264583.264583h1.852084v.79375c0 .14658.118006.264583.264583.264583h3.704167c.146576 0 .264583-.118003.264583-.264583v-.79375h1.852083c.146579 0 .264584-.118003.264584-.264583v-.79375h.264583c.146578 0 .264583-.118004.264583-.264583v-1.322917c0-.14658-.118006-.264583-.264583-.264583h-.264583v-1.322917h.264583c.146578 0 .264583-.118004.264583-.264583v-1.322917c0-.14658-.118006-.264583-.264583-.264583h-.264583v-.79375c0-.14658-.118005-.264584-.264584-.264584zm.79375 1.058334h1.5875v2.910416h-1.5875zm2.38125 0h1.5875v2.910416h-1.5875zm2.38125 0h1.5875v2.910416h-1.5875z"
        fill="#fff"
        fill-opacity=".3029"/>
    <path
        d="m11.641667 15.345833c-.293158 0-.529167.23601-.529167.52917v10.31875c0 .29316.236009.52917.529167.52917h11.1125c.293158 0 .529167-.23601.529167-.52917v-10.31875c0-.29316-.236009-.52917-.529167-.52917zm1.5875 1.85209h7.9375c.146579 0 .264583.118.264583.26458v.79375h.264584c.146577 0 .264583.118.264583.26458v1.32292c0 .14658-.118005.26458-.264583.26458h-.264584v1.32292h.264584c.146577 0 .264583.118.264583.26458v1.32292c0 .14658-.118005.26458-.264583.26458h-.264584v.79375c0 .14658-.118004.26459-.264583.26459h-1.852083v.79375c0 .14658-.118007.26458-.264584.26458h-3.704166c-.146577 0-.264584-.118-.264584-.26458v-.79375h-1.852083c-.146579 0-.264583-.11801-.264583-.26459v-.79375h-.264584c-.146577 0-.264583-.118-.264583-.26458v-1.32292c0-.14658.118006-.26458.264583-.26458h.264584v-1.32292h-.264584c-.146577 0-.264583-.118-.264583-.26458v-1.32292c0-.14658.118006-.26458.264583-.26458h.264584v-.79375c0-.14658.118003-.26458.264583-.26458zm.79375 1.05833v2.91042h1.5875v-2.91042zm2.38125 0v2.91042h1.5875v-2.91042zm2.38125 0v2.91042h1.5875v-2.91042z"
        fill-opacity=".2"/>
    </svg>
