<svg height="128" viewBox="0 0 33.866666 33.866666" width="128" xmlns="http://www.w3.org/2000/svg">
    <defs id="kuyenfoldercolor">
    <style type="text/css" id="current-color-scheme">
      .ColorScheme-Highlight {
        color:#03b2fe;
      }
      </style>
  </defs><path
  style="fill:currentColor"
  d="m3.439583 1.322917c-1.75437 0-3.175 1.42064-3.175 3.175v24.87083c0 1.75437 1.42063 3.175 3.175 3.175h26.9875c1.754368 0 3.175-1.42063 3.175-3.175v-20.6375c0-1.75437-1.420632-3.175-3.175-3.175h-12.964583c-.516918 0-.945647-.22364-1.377177-.59686-.431532-.37321-.847997-.8929-1.297595-1.42575-.899198-1.06572-1.970138-2.21072-3.675228-2.21072z"
  class="ColorScheme-Highlight"/>
<path
    d="m3.439584 1.587497c-1.612367 0-2.910417 1.298058-2.910417 2.910417v24.870833c0 1.612358 1.29805 2.910417 2.910417 2.910417h26.987499c1.612365 0 2.910417-1.298059 2.910417-2.910417v-20.637501c0-1.612358-1.29805-2.910416-2.910417-2.910416h-12.964583c-2.381245 0-3.175006-4.233333-6.35-4.233333z" fill="#fff"
    fill-opacity=".077329"/>
<path
    d="m3.439583 1.322917c-1.754371 0-3.175 1.42064-3.175 3.175v24.87084c0 1.75436 1.420629 3.175 3.175 3.175h26.987499c1.754368 0 3.175-1.42064 3.175-3.175v-20.6375c0-1.75437-1.420632-3.175-3.175-3.175h-12.964583c-.516918 0-.945646-.22365-1.377177-.59687-.431532-.37321-.847997-.8929-1.297595-1.42575-.899197-1.06572-1.970138-2.21072-3.675228-2.21072zm0 .26459h7.672916c3.174997 0 3.968752 4.23333 6.35 4.23333h12.964583c1.612368 0 2.910417 1.29806 2.910417 2.91042v20.6375c0 1.61236-1.298051 2.91041-2.910417 2.91041h-26.987499c-1.612368 0-2.910417-1.29805-2.910417-2.91041v-24.87084c0-1.61236 1.298049-2.91041 2.910417-2.91041z"
    fill-opacity=".2"/>
<path
      style="fill:currentColor"
      d="m17.991666 5.556247c-1.70509 0-2.77603 1.14501-3.675227 2.21072-.449599.53286-.866065 1.05253-1.297596 1.42575-.43153.37321-.860258.59687-1.377177.59687h-8.202083c-1.754367 0-3.175 1.42063-3.175 3.175v16.66875c0 1.75436 1.420633 3.175 3.175 3.175h26.9875c1.754369 0 3.175-1.42064 3.175-3.175v-20.90209c0-1.75437-1.420631-3.175-3.175-3.175z"
    class="ColorScheme-Highlight"/>
<path
    d="m17.991666 5.556247c-1.70509 0-2.77603 1.14501-3.675227 2.21072-.449599.53286-.866065 1.05253-1.297596 1.42575-.43153.37321-.860258.59687-1.377176.59687h-8.202083c-1.754367 0-3.175 1.42063-3.175 3.175v16.66875c0 1.75436 1.420633 3.175 3.175 3.175h26.987499c1.754369 0 3.175-1.42064 3.175-3.175v-20.90209c0-1.75436-1.420631-3.175-3.175-3.175zm0 .26459h12.435417c1.612367 0 2.910417 1.29805 2.910417 2.91041v20.90209c0 1.61236-1.298049 2.91041-2.910417 2.91041h-26.987499c-1.612367 0-2.910417-1.29805-2.910417-2.91041v-16.66875c0-1.61236 1.298048-2.91042 2.910417-2.91042h8.202083c2.381248 0 3.175003-4.23333 6.349999-4.23333z"
    fill-opacity=".2"/>
<path
    d="m17.991666 5.82083c-3.174939 0-3.96879 4.233333-6.35 4.233333h-8.202083c-1.612338 0-2.910416 1.298094-2.910416 2.910417v16.66875c0 1.612323 1.29808 2.910416 2.910416 2.910416h26.9875c1.61233 0 2.910416-1.298093 2.910416-2.910416v-.264584-1.322916-.529167-1.322917-.529166-1.322917-15.610416c0-1.612329-1.298087-2.910417-2.910416-2.910417zm-6.657991 9.261967a.52921795.52921795 0 0 1 .256315.04289l2.942456 1.28726c.09408-.005.1888-.0078.28422-.0078h4.233334c.09716 0 .193618.0028.289388.0078l2.939355-1.286226a.52921795.52921795 0 0 1 .740007.484208v2.728516c.663501.851719 1.058333 1.924189 1.058333 3.092317v.79375c0 2.785008-2.242083 5.027084-5.027083 5.027084h-4.233334c-2.785 0-5.027083-2.242076-5.027083-5.027084v-.79375c0-1.168128.394831-2.240598 1.058333-3.092317v-2.729548a.52921795.52921795 0 0 1 .485759-.5271z"
    fill="#fff"
    fill-opacity=".3029"/>
<path
    d="m11.333674 15.08305a.52921795.52921795 0 0 0 -.485758.52709v2.72955c-.663503.85172-1.0583339 1.92419-1.0583339 3.09232v.79375c0 2.78501 2.2420799 5.02708 5.0270829 5.02708h4.233334c2.785003 0 5.027083-2.24207 5.027083-5.02708v-.79375c0-1.16813-.394831-2.2406-1.058333-3.09232v-2.72851a.52921795.52921795 0 0 0 -.740007-.48421l-2.939355 1.28623c-.09577-.005-.192226-.008-.289388-.008h-4.233334c-.09542 0-.190142.003-.28422.008l-2.942456-1.28726a.52921795.52921795 0 0 0 -.256315-.0429z"
    fill-opacity=".2"/>
</svg>
