<svg
    height="128"
    viewBox="0 0 33.866666 33.866666"
    width="128"
    xmlns="http://www.w3.org/2000/svg">
    <defs id="kuyenfoldercolor">
    <style type="text/css" id="current-color-scheme">
      .ColorScheme-Highlight {
        color:#03b2fe;
      }
      </style>
  </defs>
    <path
        style="fill:currentColor"
        d="m3.439583 1.322917c-1.75437 0-3.175 1.42064-3.175 3.175v24.87083c0 1.75437 1.42063 3.175 3.175 3.175h26.9875c1.754368 0 3.175-1.42063 3.175-3.175v-20.6375c0-1.75437-1.420632-3.175-3.175-3.175h-12.964583c-.516918 0-.945647-.22364-1.377177-.59686-.431532-.37321-.847997-.8929-1.297595-1.42575-.899198-1.06572-1.970138-2.21072-3.675228-2.21072z"
        class="ColorScheme-Highlight"/>
    <path
        d="m3.439584 1.587497c-1.612367 0-2.910417 1.298058-2.910417 2.910417v24.870833c0 1.612358 1.29805 2.910417 2.910417 2.910417h26.987499c1.612365 0 2.910417-1.298059 2.910417-2.910417v-20.637501c0-1.612358-1.29805-2.910416-2.910417-2.910416h-12.964583c-2.381245 0-3.175006-4.233333-6.35-4.233333z"
        fill="#fff"
        fill-opacity=".077329"/>
    <path
        d="m3.439583 1.322917c-1.754371 0-3.175 1.42064-3.175 3.175v24.87084c0 1.75436 1.420629 3.175 3.175 3.175h26.987499c1.754368 0 3.175-1.42064 3.175-3.175v-20.6375c0-1.75437-1.420632-3.175-3.175-3.175h-12.964583c-.516918 0-.945646-.22365-1.377177-.59687-.431532-.37321-.847997-.8929-1.297595-1.42575-.899197-1.06572-1.970138-2.21072-3.675228-2.21072zm0 .26459h7.672916c3.174997 0 3.968752 4.23333 6.35 4.23333h12.964583c1.612368 0 2.910417 1.29806 2.910417 2.91042v20.6375c0 1.61236-1.298051 2.91041-2.910417 2.91041h-26.987499c-1.612368 0-2.910417-1.29805-2.910417-2.91041v-24.87084c0-1.61236 1.298049-2.91041 2.910417-2.91041z"
        fill-opacity=".2"/>
    <path
        style="fill:currentColor"
        d="m17.991666 5.556247c-1.70509 0-2.77603 1.14501-3.675227 2.21072-.449599.53286-.866065 1.05253-1.297596 1.42575-.43153.37321-.860258.59687-1.377177.59687h-8.202083c-1.754367 0-3.175 1.42063-3.175 3.175v16.66875c0 1.75436 1.420633 3.175 3.175 3.175h26.9875c1.754369 0 3.175-1.42064 3.175-3.175v-20.90209c0-1.75437-1.420631-3.175-3.175-3.175z"
        class="ColorScheme-Highlight"/>
    <path
        d="m17.991666 5.556247c-1.70509 0-2.77603 1.14501-3.675227 2.21072-.449599.53286-.866065 1.05253-1.297596 1.42575-.43153.37321-.860258.59687-1.377176.59687h-8.202083c-1.754367 0-3.175 1.42063-3.175 3.175v16.66875c0 1.75436 1.420633 3.175 3.175 3.175h26.987499c1.754369 0 3.175-1.42064 3.175-3.175v-20.90209c0-1.75436-1.420631-3.175-3.175-3.175zm0 .26459h12.435417c1.612367 0 2.910417 1.29805 2.910417 2.91041v20.90209c0 1.61236-1.298049 2.91041-2.910417 2.91041h-26.987499c-1.612367 0-2.910417-1.29805-2.910417-2.91041v-16.66875c0-1.61236 1.298048-2.91042 2.910417-2.91042h8.202083c2.381248 0 3.175003-4.23333 6.349999-4.23333z"
        fill-opacity=".2"/>
    <path
        d="m17.991666 5.82083c-3.174912 0-3.968808 4.233333-6.35 4.233333h-8.202083c-1.612324 0-2.910416 1.298112-2.910416 2.910417v16.66875c0 1.612305 1.298095 2.910416 2.910416 2.910416h26.9875c1.612312 0 2.910416-1.298111 2.910416-2.910416v-.264584-1.322916-.529167-1.322917-.529166-1.322917-15.610416c0-1.612315-1.298105-2.910417-2.910416-2.910417zm-1.073836 8.996867c.198813-.0058.384067.100439.479557.274919l6.35 11.641666c.191961.35239-.06277.781881-.464054.782381h-12.7c-.401273-.00052-.656016-.429991-.464054-.782381l6.35-11.641666c.09015-.16473.260847-.268919.448551-.274919zm.0155 4.2323c-.293158 0-.529167.236007-.529167.529166v3.175c0 .29316.236009.529167.529167.529167.293159 0 .529167-.236007.529167-.529167v-3.175c.000003-.293159-.236005-.529166-.529164-.529166zm0 5.291666c-.293158 0-.529167.236007-.529167.529167s.236009.529166.529167.529166c.293159 0 .529167-.236006.529167-.529166s-.236008-.529167-.529167-.529167z"
        fill="#fff"
        fill-opacity=".3029"/>
    <path
        d="m16.917944 14.81688c-.187704.006-.358399.11019-.448552.27492l-6.350001 11.64167c-.1919616.35239.06278.78186.464054.78238h12.700003c.401283-.0005.656015-.42999.464054-.78238l-6.350001-11.64167c-.09549-.17448-.280744-.28068-.479557-.27492zm.0155 4.2323c.293159 0 .529167.23601.529167.52917v3.175c0 .29316-.236008.52917-.529167.52917-.293158 0-.529167-.23601-.529167-.52917v-3.175c0-.29316.236009-.52917.529167-.52917zm0 5.29167c.293159 0 .529167.23601.529167.52917s-.236008.52917-.529167.52917c-.293158 0-.529167-.23601-.529167-.52917s.236009-.52917.529167-.52917z"
        fill-opacity=".2"/>
</svg>
