<svg
    height="128"
    viewBox="0 0 33.866666 33.866666"
    width="128"
    xmlns="http://www.w3.org/2000/svg">
    <defs id="kuyenfoldercolor">
    <style type="text/css" id="current-color-scheme">
      .ColorScheme-Highlight {
        color:#03b2fe;
      }
      </style>
  </defs>
    <path
        style="fill:currentColor"
        d="m3.439583 1.322917c-1.75437 0-3.175 1.42064-3.175 3.175v24.87083c0 1.75437 1.42063 3.175 3.175 3.175h26.9875c1.754368 0 3.175-1.42063 3.175-3.175v-20.6375c0-1.75437-1.420632-3.175-3.175-3.175h-12.964583c-.516918 0-.945647-.22364-1.377177-.59686-.431532-.37321-.847997-.8929-1.297595-1.42575-.899198-1.06572-1.970138-2.21072-3.675228-2.21072z"
        class="ColorScheme-Highlight"/>
    <path
        d="m3.439584 1.587497c-1.612367 0-2.910417 1.298058-2.910417 2.910417v24.870833c0 1.612358 1.29805 2.910417 2.910417 2.910417h26.987499c1.612365 0 2.910417-1.298059 2.910417-2.910417v-20.637501c0-1.612358-1.29805-2.910416-2.910417-2.910416h-12.964583c-2.381245 0-3.175006-4.233333-6.35-4.233333z" fill="#fff"
        fill-opacity=".077329"/>
    <path
        d="m3.439583 1.322917c-1.754371 0-3.175 1.42064-3.175 3.175v24.87084c0 1.75436 1.420629 3.175 3.175 3.175h26.987499c1.754368 0 3.175-1.42064 3.175-3.175v-20.6375c0-1.75437-1.420632-3.175-3.175-3.175h-12.964583c-.516918 0-.945646-.22365-1.377177-.59687-.431532-.37321-.847997-.8929-1.297595-1.42575-.899197-1.06572-1.970138-2.21072-3.675228-2.21072zm0 .26459h7.672916c3.174997 0 3.968752 4.23333 6.35 4.23333h12.964583c1.612368 0 2.910417 1.29806 2.910417 2.91042v20.6375c0 1.61236-1.298051 2.91041-2.910417 2.91041h-26.987499c-1.612368 0-2.910417-1.29805-2.910417-2.91041v-24.87084c0-1.61236 1.298049-2.91041 2.910417-2.91041z"
        fill-opacity=".2"/>
    <path
        style="fill:currentColor"
        d="m17.991666 5.556247c-1.70509 0-2.77603 1.14501-3.675227 2.21072-.449599.53286-.866065 1.05253-1.297596 1.42575-.43153.37321-.860258.59687-1.377177.59687h-8.202083c-1.754367 0-3.175 1.42063-3.175 3.175v16.66875c0 1.75436 1.420633 3.175 3.175 3.175h26.9875c1.754369 0 3.175-1.42064 3.175-3.175v-20.90209c0-1.75437-1.420631-3.175-3.175-3.175z"
        class="ColorScheme-Highlight"/>
    <path
        d="m17.991666 5.556247c-1.70509 0-2.77603 1.14501-3.675227 2.21072-.449599.53286-.866065 1.05253-1.297596 1.42575-.43153.37321-.860258.59687-1.377176.59687h-8.202083c-1.754367 0-3.175 1.42063-3.175 3.175v16.66875c0 1.75436 1.420633 3.175 3.175 3.175h26.987499c1.754369 0 3.175-1.42064 3.175-3.175v-20.90209c0-1.75436-1.420631-3.175-3.175-3.175zm0 .26459h12.435417c1.612367 0 2.910417 1.29805 2.910417 2.91041v20.90209c0 1.61236-1.298049 2.91041-2.910417 2.91041h-26.987499c-1.612367 0-2.910417-1.29805-2.910417-2.91041v-16.66875c0-1.61236 1.298048-2.91042 2.910417-2.91042h8.202083c2.381248 0 3.175003-4.23333 6.349999-4.23333z"
        fill-opacity=".2"/>
    <path
        d="m17.991666 5.82083c-3.174954 0-3.96878 4.233333-6.35 4.233333h-8.202083c-1.612346 0-2.910416 1.298084-2.910416 2.910417v16.66875c0 1.612333 1.298072 2.910416 2.910416 2.910416h26.9875c1.61234 0 2.910416-1.298083 2.910416-2.910416v-.264584-1.322916-.529167-1.322917-.529166-1.322917-15.610416c0-1.612337-1.298077-2.910417-2.910416-2.910417zm-4.766117 9.260417c1.026402 0 1.853117.826034 1.853117 1.852083 0 1.026059-.826715 1.852083-1.853117 1.852083-1.026401 0-1.8526-.826024-1.8526-1.852083 0-1.026049.826199-1.852083 1.8526-1.852083zm6.614066 4.761983a.26469974.26460981 0 0 1 .224793.120923l4.499467 6.879166a.26469974.26460981 0 0 1 -.222726.408244h-7.131864a.26469972.26460979 0 0 1 -.0088.000517h-7.146319a.26469972.26460979 0 0 1 -.210323-.425297l3.441134-4.497917a.26469972.26460979 0 0 1 .205672-.103869.26469972.26460979 0 0 1 .208773.09663l2.33009 2.828768 3.59513-5.191931a.26469974.26460981 0 0 1 .214973-.115238z"
        fill="#fff"
        fill-opacity=".3029"/>
    <path
        d="m13.225794 15.08125c-1.026402 0-1.852713.82603-1.852713 1.85208 0 1.02606.826311 1.85209 1.852713 1.85209 1.026403 0 1.852713-.82603 1.852713-1.85209 0-1.02605-.82631-1.85208-1.852713-1.85208zm6.613729 4.76198a.26469974.26460981 0 0 0 -.215046.11524l-3.594801 5.19193-2.330365-2.82876a.26469972.26460979 0 0 0 -.208842-.0966.26469972.26460979 0 0 0 -.205744.10387l-3.4407514 4.49792a.26469972.26460979 0 0 0 .2103944.42529h7.146177a.26469972.26460979 0 0 0 .0088-.00053h7.131704a.26469974.26460981 0 0 0 .222801-.40825l-4.499446-6.87916a.26469974.26460981 0 0 0 -.224869-.12093z"
        fill-opacity=".2"/>
    </svg>
