<svg
    height="128"
    viewBox="0 0 33.866666 33.866666"
    width="128"
    xmlns="http://www.w3.org/2000/svg">
     <defs id="kuyenfoldercolor">
    <style type="text/css" id="current-color-scheme">
      .ColorScheme-Highlight {
        color:#03b2fe;
      }
      </style>
  </defs>
    <path
        style="fill:currentColor"
        d="m3.439583 1.322917c-1.75437 0-3.175 1.42064-3.175 3.175v24.87083c0 1.75437 1.42063 3.175 3.175 3.175h26.9875c1.754368 0 3.175-1.42063 3.175-3.175v-20.6375c0-1.75437-1.420632-3.175-3.175-3.175h-12.964583c-.516918 0-.945647-.22364-1.377177-.59686-.431532-.37321-.847997-.8929-1.297595-1.42575-.899198-1.06572-1.970138-2.21072-3.675228-2.21072z"
        class="ColorScheme-Highlight"/>
    <path
        d="m3.439584 1.587497c-1.612367 0-2.910417 1.298058-2.910417 2.910417v24.870833c0 1.612358 1.29805 2.910417 2.910417 2.910417h26.987499c1.612365 0 2.910417-1.298059 2.910417-2.910417v-20.637501c0-1.612358-1.29805-2.910416-2.910417-2.910416h-12.964583c-2.381245 0-3.175006-4.233333-6.35-4.233333z" fill="#fff"
        fill-opacity=".077329"/>
    <path
        d="m3.439583 1.322917c-1.754371 0-3.175 1.42064-3.175 3.175v24.87084c0 1.75436 1.420629 3.175 3.175 3.175h26.987499c1.754368 0 3.175-1.42064 3.175-3.175v-20.6375c0-1.75437-1.420632-3.175-3.175-3.175h-12.964583c-.516918 0-.945646-.22365-1.377177-.59687-.431532-.37321-.847997-.8929-1.297595-1.42575-.899197-1.06572-1.970138-2.21072-3.675228-2.21072zm0 .26459h7.672916c3.174997 0 3.968752 4.23333 6.35 4.23333h12.964583c1.612368 0 2.910417 1.29806 2.910417 2.91042v20.6375c0 1.61236-1.298051 2.91041-2.910417 2.91041h-26.987499c-1.612368 0-2.910417-1.29805-2.910417-2.91041v-24.87084c0-1.61236 1.298049-2.91041 2.910417-2.91041z"
        fill-opacity=".2"/>
    <path
        style="fill:currentColor"
        d="m17.991666 5.556247c-1.70509 0-2.77603 1.14501-3.675227 2.21072-.449599.53286-.866065 1.05253-1.297596 1.42575-.43153.37321-.860258.59687-1.377177.59687h-8.202083c-1.754367 0-3.175 1.42063-3.175 3.175v16.66875c0 1.75436 1.420633 3.175 3.175 3.175h26.9875c1.754369 0 3.175-1.42064 3.175-3.175v-20.90209c0-1.75437-1.420631-3.175-3.175-3.175z"
        class="ColorScheme-Highlight"/>
    <path
        d="m17.991666 5.556247c-1.70509 0-2.77603 1.14501-3.675227 2.21072-.449599.53286-.866065 1.05253-1.297596 1.42575-.43153.37321-.860258.59687-1.377176.59687h-8.202083c-1.754367 0-3.175 1.42063-3.175 3.175v16.66875c0 1.75436 1.420633 3.175 3.175 3.175h26.987499c1.754369 0 3.175-1.42064 3.175-3.175v-20.90209c0-1.75436-1.420631-3.175-3.175-3.175zm0 .26459h12.435417c1.612367 0 2.910417 1.29805 2.910417 2.91041v20.90209c0 1.61236-1.298049 2.91041-2.910417 2.91041h-26.987499c-1.612367 0-2.910417-1.29805-2.910417-2.91041v-16.66875c0-1.61236 1.298048-2.91042 2.910417-2.91042h8.202083c2.381248 0 3.175003-4.23333 6.349999-4.23333z"
        fill-opacity=".2"/>
    <path
        d="m17.991666 5.82083c-3.174912 0-3.968808 4.233333-6.35 4.233333h-8.202083c-1.612324 0-2.910416 1.298112-2.910416 2.910417v16.66875c0 1.612305 1.298094 2.910416 2.910416 2.910416h26.9875c1.612312 0 2.910416-1.298111 2.910416-2.910416v-.264584-1.322916-.529167-1.322917-.529166-1.322917-15.610416c0-1.612315-1.298105-2.910417-2.910416-2.910417z"
        fill="#fff"
        fill-opacity=".3029"/>
    <path
        d="m24.341667 5.556258v2.11666 2.11667 5.82084c0 1.17263.944033 2.11666 2.116667 2.11666 1.172633 0 2.116666-.94403 2.116666-2.11666v-5.82084-2.11667-2.11666h-2.116666z"
        fill="#36404d"/>
    <path
        d="m24.870834 6.085418v1.5875 1.05834 6.87917c0 .87947.708025 1.5875 1.5875 1.5875.879474 0 1.587499-.70803 1.587499-1.5875v-6.87917-1.05834-1.5875h-1.587499z"
        fill="#4b6477"/>
    <path
        d="m26.458334 6.085418v.52917h.529166v-.52917zm0 .52917h-.529167v.52917h.529167zm0 .52917v.52916h.529166v-.52916zm0 .52916h-.529167v.52917h.529167zm0 .52917v.52917h.529166v-.52917zm0 .52917h-.529167v.52916h.529167zm0 .52916v.52917h.529166v-.52917zm0 .52917h-.529167v.52917h.529167zm0 .52917v.52916h.529166v-.52916zm0 .52916h-.529167v.52917h.529167zm0 .52917v.52917h.529166v-.52917zm0 .52917h-.529167v.52916h.529167zm0 .52916v.52917h.529166v-.52917zm0 .52917h-.529167v.52917h.529167zm0 .52917v.52916h.529166v-.52916zm0 .52916h-.529167v.52917h.529167zm0 .52917v.52917h.529166v-.52917zm0 .52917h-.529167v.52917h.529167zm0 .52917v.52916h.529166v-.52916zm0 .52916h-.529167v.52917.67489c-.315277.18286-.529167.52046-.529167.91261 0 .58632.472018 1.05833 1.058334 1.05833s1.058333-.47201 1.058333-1.05833c0-.39215-.213889-.72975-.529167-.91261v-.67489h-.529166zm0 1.5875c.293158 0 .529166.23601.529166.52917s-.236008.52917-.529166.52917-.529167-.23601-.529167-.52917.236009-.52917.529167-.52917z"
        fill="#f8f9fa"/></svg>
