<svg
    height="128"
    viewBox="0 0 33.866666 33.866666"
    width="128"
    xmlns="http://www.w3.org/2000/svg">
    <defs id="kuyenfoldercolor">
    <style type="text/css" id="current-color-scheme">
      .ColorScheme-Highlight {
        color:#03b2fe;
      }
      </style>
  </defs>
    <path
        style="fill:currentColor"
        d="m3.439583 1.322917c-1.75437 0-3.175 1.42064-3.175 3.175v24.87083c0 1.75437 1.42063 3.175 3.175 3.175h26.9875c1.754368 0 3.175-1.42063 3.175-3.175v-20.6375c0-1.75437-1.420632-3.175-3.175-3.175h-12.964583c-.516918 0-.945647-.22364-1.377177-.59686-.431532-.37321-.847997-.8929-1.297595-1.42575-.899198-1.06572-1.970138-2.21072-3.675228-2.21072z"
        class="ColorScheme-Highlight"/>
    <path
        d="m3.439584 1.587497c-1.612367 0-2.910417 1.298058-2.910417 2.910417v24.870833c0 1.612358 1.29805 2.910417 2.910417 2.910417h26.987499c1.612365 0 2.910417-1.298059 2.910417-2.910417v-20.637501c0-1.612358-1.29805-2.910416-2.910417-2.910416h-12.964583c-2.381245 0-3.175006-4.233333-6.35-4.233333z" fill="#fff"
        fill-opacity=".077329"/>
    <path
        d="m3.439583 1.322917c-1.754371 0-3.175 1.42064-3.175 3.175v24.87084c0 1.75436 1.420629 3.175 3.175 3.175h26.987499c1.754368 0 3.175-1.42064 3.175-3.175v-20.6375c0-1.75437-1.420632-3.175-3.175-3.175h-12.964583c-.516918 0-.945646-.22365-1.377177-.59687-.431532-.37321-.847997-.8929-1.297595-1.42575-.899197-1.06572-1.970138-2.21072-3.675228-2.21072zm0 .26459h7.672916c3.174997 0 3.968752 4.23333 6.35 4.23333h12.964583c1.612368 0 2.910417 1.29806 2.910417 2.91042v20.6375c0 1.61236-1.298051 2.91041-2.910417 2.91041h-26.987499c-1.612368 0-2.910417-1.29805-2.910417-2.91041v-24.87084c0-1.61236 1.298049-2.91041 2.910417-2.91041z" fill-opacity=".2"/>
    <path
        style="fill:currentColor"
        d="m17.991666 5.556247c-1.70509 0-2.77603 1.14501-3.675227 2.21072-.449599.53286-.866065 1.05253-1.297596 1.42575-.43153.37321-.860258.59687-1.377177.59687h-8.202083c-1.754367 0-3.175 1.42063-3.175 3.175v16.66875c0 1.75436 1.420633 3.175 3.175 3.175h26.9875c1.754369 0 3.175-1.42064 3.175-3.175v-20.90209c0-1.75437-1.420631-3.175-3.175-3.175z"
        class="ColorScheme-Highlight"/>
    <path
        d="m17.991666 5.556247c-1.70509 0-2.77603 1.14501-3.675227 2.21072-.449599.53286-.866065 1.05253-1.297596 1.42575-.43153.37321-.860258.59687-1.377176.59687h-8.202083c-1.754367 0-3.175 1.42063-3.175 3.175v16.66875c0 1.75436 1.420633 3.175 3.175 3.175h26.987499c1.754369 0 3.175-1.42064 3.175-3.175v-20.90209c0-1.75436-1.420631-3.175-3.175-3.175zm0 .26459h12.435417c1.612367 0 2.910417 1.29805 2.910417 2.91041v20.90209c0 1.61236-1.298049 2.91041-2.910417 2.91041h-26.987499c-1.612367 0-2.910417-1.29805-2.910417-2.91041v-16.66875c0-1.61236 1.298048-2.91042 2.910417-2.91042h8.202083c2.381248 0 3.175003-4.23333 6.349999-4.23333z"
        fill-opacity=".2"/>
    <path
        d="m17.991666 5.82083c-3.174951 0-3.968782 4.233333-6.35 4.233333h-8.202083c-1.612344 0-2.910416 1.298086-2.910416 2.910417v16.66875c0 1.612331 1.298074 2.910416 2.910416 2.910416h26.9875c1.612338 0 2.910416-1.298085 2.910416-2.910416v-.264584-1.322916-.529167-1.322917-.529166-1.322917-15.610416c0-1.612336-1.298079-2.910417-2.910416-2.910417zm-3.755843 8.732284c.04609-.002.09242-.0017.138493.0021.185121.01517.362987.0788.515731.184484.0014.0026 5.218297 3.251488 7.155635 5.04362.607983.732652.973068 1.674981.973068 2.705778 0 2.345243-1.888093 4.233333-4.233334 4.233333-2.180818 0-3.965278-1.632907-4.204911-3.747574l-1.74873 1.398881c-.456385.364907-1.122163.290882-1.487248-.165365-.364908-.45639-.290883-1.122163.165365-1.487248l2.935738-2.348726h-2.803964c-.584498 0-1.058333-.473833-1.058333-1.058334 0-.584493.473835-1.058333 1.058333-1.058333h4.607988l-2.564701-1.775602c-.480679-.332729-.600538-.992195-.267684-1.472779.159853-.230793.404857-.388615.681095-.438732.0455-.0083.09137-.01339.137459-.0155zm4.549593 5.290116c-1.465785 0-2.645833 1.180048-2.645833 2.645833s1.180048 2.645833 2.645833 2.645833 2.645834-1.180048 2.645834-2.645833-1.180049-2.645833-2.645834-2.645833zm0 1.058333c.879474 0 1.5875.708026 1.5875 1.5875s-.708026 1.5875-1.5875 1.5875-1.5875-.708026-1.5875-1.5875.708026-1.5875 1.5875-1.5875z"
        fill="#fff"
        fill-opacity=".3029"/>
    <path
        d="m53.804687 241.65585c-.1742.008-.34756.0274-.51953.0586-1.04405.18942-1.97005.78592-2.57422 1.65821-1.25803 1.81638-.80502 4.30884 1.01172 5.5664l9.69336 6.71094h-17.41602c-2.20913 0-4 1.79089-4 4 0 2.20914 1.79087 4 4 4h10.59766l-11.09571 8.87695c-1.7244 1.37985-2.00418 3.89616-.625 5.6211 1.37985 1.7244 3.89618 2.00418 5.6211.625l6.60937-5.28711c.9057 7.99245 7.65011 14.16406 15.89258 14.16406 8.86391 0 16-7.13608 16-16 0-3.89593-1.37984-7.45748-3.67773-10.22656-7.32223-6.77342-27.03949-19.05259-27.04493-19.0625-.5773-.39944-1.24955-.63992-1.94922-.69727-.17414-.0143-.34923-.0155-.52343-.008zm17.19531 19.99414c5.53998 0 10 4.46002 10 10s-4.46002 10-10 10-10-4.46002-10-10 4.46002-10 10-10zm0 4c-3.324 0-6 2.676-6 6s2.676 6 6 6 6-2.676 6-6-2.676-6-6-6z"
        fill-opacity=".2"
        transform="matrix(.26458333 0 0 .26458333 -0 -49.38448)"/>
</svg>
