<svg
    height="128"
    viewBox="0 0 33.866666 33.866666"
    width="128"
    xmlns="http://www.w3.org/2000/svg">
    <defs id="kuyenfoldercolor">
    <style type="text/css" id="current-color-scheme">
      .ColorScheme-Highlight {
        color:#03b2fe;
      }
      </style>
  </defs>
    <path
        style="fill:currentColor"
        d="m3.439583 1.322917c-1.75437 0-3.175 1.42064-3.175 3.175v24.87083c0 1.75437 1.42063 3.175 3.175 3.175h26.9875c1.754368 0 3.175-1.42063 3.175-3.175v-20.6375c0-1.75437-1.420632-3.175-3.175-3.175h-12.964583c-.516918 0-.945647-.22364-1.377177-.59686-.431532-.37321-.847997-.8929-1.297595-1.42575-.899198-1.06572-1.970138-2.21072-3.675228-2.21072z"
        class="ColorScheme-Highlight"/>
    <path
        d="m3.439584 1.587497c-1.612367 0-2.910417 1.298058-2.910417 2.910417v24.870833c0 1.612358 1.29805 2.910417 2.910417 2.910417h26.987499c1.612365 0 2.910417-1.298059 2.910417-2.910417v-20.637501c0-1.612358-1.29805-2.910416-2.910417-2.910416h-12.964583c-2.381245 0-3.175006-4.233333-6.35-4.233333z" fill="#fff"
        fill-opacity=".077329"/>
    <path
        d="m3.439583 1.322917c-1.754371 0-3.175 1.42064-3.175 3.175v24.87084c0 1.75436 1.420629 3.175 3.175 3.175h26.987499c1.754368 0 3.175-1.42064 3.175-3.175v-20.6375c0-1.75437-1.420632-3.175-3.175-3.175h-12.964583c-.516918 0-.945646-.22365-1.377177-.59687-.431532-.37321-.847997-.8929-1.297595-1.42575-.899197-1.06572-1.970138-2.21072-3.675228-2.21072zm0 .26459h7.672916c3.174997 0 3.968752 4.23333 6.35 4.23333h12.964583c1.612368 0 2.910417 1.29806 2.910417 2.91042v20.6375c0 1.61236-1.298051 2.91041-2.910417 2.91041h-26.987499c-1.612368 0-2.910417-1.29805-2.910417-2.91041v-24.87084c0-1.61236 1.298049-2.91041 2.910417-2.91041z"
        fill-opacity=".2"/>
    <path
        style="fill:currentColor"
        d="m17.991666 5.556247c-1.70509 0-2.77603 1.14501-3.675227 2.21072-.449599.53286-.866065 1.05253-1.297596 1.42575-.43153.37321-.860258.59687-1.377177.59687h-8.202083c-1.754367 0-3.175 1.42063-3.175 3.175v16.66875c0 1.75436 1.420633 3.175 3.175 3.175h26.9875c1.754369 0 3.175-1.42064 3.175-3.175v-20.90209c0-1.75437-1.420631-3.175-3.175-3.175z"
        class="ColorScheme-Highlight"/>
    <path d="m17.991666 5.556247c-1.70509 0-2.77603 1.14501-3.675227 2.21072-.449599.53286-.866065 1.05253-1.297596 1.42575-.43153.37321-.860258.59687-1.377176.59687h-8.202083c-1.754367 0-3.175 1.42063-3.175 3.175v16.66875c0 1.75436 1.420633 3.175 3.175 3.175h26.987499c1.754369 0 3.175-1.42064 3.175-3.175v-20.90209c0-1.75436-1.420631-3.175-3.175-3.175zm0 .26459h12.435417c1.612367 0 2.910417 1.29805 2.910417 2.91041v20.90209c0 1.61236-1.298049 2.91041-2.910417 2.91041h-26.987499c-1.612367 0-2.910417-1.29805-2.910417-2.91041v-16.66875c0-1.61236 1.298048-2.91042 2.910417-2.91042h8.202083c2.381248 0 3.175003-4.23333 6.349999-4.23333z" fill-opacity=".2"/><path d="m17.991666 5.82083c-3.174918 0-3.968804 4.233333-6.35 4.233333h-8.202083c-1.612327 0-2.910416 1.298108-2.910416 2.910417v16.66875c0 1.612309 1.298091 2.910416 2.910416 2.910416h26.9875c1.612316 0 2.910416-1.298107 2.910416-2.910416v-.264584-1.322916-.529167-1.322917-.529166-1.322917-15.610416c0-1.612318-1.298101-2.910417-2.910416-2.910417zm-1.324467 8.73125h.794784c.145515.0003.263484.11804.264066.26355v.03101c0 .0162.0018.03254.0036.05064.0018.018.0047.03596.0078.05116.0034.0167.0071.03101.01189.04651.0044.0142.0087.03083.0155.04703.0068.0161.0148.03019.0217.04289.0076.0139.01632.02804.02532.04134.008.0119.01811.02496.02946.03876.01084.0131.02051.02464.03101.03514.01052.0105.022.02072.03514.03152.01375.0114.02739.02094.03927.02894.01331.009.02684.01784.04082.02584.01276.0069.02685.01212.04289.01912.01611.0068.03276.01357.04703.01757.01541.0049.03027.0089.04703.01189.01523.003.03055.0058.04858.0078.01817.0023.03653.0021.05271.0021h.06046c.01618 0 .03299-.000068.05116-.0021.01803-.002.03542-.0048.05064-.0078.01677-.0039.03162-.0069.04703-.01189.01428-.0044.02885-.01057.04496-.01757.01604-.0067.0322-.01212.04496-.01912.01398-.0076.02751-.01684.04082-.02584.01189-.008.02345-.01764.03721-.02894.01315-.0108.02669-.02102.03721-.03152.01051-.0104.02017-.02204.03101-.03514.01135-.0138.02146-.02696.02946-.03876.009-.0133.01565-.02734.02325-.04134.0069-.0127.0149-.02679.0217-.04289.0068-.0162.01317-.03283.01757-.04703.0048-.0155.008-.02981.01137-.04651.0031-.0153.006-.03316.0078-.05116.0019-.0182.0021-.03444.0021-.05064v-.03101c.000584-.14612.119497-.26411.265617-.26355h.793233c.146138-.00056.26506.11741.265617.26355v.03101c0 .0162-.00025.03254.0015.05064.0018.018.0052.03596.0083.05116.0034.0167.0066.03101.01137.04651.0044.0142.01077.03083.01757.04703.0068.0161.01274.03019.01964.04289.0076.0139.01632.02804.02532.04134.008.0119.01811.02496.02946.03876.01084.0131.02051.02464.03101.03514.01052.0105.022.02072.03514.03152.01375.0114.02739.02094.03927.02894.01331.009.02684.01784.04082.02584.01277.0069.02737.01212.04341.01912.01611.0068.03224.01357.04651.01757.01541.0049.03027.0089.04703.01189.01522.003.03261.0058.05064.0078.01816.0023.03446.0021.05064.0021h.06098c.01618 0 .03247-.000068.05064-.0021.01803-.002.03542-.0048.05064-.0078.01677-.0039.03162-.0069.04703-.01189.01428-.0044.03092-.01057.04703-.01757.01604-.0067.03013-.01212.04289-.01912.01398-.0076.02752-.01684.04083-.02584.01188-.008.02551-.01764.03927-.02894.01314-.0108.02462-.02102.03514-.03152.01051-.0104.02017-.02204.03101-.03514.01135-.0138.02145-.02696.02945-.03876.009-.0133.01772-.02734.02532-.04134.0069-.0127.01284-.02679.01964-.04289.0068-.0162.01317-.03283.01757-.04703.0048-.0155.0085-.02981.01188-.04651.0031-.0153.006-.03316.0078-.05116.0018-.0182.0016-.03444.0016-.05064v-.03101c.000584-.14612.119497-.26411.265617-.26355h.529683c.581737 0 1.058334.476594 1.058334 1.058333-.000584.14612-.119497.26411-.265617.26355h-.02946c-.01114 0-.01594.00007-.01344 0-.01735.001-.03429.0021-.05064.0041-.01722.002-.03404.0048-.04909.0078-.01397.0032-.02769.008-.04496.01395-.0166.0055-.03188.01157-.04496.01757-.01545.0069-.02994.0147-.04289.0217-.01309.0074-.02737.01632-.04082.02532-.01211.0084-.02222.01649-.03514.02739-.01222.0104-.02435.02197-.03514.03307-.01042.0107-.02129.02244-.03152.03514-.01193.0148-.02194.02671-.02894.03721s-.01487.02413-.02377.04083c-.0083.0157-.01434.03019-.01964.04289-.0061.0146-.01287.02936-.01757.04496v.000516.000517.000517.000517c-.0045.0145-.008.03013-.01137.04703-.0035.0172-.0063.03308-.0078.04858-.0016.0155-.0021.03308-.0021.05168v.06046c0 .0162.0018.03203.0036.05013.0018.018.0031.03544.0062.05064.0034.0167.0086.03153.01343.04703.0044.0142.0092.02876.01602.04496.0068.0161.01429.03278.02119.04547.0076.0139.01632.02701.02532.04031.008.0118.01604.02341.02739.03721.01083.0131.02257.02464.03307.03514v.000517.000516.000517.000517c.01052.0105.022.02021.03514.03101.01375.0114.02739.02145.03927.02945.01331.0089.02684.01577.04082.02377.01277.0069.02737.0147.04341.0217.01611.0068.03224.01357.04651.01757.01541.0044.03026.0084.04703.01137.01523.003.03055.0058.04858.0078.01817.0018.03653.0021.05271.0021h.02946c.146917-.00057.266157.118697.265617.265617v.792716c-.000584.14612-.119497.26411-.265617.26355h-.02946c-.01114 0-.01594.00007-.01344 0-.01735.001-.03429.0021-.05064.0041-.01722.0023-.03404.0073-.04909.01034-.01397.0024-.02769.0054-.04496.01137-.0166.0055-.03188.01157-.04496.01757-.01545.0069-.02994.0147-.04289.0217-.01309.0074-.02737.01632-.04082.02532-.01211.0084-.02222.01855-.03514.02946-.01222.0103-.02435.01991-.03514.03101-.01042.0107-.02129.02244-.03152.03514-.01193.0148-.02194.02877-.02894.03927s-.01487.02413-.02377.04083c-.0083.0157-.01382.03019-.01912.04289-.006.0146-.01287.02936-.01757.04496-.0044.0145-.0085.03012-.01188.04702-.0035.0172-.0063.03308-.0078.04858-.0016.0155-.0021.03256-.0021.05116v.06046c0 .0162.0023.03254.0041.05064.0018.018.0026.03596.0057.05116.0034.0167.0086.03101.01343.04651.0044.0142.0092.03083.01602.04703.0068.0161.01429.03019.02119.04289.0076.0139.01632.02804.02532.04134.008.0119.01604.02496.02739.03876.01083.0131.02257.02464.03307.03514.01052.0105.022.02072.03514.03152.01375.0114.02739.02094.03927.02894.01331.009.02684.01784.04082.02584.01277.0069.02737.01212.04341.01912.01611.0068.03224.01357.04651.01757.01541.0049.03026.0089.04703.01188.01523.003.03055.0058.04858.0078.01817.0018.03705.0021.05323.0021h.02894c.146945-.00056.266201.118677.265617.265617v.793233c.000556.14692-.118692.266177-.265617.265617h-.02894c-.01625 0-.03513.000067-.05323.0021-.01803.002-.03336.0048-.04858.0078-.01669.0039-.03356.0069-.04909.01189-.01378.0044-.02881.01109-.04444.01809-.01616.0068-.0307.01212-.04341.01912-.01398.0076-.02751.01632-.04082.02532-.01183.008-.02547.01754-.03927.02894-.01319.0108-.02465.02102-.03514.03152-.0105.0104-.02223.02204-.03307.03514-.01135.0138-.01939.02696-.02739.03876-.009.0133-.01772.02734-.02532.04134-.0069.0128-.01439.02679-.02119.04289-.0074.0175-.01192.03392-.01602.04703-.0044.0145-.0099.02963-.01343.04703-.0031.0153-.0039.03264-.0057.05064-.0018.0182-.0041.03444-.0041.05064v.06046c0 .0162.0023.03461.0041.05271.0018.018.0026.03379.0057.04909.0034.0167.0086.03152.01343.04702.0044.0142.0092.03031.01602.04651.0068.0161.01429.03071.02119.04341.0076.014.01632.02753.02532.04083.008.0119.01604.02547.02739.03927.01083.0131.02257.02412.03307.03462.01052.0105.022.02072.03514.03152.01375.0113.02739.02145.03927.02946.01331.009.02684.01732.04082.02532.01277.0069.02737.01212.04341.01912.01611.0068.03224.01357.04651.01757.01541.0049.03026.0089.04703.01188.01523.003.03055.0058.04858.0078.01817.002.03705.0041.05323.0041h.02894c.146241-.00056.265204.117827.265617.264067v.792716c.000556.14692-.118692.266177-.265617.265617h-.02894c-.01625 0-.03513-.00045-.05323.0016-.01803.002-.03336.0053-.04858.0083-.01669.0039-.03356.0069-.04909.01189-.01378.0043-.02881.01057-.04444.01757-.01616.0068-.0307.0147-.04341.0217-.01398.0075-.02751.01425-.04082.02325-.01183.0079-.02547.01806-.03927.02946-.01319.0108-.02465.02051-.03514.03101v.000517.000516.000517.000517c-.0105.0104-.02223.02204-.03307.03514-.01135.0138-.01939.02541-.02739.03721-.009.0133-.01772.02682-.02532.04082-.0069.0127-.01439.02886-.02119.04496-.0074.0175-.01192.03186-.01602.04496-.0044.0145-.0099.02963-.01343.04703-.0031.0153-.0039.03264-.0057.05064-.0018.0182-.0041.03444-.0041.05064v.06046c0 .0162.0023.03461.0041.05271.0018.018.0026.03389.0057.04909.0034.0167.0086.03101.01343.04651.0044.0142.0092.03083.01602.04703.0068.0161.01429.03019.02119.04289.0076.014.01632.02804.02532.04134.008.0119.01604.02496.02739.03876.01083.0132.02257.02464.03307.03514.01052.0105.022.02279.03514.03359.01375.0113.02739.01939.03927.02739.01331.009.02684.01732.04082.02532.01277.0069.02737.01419.04341.02119.01611.0065.03224.0115.04651.0155.01541.0049.03026.01095.04703.01395.01523.003.03055.0037.04858.0057.01817.002.03705.0041.05323.0041h.02894c.146342-.00056.265347.117727.265617.264066v.794467c-.000584.14612-.119497.26411-.265617.26355h-.02894c-.01625 0-.03513.000067-.05323.0021-.01803.002-.03336.0048-.04858.0078-.01669.0039-.03356.0069-.04909.01189-.01378.0043-.02881.01109-.04444.01809-.01616.0068-.0307.0147-.04341.0217-.01398.0076-.02751.0158-.04082.0248-.01183.0079-.02547.01599-.03927.02739-.01319.0109-.02465.02309-.03514.03359-.0105.0104-.02223.02152-.03307.03462-.01135.0137-.01939.02541-.02739.03721-.009.0133-.01772.02682-.02532.04082-.0069.0127-.01439.02886-.02119.04496-.0074.0175-.01192.03176-.01602.04496-.0044.0145-.0099.03118-.01343.04858-.0031.0152-.0039.03109-.0057.04909-.0018.0181-.0041.03651-.0041.05271v.05839c0 .0162.0023.03461.0041.05271.0018.018.0026.03338.0057.04858.0034.0167.0086.03359.01343.04909.0044.0142.0092.02928.01602.04548.0068.0161.01429.03226.02119.04496.0076.014.01632.02753.02532.04083.008.0118.01604.02341.02739.03721.01083.0131.02257.02412.03307.03462.01052.0105.022.02279.03514.03359.01375.0113.02739.01939.03927.02739.01331.009.02684.01732.04082.02532.01277.0069.02737.01471.04341.02171.01611.0068.03224.01357.04651.01757.01541.0044.03026.0084.04703.01137.01523.003.03055.0037.04858.0057.01817.002.03705.0041.05323.0041h.02894c.14689-.00056.266129.118727.265617.265617 0 .581729-.476593 1.058333-1.058334 1.058333h-.529683c-.14612.00056-.265033-.11743-.265617-.26355v-.03101c0-.0162.00025-.03296-.0016-.05116-.0018-.018-.0047-.03544-.0078-.05064-.0035-.0174-.0074-.03253-.01188-.04703-.0041-.0131-.01017-.02746-.01757-.04496-.0068-.0161-.01274-.03174-.01964-.04444-.0076-.0139-.01632-.02804-.02532-.04134-.008-.0118-.0181-.02341-.02945-.03721-.01084-.0131-.02051-.02412-.03101-.03462-.000003-.001-.000003-.0014 0-.0021-.01049-.0104-.02195-.02062-.03514-.03152-.0138-.0114-.02743-.02094-.03927-.02894-.01331-.0089-.02685-.01577-.04083-.02377-.01271-.0069-.02673-.01419-.04289-.02119-.01623-.0069-.03282-.01357-.04703-.01757-.01554-.0049-.03034-.0089-.04703-.01189-.01522-.003-.03261-.0058-.05064-.0078-.0181-.0018-.03439-.0021-.05064-.0021h-.06046c-.01115 0-.01438.00007-.01188 0h-.0021c-.01736.001-.03223.0021-.04858.0041-.01722.002-.03404.0048-.04909.0078-.01398.0032-.02975.0074-.04702.01344-.0166.0055-.03188.01157-.04496.01757-.01545.0068-.02994.01264-.04289.01964-.01309.0074-.02531.01632-.03876.02532-.01211.0084-.02429.01855-.03721.02945-.01221.0103-.02435.02001-.03514.03101-.01042.0107-.02129.02451-.03152.03721-.01193.0148-.02039.02671-.02739.03721s-.01642.02412-.02532.04082c-.0083.0157-.01382.03071-.01912.04341-.006.0146-.01132.02884-.01602.04444-.0045.0145-.008.03013-.01137.04703-.0034.0172-.0063.03359-.0078.04909-.0016.0155-.0021.03204-.0021.05064v.03101c-.000303.14632-.119298.264627-.265617.264067h-.793079c-.146319.00056-.265314-.117747-.265617-.264067v-.03101c0-.0162-.000267-.03244-.0021-.05064-.0018-.018-.0047-.03596-.0078-.05116-.0036-.0174-.0069-.03201-.01137-.04651-.0041-.0131-.01017-.02746-.01757-.04496-.0068-.0161-.0148-.03216-.0217-.04496-.0076-.0139-.01425-.02804-.02325-.04134-.008-.0118-.01811-.02289-.02946-.03669-.01084-.0131-.0205-.02464-.03101-.03514-.000003-.001-.000003-.0014 0-.0021-.01049-.0104-.02402-.02062-.03721-.03152-.0138-.0114-.02538-.02094-.03721-.02894-.01331-.0089-.02684-.01577-.04082-.02377-.01271-.0069-.0288-.01419-.04496-.02119-.01623-.0069-.03075-.01357-.04496-.01757-.01554-.0049-.03034-.0089-.04703-.01189-.01522-.003-.03261-.0063-.05064-.0083-.0181-.0018-.03491-.0021-.05116-.0021h-.06046c-.01114 0-.01594.00007-.01344 0-.01735.001-.03429.0021-.05064.0041-.01723.002-.03198.0053-.04703.0083-.01397.0032-.02976.0074-.04703.01344-.0166.0055-.03188.01209-.04496.01809-.01545.0068-.02994.01212-.04289.01912-.01309.0074-.02582.01632-.03927.02532-.01211.0084-.02377.01804-.03669.02894-.01221.0103-.02435.02052-.03514.03152-.01042.0107-.02129.02399-.03152.03669-.01193.0148-.02246.02671-.02946.03721s-.01435.02464-.02325.04134c-.0083.0157-.01434.03019-.01964.04289-.0061.0146-.01287.02936-.01757.04496-.0045.0145-.008.02961-.01137.04651-.0034.0172-.0047.03359-.0062.04909s-.0036.03204-.0036.05064v.03101c-.000302.14571-.118352.263767-.264066.264067h-.794784c-.145511-.00058-.263248-.118557-.263549-.264067v-.03101c0-.0162-.000267-.03244-.0021-.05064-.0018-.018-.0047-.03596-.0078-.05116-.0035-.0174-.0074-.03201-.01189-.04651-.0041-.0131-.01017-.02746-.01757-.04496-.0068-.0161-.01429-.03226-.02119-.04496-.0076-.0139-.01632-.02752-.02532-.04082-.008-.0118-.01604-.02341-.02739-.03721-.01084-.0131-.02257-.02464-.03307-.03514-.000003-.001-.000003-.0014 0-.0021-.01049-.0104-.02195-.02011-.03514-.03101-.0138-.0114-.02538-.02146-.03721-.02946-.01331-.009-.02736-.01525-.04134-.02325-.01271-.0069-.0288-.0147-.04496-.0217-.01623-.0069-.03075-.01357-.04496-.01757-.01554-.0049-.02982-.0089-.04651-.01189-.01522-.003-.03313-.0058-.05116-.0078-.0181-.0018-.03646-.0021-.05271-.0021h-.0584c-.01114 0-.01594.00007-.01344 0-.01735.001-.03481.0021-.05116.0041-.01723.002-.03353.0048-.04858.0078-.01397.0032-.02769.008-.04496.01395-.0166.0055-.03188.01157-.04496.01757-.01545.0068-.02994.01264-.04289.01964-.01309.0074-.02737.01632-.04082.02532-.01211.0084-.02429.01804-.03721.02894-.01221.0103-.02228.02052-.03307.03152-.01042.0107-.02129.02451-.03152.03721-.01193.0148-.02246.02619-.02946.03669s-.01435.02464-.02325.04134c-.0083.0157-.0164.03019-.0217.04289-.0061.0146-.0108.02936-.0155.04496-.0045.0145-.008.03013-.01137.04703-.0035.0172-.0068.03308-.0083.04858s-.0016.03204-.0016.05064v.03152c-.000582.14551-.118551.26325-.264066.26355h-.794784c-.145313-.00058-.262969-.11824-.26355-.26355v-.03152c0-.0162-.0023-.03244-.0041-.05064-.0019-.0181-.0026-.03534-.0057-.05064-.0035-.0174-.0095-.03253-.01395-.04703-.0041-.0131-.0081-.02746-.0155-.04496-.0068-.0161-.01429-.03226-.02119-.04496-.0076-.0139-.01632-.02752-.02532-.04082-.008-.0118-.01604-.02341-.02739-.03721-.01084-.0131-.02309-.02464-.03359-.03514-.000003-.001-.000003-.0014 0-.0021-.01049-.0104-.02195-.02011-.03514-.03101-.0138-.0114-.02486-.02146-.03669-.02946-.01331-.009-.02943-.01525-.04341-.02325-.01271-.0069-.02673-.0147-.04289-.0217-.01623-.0069-.03075-.01357-.04496-.01757-.01553-.0044-.03188-.0084-.04858-.01137-.01522-.003-.03106-.0063-.04909-.0083-.0181-.0018-.03647-.0021-.05271-.0021h-.05839c-.01115 0-.01645.00007-.01395 0-.01735.001-.03429.0021-.05064.0041-.01723.002-.03353.0048-.04858.0078-.01397.0032-.02976.008-.04703.01395-.0166.0055-.03188.01157-.04496.01757-.01545.0068-.02787.01264-.04082.01964-.0131.0074-.02789.01632-.04134.02532-.01211.0083-.0243.01855-.03721.02945-.01221.0103-.02228.01991-.03307.03101-.01042.0107-.02284.02451-.03307.03721-.01193.0148-.02039.02671-.02739.03721s-.01436.02412-.02326.04082c-.0083.0157-.0164.03019-.0217.04289-.006.0146-.0108.02936-.0155.04496-.0044.0145-.0085.03013-.01189.04703-.0034.0172-.0063.03318-.0078.04858-.0016.0155-.0021.03204-.0021.05064v.03152c-.000584.14612-.119497.26411-.265617.26355h-.526787c-.581739 0-1.05885-.476604-1.05885-1.058333.000296-.14552.118034-.263487.26355-.264067h.02946c.01618 0 .03454-.0021.05271-.0041.01803-.002.03542-.0027.05064-.0057.01676-.0039.03162-.0069.04703-.01189.01427-.0044.02885-.01057.04496-.01757.01604-.0068.0322-.01419.04496-.02119.01398-.0076.02751-.01632.04082-.02532.01189-.008.02346-.01609.03721-.02739.01315-.0108.02462-.02309.03514-.03359.0105-.0104.02276-.02152.03359-.03462.01135-.0137.02094-.02541.02894-.03721.009-.0133.01617-.02734.02377-.04134.0069-.0127.01439-.02834.02119-.04444.0068-.0162.01317-.03076.01757-.04496.0048-.0154.0085-.03239.01188-.04909.0031-.0152.006-.03058.0078-.04858.0019-.0181.0021-.03651.0021-.05271v-.05891c0-.0162-.000267-.03451-.0021-.05271-.0018-.018-.0047-.03338-.0078-.04858-.0035-.0174-.0074-.03408-.01188-.04858-.0041-.0131-.01017-.02746-.01757-.04496-.0068-.0161-.01429-.03277-.02119-.04547-.0076-.014-.01477-.02752-.02377-.04082-.008-.0118-.01759-.02289-.02894-.03669-.01083-.0131-.02308-.02464-.03359-.03514-.01049-.0105-.02195-.02269-.03514-.03359-.01379-.0113-.02537-.01887-.03721-.02687-.01332-.009-.02684-.01732-.04082-.02532-.01271-.0069-.0288-.0147-.04496-.0217-.01623-.0069-.03075-.01409-.04496-.01809-.01553-.0049-.03034-.0089-.04703-.01189-.01522-.003-.03261-.0058-.05064-.0078-.0181-.0018-.03646-.0021-.05271-.0021h-.02946c-.145313-.00058-.262969-.11824-.26355-.26355v-.7953c.000581-.14531.118237-.26297.26355-.26355h.02946c.01618 0 .03454-.0021.05271-.0041.01803-.002.03542-.0027.05064-.0057.01676-.0034.03162-.009.04703-.01395.01427-.0044.02885-.0085.04496-.0155.01604-.0068.0322-.0147.04496-.0217.01398-.0076.02751-.01632.04082-.02532.01189-.008.02346-.01609.03721-.02739.01315-.0108.02462-.02257.03514-.03307.0105-.0105.02276-.02204.03359-.03514.01135-.0138.02094-.02747.02894-.03927.009-.0133.01617-.02682.02377-.04082.0069-.0127.01439-.02679.02119-.04289.0068-.0162.01317-.03282.01757-.04702.0048-.0155.0085-.03033.01188-.04703.0031-.0152.006-.03058.0078-.04858.0019-.0181.0021-.03651.0021-.05271v-.06046c0-.0162-.000267-.03244-.0021-.05064-.0018-.018-.0047-.03596-.0078-.05116-.0035-.0174-.0074-.03201-.01188-.04651-.0041-.0131-.01017-.02746-.01757-.04496-.0068-.0161-.01429-.03216-.02119-.04496-.0076-.0139-.01477-.02804-.02377-.04134-.008-.0118-.01759-.02289-.02894-.03669-.01083-.0131-.02308-.02464-.03359-.03514-.000003-.001-.000003-.0014 0-.0021-.01049-.0104-.02195-.02062-.03514-.03152-.01379-.0114-.02537-.02094-.03721-.02894-.01332-.0089-.02684-.01577-.04082-.02377-.01271-.0069-.0288-.01419-.04496-.02119-.01623-.0069-.03075-.01357-.04496-.01757-.01553-.0049-.03034-.0089-.04703-.01188-.01522-.003-.03261-.0058-.05064-.0078-.0181-.0018-.03646-.0021-.05271-.0021h-.02946c-.146121-.00013-.264109-.119047-.26355-.265167v-.793233c.000581-.14531.118237-.26297.26355-.26355h.02946c.01618 0 .03454-.0021.05271-.0041.01803-.002.03542-.0053.05064-.0083.01676-.0039.03162-.0069.04703-.01189.01427-.0044.02885-.01057.04496-.01757.01604-.0067.0322-.01264.04496-.01964.01398-.0076.02751-.01632.04082-.02532.01189-.008.02346-.01712.03721-.02842.01315-.0108.02462-.02102.03514-.03152.0105-.0104.02276-.02204.03359-.03514.01135-.0138.02094-.02696.02894-.03876.009-.0133.01617-.02734.02377-.04134.0069-.0127.01439-.02679.02119-.04289.0068-.0162.01317-.03283.01757-.04703.0048-.0155.0085-.02981.01188-.04651.0031-.0152.006-.03109.0078-.04909.0019-.0181.0021-.03651.0021-.05271v-.06046c0-.0162-.000267-.03244-.0021-.05064-.0018-.018-.0047-.03596-.0078-.05116-.0035-.0174-.0074-.03201-.01188-.04651-.0041-.0132-.01017-.02953-.01757-.04703-.0068-.0161-.01429-.03019-.02119-.04289-.0076-.0139-.01477-.02804-.02377-.04134-.008-.0119-.01759-.02496-.02894-.03876-.01083-.0131-.02308-.02464-.03359-.03514-.01049-.0104-.02195-.02062-.03514-.03152-.01379-.0114-.02537-.02094-.03721-.02894-.01332-.009-.02684-.01784-.04082-.02584-.01271-.0069-.0288-.01212-.04496-.01912-.01623-.0069-.03075-.01357-.04496-.01757-.01553-.0049-.03034-.0089-.04703-.01188-.01522-.003-.03261-.0063-.05064-.0083-.0181-.0023-.03646-.0016-.05271-.0016h-.02946c-.146121-.0005-.264109-.119417-.26355-.265537v-.793233c-.000559-.14612.117429-.265037.26355-.265617h.02946c.01618 0 .03454-.000067.05271-.0021.01803-.002.03542-.0053.05064-.0083.01676-.0039.03162-.0069.04703-.01189.01427-.0044.02885-.01057.04496-.01757.01604-.0067.0322-.01264.04496-.01964.01398-.0076.02751-.01632.04082-.02532.01189-.008.02346-.01816.03721-.02946.01315-.0108.02462-.02051.03514-.03101.0105-.0104.02276-.02204.03359-.03514.01135-.0138.02094-.02696.02894-.03876.009-.0133.01617-.02734.02377-.04134.0069-.0127.01439-.02679.02119-.04289.0068-.0162.01317-.03283.01757-.04703.0048-.0155.0085-.03033.01188-.04703.0031-.0153.006-.03264.0078-.05064.0019-.0183.0021-.03444.0021-.05064v-.06046c0-.0162-.000267-.03461-.0021-.05271-.0018-.018-.0047-.03379-.0078-.04909-.0035-.0174-.0074-.03408-.01188-.04858-.0041-.0131-.01017-.02746-.01757-.04496-.0068-.0161-.01429-.03019-.02119-.04289-.0076-.014-.01477-.02804-.02377-.04134-.008-.0119-.01759-.02496-.02894-.03876-.01083-.0131-.02308-.02464-.03359-.03514-.01049-.0104-.02195-.02062-.03514-.03152-.01379-.0114-.02537-.02094-.03721-.02894-.01332-.009-.02684-.01784-.04082-.02584-.01271-.0069-.0288-.01212-.04496-.01912-.01623-.0069-.03075-.01357-.04496-.01757-.01553-.0049-.03034-.0089-.04703-.01189-.01522-.003-.03261-.0058-.05064-.0078-.0181-.002-.03646-.0041-.05271-.0041h-.02946c-.145313-.00058-.262969-.11824-.26355-.263549v-.793234c-.000559-.146119.117429-.265036.26355-.265616h.02946c.01618 0 .03454-.000068.05271-.0021.01803-.002.03542-.0048.05064-.0078.01676-.0039.03162-.0069.04703-.01189.01427-.0044.02885-.01057.04496-.01757.01604-.0068.0322-.0147.04496-.0217.01398-.0075.02751-.01425.04082-.02325.01189-.008.02346-.01816.03721-.02946.01315-.0108.02462-.0205.03514-.03101-.000003-.001-.000003-.0014 0-.0021.0105-.0104.02276-.02204.03359-.03514.01135-.0138.02094-.02541.02894-.03721.009-.0133.01617-.02682.02377-.04082.0069-.0127.01439-.02886.02119-.04496.0068-.0162.01317-.03076.01757-.04496.0048-.0155.0085-.02981.01188-.04651.0031-.0154.006-.03316.0078-.05116.0019-.0182.0021-.03444.0021-.05064v-.06046c0-.0162-.000267-.03461-.0021-.05271-.0018-.018-.0047-.03389-.0078-.04909-.0035-.0174-.0074-.03459-.01188-.04909-.0041-.0131-.01017-.02746-.01757-.04496-.0068-.0161-.01429-.03009-.02119-.04289-.0076-.014-.01477-.02752-.02377-.04082-.008-.0119-.01759-.02547-.02894-.03927-.01083-.0132-.02308-.02464-.03359-.03514-.01049-.0105-.02195-.02217-.03514-.03307-.01379-.0113-.02537-.01939-.03721-.02739-.01332-.009-.02684-.01732-.04082-.02532-.01271-.0069-.0288-.0147-.04496-.0217-.01623-.0065-.03075-.0115-.04496-.0155-.01553-.005-.03034-.01095-.04703-.01395-.01522-.003-.03261-.0037-.05064-.0057-.0181-.002-.03646-.0041-.05271-.0041h-.02946c-.145313-.00058-.262969-.11824-.26355-.26355 0-.58174.477115-1.05885 1.05885-1.05885h.527099c.146124-.00056.265033.11743.265617.26355v.03152c0 .0162.000267.03254.0021.05064.0018.018.0047.03544.0078.05064.0034.0167.0071.03153.01189.04703.0044.0142.01077.03083.01757.04702.0068.0161.01429.03019.02119.04289.0076.0139.01477.02804.02377.04134.008.0119.01759.02496.02894.03876.01084.0131.02309.02464.03359.03514.01052.0105.022.02072.03514.03152.01376.0114.02533.02042.03721.02842.0133.009.02684.01732.04082.02532.01276.0069.02892.01264.04496.01964.01611.0068.03069.01357.04496.01757.0154.0049.02975.0089.04651.01189.01522.003.03313.0063.05116.0083.01817.0018.03653.0021.05271.0021h.05839c.01617 0 .03454-.000067.05271-.0021.01803-.002.03387-.0053.04909-.0083.01676-.0039.03317-.0069.04858-.01189.01427-.0044.02885-.01057.04496-.01757.01604-.0067.03013-.01264.04289-.01964.01398-.0076.02958-.01632.04289-.02532.01188-.008.02345-.01712.03721-.02842.01315-.0108.02462-.02102.03514-.03152.0105-.0104.02223-.02204.03307-.03514.01134-.0138.01939-.02696.02739-.03876.009-.0133.01824-.02734.02584-.04134.0069-.0127.01439-.02679.02119-.04289.0068-.0162.0111-.03282.0155-.04702.0047-.0155.01055-.03033.01395-.04703.0031-.0153.0039-.03264.0057-.05064.0018-.0182.0041-.03444.0041-.05064v-.03152c.000581-.14531.118237-.26297.26355-.26355h.794784c.145292.00061.262969.11826.26355.26355v.03152c0 .0162.0023.03254.0041.05064.0018.018.0026.03544.0057.05064.0034.0167.0092.03153.01395.04703.0044.0142.0087.03083.0155.04702.0068.0161.0148.03019.0217.04289.0076.0139.01632.02804.02532.04134.008.0119.01604.02496.02739.03876.01083.0131.02257.02464.03307.03514.01052.0105.022.02072.03514.03152.01376.0114.02532.02042.03721.02842.01331.009.02684.01732.04082.02532.01277.0069.02892.01264.04496.01964.01611.0068.03069.01357.04496.01757.01541.0049.03233.0089.04909.01189.01523.003.03055.0063.04858.0083.01817.0018.03653.0021.05271.0021h.0584c.01618 0 .03454-.000067.05271-.0021.01803-.002.03594-.0053.05116-.0083.01676-.0039.0311-.0069.04651-.01189.01427-.0044.02885-.01057.04496-.01757.01604-.0067.0322-.01264.04496-.01964.01398-.0076.02803-.01632.04134-.02532.01189-.008.02345-.01712.03721-.02842.01314-.0108.02462-.02102.03514-.03152.0105-.0104.02223-.02204.03307-.03514.01135-.0138.01939-.02696.02739-.03876.009-.0133.01772-.02734.02532-.04134.0069-.0127.01439-.02679.02119-.04289.0068-.0162.01317-.03282.01757-.04702.0048-.0155.0085-.03033.01189-.04703.0031-.0153.006-.03264.0078-.05064.0019-.0182.0021-.03444.0021-.05064v-.03152c.000301-.14551.118038-.263487.263549-.264067zm-3.703133 1.8526v9.525h8.202083v-9.525zm4.630725 2.380733c.952762 0 1.719792.767023 1.719792 1.719792 0 .05325-.0031.105613-.0078.157613.609002.11903 1.066085.652726 1.066085 1.297595 0 .732899-.590022 1.322917-1.322916 1.322917h-3.677812-.555522-.132291c-.659609 0-1.190625-.531026-1.190625-1.190625 0-.619179.469832-1.11904 1.072802-1.178739-.0075-.04728-.01447-.09478-.01447-.144178 0-.513029.413012-.926041.926042-.926041.17612 0 .338644.05121.478523.135909.22114-.69409.86888-1.194243 1.638143-1.194243z" fill="#fff" fill-opacity=".3029"/><path d="m16.138555 277.6849c-.145512.00058-.263249.11855-.26355.26406v.0315c0 .0162-.000238.0324-.0021.0506-.0018.018-.0047.0353-.0078.0506-.0034.0167-.0071.0315-.01188.047-.0044.0142-.01075.0308-.01757.047-.0068.0161-.0143.0302-.02119.0429-.0076.014-.01633.028-.02532.0413-.008.0118-.01604.025-.02739.0388-.01084.0131-.02257.0247-.03307.0351-.01052.0105-.022.0207-.03514.0315-.01376.0113-.02532.0209-.03721.0289-.01331.009-.02736.0177-.04134.0253-.01276.007-.02892.0129-.04496.0196-.01611.007-.03069.0132-.04496.0176-.01541.005-.02975.008-.04651.0119-.01522.003-.03313.006-.05116.008-.01817.002-.03653.002-.05271.002h-.05839c-.01618 0-.03454-.00019-.05271-.002-.01803-.002-.03335-.005-.04858-.008-.01676-.003-.03368-.007-.04909-.0119-.01427-.004-.02885-.0108-.04496-.0176-.01604-.007-.03219-.0127-.04496-.0196-.01398-.008-.02751-.0163-.04082-.0253-.01189-.008-.02345-.0175-.03721-.0289-.01314-.0108-.02462-.021-.03514-.0315-.0105-.0105-.02224-.022-.03307-.0351-.01135-.0138-.01941-.0269-.02739-.0388-.009-.0133-.01775-.0274-.02532-.0413-.0069-.0127-.01492-.0268-.0217-.0429-.0068-.0162-.0111-.0328-.0155-.047-.0048-.0155-.01055-.0303-.01395-.047-.0031-.0152-.0039-.0326-.0057-.0506-.0018-.0181-.0041-.0344-.0041-.0506v-.0315c-.000581-.14529-.118203-.26294-.263495-.26355h-.79478c-.145313.00058-.262969.11824-.26355.26355v.0315c0 .0162-.0023.0324-.0041.0506-.0018.018-.0026.0353-.0057.0506-.0034.0167-.0092.0315-.01395.047-.0044.0142-.0087.0308-.0155.047-.0068.0161-.01431.0302-.02119.0429-.0076.014-.01685.028-.02584.0413-.008.0118-.01605.025-.02739.0388-.01084.0131-.02257.0247-.03307.0351-.01052.0105-.02199.0207-.03514.0315-.01376.0113-.02533.0209-.03721.0289-.01331.009-.02891.0177-.04289.0253-.01276.007-.02685.0129-.04289.0196-.01611.007-.03069.0132-.04496.0176-.01541.005-.03182.008-.04858.0119-.01522.003-.03106.006-.04909.008-.01817.002-.03654.002-.05271.002h-.05839c-.01618 0-.03454-.00019-.05271-.002-.01803-.002-.03594-.005-.05116-.008-.01676-.003-.03111-.007-.04651-.0119-.01427-.004-.02885-.0108-.04496-.0176-.01604-.007-.0322-.0127-.04496-.0196-.01399-.008-.02752-.0163-.04082-.0253-.01188-.008-.02345-.0175-.03721-.0289-.01314-.0108-.02462-.021-.03514-.0315-.0105-.0105-.02275-.022-.03359-.0351-.01135-.0138-.02095-.0269-.02894-.0388-.009-.0133-.0162-.0274-.02377-.0413-.0069-.0127-.0144-.0268-.02119-.0429-.0068-.0162-.01317-.0328-.01757-.047-.0048-.0155-.0085-.0303-.01189-.047-.0031-.0152-.006-.0326-.0078-.0506-.0018-.0181-.0021-.0344-.0021-.0506v-.0315c-.000584-.14612-.119504-.26411-.265628-.26355h-.5271c-.581735 0-1.05885.47711-1.05885 1.05885.000581.14531.118237.26297.26355.26355h.02946c.01625 0 .03461.002.05271.004.01803.002.03542.003.05064.006.01669.003.03149.009.04702.014.01421.004.02873.009.04496.0155.01616.007.03225.0148.04496.0217.01398.008.0275.0163.04082.0253.01184.008.02342.0161.03721.0274.01319.0109.02465.0226.03514.0331.01051.0105.02276.0219.03359.0351.01135.0138.02096.0274.02894.0393.009.0133.0162.0268.02377.0408.0069.0128.0144.0268.02119.0429.0074.0175.01349.0319.01757.045.0045.0145.0084.0317.01189.0491.0031.0152.006.0306.0078.0486.0018.0181.0021.0365.0021.0527v.0605c0 .0162-.000188.0325-.0021.0507-.0018.018-.0047.0358-.0078.0512-.0034.0167-.0071.031-.01189.0465-.0044.0142-.01075.0288-.01757.045-.0068.0161-.0143.0323-.02119.045-.0076.014-.01478.0275-.02377.0408-.008.0118-.01759.0234-.02894.0372-.01083.0131-.02309.0247-.03359.0351-.000003.00067-.000003.001 0 .002-.01052.0105-.02199.0202-.03514.031-.01375.0113-.02532.0215-.03721.0295-.01331.009-.02684.0157-.04082.0232-.01276.007-.02892.0149-.04496.0217-.01611.007-.03069.0132-.04496.0176-.01541.005-.03026.008-.04702.0119-.01522.003-.03261.006-.05064.008-.01817.002-.03653.002-.05271.002h-.02946c-.146121.00058-.264109.1195-.26355.26562v.79323c.000581.14531.118237.26297.26355.26355h.02946c.01625 0 .03461.002.05271.004.01803.002.03542.005.05064.008.01669.003.03149.007.04702.0119.01421.004.02873.0107.04496.0176.01616.007.03225.0122.04496.0191.01398.008.0275.0168.04082.0258.01184.008.02342.0175.03721.0289.01319.0109.02465.0211.03514.0315.01051.0105.02276.022.03359.0351.01135.0138.02096.0269.02894.0388.009.0133.0162.0273.02377.0413.0069.0127.0144.0268.02119.0429.0074.0175.01349.0319.01757.045.0045.0145.0084.0312.01189.0486.0031.0153.006.0311.0078.0491.0018.0181.0021.0365.0021.0527v.0605c0 .0162-.000188.0324-.0021.0507-.0018.018-.0047.0353-.0078.0506-.0034.0167-.0071.0315-.01189.047-.0044.0142-.01075.0308-.01757.047-.0068.0161-.0143.0302-.02119.0429-.0076.014-.01478.028-.02377.0413-.008.0118-.01759.025-.02894.0388-.01083.0131-.02309.0247-.03359.0351-.01052.0105-.02199.0202-.03514.031-.01375.0113-.02532.0215-.03721.0295-.01331.009-.02684.0177-.04082.0253-.01276.007-.02892.0129-.04496.0196-.01611.007-.03069.0132-.04496.0176-.01541.005-.03026.008-.04702.0119-.01522.003-.03261.006-.05064.008-.01817.002-.03653.002-.05271.002h-.02946c-.146121.00058-.264109.1195-.26355.26562v.79323c-.000559.14612.117429.26504.26355.26562h.02946c.01625 0 .03461-.00032.05271.002.01803.002.03542.005.05064.008.01669.003.03149.007.04702.0119.01421.004.02873.0107.04496.0176.01616.007.03225.0122.04496.0191.01398.008.0275.0168.04082.0258.01184.008.02342.0175.03721.0289.01319.0109.02465.0211.03514.0315.01051.0105.02276.022.03359.0351.01135.0138.02096.0269.02894.0388.009.0133.0162.0274.02377.0413.0069.0127.0144.0268.02119.0429.0074.0175.01349.0338.01757.047.0045.0145.0084.0291.01189.0465.0031.0152.006.0332.0078.0512.0018.0182.0021.0344.0021.0506v.0605c0 .0162-.000188.0346-.0021.0527-.0018.018-.0047.0339-.0078.0491-.0034.0167-.0071.031-.01189.0465-.0044.0142-.01075.0308-.01757.047-.0068.0161-.0143.0302-.02119.0429-.0076.014-.01478.028-.02377.0413-.008.0118-.01759.025-.02894.0388-.01083.0131-.02309.0247-.03359.0351-.01052.0105-.02199.0207-.03514.0315-.01375.0113-.02532.0209-.03721.0289-.01331.009-.02684.0177-.04082.0253-.01276.007-.02892.0129-.04496.0196-.01611.007-.03069.0132-.04496.0176-.01541.005-.03026.008-.04702.0119-.01522.003-.03261.006-.05064.008-.01817.002-.03653.004-.05271.004h-.02946c-.145313.00058-.262969.11824-.26355.26355v.79323c-.000559.14612.117429.26504.26355.26562h.02946c.01625 0 .03461.0002.05271.002.01803.002.03542.005.05064.008.01669.003.03149.007.04702.0119.01421.004.02873.0107.04496.0176.01616.007.03225.0143.04496.0212.01398.008.0275.0149.04082.0238.01184.008.02342.0175.03721.0289.01319.0109.02465.0211.03514.0315-.000003.00067-.000003.001 0 .002.01051.0105.02276.022.03359.0351.01135.0138.02096.0249.02894.0367.009.0133.0162.0274.02377.0413.0069.0128.0144.0289.02119.045.0074.0175.01349.0319.01757.045.0045.0145.0084.0291.01189.0465.0031.0152.006.0332.0078.0512.0018.0182.0021.0344.0021.0506v.0605c0 .0162-.000188.0346-.0021.0527-.0018.018-.0047.0334-.0078.0486-.0034.0167-.0071.0315-.01189.047-.0044.0142-.01075.0308-.01757.047-.0068.0161-.0143.0302-.02119.0429-.0076.014-.01478.0275-.02377.0408-.008.0118-.01759.0255-.02894.0393-.01083.0131-.02309.0246-.03359.0351-.01052.0105-.02199.0223-.03514.0331-.01375.0113-.02532.0194-.03721.0274-.01331.009-.02684.0177-.04082.0253-.01276.007-.02892.0149-.04496.0217-.01611.007-.03069.0111-.04496.0155-.01541.005-.03026.0105-.04702.0139-.01522.003-.03261.004-.05064.006-.01817.002-.03653.004-.05271.004h-.02946c-.145313.00058-.262969.11824-.26355.26355v.7953c.000581.14531.118237.26297.26355.26355h.02946c.01625 0 .03461.0002.05271.002.01803.002.03542.005.05064.008.01669.003.03149.007.04702.0119.01421.004.02873.0107.04496.0176.01616.007.03225.0148.04496.0217.01398.008.0275.0163.04082.0253.01184.008.02342.0156.03721.0269.01319.0109.02465.0231.03514.0336.01051.0105.02276.022.03359.0351.01135.0138.02096.0249.02894.0367.009.0133.0162.0273.02377.0413.0069.0127.0144.0289.02119.045.0074.0175.01349.0319.01757.045.0045.0145.0084.0312.01189.0486.0031.0152.006.0306.0078.0486.0018.0182.0021.0365.0021.0527v.0589c0 .0162-.000188.0346-.0021.0527-.0018.018-.0047.0334-.0078.0486-.0034.0167-.0071.0337-.01189.0491-.0044.0142-.01075.0288-.01757.045-.0068.0161-.0143.0317-.02119.0444-.0076.014-.01478.028-.02377.0413-.008.0118-.01759.0235-.02894.0372-.01083.0131-.02309.0242-.03359.0346-.01052.0105-.02199.0228-.03514.0336-.01375.0113-.02532.0194-.03721.0274-.01331.009-.02684.0177-.04082.0253-.01276.007-.02892.0144-.04496.0212-.01611.007-.03069.0132-.04496.0176-.01541.005-.03026.008-.04702.0119-.01522.003-.03261.004-.05064.006-.01817.002-.03653.004-.05271.004h-.02946c-.145516.00058-.263254.11855-.26355.26407 0 .58173.477111 1.05833 1.05885 1.05833h.5271c.14612.00056.265033-.11743.265617-.26355v-.0315c0-.0186.000487-.0351.0021-.0506.0015-.0154.0044-.0314.0078-.0486.0034-.0169.0075-.0325.01189-.047.0047-.0156.0095-.0304.0155-.045.0053-.0127.01336-.0272.0217-.0429.0089-.0167.01628-.0303.02325-.0408.007-.0105.01546-.0224.02739-.0372.01023-.0127.02265-.0265.03307-.0372.01079-.0111.02086-.0207.03307-.031.01291-.0109.0251-.0211.03721-.0294.01345-.009.02824-.0179.04134-.0253.01295-.007.02537-.0128.04082-.0196.01308-.006.02836-.0121.04496-.0176.01727-.006.03305-.0107.04702-.0139.01505-.003.03135-.006.04858-.008.01635-.002.03329-.003.05064-.004-.0025.00007.0028 0 .01395 0h.05839c.01624 0 .03461.0002.05271.002.01803.002.03387.005.04909.008.0167.003.03305.007.04858.0114.01421.004.02873.0107.04496.0176.01616.007.03018.0148.04289.0217.01398.008.0301.0143.04341.0233.01183.008.02289.0181.03669.0295.01319.0109.02465.0206.03514.031-.000003.00067-.000003.001 0 .002.0105.0105.02275.022.03359.0351.01135.0138.01941.0254.02739.0372.009.0133.01776.0269.02532.0408.0069.0127.0144.0289.02119.045.0074.0175.01142.0319.0155.045.0045.0145.01041.0296.01395.047.0031.0153.0038.0326.0057.0507.0018.0182.0041.0344.0041.0506v.0315c.000581.14531.118237.26297.26355.26355h.794784c.145515-.0003.263485-.11804.264067-.26355v-.0315c0-.0186.00002-.0351.0015-.0506.0015-.0155.0048-.0314.0083-.0486.0034-.0169.0069-.0325.01137-.047.0047-.0156.0094-.0304.0155-.045.0053-.0127.01337-.0272.0217-.0429.0089-.0167.01629-.0308.02325-.0413.007-.0105.01753-.0219.02946-.0367.01023-.0127.0211-.0265.03152-.0372.01079-.011.02086-.0212.03307-.0315.01292-.0109.0251-.0205.03721-.0289.01345-.009.02773-.0179.04082-.0253.01295-.007.02744-.0128.04289-.0196.01308-.006.02836-.0121.04496-.0176.01727-.006.03099-.0107.04496-.0139.01505-.003.03135-.006.04858-.008.01635-.002.03381-.003.05116-.004-.0025.00007.0023 0 .01344 0h.05839c.01625 0 .03461.0002.05271.002.01803.002.03594.005.05116.008.01669.003.03097.007.04651.0119.01421.004.02873.0107.04496.0176.01616.007.03225.0148.04496.0217.01398.008.02803.0143.04134.0233.01183.008.02341.0181.03721.0295.01319.0109.02465.0206.03514.031-.000003.00067-.000003.001 0 .002.0105.0105.02223.022.03307.0351.01135.0138.0194.0254.02739.0372.009.0133.01775.0269.02532.0408.0069.0127.0144.0289.02119.045.0074.0175.0135.0319.01757.045.0045.0145.0084.0291.01188.0465.0031.0152.0059.0332.0077.0512.0018.0182.0021.0344.0021.0506v.031c.000301.14551.118038.26348.26355.26406h.794784c.145714-.0003.263765-.11835.264067-.26406v-.031c0-.0186.0021-.0351.0036-.0506s.0028-.0319.0062-.0491c.0034-.0169.0069-.032.01137-.0465.0047-.0156.01152-.0304.01757-.045.0053-.0127.0113-.0272.01964-.0429.0089-.0167.01629-.0308.02325-.0413.007-.0105.01753-.0224.02946-.0372.01023-.0127.0211-.026.03152-.0367.01079-.011.02293-.0212.03514-.0315.01292-.0109.02458-.0205.03669-.0289.01345-.009.02618-.0184.03927-.0258.01295-.007.02744-.0123.04289-.0191.01308-.006.02836-.0121.04496-.0176.01727-.006.03306-.0107.04703-.0139.01505-.003.0298-.006.04703-.008.01635-.002.03329-.003.05064-.004-.0025.00007.0023 0 .01344 0h.06046c.01625 0 .03306.0002.05116.002.01803.002.03542.005.05064.008.01669.003.03149.007.04703.0119.01421.004.02873.0107.04496.0176.01616.007.03225.0143.04496.0212.01398.008.02751.0149.04082.0238.01183.008.02341.0175.03721.0289.01319.0109.02672.0211.03721.0315-.000003.00067-.000003.001 0 .002.0105.0105.02017.022.03101.0351.01135.0138.02147.0249.02946.0367.009.0133.01569.0274.02325.0413.0069.0128.01492.0289.0217.045.0074.0175.0135.0319.01757.045.0045.0145.0078.0291.01137.0465.0031.0152.0059.0332.0077.0512.0018.0182.0021.0344.0021.0506v.031c.000303.14632.119298.26462.265617.26406h.793234c.146319.00056.265314-.11774.265617-.26406v-.031c0-.0186.000537-.0351.0021-.0506.0015-.0155.0043-.0319.0077-.0491.0034-.0169.0069-.0325.01137-.047.0047-.0156.01-.0298.01602-.0444.0053-.0127.01078-.0277.01912-.0434.0089-.0167.01836-.0303.02532-.0408.007-.0105.01546-.0224.02739-.0372.01023-.0127.0211-.0265.03152-.0372.01079-.011.02293-.0207.03514-.031.01292-.0109.0251-.0211.03721-.0295.01345-.009.02567-.0179.03876-.0253.01295-.007.02744-.0128.04289-.0196.01308-.006.02836-.0121.04496-.0176.01727-.006.03305-.0102.04703-.0134.01505-.003.03187-.006.04909-.008.01635-.002.03122-.003.04858-.004h.0021c-.0025.00007.000739 0 .01189 0h.06046c.01625 0 .03254.0002.05064.002.01803.002.03542.005.05064.008.01669.003.03149.007.04703.0119.01421.004.0308.0107.04703.0176.01616.007.03018.0143.04289.0212.01398.008.02751.0149.04082.0238.01184.008.02547.0175.03927.0289.01319.0109.02465.0211.03514.0315-.000003.00067-.000003.001 0 .002.0105.0105.02017.0215.03101.0346.01135.0138.02147.0254.02946.0372.009.0133.01775.0274.02532.0413.0069.0127.01285.0283.01964.0444.0074.0175.0135.0319.01757.045.0045.0145.0084.0296.01189.047.0031.0152.0059.0326.0077.0506.0018.0182.0015.035.0015.0512v.031c.000584.14612.119497.26411.265617.26355h.529683c.581741 0 1.058334-.47661 1.058334-1.05834.000512-.14689-.118718-.26609-.265608-.26553h-.02894c-.01618 0-.03506-.002-.05323-.004-.01803-.002-.03335-.003-.04858-.006-.01676-.003-.03162-.007-.04703-.0114-.01427-.004-.0304-.0108-.04651-.0176-.01604-.007-.03064-.0148-.04341-.0217-.01398-.008-.02751-.0163-.04082-.0253-.01188-.008-.02552-.0161-.03927-.0274-.01314-.0108-.02462-.0226-.03514-.0331-.0105-.0105-.02224-.022-.03307-.0351-.01135-.0138-.0194-.0254-.02739-.0372-.009-.0133-.01775-.0268-.02532-.0408-.0069-.0127-.01441-.0289-.02119-.045-.0068-.0162-.01163-.0308-.01602-.045-.0048-.0155-.01004-.0324-.01344-.0491-.0031-.0152-.0039-.0306-.0057-.0486-.0018-.0181-.0041-.0365-.0041-.0527v-.0584c0-.0162.0023-.0346.0041-.0527.0018-.018.0026-.0339.0057-.0491.0035-.0174.009-.0341.01344-.0486.0041-.0132.0086-.0275.01602-.045.0068-.0161.01428-.0322.02119-.0449.0076-.014.01633-.0275.02532-.0408.008-.0118.01604-.0235.02739-.0372.01084-.0131.02257-.0247.03307-.0351.01049-.0105.02195-.0222.03514-.0331.0138-.0114.02744-.0195.03927-.0274.01331-.009.02684-.0177.04082-.0253.01271-.007.02725-.0149.04341-.0217.01563-.007.03066-.0133.04444-.0176.01553-.005.0324-.008.04909-.0119.01522-.003.03055-.006.04858-.008.0181-.002.03698-.002.05323-.002h.02894c.14612.00056.265033-.11743.265617-.26355v-.79478c-.00027-.14634-.119275-.26468-.265617-.26412h-.02894c-.01618 0-.03506-.002-.05323-.004-.01803-.002-.03335-.003-.04858-.006-.01676-.003-.03162-.009-.04703-.0139-.01427-.004-.0304-.009-.04651-.0155-.01604-.007-.03064-.0143-.04341-.0212-.01398-.008-.02751-.0163-.04082-.0253-.01188-.008-.02552-.0161-.03927-.0274-.01314-.0108-.02462-.0231-.03514-.0336-.0105-.0105-.02224-.0219-.03307-.0351-.01135-.0138-.0194-.0269-.02739-.0388-.009-.0133-.01775-.0273-.02532-.0413-.0069-.0127-.01441-.0268-.02119-.0429-.0068-.0162-.01163-.0328-.01602-.047-.0048-.0155-.01004-.0298-.01344-.0465-.0031-.0152-.0039-.0311-.0057-.0491-.0018-.0181-.0041-.0365-.0041-.0527v-.0605c0-.0162.0023-.0324.0041-.0506.0018-.018.0026-.0353.0057-.0506.0035-.0174.009-.0325.01344-.047.0041-.0131.0086-.0275.01602-.045.0068-.0161.01428-.0323.02119-.045.0076-.014.01633-.0275.02532-.0408.008-.0118.01604-.0234.02739-.0372.01084-.0131.02257-.0247.03307-.0351v-.00051-.00052-.00052-.00051c.01049-.0105.02195-.0202.03514-.031.0138-.0114.02744-.0215.03927-.0294.01331-.009.02684-.0158.04082-.0233.01271-.007.02725-.0149.04341-.0217.01563-.007.03066-.0133.04444-.0176.01553-.005.0324-.008.04909-.0119.01522-.003.03055-.006.04858-.008.0181-.002.03698-.002.05323-.002h.02894c.146925.00056.266173-.11869.265617-.26561v-.79272c-.000413-.14624-.119376-.26442-.265617-.26386h-.02894c-.01618 0-.03506-.002-.05323-.004-.01803-.002-.03335-.005-.04858-.008-.01676-.003-.03162-.007-.04703-.0119-.01427-.004-.0304-.0108-.04651-.0176-.01604-.007-.03064-.0122-.04341-.0191-.01398-.008-.02751-.0163-.04082-.0253-.01188-.008-.02552-.0182-.03927-.0295-.01314-.0108-.02462-.021-.03514-.0315-.0105-.0105-.02224-.0215-.03307-.0346-.01135-.0138-.0194-.0274-.02739-.0393-.009-.0133-.01775-.0268-.02532-.0408-.0069-.0127-.01441-.0273-.02119-.0434-.0068-.0162-.01163-.0323-.01602-.0465-.0048-.0155-.01004-.0303-.01344-.047-.0031-.0153-.0039-.0311-.0057-.0491-.0018-.0181-.0041-.0365-.0041-.0527v-.0605c0-.0162.0023-.0324.0041-.0506.0018-.018.0026-.0353.0057-.0506.0035-.0174.009-.0325.01344-.047.0041-.0131.0086-.0295.01602-.047.0068-.0161.01428-.0301.02119-.0429.0076-.014.01633-.028.02532-.0413.008-.0118.01604-.0249.02739-.0387.01084-.0131.02257-.0247.03307-.0351.01049-.0105.02195-.0207.03514-.0315.0138-.0114.02744-.0209.03927-.0289.01331-.009.02684-.0177.04082-.0253.01271-.007.02725-.0128.04341-.0196.01563-.007.03066-.0132.04444-.0176.01553-.005.0324-.008.04909-.0119.01522-.003.03055-.006.04858-.008.0181-.002.03698-.002.05323-.002h.02894c.146925.00056.266173-.11869.265617-.26561v-.79324c.000584-.14694-.118672-.26622-.265617-.26566h-.02894c-.01618 0-.03506-.00019-.05323-.002-.01803-.002-.03335-.005-.04858-.008-.01676-.003-.03162-.007-.04703-.0119-.01427-.004-.0304-.0108-.04651-.0176-.01604-.007-.03064-.0122-.04341-.0191-.01398-.008-.02751-.0168-.04082-.0258-.01188-.008-.02552-.0175-.03927-.0289-.01314-.0108-.02462-.021-.03514-.0315-.0105-.0105-.02224-.022-.03307-.0351-.01135-.0138-.01941-.0269-.02739-.0388-.009-.0133-.01775-.0274-.02532-.0413-.0069-.0127-.01441-.0268-.02119-.0429-.0068-.0162-.01163-.0328-.01602-.047-.0048-.0155-.01004-.0298-.01344-.0465-.0031-.0152-.0039-.0332-.0057-.0512-.0018-.0181-.0041-.0344-.0041-.0506v-.0605c0-.0186.000536-.0357.0021-.0512.0015-.0155.0043-.0314.0078-.0486.0034-.0169.0075-.0325.01189-.047.0047-.0156.01152-.0304.01757-.045.0053-.0127.01078-.0272.01912-.0429.0089-.0167.01681-.0303.02377-.0408.007-.0105.01701-.0245.02894-.0393.01023-.0127.0211-.0244.03152-.0351.01079-.0111.02292-.0207.03514-.031.01292-.0109.02303-.0211.03514-.0295.01345-.009.02773-.0179.04082-.0253.01295-.007.02744-.0148.04289-.0217.01308-.006.02836-.0121.04496-.0176.01727-.006.03099-.009.04496-.0114.01505-.003.03187-.008.04909-.0103.01635-.002.03329-.003.05064-.004-.0025.00007.0023 0 .01344 0h.02946c.14612.00056.265033-.11743.265617-.26355v-.79272c.00054-.14692-.118709-.26615-.265626-.26558h-.02946c-.01618 0-.03454-.00019-.05271-.002-.01803-.002-.03335-.005-.04858-.008-.01676-.003-.03162-.007-.04703-.0114-.01427-.004-.0304-.0108-.04651-.0176-.01604-.007-.03064-.0148-.04341-.0217-.01398-.008-.02751-.0144-.04082-.0233-.01188-.008-.02552-.0181-.03927-.0295-.01314-.0108-.02462-.0205-.03514-.031v-.00051-.00052-.00052-.00051c-.0105-.0105-.02224-.022-.03307-.0351-.01135-.0138-.01941-.0254-.02739-.0372-.009-.0133-.01775-.0269-.02532-.0408-.0069-.0127-.01441-.0289-.02119-.045-.0068-.0162-.01163-.0308-.01602-.045-.0048-.0155-.01004-.0303-.01344-.047-.0031-.0152-.0044-.0326-.0062-.0506-.0018-.0181-.0036-.0344-.0036-.0506v-.0605c0-.0186.000536-.0357.0021-.0512.0015-.0155.0043-.0314.0078-.0486.0034-.0169.0069-.0325.01137-.047v-.00051-.00052-.00052-.00051c.0047-.0156.01152-.0304.01757-.045.0053-.0127.0113-.0272.01964-.0429.0089-.0167.01681-.0303.02377-.0408.007-.0105.01701-.0224.02894-.0372.01023-.0127.0211-.0244.03152-.0351.01079-.0111.02292-.0227.03514-.0331.01292-.0109.02303-.019.03514-.0274.01345-.009.02773-.0179.04082-.0253.01295-.007.02744-.0148.04289-.0217.01308-.006.02836-.0121.04496-.0176.01727-.006.03099-.0108.04496-.014.01505-.003.03187-.006.04909-.008.01635-.002.03329-.003.05064-.004-.0025.00007.0023 0 .01344 0h.02946c.14612.00056.265033-.11743.265617-.26355 0-.58174-.476597-1.05833-1.058334-1.05833h-.529738c-.14612-.00056-.265033.11743-.265617.26355v.031c0 .0162.000278.0324-.0015.0506-.0018.018-.0047.0359-.0078.0512-.0034.0167-.0071.031-.01189.0465-.0044.0142-.01075.0308-.01757.047-.0068.0161-.01275.0302-.01964.0429-.0076.014-.01633.028-.02532.0413-.008.0118-.01811.025-.02946.0388-.01084.0131-.0205.0247-.03101.0351-.01052.0105-.022.0207-.03514.0315-.01376.0113-.02739.0209-.03927.0289-.01331.009-.02684.0182-.04082.0258-.01276.007-.02685.0124-.04289.0191-.01611.007-.03275.0132-.04703.0176-.01541.005-.03026.008-.04703.0119-.01522.003-.03261.006-.05064.008-.01817.002-.03446.002-.05064.002h-.06098c-.01618 0-.03248.00033-.05064-.002-.01803-.002-.03542-.005-.05064-.008-.01676-.003-.03162-.007-.04703-.0119-.01427-.004-.0304-.0108-.04651-.0176-.01604-.007-.03064-.0122-.04341-.0191-.01398-.008-.02751-.0168-.04082-.0258-.01188-.008-.02552-.0175-.03927-.0289-.01314-.0108-.02462-.021-.03514-.0315-.0105-.0105-.02017-.022-.03101-.0351-.01135-.0138-.02147-.0269-.02946-.0388-.009-.0133-.01776-.0274-.02532-.0413-.0069-.0127-.01286-.0268-.01964-.0429-.0068-.0162-.01317-.0328-.01757-.047-.0048-.0155-.008-.0298-.01137-.0465-.0031-.0152-.0065-.0332-.0083-.0512-.0018-.0181-.0015-.0344-.0015-.0506v-.031c-.000557-.14614-.119475-.26416-.265613-.2636h-.793242c-.14612-.00056-.265033.11743-.265617.26355v.031c0 .0162-.000238.0324-.0021.0506-.0018.018-.0046.0359-.0077.0512-.0034.0167-.0066.031-.01137.0465-.0044.0142-.01075.0308-.01757.047-.0068.0161-.01482.0302-.0217.0429-.0076.014-.01426.028-.02325.0413-.008.0118-.01811.025-.02946.0388-.01084.0131-.0205.0247-.03101.0351-.01052.0105-.02406.0207-.03721.0315-.01376.0113-.02532.0209-.03721.0289-.01331.009-.02684.0182-.04082.0258-.01276.007-.02892.0124-.04496.0191-.01611.007-.03068.0132-.04496.0176-.01541.005-.03026.008-.04703.0119-.01522.003-.03261.006-.05064.008-.01817.002-.03498.002-.05116.002h-.06043c-.01618 0-.03454.00033-.05271-.002-.01803-.002-.03335-.005-.04858-.008-.01676-.003-.03162-.007-.04703-.0119-.01427-.004-.03092-.0108-.04703-.0176-.01604-.007-.03013-.0122-.04289-.0191-.01398-.008-.02751-.0168-.04082-.0258-.01188-.008-.02552-.0175-.03927-.0289-.01314-.0108-.02462-.021-.03514-.0315-.0105-.0105-.02017-.022-.03101-.0351-.01135-.0138-.02147-.0269-.02946-.0388-.009-.0133-.01775-.0274-.02532-.0413-.0069-.0127-.01492-.0268-.0217-.0429-.0068-.0162-.0111-.0328-.0155-.047-.0048-.0155-.0085-.0298-.01189-.0465-.0031-.0152-.0059-.0332-.0077-.0512-.0018-.0181-.0036-.0344-.0036-.0506v-.031c-.000582-.14551-.118551-.26325-.264066-.26355zm-3.703135 1.8526h8.202087v9.525h-8.202087zm4.630651 2.38099c-.769264 0-1.417004.50015-1.638144 1.19424-.13988-.0847-.302404-.13591-.478524-.13591-.51303 0-.926042.41301-.926042.92604 0 .0494.007.0969.01447.14418-.602971.0597-1.072803.55956-1.072803 1.17874 0 .6596.531016 1.19062 1.190625 1.19062h.132292.555522 3.677814c.732895 0 1.322917-.59001 1.322917-1.32291 0-.64487-.457083-1.17857-1.066085-1.2976.0047-.052.0077-.10436.0077-.15761 0-.95277-.76703-1.71979-1.719793-1.71979z" fill-opacity=".2" stroke-linecap="round" stroke-linejoin="round" stroke-miterlimit="1.8" stroke-width=".529167" transform="translate(.52872 -263.13281)"/></svg>
