<svg height="128" viewBox="0 0 128 128" width="128" xmlns="http://www.w3.org/2000/svg">
<defs id="kuyenfoldercolor">
    <style type="text/css" id="current-color-scheme">
      .ColorScheme-Highlight {
        color:#03b2fe;
      }
      </style>
  </defs><g transform="translate(40 24)"><g stroke-width="3.77953"><path d="m-27-19c-6.63069 0-12 5.369348-12 12.0000004v93.9999886c0 6.63069 5.36931 12 12 12h102.000001c6.630682 0 12-5.36931 12-12v-78.000001c0-6.6306898-5.369318-12.0000001-12-12.0000001h-48.999999c-1.953706 0-3.574099-.8452536-5.205079-2.2558489-1.630987-1.4105575-3.205028-3.3747401-4.904296-5.388661-3.398544-4.027919-7.4461908-8.355478-13.8906255-8.355478z" style="fill:currentColor"
class="ColorScheme-Highlight"/><path d="m-26.999996-18.000012c-6.093986 0-11.000002 4.906046-11.000002 11.0000011v93.9999999c0 6.093951 4.906016 11.000001 11.000002 11.000001h101.999997c6.093978 0 11.000001-4.90605 11.000001-11.000001v-78.0000048c0-6.0939515-4.906015-10.9999976-11.000001-10.9999976h-48.999999c-8.999981 0-12.000023-15.9999986-24.0000005-15.9999986z" fill="#fff" fill-opacity=".077329"/><path d="m-27-19c-6.630694 0-12 5.369348-12 12.0000004v94.0000266c0 6.630652 5.369306 12 12 12h101.999997c6.630682 0 12-5.369348 12-12v-78.0000012c0-6.6306898-5.369318-12.0000001-12-12.0000001h-48.999999c-1.953706 0-3.574095-.8452914-5.205079-2.2558867-1.630987-1.4105575-3.205028-3.3747401-4.904296-5.388661-3.39854-4.027919-7.4461906-8.355478-13.8906253-8.355478zm0 1.000026h28.9999977c11.9999883 0 15.0000073 15.9999871 24.0000003 15.9999871h48.999999c6.09399 0 11.000002 4.9060536 11.000002 11.0000127v78.0000012c0 6.093959-4.90602 10.999975-11.000002 10.999975h-101.999997c-6.093989 0-11.000001-4.906016-11.000001-10.999975v-94.0000266c0-6.0939594 4.906012-10.9999744 11.000001-10.9999744z" fill-opacity=".2"/><path d="m27.999999-3.0000121c-6.444434 0-10.492082 4.3275969-13.890622 8.3554772-1.699271 2.0139591-3.273316 3.9780662-4.9042996 5.3886619-1.6309795 1.410557-3.2513688 2.255886-5.2050784 2.255886h-30.999999c-6.630679 0-12 5.369311-12 12v63.000001c0 6.630652 5.369321 11.999996 12 11.999996h102.000001c6.630686 0 12-5.369344 12-11.999996v-79.000026c0-6.6306898-5.369314-12.0000001-12-12.0000001z" style="fill:currentColor"
class="ColorScheme-Highlight"/></g><path d="m5.999741 30c-1.6619944 0-3 1.338002-3 3v44c0 1.66199 1.3380056 3 3 3h38.000259c1.662002 0 3-1.33801 3-3v-44c0-1.661998-1.337998-3-3-3zm2.0000025 3.999998h1.9999975c.553999 0 1.000003.446007 1.000003.999999v4.000003c0 .553999-.446004.999998-1.000003.999998h-1.9999975c-.5539994 0-1.0000025-.445999-1.0000025-.999998v-4.000003c0-.553992.4460031-.999999 1.0000025-.999999zm32.0002565 0h2.000002c.553999 0 .999998.446007.999998.999999v4.000003c0 .553999-.445999.999998-.999998.999998h-2.000002c-.553999 0-.999998-.445999-.999998-.999998v-4.000003c0-.553992.445999-.999999.999998-.999999zm-23.771741 3h17.771741c1.108003 0 2.000002.891999 2.000002 2.000002v32.999996c0 1.108003-.891999 2.000002-2.000002 2.000002h-17.771741c-1.108003 0-2.000001-.891999-2.000001-2.000002v-32.999996c0-1.108003.891998-2.000002 2.000001-2.000002zm-8.2285155 6h1.9999975c.553999 0 1.000003.446 1.000003.999999v4.000003c0 .553992-.446004.999999-1.000003.999999h-1.9999975c-.5539994 0-1.0000025-.446007-1.0000025-.999999v-4.000003c0-.553999.4460031-.999999 1.0000025-.999999zm32.0002565 0h2.000002c.553999 0 .999998.446.999998.999999v4.000003c0 .553992-.445999.999999-.999998.999999h-2.000002c-.553999 0-.999998-.446007-.999998-.999999v-4.000003c0-.553999.445999-.999999.999998-.999999zm-19.999998 3.999999c-.556073-.005374-1.009737.443904-1.009765 1.000003v13.999997c.000433.809193.911641 1.282885 1.574218.818359l9.999999-6.999999c.568815-.398138.568815-1.240533 0-1.638671l-9.999999-6.999999c-.16569-.115518-.362475-.178159-.564453-.179678zm-12.0002585 5.000002h1.9999975c.553999 0 1.000003.445999 1.000003.999998v4.000003c0 .553992-.446004.999999-1.000003.999999h-1.9999975c-.5539994 0-1.0000025-.446007-1.0000025-.999999v-4.000003c0-.553999.4460031-.999998 1.0000025-.999998zm32.0002565 0h2.000002c.553999 0 .999998.445999.999998.999998v4.000003c0 .553992-.445999.999999-.999998.999999h-2.000002c-.553999 0-.999998-.446007-.999998-.999999v-4.000003c0-.553999.445999-.999998.999998-.999998zm-32.0002565 9h1.9999975c.553999 0 1.000003.445999 1.000003.999998v4.000003c0 .553992-.446004.999999-1.000003.999999h-1.9999975c-.5539994 0-1.0000025-.446007-1.0000025-.999999v-4.000003c0-.553999.4460031-.999998 1.0000025-.999998zm32.0002565 0h2.000002c.553999 0 .999998.445999.999998.999998v4.000003c0 .553992-.445999.999999-.999998.999999h-2.000002c-.553999 0-.999998-.446007-.999998-.999999v-4.000003c0-.553999.445999-.999998.999998-.999998zm-32.0002565 9h1.9999975c.553999 0 1.000003.445999 1.000003.999999v3.999998c0 .554-.446004 1.000003-1.000003 1.000003h-1.9999975c-.5539994 0-1.0000025-.446003-1.0000025-1.000003v-3.999998c0-.554.4460031-.999999 1.0000025-.999999zm32.0002565 0h2.000002c.553999 0 .999998.445999.999998.999999v3.999998c0 .554-.445999 1.000003-.999998 1.000003h-2.000002c-.553999 0-.999998-.446003-.999998-1.000003v-3.999998c0-.554.445999-.999999.999998-.999999z" fill-opacity=".2" stroke-linecap="round" stroke-linejoin="round" stroke-opacity=".960784" stroke-width="2"/><g stroke-width="3.77953"><path d="m27.999999-3.0000121c-6.444434 0-10.492082 4.3275969-13.890622 8.3554772-1.699271 2.0139591-3.273316 3.9780662-4.9042996 5.3886619-1.6309795 1.410557-3.2513688 2.255886-5.2050747 2.255886h-30.9999987c-6.630679 0-12 5.369311-12 12v63.000001c0 6.630652 5.369321 11.999996 12 11.999996h101.999997c6.630686 0 12-5.369344 12-11.999996v-79.000026c0-6.630652-5.369314-12.0000001-12-12.0000001zm0 1.0000252h47.000002c6.093986 0 11.000001 4.9060158 11.000001 10.9999749v79.000026c0 6.093959-4.906012 10.999975-11.000001 10.999975h-101.999997c-6.093986 0-11.000002-4.906016-11.000002-10.999975v-63.000001c0-6.093959 4.906009-11.000012 11.000002-11.000012h30.9999987c8.9999923 0 12.0000113-15.9999879 23.9999963-15.9999879z" fill-opacity=".2"/><path d="m27.999999-2.0000013c-11.999724 0-15.000181 15.9999983-24 15.9999983h-30.999998c-6.093851 0-11 4.906212-11 11.000001v63.000001c0 6.093789 4.906157 10.999998 11 10.999998h102c6.093815 0 10.999998-4.906209 10.999998-10.999998v-1.000003-4.999997-2.000001-5.000002-1.999997-5.000002-58.9999984c0-6.0938208-4.906186-10.9999999-10.999998-10.9999999zm-22.000258 32.0000013h38.000259c1.662002 0 3 1.338002 3 3v44c0 1.661987-1.337998 3-3 3h-38.000259c-1.6619906 0-3-1.338013-3-3v-44c0-1.661998 1.3380094-3 3-3zm2.0000025 3.999998c-.5539994 0-1.0000025.446011-1.0000025.999999v4.000003c0 .553999.4460031.999998 1.0000025.999998h1.9999975c.553999 0 1.000003-.445999 1.000003-.999998v-4.000003c0-.553988-.446004-.999999-1.000003-.999999zm32.0002565 0c-.553999 0-.999998.446011-.999998.999999v4.000003c0 .553999.445999.999998.999998.999998h2.000002c.553999 0 .999998-.445999.999998-.999998v-4.000003c0-.553988-.445999-.999999-.999998-.999999zm-23.771741 3c-1.108003 0-2.000001.891999-2.000001 2.000002v32.999996c0 1.108003.891998 2.000002 2.000001 2.000002h17.771741c1.108003 0 2.000002-.891999 2.000002-2.000002v-32.999996c0-1.108003-.891999-2.000002-2.000002-2.000002zm-8.2285155 6c-.5539994 0-1.0000025.446-1.0000025.999999v4.000003c0 .553988.4460031.999999 1.0000025.999999h1.9999975c.553999 0 1.000003-.446011 1.000003-.999999v-4.000003c0-.553999-.446004-.999999-1.000003-.999999zm32.0002565 0c-.553999 0-.999998.446-.999998.999999v4.000003c0 .553988.445999.999999.999998.999999h2.000002c.553999 0 .999998-.446011.999998-.999999v-4.000003c0-.553999-.445999-.999999-.999998-.999999zm-19.999998 3.999999c.201978.0015.398763.06416.564453.179679l9.999999 6.999999c.568815.398138.568815 1.240533 0 1.638671l-9.999999 7.00001c-.662577.464526-1.573785-.0092-1.574218-.818359v-13.999997c.000028-.556099.453692-1.005377 1.009765-1.000003zm-12.0002585 5.000002c-.5539994 0-1.0000025.445999-1.0000025.999998v4.000003c0 .553988.4460031.999999 1.0000025.999999h1.9999975c.553999 0 1.000003-.446011 1.000003-.999999v-4.000003c0-.553999-.446004-.999998-1.000003-.999998zm32.0002565 0c-.553999 0-.999998.445999-.999998.999998v4.000003c0 .553988.445999.999999.999998.999999h2.000002c.553999 0 .999998-.446011.999998-.999999v-4.000003c0-.553999-.445999-.999998-.999998-.999998zm-32.0002565 9c-.5539994 0-1.0000025.445999-1.0000025.999998v4.000003c0 .553988.4460031.999999 1.0000025.999999h1.9999975c.553999 0 1.000003-.446011 1.000003-.999999v-4.000003c0-.553999-.446004-.999998-1.000003-.999998zm32.0002565 0c-.553999 0-.999998.445999-.999998.999998v4.000003c0 .553988.445999.999999.999998.999999h2.000002c.553999 0 .999998-.446011.999998-.999999v-4.000003c0-.553999-.445999-.999998-.999998-.999998zm-32.0002565 9c-.5539994 0-1.0000025.445999-1.0000025.999999v3.999998c0 .554.4460031 1.000003 1.0000025 1.000003h1.9999975c.553999 0 1.000003-.446003 1.000003-1.000003v-3.999998c0-.554-.446004-.999999-1.000003-.999999zm32.0002565 0c-.553999 0-.999998.445999-.999998.999999v3.999998c0 .554.445999 1.000003.999998 1.000003h2.000002c.553999-0 .999998-.446003.999998-1.000003v-3.999998c0-.554-.445999-.999999-.999998-.999999z" fill="#fff" fill-opacity=".3"/></g></g></svg>
