<svg
    height="128"
    viewBox="0 0 33.866666 33.866666"
    width="128"
    xmlns="http://www.w3.org/2000/svg">
    <defs id="kuyenfoldercolor">
    <style type="text/css" id="current-color-scheme">
      .ColorScheme-Highlight {
        color:#03b2fe;
      }
      </style>
  </defs>
    <path
        d="m3.439583 1.322917c-1.75437 0-3.175 1.42064-3.175 3.175v24.87083c0 1.75437 1.42063 3.175 3.175 3.175h26.9875c1.754368 0 3.175-1.42063 3.175-3.175v-20.6375c0-1.75437-1.420632-3.175-3.175-3.175h-12.964583c-.516918 0-.945647-.22364-1.377177-.59686-.431532-.37321-.847997-.8929-1.297595-1.42575-.899198-1.06572-1.970138-2.21072-3.675228-2.21072z"
        style="fill:currentColor"
        class="ColorScheme-Highlight"/>
    <path
        d="m3.4395836 1.587497c-1.6123666 0-2.9104166 1.298058-2.9104166 2.910417v24.870833c0 1.612358 1.29805 2.910417 2.9104166 2.910417h26.9874994c1.612365 0 2.910417-1.298059 2.910417-2.910417v-20.637501c0-1.612358-1.29805-2.910416-2.910417-2.910416h-12.964583c-2.381245 0-3.175006-4.233333-6.35-4.233333z" fill="#fff"
        fill-opacity=".077329"/>
    <path
        d="m3.439583 1.322917c-1.754371 0-3.175 1.42064-3.175 3.175v24.87084c0 1.75436 1.420629 3.175 3.175 3.175h26.987499c1.754368 0 3.175-1.42064 3.175-3.175v-20.6375c0-1.75437-1.420632-3.175-3.175-3.175h-12.964583c-.516918 0-.945646-.22365-1.377177-.59687-.431532-.37321-.847997-.8929-1.297595-1.42575-.899197-1.06572-1.970138-2.21072-3.675228-2.21072zm0 .26459h7.672916c3.174997 0 3.968752 4.23333 6.35 4.23333h12.964583c1.612368 0 2.910417 1.29806 2.910417 2.91042v20.6375c0 1.61236-1.298051 2.91041-2.910417 2.91041h-26.987499c-1.612368 0-2.910417-1.29805-2.910417-2.91041v-24.87084c0-1.61236 1.298049-2.91041 2.910417-2.91041z"
        fill-opacity=".2"/>
    <path
        d="m17.991666 5.556247c-1.70509 0-2.77603 1.14501-3.675227 2.21072-.449599.53286-.866065 1.05253-1.297596 1.42575-.43153.37321-.860258.59687-1.377177.59687h-8.202083c-1.754367 0-3.175 1.42063-3.175 3.175v16.66875c0 1.75436 1.420633 3.175 3.175 3.175h26.9875c1.754369 0 3.175-1.42064 3.175-3.175v-20.90209c0-1.75437-1.420631-3.175-3.175-3.175z"
        style="fill:currentColor"
        class="ColorScheme-Highlight"/>
    <path
        d="m17.991666 5.556247c-1.70509 0-2.77603 1.14501-3.675227 2.21072-.449599.53286-.866065 1.05253-1.297596 1.42575-.43153.37321-.860258.59687-1.377176.59687h-8.202083c-1.754367 0-3.175 1.42063-3.175 3.175v16.66875c0 1.75436 1.420633 3.175 3.175 3.175h26.987499c1.754369 0 3.175-1.42064 3.175-3.175v-20.90209c0-1.75436-1.420631-3.175-3.175-3.175zm0 .26459h12.435417c1.612367 0 2.910417 1.29805 2.910417 2.91041v20.90209c0 1.61236-1.298049 2.91041-2.910417 2.91041h-26.987499c-1.612367 0-2.910417-1.29805-2.910417-2.91041v-16.66875c0-1.61236 1.298048-2.91042 2.910417-2.91042h8.202083c2.381248 0 3.175003-4.23333 6.349999-4.23333z"
        fill-opacity=".2"/>
    <path
        d="m17.991666 5.8208332c-3.174921 0-3.968802 4.2333328-6.35 4.2333328h-8.2020827c-1.6123287 0-2.91041664 1.298106-2.91041664 2.910417v16.66875c0 1.612311 1.29808994 2.910416 2.91041664 2.910416h26.9874997c1.612318 0 2.910416-1.298105 2.910416-2.910416v-.264584-1.322916-.529167-1.322917-.529166-1.322917-15.6104162c0-1.6123194-1.298099-2.9104166-2.910416-2.9104166zm-1.058333 8.4666668c2.0521 0 3.704167 1.65206 3.704167 3.704166v1.058334h.264583c.439731 0 .79375.35402.79375.79375v2.910416 1.058334 1.058333 1.058333.264583c0 .43974-.354019.79375-.79375.79375h-1.852083-.264584-.264583-.529167-5.027083c-.439731 0-.79375-.35401-.79375-.79375v-6.349999c0-.43973.354019-.79375.79375-.79375h.264583 1.5875 4.233334v-1.058334c0-1.172638-.944038-2.116666-2.116667-2.116666s-2.116667.944028-2.116667 2.116666h-1.5875c0-2.052106 1.652066-3.704166 3.704167-3.704166zm-.054777 6.879166c-.556215 0-1.003556.447347-1.003556 1.003557v.109554c0 .382968.215368.710144.529166.879532v1.711524c0 .29316.236008.529166.529167.529166.293158 0 .529167-.236006.529167-.529166v-1.711524c.313801-.169388.529166-.496564.529166-.879532v-.109554c0-.55621-.447345-1.003557-1.003556-1.003557z"
        fill="#fff"
        fill-opacity=".3029"/>
    <path
        d="m16.933333 14.2875c-2.052103 0-3.704167 1.652058-3.704167 3.704166h1.5875c0-1.172639.944036-2.116666 2.116667-2.116666 1.17263 0 2.116667.944027 2.116667 2.116666v1.058334h-4.233334-1.5875-.264583c-.439733 0-.79375.35402-.79375.79375v6.349999c0 .43974.354017.79375.79375.79375h5.027083.529167.264583.264584 1.852083c.439732 0 .79375-.35401.79375-.79375v-.264583-1.058333-1.058333-1.058334-2.910416c0-.43973-.354018-.79375-.79375-.79375h-.264583v-1.058334c0-2.052108-1.652065-3.704166-3.704167-3.704166zm-.054777 6.879166h.109554c.556212 0 1.003556.447347 1.003556 1.003557v.109554c0 .382969-.215364.710143-.529166.879532v1.711524c0 .29316-.236009.529166-.529167.529166-.293159 0-.529167-.236006-.529167-.529166v-1.711524c-.313796-.169389-.529166-.496563-.529166-.879532v-.109554c0-.55621.447341-1.003557 1.003556-1.003557z"
        fill-opacity=".2"/>
    </svg>
