<svg
    height="128"
    viewBox="0 0 33.866666 33.866666"
    width="128"
    xmlns="http://www.w3.org/2000/svg">
    <defs id="kuyenfoldercolor">
    <style type="text/css" id="current-color-scheme">
      .ColorScheme-Highlight {
        color:#03b2fe;
      }
      </style>
  </defs>
    <path
        style="fill:currentColor"
        d="m3.439583 1.322917c-1.75437 0-3.175 1.42064-3.175 3.175v24.87083c0 1.75437 1.42063 3.175 3.175 3.175h26.9875c1.754368 0 3.175-1.42063 3.175-3.175v-20.6375c0-1.75437-1.420632-3.175-3.175-3.175h-12.964583c-.516918 0-.945647-.22364-1.377177-.59686-.431532-.37321-.847997-.8929-1.297595-1.42575-.899198-1.06572-1.970138-2.21072-3.675228-2.21072z"
        class="ColorScheme-Highlight"/>
    <path
        d="m3.439584 1.587497c-1.612367 0-2.910417 1.298058-2.910417 2.910417v24.870833c0 1.612358 1.29805 2.910417 2.910417 2.910417h26.987499c1.612365 0 2.910417-1.298059 2.910417-2.910417v-20.637501c0-1.612358-1.29805-2.910416-2.910417-2.910416h-12.964583c-2.381245 0-3.175006-4.233333-6.35-4.233333z" fill="#fff"
        fill-opacity=".077329"/>
    <path
        d="m3.439583 1.322917c-1.754371 0-3.175 1.42064-3.175 3.175v24.87084c0 1.75436 1.420629 3.175 3.175 3.175h26.987499c1.754368 0 3.175-1.42064 3.175-3.175v-20.6375c0-1.75437-1.420632-3.175-3.175-3.175h-12.964583c-.516918 0-.945646-.22365-1.377177-.59687-.431532-.37321-.847997-.8929-1.297595-1.42575-.899197-1.06572-1.970138-2.21072-3.675228-2.21072zm0 .26459h7.672916c3.174997 0 3.968752 4.23333 6.35 4.23333h12.964583c1.612368 0 2.910417 1.29806 2.910417 2.91042v20.6375c0 1.61236-1.298051 2.91041-2.910417 2.91041h-26.987499c-1.612368 0-2.910417-1.29805-2.910417-2.91041v-24.87084c0-1.61236 1.298049-2.91041 2.910417-2.91041z"
        fill-opacity=".2"/>
    <path
        style="fill:currentColor"
        d="m17.991666 5.556247c-1.70509 0-2.77603 1.14501-3.675227 2.21072-.449599.53286-.866065 1.05253-1.297596 1.42575-.43153.37321-.860258.59687-1.377177.59687h-8.202083c-1.754367 0-3.175 1.42063-3.175 3.175v16.66875c0 1.75436 1.420633 3.175 3.175 3.175h26.9875c1.754369 0 3.175-1.42064 3.175-3.175v-20.90209c0-1.75437-1.420631-3.175-3.175-3.175z"
        class="ColorScheme-Highlight"/>
    <path
        d="m17.991666 5.556247c-1.70509 0-2.77603 1.14501-3.675227 2.21072-.449599.53286-.866065 1.05253-1.297596 1.42575-.43153.37321-.860258.59687-1.377176.59687h-8.202083c-1.754367 0-3.175 1.42063-3.175 3.175v16.66875c0 1.75436 1.420633 3.175 3.175 3.175h26.987499c1.754369 0 3.175-1.42064 3.175-3.175v-20.90209c0-1.75436-1.420631-3.175-3.175-3.175zm0 .26459h12.435417c1.612367 0 2.910417 1.29805 2.910417 2.91041v20.90209c0 1.61236-1.298049 2.91041-2.910417 2.91041h-26.987499c-1.612367 0-2.910417-1.29805-2.910417-2.91041v-16.66875c0-1.61236 1.298048-2.91042 2.910417-2.91042h8.202083c2.381248 0 3.175003-4.23333 6.349999-4.23333z"
        fill-opacity=".2"/>
    <path
        d="m17.991666 5.82083c-3.174966 0-3.968772 4.233333-6.35 4.233333h-8.202083c-1.612352 0-2.910416 1.298076-2.910416 2.910417v16.66875c0 1.612341 1.298066 2.910416 2.910416 2.910416h26.9875c1.612348 0 2.910416-1.298075 2.910416-2.910416v-.264584-1.322916-.529167-1.322917-.529166-1.322917-15.610416c0-1.612344-1.298069-2.910417-2.910416-2.910417zm-3.96875 8.73125v1.322917l-.79375.264583v.529167 1.931665l-.0026-.0031c.0007.0186.0026.03701.0026.05581 0 .806179-.649023 1.455208-1.455208 1.455208-.806184 0-1.455208-.649039-1.455208-1.455208 0-.8062.649024-1.455209 1.455208-1.455209.2388 0 .463021.05807.661458.159164v-2.27583zm6.085417 0v2.910417l-2.116667.79375v6.085416c0 1.905528-1.534057 3.439583-3.439583 3.439583s-3.439583-1.534055-3.439583-3.439583 1.534057-3.439583 3.439583-3.439583c.687816 0 1.325561.202174 1.861902.547253l-.0098-.01809v-2.910413-1.5875-1.058333zm3.439583 3.96875v1.322917l-.79375.264583v.529167 1.931665l-.0026-.0031c.0007.0186.0026.03701.0026.05581 0 .806179-.649023 1.455208-1.455208 1.455208-.806184 0-1.455208-.649039-1.455208-1.455208 0-.8062.649024-1.455209 1.455208-1.455209.2388 0 .46302.05806.661458.159164v-2.27583z"
        fill="#fff"
        fill-opacity=".3029"/>
    <path
        d="m14.022916 14.55208-1.5875.52918v2.27582c-.198438-.10109-.422658-.15915-.661458-.15915-.806185 0-1.455208.649-1.455208 1.4552 0 .80617.649023 1.45521 1.455208 1.45521.806186 0 1.455207-.64903 1.455207-1.45521 0-.0188-.0019-.0372-.0026-.0558l.0026.003v-1.93167-.52916l.793751-.26459zm6.085417.00002-3.704166 1.32292v1.05833 1.5875 2.91041l.0098.0181c-.536341-.34508-1.174083-.54726-1.8619-.54726-1.905528 0-3.439584 1.53405-3.439584 3.43958s1.534056 3.43959 3.439584 3.43959 3.439583-1.53406 3.439583-3.43959v-6.08541l2.116667-.79375zm3.439583 3.96874-1.587501.52917v2.27582c-.198438-.1011-.422659-.15916-.661459-.15916-.806185 0-1.455208.64901-1.455208 1.45521 0 .80617.649023 1.45521 1.455208 1.45521.806186 0 1.455209-.64903 1.455209-1.45521 0-.0188-.0019-.0372-.0026-.0558l.0026.003v-1.93166-.52917l.793751-.26458z"
        fill-opacity=".2"/>
    </svg>
