<svg height="32" viewBox="0 0 8.4666665 8.4666669" width="32" xmlns="http://www.w3.org/2000/svg"><defs id="kuyenfoldercolor">
    <style type="text/css" id="current-color-scheme">
      .ColorScheme-Highlight {
        color:#03b2fe;
      }
      </style>
  </defs><g transform="translate(0 -288.53333)"><rect fill="#363c4d" height="7.937499" ry=".529167" width="8.466666" y="288.79791"/><rect fill="#4b6477" height="7.408329" ry=".264583" width="7.937501" x=".264583" y="289.0625"/><path d="m.529167 289.32709h7.408333v6.879158h-7.408333z" fill="#363c4d"/><path d="m.79375 289.59167h6.879167v6.349987h-6.879167z" style="fill:currentColor"
class="ColorScheme-Highlight"/><path d="m.79375 289.59166v6.35h6.8791667v-6.35zm.79375.79375h3.175v2.38125h-3.175zm3.4395834.79375h1.5875v2.38125h-3.1750001v-.52916h1.5875001zm-3.9687501 3.175h6.3500001v1.32292h-6.3500001z" fill="#fff" fill-opacity=".3"/><path d="m1.5875 290.38541v2.38125h3.1750001v-2.38125zm3.4395835.79375v1.85208h-1.5875001v.52917h3.1750001v-2.38125zm-3.9687502 3.175v1.32292h6.3500001v-1.32292z" fill-opacity=".2"/></g></svg>
