<svg height="32" viewBox="0 0 8.4666665 8.4666669" width="32" xmlns="http://www.w3.org/2000/svg"><defs id="kuyenfoldercolor">
    <style type="text/css" id="current-color-scheme">
      .ColorScheme-Highlight {
        color:#03b2fe;
      }
      </style>
  </defs><g transform="translate(0 -288.53333)"><path d="m.5291667 288.79791c-.2885755 0-.5291667.24059-.5291667.52917v6.87916c0 .28858.240588.52917.5291667.52917h7.4083333c.2885787 0 .5291667-.24059.5291667-.52917v-5.82083c0-.28858-.2405912-.52917-.5291667-.52917h-3.7041667c-.044097 0-.058041-.007-.1111043-.0703-.053063-.0637-.1152385-.18034-.1813843-.31264-.066146-.13229-.1362626-.2802-.2485636-.41496-.1123011-.13474-.2967951-.26043-.5172811-.26043z" style="fill:currentColor"
class="ColorScheme-Highlight"/><path d="m.52916665 288.79791c-.2885752 0-.5291667.24059-.5291667.52917v6.87916c0 .28858.2405883.52917.5291667.52917h7.40833325c.2885785 0 .5291667-.24059.5291667-.52917v-5.82083c0-.28858-.2405914-.52917-.5291667-.52917h-3.7041666c-.044097 0-.058041-.007-.1111044-.0703-.053063-.0637-.1152385-.18034-.1813842-.31264-.066146-.13229-.1362628-.2802-.2485637-.41496-.112301-.13474-.2967953-.26045-.5172811-.26045zm0 .26458h2.64583325c.5291662 0 .5291673 1.05834 1.0583334 1.05834h3.7041666c.1465812 0 .2645834.118.2645834.26458v5.82083c0 .14658-.118002.26459-.2645834.26459h-7.40833325c-.1465816 0-.2645834-.11801-.2645834-.26459v-6.87916c0-.14659.1180018-.26459.2645834-.26459z" fill-opacity=".2"/><path d="m.5291666 289.0625c-.1465817 0-.2645833.11799-.2645833.26458v6.87917c0 .14658.1180016.26458.2645833.26458h7.4083337c.1465815 0 .2645831-.118.2645831-.26458v-5.82084c0-.14658-.1180018-.26458-.2645831-.26458h-3.704167c-.5291666 0-.5291666-1.05834-1.0583333-1.05834z" fill="#fff" fill-opacity=".06" stroke-width=".529167"/><path d="m4.2333333 289.85624c-.220486 0-.4112389.14535-.5012613.28939-.090023.14404-.1300009.2881-.1762167.41135-.046216.12324-.095339.22076-.1462442.27388-.050906.0531-.09497.0837-.2346111.0837h-2.6458333c-.2885755-0-.5291667.24058-.5291667.52916v4.7625c0 .28858.240588.52917.5291667.52917h7.4083333c.2885787 0 .5291667-.24059.5291667-.52917v-5.82083c0-.28858-.2405912-.52917-.5291667-.52917z" style="fill:currentColor"
class="ColorScheme-Highlight"/><path d="m4.2333333 290.12083c-.5291625 0-.2645889 1.05833-1.0583333 1.05833h-2.64583333c-.14658085 0-.26458334.11801-.26458334.26459v4.7625c0 .14658.11800249.26458.26458334.26458h7.40833333c.1465807 0 .2645834-.118.2645834-.26458v-5.82084c0-.14655-.1180029-.26458-.2645834-.26458zm-1.1895914 1.85208c.3664446 0 .6614583.29501.6614583.66146 0 .36644-.2950137.66146-.6614583.66146-.3664447 0-.6614584-.29502-.6614584-.66146 0-.36645.2950137-.66146.6614584-.66146zm1.7063558 1.05834c.090176-.0043.1762169.0374.2284098.1111l1.324467 1.85157c.1249064.17562-.0015316.41906-.217041.41806h-2.1125326c-.00127 0-.0023474.00053-.0036174.00052h-1.5875c-.2180031.00007-.3425541-.24874-.2118733-.42323l.79375-1.05834c.0515-.06884.1332031-.10793.219108-.10593.0808143.0022.1561908.04123.2046387.10593l.3054077.40773.8557618-1.19631c.0465885-.06581.1205024-.1061.2010213-.1111z" fill="#fff" fill-opacity=".3"/><g fill-opacity=".2"><path d="m4.2333337 289.85625c-.2204858 0-.4112391.14535-.5012614.28939-.090023.14404-.1300009.28809-.1762167.41134-.046216.12324-.095339.22077-.1462443.27389-.050906.0531-.09497.0837-.234611.0837h-2.6458333c-.2885752.00001-.5291667.2406-.5291667.52918v4.7625c0 .28858.2405883.52917.5291667.52917h7.4083333c.2885784 0 .5291667-.24059.5291667-.52917v-5.82083c0-.28858-.2405915-.52917-.5291667-.52917zm0 .26458h3.7041666c.1465812 0 .2645834.11801.2645834.26459v5.82083c0 .14658-.118002.26458-.2645834.26458h-7.4083333c-.1465818 0-.2645834-.118-.2645834-.26458v-4.7625c0-.14658.1180016-.26458.2645834-.26458h2.6458333c.7937492 0 .5291673-1.05834 1.0583334-1.05834z"/><path d="m3.0438752 291.97289c-.366445 0-.6614583.29501-.6614583.66146 0 .36644.2950133.66146.6614583.66146s.6614583-.29502.6614583-.66146c0-.36645-.2950133-.66146-.6614583-.66146zm1.7063558 1.05833c-.080519.005-.1544328.0453-.2010214.11111l-.8557617 1.19631-.3054078-.40773c-.048448-.0647-.1238242-.10374-.2046385-.10594-.085905-.002-.167608.0371-.2191081.10594l-.79375 1.05834c-.1306809.17449-.00613.42329.2118734.42322h1.5874999c.00127.00001.00235-.00053.00362-.00053h2.1125326c.2155097.001.3419475-.24245.2170409-.41807l-1.3244664-1.85155c-.052193-.0737-.1382336-.11541-.2284097-.11111z"/></g></g></svg>
