<svg height="32" viewBox="0 0 8.4666665 8.4666669" width="32" xmlns="http://www.w3.org/2000/svg"><defs id="kuyenfoldercolor">
    <style type="text/css" id="current-color-scheme">
      .ColorScheme-Highlight {
        color:#03b2fe;
      }
      </style>
  </defs><g transform="translate(0 -288.53333)"><g transform="translate(0 .000008)"><path d="m.5291667 288.79791c-.2885755 0-.5291667.24059-.5291667.52917v6.87916c0 .28858.240588.52917.5291667.52917h7.4083333c.2885787 0 .5291667-.24059.5291667-.52917v-5.82083c0-.28858-.2405912-.52917-.5291667-.52917h-3.7041667c-.044097 0-.058041-.007-.1111043-.0703-.053063-.0637-.1152385-.18034-.1813843-.31264-.066146-.13229-.1362626-.2802-.2485636-.41496-.1123011-.13474-.2967951-.26043-.5172811-.26043z" style="fill:currentColor"
class="ColorScheme-Highlight"/><path d="m.52916665 288.79791c-.2885752 0-.5291667.24059-.5291667.52917v6.87916c0 .28858.2405883.52917.5291667.52917h7.40833325c.2885785 0 .5291667-.24059.5291667-.52917v-5.82083c0-.28858-.2405914-.52917-.5291667-.52917h-3.7041666c-.044097 0-.058041-.007-.1111044-.0703-.053063-.0637-.1152385-.18034-.1813842-.31264-.066146-.13229-.1362628-.2802-.2485637-.41496-.112301-.13474-.2967953-.26045-.5172811-.26045zm0 .26458h2.64583325c.5291662 0 .5291673 1.05834 1.0583334 1.05834h3.7041666c.1465812 0 .2645834.118.2645834.26458v5.82083c0 .14658-.118002.26459-.2645834.26459h-7.40833325c-.1465816 0-.2645834-.11801-.2645834-.26459v-6.87916c0-.14659.1180018-.26459.2645834-.26459z" fill-opacity=".2"/><path d="m.5291666 289.0625c-.1465817 0-.2645833.11799-.2645833.26458v6.87917c0 .14658.1180016.26458.2645833.26458h7.4083337c.1465815 0 .2645831-.118.2645831-.26458v-5.82084c0-.14658-.1180018-.26458-.2645831-.26458h-3.704167c-.5291666 0-.5291666-1.05834-1.0583333-1.05834z" fill="#fff" fill-opacity=".06" stroke-width=".529167"/><path d="m4.2333333 289.85624c-.220486 0-.4112389.14535-.5012613.28939-.090023.14404-.1300009.2881-.1762167.41135-.046216.12324-.095339.22076-.1462442.27388-.050906.0531-.09497.0837-.2346111.0837h-2.6458333c-.2885755-0-.5291667.24058-.5291667.52916v4.7625c0 .28858.240588.52917.5291667.52917h7.4083333c.2885787 0 .5291667-.24059.5291667-.52917v-5.82083c0-.28858-.2405912-.52917-.5291667-.52917z" style="fill:currentColor"
class="ColorScheme-Highlight"/><path d="m4.2333334 290.12082c-.5291607 0-.2645913 1.05833-1.0583333 1.05833h-2.64583333c-.1465804 0-.26458334.11801-.26458334.26459v4.7625c0 .14658.11800294.26458.26458334.26458h7.40833333c.1465804 0 .2645834-.118.2645834-.26458v-5.82084c0-.14654-.1180032-.26458-.2645834-.26458zm-.79375 1.85208c.318649 0 .600044.14239.79375.36381.1937059-.22142.4751011-.36381.7937501-.36381.5680848 0 1.0250607.44426 1.0531656 1.00511v.00052c.00349.0174.0052121.03501.0051677.05271 0 .54387-.3846831 1.02201-.7637777 1.43557-.3790925.41355-.8001271.76705-.901237.86816-.1033279.10328-.2708096.10328-.3741373 0-.1011102-.10111-.5221431-.45461-.901237-.86816-.3790938-.41356-.7637777-.8917-.7637777-1.43557.00009-.017.0018177-.03394.0051677-.05064.0268104-.56209.4842033-1.0077 1.0531656-1.0077z" fill="#fff" fill-opacity=".3"/><path d="m4.2333337 289.85625c-.2204858 0-.4112391.14535-.5012614.28939-.090023.14404-.1300009.28809-.1762167.41134-.046216.12324-.095339.22077-.1462443.27389-.050906.0531-.09497.0837-.234611.0837h-2.6458333c-.2885752.00001-.5291667.2406-.5291667.52918v4.7625c0 .28858.2405883.52917.5291667.52917h7.4083333c.2885784 0 .5291667-.24059.5291667-.52917v-5.82083c0-.28858-.2405915-.52917-.5291667-.52917zm0 .26458h3.7041666c.1465812 0 .2645834.11801.2645834.26459v5.82083c0 .14658-.118002.26458-.2645834.26458h-7.4083333c-.1465818 0-.2645834-.118-.2645834-.26458v-4.7625c0-.14658.1180016-.26458.2645834-.26458h2.6458333c.7937492 0 .5291673-1.05834 1.0583334-1.05834z" fill-opacity=".2"/></g><path d="m3.4395831 291.97296c-.5689629 0-1.0263552.4456-1.0531657 1.00769-.00335.0167-.00508.0336-.00517.0506 0 .54387.3846834 1.02202.7637776 1.43558.3790943.41355.800127.76705.9012373.86816.1033278.10328.2708092.10328.3741372 0 .10111-.10111.5221428-.45461.9012357-.86816.379095-.41356.763778-.89171.763778-1.43558.0000444-.0177-.00169-.0353-.00518-.0527v-.00048c-.028105-.56085-.4850795-1.00509-1.0531649-1.00509-.3186493 0-.600044.14238-.79375.3638-.1937062-.22142-.4751007-.3638-.79375-.3638z" fill-opacity=".2" opacity=".97"/></g></svg>
