<svg height="32" viewBox="0 0 8.4666665 8.4666669" width="32" xmlns="http://www.w3.org/2000/svg"><defs id="kuyenfoldercolor">
    <style type="text/css" id="current-color-scheme">
      .ColorScheme-Highlight {
        color:#03b2fe;
      }
      </style>
  </defs><g transform="translate(0 -288.533327)"><path d="m.5291667 288.79791c-.2885755 0-.5291667.24059-.5291667.52917v6.87916c0 .28858.240588.52917.5291667.52917h7.4083333c.2885787 0 .5291667-.24059.5291667-.52917v-5.82083c0-.28858-.2405912-.52917-.5291667-.52917h-3.7041667c-.044097 0-.058041-.007-.1111043-.0703-.053063-.0637-.1152385-.18034-.1813843-.31264-.066146-.13229-.1362626-.2802-.2485636-.41496-.1123011-.13474-.2967951-.26043-.5172811-.26043z" style="fill:currentColor"
class="ColorScheme-Highlight"/><path d="m.52916665 288.79791c-.2885752 0-.5291667.24059-.5291667.52917v6.87916c0 .28858.2405883.52917.5291667.52917h7.40833325c.2885785 0 .5291667-.24059.5291667-.52917v-5.82083c0-.28858-.2405914-.52917-.5291667-.52917h-3.7041666c-.044097 0-.058041-.007-.1111044-.0703-.053063-.0637-.1152385-.18034-.1813842-.31264-.066146-.13229-.1362628-.2802-.2485637-.41496-.112301-.13474-.2967953-.26045-.5172811-.26045zm0 .26458h2.64583325c.5291662 0 .5291673 1.05834 1.0583334 1.05834h3.7041666c.1465812 0 .2645834.118.2645834.26458v5.82083c0 .14658-.118002.26459-.2645834.26459h-7.40833325c-.1465816 0-.2645834-.11801-.2645834-.26459v-6.87916c0-.14659.1180018-.26459.2645834-.26459z" fill-opacity=".2"/><path d="m.5291666 289.0625c-.1465817 0-.2645833.11799-.2645833.26458v6.87917c0 .14658.1180016.26458.2645833.26458h7.4083337c.1465815 0 .2645831-.118.2645831-.26458v-5.82084c0-.14658-.1180018-.26458-.2645831-.26458h-3.704167c-.5291666 0-.5291666-1.05834-1.0583333-1.05834z" fill="#fff" fill-opacity=".06" stroke-width=".529167"/><path d="m4.2333333 289.85624c-.220486 0-.4112389.14535-.5012613.28939-.090023.14404-.1300009.2881-.1762167.41135-.046216.12324-.095339.22076-.1462442.27388-.050906.0531-.09497.0837-.2346111.0837h-2.6458333c-.2885755-0-.5291667.24058-.5291667.52916v4.7625c0 .28858.240588.52917.5291667.52917h7.4083333c.2885787 0 .5291667-.24059.5291667-.52917v-5.82083c0-.28858-.2405912-.52917-.5291667-.52917z" style="fill:currentColor"
class="ColorScheme-Highlight"/><path d="m4.2333334 290.12083c-.5291613 0-.2645905 1.05833-1.0583333 1.05833h-2.64583333c-.14658055 0-.26458334.118-.26458334.26458v4.7625c0 .14658.11800279.26459.26458334.26459h7.40833333c.1465805 0 .2645834-.11801.2645834-.26459v-5.82083c0-.14655-.1180031-.26458-.2645834-.26458zm-1.0686686 2.11666a.26460979.26460979 0 0 1 .1725993.05581l.6097819.47336h.5725749l.6097819-.47336a.26460979.26460979 0 0 1 .1550293-.05581.26460979.26460979 0 0 1 .2666504.21291l.1390096.69557c.2438693.23971.3953247.57305.3953247.94361 0 .73289-.5900223 1.32291-1.3229167 1.32291h-1.0583333c-.7328944 0-1.3229167-.59002-1.3229167-1.32291 0-.37056.1514554-.7039.3953247-.94361l.1390096-.69557a.26460979.26460979 0 0 1 .2490804-.21291z" fill="#fff" fill-opacity=".3"/><path d="m4.2333337 289.85625c-.2204858 0-.4112391.14535-.5012614.28939-.090023.14404-.1300009.28809-.1762167.41134-.046216.12324-.095339.22077-.1462443.27389-.050906.0531-.09497.0837-.234611.0837h-2.6458333c-.2885752.00001-.5291667.2406-.5291667.52918v4.7625c0 .28858.2405883.52917.5291667.52917h7.4083333c.2885784 0 .5291667-.24059.5291667-.52917v-5.82083c0-.28858-.2405915-.52917-.5291667-.52917zm0 .26458h3.7041666c.1465812 0 .2645834.11801.2645834.26459v5.82083c0 .14658-.118002.26458-.2645834.26458h-7.4083333c-.1465818 0-.2645834-.118-.2645834-.26458v-4.7625c0-.14658.1180016-.26458.2645834-.26458h2.6458333c.7937492 0 .5291673-1.05834 1.0583334-1.05834z" fill-opacity=".2"/></g><path d="m-1.0686687 292.5019a.26460979.26460979 0 0 0 -.2490804.2129l-.1390096.69557c-.2438696.23972-.3953247.57305-.3953247.94361 0 .73289.5900216 1.32292 1.32291668 1.32292h1.05833334c.73289508 0 1.32291668-.59003 1.32291668-1.32292 0-.37056-.1514551-.70389-.3953247-.94361l-.1390096-.69557a.26460979.26460979 0 0 0 -.2666504-.2129.26460979.26460979 0 0 0 -.15502931.05581l-.6097819.47335h-.57257488l-.6097819-.47335a.26460979.26460979 0 0 0 -.17259931-.05581z" fill-opacity=".2" transform="translate(4.233333 -288.797731)"/></svg>
