<svg height="32" viewBox="0 0 8.4666665 8.4666669" width="32" xmlns="http://www.w3.org/2000/svg"><defs id="kuyenfoldercolor">
    <style type="text/css" id="current-color-scheme">
      .ColorScheme-Highlight {
        color:#03b2fe;
      }
      </style>
  </defs><g transform="translate(0 -288.53333)"><path d="m.5291667 288.79791c-.2885755 0-.5291667.24059-.5291667.52917v6.87916c0 .28858.240588.52917.5291667.52917h7.4083333c.2885787 0 .5291667-.24059.5291667-.52917v-5.82083c0-.28858-.2405912-.52917-.5291667-.52917h-3.7041667c-.044097 0-.058041-.007-.1111043-.0703-.053063-.0637-.1152385-.18034-.1813843-.31264-.066146-.13229-.1362626-.2802-.2485636-.41496-.1123011-.13474-.2967951-.26043-.5172811-.26043z" style="fill:currentColor"
class="ColorScheme-Highlight"/><path d="m.52916665 288.79791c-.2885752 0-.5291667.24059-.5291667.52917v6.87916c0 .28858.2405883.52917.5291667.52917h7.40833325c.2885785 0 .5291667-.24059.5291667-.52917v-5.82083c0-.28858-.2405914-.52917-.5291667-.52917h-3.7041666c-.044097 0-.058041-.007-.1111044-.0703-.053063-.0637-.1152385-.18034-.1813842-.31264-.066146-.13229-.1362628-.2802-.2485637-.41496-.112301-.13474-.2967953-.26045-.5172811-.26045zm0 .26458h2.64583325c.5291662 0 .5291673 1.05834 1.0583334 1.05834h3.7041666c.1465812 0 .2645834.118.2645834.26458v5.82083c0 .14658-.118002.26459-.2645834.26459h-7.40833325c-.1465816 0-.2645834-.11801-.2645834-.26459v-6.87916c0-.14659.1180018-.26459.2645834-.26459z" fill-opacity=".2"/><path d="m.5291666 289.0625c-.1465817 0-.2645833.11799-.2645833.26458v6.87917c0 .14658.1180016.26458.2645833.26458h7.4083337c.1465815 0 .2645831-.118.2645831-.26458v-5.82084c0-.14658-.1180018-.26458-.2645831-.26458h-3.704167c-.5291666 0-.5291666-1.05834-1.0583333-1.05834z" fill="#fff" fill-opacity=".06" stroke-width=".529167"/><path d="m4.2333333 289.85624c-.220486 0-.4112389.14535-.5012613.28939-.090023.14404-.1300009.2881-.1762167.41135-.046216.12324-.095339.22076-.1462442.27388-.050906.0531-.09497.0837-.2346111.0837h-2.6458333c-.2885755-0-.5291667.24058-.5291667.52916v4.7625c0 .28858.240588.52917.5291667.52917h7.4083333c.2885787 0 .5291667-.24059.5291667-.52917v-5.82083c0-.28858-.2405912-.52917-.5291667-.52917z" style="fill:currentColor"
class="ColorScheme-Highlight"/><path d="m4.2333333 290.12083c-.5291601 0-.2645921 1.05833-1.0583333 1.05833h-2.64583333c-.14658025 0-.26458334.11801-.26458334.26459v4.7625c0 .14658.11800309.26458.26458334.26458h7.40833333c.1465803 0 .2645834-.118.2645834-.26458v-5.82084c0-.14654-.1180033-.26458-.2645834-.26458zm-.8294067 1.58905c.022961-.002.0462275-.002.0692464 0h.0005168c.0926702.0061.1821628.03635.2594157.08785l1.5875 1.05833c.00053.00021.0010211.00078.0015503.00104.01736.0118.0322371.0266.0480591.0403.5738539.2394.9797851.79886.9797851 1.45728 0 .8749-.7126032 1.5875-1.5875 1.5875-.7089186 0-1.2879431-.47676-1.4908651-1.11983l-.31781.22686c-.2353837.16858-.5708807.11275-.738973-.12299-.1678964-.23522-.1121186-.56989.1229899-.73794l.5079793-.36277h-.4645711c-.2891152 0-.5291667-.24005-.5291667-.52916 0-.28912.2400515-.52917.5291667-.52917h.8981364l-.1333252-.08888c-.2405408-.16037-.3071248-.49326-.1467611-.73381.0778166-.11663.1989337-.19781.3364136-.22531.022608-.004.0452469-.00678.0682129-.00878zm1.3585734 1.58698c-.586316 0-1.0583333.47203-1.0583333 1.05834 0 .58632.4720173 1.05833 1.0583333 1.05833.5863161 0 1.0583334-.47201 1.0583334-1.05833 0-.58631-.4720173-1.05834-1.0583334-1.05834zm0 .52917c.293158 0 .5291667.23601.5291667.52917s-.2360087.52916-.5291667.52916-.5291667-.236-.5291667-.52916.2360087-.52917.5291667-.52917z" fill="#fff" fill-opacity=".3"/><g fill-opacity=".2"><path d="m4.2333337 289.85625c-.2204858 0-.4112391.14535-.5012614.28939-.090023.14404-.1300009.28809-.1762167.41134-.046216.12324-.095339.22077-.1462443.27389-.050906.0531-.09497.0837-.234611.0837h-2.6458333c-.2885752.00001-.5291667.2406-.5291667.52918v4.7625c0 .28858.2405883.52917.5291667.52917h7.4083333c.2885784 0 .5291667-.24059.5291667-.52917v-5.82083c0-.28858-.2405915-.52917-.5291667-.52917zm0 .26458h3.7041666c.1465812 0 .2645834.11801.2645834.26459v5.82083c0 .14658-.118002.26458-.2645834.26458h-7.4083333c-.1465818 0-.2645834-.118-.2645834-.26458v-4.7625c0-.14658.1180016-.26458.2645834-.26458h2.6458333c.7937492 0 .5291673-1.05834 1.0583334-1.05834z"/><path d="m3.4039254 291.71014c-.022966.002-.045604.005-.068212.009-.1374801.0275-.2585958.10868-.3364124.22531-.1603639.24055-.093782.57343.1467591.7338l.1333262.0889h-.8981364c-.2891155 0-.5291666.24005-.5291666.52917 0 .28911.2400511.52916.5291666.52916h.4645713l-.5079788.36277c-.2351087.16805-.2908882.50272-.1229916.73794.1680925.23574.5035894.29157.7389733.12299l.3178096-.22686c.2029222.64307.7819469 1.11983 1.4908662 1.11983.8748977 0 1.5874997-.7126 1.5874997-1.5875 0-.65842-.405929-1.21788-.9797835-1.45728-.015822-.0137-.030702-.0285-.048062-.0403-.0005292-.00026-.00106-.00079-.00159-.001l-1.5875-1.05834c-.077253-.0515-.1667457-.0818-.259416-.0879h-.0005292c-.023019-.002-.046286-.002-.069247 0zm1.3585745 1.58647c.5863167 0 1.0583337.47202 1.0583337 1.05833 0 .58632-.472017 1.05834-1.0583337 1.05834-.5863166 0-1.0583333-.47202-1.0583333-1.05834 0-.58631.4720167-1.05833 1.0583333-1.05833zm0 .52917c-.2931583 0-.5291666.236-.5291666.52916s.2360083.52917.5291666.52917.5291667-.23601.5291667-.52917-.2360084-.52916-.5291667-.52916z" stroke-linecap="round" stroke-linejoin="round" stroke-width=".264583"/></g></g></svg>
