<svg height="32" viewBox="0 0 8.4666665 8.4666669" width="32" xmlns="http://www.w3.org/2000/svg"><defs id="kuyenfoldercolor">
    <style type="text/css" id="current-color-scheme">
      .ColorScheme-Highlight {
        color:#03b2fe;
      }
      </style>
  </defs><g transform="translate(0 -288.53333)"><path d="m.5291667 288.79791c-.2885755 0-.5291667.24059-.5291667.52917v6.87916c0 .28858.240588.52917.5291667.52917h7.4083333c.2885787 0 .5291667-.24059.5291667-.52917v-5.82083c0-.28858-.2405912-.52917-.5291667-.52917h-3.7041667c-.044097 0-.058041-.007-.1111043-.0703-.053063-.0637-.1152385-.18034-.1813843-.31264-.066146-.13229-.1362626-.2802-.2485636-.41496-.1123011-.13474-.2967951-.26043-.5172811-.26043z" style="fill:currentColor"
class="ColorScheme-Highlight"/><path d="m.52916665 288.79791c-.2885752 0-.5291667.24059-.5291667.52917v6.87916c0 .28858.2405883.52917.5291667.52917h7.40833325c.2885785 0 .5291667-.24059.5291667-.52917v-5.82083c0-.28858-.2405914-.52917-.5291667-.52917h-3.7041666c-.044097 0-.058041-.007-.1111044-.0703-.053063-.0637-.1152385-.18034-.1813842-.31264-.066146-.13229-.1362628-.2802-.2485637-.41496-.112301-.13474-.2967953-.26045-.5172811-.26045zm0 .26458h2.64583325c.5291662 0 .5291673 1.05834 1.0583334 1.05834h3.7041666c.1465812 0 .2645834.118.2645834.26458v5.82083c0 .14658-.118002.26459-.2645834.26459h-7.40833325c-.1465816 0-.2645834-.11801-.2645834-.26459v-6.87916c0-.14659.1180018-.26459.2645834-.26459z" fill-opacity=".2"/><path d="m.5291666 289.0625c-.1465817 0-.2645833.11799-.2645833.26458v6.87917c0 .14658.1180016.26458.2645833.26458h7.4083337c.1465815 0 .2645831-.118.2645831-.26458v-5.82084c0-.14658-.1180018-.26458-.2645831-.26458h-3.704167c-.5291666 0-.5291666-1.05834-1.0583333-1.05834z" fill="#fff" fill-opacity=".06" stroke-width=".529167"/><path d="m4.2333333 289.85624c-.220486 0-.4112389.14535-.5012613.28939-.090023.14404-.1300009.2881-.1762167.41135-.046216.12324-.095339.22076-.1462442.27388-.050906.0531-.09497.0837-.2346111.0837h-2.6458333c-.2885755-0-.5291667.24058-.5291667.52916v4.7625c0 .28858.240588.52917.5291667.52917h7.4083333c.2885787 0 .5291667-.24059.5291667-.52917v-5.82083c0-.28858-.2405912-.52917-.5291667-.52917z" style="fill:currentColor"
class="ColorScheme-Highlight"/><path d="m4.2333333 290.12083c-.5291619 0-.2645897 1.05833-1.0583333 1.05833h-2.64583333c-.1465807 0-.26458334.11801-.26458334.26459v4.7625c0 .14658.11800264.26458.26458334.26458h7.40833333c.1465806 0 .2645834-.118.2645834-.26458v-5.82084c0-.14655-.118003-.26458-.2645834-.26458zm-1.5875 1.5875.2645834.00723c0 .0092.0006502.01788.0015503.02688.0009.0089.0018573.01735.0036173.02635.00176.0086.004148.01784.006718.02584.00257.0083.005445.01629.008785.02429.0033389.0079.0073088.01574.0113688.02274.004059.0075.0081691.01522.0129191.02222.004746.0071.0101229.01315.0155029.02015.005383.0065.0110732.0126.0170532.0186.005977.006.0120735.01206.0186035.01706.006529.0054.0131139.0105.0201539.0155.0070359.0049.0147208.00892.0222208.01292.0075.0044.0148177.00837.0227376.01137.007919.004.015998.0063.024288.0093.008295.003.0172082.00472.0258382.00672.008627.002.017435.00323.026355.00413.008916.00135.0177117.00207.0268717.00207.009162 0 .0179518-.00117.0268718-.00207.0089159-.001.0177249-.00213.0263549-.00413.008627-.002.0175383-.00372.0258383-.00672.0082949-.003.0163679-.0063.0242879-.0093.007919-.0034.0152376-.00737.0227376-.01137.007499-.0039.0151809-.00792.0222209-.01292.007036-.0048.0136238-.0105.0201538-.0155.006528-.0054.0126235-.01106.0186035-.01706.005978-.006.0116732-.0116.0170532-.0186.005383-.0066.010753-.01315.015503-.02015.0047489-.007.0088591-.01522.0129191-.02222.004059-.0075.0080288-.01474.0113688-.02274.00334-.0079.006215-.01629.008785-.02429.00257-.0083.0049579-.01684.0067179-.02584.00176-.0086.0027173-.01735.0036174-.02635.0008997-.0089.0015502-.01788.0015502-.02688h.5291667c0 .0092.0006503.01788.0015503.02688.0009.0089.0018574.01735.0036174.02635.00176.0086.0041479.01784.0067179.02584.00257.0083.005445.01629.008785.02429.003339.0079.0073088.01574.0113688.02274.004059.0075.0081691.01522.0129191.02222.004745.0071.0101229.01315.0155029.02015.005383.0065.0110733.0126.0170533.0186.005978.006.0120735.01206.0186035.01706.006529.0054.0131138.0105.0201538.0155.007036.0049.0147209.00892.0222209.01292.0074999.0044.0148176.00837.0227376.01137.007919.004.0159879.0063.0242879.0093.008295.003.0172082.00472.0258382.00672.008628.002.017435.00323.026355.00413.008916.00135.0177118.00207.0268717.00207.009162 0 .0179518-.00117.0268718-.00207.008916-.001.017725-.00213.026355-.00413.008627-.002.0175482-.00372.0258382-.00672.008295-.003.0163679-.0063.0242879-.0093.007919-.0034.0152377-.00737.0227376-.01137.007499-.0039.0151809-.00792.0222209-.01292.007036-.0048.0136238-.0105.0201538-.0155.006529-.0054.0126235-.01106.0186035-.01706.005978-.006.0116733-.0116.0170533-.0186.005384-.0066.0107529-.01315.0155029-.02015.004749-.007.0088591-.01522.0129191-.02222.004059-.0075.0080288-.01474.0113688-.02274.00334-.0079.006215-.01629.008785-.02429.00257-.0083.0049579-.01684.0067179-.02584.00176-.0086.0027174-.01735.0036174-.02635.0008998-.0089.0015503-.01788.0015503-.02688h.5291667c0 .0092.0006501.01788.0015502.02688.0009.0089.0018574.01735.0036174.02635.00176.0086.0041479.01784.0067179.02584.00257.0083.005445.01629.008785.02429.003339.0079.0073088.01574.0113688.02274.004059.0075.0081692.01522.0129191.02222.004746.0071.010123.01315.015503.02015.005383.0065.0110732.0126.0170532.0186.005978.006.0120735.01206.0186035.01706.006529.0054.0131138.0105.0201538.0155.007036.0049.0147209.00892.0222209.01292.0075.0044.0148176.00837.0227376.01137.007919.004.015998.0063.0242879.0093.008295.003.0172083.00472.0258383.00672.008627.002.017435.00323.0263549.00413.008916.00135.0177118.00207.0268718.00207.009162 0 .0179517-.00117.0268717-.00207.008916-.001.017725-.00213.026355-.00413.008627-.002.0175482-.00372.0258382-.00672.008295-.003.016368-.0063.024288-.0093.0079189-.0034.0152376-.00737.0227376-.01137.007499-.0039.0151809-.00792.0222208-.01292.007036-.0048.0136239-.0105.0201539-.0155.006528-.0054.0126235-.01106.0186035-.01706.005978-.006.0116732-.0116.0170532-.0186.005383-.0066.0107529-.01315.0155029-.02015.004749-.007.0088591-.01522.0129191-.02222.004059-.0075.0080289-.01474.0113688-.02274.00334-.0079.006215-.01629.008785-.02429.00257-.0083.004958-.01684.006718-.02584.00176-.0086.0027172-.01735.0036173-.02635.0008998-.0089.0015503-.01788.0015503-.02688h.2645834c.1465756 0 .2645833.11801.2645833.26459-.00229 0-.0044379-.00006-.0067179 0-.008962 0-.017635.00107-.026355.00207-.008715.001-.0174083.00316-.0258382.00516-.008427.002-.0167047.00372-.0248047.00672-.008096.002-.0160512.0063-.0237712.0093-.007724.0034-.0154276.00737-.0227376.01137-.00731.0039-.0143374.00792-.0211874.01292-.0068539.0048-.013277.0105-.019637.0155-.006358.0054-.0127835.01106-.0186035.01706-.005817.006-.0112965.0126-.0165365.0186-.005239.0065-.0098594.01315-.0144694.02015-.004609.007-.0089691.01471-.0129191.02171-.003952.0074-.007612.01474-.010852.02274-.00325.0078-.006285.01628-.008785.02428-.00249.0082-.0044912.01681-.0062012.02481-.00171.0085-.002744.01684-.0036174.02584-.0008731.0088-.0015502.01787-.0015502.02687 0 .0092.0006502.01787.0015502.02687s.0018574.01735.0036174.02635c.00176.0086.0041479.01784.0067179.02584.00257.0083.005445.01629.008785.02429.003339.0079.0073088.01574.0113688.02274.004059.0075.0081692.01522.0129192.02222.0047459.0071.0101229.01315.0155029.02015.005383.0065.0110732.01261.0170532.01861.005977.006.0120735.01205.0186035.01705.006529.0054.0131138.0105.0201538.0155.007036.0049.0147209.00892.0222209.01292.007499.0044.0148176.00837.0227376.01137.007919.004.015998.00579.0242879.00879.008295.003.0172083.00523.0258383.00723.008627.002.017435.00323.0263549.00413.008916.00135.0177118.00156.0268718.00156v.52916c-.00229 0-.0044379-.00006-.0067179 0-.008962 0-.017635.00107-.026355.00207-.008715.001-.0174083.00317-.0258382.00517-.008427.002-.0167047.00423-.0248047.00723-.008096.002-.0160512.00579-.0237712.00879-.007724.0034-.0154276.00736-.0227376.01136-.00731.0039-.0143374.00792-.0211874.01292-.0068539.0048-.013277.01051-.019637.01551-.006358.0053-.0127835.01105-.0186035.01705-.005817.0059-.0112965.0126-.0165365.0186-.005239.0065-.0098594.01316-.0144694.02016-.004609.007-.0089691.0147-.0129191.0217-.003952.0074-.007612.01474-.010852.02274-.00325.0078-.006285.01629-.008785.02429-.00249.0082-.0044912.0168-.0062012.0248-.00171.0085-.002744.01684-.0036174.02584-.0008731.0088-.0015502.01787-.0015502.02687 0 .0092.0006502.01787.0015502.02687s.0018574.01736.0036174.02636c.00176.0086.0041479.01784.0067179.02584.00257.0083.005445.01628.008785.02428.003339.0079.0073088.01574.0113688.02274.004059.0075.0081692.01522.0129192.02222.0047459.0071.0101229.01316.0155029.02016.005383.0065.0110732.0126.0170532.0186.005977.006.0120735.01205.0186035.01705.006529.0054.0131138.01051.0201538.01551.007036.0049.0147209.00892.0222209.01292.007499.0044.0148176.00836.0227376.01136.007919.004.015998.00631.0242879.00931.008295.003.0172083.00471.0258383.00671.008627.002.017435.00324.0263549.00414.008916.00135.0177118.00207.0268718.00207v.52916c-.00229 0-.0044379-.00005-.0067179 0-.008962 0-.017645.00107-.026355.00207-.008715.001-.0174083.00265-.0258382.00465-.008427.002-.0167047.00423-.0248047.00723-.008096.002-.0160512.00579-.0237712.00879-.007724.0034-.0154276.00737-.0227376.01137-.00731.0039-.0143374.00792-.0211874.01292-.0068549.0048-.013277.0105-.019637.0155-.006358.0054-.0127835.01105-.0186035.01705-.005817.0059-.0112965.01261-.0165365.01861-.005239.0065-.0098594.01315-.0144694.02015-.004609.007-.0089691.01471-.0129191.02171-.003952.0074-.007612.01473-.010852.02273-.00325.0078-.006285.01629-.008785.02429-.00249.0082-.0044912.01581-.0062012.02481-.00171.0085-.0027439.01683-.0036174.02583-.0008731.0088-.0015502.01788-.0015502.02688 0 .0092.0006502.01787.0015502.02687.0009.0089.0018574.01735.0036174.02635.00176.0086.0041479.01784.0067179.02584.00257.0083.005445.01629.008785.02429.003339.0079.0073088.01574.0113688.02274.004059.0075.0081692.01522.0129192.02222.0047459.0071.0101229.01315.0155029.02015.005383.0065.0110732.0126.0170532.0186.005978.006.0120735.01206.0186035.01706.006529.0054.0131138.0105.0201538.0155.007036.0049.0147209.00892.0222209.01292.007499.0044.0148176.00837.0227376.01137.007919.004.015998.0063.0242879.0093.008295.003.0172083.00472.0258383.00672.008627.002.017435.00323.0263549.00413.008916.00135.0177118.00207.0268718.00207v.52917c-.00229 0-.0044379-.00006-.0067179 0-.008962 0-.017645.00106-.026355.00206-.008715.001-.0174083.00265-.0258382.00465-.008427.002-.0167047.00424-.0248047.00724-.008096.002-.0160512.00578-.0237712.00878-.007724.0034-.0154276.00737-.0227376.01137-.00731.0039-.0143374.00792-.0211874.01292-.0068549.0048-.013277.0105-.019637.0155-.006358.0053-.0127835.01106-.0186035.01706-.005817.006-.0112965.0126-.0165365.0186-.005239.0065-.0098594.01315-.0144694.02015-.004609.007-.0089691.01471-.0129191.02171-.003952.0074-.007612.01474-.010852.02274-.00325.0078-.006285.01628-.008785.02428-.00249.0082-.0044912.01681-.0062012.02481-.00171.0085-.0027439.01684-.0036174.02584-.0008731.0088-.0015502.01787-.0015502.02687 0 .0092.0006502.01787.0015502.02687s.0018574.01736.0036174.02636c.00176.0086.0041479.01783.0067179.02583.00257.0083.005445.01629.008785.02429.003339.0079.0073088.01574.0113688.02274.004059.0075.0081692.01522.0129192.02222.0047459.0071.0101229.01315.0155029.02015.005383.0065.0110732.01261.0170532.01861.005978.006.0120735.01205.0186035.01705.006529.0054.0131138.0105.0201538.0155.007036.0049.0147209.00892.0222209.01292.007499.0044.0148176.00837.0227376.01137.007919.004.015998.0063.0242879.0093.008295.003.0172083.00472.0258383.00672.008627.002.017435.00324.0263549.00414.008916.00135.0177118.00206.0268718.00206 0 .14658-.1180077.26459-.2645833.26459h-.2645834c0-.0092-.0006503-.01788-.0015503-.02688-.0009-.0089-.0018573-.01735-.0036173-.02635-.00176-.0086-.004148-.01784-.006718-.02584-.00257-.0083-.005445-.01629-.008785-.02429-.0033389-.0079-.0073088-.01573-.0113688-.02273-.004059-.0075-.0081691-.01523-.0129191-.02223-.004746-.0071-.0101229-.01315-.0155029-.02015-.005383-.0065-.0110732-.0126-.0170532-.0186-.005977-.006-.0120735-.01206-.0186035-.01706-.006529-.0054-.0131139-.0105-.0201539-.0155-.0070359-.0049-.0147208-.00892-.0222208-.01292-.007499-.0044-.0148177-.00837-.0227376-.01137-.007919-.004-.015998-.00578-.024288-.00878-.008295-.003-.0172082-.00524-.0258382-.00724-.008628-.002-.017435-.00323-.026355-.00413-.008916-.00135-.0177117-.00207-.0268717-.00207-.00229 0-.004438-.00005-.0067179 0-.008962 0-.017635.00107-.026355.00207-.008715.001-.0174083.00317-.0258382.00517-.008427.002-.0167047.00423-.0248047.00723-.008096.002-.0160512.00579-.0237712.00879-.007724.0034-.0154276.00737-.0227376.01137-.00731.0039-.0143374.00791-.0211874.01291-.006854.0048-.013277.01051-.019637.01551-.006357.0054-.0127835.01105-.0186035.01705-.005817.0059-.0112965.0126-.0165365.0186-.005239.0065-.0098594.01316-.0144694.02016-.004609.007-.0089691.0147-.0129191.0217-.003952.0074-.007612.01474-.010852.02274-.00325.0078-.006295.01629-.008785.02429-.00249.0082-.0044912.0158-.0062012.0248-.00171.0085-.002744.01684-.0036174.02584-.0008732.0088-.0015502.01787-.0015502.02687h-.5291667c0-.0092-.0006502-.01787-.0015503-.02687-.0009-.0089-.0018574-.01735-.0036174-.02635-.00176-.0086-.0041479-.01784-.0067179-.02584-.00257-.0083-.005445-.01629-.008785-.02429-.003339-.0079-.0073088-.01574-.0113688-.02274-.004059-.0075-.0081691-.01522-.0129191-.02222-.004746-.0071-.0101229-.01315-.0155029-.02015-.005383-.0065-.0110733-.01261-.0170533-.01861-.005978-.006-.0120735-.01205-.0186035-.01705-.006529-.0054-.0131138-.0105-.0201538-.0155-.007036-.0049-.0147209-.00892-.0222209-.01292-.0074989-.0044-.0148176-.00837-.0227376-.01137-.007919-.004-.0159979-.00579-.0242879-.00879-.008295-.003-.0172082-.00523-.0258382-.00723-.008627-.002-.017435-.00323-.026355-.00413-.008916-.00135-.0177118-.00155-.0268718-.00155-.0022899 0-.0044379-.00005-.0067179 0-.008962 0-.017645.00055-.026355.00155-.008715.001-.0174082.00316-.0258382.00516-.008427.002-.0167047.00424-.0248047.00724-.008096.002-.0160511.00578-.0237711.00878-.007724.0034-.0154277.00737-.0227377.01137-.00731.0039-.0143373.00792-.0211873.01292-.006854.0048-.013277.0105-.019637.0155-.006358.0054-.0127836.01106-.0186036.01706-.005817.0059-.0112964.0126-.0165364.0186-.005239.0065-.0098594.01315-.0144694.02015-.004609.007-.0089691.01471-.0129191.02171-.003952.0074-.0076121.01474-.0108521.02274-.00324.0078-.006295.01628-.008785.02428-.00249.0082-.0044911.01581-.0062011.02481-.00171.0085-.0027439.01684-.0036174.02584-.0008731.0088-.0015503.01787-.0015503.02687h-.5291667c0-.0092-.0006502-.01787-.0015502-.02687-.0009-.0089-.0018574-.01736-.0036174-.02636-.00176-.0086-.0041479-.01784-.0067179-.02584-.00257-.0083-.005445-.01628-.008785-.02428-.003339-.0079-.0073088-.01574-.0113688-.02274-.004059-.0075-.0081692-.01522-.0129191-.02222-.004745-.0071-.010123-.01316-.015503-.02016-.005383-.0065-.0110732-.0126-.0170532-.0186-.005977-.006-.0120735-.01205-.0186035-.01705-.006529-.0054-.0131138-.01051-.0201538-.01551-.007036-.0049-.0147209-.00892-.0222209-.01292-.0075-.00439-.0148176-.00836-.0227376-.01136-.007919-.004-.015998-.00579-.0242879-.00879-.008295-.003-.0172083-.00523-.0258383-.00723-.008627-.002-.017435-.00324-.0263549-.00414-.008916-.00135-.0177118-.00155-.0268718-.00155-.00229 0-.0044379-.00005-.0067179 0-.008962 0-.017635.00055-.026355.00155-.008715.001-.0174082.00317-.0258382.00517-.008427.002-.0167047.00423-.0248047.00723-.008096.002-.0160512.00579-.0237712.00879-.007724.0034-.0154276.00737-.0227376.01137-.00731.0039-.0143373.00792-.0211873.01292-.006854.0048-.0132771.0105-.0196371.0155-.006357.0054-.0127835.01105-.0186035.01705-.005817.0059-.0112965.01261-.0165365.01861-.0052389.0065-.0098594.01315-.0144694.02015-.0046089.007-.0089691.01471-.0129191.02171-.003952.0074-.007612.01473-.010852.02273-.00324.0078-.006295.01629-.008785.02429-.00249.0082-.0044912.01581-.0062012.02481-.00171.0085-.0027439.01683-.0036173.02583-.0008732.0088-.0015503.01788-.0015503.02688h-.2645834c-.1465758 0-.2645833-.11801-.2645833-.26459.009161 0 .0179518-.00116.0268718-.00206.0089159-.001.0177249-.00162.0263549-.00362.008627-.002.0175483-.00424.0258383-.00724.0082949-.003.0163679-.00578.0242879-.00878.007919-.0034.0152376-.00737.0227376-.01137.007499-.0039.0151809-.00792.0222209-.01292.007036-.0047.0136238-.0105.0201538-.0155.006529-.0054.0126235-.01157.0186035-.01757.005978-.006.0116732-.01161.0170532-.01861.005384-.0066.010753-.01315.0155029-.02015.004749-.007.0088592-.01522.0129192-.02222.004069-.0075.0080288-.01422.0113688-.02222.00334-.0079.006215-.01681.008785-.02481.00257-.0083.0049579-.01632.0067179-.02532.00176-.0087.0027173-.01787.0036174-.02687.0008997-.0089.0015502-.01787.0015502-.02687 0-.0092-.0006502-.01787-.0015502-.02687s-.0018574-.01736-.0036174-.02636c-.00176-.0086-.0041479-.01784-.0067179-.02584-.00257-.0083-.005445-.01628-.008785-.02428-.003339-.0079-.0073088-.01574-.0113688-.02274-.004059-.0075-.0081692-.01522-.0129192-.02222-.0047449-.0071-.0101229-.01316-.0155029-.02016-.005383-.0065-.0110732-.0126-.0170532-.0186-.005979-.0059-.0120735-.01205-.0186035-.01705-.006529-.0054-.0131138-.01051-.0201538-.01551-.007036-.0049-.0147209-.0084-.0222209-.0124-.0075-.0044-.0148176-.00888-.0227376-.01188-.007919-.004-.015998-.00579-.0242879-.00879-.008295-.003-.0172083-.00523-.0258383-.00723-.008627-.002-.017435-.00272-.0263549-.00362-.008916-.00135-.0177118-.00207-.0268718-.00207v-.52917c.009161 0 .0179518-.00116.0268718-.00206.0089159-.001.0177249-.00214.0263549-.00414.008627-.002.0175483-.00371.0258383-.00671.0082949-.003.0163679-.00631.0242879-.00931.007919-.0034.0152376-.00736.0227376-.01136.007499-.0039.0151809-.00792.0222209-.01292.007036-.0047.0136238-.01051.0201538-.01551.006529-.0054.0126235-.01105.0186035-.01705.005978-.006.0116732-.0116.0170532-.0186.005384-.0066.010753-.01316.0155029-.02016.004749-.007.0088592-.01522.0129192-.02222.004069-.0075.0080288-.01474.0113688-.02274.00334-.0079.006215-.01628.008785-.02428.00257-.0082.0049579-.01684.0067179-.02584.00176-.0086.0027173-.01736.0036174-.02636.0008997-.009.0015502-.01787.0015502-.02687 0-.0092-.0006502-.01787-.0015502-.02687s-.0018574-.01736-.0036174-.02636c-.00176-.0086-.0041479-.01783-.0067179-.02583-.00257-.0083-.005445-.01629-.008785-.02429-.003339-.0079-.0073088-.01574-.0113688-.02274-.004059-.0075-.0081692-.01522-.0129192-.02222-.0047449-.0071-.0101229-.01315-.0155029-.02015-.005383-.0065-.0110732-.01261-.0170532-.01861-.005979-.006-.0120735-.01205-.0186035-.01705-.006529-.0054-.0131138-.0105-.0201538-.0155-.007036-.0049-.0147209-.00892-.0222209-.01292-.0075-.0044-.0148176-.00837-.0227376-.01137-.007919-.004-.015998-.00579-.0242879-.00879-.008295-.003-.0172083-.00523-.0258383-.00723-.008627-.002-.017435-.00324-.0263549-.00414-.008916-.00135-.0177118-.00155-.0268718-.00155v-.52916c.009162 0 .0179518-.00117.0268718-.00207.0089159-.001.0177249-.00213.0263549-.00413.008627-.002.0175383-.00424.0258383-.00724.0082949-.003.0163679-.00578.0242879-.00878.007919-.0034.0152376-.00737.0227376-.01137.007499-.0039.0151809-.00792.0222209-.01292.007036-.0048.0136238-.0105.0201538-.0155.006529-.0054.0126235-.01106.0186035-.01706.005978-.006.0116732-.0116.0170532-.0186.005383-.0066.010753-.01315.0155029-.02015.004749-.007.0088592-.01523.0129192-.02223.004059-.0075.0080288-.01473.0113688-.02273.00334-.0079.006215-.01629.008785-.02429.00257-.0083.0049579-.01684.0067179-.02584.00176-.0087.0027173-.01735.0036174-.02635.0008996-.0089.0015502-.01788.0015502-.02688 0-.0092-.0006503-.01838-.0015502-.02738-.0009-.0089-.0018574-.01684-.0036174-.02584-.00176-.0086-.0041479-.01784-.0067179-.02584-.00257-.0083-.005445-.01629-.008785-.02429-.003339-.0079-.0073088-.01574-.0113688-.02274-.004059-.0075-.0081692-.01522-.0129192-.02222-.0047449-.0071-.0101229-.01315-.0155029-.02015-.005383-.0065-.0110732-.0126-.0170532-.0186-.005978-.0059-.0120735-.01206-.0186035-.01706-.006529-.0054-.0131138-.0105-.0201538-.0155-.007036-.0049-.0147209-.00892-.0222209-.01292-.0075-.0044-.0148176-.00837-.0227376-.01137-.007919-.004-.015998-.00578-.0242879-.00878-.008295-.003-.0172083-.00524-.0258383-.00724-.008627-.002-.017435-.00323-.0263549-.00413-.008916-.00135-.0177118-.00155-.0268718-.00155v-.52969c.009162 0 .0179518-.00065.0268718-.00155.0089159-.001.0177249-.00213.0263549-.00413.008627-.002.0175383-.00424.0258383-.00724.0082949-.003.0163679-.00578.0242879-.00878.007919-.0034.0152376-.00737.0227376-.01137.007499-.0039.0151809-.00792.0222209-.01292.007036-.0047.0136238-.0105.0201538-.0155.006529-.0054.0126235-.01105.0186035-.01705.005978-.006.0116732-.01161.0170532-.01861.005383-.0066.010753-.01315.0155029-.02015.004749-.007.0088592-.01522.0129192-.02222.004059-.0075.0080288-.01474.0113688-.02274.00334-.0079.006215-.01629.008785-.02429.00257-.0083.0049579-.01684.0067179-.02584.00176-.0087.0027173-.01735.0036174-.02635.0008996-.0089.0015502-.01787.0015502-.02687 0-.0092-.0006503-.01787-.0015502-.02687-.0009-.009-.0018574-.01736-.0036174-.02636-.00176-.0086-.0041479-.01784-.0067179-.02584-.00257-.0083-.005445-.01629-.008785-.02429-.003339-.0079-.0073088-.01573-.0113688-.02273-.004059-.0075-.0081692-.01522-.0129192-.02222-.0047449-.0071-.0101229-.01316-.0155029-.02016-.005383-.0065-.0110732-.0126-.0170532-.0186-.005978-.006-.0120735-.01205-.0186035-.01705-.006529-.0054-.0131138-.01051-.0201538-.01551-.007036-.0049-.0147209-.00892-.0222209-.01292-.0075-.0044-.0148176-.00837-.0227376-.01137-.007919-.004-.015998-.0063-.0242879-.0093-.008295-.003-.0172083-.00472-.0258383-.00672-.008627-.002-.017435-.00323-.0263549-.00413-.008916-.00135-.0177118-.00207-.0268718-.00207 0-.14658.1180075-.26458.2645833-.26458zm.5291667.79375v2.64583h2.1166667v-2.64583z" fill="#fff" fill-opacity=".3"/><g fill-opacity=".2"><path d="m4.2333337 289.85625c-.2204858 0-.4112391.14535-.5012614.28939-.090023.14404-.1300009.28809-.1762167.41134-.046216.12324-.095339.22077-.1462443.27389-.050906.0531-.09497.0837-.234611.0837h-2.6458333c-.2885752.00001-.5291667.2406-.5291667.52918v4.7625c0 .28858.2405883.52917.5291667.52917h7.4083333c.2885784 0 .5291667-.24059.5291667-.52917v-5.82083c0-.28858-.2405915-.52917-.5291667-.52917zm0 .26458h3.7041666c.1465812 0 .2645834.11801.2645834.26459v5.82083c0 .14658-.118002.26458-.2645834.26458h-7.4083333c-.1465818 0-.2645834-.118-.2645834-.26458v-4.7625c0-.14658.1180016-.26458.2645834-.26458h2.6458333c.7937492 0 .5291673-1.05834 1.0583334-1.05834z"/><path d="m2.6458004 291.70833c-.146576 0-.2645834.11801-.2645834.26459.00916 0 .017956.00065.026872.002.00892.0009.017728.002.026355.004.00863.002.017543.004.025838.007.00829.003.016369.005.024288.009.00792.003.015238.007.022738.0114.0075.004.015185.008.022221.0129.00704.005.013625.0101.020154.0155.00653.005.012626.0111.018604.0171.00598.006.01167.0121.017053.0186.00538.007.010758.0131.015503.0202.00475.007.00886.0147.012919.0222.00406.007.00803.0148.011369.0227.00334.008.00622.016.00879.0243.00257.008.00496.0172.00672.0258.00176.009.00272.0174.00362.0264s.00155.0177.00155.0269c0 .009-.0006503.018-.00155.0269-.0009001.009-.00186.0177-.00362.0264-.00176.009-.00415.0175-.00672.0258-.00257.008-.00545.0164-.00879.0243-.00334.008-.00731.0152-.011369.0227-.00406.007-.00817.0152-.012919.0222-.00475.007-.01012.0136-.015503.0202-.00538.007-.011075.0126-.017053.0186-.00598.006-.012075.0117-.018604.0171-.00653.005-.013118.0108-.020154.0155-.00704.005-.014722.009-.022221.0129-.0075.004-.014819.008-.022738.0114-.00792.003-.015993.006-.024288.009-.0083.003-.017211.005-.025838.007-.00863.002-.017439.003-.026355.004-.00892.0009-.01771.002-.026872.002v.52917c.00916 0 .017956.00065.026872.002.00892.0009.017728.002.026355.004.00863.002.017543.004.025838.007.00829.003.016369.005.024288.009.00792.003.015238.007.022738.0114.0075.004.015185.008.022221.0129.00704.005.013625.0101.020154.0155.00653.005.012626.0111.018604.017.00598.006.01167.0121.017053.0186.00538.007.010758.0131.015503.0202.00475.007.00886.0147.012919.0222.00406.007.00803.0148.011369.0227.00334.008.00622.016.00879.0243.00257.008.00496.0172.00672.0258.00176.009.00272.0169.00362.0258.0009.009.00155.0182.00155.0274 0 .009-.0006503.018-.00155.0269-.0009001.009-.00186.0177-.00362.0264-.00176.009-.00415.0175-.00672.0258-.00257.008-.00545.0164-.00879.0243-.00334.008-.00731.0152-.011369.0227-.00406.007-.00817.0152-.012919.0222-.00475.007-.01012.0136-.015503.0202-.00538.007-.011075.0126-.017053.0186-.00598.006-.012075.0117-.018604.0171-.00653.005-.013118.0107-.020154.0155-.00704.005-.014722.009-.022221.0129-.0075.004-.014819.008-.022738.0114-.00792.003-.015993.006-.024288.009-.0083.003-.017211.005-.025838.007-.00863.002-.017439.003-.026355.004-.00892.0009-.01771.002-.026872.002v.52916c.00916 0 .017956.00065.026872.002.00892.0009.017728.002.026355.004.00863.002.017543.004.025838.007.00829.003.016369.005.024288.009.00792.003.015238.007.022738.0114.0075.004.015185.008.022221.0129.00704.005.013625.0101.020154.0155.00653.005.012625.0111.018604.0171.00598.006.01167.0121.017053.0186.00538.007.010758.0131.015503.0202.00475.007.00886.0147.012919.0222.00406.007.00803.0148.011369.0227.00334.008.00622.016.00879.0243.00257.008.00496.0172.00672.0258.00176.009.00272.0174.00362.0264.0009001.009.00155.0177.00155.0269 0 .009-.0006502.0179-.00155.0269-.0009001.009-.00186.0177-.00362.0263-.00176.009-.00415.0176-.00672.0258-.00257.008-.00545.0164-.00879.0243-.00334.008-.0073.0152-.011369.0227-.00406.007-.00817.0152-.012919.0222-.00475.007-.010119.0136-.015503.0202-.00538.007-.011075.0126-.017053.0186-.00598.006-.012075.0117-.018604.0171-.00653.005-.013118.0108-.020154.0155-.00704.005-.014722.009-.022221.0129-.0075.004-.014819.008-.022738.0114-.00792.003-.015993.006-.024288.009-.00829.003-.017211.005-.025838.007-.00863.002-.017439.003-.026355.004-.00892.0009-.017711.002-.026872.002v.52917c.00916 0 .017956.00065.026872.002.00892.0009.017728.002.026355.004.00863.002.017543.004.025838.007.00829.003.016369.005.024288.009.00792.003.015238.007.022738.0114.0075.004.015185.008.022221.0129.00704.005.013625.0101.020154.0155.00653.005.012625.0111.018604.017.00598.006.01167.0121.017053.0186.00538.007.010758.0131.015503.0202.00475.007.00886.0147.012919.0222.00406.007.00803.0148.011369.0227.00334.008.00622.016.00879.0243.00257.008.00496.0172.00672.0258.00176.009.00272.0174.00362.0264.0009001.009.00155.0177.00155.0269 0 .009-.0006502.018-.00155.0269-.0009001.009-.00186.0177-.00362.0264-.00176.009-.00415.0175-.00672.0258-.00257.008-.00545.0164-.00879.0243-.00334.008-.0073.0152-.011369.0227-.00406.007-.00817.0152-.012919.0222-.00475.007-.010119.0136-.015503.0202-.00538.007-.011075.0126-.017053.0186-.00598.006-.012075.0117-.018604.0171-.00653.005-.013118.0108-.020154.0155-.00704.005-.014722.009-.022221.0129-.0075.004-.014819.008-.022738.0114-.00792.003-.015993.006-.024288.009-.00829.003-.017211.005-.025838.007-.00863.002-.017439.003-.026355.004-.00892.0009-.017711.002-.026872.002 0 .14658.1180074.26459.2645834.26459h.2645833c0-.009.0006768-.0181.00155-.0269.0008734-.009.00191-.0173.00362-.0258.00171-.009.00371-.0166.0062-.0248.00249-.008.00554-.0165.00878-.0243.00324-.008.0069-.0153.010852-.0227.00395-.007.00831-.0147.012919-.0217.00461-.007.00923-.0137.014469-.0202.00524-.006.010719-.0127.016536-.0186.00582-.006.012247-.0117.018604-.0171.00636-.005.012783-.0107.019637-.0155.00685-.005.013877-.009.021187-.0129.00731-.004.015014-.008.022738-.0114.00772-.003.015675-.007.023771-.009.0081-.003.016378-.005.024805-.007.00843-.002.017123-.004.025838-.005.00872-.001.017393-.002.026355-.002.00228-.00005.00443 0 .00672 0 .00916 0 .017956.00065.026872.002.00892.0009.017728.002.026355.004.00863.002.017543.004.025838.007.00829.003.016369.005.024288.009.00792.003.015238.007.022738.0114.0075.004.015185.008.022221.0129.00704.005.013625.0101.020154.0155.00653.005.012626.0111.018603.0171.00598.006.01167.0121.017053.0186.00538.007.010758.0131.015503.0202.00475.007.00886.0147.012919.0222.00406.007.00803.0148.011369.0227.00334.008.00622.016.00879.0243.00257.008.00496.0172.00672.0258.00176.009.00272.0174.00362.0263.0009.009.00155.0177.00155.0269h.5291666c0-.009.0006769-.0181.00155-.0269.0008735-.009.00191-.0173.00362-.0258.00171-.009.00371-.0166.0062-.0248.00249-.008.00554-.0165.00878-.0243.00324-.008.0069-.0153.010852-.0227.00395-.007.00831-.0147.012919-.0217.00461-.007.00923-.0137.014469-.0202.00524-.006.010719-.0127.016536-.0186.00582-.006.012246-.0117.018604-.0171.00636-.005.012783-.0107.019637-.0155.00685-.005.013877-.009.021187-.0129.00731-.004.015014-.008.022738-.0114.00772-.003.015675-.007.023771-.009.0081-.003.016378-.005.024805-.007.00843-.002.017123-.004.025838-.005.00871-.001.017393-.002.026355-.002.00228-.00005.00443 0 .00672 0 .00916 0 .017956.00065.026872.002.00892.0009.017728.002.026355.004.00863.002.017543.004.025838.007.00829.003.016369.005.024288.009.00792.003.015239.007.022738.0114.0075.004.015185.008.022221.0129.00704.005.013625.0101.020154.0155.00653.005.012626.0111.018604.0171.00598.006.01167.0121.017053.0186.00538.007.010757.0131.015503.0202.00475.007.00886.0147.012919.0222.00406.007.00803.0148.011369.0227.00334.008.00622.016.00879.0243.00257.008.00496.0172.00672.0258.00176.009.00272.0174.00362.0263.0009001.009.00155.0177.00155.0269h.5291667c0-.009.0006768-.0181.00155-.0269.0008734-.009.00191-.0173.00362-.0258.00171-.009.00371-.0166.0062-.0248.00249-.008.00554-.0165.00879-.0243.00324-.008.0069-.0153.010852-.0227.00395-.007.00831-.0147.012919-.0217.00461-.007.00923-.0137.014469-.0202.00524-.006.010719-.0127.016536-.0186.00582-.006.012247-.0117.018604-.0171.00636-.005.012783-.0107.019637-.0155.00685-.005.013877-.009.021187-.0129.00731-.004.015014-.008.022738-.0114.00772-.003.015675-.007.023771-.009.0081-.003.016378-.005.024805-.007.00843-.002.017123-.004.025838-.005.00872-.001.017393-.002.026355-.002.00228-.00005.00443 0 .00672 0 .00916 0 .017956.00065.026872.002.00892.0009.017727.002.026355.004.00863.002.017543.004.025838.007.00829.003.016369.005.024288.009.00792.003.015239.007.022738.0114.0075.004.015185.008.022221.0129.00704.005.013625.0101.020154.0155.00653.005.012626.0111.018603.0171.00598.006.01167.0121.017053.0186.00538.007.010757.0131.015503.0202.00475.007.00886.0147.012919.0222.00406.007.00803.0148.011369.0227.00334.008.00622.016.00879.0243.00257.008.00496.0172.00672.0258.00176.009.00272.0174.00362.0263.0009.009.00155.0177.00155.0269h.2645834c.1465758 0 .2645833-.11801.2645833-.26459-.00916 0-.017956-.00065-.026872-.002-.00892-.0009-.017728-.002-.026355-.004-.00863-.002-.017543-.004-.025838-.007-.00829-.003-.016369-.005-.024288-.009-.00792-.003-.015239-.007-.022738-.0114-.0075-.004-.015185-.008-.022221-.0129-.00704-.005-.013625-.0101-.020154-.0155-.00653-.005-.012625-.0111-.018603-.0171-.00598-.006-.01167-.0121-.017053-.0186-.00538-.007-.010757-.0131-.015503-.0202-.00475-.007-.00886-.0147-.012919-.0222-.00406-.007-.00803-.0148-.011369-.0227-.00334-.008-.00622-.016-.00879-.0243-.00257-.008-.00496-.0172-.00672-.0258-.00176-.009-.00272-.0174-.00362-.0264-.0009001-.009-.00155-.0177-.00155-.0269 0-.009.0006768-.0181.00155-.0269.0008735-.009.00191-.0173.00362-.0258.00171-.008.00371-.0166.0062-.0248.0025-.008.00554-.0165.00879-.0243.00324-.008.0069-.0153.010852-.0227.00395-.007.00831-.0147.012919-.0217.00461-.007.00923-.0137.014469-.0202.00524-.006.010719-.0126.016536-.0186.00582-.006.012246-.0117.018604-.017.00636-.005.012782-.0107.019637-.0155.00685-.005.013877-.009.021187-.0129.00731-.004.015014-.008.022738-.0114.00772-.003.015675-.007.023771-.009.0081-.003.016378-.005.024805-.007.00843-.002.017123-.004.025838-.005.00871-.001.017393-.002.026355-.002.00228-.00006.00443 0 .00672 0v-.52917c-.00916 0-.017956-.00065-.026872-.002-.00892-.0009-.017728-.002-.026355-.004-.00863-.002-.017543-.004-.025838-.007-.00829-.003-.016369-.005-.024288-.009-.00792-.003-.015239-.007-.022738-.0114-.0075-.004-.015185-.008-.022221-.0129-.00704-.005-.013625-.0101-.020154-.0155-.00653-.005-.012625-.0111-.018603-.0171-.00598-.006-.01167-.0121-.017053-.0186-.00538-.007-.010757-.0131-.015503-.0202-.00475-.007-.00886-.0147-.012919-.0222-.00406-.007-.00803-.0148-.011369-.0227-.00334-.008-.00622-.016-.00879-.0243-.00257-.008-.00496-.0172-.00672-.0258-.00176-.009-.00272-.0174-.00362-.0263-.0009001-.009-.00155-.0177-.00155-.0269 0-.009.0006768-.0181.00155-.0269.0008735-.009.00191-.0173.00362-.0258.00171-.009.00371-.0166.0062-.0248.0025-.008.00554-.0165.00879-.0243.00324-.008.0069-.0153.010852-.0227.00395-.007.00831-.0147.012919-.0217.00461-.007.00923-.0137.014469-.0202.00524-.006.010719-.0127.016536-.0186.00582-.006.012246-.0117.018604-.0171.00636-.005.012782-.0107.019637-.0155.00685-.005.013877-.009.021187-.0129.00731-.004.015014-.008.022738-.0114.00772-.003.015675-.007.023771-.009.0081-.003.016378-.005.024805-.007.00843-.002.017123-.004.025838-.005.00871-.001.017393-.002.026355-.002.00228-.00005.00443 0 .00672 0v-.52916c-.00916 0-.017956-.00065-.026872-.002-.00892-.0009-.017728-.002-.026355-.004-.00863-.002-.017543-.004-.025838-.007-.00829-.003-.016369-.005-.024288-.009-.00792-.003-.015239-.007-.022738-.0114-.0075-.004-.015185-.008-.022221-.0129-.00704-.005-.013625-.0101-.020154-.0155-.00653-.005-.012626-.0111-.018603-.0171-.00598-.006-.01167-.0121-.017053-.0186-.00538-.007-.010757-.0131-.015503-.0202-.00475-.007-.00886-.0147-.012919-.0222-.00406-.007-.00803-.0148-.011369-.0227-.00334-.008-.00622-.016-.00879-.0243-.00257-.008-.00496-.0172-.00672-.0258-.00176-.009-.00272-.0174-.00362-.0264-.0009001-.009-.00155-.0177-.00155-.0269 0-.009.0006768-.0181.00155-.0269.0008734-.009.00191-.0173.00362-.0258.00171-.008.00371-.0166.0062-.0248.0025-.008.00554-.0165.00879-.0243.00324-.008.0069-.0153.010852-.0227.00395-.007.00831-.0147.012919-.0217.00461-.007.00923-.0137.014469-.0202.00524-.006.010719-.0127.016536-.0186.00582-.006.012246-.0117.018604-.017.00636-.005.012783-.0107.019637-.0155.00685-.005.013877-.009.021187-.0129.00731-.004.015014-.008.022738-.0114.00772-.003.015675-.007.023771-.009.0081-.003.016378-.005.024805-.007.00843-.002.017123-.004.025838-.005.00872-.001.017393-.002.026355-.002.00228-.00006.00443 0 .00672 0v-.52917c-.00916 0-.017956-.00065-.026872-.002-.00892-.0009-.017728-.002-.026355-.004-.00863-.002-.017543-.004-.025838-.007-.00829-.003-.016369-.005-.024288-.009-.00792-.003-.015239-.007-.022738-.0114-.0075-.004-.015185-.008-.022221-.0129-.00704-.005-.013625-.0101-.020154-.0155-.00653-.005-.012626-.0111-.018603-.0171-.00598-.006-.01167-.0121-.017053-.0186-.00538-.007-.010757-.0131-.015503-.0202-.00475-.007-.00886-.0147-.012919-.0222-.00406-.007-.00803-.0148-.011369-.0227-.00334-.008-.00622-.016-.00879-.0243-.00257-.008-.00496-.0172-.00672-.0258-.00176-.009-.00272-.0174-.00362-.0264-.0009001-.009-.00155-.0177-.00155-.0269 0-.009.0006768-.0181.00155-.0269.0008734-.009.00191-.0173.00362-.0258.00171-.008.00371-.0166.0062-.0248.0025-.008.00554-.0165.00879-.0243.00324-.008.0069-.0153.010852-.0227.00395-.007.00831-.0147.012919-.0217.00461-.007.00923-.0137.014469-.0202.00524-.006.010719-.0126.016536-.0186.00582-.006.012246-.0117.018604-.0171.00636-.005.012783-.0107.019637-.0155.00685-.005.013877-.009.021187-.0129.00731-.004.015014-.008.022738-.0114.00772-.003.015675-.007.023771-.009.0081-.003.016378-.005.024805-.007.00843-.002.017123-.004.025838-.005.00872-.001.017393-.002.026355-.002.00228-.00006.00443 0 .00672 0 0-.14658-.1180075-.26459-.2645833-.26459h-.2645834c0 .009-.0006502.018-.00155.0269-.0009001.009-.00186.0177-.00362.0263-.00176.009-.00415.0175-.00672.0258-.00257.008-.00545.0164-.00879.0243-.00334.008-.00731.0152-.011369.0227-.00406.007-.00817.0152-.012919.0222-.00475.007-.01012.0136-.015503.0202-.00538.007-.011075.0126-.017053.0186-.00598.006-.012075.0117-.018603.0171-.00653.005-.013118.0107-.020154.0155-.00704.005-.014722.009-.022221.0129-.0075.004-.014819.008-.022738.0114-.00792.003-.015993.006-.024288.009-.00829.003-.017211.005-.025838.007-.00863.002-.017439.003-.026355.004-.00892.0009-.01771.002-.026872.002-.00916 0-.017956-.00065-.026872-.002-.00892-.0009-.017728-.002-.026355-.004-.00863-.002-.017543-.004-.025838-.007-.00829-.003-.016369-.005-.024288-.009-.00792-.003-.015238-.007-.022738-.0114-.0075-.004-.015185-.008-.022221-.0129-.00704-.005-.013625-.0101-.020154-.0155-.00653-.005-.012626-.0111-.018604-.0171-.00598-.006-.01167-.0121-.017053-.0186-.00538-.007-.010757-.0131-.015503-.0202-.00475-.007-.00886-.0147-.012919-.0222-.00406-.007-.00803-.0148-.011369-.0227-.00334-.008-.00622-.016-.00879-.0243-.00257-.008-.00496-.0172-.00672-.0258-.00176-.009-.00272-.0174-.00362-.0263-.0009001-.009-.00155-.0177-.00155-.0269h-.5291667c0 .009-.0006502.018-.00155.0269-.0009.009-.00186.0177-.00362.0263-.00176.009-.00415.0175-.00672.0258-.00257.008-.00545.0164-.00879.0243-.00334.008-.00731.0152-.011369.0227-.00406.007-.00817.0152-.012919.0222-.00475.007-.010119.0136-.015503.0202-.00538.007-.011075.0126-.017053.0186-.00598.006-.012075.0117-.018604.0171-.00653.005-.013118.0107-.020154.0155-.00704.005-.014722.009-.022221.0129-.0075.004-.014819.008-.022738.0114-.00792.003-.015993.006-.024288.009-.00829.003-.017211.005-.025838.007-.00863.002-.017439.003-.026355.004-.00892.0009-.01771.002-.026872.002-.00916 0-.017956-.00065-.026872-.002-.00892-.0009-.017727-.002-.026355-.004-.00863-.002-.017543-.004-.025838-.007-.0083-.003-.016369-.005-.024288-.009-.00792-.003-.015238-.007-.022738-.0114-.0075-.004-.015185-.008-.022221-.0129-.00704-.005-.013625-.0101-.020154-.0155-.00653-.005-.012626-.0111-.018604-.0171-.00598-.006-.01167-.0121-.017053-.0186-.00538-.007-.010758-.0131-.015503-.0202-.00475-.007-.00886-.0147-.012919-.0222-.00406-.007-.00803-.0148-.011369-.0227-.00334-.008-.00622-.016-.00879-.0243-.00257-.008-.00496-.0172-.00672-.0258-.00176-.009-.00272-.0174-.00362-.0263-.0009-.009-.00155-.0177-.00155-.0269h-.5291666c0 .009-.0006503.018-.00155.0269-.0009001.009-.00186.0177-.00362.0263-.00176.009-.00415.0175-.00672.0258-.00257.008-.00545.0164-.00879.0243-.00334.008-.00731.0152-.011369.0227-.00406.007-.00817.0152-.012919.0222-.00475.007-.01012.0136-.015503.0202-.00538.007-.011075.0126-.017053.0186-.00598.006-.012075.0117-.018603.0171-.00653.005-.013118.0107-.020154.0155-.00704.005-.014722.009-.022221.0129-.0075.004-.014819.008-.022738.0114-.00792.003-.015993.006-.024288.009-.0083.003-.017211.005-.025838.007-.00863.002-.017439.003-.026355.004-.00892.0009-.01771.002-.026872.002-.00916 0-.017956-.00065-.026872-.002-.00892-.0009-.017728-.002-.026355-.004-.00863-.002-.017543-.004-.025838-.007-.00829-.003-.016369-.005-.024288-.009-.00792-.003-.015238-.007-.022738-.0114-.0075-.004-.015185-.008-.022221-.0129-.00704-.005-.013625-.0101-.020154-.0155-.00653-.005-.012626-.0111-.018603-.0171-.00598-.006-.01167-.0121-.017053-.0186-.00538-.007-.010757-.0131-.015503-.0202-.00475-.007-.00886-.0147-.012919-.0222-.00406-.007-.00803-.0148-.011369-.0227-.00334-.008-.00622-.016-.00879-.0243-.00257-.008-.00496-.0172-.00672-.0258-.00176-.009-.00272-.0174-.00362-.0263-.0009001-.009-.00155-.0177-.00155-.0269zm.5291666.79375h2.1166667v2.64584h-2.1166667z"/></g></g></svg>
