<svg height="32" viewBox="0 0 8.4666665 8.4666669" width="32" xmlns="http://www.w3.org/2000/svg"><defs id="kuyenfoldercolor">
    <style type="text/css" id="current-color-scheme">
      .ColorScheme-Highlight {
        color:#03b2fe;
      }
      </style>
  </defs><g transform="translate(4.7625 -288.004157)"><g transform="translate(-4.7625 -.52916)"><path d="m.5291667 288.79791c-.2885755 0-.5291667.24059-.5291667.52917v6.87916c0 .28858.240588.52917.5291667.52917h7.4083333c.2885787 0 .5291667-.24059.5291667-.52917v-5.82083c0-.28858-.2405912-.52917-.5291667-.52917h-3.7041667c-.044097 0-.058041-.007-.1111043-.0703-.053063-.0637-.1152385-.18034-.1813843-.31264-.066146-.13229-.1362626-.2802-.2485636-.41496-.1123011-.13474-.2967951-.26043-.5172811-.26043z" style="fill:currentColor"
class="ColorScheme-Highlight"/><path d="m.52916665 288.79791c-.2885752 0-.5291667.24059-.5291667.52917v6.87916c0 .28858.2405883.52917.5291667.52917h7.40833325c.2885785 0 .5291667-.24059.5291667-.52917v-5.82083c0-.28858-.2405914-.52917-.5291667-.52917h-3.7041666c-.044097 0-.058041-.007-.1111044-.0703-.053063-.0637-.1152385-.18034-.1813842-.31264-.066146-.13229-.1362628-.2802-.2485637-.41496-.112301-.13474-.2967953-.26045-.5172811-.26045zm0 .26458h2.64583325c.5291662 0 .5291673 1.05834 1.0583334 1.05834h3.7041666c.1465812 0 .2645834.118.2645834.26458v5.82083c0 .14658-.118002.26459-.2645834.26459h-7.40833325c-.1465816 0-.2645834-.11801-.2645834-.26459v-6.87916c0-.14659.1180018-.26459.2645834-.26459z" fill-opacity=".2"/><path d="m.5291666 289.0625c-.1465817 0-.2645833.11799-.2645833.26458v6.87917c0 .14658.1180016.26458.2645833.26458h7.4083337c.1465815 0 .2645831-.118.2645831-.26458v-5.82084c0-.14658-.1180018-.26458-.2645831-.26458h-3.704167c-.5291666 0-.5291666-1.05834-1.0583333-1.05834z" fill="#fff" fill-opacity=".06" stroke-width=".529167"/><path d="m4.2333333 289.85624c-.220486 0-.4112389.14535-.5012613.28939-.090023.14404-.1300009.2881-.1762167.41135-.046216.12324-.095339.22076-.1462442.27388-.050906.0531-.09497.0837-.2346111.0837h-2.6458333c-.2885755-0-.5291667.24058-.5291667.52916v4.7625c0 .28858.240588.52917.5291667.52917h7.4083333c.2885787 0 .5291667-.24059.5291667-.52917v-5.82083c0-.28858-.2405912-.52917-.5291667-.52917z" style="fill:currentColor"
class="ColorScheme-Highlight"/><path d="m4.2333334 290.12082c-.5291613 0-.2645905 1.05833-1.0583333 1.05833h-2.64583333c-.14658055 0-.26458334.118-.26458334.26458v4.7625c0 .14658.11800279.26459.26458334.26459h7.40833333c.1465805 0 .2645834-.11801.2645834-.26459v-5.82083c0-.14655-.1180031-.26458-.2645834-.26458zm.0025839 1.8526c.0272388 0 .0543861.00055.0816487.00155.4061014.01835.7948874.16979 1.1063925.43098l-1.1906251 1.41903h1.8520834c.0000002.86836-.6033115 1.62015-1.4510742 1.80816-.8477948.18801-1.7123813-.23827-2.0794597-1.02526-.3670376-.787-.1380009-1.72335.5508708-2.25206.3031092-.23261.6694054-.36475 1.0485148-.38085.0270793-.001.0544099-.00155.0816488-.00155zm-.6640422.79323c-.2198688 0-.396875.17701-.396875.39688 0 .21986.1770062.39687.396875.39687s.396875-.17701.396875-.39687c0-.21987-.1770062-.39688-.396875-.39688z" fill="#fff" fill-opacity=".3"/><path d="m4.2333337 289.85625c-.2204858 0-.4112391.14535-.5012614.28939-.090023.14404-.1300009.28809-.1762167.41134-.046216.12324-.095339.22077-.1462443.27389-.050906.0531-.09497.0837-.234611.0837h-2.6458333c-.2885752.00001-.5291667.2406-.5291667.52918v4.7625c0 .28858.2405883.52917.5291667.52917h7.4083333c.2885784 0 .5291667-.24059.5291667-.52917v-5.82083c0-.28858-.2405915-.52917-.5291667-.52917zm0 .26458h3.7041666c.1465812 0 .2645834.11801.2645834.26459v5.82083c0 .14658-.118002.26458-.2645834.26458h-7.4083333c-.1465818 0-.2645834-.118-.2645834-.26458v-4.7625c0-.14658.1180016-.26458.2645834-.26458h2.6458333c.7937492 0 .5291673-1.05834 1.0583334-1.05834z" fill-opacity=".2"/></g><path d="m-.60823106 291.44581c-.37910981.0161-.74540534.14825-1.04851484.38086-.6888724.52871-.9179087 1.46505-.5508707 2.25205.3670787.78699 1.23166393 1.21327 2.07945956 1.02526.84776362-.18801 1.45107444-.93979 1.45107424-1.80815h-1.85208335l1.19062498-1.41904c-.31150533-.26119-.70029069-.41263-1.1063925-.43098-.0545253-.002-.10913877-.002-.16329739 0zm-.58239344.79168c.21986904 0 .39687502.17701.39687502.39688s-.17700598.39687-.39687502.39687c-.219869 0-.396875-.177-.396875-.39687s.177006-.39688.396875-.39688z" fill-opacity=".2"/></g></svg>
