<svg height="32" viewBox="0 0 8.4666662 8.4666664" width="32" xmlns="http://www.w3.org/2000/svg"><defs id="kuyenfoldercolor">
    <style type="text/css" id="current-color-scheme">
      .ColorScheme-Highlight {
        color:#03b2fe;
      }
      </style>
  </defs><g transform="translate(0 -288.53338)"><g transform="translate(-0 .000058)"><path d="m.5291667 288.79791c-.2885755 0-.5291667.24059-.5291667.52917v6.87916c0 .28858.240588.52917.5291667.52917h7.4083333c.2885787 0 .5291667-.24059.5291667-.52917v-5.82083c0-.28858-.2405912-.52917-.5291667-.52917h-3.7041667c-.044097 0-.058041-.007-.1111043-.0703-.053063-.0637-.1152385-.18034-.1813843-.31264-.066146-.13229-.1362626-.2802-.2485636-.41496-.1123011-.13474-.2967951-.26043-.5172811-.26043z" style="fill:currentColor"
class="ColorScheme-Highlight"/><path d="m.52916665 288.79791c-.2885752 0-.5291667.24059-.5291667.52917v6.87916c0 .28858.2405883.52917.5291667.52917h7.40833325c.2885785 0 .5291667-.24059.5291667-.52917v-5.82083c0-.28858-.2405914-.52917-.5291667-.52917h-3.7041666c-.044097 0-.058041-.007-.1111044-.0703-.053063-.0637-.1152385-.18034-.1813842-.31264-.066146-.13229-.1362628-.2802-.2485637-.41496-.112301-.13474-.2967953-.26045-.5172811-.26045zm0 .26458h2.64583325c.5291662 0 .5291673 1.05834 1.0583334 1.05834h3.7041666c.1465812 0 .2645834.118.2645834.26458v5.82083c0 .14658-.118002.26459-.2645834.26459h-7.40833325c-.1465816 0-.2645834-.11801-.2645834-.26459v-6.87916c0-.14659.1180018-.26459.2645834-.26459z" fill-opacity=".2"/><path d="m.5291666 289.0625c-.1465817 0-.2645833.11799-.2645833.26458v6.87917c0 .14658.1180016.26458.2645833.26458h7.4083337c.1465815 0 .2645831-.118.2645831-.26458v-5.82084c0-.14658-.1180018-.26458-.2645831-.26458h-3.704167c-.5291666 0-.5291666-1.05834-1.0583333-1.05834z" fill="#fff" fill-opacity=".06" stroke-width=".529167"/><path d="m4.2333333 289.85624c-.220486 0-.4112389.14535-.5012613.28939-.090023.14404-.1300009.2881-.1762167.41135-.046216.12324-.095339.22076-.1462442.27388-.050906.0531-.09497.0837-.2346111.0837h-2.6458333c-.2885755-0-.5291667.24058-.5291667.52916v4.7625c0 .28858.240588.52917.5291667.52917h7.4083333c.2885787 0 .5291667-.24059.5291667-.52917v-5.82083c0-.28858-.2405912-.52917-.5291667-.52917z" style="fill:currentColor"
class="ColorScheme-Highlight"/><path d="m4.2333335 290.12082c-.5291632 0-.2645881 1.05834-1.0583333 1.05834h-2.64583323c-.146581 0-.26458332.118-.26458332.26458v4.7625c0 .14658.11800232.26458.26458332.26458h7.40833303c.1465807 0 .2645833-.118.2645833-.26458v-.2651h-3.1749999v.00207a2.1166666 2.1306906 0 0 1 -1.9554361-1.31517 2.1166666 2.1306906 0 0 1 .4588867-2.32182 2.1166666 2.1306906 0 0 1 1.5275553-.62425 2.1166666 2.1306906 0 0 1 .7787638.16226 2.1166666 2.1306906 0 0 1 1.3068969 1.96836h-.2645833a1.8520833 1.8643543 0 0 0 -.0056844-.14521 1.8520833 1.8643543 0 0 0 -.0237712-.18501 1.8520833 1.8643543 0 0 0 -.0418579-.18138 1.8520833 1.8643543 0 0 0 -.0594279-.17673 1.8520833 1.8643543 0 0 0 -.0769979-.1695 1.8520833 1.8643543 0 0 0 -.0930175-.16072 1.8520833 1.8643543 0 0 0 -.1090373-.15089 1.8520833 1.8643543 0 0 0 -.1229899-.13901 1.8520833 1.8643543 0 0 0 -.1364258-.12609 1.8520833 1.8643543 0 0 0 -.1483113-.11162 1.8520833 1.8643543 0 0 0 -.1586467-.09664 1.8520833 1.8643543 0 0 0 -.1669148-.07958 1.8520833 1.8643543 0 0 0 -.1359091-.05064 1.8520833 1.8643543 0 0 0 -.1788004-.04858 1.8520833 1.8643543 0 0 0 -.1824178-.03049 1.8520833 1.8643543 0 0 0 -.1850016-.01188 1.8520833 1.8643543 0 0 0 -.1850016.0062 1.8520833 1.8643543 0 0 0 -.1834514.02532 1.8520833 1.8643543 0 0 0 -.1798339.04341 1.8520833 1.8643543 0 0 0 -.1746664.06149 1.8520833 1.8643543 0 0 0 -.1679484.07855 1.8520833 1.8643543 0 0 0 -.1591634.09509 1.8520833 1.8643543 0 0 0 -.1493449.11058 1.8520833 1.8643543 0 0 0 -.1369425.12506 1.8520833 1.8643543 0 0 0 -.0981852.10697 1.8520833 1.8643543 0 0 0 -.1131714.14728 1.8520833 1.8643543 0 0 0 -.0981852.15813 1.8520833 1.8643543 0 0 0 -.0816488.16743 1.8520833 1.8643543 0 0 0 -.0645955.17467 1.8520833 1.8643543 0 0 0 -.0470256.17983 1.8520833 1.8643543 0 0 0 -.0289388.18448 1.8520833 1.8643543 0 0 0 -.010852.18604 1.8520833 1.8643543 0 0 0 .0077515.18604 1.8520833 1.8643543 0 0 0 .0263549.18448 1.8520833 1.8643543 0 0 0 .0444418.18087 1.8520833 1.8643543 0 0 0 .0625284.1757 1.8520833 1.8643543 0 0 0 .0604615.13177 1.8520833 1.8643543 0 0 0 .091984.16175 1.8520833 1.8643543 0 0 0 .1080037.15193 1.8520833 1.8643543 0 0 0 .1219564.14004 1.8520833 1.8643543 0 0 0 .1353923.12661 1.8520833 1.8643543 0 0 0 .1472778.11317 1.8520833 1.8643543 0 0 0 .1581299.09715 1.8520833 1.8643543 0 0 0 .1663981.08113 1.8520833 1.8643543 0 0 0 .1741495.06408 1.8520833 1.8643543 0 0 0 .1793173.04599 1.8520833 1.8643543 0 0 0 .1829345.02791 1.8520833 1.8643543 0 0 0 .1850016.00878h3.1749999v-.26458h-3.1749999v.00207a1.5874999 1.5980179 0 0 1 -1.466577-.9865 1.5874999 1.5980179 0 0 1 .344165-1.7415 1.5874999 1.5980179 0 0 1 1.1456664-.46767v-.00104a1.5874999 1.5980179 0 0 1 .5844605.12144 1.5874999 1.5980179 0 0 1 .9797851 1.4764h-.2645833a1.3229166 1.3316815 0 0 0 -.0041342-.10387 1.3229166 1.3316815 0 0 0 -.0165364-.13229 1.3229166 1.3316815 0 0 0 -.0299724-.12919 1.3229166 1.3316815 0 0 0 -.0428914-.12609 1.3229166 1.3316815 0 0 0 -.054777-.12144 1.3229166 1.3316815 0 0 0 -.0666626-.11472 1.3229166 1.3316815 0 0 0 -.0775146-.10801 1.3229166 1.3316815 0 0 0 -.0883667-.09922 1.3229166 1.3316815 0 0 0 -.0971517-.08991 1.3229166 1.3316815 0 0 0 -.1059367-.07959 1.3229166 1.3316815 0 0 0 -.1131714-.06873 1.3229166 1.3316815 0 0 0 -.1193725-.05736 1.3229166 1.3316815 0 0 0 -.0971517-.03565 1.3229166 1.3316815 0 0 0 -.1276408-.03514 1.3229166 1.3316815 0 0 0 -.1302246-.02171 1.3229166 1.3316815 0 0 0 -.1322917-.00878 1.3229166 1.3316815 0 0 0 -.1317749.00465 1.3229166 1.3316815 0 0 0 -.1312581.01809 1.3229166 1.3316815 0 0 0 -.1286743.031 1.3229166 1.3316815 0 0 0 -.1245402.04393 1.3229166 1.3316815 0 0 0 -.1198893.05632 1.3229166 1.3316815 0 0 0 -.1136882.0677 1.3229166 1.3316815 0 0 0 -.1064534.07906 1.3229166 1.3316815 0 0 0 -.0981852.08941 1.3229166 1.3316815 0 0 0 -.07028.07648 1.3229166 1.3316815 0 0 0 -.0806152.1049 1.3229166 1.3316815 0 0 0 -.07028.11317 1.3229166 1.3316815 0 0 0 -.0583943.11937 1.3229166 1.3316815 0 0 0 -.0459921.12506 1.3229166 1.3316815 0 0 0 -.0335896.12867 1.3229166 1.3316815 0 0 0 -.0206706.13126 1.3229166 1.3316815 0 0 0 -.0077515.13281 1.3229166 1.3316815 0 0 0 .0056844.13333 1.3229166 1.3316815 0 0 0 .0186036.13177 1.3229166 1.3316815 0 0 0 .0320393.12919 1.3229166 1.3316815 0 0 0 .0444418.12506 1.3229166 1.3316815 0 0 0 .0434082.09457 1.3229166 1.3316815 0 0 0 .065629.11524 1.3229166 1.3316815 0 0 0 .0769979.10852 1.3229166 1.3316815 0 0 0 .0873332.09973 1.3229166 1.3316815 0 0 0 .0966349.09095 1.3229166 1.3316815 0 0 0 .1054199.08062 1.3229166 1.3316815 0 0 0 .1126546.06976 1.3229166 1.3316815 0 0 0 .1188558.05839 1.3229166 1.3316815 0 0 0 .1240235.04548 1.3229166 1.3316815 0 0 0 .1281575.03307 1.3229166 1.3316815 0 0 0 .1307414.01964 1.3229166 1.3316815 0 0 0 .1322916.00672h3.1749999v-.26407h-3.1749999v.00207a1.0583333 1.0653453 0 0 1 -.977718-.65784 1.0583333 1.0653453 0 0 1 .2294433-1.16117 1.0583333 1.0653453 0 0 1 .7637777-.31161v-.00052a1.0583333 1.0653453 0 0 1 .3896403.08062 1.0583333 1.0653453 0 0 1 .65319.98443h-.2645833a.79374997.79900896 0 0 0 -.0025838-.06252.79374997.79900896 0 0 0 -.0098185-.07907.79374997.79900896 0 0 0 -.0180868-.07751.79374997.79900896 0 0 0 -.0253214-.07597.79374997.79900896 0 0 0 -.033073-.07235.79374997.79900896 0 0 0 -.0403076-.06924.79374997.79900896 0 0 0 -.0465088-.0646.79374997.79900896 0 0 0 -.0527099-.05943.79374997.79900896 0 0 0 -.0583944-.05426.79374997.79900896 0 0 0 -.063562-.04754.79374997.79900896 0 0 0 -.0676961-.04134.79374997.79900896 0 0 0 -.0718303-.03411.79374997.79900896 0 0 0 -.0583943-.0217.79374997.79900896 0 0 0 -.0764811-.02119.79374997.79900896 0 0 0 -.0780314-.01292.79374997.79900896 0 0 0 -.0795817-.00516.79374997.79900896 0 0 0 -.079065.0031.79374997.79900896 0 0 0 -.0785482.01085.79374997.79900896 0 0 0 -.0769978.0186.79374997.79900896 0 0 0 -.0749309.02636.79374997.79900896 0 0 0 -.072347.03359.79374997.79900896 0 0 0 -.0682129.04082.79374997.79900896 0 0 0 -.063562.04754.79374997.79900896 0 0 0 -.0589111.05375.79374997.79900896 0 0 0 -.0423747.04547.79374997.79900896 0 0 0 -.048059.06356.79374997.79900896 0 0 0 -.0423747.0677.79374997.79900896 0 0 0 -.0346232.07183.79374997.79900896 0 0 0 -.0279053.07441.79374997.79900896 0 0 0 -.0201538.07752.79374997.79900896 0 0 0 -.0124023.07855.79374997.79900896 0 0 0 -.0046509.0801.79374997.79900896 0 0 0 .0036173.07958.79374997.79900896 0 0 0 .0108521.07906.79374997.79900896 0 0 0 .0191203.07752.79374997.79900896 0 0 0 .0268717.07545.79374997.79900896 0 0 0 .0258382.05632.79374997.79900896 0 0 0 .0397909.06925.79374997.79900896 0 0 0 .045992.06511.79374997.79900896 0 0 0 .0521932.05995.79374997.79900896 0 0 0 .0578776.05477.79374997.79900896 0 0 0 .063562.04806.79374997.79900896 0 0 0 .0676961.04186.79374997.79900896 0 0 0 .0713135.03462.79374997.79900896 0 0 0 .074414.02739.79374997.79900896 0 0 0 .0769979.01964.79374997.79900896 0 0 0 .0785482.01188.79374997.79900896 0 0 0 .0790649.00414h3.1749999v-4.23333c0-.14655-.1180028-.26459-.2645833-.26459z" fill="#fff" fill-opacity=".3"/><path d="m4.2333337 289.85625c-.2204858 0-.4112391.14535-.5012614.28939-.090023.14404-.1300009.28809-.1762167.41134-.046216.12324-.095339.22077-.1462443.27389-.050906.0531-.09497.0837-.234611.0837h-2.6458333c-.2885752.00001-.5291667.2406-.5291667.52918v4.7625c0 .28858.2405883.52917.5291667.52917h7.4083333c.2885784 0 .5291667-.24059.5291667-.52917v-5.82083c0-.28858-.2405915-.52917-.5291667-.52917zm0 .26458h3.7041666c.1465812 0 .2645834.11801.2645834.26459v5.82083c0 .14658-.118002.26458-.2645834.26458h-7.4083333c-.1465818 0-.2645834-.118-.2645834-.26458v-4.7625c0-.14658.1180016-.26458.2645834-.26458h2.6458333c.7937492 0 .5291673-1.05834 1.0583334-1.05834z" fill-opacity=".2"/></g><path d="m5.058089 291.68202a2.1166666 2.1306906 0 0 0 -1.527555.62425 2.1166666 2.1306906 0 0 0 -.458887 2.32182 2.1166666 2.1306906 0 0 0 1.955436 1.31517v-.002h3.1750004v-.26459h-3.1750004a1.8520833 1.8643543 0 0 1 -.185001-.009 1.8520833 1.8643543 0 0 1 -.182935-.0279 1.8520833 1.8643543 0 0 1 -.179317-.046 1.8520833 1.8643543 0 0 1 -.174149-.0641 1.8520833 1.8643543 0 0 1 -.166399-.0811 1.8520833 1.8643543 0 0 1 -.158129-.0971 1.8520833 1.8643543 0 0 1 -.147278-.11317 1.8520833 1.8643543 0 0 1 -.135392-.12661 1.8520833 1.8643543 0 0 1 -.121957-.14004 1.8520833 1.8643543 0 0 1 -.108004-.15193 1.8520833 1.8643543 0 0 1 -.09198-.16175 1.8520833 1.8643543 0 0 1 -.06046-.13177 1.8520833 1.8643543 0 0 1 -.06253-.1757 1.8520833 1.8643543 0 0 1 -.04444-.18087 1.8520833 1.8643543 0 0 1 -.02636-.18449 1.8520833 1.8643543 0 0 1 -.0077-.18602 1.8520833 1.8643543 0 0 1 .01085-.18603 1.8520833 1.8643543 0 0 1 .02894-.18449 1.8520833 1.8643543 0 0 1 .04702-.17983 1.8520833 1.8643543 0 0 1 .0646-.17467 1.8520833 1.8643543 0 0 1 .08165-.16743 1.8520833 1.8643543 0 0 1 .09818-.15813 1.8520833 1.8643543 0 0 1 .113172-.14728 1.8520833 1.8643543 0 0 1 .09818-.10697 1.8520833 1.8643543 0 0 1 .136942-.12506 1.8520833 1.8643543 0 0 1 .149345-.11058 1.8520833 1.8643543 0 0 1 .159164-.0951 1.8520833 1.8643543 0 0 1 .167948-.0786 1.8520833 1.8643543 0 0 1 .174667-.0615 1.8520833 1.8643543 0 0 1 .179833-.0434 1.8520833 1.8643543 0 0 1 .183452-.0253 1.8520833 1.8643543 0 0 1 .185001-.006 1.8520833 1.8643543 0 0 1 .185002.0119 1.8520833 1.8643543 0 0 1 .182418.0305 1.8520833 1.8643543 0 0 1 .1788.0486 1.8520833 1.8643543 0 0 1 .135909.0506 1.8520833 1.8643543 0 0 1 .166915.0796 1.8520833 1.8643543 0 0 1 .1586468.0966 1.8520833 1.8643543 0 0 1 .1483114.11162 1.8520833 1.8643543 0 0 1 .1364258.12609 1.8520833 1.8643543 0 0 1 .12299.13901 1.8520833 1.8643543 0 0 1 .1090371.15089 1.8520833 1.8643543 0 0 1 .093018.16072 1.8520833 1.8643543 0 0 1 .076998.1695 1.8520833 1.8643543 0 0 1 .059428.17673 1.8520833 1.8643543 0 0 1 .041858.18138 1.8520833 1.8643543 0 0 1 .02377.18501 1.8520833 1.8643543 0 0 1 .00568.14521h.2645833a2.1166666 2.1306906 0 0 0 -1.3068974-1.96836 2.1166666 2.1306906 0 0 0 -.778763-.16226zm-.0077.5364a1.5874999 1.5980179 0 0 0 -1.145665.46767 1.5874999 1.5980179 0 0 0 -.344165 1.7415 1.5874999 1.5980179 0 0 0 1.466577.9865v-.002h3.1749974v-.26458h-3.1750004a1.3229166 1.3316815 0 0 1 -.132291-.007 1.3229166 1.3316815 0 0 1 -.130742-.0196 1.3229166 1.3316815 0 0 1 -.128157-.0331 1.3229166 1.3316815 0 0 1 -.124024-.0455 1.3229166 1.3316815 0 0 1 -.118855-.0584 1.3229166 1.3316815 0 0 1 -.112655-.0693 1.3229166 1.3316815 0 0 1 -.10542-.0806 1.3229166 1.3316815 0 0 1 -.09664-.091 1.3229166 1.3316815 0 0 1 -.08733-.0997 1.3229166 1.3316815 0 0 1 -.077-.10852 1.3229166 1.3316815 0 0 1 -.06563-.11524 1.3229166 1.3316815 0 0 1 -.04341-.0946 1.3229166 1.3316815 0 0 1 -.04444-.12505 1.3229166 1.3316815 0 0 1 -.03204-.12919 1.3229166 1.3316815 0 0 1 -.0186-.13178 1.3229166 1.3316815 0 0 1 -.0057-.13332 1.3229166 1.3316815 0 0 1 .0078-.13281 1.3229166 1.3316815 0 0 1 .02067-.13126 1.3229166 1.3316815 0 0 1 .03359-.12867 1.3229166 1.3316815 0 0 1 .04599-.12506 1.3229166 1.3316815 0 0 1 .05839-.11937 1.3229166 1.3316815 0 0 1 .07028-.11318 1.3229166 1.3316815 0 0 1 .08061-.1049 1.3229166 1.3316815 0 0 1 .07028-.0765 1.3229166 1.3316815 0 0 1 .09818-.0894 1.3229166 1.3316815 0 0 1 .106453-.0791 1.3229166 1.3316815 0 0 1 .113689-.0677 1.3229166 1.3316815 0 0 1 .119889-.0563 1.3229166 1.3316815 0 0 1 .12454-.0439 1.3229166 1.3316815 0 0 1 .128674-.031 1.3229166 1.3316815 0 0 1 .131259-.0181 1.3229166 1.3316815 0 0 1 .131775-.005 1.3229166 1.3316815 0 0 1 .132291.009 1.3229166 1.3316815 0 0 1 .130225.0217 1.3229166 1.3316815 0 0 1 .127641.0351 1.3229166 1.3316815 0 0 1 .09715.0357 1.3229166 1.3316815 0 0 1 .119372.0574 1.3229166 1.3316815 0 0 1 .113172.0687 1.3229166 1.3316815 0 0 1 .105936.0796 1.3229166 1.3316815 0 0 1 .09715.0899 1.3229166 1.3316815 0 0 1 .088367.0992 1.3229166 1.3316815 0 0 1 .077515.108 1.3229166 1.3316815 0 0 1 .066663.11472 1.3229166 1.3316815 0 0 1 .054777.12144 1.3229166 1.3316815 0 0 1 .042892.12609 1.3229166 1.3316815 0 0 1 .029972.12919 1.3229166 1.3316815 0 0 1 .016536.13229 1.3229166 1.3316815 0 0 1 .00413.10387h.2645831a1.5874999 1.5980179 0 0 0 -.9797851-1.47639 1.5874999 1.5980179 0 0 0 -.58446-.12144zm-.0077.5364a1.0583333 1.0653453 0 0 0 -.763776.31161 1.0583333 1.0653453 0 0 0 -.229443 1.16117 1.0583333 1.0653453 0 0 0 .977718.65784v-.002h3.1749954v-.26465h-3.1750004a.79374997.79900896 0 0 1 -.07906-.004.79374997.79900896 0 0 1 -.07855-.0119.79374997.79900896 0 0 1 -.077-.0196.79374997.79900896 0 0 1 -.07441-.0274.79374997.79900896 0 0 1 -.07131-.0346.79374997.79900896 0 0 1 -.0677-.0419.79374997.79900896 0 0 1 -.06356-.0481.79374997.79900896 0 0 1 -.05788-.0548.79374997.79900896 0 0 1 -.05219-.0599.79374997.79900896 0 0 1 -.04599-.0651.79374997.79900896 0 0 1 -.03979-.0692.79374997.79900896 0 0 1 -.02584-.0563.79374997.79900896 0 0 1 -.02687-.0755.79374997.79900896 0 0 1 -.01912-.0775.79374997.79900896 0 0 1 -.01085-.0791.79374997.79900896 0 0 1 -.0036-.0796.79374997.79900896 0 0 1 .0047-.0801.79374997.79900896 0 0 1 .0124-.0786.79374997.79900896 0 0 1 .02015-.0775.79374997.79900896 0 0 1 .02791-.0744.79374997.79900896 0 0 1 .03462-.0718.79374997.79900896 0 0 1 .04237-.0677.79374997.79900896 0 0 1 .04806-.0636.79374997.79900896 0 0 1 .04237-.0455.79374997.79900896 0 0 1 .05891-.0537.79374997.79900896 0 0 1 .06356-.0476.79374997.79900896 0 0 1 .06821-.0408.79374997.79900896 0 0 1 .07235-.0336.79374997.79900896 0 0 1 .07493-.0264.79374997.79900896 0 0 1 .077-.0186.79374997.79900896 0 0 1 .07855-.0108.79374997.79900896 0 0 1 .07906-.003.79374997.79900896 0 0 1 .07958.005.79374997.79900896 0 0 1 .07803.0129.79374997.79900896 0 0 1 .07648.0212.79374997.79900896 0 0 1 .0584.0217.79374997.79900896 0 0 1 .07183.0341.79374997.79900896 0 0 1 .0677.0413.79374997.79900896 0 0 1 .06356.0475.79374997.79900896 0 0 1 .05839.0543.79374997.79900896 0 0 1 .05271.0594.79374997.79900896 0 0 1 .04651.0646.79374997.79900896 0 0 1 .04031.0692.79374997.79900896 0 0 1 .03307.0723.79374997.79900896 0 0 1 .02532.076.79374997.79900896 0 0 1 .01809.0775.79374997.79900896 0 0 1 .0098.0791.79374997.79900896 0 0 1 .0026.0625h.2645838a1.0583333 1.0653453 0 0 0 -.6531898-.98443 1.0583333 1.0653453 0 0 0 -.389641-.0806z" fill-opacity=".2"/></g></svg>
