<svg height="32" viewBox="0 0 8.4666665 8.4666669" width="32" xmlns="http://www.w3.org/2000/svg"><defs id="kuyenfoldercolor">
    <style type="text/css" id="current-color-scheme">
      .ColorScheme-Highlight {
        color:#03b2fe;
      }
      </style>
  </defs><g transform="translate(0 -288.53333)"><path d="m.5291667 288.79791c-.2885755 0-.5291667.24059-.5291667.52917v6.87916c0 .28858.240588.52917.5291667.52917h7.4083333c.2885787 0 .5291667-.24059.5291667-.52917v-5.82083c0-.28858-.2405912-.52917-.5291667-.52917h-3.7041667c-.044097 0-.058041-.007-.1111043-.0703-.053063-.0637-.1152385-.18034-.1813843-.31264-.066146-.13229-.1362626-.2802-.2485636-.41496-.1123011-.13474-.2967951-.26043-.5172811-.26043z" style="fill:currentColor"
class="ColorScheme-Highlight"/><path d="m.52916665 288.79791c-.2885752 0-.5291667.24059-.5291667.52917v6.87916c0 .28858.2405883.52917.5291667.52917h7.40833325c.2885785 0 .5291667-.24059.5291667-.52917v-5.82083c0-.28858-.2405914-.52917-.5291667-.52917h-3.7041666c-.044097 0-.058041-.007-.1111044-.0703-.053063-.0637-.1152385-.18034-.1813842-.31264-.066146-.13229-.1362628-.2802-.2485637-.41496-.112301-.13474-.2967953-.26045-.5172811-.26045zm0 .26458h2.64583325c.5291662 0 .5291673 1.05834 1.0583334 1.05834h3.7041666c.1465812 0 .2645834.118.2645834.26458v5.82083c0 .14658-.118002.26459-.2645834.26459h-7.40833325c-.1465816 0-.2645834-.11801-.2645834-.26459v-6.87916c0-.14659.1180018-.26459.2645834-.26459z" fill-opacity=".2"/><path d="m.5291666 289.0625c-.1465817 0-.2645833.11799-.2645833.26458v6.87917c0 .14658.1180016.26458.2645833.26458h7.4083337c.1465815 0 .2645831-.118.2645831-.26458v-5.82084c0-.14658-.1180018-.26458-.2645831-.26458h-3.704167c-.5291666 0-.5291666-1.05834-1.0583333-1.05834z" fill="#fff" fill-opacity=".06" stroke-width=".529167"/><path d="m4.2333333 289.85624c-.220486 0-.4112389.14535-.5012613.28939-.090023.14404-.1300009.2881-.1762167.41135-.046216.12324-.095339.22076-.1462442.27388-.050906.0531-.09497.0837-.2346111.0837h-2.6458333c-.2885755-0-.5291667.24058-.5291667.52916v4.7625c0 .28858.240588.52917.5291667.52917h7.4083333c.2885787 0 .5291667-.24059.5291667-.52917v-5.82083c0-.28858-.2405912-.52917-.5291667-.52917z" style="fill:currentColor"
class="ColorScheme-Highlight"/><path d="m4.2333333 290.12083c-.5291637 0-.2645873 1.05833-1.0583333 1.05833h-2.64583333c-.14658115 0-.26458334.11801-.26458334.26459v4.7625c0 .14658.11800219.26458.26458334.26458h7.40833333c.1465809 0 .2645834-.118.2645834-.26458v-5.82084c0-.14655-.1180027-.26458-.2645834-.26458zm0 1.85208c.5863162 0 1.0583334.47202 1.0583334 1.05834v.26458c.146579 0 .2645833.118.2645833.26458v1.5875c0 .14658-.1180043.26459-.2645833.26459h-2.1166667c-.146579 0-.2645833-.11801-.2645833-.26459v-1.5875c0-.14658.1180043-.26458.2645833-.26458h.5291667.2645833.79375v-.26458c0-.29316-.2360085-.52917-.5291667-.52917-.1896539 0-.3267404.11546-.4201293.26458h-.5849773c.1193124-.4539.5127353-.79375 1.0051066-.79375zm0 1.5875c-.293158 0-.5291666.23602-.5291666.52917 0 .19608.106945.3649.2645833.4563v.60203h.5291667v-.60203c.1576383-.09143.2645833-.26022.2645833-.4563 0-.29315-.2360085-.52917-.5291667-.52917z" fill="#fff" fill-opacity=".3"/><g fill-opacity=".2"><path d="m4.2333337 289.85625c-.2204858 0-.4112391.14535-.5012614.28939-.090023.14404-.1300009.28809-.1762167.41134-.046216.12324-.095339.22077-.1462443.27389-.050906.0531-.09497.0837-.234611.0837h-2.6458333c-.2885752.00001-.5291667.2406-.5291667.52918v4.7625c0 .28858.2405883.52917.5291667.52917h7.4083333c.2885784 0 .5291667-.24059.5291667-.52917v-5.82083c0-.28858-.2405915-.52917-.5291667-.52917zm0 .26458h3.7041666c.1465812 0 .2645834.11801.2645834.26459v5.82083c0 .14658-.118002.26458-.2645834.26458h-7.4083333c-.1465818 0-.2645834-.118-.2645834-.26458v-4.7625c0-.14658.1180016-.26458.2645834-.26458h2.6458333c.7937492 0 .5291673-1.05834 1.0583334-1.05834z"/><path d="m4.2333333 291.97291c-.4923718 0-.885794.33985-1.0051065.79375h.5849773c.093389-.14912.2304751-.26459.4201292-.26459.2931584 0 .5291667.23601.5291667.52917v.26458h-.79375-.2645833-.5291667c-.1465792 0-.2645833.11801-.2645833.26459v1.5875c0 .14658.1180041.26458.2645833.26458h2.1166667c.1465792 0 .2645833-.118.2645833-.26458v-1.5875c0-.14658-.1180041-.26459-.2645833-.26459v-.26458c0-.58632-.4720167-1.05833-1.0583334-1.05833zm0 1.5875c.2931584 0 .5291667.23601.5291667.52916 0 .19608-.1069448.36488-.2645833.45631v.60203h-.5291667v-.60203c-.1576385-.0914-.2645833-.26023-.2645833-.45631 0-.29315.2360083-.52916.5291666-.52916z"/></g></g></svg>
