<?xml version="1.0" encoding="UTF-8" standalone="no"?>
<svg
   height="32"
   viewBox="0 0 32 32"
   width="32"
   version="1.1"
   id="svg3"
   sodipodi:docname="apport.svg"
   inkscape:version="1.4.2 (ebf0e940d0, 2025-05-08)"
   xmlns:inkscape="http://www.inkscape.org/namespaces/inkscape"
   xmlns:sodipodi="http://sodipodi.sourceforge.net/DTD/sodipodi-0.dtd"
   xmlns="http://www.w3.org/2000/svg"
   xmlns:svg="http://www.w3.org/2000/svg">
  <defs
     id="defs3" />
  <sodipodi:namedview
     id="namedview3"
     pagecolor="#ffffff"
     bordercolor="#000000"
     borderopacity="0.25"
     inkscape:showpageshadow="2"
     inkscape:pageopacity="0.0"
     inkscape:pagecheckerboard="0"
     inkscape:deskcolor="#d1d1d1"
     showgrid="true"
     inkscape:zoom="35.65625"
     inkscape:cx="16"
     inkscape:cy="15.985977"
     inkscape:window-width="2560"
     inkscape:window-height="1344"
     inkscape:window-x="0"
     inkscape:window-y="0"
     inkscape:window-maximized="1"
     inkscape:current-layer="svg3">
    <inkscape:grid
       id="grid3"
       units="px"
       originx="0"
       originy="0"
       spacingx="1"
       spacingy="1"
       empcolor="#0099e5"
       empopacity="0.30196078"
       color="#0099e5"
       opacity="0.14901961"
       empspacing="5"
       enabled="true"
       visible="true" />
  </sodipodi:namedview>
  <g
     transform="matrix(0.5612971,0,0,-0.55905347,-31.322021,129.56054)"
     id="g3">
    <g
       transform="matrix(6.2992128,0,0,-6.2992128,70.646164,224.54546)"
       id="g2">
      <path
         d="M -0.73758165,-0.55710409 H 5.0832516 c 0.5863167,0 1.0583333,0.47201666 1.0583333,1.05833332 V 6.3220625 c 0,0.5863166 -0.4720166,1.0583333 -1.0583333,1.0583333 h -5.82083325 c -0.58631665,0 -1.05833335,-0.4720167 -1.05833335,-1.0583333 V 0.50122923 c 0,-0.58631666 0.4720167,-1.05833332 1.05833335,-1.05833332 z"
         fill="#da354e"
         id="path1" />
      <path
         d="M -0.73758165,-0.29252076 H 5.0832516 c 0.4397375,0 0.79375,0.35401249 0.79375,0.79374999 V 6.3220625 c 0,0.4397375 -0.3540125,0.79375 -0.79375,0.79375 h -5.82083325 c -0.43973745,0 -0.79374995,-0.3540125 -0.79374995,-0.79375 V 0.50122923 c 0,-0.4397375 0.3540125,-0.79374999 0.79374995,-0.79374999 z"
         fill="#ff778a"
         id="path2" />
    </g>
    <path
       d="m 65.99998,219.72144 v -5 h 4.983724 v -5 H 65.99998 v -5 h 5.000001 v 5 h 4.983723 v 5 h -4.983723 v 5 z m 10.000001,0 v -5 h 5 v 5 z m 11.666667,0 v -5 h 4.983723 v -5 h -4.983723 v -5 h 5 v 5 h 4.983723 v 5 h -4.983723 v 5 z m 10,0 v -5 h 5.000002 v 5 z m -21.666667,-10 v -5 h 5 v 5 z m 21.666667,0 v -5 h 5.000002 v 5 z m -26.666667,-15 v -5 h 26.666667 v 5 z m 26.666667,-5 v -5 h 5.000002 v 5 z m -26.666667,0 H 65.99998 v -5 h 5.000001 z"
       fill="#da354e"
       stroke-linecap="round"
       stroke-linejoin="round"
       stroke-width="6.66667"
       id="path3" />
  </g>
</svg>
