<svg height="32" viewBox="0 0 32 32" width="32" xmlns="http://www.w3.org/2000/svg"><g transform="matrix(.59999998987 0 0 -.60000000347 -34.59998665598 137.83286669782)"><g transform="matrix(6.2992128 0 0 -6.2992128 70.646164 224.54546)"><path d="m-.73758165-.55710409h5.82083325c.5863167 0 1.0583333.47201666 1.0583333 1.05833332v5.82083327c0 .5863166-.4720166 1.0583333-1.0583333 1.0583333h-5.82083325c-.58631665 0-1.05833335-.4720167-1.05833335-1.0583333v-5.82083327c0-.58631666.4720167-1.05833332 1.05833335-1.05833332z" fill="#da354e"/><path d="m-.73758165-.29252076h5.82083325c.4397375 0 .79375.35401249.79375.79374999v5.82083327c0 .4397375-.3540125.79375-.79375.79375h-5.82083325c-.43973745 0-.79374995-.3540125-.79374995-.79375v-5.82083327c0-.4397375.3540125-.79374999.79374995-.79374999z" fill="#ff778a"/></g><path d="m65.99998 219.72144v-5h4.983724v-5h-4.983724v-5h5.000001v5h4.983723v5h-4.983723v5zm10.000001 0v-5h5v5zm11.666667 0v-5h4.983723v-5h-4.983723v-5h5v5h4.983723v5h-4.983723v5zm10 0v-5h5.000002v5zm-21.666667-10v-5h5v5zm21.666667 0v-5h5.000002v5zm-26.666667-15v-5h26.666667v5zm26.666667-5v-5h5.000002v5zm-26.666667 0h-5.000001v-5h5.000001z" fill="#da354e" stroke-linecap="round" stroke-linejoin="round" stroke-width="6.66667"/></g></svg>