<?xml version="1.0" encoding="UTF-8" standalone="no"?>
<svg
   height="32"
   width="32"
   version="1.1"
   id="svg2"
   sodipodi:docname="battery-missing.svg"
   inkscape:version="1.4 (e7c3feb100, 2024-10-09)"
   xmlns:inkscape="http://www.inkscape.org/namespaces/inkscape"
   xmlns:sodipodi="http://sodipodi.sourceforge.net/DTD/sodipodi-0.dtd"
   xmlns="http://www.w3.org/2000/svg"
   xmlns:svg="http://www.w3.org/2000/svg">
  <defs
     id="defs2" />
  <sodipodi:namedview
     id="namedview2"
     pagecolor="#ffffff"
     bordercolor="#000000"
     borderopacity="0.25"
     inkscape:showpageshadow="2"
     inkscape:pageopacity="0.0"
     inkscape:pagecheckerboard="0"
     inkscape:deskcolor="#d1d1d1"
     inkscape:zoom="18"
     inkscape:cx="24.972222"
     inkscape:cy="18.916667"
     inkscape:window-width="1890"
     inkscape:window-height="1048"
     inkscape:window-x="0"
     inkscape:window-y="0"
     inkscape:window-maximized="1"
     inkscape:current-layer="g1"
     showgrid="true">
    <inkscape:grid
       id="grid2"
       units="px"
       originx="0"
       originy="0"
       spacingx="1"
       spacingy="1"
       empcolor="#0099e5"
       empopacity="0.30196078"
       color="#0099e5"
       opacity="0.14902"
       empspacing="5"
       enabled="true"
       visible="true" />
  </sodipodi:namedview>
  <style
     type="text/css"
     id="current-color-scheme">
        .ColorScheme-PositiveText {
            color:#27ae60;
        }
        .ColorScheme-NegativeText {
            color:#da4453;
        }
    </style>
  <g
     id="g1"
     transform="translate(-49,-25)">
    <g
       id="g3"
       transform="matrix(1.5493828,0,0,0.98931624,-35.59854,0.46581198)">
      <path
         id="rect861-8-27-3-9-6-7-0-5-2"
         style="fill:#363c4d;fill-opacity:1;stroke:none;stroke-width:2;stroke-linecap:round;stroke-linejoin:round;stroke-miterlimit:4;stroke-dasharray:none;stroke-opacity:1;paint-order:fill markers stroke"
         d="m 55.99959,52 c 0,1.107999 0.892,2 2,2 h 14 c 1.108,0 2,-0.892001 2,-2 V 33 c 0,-1.107999 -0.892,-2 -2,-2 h -2 v -1 c 0,-1.107999 -0.892,-2 -2,-2 h -6 c -1.108,0 -2,0.892001 -2,2 v 1 h -2 c -1.108,0 -2,0.892001 -2,2 z"
         sodipodi:nodetypes="sssssscsssscsss" />
      <path
         id="rect2"
         style="fill:#69718b;fill-opacity:1;stroke-width:2;stroke-linecap:round;stroke-linejoin:round;paint-order:stroke fill markers"
         d="m 56.99959,52 c 0,0.553999 0.446,1 1,1 h 14 c 0.554,0 1,-0.446001 1,-1 V 33 c 0,-0.553999 -0.446,-1 -1,-1 h -3 V 30.001953 C 68.99959,29.446993 68.5526,29 67.99764,29 h -5.9961 c -0.55496,0 -1.00195,0.446993 -1.00195,1.001953 V 32 h -3 c -0.554,0 -1,0.446001 -1,1 z"
         sodipodi:nodetypes="sssssscsssscsss" />
      <path
         id="rect3"
         style="fill:#363c4d;fill-opacity:1;stroke-width:2;stroke-linecap:round;stroke-linejoin:round;paint-order:stroke fill markers"
         d="m 57.99959,52 h 14 V 33 h -4 v -3 h -6 v 3 h -4 z"
         sodipodi:nodetypes="ccccccccc" />
    </g>
    <g
       id="g2"
       transform="matrix(0,0.92063492,-1,0,117.1575,-12.970274)">
      <path
         style="color:#000000;fill:#fe9500;fill-opacity:1;stroke-linecap:round;stroke-linejoin:round;stroke-miterlimit:1.8;paint-order:fill markers stroke"
         d="m 60.00041,46.000577 c 3e-5,0.334344 0.16713,0.646559 0.44531,0.832031 l 11.99918,6.868577 c 0.66455,0.442845 1.55452,-0.03344 1.55469,-0.832031 l 8.2e-4,-13.868577 c -1.7e-4,-0.798589 -0.89014,-1.274876 -1.55469,-0.832031 l -12,7 c -0.27818,0.185472 -0.44528,0.497687 -0.44531,0.832031 z m 5.80191,0.868577 6.19809,-5.999437 -8.2e-4,10.130296 z"
         id="path33228"
         sodipodi:nodetypes="cccccccccccc" />
      <path
         style="color:#000000;fill:#ffdf00;fill-opacity:1;stroke-width:2;stroke-linecap:round;stroke-linejoin:round;stroke-miterlimit:1.8;paint-order:fill markers stroke"
         d="m 72.99877,52.86859 8.2e-4,-13.868577 -12,7 z"
         id="path33226"
         sodipodi:nodetypes="cccc" />
      <path
         id="rect34256"
         style="fill:#714300;fill-opacity:1;stroke-width:2;stroke-linecap:round;stroke-linejoin:round;stroke-miterlimit:1.8;paint-order:fill markers stroke;stop-color:#000000"
         d="m 64.99959,46.00002 c 0,-0.554 0.446,-1 0.99999,-1 h 2.00001 c 0.554,0 1,0.446 1,1 0,0.553999 -0.446,0.999999 -1,0.999999 h -2.00001 c -0.55399,0 -0.99999,-0.446 -0.99999,-0.999999 z" />
      <path
         id="rect34258"
         style="fill:#714300;fill-opacity:1;stroke-width:2;stroke-linecap:round;stroke-linejoin:round;stroke-miterlimit:1.8;paint-order:fill markers stroke;stop-color:#000000"
         d="m 69.99959,46.000019 c 0,-0.554 0.446,-1 1,-1 0.554,0 1,0.446 1,1 0,0.554 -0.446,1 -1,1 -0.554,0 -1,-0.446 -1,-1 z" />
    </g>
  </g>
</svg>
