<?xml version="1.0" encoding="UTF-8" standalone="no"?>
<svg
   height="32"
   width="32"
   version="1.1"
   id="svg2"
   sodipodi:docname="battery-050.svg"
   inkscape:version="1.4.2 (ebf0e940d0, 2025-05-08)"
   xmlns:inkscape="http://www.inkscape.org/namespaces/inkscape"
   xmlns:sodipodi="http://sodipodi.sourceforge.net/DTD/sodipodi-0.dtd"
   xmlns="http://www.w3.org/2000/svg"
   xmlns:svg="http://www.w3.org/2000/svg">
  <defs
     id="defs2" />
  <sodipodi:namedview
     id="namedview2"
     pagecolor="#ffffff"
     bordercolor="#000000"
     borderopacity="0.25"
     inkscape:showpageshadow="2"
     inkscape:pageopacity="0.0"
     inkscape:pagecheckerboard="0"
     inkscape:deskcolor="#d1d1d1"
     inkscape:zoom="18"
     inkscape:cx="24.972222"
     inkscape:cy="18.944444"
     inkscape:window-width="2560"
     inkscape:window-height="1344"
     inkscape:window-x="0"
     inkscape:window-y="0"
     inkscape:window-maximized="1"
     inkscape:current-layer="svg2"
     showgrid="true">
    <inkscape:grid
       id="grid1"
       units="px"
       originx="0"
       originy="0"
       spacingx="1"
       spacingy="1"
       empcolor="#0099e5"
       empopacity="0.30196078"
       color="#0099e5"
       opacity="0.14902"
       empspacing="5"
       enabled="true"
       visible="true" />
  </sodipodi:namedview>
  <style
     type="text/css"
     id="current-color-scheme">
        .ColorScheme-PositiveText {
            color:#27ae60;
        }
        .ColorScheme-NegativeText {
            color:#da4453;
        }
    </style>
  <g
     id="g2"
     transform="matrix(0.00249764,0.85678199,-1.1521606,0.00185732,34.367575,2.2225942)">
    <g
       id="g1"
       transform="matrix(0,-0.9957265,1.5493827,0,-52.061729,86.696582)">
      <path
         id="rect861-8-27-3-9-6-7-0-5-2-6-4-6-9"
         style="fill:#363c4d;fill-opacity:1;stroke:none;stroke-width:2;stroke-linecap:round;stroke-linejoin:round;stroke-miterlimit:4;stroke-dasharray:none;stroke-opacity:1;paint-order:fill markers stroke"
         d="m 60,35 c -1.107999,0 -2,0.892 -2,2 v 14 c 0,1.108 0.892001,2 2,2 h 19 c 1.107999,0 2,-0.892 2,-2 v -2 h 1 c 1.107999,0 2,-0.892 2,-2 v -6 c 0,-1.108 -0.892001,-2 -2,-2 h -1 v -2 c 0,-1.108 -0.892001,-2 -2,-2 z"
         sodipodi:nodetypes="sssssscsssscsss" />
      <path
         id="rect2-2-4-8-5"
         style="fill:#69718b;fill-opacity:1;stroke-width:2;stroke-linecap:round;stroke-linejoin:round;paint-order:stroke fill markers"
         d="m 60,36 c -0.553999,0 -1,0.446 -1,1 v 14 c 0,0.554 0.446001,1 1,1 h 19 c 0.553999,0 1,-0.446 1,-1 v -3 h 1.998047 C 82.553007,48 83,47.55301 83,46.99805 v -5.9961 C 83,40.44699 82.553007,40 81.998047,40 H 80 v -3 c 0,-0.554 -0.446001,-1 -1,-1 z"
         sodipodi:nodetypes="sssssscsssscsss" />
      <path
         id="rect3-6-3-9-0"
         style="fill:#363c4d;fill-opacity:1;stroke-width:2;stroke-linecap:round;stroke-linejoin:round;paint-order:stroke fill markers"
         d="m 60,37 v 14 h 19 v -4 h 3 v -6 h -3 v -4 z"
         sodipodi:nodetypes="ccccccccc" />
      <path
         id="rect3-6-0-0-2-4"
         style="fill:#363c4d;fill-opacity:1;stroke-width:2;stroke-linecap:round;stroke-linejoin:round;paint-order:stroke fill markers"
         d="m 60,37 v 14 h 19 v -4 h 3 v -6 h -3 v -4 z"
         sodipodi:nodetypes="ccccccccc" />
      <path
         id="rect4-7-6-8"
         style="fill:#363c4d;fill-opacity:1;stroke-width:2;stroke-linecap:round;stroke-linejoin:round;paint-order:stroke fill markers"
         d="m 60,37 v 1 13 h 1 18 v -1 -3 h 3 V 46 41 H 79 V 38 37 H 78 61 Z m 1,1 h 17 v 3 1 h 3 v 4 h -2 -1 v 1 3 H 61 Z"
         sodipodi:nodetypes="cccccccccccccccccccccccccccc" />
      <path
         id="rect13-8-6-7"
         style="fill:#87deb0;fill-opacity:1;stroke-width:2;stroke-linecap:round;stroke-linejoin:round;paint-order:stroke fill markers"
         d="m 61,38 v 12 h 2 2 2 2 2 V 38 h -2 -2 -2 -2 z" />
    </g>
    <path
       style="fill:#ffffff;stroke-width:0.0555556"
       d="M 4.8888889,27.889393 C 4.3520051,27.797229 3.9503447,27.536726 3.7987133,27.18234 3.6839099,26.914027 3.6846098,8.0864505 3.7994333,7.8116391 3.9036456,7.5622241 4.0798137,7.4031285 4.4444444,7.2291364 L 4.75,7.0833333 7.3472222,7.0668839 9.9444444,7.0504344 V 5.9547803 c 0,-1.0631747 0.00393,-1.1014366 0.1325466,-1.2907136 0.167336,-0.2462566 0.576948,-0.4701889 1.002657,-0.5481454 0.456664,-0.083625 9.606262,-0.083625 10.062926,0 0.425709,0.077956 0.835322,0.3018888 1.002658,0.5481454 0.128616,0.189277 0.132546,0.2275389 0.132546,1.2907136 v 1.0956541 l 2.597222,0.016449 2.597222,0.016449 0.305556,0.1458031 c 0.168055,0.080192 0.36456,0.2024822 0.436678,0.2717568 C 28.515504,7.7900751 28.5,7.2474541 28.5,17.494599 c 0,6.562767 -0.01822,9.546502 -0.05896,9.654562 -0.09374,0.248641 -0.382109,0.50748 -0.715955,0.642641 l -0.308415,0.124865 -11.138889,0.0078 c -6.126389,0.0043 -11.2513891,-0.01149 -11.3888891,-0.0351 z M 27,17.5 V 8 H 23.888889 20.777778 V 6.5 5 H 16.111111 11.444444 V 6.5 8 H 8.3333333 5.2222222 V 17.5 27 H 16.111111 27 Z"
       id="path1" />
  </g>
</svg>
