<?xml version="1.0" encoding="UTF-8" standalone="no"?>
<svg
   height="32"
   width="32"
   version="1.1"
   id="svg2"
   sodipodi:docname="battery-100-charging.svg"
   inkscape:version="1.4 (e7c3feb100, 2024-10-09)"
   xml:space="preserve"
   xmlns:inkscape="http://www.inkscape.org/namespaces/inkscape"
   xmlns:sodipodi="http://sodipodi.sourceforge.net/DTD/sodipodi-0.dtd"
   xmlns:xlink="http://www.w3.org/1999/xlink"
   xmlns="http://www.w3.org/2000/svg"
   xmlns:svg="http://www.w3.org/2000/svg"><defs
     id="defs2"><linearGradient
       inkscape:collect="always"
       xlink:href="#linearGradient47"
       id="linearGradient46"
       x1="104"
       y1="103.5"
       x2="104"
       y2="91.5"
       gradientUnits="userSpaceOnUse"
       gradientTransform="translate(-40,-56.5)" /><linearGradient
       id="linearGradient47"
       inkscape:collect="always"><stop
         style="stop-color:#0dcc5a;stop-opacity:1;"
         offset="0"
         id="stop46" /><stop
         style="stop-color:#6fd87b;stop-opacity:1;"
         offset="1"
         id="stop47" /></linearGradient></defs><sodipodi:namedview
     id="namedview2"
     pagecolor="#ffffff"
     bordercolor="#000000"
     borderopacity="0.25"
     inkscape:showpageshadow="2"
     inkscape:pageopacity="0.0"
     inkscape:pagecheckerboard="0"
     inkscape:deskcolor="#d1d1d1"
     inkscape:zoom="25.455844"
     inkscape:cx="19.779348"
     inkscape:cy="16.754502"
     inkscape:window-width="1890"
     inkscape:window-height="1048"
     inkscape:window-x="0"
     inkscape:window-y="0"
     inkscape:window-maximized="1"
     inkscape:current-layer="svg2"
     showgrid="true"><inkscape:grid
       id="grid1"
       units="px"
       originx="0"
       originy="0"
       spacingx="1"
       spacingy="1"
       empcolor="#0099e5"
       empopacity="0.30196078"
       color="#0099e5"
       opacity="0.14902"
       empspacing="5"
       enabled="true"
       visible="true" /></sodipodi:namedview><style
     type="text/css"
     id="current-color-scheme">
        .ColorScheme-PositiveText {
            color:#27ae60;
        }
        .ColorScheme-NegativeText {
            color:#da4453;
        }
    </style><g
     id="g2"
     transform="matrix(0,-0.99395635,1.5477895,0,-8.7449903,31.942585)"><g
       id="g81"
       transform="translate(-90,-185)"><path
         id="rect861-8-27-3-9-6-7-0-5-2-6-4-6-9-7-0-9-9-5"
         style="fill:#363c4d;fill-opacity:1;stroke:none;stroke-width:2;stroke-linecap:round;stroke-linejoin:round;stroke-miterlimit:4;stroke-dasharray:none;stroke-opacity:1;paint-order:fill markers stroke"
         d="m 95,192 c -1.107999,0 -2,0.892 -2,2 v 14 c 0,1.108 0.892001,2 2,2 h 19 c 1.108,0 2,-0.892 2,-2 v -2 h 1 c 1.108,0 2,-0.892 2,-2 v -6 c 0,-1.108 -0.892,-2 -2,-2 h -1 v -2 c 0,-1.108 -0.892,-2 -2,-2 z"
         sodipodi:nodetypes="sssssscsssscsss" /><path
         id="rect2-2-4-8-5-2-6-1-7-6"
         style="fill:#69718b;fill-opacity:1;stroke-width:2;stroke-linecap:round;stroke-linejoin:round;paint-order:stroke fill markers"
         d="m 95,193 c -0.553999,0 -1,0.446 -1,1 v 14 c 0,0.554 0.446001,1 1,1 h 19 c 0.554,0 1,-0.446 1,-1 v -3 h 1.99805 C 117.55301,205 118,204.55301 118,203.99805 v -5.9961 C 118,197.44699 117.55301,197 116.99805,197 H 115 v -3 c 0,-0.554 -0.446,-1 -1,-1 z"
         sodipodi:nodetypes="sssssscsssscsss" /><path
         id="rect3-6-3-9-0-7-1-7-7-3"
         style="fill:#363c4d;fill-opacity:1;stroke-width:2;stroke-linecap:round;stroke-linejoin:round;paint-order:stroke fill markers"
         d="m 95,194 v 14 h 19 v -4 h 3 v -6 h -3 v -4 z"
         sodipodi:nodetypes="ccccccccc" /><path
         id="rect3-6-0-0-2-4-2-5-7-6-9"
         style="fill:#363c4d;fill-opacity:1;stroke-width:2;stroke-linecap:round;stroke-linejoin:round;paint-order:stroke fill markers"
         d="m 95,194 v 14 h 19 v -4 h 3 v -6 h -3 v -4 z"
         sodipodi:nodetypes="ccccccccc" /><path
         id="rect4-7-6-8-2-9-1-7-4"
         style="fill:#363c4d;fill-opacity:1;stroke-width:2;stroke-linecap:round;stroke-linejoin:round;paint-order:stroke fill markers"
         d="m 95,194 v 1 13 h 1 18 v -1 -3 h 3 v -1 -5 h -3 v -3 -1 h -1 -17 z m 1,1 h 17 v 3 1 h 3 v 4 h -2 -1 v 1 3 H 96 Z"
         sodipodi:nodetypes="cccccccccccccccccccccccccccc" /></g><g
       id="g1"
       transform="translate(-49,-25)"><g
         id="g20-6-2-8-9"
         transform="translate(15,-13)" /><path
         id="rect13-8-6-7-6-4-1-3-8-8"
         style="fill:url(#linearGradient46);stroke-width:2;stroke-linecap:round;stroke-linejoin:round;paint-order:stroke fill markers"
         d="m 64.314453,38.332031 -1.482422,2.222657 A 1.0001,1.0001 0 0 1 62,41 h -1.876953 l 3.517578,2.513672 1.527344,-2.970703 A 1.0001,1.0001 0 0 1 66.056641,40 h 1.175781 z" /><path
         id="path3"
         style="fill:#87deb0;fill-opacity:1;stroke-width:2;stroke-linecap:round;stroke-linejoin:round;paint-order:stroke fill markers"
         d="m 55,35 v 12 h 2 2 2 2 2 2 2 2 1 v -4 h 3 v -4 h -3 v -4 h -1 -2 -2 -2 -2 -2 -2 -2 z m 9.142578,1.009766 a 1.0001,1.0001 0 0 1 0.353516,0.121093 l 7,4 A 1.0001,1.0001 0 0 1 71,42 h -4.332031 l -1.779297,3.457031 a 1.0001,1.0001 0 0 1 -1.470703,0.357422 l -7,-5 A 1.0001,1.0001 0 0 1 57,39 h 4.464844 l 1.703125,-2.554688 a 1.0001,1.0001 0 0 1 0.974609,-0.435546 z" /></g><g
       id="rect843-3-3-7-8"><path
         style="color:#000000;fill:#ffffff;stroke-linecap:round;stroke-linejoin:round;-inkscape-stroke:none"
         d="m 22,16 -4.94255,-4e-5 L 15,20 8,15 h 5 l 2,-3 z"
         id="path2" /></g></g><style
     type="text/css"
     id="current-color-scheme-5">
        .ColorScheme-PositiveText {
            color:#27ae60;
        }
        .ColorScheme-NegativeText {
            color:#da4453;
        }
    </style></svg>
