<?xml version="1.0" encoding="UTF-8" standalone="no"?>
<svg
   height="32"
   width="32"
   version="1.1"
   id="svg2"
   sodipodi:docname="battery-040-charging.svg"
   inkscape:version="1.4.2 (ebf0e940d0, 2025-05-08)"
   xml:space="preserve"
   xmlns:inkscape="http://www.inkscape.org/namespaces/inkscape"
   xmlns:sodipodi="http://sodipodi.sourceforge.net/DTD/sodipodi-0.dtd"
   xmlns="http://www.w3.org/2000/svg"
   xmlns:svg="http://www.w3.org/2000/svg"><defs
     id="defs2" /><sodipodi:namedview
     id="namedview2"
     pagecolor="#ffffff"
     bordercolor="#000000"
     borderopacity="0.25"
     inkscape:showpageshadow="2"
     inkscape:pageopacity="0.0"
     inkscape:pagecheckerboard="0"
     inkscape:deskcolor="#d1d1d1"
     inkscape:zoom="18"
     inkscape:cx="24.972222"
     inkscape:cy="18.944444"
     inkscape:window-width="2560"
     inkscape:window-height="1344"
     inkscape:window-x="0"
     inkscape:window-y="0"
     inkscape:window-maximized="1"
     inkscape:current-layer="svg2"
     showgrid="true"><inkscape:grid
       id="grid1"
       units="px"
       originx="0"
       originy="0"
       spacingx="1"
       spacingy="1"
       empcolor="#0099e5"
       empopacity="0.30196078"
       color="#0099e5"
       opacity="0.14902"
       empspacing="5"
       enabled="true"
       visible="true" /></sodipodi:namedview><style
     type="text/css"
     id="current-color-scheme">
        .ColorScheme-PositiveText {
            color:#27ae60;
        }
        .ColorScheme-NegativeText {
            color:#da4453;
        }
    </style><style
     type="text/css"
     id="current-color-scheme-5">
        .ColorScheme-PositiveText {
            color:#27ae60;
        }
        .ColorScheme-NegativeText {
            color:#da4453;
        }
    </style><g
     id="g3"
     transform="matrix(1,0,0,0.85172417,0,2.3521072)"><g
       id="g1"
       transform="matrix(-0.00274019,0.99999716,-1.1493562,-0.0023841,34.516127,0.1199462)"><g
         id="g81"
         transform="matrix(0,-1,1.558642,0,-297.31416,65.000005)"><path
           id="rect861-8-27-3-9-6-7-0-5-2-6-4-6"
           style="fill:#363c4d;fill-opacity:1;stroke:none;stroke-width:2;stroke-linecap:round;stroke-linejoin:round;stroke-miterlimit:4;stroke-dasharray:none;stroke-opacity:1;paint-order:fill markers stroke"
           d="m 38,191.99957 c -1.107999,0 -2,0.892 -2,2 v 14 c 0,1.108 0.892001,2 2,2 h 19 c 1.107999,0 2,-0.892 2,-2 v -2 h 1 c 1.107999,0 2,-0.892 2,-2 v -6 c 0,-1.108 -0.892001,-2 -2,-2 h -1 v -2 c 0,-1.108 -0.892001,-2 -2,-2 z"
           sodipodi:nodetypes="sssssscsssscsss" /><path
           id="rect2-2-4-8"
           style="fill:#69718b;fill-opacity:1;stroke-width:2;stroke-linecap:round;stroke-linejoin:round;paint-order:stroke fill markers"
           d="m 38,192.99957 c -0.553999,0 -1,0.446 -1,1 v 14 c 0,0.554 0.446001,1 1,1 h 19 c 0.553999,0 1,-0.446 1,-1 v -3 h 1.998047 c 0.55496,0 1.001953,-0.447 1.001953,-1.00196 v -5.99609 c 0,-0.55496 -0.446993,-1.00195 -1.001953,-1.00195 H 58 v -3 c 0,-0.554 -0.446001,-1 -1,-1 z"
           sodipodi:nodetypes="sssssscsssscsss" /><path
           id="rect3-6-3-9"
           style="fill:#363c4d;fill-opacity:1;stroke-width:2;stroke-linecap:round;stroke-linejoin:round;paint-order:stroke fill markers"
           d="m 38,193.99957 v 14 h 19 v -4 h 3 v -6 h -3 v -4 z"
           sodipodi:nodetypes="ccccccccc" /><path
           id="rect3-6-0-0-2"
           style="fill:#363c4d;fill-opacity:1;stroke-width:2;stroke-linecap:round;stroke-linejoin:round;paint-order:stroke fill markers"
           d="m 38,193.99957 v 14 h 19 v -4 h 3 v -6 h -3 v -4 z"
           sodipodi:nodetypes="ccccccccc" /><path
           id="rect4-7-6"
           style="fill:#363c4d;fill-opacity:1;stroke-width:2;stroke-linecap:round;stroke-linejoin:round;paint-order:stroke fill markers"
           d="m 38,193.99957 v 1 13 h 1 18 v -1 -3 h 3 v -1 -5 h -3 v -3 -1 H 56 39 Z m 1,1 h 17 v 3 1 h 3 v 4 h -2 -1 v 1 3 H 39 Z"
           sodipodi:nodetypes="cccccccccccccccccccccccccccc" /><path
           id="rect13-8-6"
           style="fill:#ffb8a3;fill-opacity:1;stroke-width:2;stroke-linecap:round;stroke-linejoin:round;paint-order:stroke fill markers"
           d="m 39,195 v 12 h 2 2 2 2 v -12 h -2 -2 -2 z" /></g><path
         style="fill:#ffffff;stroke-width:0.0555556"
         d="M 4.7046077,27.939202 C 4.2970569,27.879617 3.8463803,27.639559 3.6821193,27.394562 L 3.5555556,27.205791 V 17.483139 7.7604879 L 3.6978894,7.5738786 C 3.8882142,7.3243499 4.3020652,7.1232019 4.7619446,7.0567054 c 0.2073193,-0.029978 1.4206943,-0.055 2.6963887,-0.055605 L 9.7777778,7 V 5.9017853 c 0,-1.0774227 0.00261,-1.1020522 0.13773,-1.3009025 0.1736462,-0.2555433 0.6197572,-0.4792568 1.0917702,-0.5474954 0.465751,-0.067333 9.469195,-0.066597 9.93564,8.131e-4 0.452921,0.065455 0.931493,0.3063298 1.09722,0.5522532 0.121114,0.1797201 0.126529,0.2349564 0.126529,1.2906509 V 7 l 2.319444,0.0011 c 1.275695,6.052e-4 2.491969,0.026038 2.702832,0.056517 0.464628,0.06716 0.900144,0.2894334 1.073382,0.5478201 l 0.126564,0.1887713 V 17.5 27.205791 l -0.126564,0.188771 c -0.173238,0.258387 -0.608754,0.48066 -1.073382,0.54782 -0.475632,0.06875 -22.01318,0.06571 -22.4843353,-0.0032 z M 26.888889,17.5 V 8 H 23.777778 20.666667 V 6.5 5 H 15.972222 11.277778 V 6.5 8 H 8.1666667 5.0555556 V 17.5 27 H 15.972222 26.888889 Z"
         id="path1" /></g><g
       id="g2"><g
         fill-rule="nonzero"
         id="g5"
         transform="matrix(0.54819215,0,0,0.49716851,-13.19744,7.1847301)"><path
           d="M 35.999,26 C 30.46,26 26,30.46 26,36 c 0,5.54 4.46,10 9.999,10 5.54,0 9.999,-4.46 9.999,-10 0,-5.54 -4.459,-10 -9.999,-10 z"
           fill="#3870fe"
           id="path4" /><path
           transform="rotate(13.79738,-94.038883,139.78377)"
           d="M 8,0 7.893,6.794 h 3.535 L 7.02,16 7.107,9.206 H 3.572 Z"
           fill="#ffffff"
           id="path5" /></g></g></g></svg>
