<?xml version="1.0" encoding="UTF-8" standalone="no"?>
<svg
   height="32"
   width="32"
   version="1.1"
   id="svg2"
   sodipodi:docname="battery-060-charging.svg"
   inkscape:version="1.4 (e7c3feb100, 2024-10-09)"
   xml:space="preserve"
   xmlns:inkscape="http://www.inkscape.org/namespaces/inkscape"
   xmlns:sodipodi="http://sodipodi.sourceforge.net/DTD/sodipodi-0.dtd"
   xmlns:xlink="http://www.w3.org/1999/xlink"
   xmlns="http://www.w3.org/2000/svg"
   xmlns:svg="http://www.w3.org/2000/svg"><defs
     id="defs2"><linearGradient
       inkscape:collect="always"
       xlink:href="#linearGradient49"
       id="linearGradient42"
       x1="73.222221"
       y1="46.666668"
       x2="73"
       y2="34.5"
       gradientUnits="userSpaceOnUse"
       gradientTransform="translate(-37,-26.5)" /><linearGradient
       id="linearGradient49"
       inkscape:collect="always"><stop
         style="stop-color:#1ece60;stop-opacity:1;"
         offset="0"
         id="stop48" /><stop
         style="stop-color:#6dd87a;stop-opacity:1;"
         offset="1"
         id="stop49" /></linearGradient></defs><sodipodi:namedview
     id="namedview2"
     pagecolor="#ffffff"
     bordercolor="#000000"
     borderopacity="0.25"
     inkscape:showpageshadow="2"
     inkscape:pageopacity="0.0"
     inkscape:pagecheckerboard="0"
     inkscape:deskcolor="#d1d1d1"
     inkscape:zoom="18"
     inkscape:cx="20.194444"
     inkscape:cy="23.25"
     inkscape:window-width="1890"
     inkscape:window-height="1048"
     inkscape:window-x="0"
     inkscape:window-y="0"
     inkscape:window-maximized="1"
     inkscape:current-layer="svg2"
     showgrid="true"><inkscape:grid
       id="grid2"
       units="px"
       originx="0"
       originy="0"
       spacingx="1"
       spacingy="1"
       empcolor="#0099e5"
       empopacity="0.30196078"
       color="#0099e5"
       opacity="0.14902"
       empspacing="5"
       enabled="true"
       visible="true" /></sodipodi:namedview><style
     type="text/css"
     id="current-color-scheme">
        .ColorScheme-PositiveText {
            color:#27ae60;
        }
        .ColorScheme-NegativeText {
            color:#da4453;
        }
    </style><g
     id="g2"
     transform="matrix(0,-0.99358973,1.5555555,0,-8.7777778,31.925214)"><g
       id="g1"
       transform="translate(-24,2)"><g
         id="g81"
         transform="translate(-38,-130)"><path
           id="rect861-8-27-3-9-6-7-0-5-2-6-4-6-9-7"
           style="fill:#363c4d;fill-opacity:1;stroke:none;stroke-width:2;stroke-linecap:round;stroke-linejoin:round;stroke-miterlimit:4;stroke-dasharray:none;stroke-opacity:1;paint-order:fill markers stroke"
           d="m 67,135 c -1.107999,0 -2,0.892 -2,2 v 14 c 0,1.108 0.892001,2 2,2 h 19 c 1.107999,0 2,-0.892 2,-2 v -2 h 1 c 1.107999,0 2,-0.892 2,-2 v -6 c 0,-1.108 -0.892001,-2 -2,-2 h -1 v -2 c 0,-1.108 -0.892001,-2 -2,-2 z"
           sodipodi:nodetypes="sssssscsssscsss" /><path
           id="rect2-2-4-8-5-2"
           style="fill:#69718b;fill-opacity:1;stroke-width:2;stroke-linecap:round;stroke-linejoin:round;paint-order:stroke fill markers"
           d="m 67,136 c -0.553999,0 -1,0.446 -1,1 v 14 c 0,0.554 0.446001,1 1,1 h 19 c 0.553999,0 1,-0.446 1,-1 v -3 h 1.998047 C 89.553007,148 90,147.55301 90,146.99805 v -5.9961 C 90,140.44699 89.553007,140 88.998047,140 H 87 v -3 c 0,-0.554 -0.446001,-1 -1,-1 z"
           sodipodi:nodetypes="sssssscsssscsss" /><path
           id="rect3-6-3-9-0-7"
           style="fill:#363c4d;fill-opacity:1;stroke-width:2;stroke-linecap:round;stroke-linejoin:round;paint-order:stroke fill markers"
           d="m 67,137 v 14 h 19 v -4 h 3 v -6 h -3 v -4 z"
           sodipodi:nodetypes="ccccccccc" /><path
           id="rect3-6-0-0-2-4-2"
           style="fill:#363c4d;fill-opacity:1;stroke-width:2;stroke-linecap:round;stroke-linejoin:round;paint-order:stroke fill markers"
           d="m 67,137 v 14 h 19 v -4 h 3 v -6 h -3 v -4 z"
           sodipodi:nodetypes="ccccccccc" /><path
           id="rect4-7-6-8-2"
           style="fill:#363c4d;fill-opacity:1;stroke-width:2;stroke-linecap:round;stroke-linejoin:round;paint-order:stroke fill markers"
           d="m 67,137 v 1 13 h 1 18 v -1 -3 h 3 v -1 -5 h -3 v -3 -1 H 85 68 Z m 1,1 h 17 v 3 1 h 3 v 4 h -2 -1 v 1 3 H 68 Z"
           sodipodi:nodetypes="cccccccccccccccccccccccccccc" /></g><g
         id="g20-6-2-0"
         transform="translate(-10,-40)" /><path
         id="rect13-8-6-7-6-9"
         style="fill:url(#linearGradient42);stroke-width:2;stroke-linecap:round;stroke-linejoin:round;paint-order:stroke fill markers"
         d="m 42,12.867188 -2.685547,-1.535157 -1.482422,2.222657 A 1.0001,1.0001 0 0 1 37,14 h -1.876953 l 3.517578,2.513672 1.527344,-2.970703 A 1.0001,1.0001 0 0 1 41.056641,13 H 42 Z" /><path
         id="path3"
         style="fill:#87deb0;fill-opacity:1;stroke-width:2;stroke-linecap:round;stroke-linejoin:round;paint-order:stroke fill markers"
         d="m 30,8 v 12 h 2 2 2 2 2 2 v -5 h -0.332031 l -1.779297,3.457031 a 1.0001,1.0001 0 0 1 -1.470703,0.357422 l -7,-5 A 1.0001,1.0001 0 0 1 32,12 h 4.464844 L 38.167969,9.4453125 A 1.0001,1.0001 0 0 1 39.496094,9.1308594 L 42,10.5625 V 8 h -2 -2 -2 -2 -2 z" /></g><g
       id="rect843-3-3-7-8"><path
         style="color:#000000;fill:#ffffff;stroke-linecap:round;stroke-linejoin:round;-inkscape-stroke:none"
         d="m 22,16 -4.94255,-4e-5 L 15,20 8,15 h 5 l 2,-3 z"
         id="path2" /></g></g><style
     type="text/css"
     id="current-color-scheme-5">
        .ColorScheme-PositiveText {
            color:#27ae60;
        }
        .ColorScheme-NegativeText {
            color:#da4453;
        }
    </style></svg>
