<?xml version="1.0" encoding="UTF-8" standalone="no"?>
<svg
   height="32"
   width="32"
   version="1.1"
   id="svg2"
   sodipodi:docname="battery-100.svg"
   inkscape:version="1.4.2 (ebf0e940d0, 2025-05-08)"
   xmlns:inkscape="http://www.inkscape.org/namespaces/inkscape"
   xmlns:sodipodi="http://sodipodi.sourceforge.net/DTD/sodipodi-0.dtd"
   xmlns="http://www.w3.org/2000/svg"
   xmlns:svg="http://www.w3.org/2000/svg">
  <defs
     id="defs2" />
  <sodipodi:namedview
     id="namedview2"
     pagecolor="#ffffff"
     bordercolor="#000000"
     borderopacity="0.25"
     inkscape:showpageshadow="2"
     inkscape:pageopacity="0.0"
     inkscape:pagecheckerboard="0"
     inkscape:deskcolor="#d1d1d1"
     inkscape:zoom="18"
     inkscape:cx="24.972222"
     inkscape:cy="18.944444"
     inkscape:window-width="2560"
     inkscape:window-height="1344"
     inkscape:window-x="0"
     inkscape:window-y="0"
     inkscape:window-maximized="1"
     inkscape:current-layer="svg2"
     showgrid="true">
    <inkscape:grid
       id="grid1"
       units="px"
       originx="0"
       originy="0"
       spacingx="1"
       spacingy="1"
       empcolor="#0099e5"
       empopacity="0.30196078"
       color="#0099e5"
       opacity="0.14902"
       empspacing="5"
       enabled="true"
       visible="true" />
  </sodipodi:namedview>
  <style
     type="text/css"
     id="current-color-scheme">
        .ColorScheme-PositiveText {
            color:#27ae60;
        }
        .ColorScheme-NegativeText {
            color:#da4453;
        }
    </style>
  <g
     id="g1"
     transform="matrix(-7.6218352e-4,0.86901088,-1.1523008,-5.7480288e-4,34.413005,2.229199)">
    <g
       id="g81"
       transform="matrix(0,-0.99572649,1.5308642,0,-291.81481,121.49146)">
      <path
         id="rect861-8-27-3-9-6-7-0-5-2-6-4-6-9-7-0-9-9-5"
         style="fill:#363c4d;fill-opacity:1;stroke:none;stroke-width:2;stroke-linecap:round;stroke-linejoin:round;stroke-miterlimit:4;stroke-dasharray:none;stroke-opacity:1;paint-order:fill markers stroke"
         d="m 95,192 c -1.107999,0 -2,0.892 -2,2 v 14 c 0,1.108 0.892001,2 2,2 h 19 c 1.108,0 2,-0.892 2,-2 v -2 h 1 c 1.108,0 2,-0.892 2,-2 v -6 c 0,-1.108 -0.892,-2 -2,-2 h -1 v -2 c 0,-1.108 -0.892,-2 -2,-2 z"
         sodipodi:nodetypes="sssssscsssscsss" />
      <path
         id="rect2-2-4-8-5-2-6-1-7-6"
         style="fill:#69718b;fill-opacity:1;stroke-width:2;stroke-linecap:round;stroke-linejoin:round;paint-order:stroke fill markers"
         d="m 95,193 c -0.553999,0 -1,0.446 -1,1 v 14 c 0,0.554 0.446001,1 1,1 h 19 c 0.554,0 1,-0.446 1,-1 v -3 h 1.99805 C 117.55301,205 118,204.55301 118,203.99805 v -5.9961 C 118,197.44699 117.55301,197 116.99805,197 H 115 v -3 c 0,-0.554 -0.446,-1 -1,-1 z"
         sodipodi:nodetypes="sssssscsssscsss" />
      <path
         id="rect3-6-3-9-0-7-1-7-7-3"
         style="fill:#363c4d;fill-opacity:1;stroke-width:2;stroke-linecap:round;stroke-linejoin:round;paint-order:stroke fill markers"
         d="m 95,194 v 14 h 19 v -4 h 3 v -6 h -3 v -4 z"
         sodipodi:nodetypes="ccccccccc" />
      <path
         id="rect3-6-0-0-2-4-2-5-7-6-9"
         style="fill:#363c4d;fill-opacity:1;stroke-width:2;stroke-linecap:round;stroke-linejoin:round;paint-order:stroke fill markers"
         d="m 95,194 v 14 h 19 v -4 h 3 v -6 h -3 v -4 z"
         sodipodi:nodetypes="ccccccccc" />
      <path
         id="rect4-7-6-8-2-9-1-7-4"
         style="fill:#363c4d;fill-opacity:1;stroke-width:2;stroke-linecap:round;stroke-linejoin:round;paint-order:stroke fill markers"
         d="m 95,194 v 1 13 h 1 18 v -1 -3 h 3 v -1 -5 h -3 v -3 -1 h -1 -17 z m 1,1 h 17 v 3 1 h 3 v 4 h -2 -1 v 1 3 H 96 Z"
         sodipodi:nodetypes="cccccccccccccccccccccccccccc" />
      <path
         id="rect13-8-6-7-6-4-1-3-8"
         style="fill:#87deb0;fill-opacity:1;stroke-width:2;stroke-linecap:round;stroke-linejoin:round;paint-order:stroke fill markers"
         d="m 96,195 v 12 h 2 2 2 2 2 2 2 2 1 v -4 h 3 v -4 h -3 v -4 h -1 -2 -2 -2 -2 -2 -2 -2 z"
         sodipodi:nodetypes="ccccccccccccccccccccccccc" />
    </g>
    <path
       style="fill:#ffffff;stroke-width:0.0555556"
       d="M 4.71324,27.811929 C 4.3101701,27.725239 3.9012859,27.470049 3.7697613,27.223089 3.6704796,27.036671 3.6666743,26.674012 3.6668743,17.417533 3.6670784,7.9735498 3.6689824,7.8024387 3.7758167,7.6272234 3.9222814,7.3870116 4.236339,7.1894802 4.6366722,7.0857749 4.9104033,7.0148656 5.3845957,7 7.3727833,7 H 9.7777778 V 5.9758389 c 0,-0.5885493 0.025133,-1.0906812 0.05909,-1.1805556 0.1377078,-0.364474 0.5330862,-0.6339607 1.0778752,-0.7346704 0.454705,-0.084057 9.493587,-0.084057 9.948291,0 0.544789,0.1007097 0.940168,0.3701964 1.077876,0.7346704 C 21.974867,4.8851577 22,5.3872896 22,5.9758389 V 7 h 2.404994 c 1.988188,0 2.46238,0.014866 2.736112,0.085775 0.400333,0.1037053 0.71439,0.3012367 0.860855,0.5414485 0.106835,0.1752153 0.108738,0.3463264 0.108942,9.7903095 2e-4,9.232146 -0.0038,9.619628 -0.102179,9.805556 -0.138937,0.26268 -0.591793,0.528725 -1.029827,0.605005 -0.525566,0.09152 -21.8368876,0.07605 -22.265657,-0.01617 z M 26.611111,17.444444 V 7.9444444 H 23.555556 20.5 v -1.5 -1.5 h -4.611111 -4.611111 v 1.5 1.5 H 8.2222222 5.1666667 v 9.4999996 9.5 H 15.888889 26.611111 Z"
       id="path1" />
  </g>
</svg>
