<?xml version="1.0" encoding="UTF-8" standalone="no"?>
<svg
   height="32"
   width="32"
   version="1.1"
   id="svg2"
   sodipodi:docname="battery-010.svg"
   inkscape:version="1.4 (e7c3feb100, 2024-10-09)"
   xmlns:inkscape="http://www.inkscape.org/namespaces/inkscape"
   xmlns:sodipodi="http://sodipodi.sourceforge.net/DTD/sodipodi-0.dtd"
   xmlns="http://www.w3.org/2000/svg"
   xmlns:svg="http://www.w3.org/2000/svg">
  <defs
     id="defs2" />
  <sodipodi:namedview
     id="namedview2"
     pagecolor="#ffffff"
     bordercolor="#000000"
     borderopacity="0.25"
     inkscape:showpageshadow="2"
     inkscape:pageopacity="0.0"
     inkscape:pagecheckerboard="0"
     inkscape:deskcolor="#d1d1d1"
     inkscape:zoom="18"
     inkscape:cx="24.972222"
     inkscape:cy="18.916667"
     inkscape:window-width="1890"
     inkscape:window-height="1048"
     inkscape:window-x="0"
     inkscape:window-y="0"
     inkscape:window-maximized="1"
     inkscape:current-layer="svg2"
     showgrid="true">
    <inkscape:grid
       id="grid1"
       units="px"
       originx="0"
       originy="0"
       spacingx="1"
       spacingy="1"
       empcolor="#0099e5"
       empopacity="0.30196078"
       color="#0099e5"
       opacity="0.14902"
       empspacing="5"
       enabled="true"
       visible="true" />
  </sodipodi:namedview>
  <style
     type="text/css"
     id="current-color-scheme">
        .ColorScheme-PositiveText {
            color:#27ae60;
        }
        .ColorScheme-NegativeText {
            color:#da4453;
        }
    </style>
  <g
     id="g1"
     transform="matrix(0,-0.99999999,1.5493827,0,-63.074073,70.888888)">
    <g
       id="g81"
       transform="translate(6,-93)">
      <path
         id="rect861-8-27-3-9-6-7-0-5-2-6"
         style="fill:#363c4d;fill-opacity:1;stroke:none;stroke-width:2;stroke-linecap:round;stroke-linejoin:round;stroke-miterlimit:4;stroke-dasharray:none;stroke-opacity:1;paint-order:fill markers stroke"
         d="m 38,135 c -1.107999,0 -2,0.892 -2,2 v 14 c 0,1.108 0.892001,2 2,2 h 19 c 1.107999,0 2,-0.892 2,-2 v -2 h 1 c 1.107999,0 2,-0.892 2,-2 v -6 c 0,-1.108 -0.892001,-2 -2,-2 h -1 v -2 c 0,-1.108 -0.892001,-2 -2,-2 z"
         sodipodi:nodetypes="sssssscsssscsss" />
      <path
         id="rect2-2"
         style="fill:#69718b;fill-opacity:1;stroke-width:2;stroke-linecap:round;stroke-linejoin:round;paint-order:stroke fill markers"
         d="m 38,136 c -0.553999,0 -1,0.446 -1,1 v 14 c 0,0.554 0.446001,1 1,1 h 19 c 0.553999,0 1,-0.446 1,-1 v -3 h 1.998047 C 60.553007,148 61,147.55301 61,146.99805 v -5.9961 C 61,140.44699 60.553007,140 59.998047,140 H 58 v -3 c 0,-0.554 -0.446001,-1 -1,-1 z"
         sodipodi:nodetypes="sssssscsssscsss" />
      <path
         id="rect3-6"
         style="fill:#363c4d;fill-opacity:1;stroke-width:2;stroke-linecap:round;stroke-linejoin:round;paint-order:stroke fill markers"
         d="m 38,137 v 14 h 19 v -4 h 3 v -6 h -3 v -4 z"
         sodipodi:nodetypes="ccccccccc" />
      <path
         id="rect3-6-0"
         style="fill:#363c4d;fill-opacity:1;stroke-width:2;stroke-linecap:round;stroke-linejoin:round;paint-order:stroke fill markers"
         d="m 38,137 v 14 h 19 v -4 h 3 v -6 h -3 v -4 z"
         sodipodi:nodetypes="ccccccccc" />
      <path
         id="rect4"
         style="fill:#363c4d;fill-opacity:1;stroke-width:2;stroke-linecap:round;stroke-linejoin:round;paint-order:stroke fill markers"
         d="m 38,137 v 1 13 h 1 18 v -1 -3 h 3 v -1 -5 h -3 v -3 -1 H 56 39 Z m 1,1 h 17 v 3 1 h 3 v 4 h -2 -1 v 1 3 H 39 Z"
         sodipodi:nodetypes="cccccccccccccccccccccccccccc" />
      <rect
         style="fill:#ff778a;fill-opacity:1;stroke-width:2;stroke-linecap:round;stroke-linejoin:round;paint-order:stroke fill markers"
         id="rect13"
         width="2"
         height="12"
         x="39"
         y="138" />
    </g>
  </g>
</svg>
