<?xml version="1.0" encoding="UTF-8" standalone="no"?>
<svg
   height="32"
   width="32"
   version="1.1"
   id="svg2"
   sodipodi:docname="battery-070-charging.svg"
   inkscape:version="1.4.2 (ebf0e940d0, 2025-05-08)"
   xml:space="preserve"
   xmlns:inkscape="http://www.inkscape.org/namespaces/inkscape"
   xmlns:sodipodi="http://sodipodi.sourceforge.net/DTD/sodipodi-0.dtd"
   xmlns="http://www.w3.org/2000/svg"
   xmlns:svg="http://www.w3.org/2000/svg"><defs
     id="defs2" /><sodipodi:namedview
     id="namedview2"
     pagecolor="#ffffff"
     bordercolor="#000000"
     borderopacity="0.25"
     inkscape:showpageshadow="2"
     inkscape:pageopacity="0.0"
     inkscape:pagecheckerboard="0"
     inkscape:deskcolor="#d1d1d1"
     inkscape:zoom="25.455844"
     inkscape:cx="6.7371563"
     inkscape:cy="17.559818"
     inkscape:window-width="2560"
     inkscape:window-height="1344"
     inkscape:window-x="0"
     inkscape:window-y="0"
     inkscape:window-maximized="1"
     inkscape:current-layer="svg2"
     showguides="false"
     showgrid="true"><inkscape:grid
       id="grid2"
       units="px"
       originx="0"
       originy="0"
       spacingx="1"
       spacingy="1"
       empcolor="#0099e5"
       empopacity="0.30196078"
       color="#0099e5"
       opacity="0.14902"
       empspacing="5"
       enabled="true"
       visible="true" /></sodipodi:namedview><style
     type="text/css"
     id="current-color-scheme">
        .ColorScheme-PositiveText {
            color:#27ae60;
        }
        .ColorScheme-NegativeText {
            color:#da4453;
        }
    </style><style
     type="text/css"
     id="current-color-scheme-5">
        .ColorScheme-PositiveText {
            color:#27ae60;
        }
        .ColorScheme-NegativeText {
            color:#da4453;
        }
    </style><g
     id="g3"
     transform="matrix(1,0,0,0.85401672,0,2.2530315)"><g
       id="g2"
       transform="matrix(-0.00113798,0.99999952,-1.156896,-9.8364995e-4,34.512646,0.00508483)"><g
         id="g1"
         transform="matrix(0,-0.99358974,1.5524692,0,-53.888889,80.555556)"><g
           id="g81"
           transform="translate(-13,-118)"><path
             id="rect861-8-27-3-9-6-7-0-5-2-6-4-6-9-7-0"
             style="fill:#363c4d;fill-opacity:1;stroke:none;stroke-width:2;stroke-linecap:round;stroke-linejoin:round;stroke-miterlimit:4;stroke-dasharray:none;stroke-opacity:1;paint-order:fill markers stroke"
             d="m 67,154 c -1.107999,0 -2,0.892 -2,2 v 14 c 0,1.108 0.892001,2 2,2 h 19 c 1.107999,0 2,-0.892 2,-2 v -2 h 1 c 1.107999,0 2,-0.892 2,-2 v -6 c 0,-1.108 -0.892001,-2 -2,-2 h -1 v -2 c 0,-1.108 -0.892001,-2 -2,-2 z"
             sodipodi:nodetypes="sssssscsssscsss" /><path
             id="rect2-2-4-8-5-2-6"
             style="fill:#69718b;fill-opacity:1;stroke-width:2;stroke-linecap:round;stroke-linejoin:round;paint-order:stroke fill markers"
             d="m 67,155 c -0.553999,0 -1,0.446 -1,1 v 14 c 0,0.554 0.446001,1 1,1 h 19 c 0.553999,0 1,-0.446 1,-1 v -3 h 1.998047 C 89.553007,167 90,166.55301 90,165.99805 v -5.9961 C 90,159.44699 89.553007,159 88.998047,159 H 87 v -3 c 0,-0.554 -0.446001,-1 -1,-1 z"
             sodipodi:nodetypes="sssssscsssscsss" /><path
             id="rect3-6-3-9-0-7-1"
             style="fill:#363c4d;fill-opacity:1;stroke-width:2;stroke-linecap:round;stroke-linejoin:round;paint-order:stroke fill markers"
             d="m 67,156 v 14 h 19 v -4 h 3 v -6 h -3 v -4 z"
             sodipodi:nodetypes="ccccccccc" /><path
             id="rect3-6-0-0-2-4-2-5"
             style="fill:#363c4d;fill-opacity:1;stroke-width:2;stroke-linecap:round;stroke-linejoin:round;paint-order:stroke fill markers"
             d="m 67,156 v 14 h 19 v -4 h 3 v -6 h -3 v -4 z"
             sodipodi:nodetypes="ccccccccc" /><path
             id="rect4-7-6-8-2-9"
             style="fill:#363c4d;fill-opacity:1;stroke-width:2;stroke-linecap:round;stroke-linejoin:round;paint-order:stroke fill markers"
             d="m 67,156 v 1 13 h 1 18 v -1 -3 h 3 v -1 -5 h -3 v -3 -1 H 85 68 Z m 1,1 h 17 v 3 1 h 3 v 4 h -2 -1 v 1 3 H 68 Z"
             sodipodi:nodetypes="cccccccccccccccccccccccccccc" /><path
             id="rect13-8-6-7-6-4"
             style="fill:#87deb0;fill-opacity:1;stroke-width:2;stroke-linecap:round;stroke-linejoin:round;paint-order:stroke fill markers"
             d="m 68,157 v 12 h 2 2 2 2 2 2 2 v -12 h -2 -2 -2 -2 -2 -2 z" /></g></g><path
         style="fill:#ffffff;stroke-width:0.0555556"
         d="M 4.7777778,27.850907 C 4.1943006,27.751559 3.7132734,27.426707 3.612522,27.063974 3.5754526,26.930515 3.5560692,23.631219 3.5558654,17.420318 3.5555574,8.0361928 3.5562347,7.978122 3.6687002,7.7457993 3.8010971,7.4723038 4.0845496,7.2674111 4.5020228,7.1434349 4.7526438,7.0690084 5.1791105,7.0555556 7.2878612,7.0555556 H 9.7777778 V 5.9972411 c 0,-0.815482 0.01847,-1.0940312 0.080495,-1.2139753 0.1238128,-0.2394274 0.4340932,-0.4824512 0.7616572,-0.5965615 0.280916,-0.09786 0.566274,-0.103371 5.352292,-0.103371 4.786018,0 5.071375,0.00551 5.352292,0.103371 0.327565,0.1141103 0.637844,0.3571341 0.761657,0.5965615 0.06203,0.1199441 0.0805,0.3984933 0.0805,1.2139753 v 1.0583145 h 2.489916 c 2.732506,0 2.848228,0.011746 3.321118,0.3371027 0.446017,0.3068677 0.411187,-0.5434999 0.411187,10.0393887 0,6.01357 -0.01979,9.498803 -0.05463,9.620273 -0.07725,0.269351 -0.360424,0.538231 -0.720289,0.683926 l -0.308415,0.124865 -11.194445,0.0067 c -6.1569448,0.0037 -11.2569448,-0.0039 -11.3333337,-0.01693 z M 26.888889,17.472222 V 8 H 23.777778 20.666667 V 6.5 5 H 15.972222 11.277778 V 6.5 8 H 8.1666667 5.0555556 v 9.472222 9.472222 H 15.972222 26.888889 Z"
         id="path1" /></g><g
       fill-rule="nonzero"
       id="g5"
       transform="matrix(0.54819215,0,0,0.49716851,-13.174429,7.0949954)"><path
         d="M 35.999,26 C 30.46,26 26,30.46 26,36 c 0,5.54 4.46,10 9.999,10 5.54,0 9.999,-4.46 9.999,-10 0,-5.54 -4.459,-10 -9.999,-10 z"
         fill="#3870fe"
         id="path4" /><path
         transform="rotate(13.79738,-94.038883,139.78377)"
         d="M 8,0 7.893,6.794 h 3.535 L 7.02,16 7.107,9.206 H 3.572 Z"
         fill="#ffffff"
         id="path5" /></g></g></svg>
