<?xml version="1.0" encoding="UTF-8" standalone="no"?>
<!-- Created with Inkscape (http://www.inkscape.org/) -->

<svg
   width="22"
   height="22"
   viewBox="0 0 22 22"
   version="1.1"
   id="svg5"
   inkscape:version="1.3.2 (091e20ef0f, 2023-11-25, custom)"
   sodipodi:docname="preferences-desktop-gaming.svg"
   xml:space="preserve"
   xmlns:inkscape="http://www.inkscape.org/namespaces/inkscape"
   xmlns:sodipodi="http://sodipodi.sourceforge.net/DTD/sodipodi-0.dtd"
   xmlns="http://www.w3.org/2000/svg"
   xmlns:svg="http://www.w3.org/2000/svg"><sodipodi:namedview
     id="namedview7"
     pagecolor="#ffffff"
     bordercolor="#000000"
     borderopacity="0.25"
     inkscape:showpageshadow="false"
     inkscape:pageopacity="0.0"
     inkscape:pagecheckerboard="0"
     inkscape:deskcolor="#d1d1d1"
     inkscape:document-units="px"
     showgrid="true"
     inkscape:zoom="22.627417"
     inkscape:cx="22.340155"
     inkscape:cy="9.9436891"
     inkscape:window-width="2560"
     inkscape:window-height="1356"
     inkscape:window-x="0"
     inkscape:window-y="0"
     inkscape:window-maximized="1"
     inkscape:current-layer="g23"><inkscape:grid
       type="xygrid"
       id="grid3636"
       originx="0"
       originy="0"
       spacingy="1"
       spacingx="1"
       units="px"
       visible="true" /></sodipodi:namedview><defs
     id="defs2"><style
       type="text/css"
       id="current-color-scheme">
      .ColorScheme-Text {
        color:#36404d;
      }
      </style><style
       type="text/css"
       id="current-color-scheme-67">
      .ColorScheme-Text {
        color:#122036;
      }
      </style><style
       type="text/css"
       id="current-color-scheme-7">
      .ColorScheme-Text {
        color:#122036;
      }
      </style><style
       type="text/css"
       id="current-color-scheme-5">
      .ColorScheme-Text {
        color:#122036;
      }
      </style><style
       type="text/css"
       id="current-color-scheme-6">
      .ColorScheme-Text {
        color:#122036;
      }
      </style><style
       type="text/css"
       id="current-color-scheme-1">
      .ColorScheme-Text {
        color:#122036;
      }
      </style><style
       id="current-color-scheme-10"
       type="text/css">
      .ColorScheme-Text {
        color:#122036;
      }
      </style><style
       id="current-color-scheme-5-7"
       type="text/css">
      .ColorScheme-Text {
        color:#122036;
      }
      </style><style
       id="current-color-scheme-1-2"
       type="text/css">
      .ColorScheme-Text {
        color:#122036;
      }
      </style><style
       type="text/css"
       id="current-color-scheme-10-9">
      .ColorScheme-Text {
        color:#122036;
      }
      </style><style
       type="text/css"
       id="current-color-scheme-675">
      .ColorScheme-Text {
        color:#122036;
      }
      </style><style
       type="text/css"
       id="current-color-scheme-2">
      .ColorScheme-Text {
        color:#122036;
      }
      </style><style
       type="text/css"
       id="current-color-scheme-0">
      .ColorScheme-Text {
        color:#122036;
      }
      </style><style
       type="text/css"
       id="current-color-scheme-27">
      .ColorScheme-Text {
        color:#122036;
      }
      </style><style
       id="current-color-scheme-5-3"
       type="text/css">
      .ColorScheme-Text {
        color:#122036;
      }
      </style><style
       id="current-color-scheme-53"
       type="text/css">
      .ColorScheme-Text {
        color:#122036;
      }
      </style><style
       id="current-color-scheme-535"
       type="text/css">
      .ColorScheme-Text {
        color:#122036;
      }
      </style><style
       type="text/css"
       id="current-color-scheme-5-6">
      .ColorScheme-Text {
        color:#122036;
      }
      </style><style
       id="current-color-scheme-70"
       type="text/css">
      .ColorScheme-Text {
        color:#122036;
      }
      </style><style
       type="text/css"
       id="current-color-scheme-5-9">
      .ColorScheme-Text {
        color:#122036;
      }
      </style><style
       type="text/css"
       id="current-color-scheme-2-0">
      .ColorScheme-Text {
        color:#122036;
      }
      </style><style
       type="text/css"
       id="current-color-scheme-1-5">
      .ColorScheme-Text {
        color:#122036;
      }
      </style><style
       id="current-color-scheme-10-6"
       type="text/css">
      .ColorScheme-Text {
        color:#122036;
      }
      </style><style
       type="text/css"
       id="current-color-scheme-0-9">
      .ColorScheme-Text {
        color:#122036;
      }
      </style><style
       type="text/css"
       id="current-color-scheme-26">
      .ColorScheme-Text {
        color:#122036;
      }
      </style><style
       type="text/css"
       id="current-color-scheme-7-2">
      .ColorScheme-Text {
        color:#122036;
      }
      </style></defs><g
     inkscape:label="Capa 1"
     inkscape:groupmode="layer"
     id="layer1"><g
       id="g1"
       transform="translate(-3.0000001,9.9999999)"><g
         id="g2"
         transform="matrix(3.7795276,0,0,3.7795276,2,-11)"><g
           id="g23"><path
             id="rect19"
             style="fill:#4f92db;fill-opacity:0.99215686;stroke-width:0.529167;stroke-linecap:round;stroke-linejoin:round;paint-order:stroke fill markers"
             d="M 1.3229167 0.52916669 C 0.88318001 0.52916669 0.52916669 0.88318001 0.52916669 1.3229167 L 0.52916669 5.0270833 C 0.52916669 5.46682 0.88318001 5.8208333 1.3229167 5.8208333 L 1.5875 5.8208333 L 2.38125 5.8208333 L 2.38125 5.0270833 L 2.38125 1.3229167 L 2.38125 0.52916669 L 1.5875 0.52916669 L 1.3229167 0.52916669 z " /><path
             id="rect1"
             style="fill:#363f4d;fill-opacity:0.992157;stroke-width:0.529167;stroke-linecap:round;stroke-linejoin:round;paint-order:stroke fill markers"
             d="m 2.3812499,0.5291667 h 1.5875 v 5.2916665 h -1.5875 z" /><path
             id="rect2"
             style="fill:#4a6377;stroke-width:0.529167;stroke-linecap:round;stroke-linejoin:round;paint-order:stroke fill markers"
             d="M 2.3812499,0.79374999 H 3.96875 V 5.5562498 H 2.3812499 Z" /><path
             id="rect22"
             style="fill:#5abfff;fill-opacity:1;stroke-width:0.529167;stroke-linecap:round;stroke-linejoin:round;paint-order:stroke fill markers"
             d="M 1.335319 0.79375002 C 1.042161 0.79375002 0.80615236 1.0297586 0.80615236 1.3229167 L 0.80615236 5.0270833 C 0.80615236 5.3202414 1.042161 5.55625 1.335319 5.55625 L 1.5875 5.55625 L 2.1166667 5.55625 L 2.1166667 5.0270833 L 2.1166667 1.3229167 L 2.1166667 0.79375002 L 1.5875 0.79375002 L 1.335319 0.79375002 z " /><path
             id="rect19-9"
             style="fill:#d72f46;fill-opacity:0.97254902;stroke-width:0.529167;stroke-linecap:round;stroke-linejoin:round;paint-order:stroke fill markers"
             d="m 5.0270831,0.52916664 c 0.4397367,0 0.79375,0.3540133 0.79375,0.79374996 v 3.7041667 c 0,0.4397367 -0.3540133,0.79375 -0.79375,0.79375 H 4.7624998 3.9687498 V 5.0270833 1.3229166 0.52916664 h 0.79375 z" /><path
             id="rect22-4"
             style="fill:#fe7588;fill-opacity:1;stroke-width:0.529167;stroke-linecap:round;stroke-linejoin:round;paint-order:stroke fill markers"
             d="m 5.0146808,0.79374994 c 0.293158,0 0.5291666,0.23600856 0.5291666,0.52916666 v 3.7041667 c 0,0.2931581 -0.2360086,0.5291667 -0.5291666,0.5291667 H 4.7624998 4.2333331 V 5.0270833 1.3229166 0.79374994 h 0.5291667 z" /><path
             id="rect3"
             style="fill:#1d3d52;stroke-width:0.396875;stroke-linecap:round;stroke-linejoin:round;paint-order:stroke fill markers"
             d="m 1.4552085,2.6458333 c 0.2198688,0 0.396875,0.1770062 0.396875,0.3968749 0,0.2198688 -0.1770062,0.396875 -0.396875,0.396875 -0.2198687,0 -0.396875,-0.1770062 -0.396875,-0.396875 0,-0.2198687 0.1770063,-0.3968749 0.396875,-0.3968749 z" /><path
             id="rect4"
             style="fill:#2f6384;stroke-width:0.264583;stroke-linecap:round;stroke-linejoin:round;paint-order:stroke fill markers"
             d="m 1.4552084,2.9104166 c 0.07329,0 0.1322917,0.059002 0.1322917,0.1322917 0,0.07329 -0.059002,0.1322916 -0.1322917,0.1322916 -0.07329,0 -0.1322917,-0.059002 -0.1322917,-0.1322916 0,-0.07329 0.059002,-0.1322917 0.1322917,-0.1322917 z" /><path
             id="rect3-2"
             style="fill:#501f23;stroke-width:0.396875;stroke-linecap:round;stroke-linejoin:round;paint-order:stroke fill markers"
             d="m 4.8947917,3.7041667 c 0.2198687,0 0.396875,0.1770062 0.396875,0.3968749 0,0.2198688 -0.1770063,0.396875 -0.396875,0.396875 -0.2198688,0 -0.396875,-0.1770062 -0.396875,-0.396875 0,-0.2198687 0.1770062,-0.3968749 0.396875,-0.3968749 z" /><path
             id="rect4-3"
             style="fill:#833d46;stroke-width:0.264583;stroke-linecap:round;stroke-linejoin:round;paint-order:stroke fill markers"
             d="m 4.8947915,3.96875 c 0.073289,0 0.1322916,0.059002 0.1322916,0.1322917 0,0.07329 -0.059002,0.1322916 -0.1322916,0.1322916 -0.07329,0 -0.1322917,-0.059002 -0.1322917,-0.1322916 0,-0.07329 0.059002,-0.1322917 0.1322917,-0.1322917 z" /><path
             id="rect4-3-2"
             style="fill:#d7dadc;stroke-width:0.264583;stroke-linecap:round;stroke-linejoin:round;paint-order:stroke fill markers"
             d="m 2.7781249,2.116667 c 0.07329,0 0.1322917,0.059002 0.1322917,0.1322917 0,0.07329 -0.059002,0.1322917 -0.1322917,0.1322917 -0.07329,0 -0.1322916,-0.059002 -0.1322916,-0.1322917 0,-0.07329 0.059002,-0.1322917 0.1322916,-0.1322917 z" /><path
             id="rect4-3-2-8"
             style="fill:#36404d;stroke-width:0.264583;stroke-linecap:round;stroke-linejoin:round;paint-order:stroke fill markers"
             d="m 2.7781249,2.6458335 c 0.07329,0 0.1322917,0.059002 0.1322917,0.1322917 0,0.07329 -0.059002,0.1322916 -0.1322917,0.1322916 -0.07329,0 -0.1322916,-0.059002 -0.1322916,-0.1322916 0,-0.07329 0.059002,-0.1322917 0.1322916,-0.1322917 z" /><path
             id="rect4-3-2-7"
             style="fill:#36404d;stroke-width:0.264583;stroke-linecap:round;stroke-linejoin:round;paint-order:stroke fill markers"
             d="m 2.7781249,3.1750002 c 0.07329,0 0.1322917,0.059002 0.1322917,0.1322917 0,0.07329 -0.059002,0.1322916 -0.1322917,0.1322916 -0.07329,0 -0.1322916,-0.059002 -0.1322916,-0.1322916 0,-0.07329 0.059002,-0.1322917 0.1322916,-0.1322917 z" /><path
             id="rect4-3-2-8-3"
             style="fill:#36404d;stroke-width:0.264583;stroke-linecap:round;stroke-linejoin:round;paint-order:stroke fill markers"
             d="m 2.7781249,3.7041667 c 0.07329,0 0.1322917,0.059002 0.1322917,0.1322916 0,0.07329 -0.059002,0.1322917 -0.1322917,0.1322917 -0.07329,0 -0.1322916,-0.059002 -0.1322916,-0.1322917 0,-0.07329 0.059002,-0.1322916 0.1322916,-0.1322916 z" /><path
             id="rect4-3-2-1"
             style="fill:#d7dadc;stroke-width:0.264583;stroke-linecap:round;stroke-linejoin:round;paint-order:stroke fill markers"
             d="m 3.5718747,2.116667 c 0.07329,0 0.1322917,0.059002 0.1322917,0.1322917 0,0.07329 -0.059002,0.1322917 -0.1322917,0.1322917 -0.07329,0 -0.1322916,-0.059002 -0.1322916,-0.1322917 0,-0.07329 0.059002,-0.1322917 0.1322916,-0.1322917 z" /><path
             id="rect4-3-2-8-2"
             style="fill:#36404d;stroke-width:0.264583;stroke-linecap:round;stroke-linejoin:round;paint-order:stroke fill markers"
             d="m 3.5718747,2.6458335 c 0.07329,0 0.1322917,0.059002 0.1322917,0.1322917 0,0.07329 -0.059002,0.1322916 -0.1322917,0.1322916 -0.07329,0 -0.1322916,-0.059002 -0.1322916,-0.1322916 0,-0.07329 0.059002,-0.1322917 0.1322916,-0.1322917 z" /><path
             id="rect4-3-2-7-9"
             style="fill:#36404d;stroke-width:0.264583;stroke-linecap:round;stroke-linejoin:round;paint-order:stroke fill markers"
             d="m 3.5718747,3.1750002 c 0.07329,0 0.1322917,0.059002 0.1322917,0.1322917 0,0.07329 -0.059002,0.1322916 -0.1322917,0.1322916 -0.07329,0 -0.1322916,-0.059002 -0.1322916,-0.1322916 0,-0.07329 0.059002,-0.1322917 0.1322916,-0.1322917 z" /><path
             id="rect4-3-2-8-3-3"
             style="fill:#36404d;stroke-width:0.264583;stroke-linecap:round;stroke-linejoin:round;paint-order:stroke fill markers"
             d="m 3.5718747,3.7041667 c 0.07329,0 0.1322917,0.059002 0.1322917,0.1322916 0,0.07329 -0.059002,0.1322917 -0.1322917,0.1322917 -0.07329,0 -0.1322916,-0.059002 -0.1322916,-0.1322917 0,-0.07329 0.059002,-0.1322916 0.1322916,-0.1322916 z" /><path
             id="rect5"
             style="fill:#1d3d52;stroke-width:0.529167;stroke-linecap:round;stroke-linejoin:round;paint-order:stroke fill markers"
             d="M 1.0583333,1.5875002 H 1.8520834 V 1.8520834 H 1.0583333 Z" /><path
             id="rect5-2"
             style="fill:#501f23;stroke-width:0.529167;stroke-linecap:round;stroke-linejoin:round;paint-order:stroke fill markers"
             d="M 4.4979167,1.5875001 H 5.2916668 V 1.8520835 H 4.4979167 Z" /><path
             id="rect5-2-8"
             style="fill:#501f23;stroke-width:0.529167;stroke-linecap:round;stroke-linejoin:round;paint-order:stroke fill markers"
             d="M 5.0270834,1.3229168 V 2.1166669 H 4.7625 V 1.3229168 Z" /><path
             id="rect10"
             style="fill:#1d3d52;stroke-width:0.529167;stroke-linecap:round;stroke-linejoin:round;paint-order:stroke fill markers"
             d="m 1.8520832,3.4395833 h 1e-7 v 0.2645833 h -1e-7 z" /><path
             id="rect11"
             style="fill:#1d3d52;stroke-width:0.529167;stroke-linecap:round;stroke-linejoin:round;paint-order:stroke fill markers"
             d="M 1.5875,5.0270834 H 1.8520832 V 5.2916666 H 1.5875 Z" /><path
             id="rect11-5"
             style="fill:#501f23;stroke-width:0.529167;stroke-linecap:round;stroke-linejoin:round;paint-order:stroke fill markers"
             d="m 4.6302078,5.0270834 c 0.07329,0 0.1322916,0.059002 0.1322916,0.1322916 0,0.07329 -0.059002,0.1322916 -0.1322916,0.1322916 -0.073289,0 -0.1322916,-0.059002 -0.1322916,-0.1322916 0,-0.073289 0.059002,-0.1322916 0.1322916,-0.1322916 z" /><path
             id="rect18"
             style="fill:#1d3d52;stroke-width:0.529167;stroke-linecap:round;stroke-linejoin:round;paint-order:stroke fill markers"
             d="m 1.4552083,3.7041667 h 1e-7 c 0.07329,0 0.1322916,0.059002 0.1322916,0.1322916 0,0.07329 -0.059002,0.1322917 -0.1322916,0.1322917 h -1e-7 c -0.07329,0 -0.1322917,-0.059002 -0.1322917,-0.1322917 0,-0.07329 0.059002,-0.1322916 0.1322917,-0.1322916 z" /><path
             id="rect18-6"
             style="fill:#1d3d52;stroke-width:0.529167;stroke-linecap:round;stroke-linejoin:round;paint-order:stroke fill markers"
             d="m 1.4552083,4.2333293 h 1e-7 c 0.07329,0 0.1322916,0.059002 0.1322916,0.1322917 0,0.07329 -0.059002,0.1322916 -0.1322916,0.1322916 h -1e-7 c -0.07329,0 -0.1322917,-0.059002 -0.1322917,-0.1322916 0,-0.07329 0.059002,-0.1322917 0.1322917,-0.1322917 z" /><path
             id="rect18-6-6"
             style="fill:#1d3d52;stroke-width:0.529167;stroke-linecap:round;stroke-linejoin:round;paint-order:stroke fill markers"
             d="m 1.7197915,3.96875 h 1e-7 c 0.07329,0 0.1322917,0.059002 0.1322917,0.1322917 0,0.07329 -0.059002,0.1322916 -0.1322917,0.1322916 h -1e-7 c -0.07329,0 -0.1322916,-0.059002 -0.1322916,-0.1322916 0,-0.07329 0.059002,-0.1322917 0.1322916,-0.1322917 z" /><path
             id="rect18-6-6-6"
             style="fill:#1d3d52;stroke-width:0.529167;stroke-linecap:round;stroke-linejoin:round;paint-order:stroke fill markers"
             d="m 1.1906251,3.96875 h 0 c 0.07329,0 0.1322917,0.059002 0.1322917,0.1322917 0,0.07329 -0.059002,0.1322916 -0.1322917,0.1322916 h 0 c -0.07329,0 -0.1322917,-0.059002 -0.1322917,-0.1322916 0,-0.07329 0.059002,-0.1322917 0.1322917,-0.1322917 z" /><path
             id="rect18-8"
             style="fill:#501f23;stroke-width:0.529167;stroke-linecap:round;stroke-linejoin:round;paint-order:stroke fill markers"
             d="m 4.894792,2.6458333 h 0 c 0.07329,0 0.1322917,0.059002 0.1322917,0.1322916 0,0.07329 -0.059002,0.1322917 -0.1322917,0.1322917 h 0 c -0.07329,0 -0.1322917,-0.059002 -0.1322917,-0.1322917 0,-0.07329 0.059002,-0.1322916 0.1322917,-0.1322916 z" /><path
             id="rect18-6-7"
             style="fill:#501f23;stroke-width:0.529167;stroke-linecap:round;stroke-linejoin:round;paint-order:stroke fill markers"
             d="m 4.894792,3.1749959 h 0 c 0.07329,0 0.1322917,0.059002 0.1322917,0.1322917 0,0.07329 -0.059002,0.1322916 -0.1322917,0.1322916 h 0 c -0.07329,0 -0.1322917,-0.059002 -0.1322917,-0.1322916 0,-0.07329 0.059002,-0.1322917 0.1322917,-0.1322917 z" /><path
             id="rect18-6-6-9"
             style="fill:#501f23;stroke-width:0.529167;stroke-linecap:round;stroke-linejoin:round;paint-order:stroke fill markers"
             d="m 5.1593751,2.9104166 h 0 c 0.07329,0 0.1322917,0.059002 0.1322917,0.1322917 0,0.07329 -0.059002,0.1322917 -0.1322917,0.1322917 h 0 c -0.07329,0 -0.1322917,-0.059002 -0.1322917,-0.1322917 0,-0.07329 0.059002,-0.1322917 0.1322917,-0.1322917 z" /><path
             id="rect18-6-6-6-2"
             style="fill:#501f23;stroke-width:0.529167;stroke-linecap:round;stroke-linejoin:round;paint-order:stroke fill markers"
             d="m 4.6302084,2.9104166 h 0 c 0.07329,0 0.1322917,0.059002 0.1322917,0.1322917 0,0.07329 -0.059002,0.1322917 -0.1322917,0.1322917 h 0 c -0.07329,0 -0.1322917,-0.059002 -0.1322917,-0.1322917 0,-0.07329 0.059002,-0.1322917 0.1322917,-0.1322917 z" /></g></g></g></g></svg>
