<?xml version="1.0" encoding="UTF-8" standalone="no"?>
<svg
   width="22"
   height="22"
   version="1.1"
   viewBox="0 0 22 22"
   id="svg1"
   sodipodi:docname="configure.svg"
   inkscape:version="1.4.2 (ebf0e940d0, 2025-05-08)"
   xmlns:inkscape="http://www.inkscape.org/namespaces/inkscape"
   xmlns:sodipodi="http://sodipodi.sourceforge.net/DTD/sodipodi-0.dtd"
   xmlns="http://www.w3.org/2000/svg"
   xmlns:svg="http://www.w3.org/2000/svg">
  <sodipodi:namedview
     id="namedview1"
     pagecolor="#ffffff"
     bordercolor="#000000"
     borderopacity="0.25"
     inkscape:showpageshadow="2"
     inkscape:pageopacity="0.0"
     inkscape:pagecheckerboard="0"
     inkscape:deskcolor="#d1d1d1"
     showgrid="true"
     inkscape:zoom="38.590909"
     inkscape:cx="11.414605"
     inkscape:cy="10.987044"
     inkscape:window-width="2560"
     inkscape:window-height="1367"
     inkscape:window-x="0"
     inkscape:window-y="0"
     inkscape:window-maximized="1"
     inkscape:current-layer="svg1">
    <inkscape:grid
       id="grid1"
       units="px"
       originx="0"
       originy="0"
       spacingx="1"
       spacingy="1"
       empcolor="#0099e5"
       empopacity="0.30196078"
       color="#0099e5"
       opacity="0.14902"
       empspacing="5"
       enabled="true"
       visible="true" />
  </sodipodi:namedview>
  <defs
     id="defs1">
    <style
       id="current-color-scheme"
       type="text/css">.ColorScheme-Text { color:#aaaaaa; } .ColorScheme-Highlight { color:#5294e2; }</style>
  </defs>
  <path
     style="fill:#e1ebf2;fill-opacity:1;stroke:#a9a9a9;stroke-width:0.022826;stroke-opacity:0.34902"
     d="M 10.565632,19.019104 C 10.0059,18.997502 9.2467174,18.891766 9.0876763,18.813257 8.9952095,18.767608 8.8823083,18.64151 8.8523192,18.550379 8.8388496,18.509468 8.7428334,18.029392 8.638941,17.483555 8.4271663,16.370933 8.4076553,16.310844 8.191006,16.10403 7.9743098,15.897173 7.6530927,15.792208 7.3607108,15.832711 c -0.074749,0.01035 -0.5973987,0.17528 -1.1614413,0.366498 -0.6576729,0.222961 -1.0583658,0.34767 -1.1170668,0.34767 -0.1749584,0 -0.3033693,-0.07586 -0.5038425,-0.297673 C 3.9587339,15.563636 3.4650268,14.786084 3.1174476,13.948374 2.9296243,13.495696 2.8988445,13.378753 2.9342558,13.252365 c 0.015687,-0.05599 0.049974,-0.130566 0.076201,-0.165721 0.026226,-0.03515 0.401912,-0.348715 0.8348662,-0.696803 0.4329529,-0.348089 0.8309991,-0.678259 0.8845464,-0.733714 0.315706,-0.326952 0.3442633,-0.818383 0.068339,-1.176087 C 4.7553122,10.424434 4.348082,10.080207 3.8932501,9.7150985 3.4103253,9.327439 3.0399515,9.0133475 3.0029903,8.9601236 2.9042458,8.8179317 2.8970972,8.705014 2.9731752,8.4891645 3.1985159,7.8498318 3.5406973,7.1836978 3.9262772,6.633733 4.1548373,6.3077305 4.478825,5.9118887 4.6666113,5.7292065 4.8128309,5.5869608 4.8607291,5.5543274 4.9560252,5.5320253 c 0.062803,-0.014699 0.1469121,-0.020272 0.1868999,-0.012387 0.039985,0.00788 0.514254,0.1630928 1.0539272,0.3449038 C 7.3096419,6.2394308 7.322292,6.2431574 7.4827197,6.2433267 7.8574013,6.2437227 8.2079287,6.0376153 8.3697153,5.7217801 8.4425714,5.5795536 8.4702673,5.4623097 8.6389744,4.5819677 8.7424015,4.0422642 8.8384117,3.5655634 8.8523301,3.5226324 8.8887179,3.4104073 8.9779389,3.3057456 9.0793142,3.2563755 c 0.1044137,-0.05085 0.4506541,-0.1167494 0.902256,-0.1717269 0.4063068,-0.049462 1.4994958,-0.056766 1.8923608,-0.01264 0.2962,0.033268 0.776363,0.1078119 0.907411,0.140873 0.112004,0.028255 0.285053,0.1777699 0.318829,0.2754681 0.014,0.040504 0.113287,0.5256911 0.220632,1.0781937 0.143209,0.7371042 0.211051,1.0376623 0.254817,1.1289215 0.118811,0.2477338 0.399036,0.4612159 0.690389,0.5259539 0.24956,0.055451 0.355594,0.030391 1.475028,-0.3486131 1.135189,-0.3843385 1.180746,-0.3943559 1.371337,-0.301538 0.186635,0.090892 0.783486,0.8186193 1.136607,1.3858419 0.402478,0.6465077 0.785543,1.5081304 0.785543,1.766914 0,0.218123 0.0054,0.2126314 -1.016266,1.030775 -0.690897,0.5532554 -0.832379,0.6783174 -0.909633,0.8040504 -0.125808,0.204755 -0.165561,0.513184 -0.09527,0.739139 0.07842,0.252119 0.157478,0.330715 1.069537,1.063446 0.936098,0.752045 0.951631,0.768268 0.951631,0.993939 0,0.194866 -0.323884,0.967758 -0.61762,1.473837 -0.427737,0.736956 -1.090659,1.571033 -1.331721,1.675554 -0.174975,0.07586 -0.227648,0.06368 -1.314557,-0.30389 -0.562712,-0.190305 -1.083565,-0.355337 -1.157448,-0.366741 -0.288062,-0.04446 -0.626454,0.06447 -0.843039,0.271363 -0.212305,0.202811 -0.230073,0.258203 -0.45204,1.409195 -0.143161,0.742351 -0.212343,1.052725 -0.248848,1.116416 -0.08757,0.15279 -0.199638,0.207961 -0.546804,0.269197 -0.603823,0.106504 -1.253442,0.145944 -1.956815,0.1188 z m 0.928041,-5.205697 c 0.412108,-0.06418 0.866303,-0.241365 1.206125,-0.470506 0.201607,-0.135943 0.537665,-0.447937 0.681169,-0.632393 0.57083,-0.73373 0.734213,-1.695681 0.433644,-2.553141 C 13.657324,9.7086658 13.439735,9.3737678 13.090146,9.0423267 12.477847,8.4618123 11.703464,8.1758913 10.845982,8.2137274 10.071267,8.2479113 9.4216949,8.5228624 8.8688488,9.0506086 8.287987,9.6050995 8.0074437,10.252793 8.0074437,11.039346 c 0,1.075513 0.5917402,1.992021 1.61902,2.507597 0.5508343,0.276456 1.2043003,0.36971 1.8672093,0.266464 z"
     id="path1" />
</svg>
