<?xml version="1.0" encoding="UTF-8" standalone="no"?>
<svg
   width="22"
   height="22"
   version="1.1"
   viewBox="0 0 22 22"
   id="svg1"
   sodipodi:docname="configure.svg"
   inkscape:version="1.4 (e7c3feb100, 2024-10-09)"
   xmlns:inkscape="http://www.inkscape.org/namespaces/inkscape"
   xmlns:sodipodi="http://sodipodi.sourceforge.net/DTD/sodipodi-0.dtd"
   xmlns="http://www.w3.org/2000/svg"
   xmlns:svg="http://www.w3.org/2000/svg">
  <sodipodi:namedview
     id="namedview1"
     pagecolor="#ffffff"
     bordercolor="#000000"
     borderopacity="0.25"
     inkscape:showpageshadow="2"
     inkscape:pageopacity="0.0"
     inkscape:pagecheckerboard="0"
     inkscape:deskcolor="#d1d1d1"
     showgrid="true"
     inkscape:zoom="38.590909"
     inkscape:cx="11.414605"
     inkscape:cy="11"
     inkscape:window-width="1890"
     inkscape:window-height="1048"
     inkscape:window-x="0"
     inkscape:window-y="0"
     inkscape:window-maximized="1"
     inkscape:current-layer="svg1">
    <inkscape:grid
       id="grid1"
       units="px"
       originx="0"
       originy="0"
       spacingx="1"
       spacingy="1"
       empcolor="#0099e5"
       empopacity="0.30196078"
       color="#0099e5"
       opacity="0.14902"
       empspacing="5"
       enabled="true"
       visible="true" />
  </sodipodi:namedview>
  <defs
     id="defs1">
    <style
       id="current-color-scheme"
       type="text/css">.ColorScheme-Text { color:#aaaaaa; } .ColorScheme-Highlight { color:#5294e2; }</style>
  </defs>
  <path
     style="fill:#e1ebf2;fill-opacity:1;stroke:#a9a9a9;stroke-width:0.0255496;stroke-opacity:0.34902"
     d="M 10.53157,19.975484 C 9.9080206,19.951189 9.0622816,19.832272 8.8851077,19.743977 8.7820985,19.692637 8.6563252,19.550819 8.622917,19.448329 8.6079116,19.402319 8.5009483,18.862399 8.3852107,18.248522 8.1492912,16.997206 8.1275556,16.929626 7.8862055,16.697032 7.6448031,16.464389 7.2869632,16.346339 6.9612459,16.391892 c -0.083272,0.01164 -0.6655098,0.19713 -1.2938606,0.412184 -0.7326559,0.250754 -1.1790331,0.391009 -1.2444266,0.391009 -0.194906,0 -0.3379575,-0.08532 -0.5612872,-0.33478 -0.6902716,-0.771029 -1.2402677,-1.645507 -1.6274754,-2.587641 -0.2092375,-0.509107 -0.2435266,-0.640627 -0.204078,-0.78277 0.017476,-0.06297 0.055672,-0.146842 0.08489,-0.186378 0.029216,-0.03954 0.4477351,-0.392184 0.9300517,-0.783664 C 3.5273749,12.128373 3.9708034,11.757045 4.0304559,11.694678 4.3821563,11.32697 4.4139696,10.774279 4.1065867,10.371987 4.0587983,10.309449 3.6051387,9.9223121 3.0984501,9.5116914 2.5604657,9.0757079 2.1478644,8.7224636 2.1066893,8.662605 1.9966866,8.5026883 1.988723,8.3756949 2.0734748,8.1329387 2.3245072,7.4139103 2.7057017,6.6647396 3.1352427,6.0462191 3.3898616,5.679579 3.750788,5.2343937 3.9599844,5.0289393 4.1228751,4.868962 4.1762342,4.8322607 4.2823952,4.8071785 4.352359,4.7906471 4.4460573,4.7843792 4.4906041,4.7932477 4.5351479,4.8021112 5.0634897,4.9766707 5.6646926,5.1811453 6.9043545,5.6027655 6.9184469,5.6069565 7.0971655,5.607147 7.5145656,5.6075923 7.9050576,5.3757926 8.0852898,5.0205872 8.1664526,4.8606315 8.1973062,4.7287726 8.385248,3.7386919 8.5004672,3.1317119 8.6074237,2.5955882 8.6229291,2.5473057 8.6634655,2.4210912 8.7628588,2.3033828 8.8757922,2.2478587 8.9921104,2.1906701 9.3778267,2.1165558 9.8809176,2.0547251 c 0.4526304,-0.055628 1.6704574,-0.063842 2.1081134,-0.014216 0.329971,0.037415 0.864879,0.1212512 1.010868,0.1584335 0.124774,0.031778 0.317552,0.1999297 0.35518,0.3098065 0.0156,0.045553 0.126203,0.5912208 0.245786,1.2125954 0.159536,0.8289876 0.235113,1.1670117 0.28387,1.2696467 0.132356,0.278615 0.444531,0.5187085 0.769103,0.5915165 0.278012,0.062364 0.396135,0.03418 1.643199,-0.3920693 1.264615,-0.4322481 1.315366,-0.4435142 1.527687,-0.3391261 0.207914,0.1022216 0.872813,0.9206639 1.266194,1.5585934 0.448367,0.7270978 0.875106,1.6961258 0.875106,1.9871678 0,0.2453132 0.006,0.239137 -1.132134,1.1592664 -0.769668,0.6222221 -0.92728,0.7628721 -1.013342,0.9042781 -0.140152,0.23028 -0.184438,0.577155 -0.106131,0.831276 0.08737,0.283548 0.175433,0.371941 1.191478,1.196011 1.042825,0.845789 1.060129,0.864036 1.060129,1.117838 0,0.219156 -0.360811,1.088393 -0.688036,1.657558 -0.476506,0.82882 -1.215009,1.766869 -1.483555,1.884418 -0.194924,0.08532 -0.253603,0.07162 -1.464433,-0.341771 -0.626869,-0.214026 -1.207106,-0.399631 -1.289412,-0.412457 -0.320906,-0.05 -0.697878,0.0725 -0.939157,0.30519 -0.23651,0.228091 -0.256303,0.290389 -0.503578,1.584857 -0.159484,0.834889 -0.236553,1.183952 -0.27722,1.255583 -0.09756,0.171836 -0.222398,0.233884 -0.609146,0.302753 -0.672666,0.119782 -1.396352,0.164138 -2.179917,0.13361 z m 1.033849,-5.854612 c 0.459094,-0.07219 0.965073,-0.271452 1.343639,-0.529157 0.224592,-0.152888 0.598966,-0.503774 0.758831,-0.711223 C 14.3038,12.055299 14.485812,10.973437 14.150973,10.00909 13.975755,9.5044564 13.733357,9.1278119 13.343911,8.7550551 12.661801,8.1021768 11.799129,7.7806147 10.843883,7.8231671 9.9808403,7.8616122 9.2572088,8.1708371 8.641331,8.7643694 7.9942435,9.3879801 7.6817147,10.116412 7.6817147,11.001012 c 0,1.20958 0.6592063,2.240336 1.8036087,2.820181 0.6136366,0.310917 1.3416066,0.415795 2.0800956,0.299679 z"
     id="path1" />
</svg>
