<svg height="22" viewBox="0 0 22 22" width="22" xmlns="http://www.w3.org/2000/svg"><defs id="kuyenfoldercolor">
    <style type="text/css" id="current-color-scheme">
      .ColorScheme-Highlight {
        color:#03b2fe;
      }
      </style>
  </defs><g stroke-linecap="round" stroke-linejoin="round"><path d="m7.546875 2.109375c.334866-.17037.736967-.138685 1.041016.08203l10.999999 8c.54875.399409.54875 1.217779 0 1.617188l-10.999999 8c-.660894.480101-1.587448.0083-1.587891-.808594v-4h-5c-.552262-.000055-.999945-.447738-1-1v-3-3c.000055-.552262.447738-.999945 1-1h5v-4c.000332-.376086.211625-.720191.546875-.890624z" style="fill:currentColor"
class="ColorScheme-Highlight"/><path d="m7.943359 2.001953c.226281-.01291.454501.05151.644532.189453l10.999999 8c.548749.399409.548749 1.217779 0 1.617188l-10.999999 8c-.660894.4801-1.587448.0083-1.587891-.808594v-4h-5c-.552261-.000055-.999945-.447739-1-1v-3-3c.000055-.552261.447739-.999945 1-1h5v-4c.000332-.376086.211625-.720191.546875-.890625.125575-.06389.260716-.09967.396484-.107422zm.05664.998047v5h-6v3 3h6v5l10.999999-8z" fill-opacity=".2"/></g></svg>
