<?xml version="1.0" encoding="UTF-8" standalone="no"?>
<svg
   height="22"
   viewBox="0 0 5.8208332 5.8208335"
   width="22"
   version="1.1"
   id="svg6"
   sodipodi:docname="irc-voice.svg"
   xml:space="preserve"
   inkscape:version="1.2.2 (b0a8486541, 2022-12-01)"
   xmlns:inkscape="http://www.inkscape.org/namespaces/inkscape"
   xmlns:sodipodi="http://sodipodi.sourceforge.net/DTD/sodipodi-0.dtd"
   xmlns="http://www.w3.org/2000/svg"
   xmlns:svg="http://www.w3.org/2000/svg"><sodipodi:namedview
     id="namedview8"
     pagecolor="#ffffff"
     bordercolor="#000000"
     borderopacity="0.25"
     inkscape:showpageshadow="2"
     inkscape:pageopacity="0.0"
     inkscape:pagecheckerboard="0"
     inkscape:deskcolor="#d1d1d1"
     showgrid="true"
     inkscape:zoom="46.681818"
     inkscape:cx="10.935735"
     inkscape:cy="11.010711"
     inkscape:window-width="2560"
     inkscape:window-height="1363"
     inkscape:window-x="0"
     inkscape:window-y="0"
     inkscape:window-maximized="1"
     inkscape:current-layer="svg6"><inkscape:grid
       type="xygrid"
       id="grid237" /></sodipodi:namedview><defs
     id="defs2"><style
       type="text/css"
       id="current-color-scheme">
      .ColorScheme-Text {
        color:#36404d;
      }
      </style></defs><path
     d="m2.5135006 291.9725c-1.0993437 0-1.98437499.88503-1.98437499 1.98438 0 .52245.2013811.99509.52916669 1.34875v.9002c-.0000456.19422.2021872.32231.3777547.23927l1.0671183-.50437c.00348.00002.00685.00052.010335.00052h.79375c1.0993438 0 1.984375-.88503 1.984375-1.98437 0-1.09935-.8850312-1.98438-1.984375-1.98438z"
     fill="currentColor"
     transform="translate(0 -291.17916)"
     style="fill:currentColor;fill-opacity:1;stroke:none"
     class="ColorScheme-Text"
     id="path4" /><g
     id="rect291"><path
       id="path455"
       style="color:#000000;fill:#4f92db;stroke-linecap:round;stroke-linejoin:round;-inkscape-stroke:none;fill-opacity:1"
       d="M 2.6463501 0.26354981 C 1.3317167 0.26354981 0.26354981 1.3317167 0.26354981 2.6463501 C 0.26354981 3.212546 0.46208716 3.7326434 0.79271647 4.1413493 L 0.79271647 5.2911499 A 0.26460996 0.26460996 0 0 0 1.162203 5.5350627 L 2.3796997 5.0126139 C 2.4673065 5.0223869 2.5561579 5.0276001 2.6463501 5.0276001 L 3.1760335 5.0276001 C 4.4906668 5.0276001 5.5567668 3.9609834 5.5567668 2.6463501 C 5.5567668 1.3317167 4.4906668 0.26354981 3.1760335 0.26354981 L 2.6463501 0.26354981 z M 2.6463501 0.79271647 L 3.1760335 0.79271647 C 4.206662 0.79271647 5.0276001 1.6157215 5.0276001 2.6463501 C 5.0276001 3.6769786 4.206662 4.4979167 3.1760335 4.4979167 L 3.1739665 4.4979167 A 0.26460996 0.26460996 0 0 0 3.041158 4.2674398 L 1.1895915 3.2091065 A 0.26460996 0.26460996 0 0 0 0.88780111 3.236495 C 0.82648729 3.0514902 0.79271647 2.8531873 0.79271647 2.6463501 C 0.79271647 1.6157215 1.6157215 0.79271647 2.6463501 0.79271647 z M 1.3223999 3.8943359 L 2.3166545 4.4648438 L 2.3094198 4.4679443 C 1.925053 4.3986537 1.5835407 4.212788 1.3223999 3.9475627 L 1.3223999 3.8943359 z M 1.3223999 4.6260742 C 1.4062726 4.6822189 1.4939891 4.7326763 1.5849162 4.7780029 L 1.3223999 4.8906576 L 1.3223999 4.6260742 z " /><path
       id="path453"
       style="color:#000000;fill:#5ac0ff;stroke-width:0.529167;stroke-linecap:round;stroke-linejoin:round;-inkscape-stroke:none;fill-opacity:1"
       d="M 2.6458333 0.52916667 C 1.4732012 0.52916667 0.52916667 1.4732012 0.52916667 2.6458333 C 0.52916667 3.1849011 0.72883141 3.675389 1.0583333 4.0483317 L 1.0583333 5.2916667 L 2.3430094 4.7407959 C 2.4419396 4.7548611 2.5428962 4.7625 2.6458333 4.7625 L 3.175 4.7625 C 4.3476321 4.7625 5.2916667 3.8184655 5.2916667 2.6458333 C 5.2916667 1.4732012 4.3476321 0.52916667 3.175 0.52916667 L 2.6458333 0.52916667 z " /></g><g
     id="path347" /><path
     id="rect1652"
     style="fill:#ffffff;stroke-width:0.529167;stroke-linecap:round;stroke-linejoin:round"
     d="M 1.5735474 2.1166667 C 1.2867709 2.1238837 1.0583333 2.3572559 1.0583333 2.6458333 C 1.0583333 2.9389914 1.2943419 3.175 1.5875 3.175 C 1.880658 3.175 2.1166667 2.9389914 2.1166667 2.6458333 C 2.1166667 2.3526753 1.880658 2.1166667 1.5875 2.1166667 C 1.5829194 2.1166667 1.5780994 2.1165521 1.5735474 2.1166667 z M 2.896464 2.1166667 C 2.6096876 2.1238837 2.38125 2.3572559 2.38125 2.6458333 C 2.38125 2.9389913 2.6172587 3.175 2.9104167 3.175 C 3.2035747 3.175 3.4395833 2.9389913 3.4395833 2.6458333 C 3.4395833 2.3526753 3.2035747 2.1166667 2.9104167 2.1166667 C 2.9058361 2.1166667 2.901016 2.1165521 2.896464 2.1166667 z M 4.2193807 2.1166667 C 3.9326043 2.1238837 3.7041667 2.3572559 3.7041667 2.6458333 C 3.7041667 2.9389914 3.9401753 3.175 4.2333333 3.175 C 4.5264914 3.175 4.7625 2.9389914 4.7625 2.6458333 C 4.7625 2.3526753 4.5264914 2.1166667 4.2333333 2.1166667 C 4.2287528 2.1166667 4.2239327 2.1165521 4.2193807 2.1166667 z " /></svg>
