<?xml version="1.0" encoding="UTF-8" standalone="no"?>
<svg
   viewBox="0 0 22 22"
   version="1.1"
   id="svg1"
   sodipodi:docname="media-playback-start.svg"
   xml:space="preserve"
   inkscape:version="1.4.2 (ebf0e940d0, 2025-05-08)"
   xmlns:inkscape="http://www.inkscape.org/namespaces/inkscape"
   xmlns:sodipodi="http://sodipodi.sourceforge.net/DTD/sodipodi-0.dtd"
   xmlns="http://www.w3.org/2000/svg"
   xmlns:svg="http://www.w3.org/2000/svg"><defs
     id="defs1" /><sodipodi:namedview
     id="namedview1"
     pagecolor="#ffffff"
     bordercolor="#000000"
     borderopacity="0.25"
     inkscape:showpageshadow="2"
     inkscape:pageopacity="0.0"
     inkscape:pagecheckerboard="0"
     inkscape:deskcolor="#d1d1d1"
     inkscape:zoom="37.283812"
     inkscape:cx="11.466102"
     inkscape:cy="9.8702354"
     inkscape:window-width="2560"
     inkscape:window-height="1367"
     inkscape:window-x="0"
     inkscape:window-y="0"
     inkscape:window-maximized="1"
     inkscape:current-layer="g3" /><style
     type="text/css"
     id="current-color-scheme">
        .ColorScheme-Text {
            color:#232629;
        }
    </style><style
     type="text/css"
     id="current-color-scheme-1">
        .ColorScheme-Text {
            color:#232629;
        }
    </style><g
     id="g3"
     transform="translate(4.0000007,-2)"><path
       id="rect15701-6"
       style="fill:#36404d;fill-opacity:1;stroke-width:2;stroke-linecap:round;stroke-linejoin:round;stroke-miterlimit:1.8;paint-order:fill markers stroke;stop-color:#000000"
       d="m 6.9999996,3 c 5.5399994,0 9.9999994,4.4600002 9.9999994,10 0,5.54 -4.46,10 -9.9999994,10 -5.5399998,0 -9.9999999,-4.46 -9.9999999,-10 0,-5.5399998 4.4600001,-10 9.9999999,-10 z" /><path
       id="rect15701-2-5"
       style="fill:#4b6477;stroke-width:1.8;stroke-linecap:round;stroke-linejoin:round;stroke-miterlimit:1.8;paint-order:fill markers stroke;stop-color:#000000;stroke:none;stroke-opacity:1;fill-opacity:1"
       d="m 7,4.0000002 c 4.986,0 9,4.0139998 9,8.9999998 0,4.986 -4.014,9 -9,9 C 2.014,22 -2.0000001,17.986 -2.0000001,13 -2.0000001,8.014 2.014,4.0000002 7,4.0000002 Z" /><path
       style="fill:#e1ebf2;fill-opacity:1;stroke:#e1ebf2;stroke-width:2;stroke-linecap:round;stroke-linejoin:round;stroke-dasharray:none;stroke-opacity:1;paint-order:stroke markers fill"
       d="M 3.9999996,9.0000001 V 17 L 10.98561,13 Z"
       id="path12"
       sodipodi:nodetypes="cccc" /><path
       style="fill:#36404d;fill-opacity:1;stroke-width:0.0268213"
       d="M 10.540768,19.979317 C 9.2235781,19.890017 8.1518368,19.611682 7.0405891,19.070306 3.4783193,17.334844 1.4874172,13.454245 2.1348209,9.5081479 2.3473507,8.2127225 2.9027065,6.8597497 3.6518722,5.812267 4.1074248,5.1753134 4.7835414,4.453868 5.3508477,3.9993871 6.6410645,2.9657673 8.0892337,2.343736 9.8031821,2.0869784 10.064214,2.0478745 10.292301,2.038919 11.01014,2.0395892 c 0.783555,7.315e-4 0.929722,0.00778 1.274012,0.0614 2.048576,0.31907 3.760065,1.1929681 5.163132,2.6363312 0.671298,0.690578 1.165474,1.3854547 1.593505,2.2406803 1.412003,2.8212455 1.229316,6.2371513 -0.475275,8.8867933 -1.452773,2.258211 -3.858353,3.756071 -6.522754,4.061462 -0.361959,0.04149 -1.223675,0.07193 -1.501992,0.05306 z M 8.4457402,15.90788 c 0.079503,-0.04103 0.9364429,-0.52808 1.9043118,-1.082334 0.967869,-0.554254 2.538249,-1.453255 3.489735,-1.997781 1.852656,-1.060256 1.920927,-1.106278 2.059734,-1.388484 0.06553,-0.133219 0.07256,-0.176113 0.07256,-0.442551 0,-0.285215 -0.0031,-0.300686 -0.09206,-0.464835 -0.05063,-0.09339 -0.14719,-0.218383 -0.21457,-0.277764 C 15.48396,10.094191 8.4257321,6.0609087 8.2561185,6.0202192 8.0561379,5.9722445 7.7646363,5.9990872 7.5831098,6.082193 7.2538296,6.2329423 7.0488374,6.5194471 6.9986438,6.8990655 6.980485,7.0364009 6.9737775,8.4909614 6.9790061,11.157657 c 0.00746,3.806953 0.010801,4.057259 0.055614,4.170711 0.1132907,0.28682 0.3311678,0.510194 0.6054764,0.620754 0.099534,0.04012 0.1787401,0.04855 0.3928802,0.0418 0.231055,-0.0073 0.2882388,-0.01878 0.4127633,-0.08304 z"
       id="path1"
       transform="translate(-4.0000007,2)" /><path
       style="fill:#36404d;fill-opacity:1;stroke-width:0.0268213"
       d="M 7.724532,15.946998 C 7.3563083,15.834583 7.0834634,15.506596 7.0256489,15.106868 6.9934491,14.88424 6.9939057,7.1060857 7.0261317,6.8831752 7.07488,6.5459779 7.2824265,6.2584743 7.5840037,6.1103832 c 0.1362078,-0.066886 0.1834415,-0.075593 0.4100742,-0.075593 0.2503518,0 0.261253,0.00266 0.4827833,0.117801 0.2092912,0.1087797 6.4994478,3.7008046 6.9241088,3.9540468 0.379703,0.226431 0.557699,0.510744 0.557699,0.89081 0,0.330268 -0.132468,0.599939 -0.38318,0.780057 -0.193645,0.13912 -7.1370852,4.110662 -7.2664768,4.156314 -0.1141818,0.04029 -0.4694502,0.0483 -0.5844802,0.01318 z"
       id="path2"
       transform="translate(-4.0000007,2)" /><path
       style="fill:#e1ebf2;fill-opacity:1;stroke-width:0.0268213"
       d="M 10.272555,19.949268 C 9.5756306,19.892609 8.5615701,19.669444 7.9227025,19.432133 6.7099928,18.981665 5.615731,18.290857 4.7236739,17.412585 3.1862636,15.898931 2.2710778,13.970898 2.0641303,11.809694 2.0171278,11.318836 2.0445529,10.192919 2.1149649,9.7227183 2.327933,8.3005488 2.877038,6.9185039 3.6668254,5.8168344 4.096296,5.2177682 4.8482036,4.4169654 5.3771913,3.995246 6.4053853,3.1755497 7.6431535,2.5744879 8.9315551,2.2692426 9.7349096,2.0789136 9.8650173,2.0660003 10.983319,2.0656022 c 0.94525,-3.364e-4 1.046457,0.0042 1.394707,0.062487 1.916651,0.3208022 3.517235,1.12176 4.869449,2.4367503 1.547966,1.5053533 2.450366,3.3751879 2.683404,5.5601985 0.04188,0.392641 0.0422,1.342487 5.96e-4,1.743384 -0.185744,1.789779 -0.839768,3.395915 -1.940779,4.766114 -1.539781,1.916246 -3.902221,3.152746 -6.31804,3.306861 -0.397387,0.02535 -1.134146,0.02949 -1.400101,0.0079 z m -1.9293027,-3.98694 c 0.1105228,-0.03952 0.6768632,-0.360045 4.0481847,-2.291132 2.828344,-1.62007 3.122528,-1.79481 3.309798,-1.965964 0.214306,-0.195863 0.269007,-0.328227 0.27999,-0.677499 0.0088,-0.280302 0.0061,-0.29702 -0.07458,-0.460919 -0.143521,-0.291532 -0.14528,-0.29274 -1.946164,-1.3358279 C 11.978889,8.0832285 8.7594938,6.2583504 8.3700706,6.0621232 8.2353258,5.9942264 8.2050347,5.9894887 7.9668573,5.999055 7.7524758,6.0076657 7.6836942,6.0219427 7.5562885,6.0842765 7.2695421,6.2245685 7.0612418,6.5015358 7.0007324,6.8229743 c -0.03216,0.1708414 -0.034853,7.9319507 -0.00288,8.2968657 0.01764,0.201323 0.033786,0.255664 0.1155555,0.388908 0.1085959,0.17696 0.3538798,0.389887 0.5149787,0.447047 0.1380323,0.04898 0.5847404,0.05306 0.7148644,0.0065 z"
       id="path3"
       transform="translate(-4.0000007,2)" /></g><style
     type="text/css"
     id="current-color-scheme-5">
        .ColorScheme-Text {
            color:#232629;
        }
    </style></svg>
