<?xml version="1.0" encoding="UTF-8" standalone="no"?>
<svg
   viewBox="0 0 22 22"
   id="svg6"
   version="1.1"
   sodipodi:docname="media-skip-forward.svg"
   inkscape:version="1.3.2 (091e20ef0f, 2023-11-25, custom)"
   xml:space="preserve"
   xmlns:inkscape="http://www.inkscape.org/namespaces/inkscape"
   xmlns:sodipodi="http://sodipodi.sourceforge.net/DTD/sodipodi-0.dtd"
   xmlns="http://www.w3.org/2000/svg"
   xmlns:svg="http://www.w3.org/2000/svg"><defs
     id="defs1" /><sodipodi:namedview
     id="namedview1"
     pagecolor="#ffffff"
     bordercolor="#000000"
     borderopacity="0.25"
     inkscape:showpageshadow="2"
     inkscape:pageopacity="0.0"
     inkscape:pagecheckerboard="0"
     inkscape:deskcolor="#d1d1d1"
     inkscape:zoom="37.283812"
     inkscape:cx="12.217098"
     inkscape:cy="12.310973"
     inkscape:window-width="2560"
     inkscape:window-height="1364"
     inkscape:window-x="0"
     inkscape:window-y="0"
     inkscape:window-maximized="1"
     inkscape:current-layer="g17" /><style
     type="text/css"
     id="current-color-scheme">
        .ColorScheme-Text {
            color:#232629;
        }
    </style><g
     id="g1"
     transform="matrix(-1,0,0,1,21.999999,-1.9999997)"><g
       id="g17"
       transform="matrix(3.7795276,0,0,3.7795276,-66.999998,1.0000004)"><path
         id="rect15701-7-0"
         style="fill:#36404d;fill-opacity:1;stroke-width:0.529167;stroke-linecap:round;stroke-linejoin:round;stroke-miterlimit:1.8;paint-order:fill markers stroke;stop-color:#000000"
         d="m 20.637499,0.52916655 c -1.465792,0 -2.645833,1.18004165 -2.645833,2.64583325 0,1.4657916 1.180041,2.6458332 2.645833,2.6458332 1.465792,0 2.645833,-1.1800416 2.645833,-2.6458332 0,-1.4657916 -1.180041,-2.64583325 -2.645833,-2.64583325 z" /><path
         id="rect15701-2-4-3"
         style="fill:#4b6477;fill-opacity:1;stroke-width:0.47625;stroke-linecap:round;stroke-linejoin:round;stroke-miterlimit:1.8;paint-order:fill markers stroke;stop-color:#000000"
         d="m 20.637499,0.79374985 c -1.319213,0 -2.38125,1.06203745 -2.38125,2.38124995 0,1.3192124 1.062037,2.3812499 2.38125,2.3812499 1.319212,0 2.38125,-1.0620375 2.38125,-2.3812499 0,-1.3192125 -1.062038,-2.38124995 -2.38125,-2.38124995 z" /><path
         id="path13"
         style="color:#000000;fill:#e1ebf2;fill-opacity:1;stroke-linecap:round;stroke-linejoin:round;-inkscape-stroke:none;paint-order:stroke markers fill"
         d="m 19.049998,1.8520832 c 0.146579,0 0.264584,0.1180045 0.264584,0.2645833 V 2.837036 l 1.157552,-0.9270752 a 0.26460996,0.26460996 0 0 1 0.429948,0.2072225 V 2.8360025 L 22.06015,1.9099608 a 0.26460996,0.26460996 0 0 1 0.279053,-0.031006 0.26460996,0.26460996 0 0 1 0.150895,0.2382283 V 4.2322997 A 0.26460996,0.26460996 0 0 1 22.06015,4.4395222 L 20.902082,3.5134805 V 4.2322997 A 0.26460996,0.26460996 0 0 1 20.472134,4.4395222 L 19.314582,3.512447 v 0.7208862 c 0,0.1465788 -0.118005,0.2645833 -0.264584,0.2645833 -0.146578,0 -0.264583,-0.1180045 -0.264583,-0.2645833 V 2.1166665 c 0,-0.1465788 0.118005,-0.2645833 0.264583,-0.2645833 z" /></g></g><style
     type="text/css"
     id="current-color-scheme-535">
        .ColorScheme-Text {
            color:#232629;
        }
    </style><style
     type="text/css"
     id="current-color-scheme-7">
        .ColorScheme-Text {
            color:#232629;
        }
    </style><style
     type="text/css"
     id="current-color-scheme-1">
        .ColorScheme-Text {
            color:#232629;
        }
    </style><style
     type="text/css"
     id="current-color-scheme-53">
        .ColorScheme-Text {
            color:#232629;
        }
    </style><style
     type="text/css"
     id="current-color-scheme-1-5">
        .ColorScheme-Text {
            color:#232629;
        }
    </style><style
     type="text/css"
     id="current-color-scheme-5">
        .ColorScheme-Text {
            color:#232629;
        }
    </style></svg>
