<?xml version="1.0" encoding="UTF-8" standalone="no"?>
<svg
   viewBox="0 0 22 22"
   version="1.1"
   id="svg1"
   sodipodi:docname="media-playback-pause.svg"
   inkscape:version="1.4.2 (ebf0e940d0, 2025-05-08)"
   xml:space="preserve"
   xmlns:inkscape="http://www.inkscape.org/namespaces/inkscape"
   xmlns:sodipodi="http://sodipodi.sourceforge.net/DTD/sodipodi-0.dtd"
   xmlns="http://www.w3.org/2000/svg"
   xmlns:svg="http://www.w3.org/2000/svg"><defs
     id="defs1" /><sodipodi:namedview
     id="namedview1"
     pagecolor="#ffffff"
     bordercolor="#000000"
     borderopacity="0.25"
     inkscape:showpageshadow="2"
     inkscape:pageopacity="0.0"
     inkscape:pagecheckerboard="0"
     inkscape:deskcolor="#d1d1d1"
     inkscape:zoom="26.363637"
     inkscape:cx="22.398275"
     inkscape:cy="13.086207"
     inkscape:window-width="2560"
     inkscape:window-height="1367"
     inkscape:window-x="0"
     inkscape:window-y="0"
     inkscape:window-maximized="1"
     inkscape:current-layer="g1" /><style
     type="text/css"
     id="current-color-scheme">
        .ColorScheme-Text {
            color:#232629;
        }
    </style><g
     id="g1"
     transform="translate(4.0000005)"><path
       id="rect15701-6-5"
       style="fill:#36404d;fill-opacity:1;stroke-width:2;stroke-linecap:round;stroke-linejoin:round;stroke-miterlimit:1.8;paint-order:fill markers stroke;stop-color:#000000"
       d="m 7.0000001,1 c 5.5400009,0 9.9999989,4.4600002 9.9999989,10 0,5.54 -4.459998,10 -9.9999989,10 -5.5399998,0 -10,-4.46 -10,-10 0,-5.5399998 4.4600002,-10 10,-10 z" /><path
       id="rect15701-2-5-2"
       style="fill:#4b6477;stroke-width:1.8;stroke-linecap:round;stroke-linejoin:round;stroke-miterlimit:1.8;paint-order:fill markers stroke;stop-color:#000000;fill-opacity:1"
       d="M 7.0000005,2.0000003 C 11.986002,2.0000003 16,6.0139999 16,11 c 0,4.986 -4.013998,9 -8.9999995,9 -4.9860001,0 -9.0000001,-4.014 -9.0000001,-9 0,-4.9860001 4.014,-8.9999997 9.0000001,-8.9999997 z" /><path
       id="rect10-90"
       style="fill:#e1ebf2;fill-opacity:1;stroke-width:1.93924;stroke-linecap:round;stroke-linejoin:round;paint-order:stroke markers fill"
       d="m 3.0000002,6.0000005 h 1.9999986 c 0.5540032,0 1.0000026,0.4460002 1.0000026,0.9999999 v 8.0000006 c 0,0.553999 -0.4459994,1 -1.0000026,1 H 3.0000002 c -0.5539998,0 -0.9999999,-0.446001 -0.9999999,-1 V 7.0000004 c 0,-0.5539997 0.4460001,-0.9999999 0.9999999,-0.9999999 z"
       sodipodi:nodetypes="sssssssss" /><path
       id="rect10-90-8"
       style="fill:#e1ebf2;fill-opacity:1;stroke-width:1.93924;stroke-linecap:round;stroke-linejoin:round;paint-order:stroke markers fill"
       d="m 8.9999995,6.0000005 h 1.9999955 c 0.554003,0 1.000003,0.4459998 1.000003,0.9999999 V 15.000001 C 11.999998,15.554 11.553998,16 10.999995,16 H 8.9999995 C 8.4460001,16 8.0000007,15.554 8.0000007,15.000001 V 7.0000001 c 0,-0.5539998 0.4459994,-0.9999999 0.9999988,-0.9999996 z"
       sodipodi:nodetypes="sssssssss" /><path
       style="fill:#36404d;fill-opacity:1;stroke-width:0.037931"
       d="M 6.6758619,15.913796 C 6.425608,15.827837 6.1466592,15.549533 6.0766954,15.316015 6.0100529,15.093582 6.0109599,6.9036179 6.0776519,6.6802627 6.1489449,6.4414983 6.4552764,6.1476499 6.7111947,6.0725371 7.0015923,5.9873044 8.9947164,5.983868 9.2783928,6.0681108 9.5063794,6.1358155 9.7586756,6.34316 9.8728597,6.5566616 l 0.084037,0.1571313 V 11 15.286207 l -0.084037,0.157131 c -0.04622,0.08642 -0.1564227,0.219091 -0.2448948,0.29482 -0.2694755,0.230661 -0.3967053,0.249932 -1.6408841,0.248534 -0.9800917,-0.0011 -1.1257774,-0.0092 -1.3112189,-0.0729 z"
       id="path1"
       transform="translate(-4.0000005)" /><path
       style="fill:#36404d;fill-opacity:1;stroke-width:0.037931"
       d="M 12.705735,15.929671 C 12.491871,15.863741 12.237738,15.650135 12.12714,15.443338 L 12.0431,15.286207 V 11 6.7137929 l 0.08404,-0.1571313 c 0.114184,-0.2135016 0.36648,-0.4208461 0.594467,-0.4885508 0.28026,-0.083228 2.277498,-0.080892 2.559975,0.003 0.249658,0.07414 0.48165,0.2792757 0.598137,0.5288938 l 0.0885,0.1896552 V 11 15.210344 L 15.879719,15.4 c -0.116487,0.249618 -0.348479,0.454753 -0.598137,0.528893 -0.273372,0.08118 -2.31302,0.0818 -2.575847,7.78e-4 z"
       id="path2"
       transform="translate(-4.0000005)" /><path
       style="fill:#e1ebf2;fill-opacity:1;stroke-width:0.037931"
       d="M 9.8810342,19.912622 C 8.2929916,19.705235 6.837046,19.112181 5.5605628,18.152755 3.9543177,16.945475 2.7295372,15.063232 2.263745,13.086207 2.0844847,12.325348 2.0331155,11.860677 2.0331155,11 c 0,-0.85469 0.051442,-1.325834 0.225712,-2.0672416 C 2.550812,7.690552 3.1824953,6.386975 3.9762244,5.3886415 5.4301268,3.5599584 7.6828937,2.3230572 10.021781,2.0692762 c 0.473198,-0.051344 1.483482,-0.051327 1.956438,3.3e-5 2.066063,0.224363 4.047043,1.1970637 5.490081,2.6957389 0.671934,0.6978411 1.126068,1.3475968 1.574128,2.2521931 0.44643,0.9013081 0.702173,1.7207175 0.858293,2.7499999 0.09123,0.6014899 0.09123,1.8640269 0,2.4655169 -0.239393,1.578293 -0.798835,2.930255 -1.725159,4.169067 -1.454101,1.944628 -3.642613,3.209336 -6.07443,3.510321 -0.5701,0.07056 -1.68161,0.0708 -2.2200978,4.76e-4 z M 9.4772793,15.894378 C 9.5890074,15.832493 9.7293499,15.722501 9.789152,15.649951 10.024211,15.364784 10.013793,15.580426 10.013793,11 c 0,-4.5804267 0.01042,-4.3647846 -0.224641,-4.6499516 C 9.7293499,6.2774981 9.5890074,6.167506 9.4772793,6.1056212 L 9.2741377,5.9931033 8.0879436,5.9811759 C 6.748006,5.9677028 6.6197668,5.9852963 6.3452588,6.2202654 6.2584267,6.2945905 6.1434521,6.4451915 6.0897599,6.5549344 l -0.097622,0.1995324 0.00997,4.2878202 0.00997,4.287821 0.1137931,0.182977 c 0.062586,0.100637 0.1771785,0.234059 0.2546493,0.296492 0.245515,0.19786 0.3823994,0.214415 1.6987989,0.205453 l 1.1948276,-0.0081 z m 5.9684667,0.0246 c 0.205309,-0.101123 0.388668,-0.294617 0.489445,-0.516495 0.06675,-0.146972 0.07006,-0.353451 0.0705,-4.40248 l 4.62e-4,-4.248276 -0.08845,-0.1899313 C 15.869063,6.4573306 15.76379,6.3143761 15.683769,6.2441168 15.397102,5.9924198 15.401696,5.9931033 13.996551,5.9931033 H 12.725862 L 12.52272,6.1056212 c -0.111728,0.061885 -0.25207,0.1718769 -0.311873,0.2444272 -0.235063,0.2851734 -0.22464,0.069328 -0.22464,4.6519396 0,4.549869 -0.0094,4.343126 0.21065,4.63163 0.10611,0.139118 0.376586,0.3114 0.560563,0.357055 0.06609,0.0164 0.657838,0.02676 1.314993,0.02302 1.165938,-0.0066 1.199144,-0.0089 1.373333,-0.09472 z"
       id="path3"
       transform="translate(-4.0000005)" /></g></svg>
