<?xml version="1.0" encoding="UTF-8" standalone="no"?>
<svg
   viewBox="0 0 22 22"
   version="1.1"
   id="svg1"
   sodipodi:docname="media-playback-stop.svg"
   xml:space="preserve"
   inkscape:version="1.4.2 (ebf0e940d0, 2025-05-08)"
   xmlns:inkscape="http://www.inkscape.org/namespaces/inkscape"
   xmlns:sodipodi="http://sodipodi.sourceforge.net/DTD/sodipodi-0.dtd"
   xmlns="http://www.w3.org/2000/svg"
   xmlns:svg="http://www.w3.org/2000/svg"><defs
     id="defs1" /><sodipodi:namedview
     id="namedview1"
     pagecolor="#ffffff"
     bordercolor="#000000"
     borderopacity="0.25"
     inkscape:showpageshadow="2"
     inkscape:pageopacity="0.0"
     inkscape:pagecheckerboard="0"
     inkscape:deskcolor="#d1d1d1"
     inkscape:zoom="52.727272"
     inkscape:cx="14.404311"
     inkscape:cy="9.3310346"
     inkscape:window-width="2560"
     inkscape:window-height="1367"
     inkscape:window-x="0"
     inkscape:window-y="0"
     inkscape:window-maximized="1"
     inkscape:current-layer="g3" /><style
     type="text/css"
     id="current-color-scheme">
        .ColorScheme-Text {
            color:#232629;
        }
    </style><style
     type="text/css"
     id="current-color-scheme-1">
        .ColorScheme-Text {
            color:#232629;
        }
    </style><g
     id="g3"
     transform="translate(5e-7,-2.9999995)"><path
       id="rect15701"
       style="fill:#36404d;fill-opacity:1;stroke-width:2;stroke-linecap:round;stroke-linejoin:round;stroke-miterlimit:1.8;paint-order:fill markers stroke;stop-color:#000000"
       d="m 11,4 c 5.54,0 9.999999,4.46 9.999999,10 C 20.999999,19.54 16.54,23.999999 11,23.999999 5.46,23.999999 1,19.54 1,14 1,8.46 5.46,4 11,4 Z" /><path
       id="rect15701-2"
       style="fill:#4b6477;stroke-width:1.8;stroke-linecap:round;stroke-linejoin:round;stroke-miterlimit:1.8;paint-order:fill markers stroke;stop-color:#000000;fill-opacity:1"
       d="m 11,5.0000001 c 4.986,0 9,4.0139997 9,8.9999999 0,4.986 -4.014,9 -9,9 C 6.0140002,23 2.0000003,18.986 2.0000003,14 2.0000003,9.0139998 6.0140002,5.0000001 11,5.0000001 Z" /><path
       id="rect10"
       style="fill:#e1ebf2;stroke-width:1.93924;stroke-linecap:round;stroke-linejoin:round;paint-order:stroke markers fill;fill-opacity:1"
       d="M 6.9999995,9 H 15 c 0.554,0 1,0.446 1,0.9999999 V 18 c 0,0.554 -0.446,1 -1,1 H 6.9999995 c -0.554,0 -1,-0.446 -1,-1 V 9.9999999 C 5.9999995,9.446 6.4459995,9 6.9999995,9 Z" /><path
       style="fill:#36404d;fill-opacity:1;stroke-width:0.0189655"
       d="M 6.8560346,15.978465 C 6.4944878,15.922979 6.1718305,15.649689 6.0579972,15.302528 6.0224922,15.194248 6.0215518,15.083225 6.0215518,11 c 0,-4.0832251 9.404e-4,-4.1942473 0.036445,-4.3025279 0.046193,-0.1408759 0.151111,-0.3037004 0.269536,-0.4182994 0.1219576,-0.1180175 0.3562432,-0.2317574 0.5287241,-0.2566824 0.178576,-0.025806 8.1034841,-0.026355 8.2877091,-5.742e-4 0.394752,0.055242 0.751804,0.3959214 0.824513,0.7867047 0.01529,0.082153 0.01961,1.2660063 0.01557,4.2577582 l -0.0056,4.143966 -0.04264,0.113051 c -0.112667,0.298694 -0.343425,0.518555 -0.662939,0.631633 -0.0844,0.02987 -0.388222,0.0324 -4.206488,0.03509 -2.263534,0.0016 -4.1581892,-0.0037 -4.2103444,-0.01166 z"
       id="path1"
       transform="translate(-5e-7,2.9999995)" /><path
       style="fill:#e1ebf2;fill-opacity:1;stroke-width:0.0189655"
       d="M 10.563793,19.97963 C 8.9547506,19.902823 7.4064719,19.402244 6.0742538,18.528105 3.5249331,16.855359 2.0104991,14.04987 2.0104991,11 c 0,-3.0495327 1.516667,-5.8590593 4.0637547,-7.5278396 1.2518533,-0.8201792 2.6799376,-1.3084779 4.1955742,-1.4345746 0.34223,-0.028473 1.119968,-0.028372 1.460345,1.892e-4 1.989902,0.1669731 3.799743,0.9447769 5.287192,2.2722441 1.109266,0.9899589 1.988146,2.3135229 2.478119,3.7319632 0.939055,2.7185017 0.523569,5.7531367 -1.108485,8.0961627 -1.772841,2.545144 -4.715002,3.989855 -7.823206,3.841485 z m 4.742748,-4.015126 c 0.337667,-0.114843 0.591847,-0.391141 0.671802,-0.730257 0.04223,-0.179107 0.04223,-8.2893868 0,-8.4684934 C 15.897093,6.4211428 15.63675,6.1421801 15.296478,6.0351209 L 15.162931,5.9931035 H 11 6.8370691 l -0.1335463,0.042017 c -0.3441359,0.1082749 -0.626682,0.4197222 -0.6911657,0.7618644 -0.026585,0.1410583 -0.026585,8.2649721 0,8.4060301 0.076485,0.40582 0.4353721,0.740432 0.8527386,0.79506 0.057603,0.0075 1.9524475,0.01261 4.2107663,0.01127 l 4.106035,-0.0024 z"
       id="path2"
       transform="translate(-5e-7,2.9999995)" /></g><style
     type="text/css"
     id="current-color-scheme-53">
        .ColorScheme-Text {
            color:#232629;
        }
    </style><style
     type="text/css"
     id="current-color-scheme-1-5">
        .ColorScheme-Text {
            color:#232629;
        }
    </style><style
     type="text/css"
     id="current-color-scheme-5">
        .ColorScheme-Text {
            color:#232629;
        }
    </style></svg>
