<?xml version="1.0" encoding="UTF-8" standalone="no"?>
<svg
   height="22"
   viewBox="0 0 22 22"
   width="22"
   version="1.1"
   id="svg6"
   sodipodi:docname="view-right-close.svg"
   xml:space="preserve"
   inkscape:version="1.2.2 (b0a8486541, 2022-12-01)"
   xmlns:inkscape="http://www.inkscape.org/namespaces/inkscape"
   xmlns:sodipodi="http://sodipodi.sourceforge.net/DTD/sodipodi-0.dtd"
   xmlns="http://www.w3.org/2000/svg"
   xmlns:svg="http://www.w3.org/2000/svg"><sodipodi:namedview
     id="namedview8"
     pagecolor="#ffffff"
     bordercolor="#000000"
     borderopacity="0.25"
     inkscape:showpageshadow="2"
     inkscape:pageopacity="0.0"
     inkscape:pagecheckerboard="0"
     inkscape:deskcolor="#d1d1d1"
     showgrid="true"
     inkscape:zoom="33.00903"
     inkscape:cx="20.085413"
     inkscape:cy="11.512001"
     inkscape:window-width="2560"
     inkscape:window-height="1353"
     inkscape:window-x="0"
     inkscape:window-y="0"
     inkscape:window-maximized="1"
     inkscape:current-layer="svg6"><inkscape:grid
       type="xygrid"
       id="grid237" /></sodipodi:namedview><defs
     id="defs2"><style
       type="text/css"
       id="current-color-scheme">
      .ColorScheme-Text {
        color:#36404d;
      }
      </style><style
       type="text/css"
       id="current-color-scheme-3">
      .ColorScheme-Text {
        color:#36404d;
      }
      </style></defs><path
     id="rect291"
     style="fill:#a3b7cc;stroke-width:2;stroke-linecap:round;stroke-linejoin:round"
     d="m 2,3 h 18 c 0.554,0 1,0.446 1,1 v 16 c 0,0.554 -0.446,1 -1,1 H 2 C 1.446,21 1,20.554 1,20 V 4 C 1,3.446 1.446,3 2,3 Z" /><path
     id="rect291-6"
     style="fill:#f1f1f1;stroke-width:2;stroke-linecap:round;stroke-linejoin:round"
     d="M 2,4 H 20 V 20 H 2 Z" /><path
     id="rect2853"
     style="fill:#c64646;stroke-width:2;stroke-linecap:round;stroke-linejoin:round;fill-opacity:1"
     d="m 11.999999,3 h 8.000002 C 20.554,3 21,3.4459998 21,3.9999995 V 20.000001 C 21,20.554 20.554,21 20.000001,21 H 11.999999 C 11.446,21 11,20.554 11,20.000001 V 3.9999995 C 11,3.4459998 11.446,3 11.999999,3 Z" /><path
     id="rect2907"
     style="fill:#c64646;stroke-width:2;stroke-linecap:round;stroke-linejoin:round;fill-opacity:1"
     d="m 10,3 h 3 v 18 h -3 z" /><path
     id="rect2909"
     style="fill:#f68d8d;stroke-width:2;stroke-linecap:round;stroke-linejoin:round;fill-opacity:1"
     d="m 12,4 h 8 v 16 h -8 z" /><path
     id="rect2963"
     style="fill:#f68d8d;stroke-width:2;stroke-linecap:round;stroke-linejoin:round;fill-opacity:1"
     d="m 11,4 h 4 v 16 h -4 z" /><path
     id="rect2965"
     style="fill:#36404d;stroke-width:2;stroke-linecap:round;stroke-linejoin:round"
     d="m 2,1 h 18.000002 c 0.553999,0 0.999999,0.4459995 0.999999,0.9999989 V 5.0000011 C 21.000001,5.5540005 20.554001,6 20.000002,6 H 2 C 1.4460006,6 1.0000011,5.5540005 1.0000011,5.0000011 V 1.9999989 C 1.0000011,1.4459995 1.4460006,1 2,1 Z" /><path
     id="rect2967"
     style="fill:#36404d;stroke-width:2;stroke-linecap:round;stroke-linejoin:round"
     d="M 1.0000011,5 H 21.000001 V 7 H 1.0000011 Z" /><path
     id="rect3090"
     style="fill:#4b6477;stroke-width:2;stroke-linecap:round;stroke-linejoin:round"
     d="M 2.0000011,2 H 20.000001 V 6 H 2.0000011 Z" /><path
     id="rect3215"
     style="fill:#c64646;fill-opacity:1;stroke-width:2;stroke-linecap:round;stroke-linejoin:round"
     d="m 12,13 h 7 v 1 h -7 z"
     sodipodi:nodetypes="ccccc" /></svg>
