<svg height="22" viewBox="0 0 22 22" width="22" xmlns="http://www.w3.org/2000/svg"><defs id="kuyenfoldercolor">
    <style type="text/css" id="current-color-scheme">
      .ColorScheme-Highlight {
        color:#03b2fe;
      }
      </style>
  </defs><g stroke-linecap="round" stroke-linejoin="round"><g stroke-width="2"><path d="m2 3h18c.554 0 1 .446 1 1v16c0 .554-.446 1-1 1h-18c-.554 0-1-.446-1-1v-16c0-.554.446-1 1-1z" fill="#a3b7cc"/><path d="m2 4h18v16h-18z" fill="#f1f1f1"/><path d="m2 1h18.000002c.553999 0 .999999.4459995.999999.9999989v3.0000022c0 .5539994-.446.9999989-.999999.9999989h-18.000002c-.5539994 0-.9999989-.4459995-.9999989-.9999989v-3.0000022c0-.5539994.4459995-.9999989.9999989-.9999989z" fill="#36404d"/><path d="m1.0000011 5h19.9999999v2h-19.9999999z" fill="#36404d"/><path d="m2.0000011 2h17.9999999v4h-17.9999999z" fill="#4b6477"/></g><g><g fill="#a3b7cc" stroke-width="2"><path d="m5 7.022395h1v9.977605h-1z"/><path d="m4.998632 10h8.001368v1h-8.001368z"/><path d="m4.999316 16h8.001368v1h-8.001368z"/></g><g stroke-width="1.31679"><rect style="fill:currentColor"
class="ColorScheme-Highlight" height="5" ry=".833333" width="5" x="10" y="8"/><rect style="fill:currentColor"
class="ColorScheme-Highlight" height="5" ry=".833333" width="5" x="9.998632" y="14"/><path d="m10.832616 8c-.461666 0-.832031.372318-.832031.833984v3.332032c0 .461666.370365.833984.832031.833984h3.333985c.461666 0 .833984-.372318.833984-.833984v-3.332032c0-.461666-.372318-.833984-.833984-.833984zm.166016 1h3v3h-3zm-.166016 5c-.461666 0-.8339836.372318-.8339836.833984v3.332032c0 .461666.3723176.833984.8339836.833984h3.332032c.461666 0 .833984-.372318.833984-.833984v-3.332032c0-.461666-.372318-.833984-.833984-.833984zm.164063 1h3v3h-3z" fill-opacity=".2"/></g></g></g></svg>
