<?xml version="1.0" encoding="UTF-8" standalone="no"?>
<!-- Created with Inkscape (http://www.inkscape.org/) -->

<svg
   width="22"
   height="22"
   viewBox="0 0 22 22"
   version="1.1"
   id="svg1"
   inkscape:version="1.4.2 (ebf0e940d0, 2025-05-08)"
   sodipodi:docname="apport.svg"
   xmlns:inkscape="http://www.inkscape.org/namespaces/inkscape"
   xmlns:sodipodi="http://sodipodi.sourceforge.net/DTD/sodipodi-0.dtd"
   xmlns="http://www.w3.org/2000/svg"
   xmlns:svg="http://www.w3.org/2000/svg">
  <sodipodi:namedview
     id="namedview1"
     pagecolor="#ffffff"
     bordercolor="#000000"
     borderopacity="0.25"
     inkscape:showpageshadow="2"
     inkscape:pageopacity="0.0"
     inkscape:pagecheckerboard="0"
     inkscape:deskcolor="#d1d1d1"
     inkscape:document-units="px"
     inkscape:zoom="36.8125"
     inkscape:cx="5.4736842"
     inkscape:cy="10.648557"
     inkscape:window-width="2560"
     inkscape:window-height="1367"
     inkscape:window-x="0"
     inkscape:window-y="0"
     inkscape:window-maximized="1"
     inkscape:current-layer="layer1"
     showgrid="true">
    <inkscape:grid
       id="grid1"
       units="px"
       originx="0"
       originy="0"
       spacingx="1"
       spacingy="1"
       empcolor="#0099e5"
       empopacity="0.30196078"
       color="#0099e5"
       opacity="0.14901961"
       empspacing="5"
       enabled="true"
       visible="true" />
  </sodipodi:namedview>
  <defs
     id="defs1" />
  <g
     inkscape:label="Capa 1"
     inkscape:groupmode="layer"
     id="layer1">
    <g
       id="g1"
       transform="matrix(0.90084889,0,0,0.90084889,1.0770803,6.5093385)">
      <path
         id="rect1728"
         style="fill:#da354e;fill-opacity:1;stroke-width:2;stroke-linecap:round;stroke-linejoin:round;stroke-miterlimit:1.8;paint-order:fill markers stroke;stop-color:#000000"
         d="m 3,14.999999 h 16 c 1.108,0 1.999999,-0.892 1.999999,-2 V -3.0000006 C 20.999999,-4.1080005 20.108,-5.0000004 19,-5.0000004 H 3 c -1.108,0 -2,0.8919999 -2,1.9999998 V 12.999999 c 0,1.108 0.892,2 2,2 z" />
      <path
         id="rect1728-7"
         style="fill:#ff778a;fill-opacity:1;stroke-width:2;stroke-linecap:round;stroke-linejoin:round;stroke-miterlimit:1.8;paint-order:fill markers stroke;stop-color:#000000"
         d="m 3,-4.0000008 c -0.5539993,0 -0.9999999,0.4460005 -0.9999999,0.9999998 v 16 c 0,0.553999 0.4460006,1 0.9999999,1 h 16 c 0.554,0 1,-0.446001 1,-1 v -16 c 0,-0.5539993 -0.446,-0.9999998 -1,-0.9999998 z m 0.9785156,1.9999997 H 5.9785157 V -9.3219816e-7 H 7.9785159 V -2.0000011 H 9.9785156 V -9.3219816e-7 H 7.9785159 V 1.9999988 H 9.9785156 V 3.999999 H 7.9785159 V 1.9999988 H 5.9785157 V 3.999999 H 3.9785156 V 1.9999988 H 5.9785157 V -9.3219816e-7 H 3.9785156 Z m 8.0000004,0 h 2 V -9.3219816e-7 h 2 V -2.0000011 h 2 V -9.3219816e-7 h -2 V 1.9999988 h 2 V 3.999999 h -2 V 1.9999988 h -2 V 3.999999 h -2 V 1.9999988 h 2 V -9.3219816e-7 h -2 z M 6,7.9999989 h 10 v 2.0000002 h 2 V 11.999999 H 16 V 9.9999991 H 6 V 11.999999 H 4.0000003 V 9.9999991 H 6 Z" />
    </g>
  </g>
</svg>
