<?xml version="1.0" encoding="UTF-8" standalone="no"?>
<!-- Created with Inkscape (http://www.inkscape.org/) -->

<svg
   width="22"
   height="22"
   viewBox="0 0 22 22"
   version="1.1"
   id="svg1"
   inkscape:version="1.4.2 (ebf0e940d0, 2025-05-08)"
   sodipodi:docname="battery-070.svg"
   xmlns:inkscape="http://www.inkscape.org/namespaces/inkscape"
   xmlns:sodipodi="http://sodipodi.sourceforge.net/DTD/sodipodi-0.dtd"
   xmlns="http://www.w3.org/2000/svg"
   xmlns:svg="http://www.w3.org/2000/svg">
  <sodipodi:namedview
     id="namedview1"
     pagecolor="#ffffff"
     bordercolor="#000000"
     borderopacity="0.25"
     inkscape:showpageshadow="false"
     inkscape:pageopacity="0.0"
     inkscape:pagecheckerboard="true"
     inkscape:deskcolor="#d1d1d1"
     inkscape:document-units="px"
     inkscape:zoom="32.840404"
     inkscape:cx="15.879829"
     inkscape:cy="12.697773"
     inkscape:window-width="2560"
     inkscape:window-height="1344"
     inkscape:window-x="0"
     inkscape:window-y="0"
     inkscape:window-maximized="1"
     inkscape:current-layer="layer1"
     showgrid="true">
    <inkscape:grid
       id="grid1"
       units="px"
       originx="0"
       originy="0"
       spacingx="1"
       spacingy="1"
       empcolor="#0099e5"
       empopacity="0.30196078"
       color="#0099e5"
       opacity="0.14901961"
       empspacing="5"
       enabled="true"
       visible="true" />
  </sodipodi:namedview>
  <defs
     id="defs1" />
  <g
     inkscape:label="Capa 1"
     inkscape:groupmode="layer"
     id="layer1">
    <g
       id="g1"
       transform="matrix(0.90726301,-0.00190454,0.00236288,1.125605,-134.28704,-33.7347)">
      <path
         id="rect7-9-4-40"
         style="fill:#363c4d;fill-opacity:1;stroke-width:1.99878;stroke-linecap:round;stroke-linejoin:round;paint-order:stroke fill markers"
         d="m 151,32.000002 c -1.108,-0.0014 -2,0.890914 -2,1.997561 V 45.98293 c 0,1.106648 0.892,1.99612 2,1.997563 l 15,0.01951 c 1.108,0.0014 2,-0.890915 2,-1.99756 v -1.010489 h 1.03125 c 1.0907,0 1.96875,-0.87698 1.96875,-1.966348 v -0.05852 -6.002438 c 0,-6.52e-4 0,-0.0013 0,-0.002 0,-1.089371 -0.87805,-1.966349 -1.96875,-1.966349 h -0.81445 c -0.0747,-0.0067 -0.14755,-0.0098 -0.2168,-0.0098 v -0.96952 c 0,-1.106647 -0.892,-1.99612 -2,-1.997561 z" />
      <path
         id="rect4-2-3-2"
         style="fill:#69718b;fill-opacity:1;stroke-width:1.99878;stroke-linecap:round;stroke-linejoin:round;paint-order:stroke fill markers"
         d="m 151,33.008538 c -0.554,0 -1,0.445457 -1,0.99878 v 11.985367 c 0,0.553325 0.446,0.998781 1,0.998781 h 15 c 0.554,0 1,-0.445456 1,-0.998781 v -1.997559 h 2 c 0.554,0 1,-0.445457 1,-0.99878 V 37.00366 c 0,-0.553323 -0.446,-0.99878 -1,-0.99878 h -2 v -1.997562 c 0,-0.553323 -0.446,-0.99878 -1,-0.99878 z"
         sodipodi:nodetypes="sssssscsssscsss" />
      <path
         id="rect1-2-1-7"
         style="fill:#363c4d;fill-opacity:1;stroke-width:1.99878;stroke-linecap:round;stroke-linejoin:round;paint-order:stroke fill markers"
         d="m 151,34.007319 v 11.985366 h 15 v -2.996339 h 3 v -5.992685 h -3 v -2.996342 z"
         sodipodi:nodetypes="ccccccccc" />
      <path
         id="rect1-6-8-4-20"
         style="fill:#87deb0;fill-opacity:1;stroke-width:1.99878;stroke-linecap:round;stroke-linejoin:round;paint-order:stroke fill markers"
         d="m 158,34.998048 v 0.0039 h -2 -2 l -2,-0.0019 v 10 l 2,0.002 h 2 2 v -0.0039 l 2,0.0019 h 1 1 1 v -3 -4 -3 h -1 -1 -1 z" />
    </g>
    <path
       style="fill:#ffffff;stroke-width:0.0304503"
       d="M 2.5273745,18.793969 C 2.2642858,18.669508 2.0706015,18.427028 1.9786052,18.106945 1.9312439,17.942161 1.9269713,17.392719 1.9228413,10.9359 L 1.9183686,3.9433132 1.9918338,3.760836 C 2.0924081,3.5110237 2.3525441,3.25036 2.5639218,3.1875875 2.6977949,3.1478315 3.5990586,3.1410221 9.641146,3.1341167 c 7.776221,-0.00889 7.019817,-0.032647 7.299855,0.2292956 0.09216,0.086201 0.182358,0.211713 0.236562,0.3291637 l 0.08761,0.1898367 0.01952,1.2180118 c 0.01074,0.6699065 0.02105,1.2550083 0.02291,1.3002267 l 0.0034,0.082214 1.012472,0.00914 c 0.97586,0.00881 1.017001,0.011559 1.137701,0.076133 0.174592,0.093406 0.391277,0.3450539 0.474528,0.5510943 l 0.07015,0.1736163 v 3.7003472 3.700348 l -0.09989,0.202918 c -0.116316,0.236274 -0.336441,0.451498 -0.517156,0.505641 -0.07863,0.02356 -0.374821,0.03626 -0.848097,0.03638 -0.400001,1.01e-4 -0.839767,0.0089 -0.977257,0.01964 l -0.249984,0.01946 -0.0088,1.282106 c -0.0087,1.254286 -0.01035,1.285838 -0.07837,1.454063 -0.09306,0.23015 -0.275118,0.430192 -0.484956,0.532856 l -0.171691,0.084 -6.9602078,0.01049 c -6.7766292,0.01021 -6.9634211,0.009 -7.0820097,-0.04713 z m 12.3425865,-1.061649 1.557973,-0.0202 v -1.666107 -1.666108 l 1.375123,-0.02267 1.375123,-0.02267 -0.02009,-1.051749 C 19.14704,12.704355 19.13801,11.185055 19.13801,9.9065959 V 7.5821235 h -1.35478 -1.35478 l -0.0079,-1.6823788 -0.0079,-1.6823788 -0.875446,2.537e-4 c -0.481495,1.396e-4 -3.547459,0.00357 -6.8132534,0.00761 L 2.786202,4.232591 v 5.795815 c 0,3.187699 0.00906,6.229684 0.020143,6.759966 l 0.020143,0.96415 h 5.2427499 c 2.8835131,0 5.9438381,-0.0091 6.8007231,-0.0202 z"
       id="path1" />
  </g>
</svg>
