<?xml version="1.0" encoding="UTF-8" standalone="no"?>
<!-- Created with Inkscape (http://www.inkscape.org/) -->

<svg
   width="22"
   height="22"
   viewBox="0 0 22 22"
   version="1.1"
   id="svg1"
   inkscape:version="1.4 (e7c3feb100, 2024-10-09)"
   sodipodi:docname="battery-050-charging.svg"
   xmlns:inkscape="http://www.inkscape.org/namespaces/inkscape"
   xmlns:sodipodi="http://sodipodi.sourceforge.net/DTD/sodipodi-0.dtd"
   xmlns:xlink="http://www.w3.org/1999/xlink"
   xmlns="http://www.w3.org/2000/svg"
   xmlns:svg="http://www.w3.org/2000/svg">
  <sodipodi:namedview
     id="namedview1"
     pagecolor="#ffffff"
     bordercolor="#000000"
     borderopacity="0.25"
     inkscape:showpageshadow="false"
     inkscape:pageopacity="0.0"
     inkscape:pagecheckerboard="true"
     inkscape:deskcolor="#d1d1d1"
     inkscape:document-units="px"
     inkscape:zoom="23.221672"
     inkscape:cx="18.021958"
     inkscape:cy="18.108084"
     inkscape:window-width="1890"
     inkscape:window-height="1048"
     inkscape:window-x="0"
     inkscape:window-y="0"
     inkscape:window-maximized="1"
     inkscape:current-layer="layer1"
     showgrid="true">
    <inkscape:grid
       id="grid1"
       units="px"
       originx="0"
       originy="0"
       spacingx="1"
       spacingy="1"
       empcolor="#0099e5"
       empopacity="0.30196078"
       color="#0099e5"
       opacity="0.14901961"
       empspacing="5"
       enabled="true"
       visible="true" />
  </sodipodi:namedview>
  <defs
     id="defs1">
    <linearGradient
       inkscape:collect="always"
       xlink:href="#linearGradient32-0"
       id="linearGradient51"
       gradientUnits="userSpaceOnUse"
       gradientTransform="translate(106,5.017073)"
       x1="-14"
       y1="31"
       x2="-14"
       y2="22" />
    <linearGradient
       id="linearGradient32-0"
       inkscape:collect="always">
      <stop
         style="stop-color:#2bd065;stop-opacity:1;"
         offset="0"
         id="stop31" />
      <stop
         style="stop-color:#69d779;stop-opacity:1;"
         offset="1"
         id="stop32-9" />
    </linearGradient>
  </defs>
  <g
     inkscape:label="Capa 1"
     inkscape:groupmode="layer"
     id="layer1">
    <g
       id="g1"
       transform="matrix(0,-0.90995872,1.1157324,0,-23.566174,95.626163)">
      <path
         id="rect7-9-4"
         style="fill:#363c4d;fill-opacity:1;stroke-width:1.99878;stroke-linecap:round;stroke-linejoin:round;paint-order:stroke fill markers"
         d="m 84,23.000002 c -1.108,-0.0014 -2,0.890914 -2,1.997561 V 36.98293 c 0,1.106648 0.892,1.99612 2,1.997563 l 15,0.01951 c 1.108,0.0014 2,-0.890915 2,-1.99756 v -1.010489 h 1.03125 c 1.0907,0 1.96875,-0.87698 1.96875,-1.966348 v -0.05852 -6.002438 c 0,-6.52e-4 0,-0.0013 0,-0.002 0,-1.089371 -0.87805,-1.966349 -1.96875,-1.966349 h -0.81445 c -0.0747,-0.0067 -0.14755,-0.0098 -0.2168,-0.0098 v -0.96952 c 0,-1.106647 -0.892,-1.99612 -2,-1.997561 z" />
      <path
         id="rect4-2-3"
         style="fill:#69718b;fill-opacity:1;stroke-width:1.99878;stroke-linecap:round;stroke-linejoin:round;paint-order:stroke fill markers"
         d="m 84,24.008538 c -0.554,0 -1,0.445457 -1,0.99878 v 11.985367 c 0,0.553325 0.446,0.998781 1,0.998781 h 15 c 0.554,0 1,-0.445456 1,-0.998781 v -1.997559 h 2 c 0.554,0 1,-0.445457 1,-0.99878 V 28.00366 c 0,-0.553323 -0.446,-0.99878 -1,-0.99878 h -2 v -1.997562 c 0,-0.553323 -0.446,-0.99878 -1,-0.99878 z"
         sodipodi:nodetypes="sssssscsssscsss" />
      <path
         id="rect1-2-1"
         style="fill:#363c4d;fill-opacity:1;stroke-width:1.99878;stroke-linecap:round;stroke-linejoin:round;paint-order:stroke fill markers"
         d="m 84,25.007319 v 11.985366 h 15 v -2.996339 h 3 v -5.992685 h -3 v -2.996342 z"
         sodipodi:nodetypes="ccccccccc" />
      <path
         id="rect1-6-8-4"
         style="fill:#87deb0;fill-opacity:1;stroke-width:1.99878;stroke-linecap:round;stroke-linejoin:round;paint-order:stroke fill markers"
         d="m 91.92578,35.998049 c -0.17524,-0.01309 -0.34871,-0.07284 -0.50391,-0.183593 L 85,31.226565 v 4.773438 l 2,0.002 h 2 2 v -0.0039 z" />
      <path
         id="path3-7"
         style="fill:url(#linearGradient51);stroke-width:1.99878;stroke-linecap:round;stroke-linejoin:round;paint-order:stroke fill markers"
         d="m 93,35.248049 -0.10742,0.208985 c -0.17219,0.335505 -0.50428,0.528401 -0.84961,0.542969 H 93 Z" />
      <path
         id="path1-2"
         style="fill:#87deb0;fill-opacity:1;stroke-width:1.99878;stroke-linecap:round;stroke-linejoin:round;paint-order:stroke fill markers"
         d="m 91,25.998049 v 0.0039 h -2 -2 l -2,-0.002 v 3 c 0.001,-3e-6 0.003,-3e-6 0.004,0 h 4.46484 l 1.70313,-2.554688 c 0.29129,-0.4375 0.87158,-0.574892 1.32813,-0.314399 l 0.5,0.285156 v -0.416015 z" />
      <path
         style="fill:#ffffff;fill-opacity:1;stroke:none;stroke-width:2.2336;stroke-linecap:round;stroke-linejoin:round;stroke-miterlimit:4;stroke-dasharray:none;stroke-opacity:1"
         d="m 99,31.000002 -4.94255,-4e-5 -2.05745,4.00004 -7,-5 h 5 l 2,-3 z"
         id="rect843-3-3-7-8-48"
         sodipodi:nodetypes="ccccccc" />
      <path
         style="fill:#ffffff;fill-opacity:1;stroke:none;stroke-width:2;stroke-linecap:round;stroke-linejoin:round;stroke-miterlimit:4;stroke-dasharray:none;stroke-opacity:1"
         d="m 99,31.000002 -4.94255,-4e-5 -2.05745,4.00004 -7,-5 h 5 l 2,-3 z"
         id="rect843-3-3-7-8-3-4"
         sodipodi:nodetypes="ccccccc" />
    </g>
  </g>
</svg>
