<?xml version="1.0" encoding="UTF-8" standalone="no"?>
<!-- Created with Inkscape (http://www.inkscape.org/) -->

<svg
   width="22"
   height="22"
   viewBox="0 0 22 22"
   version="1.1"
   id="svg1"
   inkscape:version="1.4 (e7c3feb100, 2024-10-09)"
   sodipodi:docname="battery-090.svg"
   xmlns:inkscape="http://www.inkscape.org/namespaces/inkscape"
   xmlns:sodipodi="http://sodipodi.sourceforge.net/DTD/sodipodi-0.dtd"
   xmlns:xlink="http://www.w3.org/1999/xlink"
   xmlns="http://www.w3.org/2000/svg"
   xmlns:svg="http://www.w3.org/2000/svg">
  <sodipodi:namedview
     id="namedview1"
     pagecolor="#ffffff"
     bordercolor="#000000"
     borderopacity="0.25"
     inkscape:showpageshadow="false"
     inkscape:pageopacity="0.0"
     inkscape:pagecheckerboard="true"
     inkscape:deskcolor="#d1d1d1"
     inkscape:document-units="px"
     inkscape:zoom="23.221672"
     inkscape:cx="20.304309"
     inkscape:cy="15.308975"
     inkscape:window-width="1890"
     inkscape:window-height="1048"
     inkscape:window-x="0"
     inkscape:window-y="0"
     inkscape:window-maximized="1"
     inkscape:current-layer="layer1"
     showgrid="true">
    <inkscape:grid
       id="grid1"
       units="px"
       originx="0"
       originy="0"
       spacingx="1"
       spacingy="1"
       empcolor="#0099e5"
       empopacity="0.30196078"
       color="#0099e5"
       opacity="0.14901961"
       empspacing="5"
       enabled="true"
       visible="true" />
  </sodipodi:namedview>
  <defs
     id="defs1">
    <linearGradient
       inkscape:collect="always"
       xlink:href="#linearGradient8-21"
       id="linearGradient72"
       gradientUnits="userSpaceOnUse"
       gradientTransform="translate(145,33.009757)"
       x1="-14"
       y1="32"
       x2="-14"
       y2="20" />
    <linearGradient
       id="linearGradient8-21"
       inkscape:collect="always">
      <stop
         style="stop-color:#252a34;stop-opacity:1;"
         offset="0"
         id="stop8-0" />
      <stop
         style="stop-color:#353d4b;stop-opacity:1;"
         offset="1"
         id="stop9-8" />
    </linearGradient>
    <linearGradient
       inkscape:collect="always"
       xlink:href="#linearGradient10-1"
       id="linearGradient73"
       gradientUnits="userSpaceOnUse"
       gradientTransform="translate(145,33.009757)"
       x1="-14"
       y1="31"
       x2="-14"
       y2="22" />
    <linearGradient
       id="linearGradient10-1"
       inkscape:collect="always">
      <stop
         style="stop-color:#454545;stop-opacity:1;"
         offset="0"
         id="stop10" />
      <stop
         style="stop-color:#212121;stop-opacity:1;"
         offset="1"
         id="stop11" />
    </linearGradient>
    <linearGradient
       inkscape:collect="always"
       xlink:href="#linearGradient32-0"
       id="linearGradient74"
       gradientUnits="userSpaceOnUse"
       gradientTransform="translate(145,33.017073)"
       x1="-14"
       y1="31"
       x2="-14"
       y2="22" />
    <linearGradient
       id="linearGradient32-0"
       inkscape:collect="always">
      <stop
         style="stop-color:#2bd065;stop-opacity:1;"
         offset="0"
         id="stop31" />
      <stop
         style="stop-color:#69d779;stop-opacity:1;"
         offset="1"
         id="stop32-9" />
    </linearGradient>
  </defs>
  <g
     inkscape:label="Capa 1"
     inkscape:groupmode="layer"
     id="layer1">
    <g
       id="g1"
       transform="matrix(0,-0.90408646,1.1211153,0,-55.081209,130.31788)">
      <path
         id="rect7-9-4-46"
         style="fill:#15151a;fill-opacity:1;stroke-width:1.99878;stroke-linecap:round;stroke-linejoin:round;paint-order:stroke fill markers"
         d="m 123,51.000002 c -1.108,-0.0014 -2,0.890914 -2,1.997561 V 64.98293 c 0,1.106648 0.892,1.99612 2,1.997563 l 15,0.01951 c 1.108,0.0014 2,-0.890915 2,-1.99756 v -1.010489 h 1.03125 c 1.0907,0 1.96875,-0.87698 1.96875,-1.966348 v -0.05852 -6.002438 c 0,-6.52e-4 0,-0.0013 0,-0.002 0,-1.089371 -0.87805,-1.966349 -1.96875,-1.966349 h -0.81445 c -0.0747,-0.0067 -0.14755,-0.0098 -0.2168,-0.0098 v -0.96952 c 0,-1.106647 -0.892,-1.99612 -2,-1.997561 z" />
      <path
         id="rect4-2-3-0"
         style="fill:url(#linearGradient72);stroke-width:1.99878;stroke-linecap:round;stroke-linejoin:round;paint-order:stroke fill markers"
         d="m 123,52.008538 c -0.554,0 -1,0.445457 -1,0.99878 v 11.985367 c 0,0.553325 0.446,0.998781 1,0.998781 h 15 c 0.554,0 1,-0.445456 1,-0.998781 v -1.997559 h 2 c 0.554,0 1,-0.445457 1,-0.99878 V 56.00366 c 0,-0.553323 -0.446,-0.99878 -1,-0.99878 h -2 v -1.997562 c 0,-0.553323 -0.446,-0.99878 -1,-0.99878 z"
         sodipodi:nodetypes="sssssscsssscsss" />
      <path
         id="rect1-2-1-2"
         style="fill:url(#linearGradient73);stroke-width:1.99878;stroke-linecap:round;stroke-linejoin:round;paint-order:stroke fill markers"
         d="m 123,53.007319 v 11.985366 h 15 v -2.996339 h 3 v -5.992685 h -3 v -2.996342 z"
         sodipodi:nodetypes="ccccccccc" />
      <path
         id="rect1-6-8-4-3"
         style="fill:url(#linearGradient74);stroke-width:1.99878;stroke-linecap:round;stroke-linejoin:round;paint-order:stroke fill markers"
         d="m 130,53.998048 v 0.0039 h -2 -2 l -2,-0.0019 v 10 l 2,0.002 h 2 2 v -0.0039 l 2,0.0019 h 1 3 1 v -3 h 2 v -4 h -2 v -3 h -1 -3 -1 z" />
      <path
         id="path1-6"
         style="fill:#363c4d;fill-opacity:1;stroke-width:1.99878;stroke-linecap:round;stroke-linejoin:round;paint-order:stroke fill markers"
         d="m 123,51.000002 c -1.108,-0.0014 -2,0.890914 -2,1.997561 V 64.98293 c 0,1.106648 0.892,1.99612 2,1.997563 l 15,0.01951 c 1.108,0.0014 2,-0.890915 2,-1.99756 v -1.010489 h 1.03125 c 1.0907,0 1.96875,-0.87698 1.96875,-1.966348 v -0.05852 -6.002438 c 0,-6.52e-4 0,-0.0013 0,-0.002 0,-1.089371 -0.87805,-1.966349 -1.96875,-1.966349 h -0.81445 c -0.0747,-0.0067 -0.14755,-0.0098 -0.2168,-0.0098 v -0.96952 c 0,-1.106647 -0.892,-1.99612 -2,-1.997561 z" />
      <path
         id="path2-869"
         style="fill:#69718b;fill-opacity:1;stroke-width:1.99878;stroke-linecap:round;stroke-linejoin:round;paint-order:stroke fill markers"
         d="m 123,52.008538 c -0.554,0 -1,0.445457 -1,0.99878 v 11.985367 c 0,0.553325 0.446,0.998781 1,0.998781 h 15 c 0.554,0 1,-0.445456 1,-0.998781 v -1.997559 h 2 c 0.554,0 1,-0.445457 1,-0.99878 V 56.00366 c 0,-0.553323 -0.446,-0.99878 -1,-0.99878 h -2 v -1.997562 c 0,-0.553323 -0.446,-0.99878 -1,-0.99878 z"
         sodipodi:nodetypes="sssssscsssscsss" />
      <path
         id="path3-72"
         style="fill:#363c4d;fill-opacity:1;stroke-width:1.99878;stroke-linecap:round;stroke-linejoin:round;paint-order:stroke fill markers"
         d="m 123,53.007319 v 11.985366 h 15 v -2.996339 h 3 v -5.992685 h -3 v -2.996342 z"
         sodipodi:nodetypes="ccccccccc" />
      <path
         id="path4-68"
         style="fill:#87deb0;fill-opacity:1;stroke-width:1.99878;stroke-linecap:round;stroke-linejoin:round;paint-order:stroke fill markers"
         d="m 130,53.998048 v 0.0039 h -2 -2 l -2,-0.0019 v 10 l 2,0.002 h 2 2 v -0.0039 l 2,0.0019 h 1 3 1 v -3 h 2 v -4 h -2 v -3 h -1 -3 -1 z" />
    </g>
  </g>
</svg>
