<?xml version="1.0" encoding="UTF-8" standalone="no"?>
<svg
   height="22"
   width="22"
   version="1.1"
   id="svg1"
   sodipodi:docname="battery-000.svg"
   inkscape:version="1.4 (e7c3feb100, 2024-10-09)"
   xmlns:inkscape="http://www.inkscape.org/namespaces/inkscape"
   xmlns:sodipodi="http://sodipodi.sourceforge.net/DTD/sodipodi-0.dtd"
   xmlns="http://www.w3.org/2000/svg"
   xmlns:svg="http://www.w3.org/2000/svg">
  <sodipodi:namedview
     id="namedview1"
     pagecolor="#ffffff"
     bordercolor="#000000"
     borderopacity="0.25"
     inkscape:showpageshadow="2"
     inkscape:pageopacity="0.0"
     inkscape:pagecheckerboard="0"
     inkscape:deskcolor="#d1d1d1"
     showgrid="true"
     inkscape:zoom="32"
     inkscape:cx="12.96875"
     inkscape:cy="10.390625"
     inkscape:window-width="1279"
     inkscape:window-height="1080"
     inkscape:window-x="0"
     inkscape:window-y="0"
     inkscape:window-maximized="0"
     inkscape:current-layer="svg1">
    <inkscape:grid
       id="grid1"
       units="px"
       originx="0"
       originy="0"
       spacingx="1"
       spacingy="1"
       empcolor="#0099e5"
       empopacity="0.30196078"
       color="#0099e5"
       opacity="0.14902"
       empspacing="5"
       dotted="false"
       gridanglex="30"
       gridanglez="30"
       visible="true" />
  </sodipodi:namedview>
  <defs
     id="defs1">
    <style
       type="text/css"
       id="current-color-scheme">
            .ColorScheme-NegativeText {
                color:#da4453;
            }
        </style>
  </defs>
  <g
     id="g1"
     transform="matrix(0,-0.90482955,1.1210937,0,0.87890462,24.525568)">
    <path
       id="rect7-3"
       style="fill:#363c4d;fill-opacity:1;stroke-width:1.99878;stroke-linecap:round;stroke-linejoin:round;paint-order:stroke fill markers"
       d="M 6,1.000002 C 4.892003,0.998602 4,1.890916 4,2.997563 V 14.98293 c 0,1.106647 0.892003,1.99612 2,1.997562 l 15,0.01951 c 1.107997,0.0014 2,-0.890915 2,-1.997561 v -1.010489 h 1.03125 C 25.121951,13.991952 26,13.114974 26,12.025603 v -0.05852 -6.002437 c 0,-6.52e-4 1e-6,-0.0013 0,-0.002 C 26,4.873275 25.121951,3.996297 24.03125,3.996297 H 23.216797 C 23.142077,3.989597 23.06925,3.986497 23,3.986497 V 3.016977 C 23,1.91033 22.107997,1.020857 21,1.019416 Z" />
    <path
       id="rect4-7"
       style="fill:#69718b;fill-opacity:1;stroke-width:1.99878;stroke-linecap:round;stroke-linejoin:round;paint-order:stroke fill markers"
       d="m 6,2.008538 c -0.553999,0 -1,0.445457 -1,0.99878 v 11.985367 c 0,0.553324 0.446001,0.998781 1,0.998781 h 15 c 0.553999,0 1,-0.445457 1,-0.998781 v -1.997561 h 2 c 0.553999,0 1,-0.445457 1,-0.99878 V 6.00366 C 25,5.450337 24.553999,5.004879 24,5.004879 H 22 V 3.007318 c 0,-0.553323 -0.446001,-0.99878 -1,-0.99878 z"
       sodipodi:nodetypes="sssssscsssscsss" />
    <path
       id="rect1-5"
       style="fill:#363c4d;fill-opacity:1;stroke-width:1.99878;stroke-linecap:round;stroke-linejoin:round;paint-order:stroke fill markers"
       d="m 6,3.007319 v 11.985366 h 15 v -2.996341 h 3 V 6.003661 H 21 V 3.007319 Z"
       sodipodi:nodetypes="ccccccccc" />
  </g>
</svg>
