<?xml version="1.0" encoding="UTF-8" standalone="no"?>
<!-- Created with Inkscape (http://www.inkscape.org/) -->

<svg
   width="22"
   height="22"
   viewBox="0 0 22 22"
   version="1.1"
   id="svg1"
   inkscape:version="1.4 (e7c3feb100, 2024-10-09)"
   sodipodi:docname="battery-020-charging.svg"
   xmlns:inkscape="http://www.inkscape.org/namespaces/inkscape"
   xmlns:sodipodi="http://sodipodi.sourceforge.net/DTD/sodipodi-0.dtd"
   xmlns="http://www.w3.org/2000/svg"
   xmlns:svg="http://www.w3.org/2000/svg">
  <sodipodi:namedview
     id="namedview1"
     pagecolor="#ffffff"
     bordercolor="#000000"
     borderopacity="0.25"
     inkscape:showpageshadow="false"
     inkscape:pageopacity="0.0"
     inkscape:pagecheckerboard="true"
     inkscape:deskcolor="#d1d1d1"
     inkscape:document-units="px"
     inkscape:zoom="23.221672"
     inkscape:cx="17.548262"
     inkscape:cy="14.533837"
     inkscape:window-width="1890"
     inkscape:window-height="1048"
     inkscape:window-x="0"
     inkscape:window-y="0"
     inkscape:window-maximized="1"
     inkscape:current-layer="layer1"
     showgrid="true">
    <inkscape:grid
       id="grid1"
       units="px"
       originx="0"
       originy="0"
       spacingx="1"
       spacingy="1"
       empcolor="#0099e5"
       empopacity="0.30196078"
       color="#0099e5"
       opacity="0.14901961"
       empspacing="5"
       enabled="true"
       visible="true" />
  </sodipodi:namedview>
  <defs
     id="defs1" />
  <g
     inkscape:label="Capa 1"
     inkscape:groupmode="layer"
     id="layer1">
    <g
       id="g1"
       transform="matrix(0,-0.90995872,1.1211153,0,-3.5529691,21.009546)">
      <path
         id="rect7-9-7"
         style="fill:#363c4d;fill-opacity:1;stroke-width:1.99878;stroke-linecap:round;stroke-linejoin:round;paint-order:stroke fill markers"
         d="M 2,5.000002 C 0.892,4.998602 0,5.890916 0,6.997563 v 11.985365 c 0,1.106648 0.892,1.99612 2,1.997563 l 15,0.01951 c 1.108,0.0014 2,-0.890915 2,-1.99756 v -1.010489 h 1.03125 c 1.0907,0 1.96875,-0.87698 1.96875,-1.966348 v -0.05852 -6.002437 c 0,-6.52e-4 0,-0.0013 0,-0.002 C 22,8.873276 21.12195,7.996298 20.03125,7.996298 H 19.2168 C 19.1421,7.989598 19.06925,7.986498 19,7.986498 V 7.016978 C 19,5.910331 18.108,5.020858 17,5.019417 Z" />
      <path
         id="rect4-2-2"
         style="fill:#69718b;fill-opacity:1;stroke-width:1.99878;stroke-linecap:round;stroke-linejoin:round;paint-order:stroke fill markers"
         d="m 2,6.008538 c -0.554,0 -1,0.445457 -1,0.99878 v 11.985365 c 0,0.553326 0.446,0.998782 1,0.998782 h 15 c 0.554,0 1,-0.445456 1,-0.998782 v -1.997557 h 2 c 0.554,0 1,-0.445457 1,-0.99878 V 10.00366 C 21,9.450337 20.554,9.004879 20,9.004879 H 18 V 7.007318 c 0,-0.553323 -0.446,-0.99878 -1,-0.99878 z"
         sodipodi:nodetypes="sssssscsssscsss" />
      <path
         id="rect1-2-2"
         style="fill:#363c4d;fill-opacity:1;stroke-width:1.99878;stroke-linecap:round;stroke-linejoin:round;paint-order:stroke fill markers"
         d="m 2,7.007318 v 11.985365 h 15 v -2.996337 h 3 V 10.00366 H 17 V 7.007318 Z"
         sodipodi:nodetypes="ccccccccc" />
      <path
         id="rect1-6-8-61"
         style="fill:#ff778a;fill-opacity:1;stroke-width:1.99878;stroke-linecap:round;stroke-linejoin:round;paint-order:stroke fill markers"
         d="M 7,16.083985 3,13.226563 v 4.773438 h 1 1 2 z" />
      <path
         id="path1"
         style="fill:#ff778a;fill-opacity:1;stroke-width:1.99878;stroke-linecap:round;stroke-linejoin:round;paint-order:stroke fill markers"
         d="m 3,8.000001 v 3 c 10e-4,-3e-6 0.003,-2e-6 0.004,0 H 7 v -3 H 5 4 Z" />
      <path
         style="fill:#ffffff;fill-opacity:1;stroke:none;stroke-width:2.2336;stroke-linecap:round;stroke-linejoin:round;stroke-miterlimit:4;stroke-dasharray:none;stroke-opacity:1"
         d="m 17,13.000001 -4.94255,-4e-5 -2.05745,4.00004 -7,-5 h 5 l 2,-3 z"
         id="rect843-3-3-7-8-4"
         sodipodi:nodetypes="ccccccc" />
      <path
         style="fill:#ffffff;fill-opacity:1;stroke:none;stroke-width:2;stroke-linecap:round;stroke-linejoin:round;stroke-miterlimit:4;stroke-dasharray:none;stroke-opacity:1"
         d="m 17,13.000001 -4.94255,-4e-5 -2.05745,4.00004 -7,-5 h 5 l 2,-3 z"
         id="rect843-3-3-7-8-3-3"
         sodipodi:nodetypes="ccccccc" />
    </g>
  </g>
</svg>
