<?xml version="1.0" encoding="UTF-8" standalone="no"?>
<!-- Created with Inkscape (http://www.inkscape.org/) -->

<svg
   width="22"
   height="22"
   viewBox="0 0 22 22"
   version="1.1"
   id="svg1"
   inkscape:version="1.4.2 (ebf0e940d0, 2025-05-08)"
   sodipodi:docname="battery-missing.svg"
   xmlns:inkscape="http://www.inkscape.org/namespaces/inkscape"
   xmlns:sodipodi="http://sodipodi.sourceforge.net/DTD/sodipodi-0.dtd"
   xmlns="http://www.w3.org/2000/svg"
   xmlns:svg="http://www.w3.org/2000/svg">
  <sodipodi:namedview
     id="namedview1"
     pagecolor="#ffffff"
     bordercolor="#000000"
     borderopacity="0.25"
     inkscape:showpageshadow="false"
     inkscape:pageopacity="0.0"
     inkscape:pagecheckerboard="true"
     inkscape:deskcolor="#d1d1d1"
     inkscape:document-units="px"
     inkscape:zoom="23.221672"
     inkscape:cx="18.194211"
     inkscape:cy="17.419073"
     inkscape:window-width="1920"
     inkscape:window-height="1006"
     inkscape:window-x="0"
     inkscape:window-y="0"
     inkscape:window-maximized="1"
     inkscape:current-layer="g3"
     showgrid="true">
    <inkscape:grid
       id="grid2"
       units="px"
       originx="0"
       originy="0"
       spacingx="1"
       spacingy="1"
       empcolor="#0099e5"
       empopacity="0.30196078"
       color="#0099e5"
       opacity="0.14901961"
       empspacing="5"
       enabled="true"
       visible="true" />
  </sodipodi:namedview>
  <defs
     id="defs1" />
  <g
     inkscape:label="Capa 1"
     inkscape:groupmode="layer"
     id="layer1">
    <g
       id="g3">
      <g
         id="g1"
         transform="matrix(0,-0.9080013,1.113976,0,-75.882655,100.91366)">
        <g
           id="g2"
           transform="rotate(90,95.002208,80.000002)" />
        <g
           id="g5"
           transform="matrix(-0.00167206,0.81509838,-1.2268423,-0.00167206,194.85924,-2.5643165)">
          <path
             id="rect7-32"
             style="fill:#363c4d;fill-opacity:1;stroke-width:1.99878;stroke-linecap:round;stroke-linejoin:round;paint-order:stroke fill markers"
             d="m 90,70.000002 c -1.108,-0.0014 -2,0.890914 -2,1.997561 V 83.98293 c 0,1.106647 0.892,1.99612 2,1.997562 l 15,0.01951 c 1.108,0.0014 2,-0.890915 2,-1.997561 v -1.010489 h 1.03125 c 1.0907,0 1.96875,-0.876978 1.96875,-1.966349 v -0.05852 -6.002437 c 0,-6.52e-4 0,-0.0013 0,-0.002 0,-1.089371 -0.87805,-1.966349 -1.96875,-1.966349 h -0.81445 c -0.0747,-0.0067 -0.14755,-0.0098 -0.2168,-0.0098 v -0.96952 c 0,-1.106647 -0.892,-1.99612 -2,-1.997561 z" />
          <path
             id="rect4-4"
             style="fill:#69718b;fill-opacity:1;stroke-width:1.99878;stroke-linecap:round;stroke-linejoin:round;paint-order:stroke fill markers"
             d="m 90,71.008538 c -0.554,0 -1,0.445457 -1,0.99878 v 11.985367 c 0,0.553324 0.446,0.998781 1,0.998781 h 15 c 0.554,0 1,-0.445457 1,-0.998781 v -1.997561 h 2 c 0.554,0 1,-0.445457 1,-0.99878 V 75.00366 c 0,-0.553323 -0.446,-0.998781 -1,-0.998781 h -2 v -1.997561 c 0,-0.553323 -0.446,-0.99878 -1,-0.99878 z"
             sodipodi:nodetypes="sssssscsssscsss" />
          <path
             id="rect1-3"
             style="fill:#363c4d;fill-opacity:1;stroke-width:1.99878;stroke-linecap:round;stroke-linejoin:round;paint-order:stroke fill markers"
             d="m 90,72.007319 v 11.985366 h 15 v -2.996341 h 3 v -5.992683 h -3 v -2.996342 z"
             sodipodi:nodetypes="ccccccccc" />
          <path
             style="fill:#ffffff;stroke-width:0.0430632"
             d="M 3.8889106,20.002936 C 3.655603,19.917178 3.4718037,19.767683 3.3547226,19.568451 L 3.2512732,19.392414 V 12.374558 5.3567013 L 3.3728254,5.1652517 C 3.4536796,5.0379029 3.572631,4.930547 3.7280969,4.8446124 L 3.9618164,4.7154227 5.2644788,4.7023289 6.5671412,4.6892352 V 3.7212575 c 0,-1.0530606 0.020171,-1.1670368 0.249898,-1.4120559 0.063877,-0.068129 0.2130317,-0.1696763 0.3314555,-0.2256612 L 7.3638108,1.9817495 10.985461,1.9813289 c 2.65447,-3.084e-4 3.660742,0.013037 3.768032,0.049972 0.224438,0.077264 0.436623,0.2333724 0.555482,0.4086795 0.106493,0.1570675 0.107798,0.1701018 0.120552,1.2045705 l 0.0129,1.0457848 1.301825,0.012544 c 1.293157,0.01246 1.30322,0.013262 1.511259,0.1203946 0.284202,0.1463548 0.444464,0.3551175 0.498972,0.6499787 0.02932,0.1586139 0.04029,2.5331319 0.03263,7.06132 -0.01113,6.578543 -0.01444,6.82817 -0.09252,6.985326 -0.04454,0.08964 -0.150033,0.219904 -0.234435,0.289476 -0.333311,0.274742 0.146073,0.258387 -7.475937,0.255053 -5.7293638,-0.0025 -6.9639448,-0.01321 -7.0953054,-0.06149 z M 17.720516,12.380676 V 5.5551555 H 16.04105 14.361584 V 4.1986641 2.8421726 H 11.002653 7.6437218 V 4.1986641 5.5551555 H 5.9857878 4.3278537 v 6.8255205 6.825521 h 6.6963313 6.696331 z"
             id="path4"
             transform="matrix(0,0.89768541,-1.10132,0,111.13823,68.118752)" />
        </g>
      </g>
      <g
         id="g4"
         transform="matrix(0,-0.74651424,0.7572621,0,-67.773992,85.640527)">
        <path
           style="color:#000000;fill:#fe9500;fill-opacity:1;stroke-width:0.964879;stroke-linecap:round;stroke-linejoin:round;stroke-miterlimit:1.8;paint-order:fill markers stroke"
           d="m 99.911403,97.33777 c 2.2e-4,-0.323017 -0.1794,-0.623066 -0.47461,-0.792795 L 89.436791,90.959029 c -0.6665,-0.382991 -1.5258,0.06359 -1.52539,0.792795 v 11.171886 c -4.1e-4,0.72918 0.85889,1.17579 1.52539,0.7928 l 10.000002,-5.585946 c 0.29521,-0.169729 0.47483,-0.469778 0.47461,-0.792794 z"
           id="path68074-0-5"
           sodipodi:nodetypes="cccccccc" />
        <path
           style="color:#000000;fill:#ffdf00;fill-opacity:1;stroke-width:1.92976;stroke-linecap:round;stroke-linejoin:round;stroke-miterlimit:1.8;paint-order:fill markers stroke"
           d="M 89.054501,91.752326 V 102.92422 L 99.054503,97.338272 Z"
           id="path68072-4-1"
           sodipodi:nodetypes="cccc" />
        <path
           id="rect34256-9-0-7"
           style="fill:#714300;fill-opacity:1;stroke-width:1.92976;stroke-linecap:round;stroke-linejoin:round;stroke-miterlimit:1.8;paint-order:fill markers stroke;stop-color:#000000"
           d="m 96.148533,97.251595 c -0.02668,-0.493267 -0.463323,-0.883715 -1,-0.883715 h -1 c -0.553999,0 -1,0.415221 -1,0.93099 0,0.515769 0.446001,0.930991 1,0.930991 h 1 c 0.553989,0 1,-0.415222 1,-0.930991 0,-0.01611 8.61e-4,-0.03137 0,-0.04729 z m -4,0 c -0.02668,-0.493267 -0.463313,-0.883715 -1,-0.883715 -0.553999,0 -1,0.415221 -1,0.93099 0,0.515769 0.446001,0.930991 1,0.930991 0.553999,0 1,-0.415222 1,-0.930991 0,-0.01611 8.61e-4,-0.03137 0,-0.04729 z" />
      </g>
    </g>
  </g>
</svg>
