<?xml version="1.0" encoding="UTF-8" standalone="no"?>
<!-- Created with Inkscape (http://www.inkscape.org/) -->

<svg
   width="22"
   height="22"
   viewBox="0 0 22 22"
   version="1.1"
   id="svg1"
   inkscape:version="1.4 (e7c3feb100, 2024-10-09)"
   sodipodi:docname="battery-040-charging.svg"
   xmlns:inkscape="http://www.inkscape.org/namespaces/inkscape"
   xmlns:sodipodi="http://sodipodi.sourceforge.net/DTD/sodipodi-0.dtd"
   xmlns:xlink="http://www.w3.org/1999/xlink"
   xmlns="http://www.w3.org/2000/svg"
   xmlns:svg="http://www.w3.org/2000/svg">
  <sodipodi:namedview
     id="namedview1"
     pagecolor="#ffffff"
     bordercolor="#000000"
     borderopacity="0.25"
     inkscape:showpageshadow="false"
     inkscape:pageopacity="0.0"
     inkscape:pagecheckerboard="true"
     inkscape:deskcolor="#d1d1d1"
     inkscape:document-units="px"
     inkscape:zoom="23.221672"
     inkscape:cx="25.644148"
     inkscape:cy="15.91186"
     inkscape:window-width="1890"
     inkscape:window-height="1048"
     inkscape:window-x="0"
     inkscape:window-y="0"
     inkscape:window-maximized="1"
     inkscape:current-layer="layer1"
     showgrid="true">
    <inkscape:grid
       id="grid1"
       units="px"
       originx="0"
       originy="0"
       spacingx="1"
       spacingy="1"
       empcolor="#0099e5"
       empopacity="0.30196078"
       color="#0099e5"
       opacity="0.14901961"
       empspacing="5"
       enabled="true"
       visible="true" />
  </sodipodi:namedview>
  <defs
     id="defs1">
    <linearGradient
       inkscape:collect="always"
       xlink:href="#linearGradient8-21"
       id="linearGradient40"
       gradientUnits="userSpaceOnUse"
       gradientTransform="translate(89,32.009755)"
       x1="-14"
       y1="32"
       x2="-14"
       y2="20" />
    <linearGradient
       id="linearGradient8-21"
       inkscape:collect="always">
      <stop
         style="stop-color:#252a34;stop-opacity:1;"
         offset="0"
         id="stop8-0" />
      <stop
         style="stop-color:#353d4b;stop-opacity:1;"
         offset="1"
         id="stop9-8" />
    </linearGradient>
    <linearGradient
       inkscape:collect="always"
       xlink:href="#linearGradient10-1"
       id="linearGradient41"
       gradientUnits="userSpaceOnUse"
       gradientTransform="translate(89,32.009755)"
       x1="-14"
       y1="31"
       x2="-14"
       y2="22" />
    <linearGradient
       id="linearGradient10-1"
       inkscape:collect="always">
      <stop
         style="stop-color:#454545;stop-opacity:1;"
         offset="0"
         id="stop10" />
      <stop
         style="stop-color:#212121;stop-opacity:1;"
         offset="1"
         id="stop11" />
    </linearGradient>
    <linearGradient
       inkscape:collect="always"
       xlink:href="#linearGradient35-6"
       id="linearGradient42"
       gradientUnits="userSpaceOnUse"
       gradientTransform="translate(24,28)"
       x1="47"
       y1="34"
       x2="47"
       y2="26.3125" />
    <linearGradient
       id="linearGradient35-6"
       inkscape:collect="always">
      <stop
         style="stop-color:#ff7044;stop-opacity:1;"
         offset="0"
         id="stop35-7" />
      <stop
         style="stop-color:#ff8f64;stop-opacity:1;"
         offset="1"
         id="stop36-4" />
    </linearGradient>
  </defs>
  <g
     inkscape:label="Capa 1"
     inkscape:groupmode="layer"
     id="layer1">
    <g
       id="g1"
       transform="matrix(0,-0.90604388,1.1184238,0,-53.868584,79.859336)">
      <path
         id="rect7-9-7-6"
         style="fill:#15151a;fill-opacity:1;stroke-width:1.99878;stroke-linecap:round;stroke-linejoin:round;paint-order:stroke fill markers"
         d="m 67,50.000002 c -1.108,-0.0014 -2,0.890914 -2,1.997561 v 11.985365 c 0,1.106648 0.892,1.99612 2,1.997563 l 15,0.01951 c 1.108,0.0014 2,-0.890915 2,-1.99756 v -1.010489 h 1.03125 c 1.0907,0 1.96875,-0.87698 1.96875,-1.966348 v -0.05852 -6.002437 c 0,-6.52e-4 0,-0.0013 0,-0.002 0,-1.089371 -0.87805,-1.966349 -1.96875,-1.966349 H 84.2168 c -0.0747,-0.0067 -0.14755,-0.0098 -0.2168,-0.0098 v -0.96952 c 0,-1.106647 -0.892,-1.99612 -2,-1.997561 z" />
      <path
         id="rect4-2-2-1"
         style="fill:url(#linearGradient40);stroke-width:1.99878;stroke-linecap:round;stroke-linejoin:round;paint-order:stroke fill markers"
         d="m 67,51.008538 c -0.554,0 -1,0.445457 -1,0.99878 v 11.985365 c 0,0.553326 0.446,0.998782 1,0.998782 h 15 c 0.554,0 1,-0.445456 1,-0.998782 v -1.997557 h 2 c 0.554,0 1,-0.445457 1,-0.99878 V 55.00366 c 0,-0.553323 -0.446,-0.998781 -1,-0.998781 h -2 v -1.997561 c 0,-0.553323 -0.446,-0.99878 -1,-0.99878 z"
         sodipodi:nodetypes="sssssscsssscsss" />
      <path
         id="rect1-2-2-45"
         style="fill:url(#linearGradient41);stroke-width:1.99878;stroke-linecap:round;stroke-linejoin:round;paint-order:stroke fill markers"
         d="m 67,52.007318 v 11.985365 h 15 v -2.996337 h 3 V 55.00366 h -3 v -2.996342 z"
         sodipodi:nodetypes="ccccccccc" />
      <path
         id="rect1-6-8-61-2"
         style="fill:url(#linearGradient42);fill-opacity:1;stroke-width:1.99878;stroke-linecap:round;stroke-linejoin:round;paint-order:stroke fill markers"
         d="m 68,53 v 10 h 2 2 2 v -3 -4 -3 h -2 -2 z" />
      <path
         id="path1-93"
         style="fill:#363c4d;fill-opacity:1;stroke-width:1.99878;stroke-linecap:round;stroke-linejoin:round;paint-order:stroke fill markers"
         d="m 67,50.000002 c -1.108,-0.0014 -2,0.890914 -2,1.997561 v 11.985365 c 0,1.106648 0.892,1.99612 2,1.997563 l 15,0.01951 c 1.108,0.0014 2,-0.890915 2,-1.99756 v -1.010489 h 1.03125 c 1.0907,0 1.96875,-0.87698 1.96875,-1.966348 v -0.05852 -6.002437 c 0,-6.52e-4 0,-0.0013 0,-0.002 0,-1.089371 -0.87805,-1.966349 -1.96875,-1.966349 H 84.2168 c -0.0747,-0.0067 -0.14755,-0.0098 -0.2168,-0.0098 v -0.96952 c 0,-1.106647 -0.892,-1.99612 -2,-1.997561 z" />
      <path
         id="path2-8"
         style="fill:#69718b;fill-opacity:1;stroke-width:1.99878;stroke-linecap:round;stroke-linejoin:round;paint-order:stroke fill markers"
         d="m 67,51.008538 c -0.554,0 -1,0.445457 -1,0.99878 v 11.985365 c 0,0.553326 0.446,0.998782 1,0.998782 h 15 c 0.554,0 1,-0.445456 1,-0.998782 v -1.997557 h 2 c 0.554,0 1,-0.445457 1,-0.99878 V 55.00366 c 0,-0.553323 -0.446,-0.998781 -1,-0.998781 h -2 v -1.997561 c 0,-0.553323 -0.446,-0.99878 -1,-0.99878 z"
         sodipodi:nodetypes="sssssscsssscsss" />
      <path
         id="path3-8"
         style="fill:#363c4d;fill-opacity:1;stroke-width:1.99878;stroke-linecap:round;stroke-linejoin:round;paint-order:stroke fill markers"
         d="m 67,52.007318 v 11.985365 h 15 v -2.996337 h 3 V 55.00366 h -3 v -2.996342 z"
         sodipodi:nodetypes="ccccccccc" />
      <path
         id="path4-43"
         style="fill:#ffb8a3;fill-opacity:1;stroke-width:1.99878;stroke-linecap:round;stroke-linejoin:round;paint-order:stroke fill markers"
         d="m 74,62.513673 -6,-4.287109 v 4.773437 h 2 2 2 z" />
      <path
         id="path5"
         style="fill:#ffb8a3;fill-opacity:1;stroke-width:1.99878;stroke-linecap:round;stroke-linejoin:round;paint-order:stroke fill markers"
         d="m 68,53.000001 v 3 c 0.001,-3e-6 0.003,-2e-6 0.004,0 h 4.46485 l 1.53125,-2.296875 v -0.703125 h -2 -2 z" />
      <path
         style="fill:#ffffff;fill-opacity:1;stroke:none;stroke-width:2.2336;stroke-linecap:round;stroke-linejoin:round;stroke-miterlimit:4;stroke-dasharray:none;stroke-opacity:1"
         d="m 82,58.000001 -4.94255,-4e-5 -2.05745,4.00004 -7,-5 h 5 l 2,-3 z"
         id="rect843-3-3-7-8-5"
         sodipodi:nodetypes="ccccccc" />
      <path
         style="fill:#ffffff;fill-opacity:1;stroke:none;stroke-width:2;stroke-linecap:round;stroke-linejoin:round;stroke-miterlimit:4;stroke-dasharray:none;stroke-opacity:1"
         d="m 82,58.000001 -4.94255,-4e-5 -2.05745,4.00004 -7,-5 h 5 l 2,-3 z"
         id="rect843-3-3-7-8-3-9"
         sodipodi:nodetypes="ccccccc" />
    </g>
  </g>
</svg>
