<?xml version="1.0" encoding="UTF-8" standalone="no"?>
<!-- Created with Inkscape (http://www.inkscape.org/) -->

<svg
   width="22"
   height="22"
   viewBox="0 0 22 22"
   version="1.1"
   id="svg1"
   inkscape:version="1.4 (e7c3feb100, 2024-10-09)"
   sodipodi:docname="battery-060-charging.svg"
   xmlns:inkscape="http://www.inkscape.org/namespaces/inkscape"
   xmlns:sodipodi="http://sodipodi.sourceforge.net/DTD/sodipodi-0.dtd"
   xmlns="http://www.w3.org/2000/svg"
   xmlns:svg="http://www.w3.org/2000/svg">
  <sodipodi:namedview
     id="namedview1"
     pagecolor="#ffffff"
     bordercolor="#000000"
     borderopacity="0.25"
     inkscape:showpageshadow="false"
     inkscape:pageopacity="0.0"
     inkscape:pagecheckerboard="true"
     inkscape:deskcolor="#d1d1d1"
     inkscape:document-units="px"
     inkscape:zoom="23.221672"
     inkscape:cx="19.91674"
     inkscape:cy="16.988441"
     inkscape:window-width="1890"
     inkscape:window-height="1048"
     inkscape:window-x="0"
     inkscape:window-y="0"
     inkscape:window-maximized="1"
     inkscape:current-layer="layer1"
     showgrid="true">
    <inkscape:grid
       id="grid1"
       units="px"
       originx="0"
       originy="0"
       spacingx="1"
       spacingy="1"
       empcolor="#0099e5"
       empopacity="0.30196078"
       color="#0099e5"
       opacity="0.14901961"
       empspacing="5"
       enabled="true"
       visible="true" />
  </sodipodi:namedview>
  <defs
     id="defs1" />
  <g
     inkscape:label="Capa 1"
     inkscape:groupmode="layer"
     id="layer1">
    <g
       id="g1"
       transform="matrix(0,-0.9080013,1.1238067,0,-62.090503,122.66263)">
      <path
         id="rect7-9-4-3"
         style="fill:#363c4d;fill-opacity:1;stroke-width:1.99878;stroke-linecap:round;stroke-linejoin:round;paint-order:stroke fill markers"
         d="m 114,57.000002 c -1.108,-0.0014 -2,0.890914 -2,1.997561 V 70.98293 c 0,1.106648 0.892,1.99612 2,1.997563 l 15,0.01951 c 1.108,0.0014 2,-0.890915 2,-1.99756 v -1.010489 h 1.03125 c 1.0907,0 1.96875,-0.87698 1.96875,-1.966348 v -0.05852 -6.002438 c 0,-6.52e-4 0,-0.0013 0,-0.002 0,-1.089371 -0.87805,-1.966349 -1.96875,-1.966349 h -0.81445 c -0.0747,-0.0067 -0.14755,-0.0098 -0.2168,-0.0098 v -0.96952 c 0,-1.106647 -0.892,-1.99612 -2,-1.997561 z" />
      <path
         id="rect4-2-3-6"
         style="fill:#69718b;fill-opacity:1;stroke-width:1.99878;stroke-linecap:round;stroke-linejoin:round;paint-order:stroke fill markers"
         d="m 114,58.008538 c -0.554,0 -1,0.445457 -1,0.99878 v 11.985367 c 0,0.553325 0.446,0.998781 1,0.998781 h 15 c 0.554,0 1,-0.445456 1,-0.998781 v -1.997559 h 2 c 0.554,0 1,-0.445457 1,-0.99878 V 62.00366 c 0,-0.553323 -0.446,-0.99878 -1,-0.99878 h -2 v -1.997562 c 0,-0.553323 -0.446,-0.99878 -1,-0.99878 z"
         sodipodi:nodetypes="sssssscsssscsss" />
      <path
         id="rect1-2-1-4"
         style="fill:#363c4d;fill-opacity:1;stroke-width:1.99878;stroke-linecap:round;stroke-linejoin:round;paint-order:stroke fill markers"
         d="m 114,59.007319 v 11.985366 h 15 v -2.996339 h 3 v -5.992685 h -3 v -2.996342 z"
         sodipodi:nodetypes="ccccccccc" />
      <path
         id="rect1-6-8-4-22"
         style="fill:#87deb0;fill-opacity:1;stroke-width:1.99878;stroke-linecap:round;stroke-linejoin:round;paint-order:stroke fill markers"
         d="m 121.92578,69.998049 c -0.17524,-0.01309 -0.34871,-0.07285 -0.50391,-0.183594 L 115,65.226564 v 4.773438 l 2,0.002 h 2 2 v -0.0039 z" />
      <path
         id="path3-76"
         style="fill:#87deb0;fill-opacity:1;stroke-width:1.99878;stroke-linecap:round;stroke-linejoin:round;paint-order:stroke fill markers"
         d="m 125,66.000002 h -0.32813 l -1.77929,3.457031 c -0.17215,0.335422 -0.50436,0.52833 -0.84961,0.542969 H 123 h 2 v -3 z" />
      <path
         id="path1-1"
         style="fill:#87deb0;fill-opacity:1;stroke-width:1.99878;stroke-linecap:round;stroke-linejoin:round;paint-order:stroke fill markers"
         d="m 121,59.998049 v 0.0039 h -2 -2 l -2,-0.002 v 3 c 0.001,-3e-6 0.003,-2e-6 0.004,0 h 4.46484 l 1.70313,-2.554688 c 0.29128,-0.437482 0.87159,-0.574882 1.32813,-0.3144 l 2.5,1.427735 v -1.558594 h -2 z" />
      <path
         style="fill:#ffffff;fill-opacity:1;stroke:none;stroke-width:2.23352;stroke-linecap:round;stroke-linejoin:round;stroke-miterlimit:4;stroke-dasharray:none;stroke-opacity:1"
         d="m 128.99959,64.999801 -4.94242,-4e-5 -2.05739,3.999879 -6.99981,-4.999799 h 4.99986 l 1.99995,-2.999879 z"
         id="rect843-3-3-7-8-1"
         sodipodi:nodetypes="ccccccc" />
      <path
         style="fill:#ffffff;fill-opacity:1;stroke:none;stroke-width:1.99993;stroke-linecap:round;stroke-linejoin:round;stroke-miterlimit:4;stroke-dasharray:none;stroke-opacity:1"
         d="m 128.99959,64.999801 -4.94242,-4e-5 -2.05739,3.999879 -6.99981,-4.999799 h 4.99986 l 1.99995,-2.999879 z"
         id="rect843-3-3-7-8-3-30"
         sodipodi:nodetypes="ccccccc" />
    </g>
  </g>
</svg>
