<?xml version="1.0" encoding="UTF-8" standalone="no"?>
<!-- Created with Inkscape (http://www.inkscape.org/) -->

<svg
   width="22"
   height="22"
   viewBox="0 0 22 22"
   version="1.1"
   id="svg1"
   inkscape:version="1.4.2 (ebf0e940d0, 2025-05-08)"
   sodipodi:docname="battery-100-charging.svg"
   xmlns:inkscape="http://www.inkscape.org/namespaces/inkscape"
   xmlns:sodipodi="http://sodipodi.sourceforge.net/DTD/sodipodi-0.dtd"
   xmlns:xlink="http://www.w3.org/1999/xlink"
   xmlns="http://www.w3.org/2000/svg"
   xmlns:svg="http://www.w3.org/2000/svg">
  <sodipodi:namedview
     id="namedview1"
     pagecolor="#ffffff"
     bordercolor="#000000"
     borderopacity="0.25"
     inkscape:showpageshadow="false"
     inkscape:pageopacity="0.0"
     inkscape:pagecheckerboard="true"
     inkscape:deskcolor="#d1d1d1"
     inkscape:document-units="px"
     inkscape:zoom="28.607071"
     inkscape:cx="25.955121"
     inkscape:cy="20.432011"
     inkscape:window-width="1920"
     inkscape:window-height="1006"
     inkscape:window-x="0"
     inkscape:window-y="0"
     inkscape:window-maximized="1"
     inkscape:current-layer="layer1"
     showgrid="true">
    <inkscape:grid
       id="grid1"
       units="px"
       originx="0"
       originy="0"
       spacingx="1"
       spacingy="1"
       empcolor="#0099e5"
       empopacity="0.30196078"
       color="#0099e5"
       opacity="0.14901961"
       empspacing="5"
       enabled="true"
       visible="true" />
  </sodipodi:namedview>
  <defs
     id="defs1">
    <linearGradient
       inkscape:collect="always"
       xlink:href="#linearGradient8-21"
       id="linearGradient82"
       gradientUnits="userSpaceOnUse"
       gradientTransform="translate(62,20.009757)"
       x1="-14"
       y1="32"
       x2="-14"
       y2="20" />
    <linearGradient
       id="linearGradient8-21"
       inkscape:collect="always">
      <stop
         style="stop-color:#252a34;stop-opacity:1;"
         offset="0"
         id="stop8-0" />
      <stop
         style="stop-color:#353d4b;stop-opacity:1;"
         offset="1"
         id="stop9-8" />
    </linearGradient>
    <linearGradient
       inkscape:collect="always"
       xlink:href="#linearGradient10-1"
       id="linearGradient83"
       gradientUnits="userSpaceOnUse"
       gradientTransform="translate(62,20.009757)"
       x1="-14"
       y1="31"
       x2="-14"
       y2="22" />
    <linearGradient
       id="linearGradient10-1"
       inkscape:collect="always">
      <stop
         style="stop-color:#454545;stop-opacity:1;"
         offset="0"
         id="stop10" />
      <stop
         style="stop-color:#212121;stop-opacity:1;"
         offset="1"
         id="stop11" />
    </linearGradient>
    <linearGradient
       inkscape:collect="always"
       xlink:href="#linearGradient6-2"
       id="linearGradient84"
       gradientUnits="userSpaceOnUse"
       gradientTransform="translate(62,20.013415)"
       x1="-14"
       y1="31"
       x2="-14"
       y2="22" />
    <linearGradient
       id="linearGradient6-2"
       inkscape:collect="always">
      <stop
         style="stop-color:#26cf63;stop-opacity:1;"
         offset="0"
         id="stop5-9" />
      <stop
         style="stop-color:#69d779;stop-opacity:1;"
         offset="1"
         id="stop6" />
    </linearGradient>
  </defs>
  <g
     inkscape:label="Capa 1"
     inkscape:groupmode="layer"
     id="layer1">
    <g
       id="g2"
       transform="matrix(0.90652691,3.6716263e-4,-4.5627647e-4,1.124795,-33.403083,-40.804351)">
      <path
         id="rect7-6"
         style="fill:#15151a;fill-opacity:1;stroke-width:1.99878;stroke-linecap:round;stroke-linejoin:round;paint-order:stroke fill markers"
         d="m 40,38.000002 c -1.108,-0.0014 -2,0.890914 -2,1.997561 V 51.98293 c 0,1.106647 0.892,1.99612 2,1.997562 l 15,0.01951 c 1.108,0.0014 2,-0.890915 2,-1.997561 v -1.010489 h 1.03125 c 1.0907,0 1.96875,-0.876978 1.96875,-1.966349 v -0.05852 -6.002437 c 0,-6.52e-4 0,-0.0013 0,-0.002 0,-1.089371 -0.87805,-1.966349 -1.96875,-1.966349 H 57.2168 c -0.0747,-0.0067 -0.14755,-0.0098 -0.2168,-0.0098 v -0.96952 c 0,-1.106647 -0.892,-1.99612 -2,-1.997561 z" />
      <path
         id="rect4-0"
         style="fill:url(#linearGradient82);stroke-width:1.99878;stroke-linecap:round;stroke-linejoin:round;paint-order:stroke fill markers"
         d="m 40,39.008538 c -0.554,0 -1,0.445457 -1,0.99878 v 11.985367 c 0,0.553324 0.446,0.998781 1,0.998781 h 15 c 0.554,0 1,-0.445457 1,-0.998781 v -1.997561 h 2 c 0.554,0 1,-0.445457 1,-0.99878 V 43.00366 c 0,-0.553323 -0.446,-0.998781 -1,-0.998781 h -2 v -1.997561 c 0,-0.553323 -0.446,-0.99878 -1,-0.99878 z"
         sodipodi:nodetypes="sssssscsssscsss" />
      <path
         id="rect1-7"
         style="fill:url(#linearGradient83);stroke-width:1.99878;stroke-linecap:round;stroke-linejoin:round;paint-order:stroke fill markers"
         d="m 40,40.007318 v 11.985367 h 15 v -2.996341 h 3 V 43.00366 h -3 v -2.996342 z"
         sodipodi:nodetypes="ccccccccc" />
      <path
         id="rect1-6-3"
         style="fill:url(#linearGradient84);stroke-width:1.99878;stroke-linecap:round;stroke-linejoin:round;paint-order:stroke fill markers"
         d="m 41,41.000002 v 10 h 13 v -3 h 3 v -4 h -3 v -3 z"
         sodipodi:nodetypes="ccccccccc" />
      <path
         id="path1-8"
         style="fill:#363c4d;fill-opacity:1;stroke-width:1.99878;stroke-linecap:round;stroke-linejoin:round;paint-order:stroke fill markers"
         d="m 40,38.000002 c -1.108,-0.0014 -2,0.890914 -2,1.997561 V 51.98293 c 0,1.106647 0.892,1.99612 2,1.997562 l 15,0.01951 c 1.108,0.0014 2,-0.890915 2,-1.997561 v -1.010489 h 1.03125 c 1.0907,0 1.96875,-0.876978 1.96875,-1.966349 v -0.05852 -6.002437 c 0,-6.52e-4 0,-0.0013 0,-0.002 0,-1.089371 -0.87805,-1.966349 -1.96875,-1.966349 H 57.2168 c -0.0747,-0.0067 -0.14755,-0.0098 -0.2168,-0.0098 v -0.96952 c 0,-1.106647 -0.892,-1.99612 -2,-1.997561 z" />
      <path
         id="path2-4"
         style="fill:#69718b;fill-opacity:1;stroke-width:1.99878;stroke-linecap:round;stroke-linejoin:round;paint-order:stroke fill markers"
         d="m 40,39.008538 c -0.554,0 -1,0.445457 -1,0.99878 v 11.985367 c 0,0.553324 0.446,0.998781 1,0.998781 h 15 c 0.554,0 1,-0.445457 1,-0.998781 v -1.997561 h 2 c 0.554,0 1,-0.445457 1,-0.99878 V 43.00366 c 0,-0.553323 -0.446,-0.998781 -1,-0.998781 h -2 v -1.997561 c 0,-0.553323 -0.446,-0.99878 -1,-0.99878 z"
         sodipodi:nodetypes="sssssscsssscsss" />
      <path
         id="path3-768"
         style="fill:#363c4d;fill-opacity:1;stroke-width:1.99878;stroke-linecap:round;stroke-linejoin:round;paint-order:stroke fill markers"
         d="m 40,40.007318 v 11.985367 h 15 v -2.996341 h 3 V 43.00366 h -3 v -2.996342 z"
         sodipodi:nodetypes="ccccccccc" />
      <path
         id="path4-96"
         style="fill:#87deb0;fill-opacity:1;stroke-width:1.99878;stroke-linecap:round;stroke-linejoin:round;paint-order:stroke fill markers"
         d="m 41,41.000002 v 10 h 13 v -3 h 3 v -4 h -3 v -3 z"
         sodipodi:nodetypes="ccccccccc" />
      <path
         style="fill:#ffffff;stroke-width:0.0609006"
         d="M 3.7733172,19.800429 C 3.6379501,19.738716 3.4529646,19.600005 3.3622382,19.492182 l -0.1649572,-0.19604 2.277e-4,-6.98367 C 3.1977334,5.4166685 3.1992817,5.3262669 3.320568,5.1273339 3.5533993,4.7454456 3.788548,4.6921967 5.2488317,4.690683 L 6.539125,4.6893455 6.5581944,3.5883158 6.5772638,2.4872862 6.7998905,2.2834035 C 6.9223352,2.171268 7.1278747,2.0502657 7.2566449,2.0145095 c 0.3222524,-0.089481 7.0886701,-0.089481 7.4109221,0 0.128771,0.035756 0.334311,0.1567428 0.456755,0.2688591 l 0.222627,0.2038479 0.03045,1.0858393 0.03045,1.0858394 1.339813,0.03045 c 1.469657,0.033401 1.596396,0.063443 1.881553,0.4459951 l 0.128167,0.1719425 V 12.26071 c 0,6.843755 -0.0019,6.956694 -0.121801,7.160639 -0.06699,0.113966 -0.231423,0.264695 -0.365404,0.334953 -0.242795,0.127318 -0.266796,0.127788 -7.24717,0.142037 -6.691317,0.01366 -7.0145413,0.0093 -7.2496898,-0.09791 z M 17.691622,12.271469 V 5.4810532 H 16.016855 14.342089 V 4.1412402 2.8014272 H 10.962106 7.5821235 v 1.3388342 1.3388342 l -1.6595411,0.016204 -1.6595411,0.016204 -0.01549,6.7751904 -0.01549,6.775191 h 6.7297797 6.729781 z"
         id="path1"
         transform="matrix(0,0.89445846,-1.110686,0,61.149904,36.188194)" />
    </g>
    <g
       fill-rule="nonzero"
       id="g5"
       transform="matrix(0.44607222,0,0,0.44779133,-10.519243,-0.63632435)">
      <path
         d="M 35.999,26 C 30.46,26 26,30.46 26,36 c 0,5.54 4.46,10 9.999,10 5.54,0 9.999,-4.46 9.999,-10 0,-5.54 -4.459,-10 -9.999,-10 z"
         fill="#3870fe"
         id="path4" />
      <path
         transform="rotate(13.79738,-94.038883,139.78377)"
         d="M 8,0 7.893,6.794 h 3.535 L 7.02,16 7.107,9.206 H 3.572 Z"
         fill="#ffffff"
         id="path5" />
    </g>
  </g>
</svg>
