<?xml version="1.0" encoding="UTF-8" standalone="no"?>
<svg
   id="svg8"
   version="1.1"
   viewBox="0 0 22 22"
   sodipodi:docname="brightness-high-symbolic.svg"
   xml:space="preserve"
   inkscape:version="1.4.2 (ebf0e940d0, 2025-05-08)"
   xmlns:inkscape="http://www.inkscape.org/namespaces/inkscape"
   xmlns:sodipodi="http://sodipodi.sourceforge.net/DTD/sodipodi-0.dtd"
   xmlns="http://www.w3.org/2000/svg"
   xmlns:svg="http://www.w3.org/2000/svg"><sodipodi:namedview
     id="namedview1"
     pagecolor="#ffffff"
     bordercolor="#000000"
     borderopacity="0.25"
     inkscape:showpageshadow="2"
     inkscape:pageopacity="0.0"
     inkscape:pagecheckerboard="0"
     inkscape:deskcolor="#d1d1d1"
     inkscape:zoom="18.641906"
     inkscape:cx="11.962296"
     inkscape:cy="19.230866"
     inkscape:window-width="1279"
     inkscape:window-height="1080"
     inkscape:window-x="0"
     inkscape:window-y="0"
     inkscape:window-maximized="0"
     inkscape:current-layer="layer1"
     showgrid="true"><inkscape:grid
       id="grid1"
       units="px"
       originx="0"
       originy="0"
       spacingx="1"
       spacingy="1"
       empcolor="#0099e5"
       empopacity="0.30196078"
       color="#0099e5"
       opacity="0.14902"
       empspacing="5"
       dotted="false"
       gridanglex="30"
       gridanglez="30"
       visible="true" /></sodipodi:namedview><defs
     id="defs2"><style
       type="text/css"
       id="current-color-scheme">
        .ColorScheme-Text {            color:#232629;        }
    </style></defs><g
     inkscape:label="Capa 1"
     id="layer1"
     transform="translate(28.818378,-5.8079072)"><g
       id="g1"
       transform="matrix(0.90076122,0,0,0.89539697,-1.7404836,1.7849794)"><path
         style="fill:#f37d5c;fill-opacity:1;stroke-width:2;stroke-linecap:round;stroke-linejoin:round;paint-order:stroke fill markers"
         d="m -17.818378,22.807907 c -1.107999,0 -2,0.892001 -2,2 0,1.107999 0.892001,2 2,2 1.107999,0 2,-0.892001 2,-2 0,-1.107999 -0.892001,-2 -2,-2 z"
         id="path16" /><path
         style="fill:#f37d5c;fill-opacity:1;stroke-width:2;stroke-linecap:round;stroke-linejoin:round;paint-order:stroke fill markers"
         d="m -11.828144,20.807907 c -1.107999,0 -2,0.892001 -2,2 0,1.107999 0.892001,2 2,2 1.107999,0 2,-0.892001 2,-2 0,-1.107999 -0.892001,-2 -2,-2 z"
         id="path15" /><path
         style="fill:#f37d5c;fill-opacity:1;stroke-width:2;stroke-linecap:round;stroke-linejoin:round;paint-order:stroke fill markers"
         d="m -23.808612,20.807907 c -1.107999,0 -2,0.892001 -2,2 0,1.107999 0.892001,2 2,2 1.107999,0 2,-0.892001 2,-2 0,-1.107999 -0.892001,-2 -2,-2 z"
         id="path14" /><path
         style="fill:#f37d5c;fill-opacity:1;stroke-width:2;stroke-linecap:round;stroke-linejoin:round;paint-order:stroke fill markers"
         d="m -9.808612,14.807907 c -1.107999,0 -2,0.892001 -2,2 0,1.107999 0.892001,2 2,2 1.107999,0 2,-0.892001 2,-2 0,-1.107999 -0.892001,-2 -2,-2 z"
         id="path13" /><path
         style="fill:#f37d5c;fill-opacity:1;stroke-width:2;stroke-linecap:round;stroke-linejoin:round;paint-order:stroke fill markers"
         d="m -25.808612,14.807907 c -1.107998,0 -2,0.892001 -2,2 0,1.107999 0.892002,2 2,2 1.107999,0 2,-0.892001 2,-2 0,-1.107999 -0.892001,-2 -2,-2 z"
         id="path12" /><path
         style="fill:#f37d5c;fill-opacity:1;stroke-width:2;stroke-linecap:round;stroke-linejoin:round;paint-order:stroke fill markers"
         d="m -17.808612,11.807907 c -2.769994,0 -5,2.230006 -5,5 0,2.769994 2.230006,5 5,5 2.769994,0 5,-2.230006 5,-5 0,-2.769994 -2.230006,-5 -5,-5 z"
         id="path11" /><path
         style="fill:#f37d5c;fill-opacity:1;stroke-width:2;stroke-linecap:round;stroke-linejoin:round;paint-order:stroke fill markers"
         d="m -11.808612,8.807907 c -1.107999,0 -2,0.892001 -2,2 0,1.107999 0.892001,2 2,2 1.107999,0 2,-0.892001 2,-2 0,-1.107999 -0.892001,-2 -2,-2 z"
         id="path10" /><path
         style="fill:#f37d5c;fill-opacity:1;stroke-width:2;stroke-linecap:round;stroke-linejoin:round;paint-order:stroke fill markers"
         d="m -23.808612,8.807907 c -1.107999,0 -2,0.892001 -2,2 0,1.107999 0.892001,2 2,2 1.107999,0 2,-0.892001 2,-2 0,-1.107999 -0.892001,-2 -2,-2 z"
         id="path9" /><path
         style="fill:#f37d5c;fill-opacity:1;stroke-width:2;stroke-linecap:round;stroke-linejoin:round;paint-order:stroke fill markers"
         d="m -17.808612,6.807907 c -1.107999,0 -2,0.892001 -2,2 0,1.107999 0.892001,2 2,2 1.107999,0 2,-0.892001 2,-2 0,-1.107999 -0.892001,-2 -2,-2 z"
         id="rect1" /><path
         style="fill:#ffb8a3;fill-opacity:1;stroke-width:1.6;stroke-linecap:round;stroke-linejoin:round;paint-order:stroke fill markers"
         d="m -17.818378,23.807907 c -0.553999,0 -1,0.446001 -1,1 0,0.554 0.446001,1 1,1 0.553999,0 1,-0.446 1,-1 0,-0.553999 -0.446001,-1 -1,-1 z"
         id="path8" /><path
         style="fill:#ffb8a3;fill-opacity:1;stroke-width:1.6;stroke-linecap:round;stroke-linejoin:round;paint-order:stroke fill markers"
         d="m -11.828144,21.807907 c -0.553999,0 -1,0.446001 -1,1 0,0.554 0.446001,1 1,1 0.553999,0 1,-0.446 1,-1 0,-0.553999 -0.446001,-1 -1,-1 z"
         id="path7" /><path
         style="fill:#ffb8a3;fill-opacity:1;stroke-width:1.6;stroke-linecap:round;stroke-linejoin:round;paint-order:stroke fill markers"
         d="m -23.808612,21.807907 c -0.553999,0 -1,0.446001 -1,1 0,0.554 0.446001,1 1,1 0.553999,0 1,-0.446 1,-1 0,-0.553999 -0.446001,-1 -1,-1 z"
         id="path6" /><path
         style="fill:#ffb8a3;fill-opacity:1;stroke-width:1.6;stroke-linecap:round;stroke-linejoin:round;paint-order:stroke fill markers"
         d="m -9.798846,15.807907 c -0.553999,0 -1,0.446001 -1,1 0,0.554 0.446001,1 1,1 0.553999,0 1,-0.446 1,-1 0,-0.553999 -0.446001,-1 -1,-1 z"
         id="path5" /><path
         style="fill:#ffb8a3;fill-opacity:1;stroke-width:1.6;stroke-linecap:round;stroke-linejoin:round;paint-order:stroke fill markers"
         d="m -25.798846,15.807907 c -0.553999,0 -1,0.446001 -1,1 0,0.554 0.446001,1 1,1 0.554,0 1,-0.446 1,-1 0,-0.553999 -0.446,-1 -1,-1 z"
         id="path4" /><path
         style="fill:#ffb8a3;fill-opacity:1;stroke-width:1.6;stroke-linecap:round;stroke-linejoin:round;paint-order:stroke fill markers"
         d="m -17.808612,12.807907 c -2.215995,0 -4,1.784004 -4,4 0,2.215996 1.784005,4 4,4 2.215996,0 4,-1.784004 4,-4 0,-2.215996 -1.784004,-4 -4,-4 z"
         id="path3" /><path
         style="fill:#ffb8a3;fill-opacity:1;stroke-width:1.6;stroke-linecap:round;stroke-linejoin:round;paint-order:stroke fill markers"
         d="m -11.808612,9.807907 c -0.553999,0 -1,0.446001 -1,1 0,0.554 0.446001,1 1,1 0.553999,0 1,-0.446 1,-1 0,-0.553999 -0.446001,-1 -1,-1 z"
         id="path2" /><path
         style="fill:#ffb8a3;fill-opacity:1;stroke-width:1.6;stroke-linecap:round;stroke-linejoin:round;paint-order:stroke fill markers"
         d="m -23.808612,9.807907 c -0.553999,0 -1,0.446001 -1,1 0,0.554 0.446001,1 1,1 0.553999,0 1,-0.446 1,-1 0,-0.553999 -0.446001,-1 -1,-1 z"
         id="path1" /><path
         style="fill:#ffb8a3;fill-opacity:1;stroke-width:1.6;stroke-linecap:round;stroke-linejoin:round;paint-order:stroke fill markers"
         d="m -17.808612,7.807907 c -0.553999,0 -1,0.446001 -1,1 0,0.554 0.446001,1 1,1 0.553999,0 1,-0.446 1,-1 0,-0.553999 -0.446001,-1 -1,-1 z"
         id="rect1-36" /></g></g><style
     type="text/css"
     id="current-color-scheme-5">
        .ColorScheme-PositiveText {
            color:#27ae60;
        }
        .ColorScheme-NegativeText {
            color:#da4453;
        }
    </style></svg>
