<?xml version="1.0" encoding="UTF-8" standalone="no"?>
<svg
   id="Layer_1"
   viewBox="0 0 22 22"
   version="1.1"
   sodipodi:docname="cachy-update_updates-available-blue.svg"
   width="22"
   height="22"
   inkscape:version="1.4.3 (0d15f75042, 2025-12-25)"
   xmlns:inkscape="http://www.inkscape.org/namespaces/inkscape"
   xmlns:sodipodi="http://sodipodi.sourceforge.net/DTD/sodipodi-0.dtd"
   xmlns="http://www.w3.org/2000/svg"
   xmlns:svg="http://www.w3.org/2000/svg">
  <sodipodi:namedview
     id="namedview19"
     pagecolor="#ffffff"
     bordercolor="#000000"
     borderopacity="0.25"
     inkscape:showpageshadow="2"
     inkscape:pageopacity="0.0"
     inkscape:pagecheckerboard="0"
     inkscape:deskcolor="#d1d1d1"
     showgrid="true"
     inkscape:zoom="48.625"
     inkscape:cx="11.989717"
     inkscape:cy="12.020566"
     inkscape:window-width="1920"
     inkscape:window-height="1006"
     inkscape:window-x="0"
     inkscape:window-y="0"
     inkscape:window-maximized="1"
     inkscape:current-layer="Layer_1">
    <inkscape:grid
       id="grid19"
       units="px"
       originx="0"
       originy="0"
       spacingx="1"
       spacingy="1"
       empcolor="#0099e5"
       empopacity="0.30196078"
       color="#0099e5"
       opacity="0.14902"
       empspacing="5"
       enabled="true"
       visible="true" />
  </sodipodi:namedview>
  <defs
     id="defs16">
    <linearGradient
       id="linear-gradient"
       x1="928.07141"
       x2="923.11877"
       y1="-1390.0707"
       y2="-1399.4019"
       gradientTransform="matrix(0.5484,0,0,-0.5484,-497.3643,-761.0426)"
       gradientUnits="userSpaceOnUse">
      <stop
         offset=".3352"
         stop-color="#020202"
         id="stop1" />
      <stop
         offset=".8098"
         stop-color="#020202"
         stop-opacity="0"
         id="stop2" />
    </linearGradient>
    <linearGradient
       id="linear-gradient1"
       x1="942.88892"
       x2="935.52808"
       y1="-1423.6914"
       y2="-1410.3158"
       gradientTransform="matrix(0.5484,0,0,-0.5484,-501.6022,-772.6634)"
       gradientUnits="userSpaceOnUse">
      <stop
         offset=".0665"
         stop-color="#020202"
         id="stop3" />
      <stop
         offset=".4109"
         stop-color="#020202"
         stop-opacity="0"
         id="stop4" />
    </linearGradient>
    <linearGradient
       id="linear-gradient2"
       x1="930.35211"
       x2="914.43079"
       y1="-1401.3331"
       y2="-1401.3331"
       gradientTransform="matrix(0.5484,0,0,-0.5484,-497.3643,-761.0426)"
       gradientUnits="userSpaceOnUse">
      <stop
         offset=".4827"
         stop-color="#020202"
         id="stop5" />
      <stop
         offset=".6928"
         stop-color="#020202"
         stop-opacity="0"
         id="stop6" />
    </linearGradient>
    <linearGradient
       id="linear-gradient3"
       x1="915.6474"
       x2="922.44623"
       y1="-1420.8641"
       y2="-1420.856"
       gradientTransform="matrix(0.5484,0,0,-0.5484,-497.3643,-761.0426)"
       gradientUnits="userSpaceOnUse">
      <stop
         offset=".3268"
         stop-color="#020202"
         id="stop7" />
      <stop
         offset=".8194"
         stop-color="#020202"
         stop-opacity="0"
         id="stop8" />
    </linearGradient>
    <linearGradient
       id="linear-gradient4"
       x1="918.48053"
       x2="915.55249"
       y1="-1415.3901"
       y2="-1409.6522"
       gradientTransform="matrix(0.5484,0,0,-0.5484,-497.3643,-761.0426)"
       gradientUnits="userSpaceOnUse">
      <stop
         offset=".5023"
         stop-color="#020202"
         id="stop9" />
      <stop
         offset=".7545"
         stop-color="#020202"
         stop-opacity="0"
         id="stop10" />
    </linearGradient>
    <linearGradient
       id="linear-gradient5"
       x1="925.35431"
       x2="914.56738"
       y1="-1419.786"
       y2="-1400.0646"
       gradientTransform="matrix(0.5484,0,0,-0.5484,-497.50826,-761.30995)"
       gradientUnits="userSpaceOnUse">
      <stop
         offset=".5593"
         stop-color="#020202"
         id="stop11" />
      <stop
         offset=".7624"
         stop-color="#020202"
         stop-opacity="0"
         id="stop12" />
    </linearGradient>
    <linearGradient
       id="linear-gradient6"
       x1="924.57452"
       x2="917.24658"
       y1="-1396.3917"
       y2="-1420.192"
       gradientTransform="matrix(0.5484,0,0,-0.5484,-497.3643,-761.0426)"
       gradientUnits="userSpaceOnUse">
      <stop
         offset=".6182"
         stop-color="#020202"
         id="stop13" />
      <stop
         offset=".8324"
         stop-color="#020202"
         stop-opacity="0"
         id="stop14" />
    </linearGradient>
    <linearGradient
       id="linear-gradient7"
       x1="923.47461"
       x2="927.04919"
       y1="-1422.2953"
       y2="-1415.8466"
       gradientTransform="matrix(0.5484,0,0,-0.5484,-497.3643,-761.0426)"
       gradientUnits="userSpaceOnUse">
      <stop
         offset=".422"
         stop-color="#020202"
         id="stop15" />
      <stop
         offset=".7868"
         stop-color="#020202"
         stop-opacity="0"
         id="stop16" />
    </linearGradient>
    <style
       id="style16">.st7{fill:#0a8}</style>
  </defs>
  <g
     id="g19"
     transform="matrix(0.79377233,0,0,0.87503518,1.534438,0.60883702)">
    <g
       id="g21"
       transform="matrix(1.1231253,0,0,0.99962736,-1.5537543,0.00444428)">
      <path
         fill="#f93a30"
         d="m 17,11 c -2.7614,0 -5,2.2386 -5,5 0,2.7614 2.2386,5 5,5 2.7614,0 5,-2.2386 5,-5 0,-2.7614 -2.2386,-5 -5,-5 m 3.2422,5.2995 -2.3568,2.3568 -0.5925,0.5924 q -0.1172,0.1173 -0.293,0.1173 c -0.1758,0 -0.2148,-0.0391 -0.293,-0.1173 l -0.5924,-0.5924 -2.3568,-2.3568 q -0.1172,-0.1172 -0.1172,-0.293 c 0,-0.1758 0.0391,-0.2148 0.1172,-0.293 l 0.5925,-0.5924 q 0.1172,-0.1172 0.293,-0.1172 c 0.1758,0 0.2148,0.0391 0.293,0.1172 l 1.2305,1.2305 v -3.2682 q 0,-0.1692 0.1237,-0.293 0.1237,-0.1236 0.293,-0.1237 h 0.8333 q 0.1693,0 0.293,0.1237 0.1237,0.1237 0.1237,0.293 v 3.2682 l 1.2305,-1.2305 q 0.1237,-0.1236 0.293,-0.1237 c 0.1693,-1e-4 0.2105,0.0412 0.293,0.1237 l 0.5924,0.5924 q 0.1172,0.1172 0.1172,0.293 c 0,0.1758 -0.0391,0.2148 -0.1172,0.293 z"
         id="path17"
         style="fill:#ec817b;fill-opacity:1;stroke:#f93a30;stroke-width:0.239977;stroke-linecap:round;stroke-linejoin:round;stroke-dasharray:none;stroke-opacity:1" />
      <g
         id="g20"
         style="stroke:none;stroke-opacity:1"
         transform="matrix(1.0299789,0,0,1,-0.05564203,0)">
        <path
           fill="#00ccff"
           d="m 11.0709,16.9199 c -0.0383,-0.247 -0.056,-0.492 -0.0637,-0.7357 H 9.7639 L 7.3098,11.9337 9.7301,7.7416 h 5.8087 L 18.2763,3 H 7.0829 L 2,11.8039 7.3093,21 h 6.3864 c -1.3604,-0.8995 -2.355,-2.3416 -2.6248,-4.0801"
           id="path16"
           style="stroke:#00ccff;stroke-opacity:1;fill:#42dadf;fill-opacity:1;stroke-width:0.22316286;stroke-dasharray:none;stroke-linejoin:round;stroke-linecap:round" />
      </g>
    </g>
  </g>
</svg>
