<?xml version="1.0" encoding="UTF-8" standalone="no"?>
<svg
   height="22"
   viewBox="0 0 22 22"
   width="22"
   id="svg2"
   version="1.1"
   inkscape:version="1.3.2 (091e20ef0f, 2023-11-25, custom)"
   sodipodi:docname="dialog-password.svg"
   xml:space="preserve"
   xmlns:inkscape="http://www.inkscape.org/namespaces/inkscape"
   xmlns:sodipodi="http://sodipodi.sourceforge.net/DTD/sodipodi-0.dtd"
   xmlns="http://www.w3.org/2000/svg"
   xmlns:svg="http://www.w3.org/2000/svg"
   xmlns:rdf="http://www.w3.org/1999/02/22-rdf-syntax-ns#"
   xmlns:cc="http://creativecommons.org/ns#"
   xmlns:dc="http://purl.org/dc/elements/1.1/"><metadata
     id="metadata10"><rdf:RDF><cc:Work
         rdf:about=""><dc:format>image/svg+xml</dc:format><dc:type
           rdf:resource="http://purl.org/dc/dcmitype/StillImage" /><dc:title /></cc:Work></rdf:RDF></metadata><sodipodi:namedview
     pagecolor="#ffffff"
     bordercolor="#666666"
     borderopacity="1"
     objecttolerance="10"
     gridtolerance="10"
     guidetolerance="10"
     inkscape:pageopacity="0"
     inkscape:pageshadow="2"
     inkscape:window-width="2560"
     inkscape:window-height="1364"
     id="namedview8"
     showgrid="true"
     inkscape:showpageshadow="false"
     inkscape:snap-bbox="true"
     inkscape:bbox-paths="true"
     inkscape:bbox-nodes="true"
     inkscape:snap-bbox-edge-midpoints="true"
     inkscape:snap-bbox-midpoints="true"
     inkscape:object-paths="true"
     inkscape:snap-intersection-paths="true"
     inkscape:object-nodes="true"
     inkscape:snap-smooth-nodes="false"
     inkscape:snap-midpoints="false"
     inkscape:zoom="16.000001"
     inkscape:cx="-17.093749"
     inkscape:cy="5.5624996"
     inkscape:window-x="0"
     inkscape:window-y="0"
     inkscape:window-maximized="1"
     inkscape:current-layer="g2289"
     inkscape:pagecheckerboard="0"
     inkscape:deskcolor="#d1d1d1"><inkscape:grid
       type="xygrid"
       id="grid5653"
       originx="0"
       originy="0"
       spacingy="1"
       spacingx="1"
       units="px"
       visible="true" /></sodipodi:namedview><defs
     id="defs2"><style
       type="text/css"
       id="current-color-scheme">
      .ColorScheme-Text {
        color:#122036;
      }
      </style><style
       type="text/css"
       id="current-color-scheme-1">
      .ColorScheme-Text {
        color:#122036;
      }
      </style><style
       id="current-color-scheme-10"
       type="text/css">
      .ColorScheme-Text {
        color:#122036;
      }
      </style><style
       type="text/css"
       id="current-color-scheme-6">
      .ColorScheme-Text {
        color:#122036;
      }
      </style><style
       type="text/css"
       id="current-color-scheme-7">
      .ColorScheme-Text {
        color:#122036;
      }
      </style><style
       type="text/css"
       id="current-color-scheme-5">
      .ColorScheme-Text {
        color:#122036;
      }
      </style><style
       id="current-color-scheme-9"
       type="text/css">
      .ColorScheme-Text {
        color:#122036;
      }
      </style><style
       id="current-color-scheme-7-2"
       type="text/css">
      .ColorScheme-Text {
        color:#122036;
      }
      </style><style
       id="current-color-scheme-5-0"
       type="text/css">
      .ColorScheme-Text {
        color:#122036;
      }
      </style><style
       id="current-color-scheme-675"
       type="text/css">
      .ColorScheme-Text {
        color:#122036;
      }
      </style><style
       id="current-color-scheme-1-3"
       type="text/css">
      .ColorScheme-Text {
        color:#122036;
      }
      </style><style
       type="text/css"
       id="current-color-scheme-10-4">
      .ColorScheme-Text {
        color:#122036;
      }
      </style><style
       type="text/css"
       id="current-color-scheme-56">
      .ColorScheme-Text {
        color:#122036;
      }
      </style><style
       type="text/css"
       id="current-color-scheme-1-9">
      .ColorScheme-Text {
        color:#122036;
      }
      </style><style
       id="current-color-scheme-10-1"
       type="text/css">
      .ColorScheme-Text {
        color:#122036;
      }
      </style><style
       type="text/css"
       id="current-color-scheme-6-7">
      .ColorScheme-Text {
        color:#122036;
      }
      </style><style
       type="text/css"
       id="current-color-scheme-7-3">
      .ColorScheme-Text {
        color:#122036;
      }
      </style><style
       type="text/css"
       id="current-color-scheme-5-56">
      .ColorScheme-Text {
        color:#122036;
      }
      </style><style
       id="current-color-scheme-67"
       type="text/css">
      .ColorScheme-Text {
        color:#122036;
      }
      </style><style
       id="current-color-scheme-7-5"
       type="text/css">
      .ColorScheme-Text {
        color:#122036;
      }
      </style><style
       id="current-color-scheme-5-3"
       type="text/css">
      .ColorScheme-Text {
        color:#122036;
      }
      </style><style
       id="current-color-scheme-53"
       type="text/css">
      .ColorScheme-Text {
        color:#122036;
      }
      </style><style
       type="text/css"
       id="current-color-scheme-23">
      .ColorScheme-Text {
        color:#122036;
      }
      </style><style
       id="current-color-scheme-5-5"
       type="text/css">
      .ColorScheme-Text {
        color:#122036;
      }
      </style><style
       id="current-color-scheme-2"
       type="text/css">
      .ColorScheme-Text {
        color:#122036;
      }
      </style><style
       id="current-color-scheme-1-5"
       type="text/css">
      .ColorScheme-Text {
        color:#122036;
      }
      </style><style
       type="text/css"
       id="current-color-scheme-10-6">
      .ColorScheme-Text {
        color:#122036;
      }
      </style><style
       id="current-color-scheme-0"
       type="text/css">
      .ColorScheme-Text {
        color:#122036;
      }
      </style><style
       id="current-color-scheme-26"
       type="text/css">
      .ColorScheme-Text {
        color:#122036;
      }
      </style></defs><g
     transform="translate(-18,-287.64999)"
     id="layer1-60"
     inkscape:label="Capa 1"><g
       transform="matrix(0.6,0,0,0.6,9.4,122.46)"
       id="g2289"><path
         style="opacity:1;fill:#36404d;fill-opacity:1;stroke:none;stroke-width:3.33333349;stroke-linecap:round;stroke-linejoin:round;stroke-miterlimit:4;stroke-dasharray:none;stroke-opacity:1"
         d="m 18,276.98331 29.333332,0 c 1.108,0 2,0.892 2,2 l 0,29.33334 c 0,1.108 -0.892,2 -2,2 l -29.333332,0 c -1.108,0 -2,-0.892 -2,-2 l 0,-29.33334 c 0,-1.108 0.892,-2 2,-2 z"
         id="rect5697" /><path
         style="opacity:1;fill:#4b6477;fill-opacity:1;stroke:none;stroke-width:2;stroke-linecap:round;stroke-linejoin:round;stroke-miterlimit:4;stroke-dasharray:none;stroke-opacity:1"
         d="m 18.666666,278.64999 28,0 c 0.554,0 1,0.446 1,1 l 0,28 c 0,0.554 -0.446,1 -1,1 l -28,0 c -0.554,0 -1,-0.446 -1,-1 l 0,-28 c 0,-0.554 0.446,-1 1,-1 z"
         id="rect5699" /><path
         id="rect4165"
         style="opacity:1;fill:#d9e5ea;fill-opacity:1;stroke:none;stroke-width:2;stroke-linecap:round;stroke-linejoin:round;stroke-miterlimit:4;stroke-dasharray:none;stroke-opacity:1"
         d="M 4.0000001 3.2480468 C 3.4460015 3.2480468 3.0000001 3.6940434 3.0000001 4.2480468 C 3.0000001 4.8020442 3.4460015 5.2480468 4.0000001 5.2480468 C 4.5539988 5.2480468 5.0000001 4.8020442 5.0000001 4.2480468 C 5.0000001 3.6940434 4.5539988 3.2480468 4.0000001 3.2480468 z M 18 3.2480468 C 17.446001 3.2480468 17 3.6940434 17 4.2480468 C 17 4.8020442 17.446001 5.2480468 18 5.2480468 C 18.553998 5.2480468 19 4.8020442 19 4.2480468 C 19 3.6940434 18.553998 3.2480468 18 3.2480468 z M 11 3.9999999 C 8.7840023 3.9999999 7.0000001 5.7840022 7.0000001 7.9999998 L 7.0000001 8.9999998 C 6.4460007 8.9999998 6.0000001 9.4460005 6.0000001 9.9999998 L 6.0000001 16 C 6.0000001 16.553999 6.4460007 17 7.0000001 17 L 15 17 C 15.553999 17 16 16.553999 16 16 L 16 9.9999998 C 16 9.4460005 15.553999 8.9999998 15 8.9999998 L 15 7.9999998 C 15 5.7840022 13.215998 3.9999999 11 3.9999999 z M 11 5.9999999 C 12.107999 5.9999999 13 6.892001 13 7.9999998 L 13 8.9999998 L 9 8.9999998 L 9 7.9999998 C 9 6.892001 9.8920012 5.9999999 11 5.9999999 z M 11 9.9999998 C 12.107999 9.9999998 13 10.892001 13 12 C 13 12.741069 12.595798 13.379048 12 13.724609 L 12 16 L 10 16 L 10 13.724609 C 9.4042017 13.379048 9 12.741069 9 12 C 9 10.892001 9.8920011 9.9999998 11 9.9999998 z M 4.0000001 10.248047 C 3.4460015 10.248047 3.0000001 10.694049 3.0000001 11.248047 C 3.0000001 11.80205 3.4460015 12.248047 4.0000001 12.248047 C 4.5539988 12.248047 5.0000001 11.80205 5.0000001 11.248047 C 5.0000001 10.694049 4.5539988 10.248047 4.0000001 10.248047 z M 18 10.248047 C 17.446001 10.248047 17 10.694049 17 11.248047 C 17 11.80205 17.446001 12.248047 18 12.248047 C 18.553998 12.248047 19 11.80205 19 11.248047 C 19 10.694049 18.553998 10.248047 18 10.248047 z M 4.0000001 17.248047 C 3.4460015 17.248047 3.0000001 17.694049 3.0000001 18.248047 C 3.0000001 18.802044 3.4460015 19.248046 4.0000001 19.248046 C 4.5539988 19.248046 5.0000001 18.802044 5.0000001 18.248047 C 5.0000001 17.694049 4.5539988 17.248047 4.0000001 17.248047 z M 18 17.248047 C 17.446001 17.248047 17 17.694049 17 18.248047 C 17 18.802044 17.446001 19.248046 18 19.248046 C 18.553998 19.248046 19 18.802044 19 18.248047 C 19 17.694049 18.553998 17.248047 18 17.248047 z "
         transform="matrix(1.6666667,0,0,1.6666667,14.333333,275.31665)" /></g></g></svg>
