<?xml version="1.0" encoding="UTF-8" standalone="no"?>
<svg
   width="22"
   height="22"
   version="1.1"
   id="svg4"
   sodipodi:docname="media-playback-paused.svg"
   inkscape:version="1.4.2 (ebf0e940d0, 2025-05-08)"
   xml:space="preserve"
   xmlns:inkscape="http://www.inkscape.org/namespaces/inkscape"
   xmlns:sodipodi="http://sodipodi.sourceforge.net/DTD/sodipodi-0.dtd"
   xmlns="http://www.w3.org/2000/svg"
   xmlns:svg="http://www.w3.org/2000/svg"><defs
     id="defs4" /><sodipodi:namedview
     id="namedview4"
     pagecolor="#ffffff"
     bordercolor="#000000"
     borderopacity="0.25"
     inkscape:showpageshadow="2"
     inkscape:pageopacity="0.0"
     inkscape:pagecheckerboard="0"
     inkscape:deskcolor="#d1d1d1"
     inkscape:zoom="26.363636"
     inkscape:cx="20.122414"
     inkscape:cy="18.7"
     inkscape:window-width="2560"
     inkscape:window-height="1367"
     inkscape:window-x="0"
     inkscape:window-y="0"
     inkscape:window-maximized="1"
     inkscape:current-layer="svg4" /><style
     type="text/css"
     id="current-color-scheme">
        .ColorScheme-Text {
            color:#232629;
        }
    </style><g
     id="g4"
     transform="translate(5.0000005,6)"><path
       id="rect15701-6-5"
       style="fill:#36404d;fill-opacity:1;stroke-width:2;stroke-linecap:round;stroke-linejoin:round;stroke-miterlimit:1.8;paint-order:fill markers stroke;stop-color:#000000"
       d="m 6.0000001,-5 c 5.5400009,0 9.9999989,4.46000017 9.9999989,10 0,5.54 -4.459998,10 -9.9999989,10 -5.5399998,0 -10,-4.46 -10,-10 0,-5.53999983 4.4600002,-10 10,-10 z" /><path
       id="rect15701-2-5-2"
       style="fill:#4b6477;stroke-width:1.8;stroke-linecap:round;stroke-linejoin:round;stroke-miterlimit:1.8;paint-order:fill markers stroke;stop-color:#000000;fill-opacity:1"
       d="M 6.0000005,-3.9999997 C 10.986002,-3.9999997 15,0.01399992 15,5 c 0,4.9859997 -4.013998,9 -8.9999995,9 -4.9860001,0 -9.0000001,-4.0140003 -9.0000001,-9 0,-4.98600008 4.014,-8.9999997 9.0000001,-8.9999997 z" /><path
       id="rect10-90"
       style="fill:#d9e5ea;fill-opacity:1;stroke-width:1.93924;stroke-linecap:round;stroke-linejoin:round;paint-order:stroke markers fill"
       d="M 2.0000002,5.4984908e-7 H 3.9999988 C 4.554002,5.4984908e-7 5.0000014,0.44600068 5.0000014,1.0000004 v 8.0000002 c 0,0.5539998 -0.4459994,1.0000004 -1.0000026,1.0000004 H 2.0000002 c -0.5539998,0 -0.9999999,-0.4460006 -0.9999999,-1.0000004 V 1.0000004 C 1.0000003,0.44600068 1.4460004,5.4984908e-7 2.0000002,5.4984908e-7 Z"
       sodipodi:nodetypes="sssssssss" /><path
       id="rect10-90-8"
       style="fill:#d9e5ea;fill-opacity:1;stroke-width:1.93924;stroke-linecap:round;stroke-linejoin:round;paint-order:stroke markers fill"
       d="M 7.9999995,5.4984908e-7 H 9.9999951 C 10.553998,5.4984908e-7 10.999998,0.4460003 10.999998,1.0000004 V 9.0000006 C 10.999998,9.5540004 10.553998,10 9.9999951,10 H 7.9999995 C 7.4460001,10 7.0000007,9.5540004 7.0000007,9.0000006 V 1.0000001 C 7.0000007,0.4460003 7.4460001,1.7189632e-7 7.9999995,5.4984908e-7 Z"
       sodipodi:nodetypes="sssssssss" /></g><style
     type="text/css"
     id="current-color-scheme-5">
        .ColorScheme-Text {
            color:#232629;
        }
    </style><path
     style="fill:#36404d;fill-opacity:1;stroke-width:0.037931"
     d="M 6.6758622,15.913796 C 6.4256082,15.827837 6.1466594,15.549534 6.0766957,15.316016 6.0100531,15.093583 6.0109602,6.9036182 6.0776521,6.6802629 6.1489451,6.4414985 6.4552767,6.1476501 6.711195,6.0725373 c 0.2903976,-0.085233 2.2835217,-0.088669 2.5671981,-0.00443 0.2279867,0.067705 0.4802828,0.2750492 0.594467,0.4885508 l 0.084037,0.1571314 V 11 15.286207 l -0.084037,0.157131 C 9.82664,15.529761 9.7164374,15.66243 9.6279653,15.738158 9.3584897,15.96882 9.23126,15.98809 7.9870811,15.986693 c -0.9800917,-0.0011 -1.1257775,-0.0092 -1.3112189,-0.0729 z"
     id="path1" /><path
     style="fill:#36404d;fill-opacity:1;stroke-width:0.037931"
     d="M 12.705735,15.929671 C 12.491871,15.863741 12.237739,15.650135 12.12714,15.443338 L 12.0431,15.286207 V 11 6.7137932 l 0.08404,-0.1571314 c 0.114184,-0.2135016 0.366481,-0.420846 0.594467,-0.4885508 0.28026,-0.083228 2.277499,-0.080891 2.559976,0.003 0.249658,0.07414 0.481649,0.2792756 0.598137,0.5288938 L 15.96822,6.78966 V 11 15.210345 L 15.87972,15.4 c -0.116488,0.249618 -0.348479,0.454753 -0.598137,0.528894 -0.273372,0.08118 -2.31302,0.0818 -2.575848,7.77e-4 z"
     id="path2" /><path
     style="fill:#e1ebf2;fill-opacity:1;stroke-width:0.037931"
     d="M 9.8810346,19.912623 C 8.2929919,19.705236 6.8370463,19.112182 5.560563,18.152756 3.9543178,16.945475 2.7295373,15.063233 2.2637451,13.086207 2.0844848,12.325348 2.0331155,11.860677 2.0331155,11 c 0,-0.85469 0.051442,-1.3258337 0.2257121,-2.0672413 C 2.5508121,7.6905522 3.1824954,6.3869752 3.9762246,5.3886417 5.430127,3.5599585 7.682894,2.3230573 10.021781,2.0692763 c 0.473199,-0.051344 1.483483,-0.051327 1.956438,3.3e-5 2.066063,0.224363 4.047044,1.1970637 5.490082,2.695739 0.671934,0.6978412 1.126068,1.3475968 1.574127,2.2521932 0.44643,0.9013081 0.702174,1.7207175 0.858294,2.75 0.09123,0.6014895 0.09123,1.8640275 0,2.4655175 -0.239393,1.578292 -0.798836,2.930255 -1.72516,4.169067 -1.4541,1.944628 -3.642613,3.209336 -6.074429,3.51032 -0.5701,0.07056 -1.68161,0.0708 -2.2200984,4.77e-4 z M 9.4772796,15.894379 C 9.5890078,15.832494 9.7293503,15.722502 9.7891524,15.649952 10.024211,15.364785 10.013793,15.580427 10.013793,11 c 0,-4.5804265 0.01042,-4.3647844 -0.2246406,-4.6499514 C 9.7293503,6.2774983 9.5890078,6.1675063 9.4772796,6.1056214 L 9.2741381,5.9931035 8.0879439,5.9811761 C 6.7480062,5.967703 6.6197671,5.9852966 6.3452591,6.2202657 6.2584269,6.2945908 6.1434523,6.4451918 6.0897602,6.5549346 l -0.097622,0.1995324 0.00997,4.287821 0.00997,4.28782 0.1137932,0.182977 c 0.062586,0.100638 0.1771785,0.234059 0.2546492,0.296493 0.2455151,0.197859 0.3823995,0.214414 1.6987991,0.205453 l 1.1948276,-0.0081 z m 5.9684674,0.0246 c 0.205308,-0.101123 0.388667,-0.294616 0.489445,-0.516495 0.06675,-0.146972 0.07006,-0.353451 0.0705,-4.40248 l 4.63e-4,-4.2482758 -0.08845,-0.1899313 C 15.869064,6.4573308 15.763791,6.3143764 15.683769,6.2441171 15.397103,5.99242 15.401696,5.9931035 13.996552,5.9931035 h -1.27069 l -0.203141,0.1125179 c -0.111728,0.061885 -0.252071,0.1718769 -0.311873,0.2444272 -0.235064,0.2851735 -0.224641,0.069328 -0.224641,4.6519394 0,4.54987 -0.0094,4.343126 0.21065,4.631631 0.10611,0.139117 0.376587,0.311399 0.560563,0.357055 0.06609,0.0164 0.657839,0.02676 1.314994,0.02302 1.165938,-0.0066 1.199144,-0.0089 1.373333,-0.09472 z"
     id="path3" /></svg>
