<?xml version="1.0" encoding="UTF-8" standalone="no"?>
<svg
   width="22"
   height="22"
   version="1.1"
   id="svg3"
   sodipodi:docname="media-playback-stopped.svg"
   inkscape:version="1.3.2 (091e20ef0f, 2023-11-25, custom)"
   xmlns:inkscape="http://www.inkscape.org/namespaces/inkscape"
   xmlns:sodipodi="http://sodipodi.sourceforge.net/DTD/sodipodi-0.dtd"
   xmlns="http://www.w3.org/2000/svg"
   xmlns:svg="http://www.w3.org/2000/svg">
  <defs
     id="defs3" />
  <sodipodi:namedview
     id="namedview3"
     pagecolor="#ffffff"
     bordercolor="#000000"
     borderopacity="0.25"
     inkscape:showpageshadow="2"
     inkscape:pageopacity="0.0"
     inkscape:pagecheckerboard="0"
     inkscape:deskcolor="#d1d1d1"
     inkscape:zoom="26.363636"
     inkscape:cx="20.615518"
     inkscape:cy="19.382759"
     inkscape:window-width="2560"
     inkscape:window-height="1364"
     inkscape:window-x="0"
     inkscape:window-y="0"
     inkscape:window-maximized="1"
     inkscape:current-layer="svg3" />
  <style
     type="text/css"
     id="current-color-scheme">
        .ColorScheme-Text {
            color:#232629;
        }
    </style>
  <g
     id="g3"
     transform="translate(0,-2.9999995)">
    <path
       id="rect15701"
       style="fill:#36404d;fill-opacity:1;stroke-width:2;stroke-linecap:round;stroke-linejoin:round;stroke-miterlimit:1.8;paint-order:fill markers stroke;stop-color:#000000"
       d="m 11,4 c 5.54,0 9.999999,4.46 9.999999,10 C 20.999999,19.54 16.54,23.999999 11,23.999999 5.46,23.999999 1,19.54 1,14 1,8.46 5.46,4 11,4 Z" />
    <path
       id="rect15701-2"
       style="fill:#4b6477;stroke-width:1.8;stroke-linecap:round;stroke-linejoin:round;stroke-miterlimit:1.8;paint-order:fill markers stroke;stop-color:#000000;fill-opacity:1"
       d="m 11,5.0000001 c 4.986,0 9,4.0139997 9,8.9999999 0,4.986 -4.014,9 -9,9 C 6.0140002,23 2.0000003,18.986 2.0000003,14 2.0000003,9.0139998 6.0140002,5.0000001 11,5.0000001 Z" />
    <path
       id="rect10"
       style="fill:#d9e5ea;stroke-width:1.93924;stroke-linecap:round;stroke-linejoin:round;paint-order:stroke markers fill;fill-opacity:1"
       d="M 6.9999995,9 H 15 c 0.554,0 1,0.446 1,0.9999999 V 18 c 0,0.554 -0.446,1 -1,1 H 6.9999995 c -0.554,0 -1,-0.446 -1,-1 V 9.9999999 C 5.9999995,9.446 6.4459995,9 6.9999995,9 Z" />
  </g>
</svg>
