<?xml version="1.0" encoding="UTF-8" standalone="no"?>
<svg
   width="22"
   height="22"
   version="1.1"
   id="svg3"
   sodipodi:docname="media-playback-playing.svg"
   inkscape:version="1.4.2 (ebf0e940d0, 2025-05-08)"
   xml:space="preserve"
   xmlns:inkscape="http://www.inkscape.org/namespaces/inkscape"
   xmlns:sodipodi="http://sodipodi.sourceforge.net/DTD/sodipodi-0.dtd"
   xmlns="http://www.w3.org/2000/svg"
   xmlns:svg="http://www.w3.org/2000/svg"><defs
     id="defs3" /><sodipodi:namedview
     id="namedview3"
     pagecolor="#ffffff"
     bordercolor="#000000"
     borderopacity="0.25"
     inkscape:showpageshadow="2"
     inkscape:pageopacity="0.0"
     inkscape:pagecheckerboard="0"
     inkscape:deskcolor="#d1d1d1"
     inkscape:zoom="52.727273"
     inkscape:cx="10.990517"
     inkscape:cy="11.018965"
     inkscape:window-width="2560"
     inkscape:window-height="1367"
     inkscape:window-x="0"
     inkscape:window-y="0"
     inkscape:window-maximized="1"
     inkscape:current-layer="svg3" /><style
     type="text/css"
     id="current-color-scheme">
        .ColorScheme-Text {
            color:#232629;
        }
    </style><g
     id="g3"
     transform="translate(4.0000007,-2)"><path
       id="rect15701-6"
       style="fill:#36404d;fill-opacity:1;stroke-width:2;stroke-linecap:round;stroke-linejoin:round;stroke-miterlimit:1.8;paint-order:fill markers stroke;stop-color:#000000"
       d="m 6.9999996,3 c 5.5399994,0 9.9999994,4.4600002 9.9999994,10 0,5.54 -4.46,10 -9.9999994,10 -5.5399998,0 -9.9999999,-4.46 -9.9999999,-10 0,-5.5399998 4.4600001,-10 9.9999999,-10 z" /><path
       id="rect15701-2-5"
       style="fill:#4b6477;stroke-width:1.8;stroke-linecap:round;stroke-linejoin:round;stroke-miterlimit:1.8;paint-order:fill markers stroke;stop-color:#000000;fill-opacity:1"
       d="m 7,4.0000002 c 4.986,0 9,4.0139998 9,8.9999998 0,4.986 -4.014,9 -9,9 C 2.014,22 -2.0000001,17.986 -2.0000001,13 -2.0000001,8.014 2.014,4.0000002 7,4.0000002 Z" /><path
       style="fill:#d9e5ea;fill-opacity:1;stroke:#d9e5ea;stroke-width:2;stroke-linecap:round;stroke-linejoin:round;stroke-dasharray:none;stroke-opacity:1;paint-order:stroke markers fill"
       d="M 3.9999996,9.0000001 V 17 L 10.98561,13 Z"
       id="path12"
       sodipodi:nodetypes="cccc" /></g><style
     type="text/css"
     id="current-color-scheme-5">
        .ColorScheme-Text {
            color:#232629;
        }
    </style><path
     style="fill:#36404d;fill-opacity:1;stroke-width:0.0189655"
     d="M 7.8392292,15.977582 C 7.4621851,15.910953 7.1578526,15.63476 7.0474985,15.259058 7.0202047,15.166135 7.0172413,14.749004 7.0172413,11 c 0,-4.595154 -0.00986,-4.2285115 0.1203434,-4.4756157 C 7.2063826,6.393816 7.3679385,6.2237286 7.4924911,6.1507359 7.7221621,6.0161397 8.0172066,5.9780755 8.2689655,6.0505615 c 0.091682,0.026397 0.7721727,0.4068775 2.6551725,1.4845777 1.392543,0.7969964 3.005055,1.7191425 3.583359,2.0492139 0.908783,0.5186939 1.067057,0.6155709 1.16638,0.7139259 0.194652,0.192754 0.295088,0.431592 0.295088,0.701721 0,0.270129 -0.100436,0.508967 -0.295088,0.701721 -0.09933,0.09836 -0.257564,0.19521 -1.16638,0.713903 -0.578304,0.330058 -2.190816,1.252199 -3.583359,2.049203 -1.8322483,1.048662 -2.5633415,1.457754 -2.6456898,1.480427 -0.1499525,0.04129 -0.3183721,0.05368 -0.439219,0.03233 z"
     id="path1" /><path
     style="fill:#e1ebf2;fill-opacity:1;stroke-width:0.0189655"
     d="M 10.563793,19.97963 C 8.9547504,19.902822 7.4064718,19.402244 6.0742536,18.528104 3.524933,16.855359 2.0104991,14.04987 2.0104991,11 c 0,-3.0495329 1.5166669,-5.8590594 4.0637545,-7.5278397 1.2518533,-0.8201791 2.6799376,-1.3084778 4.1955744,-1.4345746 0.342229,-0.028473 1.119968,-0.028372 1.460344,1.893e-4 1.989903,0.1669731 3.799743,0.9447769 5.287193,2.272244 1.109265,0.9899589 1.988146,2.3135229 2.478119,3.7319632 0.939055,2.7185018 0.523568,5.7531368 -1.108485,8.0961618 -1.772841,2.545145 -4.715002,3.989855 -7.823206,3.841486 z M 8.325862,15.95222 c 0.1311919,-0.04427 7.128013,-4.039868 7.282585,-4.158789 0.2465,-0.189645 0.379484,-0.46769 0.379484,-0.793431 0,-0.325764 -0.133086,-0.603998 -0.379484,-0.793361 -0.04684,-0.036 -1.058102,-0.6223 -2.24724,-1.3028867 C 12.172069,8.2231656 10.580388,7.3114625 9.8241379,6.8777456 8.9602603,6.3823033 8.3997881,6.0722207 8.3163793,6.0435746 7.9798041,5.9279806 7.562172,6.0197278 7.3115308,6.2643238 7.1981415,6.3749783 7.0872012,6.5429576 7.0420746,6.6723181 7.0093602,6.7660983 7.0077586,6.9680863 7.0077586,11 c 0,4.031914 0.0016,4.233902 0.034316,4.327682 0.075163,0.215465 0.2738147,0.450984 0.466682,0.553294 0.1041503,0.05525 0.2594851,0.106642 0.3714158,0.122883 0.1054041,0.0153 0.3215391,-0.0097 0.4456896,-0.05164 z"
     id="path2" /></svg>
