<?xml version="1.0" encoding="UTF-8" standalone="no"?>
<svg
   width="22"
   height="22"
   version="1.1"
   id="svg3"
   sodipodi:docname="media-playback-stopped.svg"
   inkscape:version="1.4.2 (ebf0e940d0, 2025-05-08)"
   xmlns:inkscape="http://www.inkscape.org/namespaces/inkscape"
   xmlns:sodipodi="http://sodipodi.sourceforge.net/DTD/sodipodi-0.dtd"
   xmlns="http://www.w3.org/2000/svg"
   xmlns:svg="http://www.w3.org/2000/svg">
  <defs
     id="defs3" />
  <sodipodi:namedview
     id="namedview3"
     pagecolor="#ffffff"
     bordercolor="#000000"
     borderopacity="0.25"
     inkscape:showpageshadow="2"
     inkscape:pageopacity="0.0"
     inkscape:pagecheckerboard="0"
     inkscape:deskcolor="#d1d1d1"
     inkscape:zoom="26.363636"
     inkscape:cx="20.615518"
     inkscape:cy="19.382759"
     inkscape:window-width="2560"
     inkscape:window-height="1367"
     inkscape:window-x="0"
     inkscape:window-y="0"
     inkscape:window-maximized="1"
     inkscape:current-layer="svg3" />
  <style
     type="text/css"
     id="current-color-scheme">
        .ColorScheme-Text {
            color:#232629;
        }
    </style>
  <g
     id="g3"
     transform="translate(0,-2.9999995)">
    <path
       id="rect15701"
       style="fill:#36404d;fill-opacity:1;stroke-width:2;stroke-linecap:round;stroke-linejoin:round;stroke-miterlimit:1.8;paint-order:fill markers stroke;stop-color:#000000"
       d="m 11,4 c 5.54,0 9.999999,4.46 9.999999,10 C 20.999999,19.54 16.54,23.999999 11,23.999999 5.46,23.999999 1,19.54 1,14 1,8.46 5.46,4 11,4 Z" />
    <path
       id="rect15701-2"
       style="fill:#4b6477;stroke-width:1.8;stroke-linecap:round;stroke-linejoin:round;stroke-miterlimit:1.8;paint-order:fill markers stroke;stop-color:#000000;fill-opacity:1"
       d="m 11,5.0000001 c 4.986,0 9,4.0139997 9,8.9999999 0,4.986 -4.014,9 -9,9 C 6.0140002,23 2.0000003,18.986 2.0000003,14 2.0000003,9.0139998 6.0140002,5.0000001 11,5.0000001 Z" />
    <path
       id="rect10"
       style="fill:#d9e5ea;stroke-width:1.93924;stroke-linecap:round;stroke-linejoin:round;paint-order:stroke markers fill;fill-opacity:1"
       d="M 6.9999995,9 H 15 c 0.554,0 1,0.446 1,0.9999999 V 18 c 0,0.554 -0.446,1 -1,1 H 6.9999995 c -0.554,0 -1,-0.446 -1,-1 V 9.9999999 C 5.9999995,9.446 6.4459995,9 6.9999995,9 Z" />
  </g>
  <path
     style="fill:#36404d;fill-opacity:1;stroke-width:0.037931"
     d="M 6.6758622,15.913796 C 6.4256082,15.827837 6.1466594,15.549534 6.0766957,15.316016 6.0100531,15.093583 6.0109602,6.9036182 6.0776521,6.6802629 6.1061455,6.584837 6.1983142,6.4481049 6.3147211,6.3285718 6.6433462,5.991121 6.3332466,6.012069 11,6.012069 c 4.550842,0 4.336136,-0.011957 4.635799,0.2581752 0.08548,0.077055 0.195243,0.2254455 0.243921,0.3297559 l 0.0885,0.1896552 V 11 15.210345 L 15.87972,15.4 c -0.04868,0.104311 -0.158442,0.252701 -0.243921,0.329756 -0.299861,0.270311 -0.08269,0.258317 -4.652166,0.256937 -3.9182902,-0.0012 -4.1083548,-0.0044 -4.3077708,-0.0729 z"
     id="path1" />
  <path
     style="fill:#e1ebf2;fill-opacity:1;stroke-width:0.037931"
     d="M 9.8810346,19.912623 C 8.2929919,19.705236 6.8370463,19.112182 5.560563,18.152756 3.9543178,16.945475 2.7295373,15.063233 2.2637451,13.086207 2.0844848,12.325348 2.0331155,11.860677 2.0331155,11 c 0,-0.85469 0.051442,-1.3258337 0.2257121,-2.0672413 C 2.5508121,7.6905522 3.1824954,6.3869752 3.9762246,5.3886417 5.430127,3.5599585 7.682894,2.3230573 10.021781,2.0692763 c 0.473199,-0.051344 1.483483,-0.051327 1.956438,3.3e-5 2.066063,0.224363 4.047044,1.1970637 5.490082,2.695739 0.671934,0.6978412 1.126068,1.3475968 1.574127,2.2521932 0.44643,0.9013081 0.702174,1.7207175 0.858294,2.75 0.09123,0.6014895 0.09123,1.8640275 0,2.4655175 -0.239393,1.578292 -0.798836,2.930255 -1.72516,4.169067 -1.4541,1.944628 -3.642613,3.209336 -6.074429,3.51032 -0.5701,0.07056 -1.68161,0.0708 -2.2200984,4.77e-4 z m 5.5647124,-3.993648 c 0.205308,-0.101123 0.388667,-0.294616 0.489445,-0.516495 0.06675,-0.146972 0.07006,-0.353451 0.0705,-4.40248 l 4.63e-4,-4.2482758 -0.08845,-0.1899313 C 15.821097,6.3543268 15.614768,6.151161 15.402759,6.0547377 15.28074,5.9992427 14.85005,5.9920783 11.078873,5.9828106 6.4333315,5.9713941 6.6486265,5.9605944 6.3452591,6.2202657 6.2584269,6.2945908 6.1434523,6.4451918 6.0897602,6.5549346 l -0.097622,0.1995324 0.00997,4.287821 0.00997,4.28782 0.1137932,0.182977 c 0.146985,0.23635 0.3495291,0.39754 0.577063,0.459244 0.1444873,0.03918 1.0373497,0.04774 4.3729366,0.0419 l 4.19138,-0.0073 z"
     id="path2" />
</svg>
