<?xml version="1.0" encoding="UTF-8" standalone="no"?>
<svg
   width="22"
   height="22"
   version="1.1"
   id="svg1"
   sodipodi:docname="microphone-sensitivity-medium.svg"
   inkscape:version="1.4.3 (0d15f75042, 2025-12-25)"
   xmlns:inkscape="http://www.inkscape.org/namespaces/inkscape"
   xmlns:sodipodi="http://sodipodi.sourceforge.net/DTD/sodipodi-0.dtd"
   xmlns="http://www.w3.org/2000/svg"
   xmlns:svg="http://www.w3.org/2000/svg">
  <sodipodi:namedview
     id="namedview1"
     pagecolor="#ffffff"
     bordercolor="#000000"
     borderopacity="0.25"
     inkscape:showpageshadow="2"
     inkscape:pageopacity="0.0"
     inkscape:pagecheckerboard="0"
     inkscape:deskcolor="#d1d1d1"
     showgrid="true"
     inkscape:zoom="36.681818"
     inkscape:cx="10.986369"
     inkscape:cy="11"
     inkscape:window-width="1920"
     inkscape:window-height="1006"
     inkscape:window-x="0"
     inkscape:window-y="0"
     inkscape:window-maximized="1"
     inkscape:current-layer="svg1">
    <inkscape:grid
       id="grid1"
       units="px"
       originx="0"
       originy="0"
       spacingx="1"
       spacingy="1"
       empcolor="#0099e5"
       empopacity="0.30196078"
       color="#0099e5"
       opacity="0.14902"
       empspacing="5"
       enabled="true"
       visible="true" />
  </sodipodi:namedview>
  <defs
     id="defs1">
    <style
       id="current-color-scheme"
       type="text/css">
   .ColorScheme-Text { color:#dfdfdf; } .ColorScheme-Highlight { color:#4285f4; } .ColorScheme-NeutralText { color:#ff9800; } .ColorScheme-PositiveText { color:#4caf50; } .ColorScheme-NegativeText { color:#f44336; }
  </style>
  </defs>
  <path
     style="fill:currentColor;stroke-width:0.2;stroke:#8c8c8c;stroke-opacity:1;stroke-dasharray:none;stroke-linejoin:round;stroke-linecap:round"
     class="ColorScheme-Text"
     d="M 11.01363,3 C 9.0858777,3 7.5297398,4.34 7.5297398,6 v 5 c 0,1.66 1.5561379,3 3.4838902,3 1.927753,0 3.483891,-1.34 3.483891,-3 V 6 c 0,-1.66 -1.556138,-3 -3.483891,-3 z m 0,2 c 0.638714,0 1.161298,0.45 1.161298,1 v 5 c 0,0.55 -0.522584,1 -1.161298,1 -0.638713,0 -1.1612963,-0.45 -1.1612963,-1 V 6 c 0,-0.55 0.5225833,-1 1.1612963,-1 z m -6.9677812,5 v 1 c 0,2.97 2.5084015,5.43 5.8064849,5.91 V 19 h 2.3225943 v -2.09 c 3.298083,-0.48 5.806485,-2.94 5.806485,-5.91 v -1 h -2.322594 v 1 c 0,2.23 -2.055495,4 -4.645189,4 -2.5896916,0 -4.6451872,-1.77 -4.6451872,-4 v -1 z"
     id="path1" />
</svg>
