<?xml version="1.0" encoding="UTF-8" standalone="no"?>
<!-- Created with Inkscape (http://www.inkscape.org/) -->

<svg
   width="22"
   height="22"
   viewBox="0 0 22 22"
   version="1.1"
   id="svg5"
   inkscape:version="1.4 (e7c3feb100, 2024-10-09)"
   sodipodi:docname="network-bluetooth.svg"
   xml:space="preserve"
   xmlns:inkscape="http://www.inkscape.org/namespaces/inkscape"
   xmlns:sodipodi="http://sodipodi.sourceforge.net/DTD/sodipodi-0.dtd"
   xmlns="http://www.w3.org/2000/svg"
   xmlns:svg="http://www.w3.org/2000/svg"><sodipodi:namedview
     id="namedview7"
     pagecolor="#ffffff"
     bordercolor="#000000"
     borderopacity="0.25"
     inkscape:showpageshadow="false"
     inkscape:pageopacity="0.0"
     inkscape:pagecheckerboard="0"
     inkscape:deskcolor="#d1d1d1"
     inkscape:document-units="px"
     showgrid="true"
     inkscape:zoom="38.057742"
     inkscape:cx="7.1601726"
     inkscape:cy="7.3178277"
     inkscape:window-width="1657"
     inkscape:window-height="1080"
     inkscape:window-x="0"
     inkscape:window-y="0"
     inkscape:window-maximized="0"
     inkscape:current-layer="layer1"><inkscape:grid
       type="xygrid"
       id="grid3636"
       originx="0"
       originy="0"
       spacingy="1"
       spacingx="1"
       units="px"
       visible="true" /></sodipodi:namedview><defs
     id="defs2"><style
       type="text/css"
       id="current-color-scheme">
      .ColorScheme-Text {
        color:#36404d;
      }
      </style><style
       type="text/css"
       id="current-color-scheme-67">
      .ColorScheme-Text {
        color:#122036;
      }
      </style><style
       type="text/css"
       id="current-color-scheme-7">
      .ColorScheme-Text {
        color:#122036;
      }
      </style><style
       type="text/css"
       id="current-color-scheme-5">
      .ColorScheme-Text {
        color:#122036;
      }
      </style><style
       type="text/css"
       id="current-color-scheme-6">
      .ColorScheme-Text {
        color:#122036;
      }
      </style><style
       type="text/css"
       id="current-color-scheme-1">
      .ColorScheme-Text {
        color:#122036;
      }
      </style><style
       id="current-color-scheme-10"
       type="text/css">
      .ColorScheme-Text {
        color:#122036;
      }
      </style><style
       id="current-color-scheme-5-7"
       type="text/css">
      .ColorScheme-Text {
        color:#122036;
      }
      </style><style
       id="current-color-scheme-1-2"
       type="text/css">
      .ColorScheme-Text {
        color:#122036;
      }
      </style><style
       type="text/css"
       id="current-color-scheme-10-9">
      .ColorScheme-Text {
        color:#122036;
      }
      </style><style
       type="text/css"
       id="current-color-scheme-3">
      .ColorScheme-Text {
        color:#36404d;
      }
      </style><style
       type="text/css"
       id="current-color-scheme-67-5">
      .ColorScheme-Text {
        color:#122036;
      }
      </style><style
       type="text/css"
       id="current-color-scheme-7-6">
      .ColorScheme-Text {
        color:#122036;
      }
      </style><style
       type="text/css"
       id="current-color-scheme-5-2">
      .ColorScheme-Text {
        color:#122036;
      }
      </style><style
       type="text/css"
       id="current-color-scheme-6-9">
      .ColorScheme-Text {
        color:#122036;
      }
      </style><style
       type="text/css"
       id="current-color-scheme-1-1">
      .ColorScheme-Text {
        color:#122036;
      }
      </style><style
       id="current-color-scheme-10-2"
       type="text/css">
      .ColorScheme-Text {
        color:#122036;
      }
      </style><style
       id="current-color-scheme-5-7-7"
       type="text/css">
      .ColorScheme-Text {
        color:#122036;
      }
      </style><style
       id="current-color-scheme-1-2-0"
       type="text/css">
      .ColorScheme-Text {
        color:#122036;
      }
      </style><style
       type="text/css"
       id="current-color-scheme-10-9-9">
      .ColorScheme-Text {
        color:#122036;
      }
      </style></defs><g
     inkscape:label="Capa 1"
     inkscape:groupmode="layer"
     id="layer1"><g
       id="path3904-7-5"
       inkscape:label="path3904-7-5" /><g
       id="g2"
       transform="matrix(4.5198411,0,0,4.5017846,-3.4712414,-3.2666)" /><path
       style="fill:#44acff;stroke-width:0.0286445"
       d="M 9.1668048,20.498165 C 8.7814355,20.404283 8.457437,20.171473 8.2714122,19.854779 l -0.1161138,-0.197675 -0.0084,-2.569845 c -0.00489,-1.497806 -0.020115,-2.569845 -0.036476,-2.569845 -0.015439,0 -0.7845136,0.493115 -1.7090559,1.09581 -0.9245424,0.602696 -1.7576945,1.134908 -1.8514491,1.182694 -0.2173761,0.110796 -0.3348526,0.140132 -0.6309373,0.157558 -0.5592506,0.03291 -1.0659553,-0.22286 -1.3300158,-0.671362 -0.098639,-0.167537 -0.115276,-0.223339 -0.1267408,-0.42512 -0.010482,-0.184384 3.933e-4,-0.269918 0.052724,-0.41489 0.1305777,-0.361742 0.079667,-0.323946 2.9798044,-2.212207 L 8.1380988,11.508828 8.1373109,11.022724 8.1365234,10.536621 5.9951144,9.1440002 C 2.8442584,7.0949067 2.85822,7.1042362 2.7298073,6.9620318 2.5299546,6.7407147 2.4739739,6.5863266 2.4729513,6.2536553 2.4721162,5.9819335 2.4780765,5.9539381 2.5724583,5.7862708 2.69083,5.5759856 2.9538172,5.3325744 3.1692328,5.2339188 3.623877,5.0257012 4.1903503,5.0432044 4.6055197,5.2782978 c 0.085402,0.04836 0.9012901,0.5743344 1.8130839,1.1688321 0.911794,0.5944974 1.6717747,1.0809046 1.6888459,1.0809046 0.020298,0 0.033947,-0.8887744 0.039445,-2.5684655 l 0.00841,-2.5684656 0.1003947,-0.1783502 c 0.1183712,-0.210285 0.3813583,-0.453696 0.5967739,-0.5523518 0.4438313,-0.2032655 0.9977734,-0.191722 1.4119709,0.029424 0.237573,0.1268425 7.248802,4.8336996 7.39935,4.9674132 0.478876,0.4253306 0.496909,1.104405 0.04121,1.5523714 -0.05725,0.056282 -1.030807,0.7066276 -2.163456,1.4452119 -1.132648,0.7385841 -2.065288,1.3514661 -2.072536,1.3619601 -0.0072,0.01049 0.921295,0.627815 2.063425,1.371823 1.142133,0.744008 2.122867,1.400252 2.179413,1.458318 0.455814,0.46807 0.43094,1.1208 -0.05909,1.550519 -0.154403,0.135402 -7.094089,4.798668 -7.366259,4.949911 -0.07299,0.04056 -0.195947,0.09484 -0.273233,0.120621 -0.1828065,0.06098 -0.6514801,0.07769 -0.8464753,0.03019 z m 3.5153822,-4.752836 c 0.92101,-0.618077 1.666502,-1.134753 1.656649,-1.148168 -0.0099,-0.01342 -0.13348,-0.09953 -0.274722,-0.191355 -0.141243,-0.09183 -0.85118,-0.554733 -1.577636,-1.028677 l -1.320832,-0.861715 -0.10757,0.06164 -0.10757,0.06164 -2.13e-4,2.123965 c -1.29e-4,1.284124 0.01117,2.120503 0.02855,2.115207 0.01583,-0.0048 0.782326,-0.514457 1.703337,-1.132533 z m 0.06691,-7.2450874 C 13.601698,7.9438502 14.315046,7.4794913 14.334328,7.468333 14.357085,7.45516 14.320102,7.412614 14.228868,7.3470207 13.994632,7.1786211 10.983593,5.163207 10.966238,5.163207 c -0.0089,0 -0.01617,0.9524102 -0.01617,2.1164674 v 2.1164671 l 0.08587,0.063994 c 0.04723,0.035197 0.103222,0.061234 0.124436,0.05786 0.02121,-0.00337 0.736134,-0.4613632 1.588724,-1.0177545 z"
       id="path1" /></g></svg>
