<?xml version="1.0" encoding="UTF-8" standalone="no"?>
<svg
   height="22"
   viewBox="0 0 22 22"
   width="22"
   id="svg2"
   version="1.1"
   inkscape:version="1.3.2 (091e20ef0f, 2023-11-25, custom)"
   sodipodi:docname="network-mobile-40-5g.svg"
   xml:space="preserve"
   xmlns:inkscape="http://www.inkscape.org/namespaces/inkscape"
   xmlns:sodipodi="http://sodipodi.sourceforge.net/DTD/sodipodi-0.dtd"
   xmlns="http://www.w3.org/2000/svg"
   xmlns:svg="http://www.w3.org/2000/svg"
   xmlns:rdf="http://www.w3.org/1999/02/22-rdf-syntax-ns#"
   xmlns:cc="http://creativecommons.org/ns#"
   xmlns:dc="http://purl.org/dc/elements/1.1/"><metadata
     id="metadata10"><rdf:RDF><cc:Work
         rdf:about=""><dc:format>image/svg+xml</dc:format><dc:type
           rdf:resource="http://purl.org/dc/dcmitype/StillImage" /></cc:Work></rdf:RDF></metadata><sodipodi:namedview
     pagecolor="#ffffff"
     bordercolor="#666666"
     borderopacity="1"
     objecttolerance="10"
     gridtolerance="10"
     guidetolerance="10"
     inkscape:pageopacity="0"
     inkscape:pageshadow="2"
     inkscape:window-width="2560"
     inkscape:window-height="1364"
     id="namedview8"
     showgrid="true"
     inkscape:zoom="32"
     inkscape:cx="12.421875"
     inkscape:cy="11.5625"
     inkscape:window-x="0"
     inkscape:window-y="0"
     inkscape:window-maximized="1"
     inkscape:current-layer="svg2"
     inkscape:snap-bbox="true"
     inkscape:bbox-paths="true"
     inkscape:bbox-nodes="true"
     inkscape:snap-bbox-edge-midpoints="true"
     inkscape:snap-bbox-midpoints="true"
     inkscape:object-paths="true"
     inkscape:snap-intersection-paths="true"
     inkscape:snap-smooth-nodes="true"
     inkscape:showpageshadow="2"
     inkscape:pagecheckerboard="0"
     inkscape:deskcolor="#d1d1d1"><inkscape:grid
       type="xygrid"
       id="grid816"
       originx="0"
       originy="0"
       spacingy="1"
       spacingx="1"
       units="px"
       visible="true" /></sodipodi:namedview><defs
     id="defs2"><style
       type="text/css"
       id="current-color-scheme">
      .ColorScheme-Text {
        color:#122036;
      }
      </style><style
       id="current-color-scheme-67"
       type="text/css">
      .ColorScheme-Text {
        color:#122036;
      }
      </style><style
       type="text/css"
       id="current-color-scheme-1">
      .ColorScheme-Text {
        color:#122036;
      }
      </style><style
       type="text/css"
       id="current-color-scheme-5">
      .ColorScheme-Text {
        color:#122036;
      }
      </style><style
       id="current-color-scheme-1-3"
       type="text/css">
      .ColorScheme-Text {
        color:#122036;
      }
      </style><style
       type="text/css"
       id="current-color-scheme-6">
      .ColorScheme-Text {
        color:#122036;
      }
      </style><style
       id="current-color-scheme-5-06"
       type="text/css">
      .ColorScheme-Text {
        color:#122036;
      }
      </style><style
       id="current-color-scheme-2"
       type="text/css">
      .ColorScheme-Text {
        color:#122036;
      }
      </style><style
       id="current-color-scheme-1-2"
       type="text/css">
      .ColorScheme-Text {
        color:#122036;
      }
      </style><style
       type="text/css"
       id="current-color-scheme-10">
      .ColorScheme-Text {
        color:#122036;
      }
      </style><style
       id="current-color-scheme-0"
       type="text/css">
      .ColorScheme-Text {
        color:#122036;
      }
      </style><style
       id="current-color-scheme-53"
       type="text/css">
      .ColorScheme-Text {
        color:#122036;
      }
      </style><style
       type="text/css"
       id="current-color-scheme-1-5">
      .ColorScheme-Text {
        color:#122036;
      }
      </style><style
       type="text/css"
       id="current-color-scheme-912">
      .ColorScheme-Text {
        color:#36404d;
      }
      </style><style
       type="text/css"
       id="current-color-scheme-0-7">
      .ColorScheme-Text {
        color:#122036;
      }
      </style><style
       id="current-color-scheme-1-0"
       type="text/css">
      .ColorScheme-Text {
        color:#122036;
      }
      </style><style
       id="current-color-scheme-3"
       type="text/css">
      .ColorScheme-Text {
        color:#122036;
      }
      </style><style
       type="text/css"
       id="current-color-scheme-1-7">
      .ColorScheme-Text {
        color:#122036;
      }
      </style><style
       type="text/css"
       id="current-color-scheme-06">
      .ColorScheme-Text {
        color:#122036;
      }
      </style><style
       id="current-color-scheme-1-1"
       type="text/css">
      .ColorScheme-Text {
        color:#122036;
      }
      </style><style
       id="current-color-scheme-5-9"
       type="text/css">
      .ColorScheme-Text {
        color:#36404d;
      }
      </style><style
       type="text/css"
       id="current-color-scheme-3-6">
      .ColorScheme-Text {
        color:#36404d;
      }
      </style><style
       id="current-color-scheme-9"
       type="text/css">
      .ColorScheme-Text {
        color:#36404d;
      }
      </style><style
       type="text/css"
       id="current-color-scheme-4">
      .ColorScheme-Text {
        color:#122036;
      }
      </style><style
       id="current-color-scheme-7"
       type="text/css">
      .ColorScheme-Text {
        color:#36404d;
      }
      </style><style
       type="text/css"
       id="current-color-scheme-91">
      .ColorScheme-Text {
        color:#122036;
      }
      </style><style
       type="text/css"
       id="current-color-scheme-7-27">
      .ColorScheme-Text {
        color:#122036;
      }
      </style><style
       type="text/css"
       id="current-color-scheme-5-09">
      .ColorScheme-Text {
        color:#122036;
      }
      </style><style
       type="text/css"
       id="current-color-scheme-0-3">
      .ColorScheme-Text {
        color:#122036;
      }
      </style><style
       type="text/css"
       id="current-color-scheme-7-9">
      .ColorScheme-Text {
        color:#122036;
      }
      </style><style
       type="text/css"
       id="current-color-scheme-5-3">
      .ColorScheme-Text {
        color:#122036;
      }
      </style><style
       type="text/css"
       id="current-color-scheme-79">
      .ColorScheme-Text {
        color:#122036;
      }
      </style><style
       type="text/css"
       id="current-color-scheme-7-2">
      .ColorScheme-Text {
        color:#122036;
      }
      </style><style
       type="text/css"
       id="current-color-scheme-5-0">
      .ColorScheme-Text {
        color:#122036;
      }
      </style><style
       type="text/css"
       id="current-color-scheme-062">
      .ColorScheme-Text {
        color:#122036;
      }
      </style><style
       id="current-color-scheme-1-6"
       type="text/css">
      .ColorScheme-Text {
        color:#122036;
      }
      </style><style
       type="text/css"
       id="current-color-scheme-37">
      .ColorScheme-Text {
        color:#122036;
      }
      </style><style
       id="current-color-scheme-1-5-3"
       type="text/css">
      .ColorScheme-Text {
        color:#122036;
      }
      </style><style
       type="text/css"
       id="current-color-scheme-19">
      .ColorScheme-Text {
        color:#122036;
      }
      </style><style
       id="current-color-scheme-5-4"
       type="text/css">
      .ColorScheme-Text {
        color:#122036;
      }
      </style><style
       id="current-color-scheme-2-6"
       type="text/css">
      .ColorScheme-Text {
        color:#122036;
      }
      </style><style
       id="current-color-scheme-1-78"
       type="text/css">
      .ColorScheme-Text {
        color:#122036;
      }
      </style><style
       type="text/css"
       id="current-color-scheme-10-0">
      .ColorScheme-Text {
        color:#122036;
      }
      </style><style
       id="current-color-scheme-0-4"
       type="text/css">
      .ColorScheme-Text {
        color:#122036;
      }
      </style><style
       id="current-color-scheme-35"
       type="text/css">
      .ColorScheme-Text {
        color:#36404d;
      }
      </style><style
       type="text/css"
       id="current-color-scheme-9127">
      .ColorScheme-Text {
        color:#122036;
      }
      </style><style
       type="text/css"
       id="current-color-scheme-75">
      .ColorScheme-Text {
        color:#36404d;
      }
      </style><style
       type="text/css"
       id="current-color-scheme-67-3">
      .ColorScheme-Text {
        color:#122036;
      }
      </style><style
       type="text/css"
       id="current-color-scheme-7-5">
      .ColorScheme-Text {
        color:#122036;
      }
      </style><style
       type="text/css"
       id="current-color-scheme-5-6">
      .ColorScheme-Text {
        color:#122036;
      }
      </style><style
       type="text/css"
       id="current-color-scheme-6-2">
      .ColorScheme-Text {
        color:#122036;
      }
      </style><style
       type="text/css"
       id="current-color-scheme-1-9">
      .ColorScheme-Text {
        color:#122036;
      }
      </style><style
       id="current-color-scheme-10-1"
       type="text/css">
      .ColorScheme-Text {
        color:#122036;
      }
      </style><style
       id="current-color-scheme-5-7"
       type="text/css">
      .ColorScheme-Text {
        color:#122036;
      }
      </style><style
       id="current-color-scheme-1-2-2"
       type="text/css">
      .ColorScheme-Text {
        color:#122036;
      }
      </style><style
       type="text/css"
       id="current-color-scheme-10-9">
      .ColorScheme-Text {
        color:#122036;
      }
      </style><style
       type="text/css"
       id="current-color-scheme-68">
      .ColorScheme-Text {
        color:#122036;
      }
      </style><style
       id="current-color-scheme-67-9"
       type="text/css">
      .ColorScheme-Text {
        color:#122036;
      }
      </style><style
       type="text/css"
       id="current-color-scheme-1-26">
      .ColorScheme-Text {
        color:#122036;
      }
      </style><style
       type="text/css"
       id="current-color-scheme-5-64">
      .ColorScheme-Text {
        color:#122036;
      }
      </style><style
       id="current-color-scheme-1-3-9"
       type="text/css">
      .ColorScheme-Text {
        color:#122036;
      }
      </style><style
       type="text/css"
       id="current-color-scheme-6-5">
      .ColorScheme-Text {
        color:#122036;
      }
      </style><style
       id="current-color-scheme-5-06-0"
       type="text/css">
      .ColorScheme-Text {
        color:#122036;
      }
      </style><style
       id="current-color-scheme-2-4"
       type="text/css">
      .ColorScheme-Text {
        color:#122036;
      }
      </style><style
       id="current-color-scheme-1-2-8"
       type="text/css">
      .ColorScheme-Text {
        color:#122036;
      }
      </style><style
       type="text/css"
       id="current-color-scheme-10-7">
      .ColorScheme-Text {
        color:#122036;
      }
      </style><style
       id="current-color-scheme-0-17"
       type="text/css">
      .ColorScheme-Text {
        color:#122036;
      }
      </style><style
       id="current-color-scheme-53-27"
       type="text/css">
      .ColorScheme-Text {
        color:#122036;
      }
      </style><style
       type="text/css"
       id="current-color-scheme-1-5-2">
      .ColorScheme-Text {
        color:#122036;
      }
      </style><style
       type="text/css"
       id="current-color-scheme-912-2">
      .ColorScheme-Text {
        color:#36404d;
      }
      </style><style
       type="text/css"
       id="current-color-scheme-0-7-6">
      .ColorScheme-Text {
        color:#122036;
      }
      </style><style
       id="current-color-scheme-1-0-1"
       type="text/css">
      .ColorScheme-Text {
        color:#122036;
      }
      </style><style
       id="current-color-scheme-3-0"
       type="text/css">
      .ColorScheme-Text {
        color:#122036;
      }
      </style><style
       type="text/css"
       id="current-color-scheme-1-7-6">
      .ColorScheme-Text {
        color:#122036;
      }
      </style><style
       type="text/css"
       id="current-color-scheme-06-1">
      .ColorScheme-Text {
        color:#122036;
      }
      </style><style
       id="current-color-scheme-1-1-5"
       type="text/css">
      .ColorScheme-Text {
        color:#122036;
      }
      </style><style
       id="current-color-scheme-5-9-9"
       type="text/css">
      .ColorScheme-Text {
        color:#36404d;
      }
      </style><style
       type="text/css"
       id="current-color-scheme-3-6-4">
      .ColorScheme-Text {
        color:#36404d;
      }
      </style><style
       id="current-color-scheme-9-9"
       type="text/css">
      .ColorScheme-Text {
        color:#36404d;
      }
      </style><style
       type="text/css"
       id="current-color-scheme-4-0">
      .ColorScheme-Text {
        color:#122036;
      }
      </style><style
       id="current-color-scheme-7-91"
       type="text/css">
      .ColorScheme-Text {
        color:#36404d;
      }
      </style><style
       type="text/css"
       id="current-color-scheme-91-7">
      .ColorScheme-Text {
        color:#122036;
      }
      </style><style
       type="text/css"
       id="current-color-scheme-7-27-7">
      .ColorScheme-Text {
        color:#122036;
      }
      </style><style
       type="text/css"
       id="current-color-scheme-5-09-1">
      .ColorScheme-Text {
        color:#122036;
      }
      </style><style
       type="text/css"
       id="current-color-scheme-0-3-1">
      .ColorScheme-Text {
        color:#122036;
      }
      </style><style
       type="text/css"
       id="current-color-scheme-7-9-5">
      .ColorScheme-Text {
        color:#122036;
      }
      </style><style
       type="text/css"
       id="current-color-scheme-5-3-9">
      .ColorScheme-Text {
        color:#122036;
      }
      </style><style
       type="text/css"
       id="current-color-scheme-79-7">
      .ColorScheme-Text {
        color:#122036;
      }
      </style><style
       type="text/css"
       id="current-color-scheme-7-2-7">
      .ColorScheme-Text {
        color:#122036;
      }
      </style><style
       type="text/css"
       id="current-color-scheme-5-0-6">
      .ColorScheme-Text {
        color:#122036;
      }
      </style><style
       type="text/css"
       id="current-color-scheme-062-7">
      .ColorScheme-Text {
        color:#122036;
      }
      </style><style
       id="current-color-scheme-1-6-3"
       type="text/css">
      .ColorScheme-Text {
        color:#122036;
      }
      </style><style
       type="text/css"
       id="current-color-scheme-37-65">
      .ColorScheme-Text {
        color:#122036;
      }
      </style><style
       id="current-color-scheme-1-5-3-6"
       type="text/css">
      .ColorScheme-Text {
        color:#122036;
      }
      </style><style
       type="text/css"
       id="current-color-scheme-19-3">
      .ColorScheme-Text {
        color:#122036;
      }
      </style><style
       id="current-color-scheme-5-4-94"
       type="text/css">
      .ColorScheme-Text {
        color:#122036;
      }
      </style><style
       id="current-color-scheme-2-6-8"
       type="text/css">
      .ColorScheme-Text {
        color:#122036;
      }
      </style><style
       id="current-color-scheme-1-78-1"
       type="text/css">
      .ColorScheme-Text {
        color:#122036;
      }
      </style><style
       type="text/css"
       id="current-color-scheme-10-0-2">
      .ColorScheme-Text {
        color:#122036;
      }
      </style><style
       id="current-color-scheme-0-4-9"
       type="text/css">
      .ColorScheme-Text {
        color:#122036;
      }
      </style><style
       id="current-color-scheme-35-3"
       type="text/css">
      .ColorScheme-Text {
        color:#36404d;
      }
      </style><style
       type="text/css"
       id="current-color-scheme-9127-9">
      .ColorScheme-Text {
        color:#122036;
      }
      </style><style
       type="text/css"
       id="current-color-scheme-75-0">
      .ColorScheme-Text {
        color:#36404d;
      }
      </style><style
       type="text/css"
       id="current-color-scheme-67-3-8">
      .ColorScheme-Text {
        color:#122036;
      }
      </style><style
       type="text/css"
       id="current-color-scheme-7-5-8">
      .ColorScheme-Text {
        color:#122036;
      }
      </style><style
       type="text/css"
       id="current-color-scheme-5-6-5">
      .ColorScheme-Text {
        color:#122036;
      }
      </style><style
       type="text/css"
       id="current-color-scheme-6-2-0">
      .ColorScheme-Text {
        color:#122036;
      }
      </style><style
       type="text/css"
       id="current-color-scheme-1-9-9">
      .ColorScheme-Text {
        color:#122036;
      }
      </style><style
       id="current-color-scheme-10-1-6"
       type="text/css">
      .ColorScheme-Text {
        color:#122036;
      }
      </style><style
       id="current-color-scheme-5-7-3"
       type="text/css">
      .ColorScheme-Text {
        color:#122036;
      }
      </style><style
       id="current-color-scheme-1-2-2-8"
       type="text/css">
      .ColorScheme-Text {
        color:#122036;
      }
      </style><style
       type="text/css"
       id="current-color-scheme-10-9-5">
      .ColorScheme-Text {
        color:#122036;
      }
      </style><style
       type="text/css"
       id="current-color-scheme-02">
      .ColorScheme-Text {
        color:#122036;
      }
      </style><style
       id="current-color-scheme-67-37"
       type="text/css">
      .ColorScheme-Text {
        color:#122036;
      }
      </style><style
       type="text/css"
       id="current-color-scheme-1-59">
      .ColorScheme-Text {
        color:#122036;
      }
      </style><style
       type="text/css"
       id="current-color-scheme-5-2">
      .ColorScheme-Text {
        color:#122036;
      }
      </style><style
       id="current-color-scheme-1-3-2"
       type="text/css">
      .ColorScheme-Text {
        color:#122036;
      }
      </style><style
       type="text/css"
       id="current-color-scheme-6-8">
      .ColorScheme-Text {
        color:#122036;
      }
      </style><style
       id="current-color-scheme-5-06-9"
       type="text/css">
      .ColorScheme-Text {
        color:#122036;
      }
      </style><style
       id="current-color-scheme-2-7"
       type="text/css">
      .ColorScheme-Text {
        color:#122036;
      }
      </style><style
       id="current-color-scheme-1-2-3"
       type="text/css">
      .ColorScheme-Text {
        color:#122036;
      }
      </style><style
       type="text/css"
       id="current-color-scheme-10-6">
      .ColorScheme-Text {
        color:#122036;
      }
      </style><style
       id="current-color-scheme-0-1"
       type="text/css">
      .ColorScheme-Text {
        color:#122036;
      }
      </style><style
       id="current-color-scheme-53-2"
       type="text/css">
      .ColorScheme-Text {
        color:#122036;
      }
      </style><style
       type="text/css"
       id="current-color-scheme-1-5-9">
      .ColorScheme-Text {
        color:#122036;
      }
      </style><style
       type="text/css"
       id="current-color-scheme-912-3">
      .ColorScheme-Text {
        color:#36404d;
      }
      </style><style
       type="text/css"
       id="current-color-scheme-0-7-1">
      .ColorScheme-Text {
        color:#122036;
      }
      </style><style
       id="current-color-scheme-1-0-9"
       type="text/css">
      .ColorScheme-Text {
        color:#122036;
      }
      </style><style
       id="current-color-scheme-3-4"
       type="text/css">
      .ColorScheme-Text {
        color:#122036;
      }
      </style><style
       type="text/css"
       id="current-color-scheme-1-7-7">
      .ColorScheme-Text {
        color:#122036;
      }
      </style><style
       type="text/css"
       id="current-color-scheme-06-8">
      .ColorScheme-Text {
        color:#122036;
      }
      </style><style
       id="current-color-scheme-1-1-4"
       type="text/css">
      .ColorScheme-Text {
        color:#122036;
      }
      </style><style
       id="current-color-scheme-5-9-5"
       type="text/css">
      .ColorScheme-Text {
        color:#36404d;
      }
      </style><style
       type="text/css"
       id="current-color-scheme-3-6-0">
      .ColorScheme-Text {
        color:#36404d;
      }
      </style><style
       id="current-color-scheme-9-3"
       type="text/css">
      .ColorScheme-Text {
        color:#36404d;
      }
      </style><style
       type="text/css"
       id="current-color-scheme-4-6">
      .ColorScheme-Text {
        color:#122036;
      }
      </style><style
       id="current-color-scheme-7-1"
       type="text/css">
      .ColorScheme-Text {
        color:#36404d;
      }
      </style><style
       type="text/css"
       id="current-color-scheme-91-0">
      .ColorScheme-Text {
        color:#122036;
      }
      </style><style
       type="text/css"
       id="current-color-scheme-7-27-6">
      .ColorScheme-Text {
        color:#122036;
      }
      </style><style
       type="text/css"
       id="current-color-scheme-5-09-3">
      .ColorScheme-Text {
        color:#122036;
      }
      </style><style
       type="text/css"
       id="current-color-scheme-0-3-2">
      .ColorScheme-Text {
        color:#122036;
      }
      </style><style
       type="text/css"
       id="current-color-scheme-7-9-0">
      .ColorScheme-Text {
        color:#122036;
      }
      </style><style
       type="text/css"
       id="current-color-scheme-5-3-6">
      .ColorScheme-Text {
        color:#122036;
      }
      </style><style
       type="text/css"
       id="current-color-scheme-79-1">
      .ColorScheme-Text {
        color:#122036;
      }
      </style><style
       type="text/css"
       id="current-color-scheme-7-2-5">
      .ColorScheme-Text {
        color:#122036;
      }
      </style><style
       type="text/css"
       id="current-color-scheme-5-0-5">
      .ColorScheme-Text {
        color:#122036;
      }
      </style><style
       type="text/css"
       id="current-color-scheme-062-4">
      .ColorScheme-Text {
        color:#122036;
      }
      </style><style
       id="current-color-scheme-1-6-7"
       type="text/css">
      .ColorScheme-Text {
        color:#122036;
      }
      </style><style
       type="text/css"
       id="current-color-scheme-37-6">
      .ColorScheme-Text {
        color:#122036;
      }
      </style><style
       id="current-color-scheme-1-5-3-5"
       type="text/css">
      .ColorScheme-Text {
        color:#122036;
      }
      </style><style
       type="text/css"
       id="current-color-scheme-19-6">
      .ColorScheme-Text {
        color:#122036;
      }
      </style><style
       id="current-color-scheme-5-4-9"
       type="text/css">
      .ColorScheme-Text {
        color:#122036;
      }
      </style><style
       id="current-color-scheme-2-6-3"
       type="text/css">
      .ColorScheme-Text {
        color:#122036;
      }
      </style><style
       id="current-color-scheme-1-78-7"
       type="text/css">
      .ColorScheme-Text {
        color:#122036;
      }
      </style><style
       type="text/css"
       id="current-color-scheme-10-0-4">
      .ColorScheme-Text {
        color:#122036;
      }
      </style><style
       id="current-color-scheme-0-4-5"
       type="text/css">
      .ColorScheme-Text {
        color:#122036;
      }
      </style><style
       id="current-color-scheme-35-2"
       type="text/css">
      .ColorScheme-Text {
        color:#36404d;
      }
      </style><style
       type="text/css"
       id="current-color-scheme-9127-5">
      .ColorScheme-Text {
        color:#122036;
      }
      </style><style
       type="text/css"
       id="current-color-scheme-75-4">
      .ColorScheme-Text {
        color:#36404d;
      }
      </style><style
       type="text/css"
       id="current-color-scheme-67-3-7">
      .ColorScheme-Text {
        color:#122036;
      }
      </style><style
       type="text/css"
       id="current-color-scheme-7-5-4">
      .ColorScheme-Text {
        color:#122036;
      }
      </style><style
       type="text/css"
       id="current-color-scheme-5-6-4">
      .ColorScheme-Text {
        color:#122036;
      }
      </style><style
       type="text/css"
       id="current-color-scheme-6-2-3">
      .ColorScheme-Text {
        color:#122036;
      }
      </style><style
       type="text/css"
       id="current-color-scheme-1-9-0">
      .ColorScheme-Text {
        color:#122036;
      }
      </style><style
       id="current-color-scheme-10-1-7"
       type="text/css">
      .ColorScheme-Text {
        color:#122036;
      }
      </style><style
       id="current-color-scheme-5-7-8"
       type="text/css">
      .ColorScheme-Text {
        color:#122036;
      }
      </style><style
       id="current-color-scheme-1-2-2-6"
       type="text/css">
      .ColorScheme-Text {
        color:#122036;
      }
      </style><style
       type="text/css"
       id="current-color-scheme-10-9-8">
      .ColorScheme-Text {
        color:#122036;
      }
      </style></defs><path
     id="path1"
     style="fill:#f37d5c;fill-opacity:1;stroke-width:2;stroke-linecap:round;stroke-linejoin:round;paint-order:stroke fill markers"
     d="m 7.0126953,2 c -1.1079912,0 -2,0.8920088 -2,2 V 4.4003906 4.5 4.5996094 5 c 0,1.1079912 0.8920088,2 2,2 h 0.4746094 c 0.00855,4.304e-4 0.016734,0 0.025391,0 h 1 c 0.2769989,0 0.5,-0.2230012 0.5,-0.5 V 4.5253906 c 4.3e-4,-0.00855 0,-0.016734 0,-0.025391 0,-0.00864 4.29e-4,-0.016858 0,-0.025391 -4.304e-4,-0.00855 -0.0011,-0.016966 -0.00195,-0.025391 -8.505e-4,-0.00842 -0.00265,-0.017097 -0.00391,-0.025391 -0.00126,-0.00829 -0.00225,-0.017239 -0.00391,-0.025391 C 9.00127,4.3902857 8.9991191,4.383 8.9970703,4.375 c -0.00205,-0.008 -0.00343,-0.0156 -0.00586,-0.023437 -0.00239,-0.00773 -0.00506,-0.015875 -0.00781,-0.023437 -0.0028,-0.00767 -0.00661,-0.015955 -0.00977,-0.023437 -0.0031,-0.00735 -0.00633,-0.014324 -0.00977,-0.021484 -0.0035,-0.00729 -0.00788,-0.014398 -0.011719,-0.021484 -0.00389,-0.00718 -0.00749,-0.014525 -0.011719,-0.021484 -0.00417,-0.00687 -0.00919,-0.012883 -0.013672,-0.019531 -0.00448,-0.00665 -0.00888,-0.013118 -0.013672,-0.019531 -0.00479,-0.00641 -0.00859,-0.013363 -0.013672,-0.019531 -0.00495,-0.006 -0.010409,-0.011821 -0.015625,-0.017578 -0.00537,-0.00591 -0.01193,-0.01193 -0.017578,-0.017578 C 8.8603933,4.140678 8.8547103,4.134424 8.8486253,4.12891 8.8427153,4.12354 8.8372163,4.118372 8.8310473,4.113285 8.8248773,4.108195 8.8179293,4.104405 8.8115163,4.099613 8.8051063,4.094823 8.7986333,4.090423 8.7919853,4.085941 8.7854253,4.081511 8.7792333,4.076381 8.7724543,4.072269 8.7655843,4.068099 8.7580553,4.064389 8.7509703,4.06055 8.7437603,4.05664 8.7369113,4.05239 8.7294863,4.048831 c -0.00729,-0.0035 -0.014002,-0.00661 -0.021484,-0.00977 -0.00758,-0.0032 -0.015665,-0.00694 -0.023437,-0.00977 -0.00767,-0.0028 -0.0156,-0.00538 -0.023437,-0.00781 -0.00783,-0.00242 -0.015433,-0.00381 -0.023433,-0.00586 -0.008,-0.00205 -0.015286,-0.0042 -0.023437,-0.00586 -0.00815,-0.00166 -0.017097,-0.00265 -0.025391,-0.00391 -0.00829,-0.00126 -0.016966,-0.00306 -0.025391,-0.00391 C 8.5550394,4.0011014 8.5466443,4.0004304 8.5380859,4 8.5295403,3.9995696 8.5213515,4 8.5126953,4 h -1 c -0.2769997,0 -0.5,0.2230003 -0.5,0.5 0,0.2769997 0.2230003,0.5 0.5,0.5 h 0.5 v 1 h -0.5 c -0.00866,0 -0.016845,-4.304e-4 -0.025391,0 H 7.0126953 c -0.5539952,0 -1,-0.4460048 -1,-1 V 4 c 0,-0.5539952 0.4460048,-1 1,-1 h 0.4746094 c 0.00855,4.304e-4 0.016731,0 0.025391,0 h 1 c 0.2769989,0 0.5,-0.2230012 0.5,-0.5 0,-0.2769988 -0.2230011,-0.5 -0.5,-0.5 h -1 c -0.00866,0 -0.016841,-4.304e-4 -0.025391,0 z" /><path
     id="path14-6"
     style="fill:#f37d5c;fill-opacity:1;stroke-width:2;stroke-linecap:round;stroke-linejoin:round;paint-order:stroke fill markers"
     d="M 2.5,2 C 1.6690056,2 1,2.6690056 1,3.5 1,4.3309944 1.6690056,5 2.5,5 H 2.6992188 3 3.1992188 3.5 C 3.7769991,5 4,5.2230009 4,5.5 4,5.7769991 3.7769991,6 3.5,6 H 3 2.4746094 2 1.4746094 C 1.2096961,6.013342 1,6.2316577 1,6.5 1,6.7769985 1.2230015,7 1.5,7 h 1 c 0.00864,0 0.016858,4.291e-4 0.025391,0 h 0.4746094 0.5 c 0.8309944,0 1.5,-0.6690056 1.5,-1.5 0,-0.8309944 -0.6690056,-1.5 -1.5,-1.5 H 3.2246094 2.6992188 2.6738281 2.5 C 2.2230009,4 2,3.7769991 2,3.5 2,3.2230009 2.2230009,3 2.5,3 H 3 3.5253906 2.9996953 h 0.5 c 0.2769982,0 0.5,-0.2230018 0.5,-0.5 0,-0.268342 -0.2096963,-0.4866579 -0.4746094,-0.5 h -0.025086 -0.5 z"
     sodipodi:nodetypes="ssscccsssccccsssccssscccssscccsscccs" /><style
     type="text/css"
     id="current-color-scheme-40">
      .ColorScheme-Text {
        color:#31363b;
      }
      .ColorScheme-Background {
        color:#eff0f1;
      }
      .ColorScheme-Highlight {
        color:#3498db;
      }
      .ColorScheme-ViewText {
        color:#31363b;
      }
      .ColorScheme-ViewBackground {
        color:#fcfcfc;
      }
      .ColorScheme-ViewHover {
        color:#93cee9;
      }
      .ColorScheme-ViewFocus{
        color:#3daee9;
      }
      .ColorScheme-ButtonText {
        color:#31363b;
      }
      .ColorScheme-ButtonBackground {
        color:#eff0f1;
      }
      .ColorScheme-ButtonHover {
        color:#93cee9;
      }
      .ColorScheme-ButtonFocus{
        color:#3daee9;
      }
      .ColorScheme-NegativeText{
        color:#e74c3c;
      }
      </style><g
     id="g1"
     transform="translate(-3,1)"><g
       fill="#3172ca"
       id="g9"
       style="fill:#4f92db;fill-opacity:1"
       transform="translate(3,-1)"><path
         id="path2"
         style="fill:#a3b7cc;fill-opacity:1"
         d="m 18,1 c -1.107999,0 -2,0.8920011 -2,2 v 12 c 0,1.107999 0.892001,2 2,2 1.107999,0 2,-0.892001 2,-2 V 3 C 20,1.8920011 19.107999,1 18,1 Z M 17.95313,18 C 16.870948,18 16,18.870948 16,19.953125 v 0.09375 C 16,21.129052 16.870948,22 17.953125,22 h 0.09375 C 19.129052,22 20,21.129052 20,20.046875 v -0.09375 C 20,18.870948 19.129052,18 18.046875,18 Z" /><path
         style="fill:#a3b7cc;fill-opacity:1"
         d="M 12.953125,18 C 11.870948,18 11,18.870948 11,19.953125 v 0.09375 C 11,21.129052 11.870948,22 12.953125,22 h 0.09375 C 14.129052,22 15,21.129052 15,20.046875 v -0.09375 C 15,18.870948 14.129052,18 13.046875,18 Z"
         id="path21" /><path
         style="fill:#f37d5c;fill-opacity:1"
         d="M 7.953125,18 C 6.8709481,18 6,18.870948 6,19.953125 v 0.09375 C 6,21.129052 6.8709479,22 7.953125,22 h 0.09375 C 9.1290519,22 10,21.129052 10,20.046875 v -0.09375 C 10,18.870948 9.1290521,18 8.046875,18 Z"
         id="path20" /><path
         style="fill:#f37d5c;fill-opacity:1"
         d="M 2.953125,18 C 1.8709481,18 1,18.870948 1,19.953125 v 0.09375 C 1,21.129052 1.8709479,22 2.953125,22 h 0.09375 C 4.1290519,22 5,21.129052 5,20.046875 v -0.09375 C 5,18.870948 4.1290521,18 3.046875,18 Z"
         id="path19" /><path
         style="fill:#f37d5c;fill-opacity:1"
         d="m 3,13 c -1.1079989,0 -2,0.892001 -2,2 0,1.107999 0.8920011,2 2,2 1.1079989,0 2,-0.892001 2,-2 0,-1.107999 -0.8920011,-2 -2,-2 z"
         id="path18" /><path
         style="fill:#f37d5c;fill-opacity:1"
         d="M 8,9 C 6.8920011,9 6,9.8920011 6,11 v 4 c 0,1.107999 0.8920011,2 2,2 1.1079989,0 2,-0.892001 2,-2 V 11 C 10,9.8920011 9.1079989,9 8,9 Z"
         id="path17" /><path
         style="fill:#a3b7cc;fill-opacity:1"
         d="m 13,5 c -1.107999,0 -2,0.8920011 -2,2 v 8 c 0,1.107999 0.892001,2 2,2 1.107999,0 2,-0.892001 2,-2 V 7 C 15,5.8920011 14.107999,5 13,5 Z"
         id="path3" /></g><path
       id="path16"
       style="fill:#e1ebf2;fill-opacity:1"
       d="m 21,1 c -0.553998,0 -1,0.4460012 -1,1 v 12 c 0,0.553998 0.446002,1 1,1 0.553998,0 1,-0.446002 1,-1 V 2 C 22,1.4460012 21.553998,1 21,1 Z m 0,17 c -0.553998,0 -1,0.446002 -1,1 0,0.553998 0.446002,1 1,1 0.553998,0 1,-0.446002 1,-1 0,-0.553998 -0.446002,-1 -1,-1 z" /><path
       style="fill:#e1ebf2;fill-opacity:1"
       d="m 16,18 c -0.553998,0 -1,0.446002 -1,1 0,0.553998 0.446002,1 1,1 0.553998,0 1,-0.446002 1,-1 0,-0.553998 -0.446002,-1 -1,-1 z"
       id="path26" /><path
       style="fill:#ffb8a3;fill-opacity:1"
       d="m 11,18 c -0.553999,0 -1,0.446002 -1,1 0,0.553998 0.446001,1 1,1 0.553999,0 1,-0.446002 1,-1 0,-0.553998 -0.446001,-1 -1,-1 z"
       id="path25" /><path
       style="fill:#ffb8a3;fill-opacity:1"
       d="m 6,18 c -0.5539988,0 -1,0.446002 -1,1 0,0.553998 0.4460012,1 1,1 0.5539988,0 1,-0.446002 1,-1 0,-0.553998 -0.4460012,-1 -1,-1 z"
       id="path24" /><path
       style="fill:#ffb8a3;fill-opacity:1"
       d="m 6,13 c -0.5539988,0 -1,0.446002 -1,1 0,0.553998 0.4460012,1 1,1 0.5539988,0 1,-0.446002 1,-1 0,-0.553998 -0.4460012,-1 -1,-1 z"
       id="path23" /><path
       style="fill:#ffb8a3;fill-opacity:1"
       d="m 11,9 c -0.553999,0 -1,0.446002 -1,1 v 4 c 0,0.553998 0.446001,1 1,1 0.553999,0 1,-0.446002 1,-1 V 10 C 12,9.446002 11.553999,9 11,9 Z"
       id="path22" /><path
       style="fill:#e1ebf2;fill-opacity:1"
       d="m 16,5 c -0.553998,0 -1,0.4460012 -1,1 v 8 c 0,0.553998 0.446002,1 1,1 0.553998,0 1,-0.446002 1,-1 V 6 C 17,5.4460012 16.553998,5 16,5 Z"
       id="path15" /></g></svg>
