<?xml version="1.0" encoding="UTF-8" standalone="no"?>
<svg
   height="22"
   viewBox="0 0 22 22"
   width="22"
   version="1.1"
   id="svg11"
   sodipodi:docname="network-mobile-100-lte.svg"
   inkscape:version="1.3.2 (091e20ef0f, 2023-11-25, custom)"
   xmlns:inkscape="http://www.inkscape.org/namespaces/inkscape"
   xmlns:sodipodi="http://sodipodi.sourceforge.net/DTD/sodipodi-0.dtd"
   xmlns="http://www.w3.org/2000/svg"
   xmlns:svg="http://www.w3.org/2000/svg">
  <defs
     id="defs11" />
  <sodipodi:namedview
     id="namedview11"
     pagecolor="#ffffff"
     bordercolor="#000000"
     borderopacity="0.25"
     inkscape:showpageshadow="2"
     inkscape:pageopacity="0.0"
     inkscape:pagecheckerboard="0"
     inkscape:deskcolor="#d1d1d1"
     inkscape:zoom="18.931177"
     inkscape:cx="14.65836"
     inkscape:cy="3.6976042"
     inkscape:window-width="2560"
     inkscape:window-height="1364"
     inkscape:window-x="0"
     inkscape:window-y="0"
     inkscape:window-maximized="1"
     inkscape:current-layer="g11" />
  <linearGradient
     id="a"
     gradientUnits="userSpaceOnUse"
     x1="11"
     x2="11"
     y1="19.95339"
     y2="3">
    <stop
       offset="0"
       stop-color="#4a9ef1"
       id="stop1" />
    <stop
       offset="1"
       stop-color="#a2cff9"
       id="stop2" />
  </linearGradient>
  <g
     stroke-linecap="round"
     stroke-linejoin="round"
     id="g11">
    <g
       fill="#3172ca"
       id="g10"
       style="fill:#4f92db;fill-opacity:1">
      <path
         d="m1.5 2c-.2769991 0-.5.2230009-.5.5v1 1 .5c0 1.1079945.8920055 2 2 2h.4746094c.0085456.0004304.0167344 0 .0253906 0h1c.2769998 0 .5-.2230003.5-.5s-.2230002-.5-.5-.5h-1c-.0086562 0-.016845-.0004304-.0253906 0h-.4746094c-.553997 0-1-.446003-1-1v-.5-1-1c0-.2769991-.2230009-.5-.5-.5zm1.9472656 4.0019531c-.016198.0017-.033137.00462-.048828.00781.016164-.00336.032126-.00605.048828-.00781zm-.3613281.21875c-.00448.00665-.0095.012659-.013672.019531.00413-.00682.00924-.012932.013672-.019531zm-.013672.5390625c.00417.00687.00919.012883.013672.019531-.00444-.0066-.00955-.012713-.013672-.019531zm.3261719.2304688c.015691.00319.03263.00612.048828.00781-.016702-.00176-.032664-.00446-.048828-.00781z"
         stroke-width="2"
         id="path2"
         style="fill:#4f92db;fill-opacity:1" />
      <path
         d="m18 1c1.108 0 2 .892 2 2v12c0 1.108-.892 2-2 2s-2-.892-2-2v-12c0-1.108.892-2 2-2z"
         stroke-width="2"
         id="path3"
         style="fill:#4f92db;fill-opacity:1" />
      <path
         d="m13 5c1.108 0 2 .892 2 2v8c0 1.108-.892 2-2 2s-2-.892-2-2v-8c0-1.108.892-2 2-2z"
         stroke-width="1.73205"
         id="path4"
         style="fill:#4f92db;fill-opacity:1" />
      <path
         d="m8 9c1.108 0 2 .892 2 2v4c0 1.108-.892 2-2 2s-2-.892-2-2v-4c0-1.108.892-2 2-2z"
         stroke-width="1.41421"
         id="path5"
         style="fill:#4f92db;fill-opacity:1" />
      <path
         d="m3 13c1.108 0 2 .892 2 2s-.892 2-2 2-2-.892-2-2 .892-2 2-2z"
         id="path6"
         style="fill:#4f92db;fill-opacity:1" />
      <path
         d="m17.95339 18h.09322c1.082178 0 1.95339.871212 1.95339 1.95339v.09322c0 1.082178-.871212 1.95339-1.95339 1.95339h-.09322c-1.082178 0-1.95339-.871212-1.95339-1.95339v-.09322c0-1.082178.871212-1.95339 1.95339-1.95339z"
         stroke-width="2"
         id="path7"
         style="fill:#4f92db;fill-opacity:1" />
      <path
         d="m12.95339 18h.09322c1.082178 0 1.95339.871212 1.95339 1.95339v.09322c0 1.082178-.871212 1.95339-1.95339 1.95339h-.09322c-1.082178 0-1.95339-.871212-1.95339-1.95339v-.09322c0-1.082178.871212-1.95339 1.95339-1.95339z"
         stroke-width="2"
         id="path8"
         style="fill:#4f92db;fill-opacity:1" />
      <path
         d="m7.9533899 18h.09322c1.0821782 0 1.9533901.871212 1.9533901 1.95339v.09322c0 1.082178-.8712119 1.95339-1.9533899 1.95339h-.09322c-1.0821782 0-1.9533901-.871212-1.9533901-1.95339v-.09322c0-1.082178.8712119-1.95339 1.9533899-1.95339z"
         stroke-width="2"
         id="path9"
         style="fill:#4f92db;fill-opacity:1" />
      <path
         d="m2.9533899 18h.09322c1.0821782 0 1.9533901.871212 1.9533901 1.95339v.09322c0 1.082178-.8712119 1.95339-1.9533899 1.95339h-.09322c-1.0821782 0-1.9533901-.871212-1.9533901-1.95339v-.09322c0-1.082178.8712119-1.95339 1.9533899-1.95339z"
         stroke-width="2"
         id="path10"
         style="fill:#4f92db;fill-opacity:1" />
    </g>
    <path
       d="m18 2c-.553999 0-1 .4460006-1 1v12c0 .553999.446001 1 1 1s1-.446001 1-1v-12c0-.5539994-.446001-1-1-1zm-5 4c-.553999 0-1 .4460006-1 1v8c0 .553999.446001 1 1 1s1-.446001 1-1v-8c0-.5539994-.446001-1-1-1zm-5 4c-.5539994 0-1 .446001-1 1v4c0 .553999.4460006 1 1 1s1-.446001 1-1v-4c0-.553999-.4460006-1-1-1zm-5 4c-.5539994 0-1 .446001-1 1s.4460006 1 1 1 1-.446001 1-1-.4460006-1-1-1zm0 5c-.5539994 0-1 .446001-1 1s.4460006 1 1 1 1-.446001 1-1-.4460006-1-1-1zm5 0c-.5539994 0-1 .446001-1 1s.4460006 1 1 1 1-.446001 1-1-.4460006-1-1-1zm5 0c-.553999 0-1 .446001-1 1s.446001 1 1 1 1-.446001 1-1-.446001-1-1-1zm5 0c-.553999 0-1 .446001-1 1s.446001 1 1 1 1-.446001 1-1-.446001-1-1-1z"
       fill="url(#a)"
       stroke-width=".5"
       id="path11"
       style="fill:#5ac0ff;fill-opacity:1" />
  </g>
</svg>
