<?xml version="1.0" encoding="UTF-8" standalone="no"?>
<!-- Created with Inkscape (http://www.inkscape.org/) -->

<svg
   width="22"
   height="22"
   viewBox="0 0 22 22"
   version="1.1"
   id="svg1"
   inkscape:version="1.3.2 (091e20ef0f, 2023-11-25, custom)"
   sodipodi:docname="network-wired.svg"
   xmlns:inkscape="http://www.inkscape.org/namespaces/inkscape"
   xmlns:sodipodi="http://sodipodi.sourceforge.net/DTD/sodipodi-0.dtd"
   xmlns="http://www.w3.org/2000/svg"
   xmlns:svg="http://www.w3.org/2000/svg">
  <sodipodi:namedview
     id="namedview1"
     pagecolor="#ffffff"
     bordercolor="#000000"
     borderopacity="0.25"
     inkscape:showpageshadow="false"
     inkscape:pageopacity="0.0"
     inkscape:pagecheckerboard="true"
     inkscape:deskcolor="#d1d1d1"
     inkscape:document-units="px"
     inkscape:zoom="65.680808"
     inkscape:cx="17.562208"
     inkscape:cy="13.169753"
     inkscape:window-width="2560"
     inkscape:window-height="1364"
     inkscape:window-x="0"
     inkscape:window-y="0"
     inkscape:window-maximized="1"
     inkscape:current-layer="layer1" />
  <defs
     id="defs1" />
  <g
     inkscape:label="Capa 1"
     inkscape:groupmode="layer"
     id="layer1">
    <g
       id="g1"
       transform="translate(-0.9999995,-32)">
      <path
         id="rect1728-9"
         style="fill:#a3b7cc;fill-opacity:1;stroke-width:2;stroke-linecap:round;stroke-linejoin:round;stroke-miterlimit:1.8;paint-order:fill markers stroke;stop-color:#000000"
         d="m 4,52.999999 h 16 c 1.108,0 1.999999,-0.892 1.999999,-2 v -16 C 21.999999,33.892 21.108,33 20,33 H 4 c -1.108,0 -2,0.892 -2,1.999999 v 16 c 0,1.108 0.892,2 2,2 z" />
      <path
         id="rect1728-7-3"
         style="fill:#f1f1f1;fill-opacity:1;stroke-width:2;stroke-linecap:round;stroke-linejoin:round;stroke-miterlimit:1.8;paint-order:fill markers stroke;stop-color:#000000"
         d="m 4,51.999999 h 16.000003 c 0.554,0 1,-0.446 1,-1 v -16 c 0,-0.553999 -0.446,-0.999999 -1,-0.999999 H 4 c -0.5539999,0 -0.9999999,0.446 -0.9999999,0.999999 v 16 c 0,0.554 0.446,1 0.9999999,1 z" />
      <path
         id="rect3959-7"
         style="fill:#363c4d;fill-opacity:1;stroke-width:2;stroke-linecap:round;stroke-linejoin:round;stroke-miterlimit:1.8;paint-order:fill markers stroke;stop-color:#000000"
         d="m 8.0000001,49.999999 v -1 h -3 v -1 0 -1 h -1 v -3 h 1 v -3 h -1 v -3 h 1 v -2 H 19 v 2 h 1 v 3 h -1 v 3 h 1 v 3 h -1 v 1 0 1 h -3 v 1 z"
         sodipodi:nodetypes="ccccccccccccccccccccccccccccc" />
      <path
         id="rect3970-4"
         style="fill:#ffd84d;fill-opacity:1;stroke-width:2;stroke-linecap:round;stroke-linejoin:round;stroke-miterlimit:1.8;paint-order:fill markers stroke;stop-color:#000000"
         d="m 7.0000001,41.999999 v -4 h 2 v 4 z m 3.9999999,0 v -4 h 2 v 4 z m 4,0 v -4 h 2 v 4 z" />
    </g>
  </g>
</svg>
