<?xml version="1.0" encoding="UTF-8" standalone="no"?>
<!-- Created with Inkscape (http://www.inkscape.org/) -->

<svg
   width="22"
   height="22"
   viewBox="0 0 22 22"
   version="1.1"
   id="svg5"
   inkscape:version="1.4 (e7c3feb100, 2024-10-09)"
   sodipodi:docname="network-bluetooth-inactive-symbolic.svg"
   xml:space="preserve"
   xmlns:inkscape="http://www.inkscape.org/namespaces/inkscape"
   xmlns:sodipodi="http://sodipodi.sourceforge.net/DTD/sodipodi-0.dtd"
   xmlns="http://www.w3.org/2000/svg"
   xmlns:svg="http://www.w3.org/2000/svg"><sodipodi:namedview
     id="namedview7"
     pagecolor="#ffffff"
     bordercolor="#000000"
     borderopacity="0.25"
     inkscape:showpageshadow="false"
     inkscape:pageopacity="0.0"
     inkscape:pagecheckerboard="0"
     inkscape:deskcolor="#d1d1d1"
     inkscape:document-units="px"
     showgrid="true"
     inkscape:zoom="19.028871"
     inkscape:cx="25.881725"
     inkscape:cy="18.209173"
     inkscape:window-width="1890"
     inkscape:window-height="1048"
     inkscape:window-x="0"
     inkscape:window-y="0"
     inkscape:window-maximized="1"
     inkscape:current-layer="g1"><inkscape:grid
       type="xygrid"
       id="grid3636"
       originx="0"
       originy="0"
       spacingy="1"
       spacingx="1"
       units="px"
       visible="true" /></sodipodi:namedview><defs
     id="defs2"><style
       type="text/css"
       id="current-color-scheme">
      .ColorScheme-Text {
        color:#36404d;
      }
      </style><style
       type="text/css"
       id="current-color-scheme-67">
      .ColorScheme-Text {
        color:#122036;
      }
      </style><style
       type="text/css"
       id="current-color-scheme-7">
      .ColorScheme-Text {
        color:#122036;
      }
      </style><style
       type="text/css"
       id="current-color-scheme-5">
      .ColorScheme-Text {
        color:#122036;
      }
      </style><style
       type="text/css"
       id="current-color-scheme-6">
      .ColorScheme-Text {
        color:#122036;
      }
      </style><style
       type="text/css"
       id="current-color-scheme-1">
      .ColorScheme-Text {
        color:#122036;
      }
      </style><style
       id="current-color-scheme-10"
       type="text/css">
      .ColorScheme-Text {
        color:#122036;
      }
      </style><style
       id="current-color-scheme-5-7"
       type="text/css">
      .ColorScheme-Text {
        color:#122036;
      }
      </style><style
       id="current-color-scheme-1-2"
       type="text/css">
      .ColorScheme-Text {
        color:#122036;
      }
      </style><style
       type="text/css"
       id="current-color-scheme-10-9">
      .ColorScheme-Text {
        color:#122036;
      }
      </style><style
       type="text/css"
       id="current-color-scheme-3">
      .ColorScheme-Text {
        color:#36404d;
      }
      </style><style
       type="text/css"
       id="current-color-scheme-67-5">
      .ColorScheme-Text {
        color:#122036;
      }
      </style><style
       type="text/css"
       id="current-color-scheme-7-6">
      .ColorScheme-Text {
        color:#122036;
      }
      </style><style
       type="text/css"
       id="current-color-scheme-5-2">
      .ColorScheme-Text {
        color:#122036;
      }
      </style><style
       type="text/css"
       id="current-color-scheme-6-9">
      .ColorScheme-Text {
        color:#122036;
      }
      </style><style
       type="text/css"
       id="current-color-scheme-1-1">
      .ColorScheme-Text {
        color:#122036;
      }
      </style><style
       id="current-color-scheme-10-2"
       type="text/css">
      .ColorScheme-Text {
        color:#122036;
      }
      </style><style
       id="current-color-scheme-5-7-7"
       type="text/css">
      .ColorScheme-Text {
        color:#122036;
      }
      </style><style
       id="current-color-scheme-1-2-0"
       type="text/css">
      .ColorScheme-Text {
        color:#122036;
      }
      </style><style
       type="text/css"
       id="current-color-scheme-10-9-9">
      .ColorScheme-Text {
        color:#122036;
      }
      </style></defs><g
     inkscape:label="Capa 1"
     inkscape:groupmode="layer"
     id="layer1"><g
       id="path3904-7-5" /><g
       id="g2"
       transform="matrix(3.7795276,0,0,3.7795276,-0.99999994,-0.99999964)"><g
         id="path3904-7"><g
           inkscape:label="Capa 1"
           id="layer1-3"
           transform="matrix(0.26458333,0,0,0.26458333,0.26458332,0.26458324)"><g
             id="path3904-7-5-6" /><g
             id="g1"
             transform="translate(-22,6.0000005)"><g
               id="path4082-5-8"
               transform="matrix(3.7795276,0,0,3.7795276,21,-6.9999999)"><path
                 style="color:#000000;fill:#1463bf;stroke-width:0.529167;stroke-linecap:round;stroke-linejoin:round;stroke-miterlimit:1.8;paint-order:fill markers stroke"
                 d="M 3.175,3.175 2.38125,3.96875"
                 id="path4156-7" /></g><path
               style="fill:#f1f1f1;fill-opacity:0.90073937;stroke-width:0.0525517"
               d="M 31.10074,14.264717 C 30.990237,14.223407 30.765579,14.07243 30.601499,13.92922 l -0.298327,-0.260383 -0.03197,-2.227557 c -0.0411,-2.8643479 -0.04051,-2.8456119 -0.09324,-2.9288219 -0.06008,-0.09481 -0.101122,-0.0723 -1.787184,0.980065 -0.7691,0.480039 -1.575726,0.9652219 -1.792502,1.0781829 -0.38396,0.200081 -0.404858,0.204665 -0.809276,0.177494 -0.495436,-0.03329 -0.752799,-0.182142 -0.996544,-0.57639 -0.29487,-0.4769419 -0.20372,-0.7367179 0.439475,-1.2525009 0.290063,-0.232604 3.643402,-2.479113 4.663506,-3.124233 l 0.327989,-0.207421 4.59e-4,-0.61186 c 3.77e-4,-0.501439 -0.01407,-0.617438 -0.08007,-0.642763 -0.104205,-0.03999 -3.257752,-2.124562 -4.398009,-2.907197 -0.954018,-0.65480598 -1.091944,-0.80306698 -1.091944,-1.17376598 0,-0.430094 0.405923,-0.8926972 0.876791,-0.9992206 0.235892,-0.053365 0.711427,-0.01259 0.939356,0.080546 0.08842,0.036131 0.833343,0.4779866 1.65538,0.9819016 1.859421,1.13984098 2.00176,1.21928398 2.048653,1.14340898 0.02007,-0.03247 0.0517,-0.77211398 0.07029,-1.64366098 0.0186,-0.87154642 0.04842,-2.01417212 0.06627,-2.53916762 l 0.03246,-0.9545375 0.242809,-0.2463902 c 0.352966,-0.3581715 0.484644,-0.4127415 1.00481,-0.416415 0.40201,-0.00284 0.472972,0.01223 0.709448,0.1506563 0.340409,0.1992647 5.580238,3.70526402 6.437586,4.30742502 0.361293,0.253756 0.769226,0.570784 0.906518,0.704507 0.247165,0.24074098 0.24962,0.24648798 0.24962,0.58411598 v 0.340984 l -0.30342,0.291613 c -0.166882,0.160387 -1.106901,0.841305 -2.088931,1.513152 -0.982031,0.671847 -1.844632,1.269714 -1.91689,1.328594 l -0.13138,0.107053 0.169637,0.135561 c 0.0933,0.07456 0.850046,0.596962 1.681656,1.160897 1.624323,1.101494 2.232398,1.537255 2.416708,1.73187 0.264808,0.279614 0.260935,0.786805 -0.0085,1.106954 -0.204531,0.243072 -2.485374,1.8096149 -5.652168,3.8820599 -2.013761,1.317865 -1.957477,1.286876 -2.384666,1.312981 -0.247526,0.01513 -0.442349,-0.0026 -0.575215,-0.05224 z m 3.481899,-4.3673499 c 1.560384,-1.041154 1.882947,-1.285632 1.823395,-1.38199 -0.07673,-0.124144 -2.437012,-1.682854 -2.914687,-1.924829 -0.154132,-0.07808 -0.331494,-0.134661 -0.394138,-0.125738 l -0.113899,0.01622 -0.01375,2.128276 c -0.0076,1.170551 -0.0024,2.1578669 0.01149,2.1940349 0.01388,0.03617 0.05223,0.06576 0.08524,0.06576 0.033,0 0.715358,-0.437281 1.516349,-0.9717359 z M 33.87955,3.1673351 c 0.674486,-0.408996 2.317515,-1.516084 2.467071,-1.662334 0.104922,-0.102603 0.104786,-0.103051 -0.07883,-0.259583 -0.541787,-0.46187498 -3.046547,-2.09534958 -3.212998,-2.09534958 -0.09372,0 -0.09776,0.088762 -0.09776,2.14586158 0,1.180225 0.01577,2.161628 0.03503,2.180897 0.0994,0.0994 0.367161,0.006 0.887481,-0.309492 z"
               id="path6" /></g></g></g></g></g></svg>
