<?xml version="1.0" encoding="UTF-8" standalone="no"?>
<!-- Created with Inkscape (http://www.inkscape.org/) -->

<svg
   width="22"
   height="22"
   viewBox="0 0 22 22"
   version="1.1"
   id="svg5"
   inkscape:version="1.4.2 (ebf0e940d0, 2025-05-08)"
   sodipodi:docname="network-bluetooth-activated.svg"
   xml:space="preserve"
   xmlns:inkscape="http://www.inkscape.org/namespaces/inkscape"
   xmlns:sodipodi="http://sodipodi.sourceforge.net/DTD/sodipodi-0.dtd"
   xmlns="http://www.w3.org/2000/svg"
   xmlns:svg="http://www.w3.org/2000/svg"><sodipodi:namedview
     id="namedview7"
     pagecolor="#ffffff"
     bordercolor="#000000"
     borderopacity="0.25"
     inkscape:showpageshadow="false"
     inkscape:pageopacity="0.0"
     inkscape:pagecheckerboard="0"
     inkscape:deskcolor="#d1d1d1"
     inkscape:document-units="px"
     showgrid="true"
     inkscape:zoom="38.057741"
     inkscape:cx="9.8534487"
     inkscape:cy="9.1834142"
     inkscape:window-width="1920"
     inkscape:window-height="1006"
     inkscape:window-x="0"
     inkscape:window-y="0"
     inkscape:window-maximized="1"
     inkscape:current-layer="layer1"><inkscape:grid
       type="xygrid"
       id="grid3636"
       originx="0"
       originy="0"
       spacingy="1"
       spacingx="1"
       units="px"
       visible="true" /></sodipodi:namedview><defs
     id="defs2"><style
       type="text/css"
       id="current-color-scheme">
      .ColorScheme-Text {
        color:#36404d;
      }
      </style><style
       type="text/css"
       id="current-color-scheme-67">
      .ColorScheme-Text {
        color:#122036;
      }
      </style><style
       type="text/css"
       id="current-color-scheme-7">
      .ColorScheme-Text {
        color:#122036;
      }
      </style><style
       type="text/css"
       id="current-color-scheme-5">
      .ColorScheme-Text {
        color:#122036;
      }
      </style><style
       type="text/css"
       id="current-color-scheme-6">
      .ColorScheme-Text {
        color:#122036;
      }
      </style><style
       type="text/css"
       id="current-color-scheme-1">
      .ColorScheme-Text {
        color:#122036;
      }
      </style><style
       id="current-color-scheme-10"
       type="text/css">
      .ColorScheme-Text {
        color:#122036;
      }
      </style><style
       id="current-color-scheme-5-7"
       type="text/css">
      .ColorScheme-Text {
        color:#122036;
      }
      </style><style
       id="current-color-scheme-1-2"
       type="text/css">
      .ColorScheme-Text {
        color:#122036;
      }
      </style><style
       type="text/css"
       id="current-color-scheme-10-9">
      .ColorScheme-Text {
        color:#122036;
      }
      </style><style
       type="text/css"
       id="current-color-scheme-35">
      .ColorScheme-Text {
        color:#36404d;
      }
      </style><style
       type="text/css"
       id="current-color-scheme-67-6">
      .ColorScheme-Text {
        color:#122036;
      }
      </style><style
       type="text/css"
       id="current-color-scheme-7-2">
      .ColorScheme-Text {
        color:#122036;
      }
      </style><style
       type="text/css"
       id="current-color-scheme-5-9">
      .ColorScheme-Text {
        color:#122036;
      }
      </style><style
       type="text/css"
       id="current-color-scheme-6-1">
      .ColorScheme-Text {
        color:#122036;
      }
      </style><style
       type="text/css"
       id="current-color-scheme-1-27">
      .ColorScheme-Text {
        color:#122036;
      }
      </style><style
       id="current-color-scheme-10-0"
       type="text/css">
      .ColorScheme-Text {
        color:#122036;
      }
      </style><style
       id="current-color-scheme-5-7-9"
       type="text/css">
      .ColorScheme-Text {
        color:#122036;
      }
      </style><style
       id="current-color-scheme-1-2-3"
       type="text/css">
      .ColorScheme-Text {
        color:#122036;
      }
      </style><style
       type="text/css"
       id="current-color-scheme-10-9-6">
      .ColorScheme-Text {
        color:#122036;
      }
      </style><style
       type="text/css"
       id="current-color-scheme-3">
      .ColorScheme-Text {
        color:#36404d;
      }
      </style><style
       type="text/css"
       id="current-color-scheme-67-5">
      .ColorScheme-Text {
        color:#122036;
      }
      </style><style
       type="text/css"
       id="current-color-scheme-7-6">
      .ColorScheme-Text {
        color:#122036;
      }
      </style><style
       type="text/css"
       id="current-color-scheme-5-2">
      .ColorScheme-Text {
        color:#122036;
      }
      </style><style
       type="text/css"
       id="current-color-scheme-6-9">
      .ColorScheme-Text {
        color:#122036;
      }
      </style><style
       type="text/css"
       id="current-color-scheme-1-1">
      .ColorScheme-Text {
        color:#122036;
      }
      </style><style
       id="current-color-scheme-10-2"
       type="text/css">
      .ColorScheme-Text {
        color:#122036;
      }
      </style><style
       id="current-color-scheme-5-7-7"
       type="text/css">
      .ColorScheme-Text {
        color:#122036;
      }
      </style><style
       id="current-color-scheme-1-2-0"
       type="text/css">
      .ColorScheme-Text {
        color:#122036;
      }
      </style><style
       type="text/css"
       id="current-color-scheme-10-9-9">
      .ColorScheme-Text {
        color:#122036;
      }
      </style></defs><g
     inkscape:label="Capa 1"
     inkscape:groupmode="layer"
     id="layer1"><g
       id="path3904-7-5" /><path
       style="fill:#44acff;stroke-width:0.0273159"
       d="M 9.4727226,19.982539 C 9.1023028,19.893718 8.7908727,19.673458 8.6120642,19.373836 l -0.1116096,-0.187018 -0.00808,-2.431315 c -0.0047,-1.417064 -0.019335,-2.431315 -0.03506,-2.431315 -0.01484,0 -0.7540808,0.466534 -1.6427581,1.03674 -0.8886774,0.570207 -1.68951,1.07373 -1.7796276,1.118939 C 4.8259852,16.584691 4.713066,16.612445 4.4284669,16.628932 3.8909108,16.660072 3.4038622,16.418086 3.1500452,15.993761 3.0552332,15.835255 3.039241,15.782461 3.028221,15.591557 3.018149,15.417113 3.028599,15.336189 3.078899,15.199032 3.2044113,14.85679 3.155475,14.89255 5.9431107,13.106077 L 8.4839192,11.477784 8.483162,11.017884 8.4824051,10.557985 6.4240686,9.2404349 C 3.3954409,7.3018002 3.4088609,7.3106269 3.2854295,7.1760882 3.0933296,6.9667014 3.0395205,6.8206358 3.0385377,6.5058975 3.0377349,6.2488232 3.0434639,6.222337 3.1341845,6.063708 3.2479644,5.8647584 3.5007497,5.6344686 3.7078089,5.5411311 4.1448165,5.3441377 4.6893151,5.3606974 5.0883793,5.5831171 5.1704683,5.6288701 5.9547065,6.1264913 6.8311299,6.688942 7.7075536,7.2513922 8.438053,7.7115791 8.454462,7.7115791 c 0.019511,0 0.03263,-0.840864 0.037914,-2.4300094 l 0.00809,-2.4300094 0.0965,-0.1687359 c 0.1137789,-0.198949 0.3665643,-0.4292386 0.5736235,-0.5225763 0.4266137,-0.1923082 0.9590675,-0.181387 1.3571985,0.027838 0.228356,0.1200049 6.967605,4.5731333 7.112313,4.6996388 0.4603,0.4024028 0.477634,1.0448708 0.03962,1.468689 -0.05504,0.053249 -0.990821,0.668536 -2.079532,1.3673066 -1.08871,0.6987705 -1.985171,1.2786135 -1.992137,1.2885415 -0.0069,0.01 0.885555,0.593973 1.983379,1.297873 1.097827,0.703901 2.040517,1.324769 2.094869,1.379706 0.438131,0.442839 0.414223,1.060381 -0.05679,1.466935 -0.148414,0.128104 -6.818894,4.539991 -7.080507,4.683081 -0.07016,0.03838 -0.188345,0.08973 -0.262634,0.114118 -0.175714,0.05769 -0.6262076,0.07351 -0.8136384,0.02857 z m 3.3790144,-4.496628 c 0.885282,-0.58476 1.601855,-1.073583 1.592383,-1.086275 -0.0094,-0.01269 -0.128301,-0.09417 -0.264064,-0.18104 -0.135764,-0.08688 -0.818162,-0.52483 -1.516436,-0.973225 l -1.269595,-0.815263 -0.103397,0.05832 -0.103397,0.05832 -2.04e-4,2.00947 c -1.24e-4,1.214902 0.01074,2.006195 0.02744,2.001185 0.01521,-0.0046 0.75198,-0.486725 1.637263,-1.071482 z m 0.06431,-6.8545321 c 0.819525,-0.5263985 1.505202,-0.9657255 1.523736,-0.9762824 0.02188,-0.012463 -0.01368,-0.052715 -0.101374,-0.1147728 -0.22515,-0.1593218 -3.119384,-2.0660926 -3.136067,-2.0660926 -0.0085,0 -0.01554,0.9010694 -0.01554,2.0023768 v 2.0023764 l 0.08254,0.060544 c 0.04539,0.0333 0.09922,0.057933 0.119608,0.054741 0.02039,-0.00319 0.707578,-0.4364929 1.527095,-0.9628913 z"
       id="path1" /><path
       style="fill:#44acff;fill-opacity:1;stroke-width:0.0629579"
       d="M 4.0806894,12.381894 C 3.9696435,12.357546 3.7558915,12.274093 3.6056814,12.19643 2.839364,11.800247 2.7136599,10.816818 3.3540385,10.22775 c 0.884312,-0.8134541 2.3362379,-0.2623653 2.347928,0.891173 0.00387,0.381901 -0.062829,0.562786 -0.3052551,0.827805 -0.3118397,0.340902 -0.8836165,0.529971 -1.316022,0.435166 z"
       id="path5-6"
       inkscape:transform-center-x="1.0679737"
       inkscape:transform-center-y="-0.058548344" /><path
       style="fill:#44acff;fill-opacity:1;stroke-width:0.0629579"
       d="m 17.50007,12.273756 c -0.111046,-0.02435 -0.324798,-0.107801 -0.475008,-0.185464 -0.766318,-0.396183 -0.892022,-1.379612 -0.251643,-1.96868 0.884312,-0.8134539 2.336238,-0.2623651 2.347928,0.891173 0.0039,0.381901 -0.06283,0.562786 -0.305255,0.827805 -0.31184,0.340902 -0.883617,0.529971 -1.316022,0.435166 z"
       id="path5-6-4"
       inkscape:transform-center-x="1.0679737"
       inkscape:transform-center-y="-0.058548344" /></g></svg>
