<?xml version="1.0" encoding="UTF-8" standalone="no"?>
<svg
   height="22"
   viewBox="0 0 22 22"
   width="22"
   version="1.1"
   id="svg18"
   sodipodi:docname="network-mobile-100-locked.svg"
   inkscape:version="1.3.2 (091e20ef0f, 2023-11-25, custom)"
   xmlns:inkscape="http://www.inkscape.org/namespaces/inkscape"
   xmlns:sodipodi="http://sodipodi.sourceforge.net/DTD/sodipodi-0.dtd"
   xmlns="http://www.w3.org/2000/svg"
   xmlns:svg="http://www.w3.org/2000/svg">
  <defs
     id="defs18" />
  <sodipodi:namedview
     id="namedview18"
     pagecolor="#ffffff"
     bordercolor="#000000"
     borderopacity="0.25"
     inkscape:showpageshadow="2"
     inkscape:pageopacity="0.0"
     inkscape:pagecheckerboard="0"
     inkscape:deskcolor="#d1d1d1"
     inkscape:zoom="26.363637"
     inkscape:cx="22.360345"
     inkscape:cy="11.189655"
     inkscape:window-width="2560"
     inkscape:window-height="1364"
     inkscape:window-x="0"
     inkscape:window-y="0"
     inkscape:window-maximized="1"
     inkscape:current-layer="svg18" />
  <linearGradient
     id="a"
     gradientUnits="userSpaceOnUse"
     x1="11"
     x2="11"
     y1="19.95339"
     y2="3">
    <stop
       offset="0"
       stop-color="#4a9ef1"
       id="stop1" />
    <stop
       offset="1"
       stop-color="#a2cff9"
       id="stop2" />
  </linearGradient>
  <linearGradient
     id="b"
     gradientUnits="userSpaceOnUse"
     x1="17"
     x2="17"
     y1="15"
     y2="10">
    <stop
       offset="0"
       stop-color="#d1e4e4"
       id="stop3" />
    <stop
       offset="1"
       stop-color="#fafafa"
       id="stop4" />
  </linearGradient>
  <linearGradient
     id="c"
     gradientUnits="userSpaceOnUse"
     x1="17"
     x2="17"
     y1="21"
     y2="16">
    <stop
       offset="0"
       stop-color="#dca34a"
       id="stop5" />
    <stop
       offset="1"
       stop-color="#e3bd85"
       id="stop6" />
  </linearGradient>
  <g
     stroke-linecap="round"
     stroke-linejoin="round"
     id="g14"
     style="fill:#4f92db;fill-opacity:1">
    <path
       d="m 18,1 c 1.108,0 2,0.892 2,2 v 8 c 0,1.108 -0.892,2 -2,2 -1.108,0 -2,-0.892 -2,-2 V 3 c 0,-1.108 0.892,-2 2,-2 z"
       fill="#3172ca"
       stroke-width="2"
       id="path6"
       sodipodi:nodetypes="sssssss"
       style="fill:#4f92db;fill-opacity:1" />
    <path
       d="m13 5c1.108 0 2 .892 2 2v8c0 1.108-.892 2-2 2s-2-.892-2-2v-8c0-1.108.892-2 2-2z"
       fill="#3172ca"
       stroke-width="1.73205"
       id="path7"
       style="fill:#4f92db;fill-opacity:1" />
    <path
       d="m8 9c1.108 0 2 .892 2 2v4c0 1.108-.892 2-2 2s-2-.892-2-2v-4c0-1.108.892-2 2-2z"
       fill="#3172ca"
       stroke-width="1.41421"
       id="path8"
       style="fill:#4f92db;fill-opacity:1" />
    <path
       d="m3 13c1.108 0 2 .892 2 2s-.892 2-2 2-2-.892-2-2 .892-2 2-2z"
       fill="#3172ca"
       id="path9"
       style="fill:#4f92db;fill-opacity:1" />
    <path
       d="m17.95339 18h.09322c1.082178 0 1.95339.871212 1.95339 1.95339v.09322c0 1.082178-.871212 1.95339-1.95339 1.95339h-.09322c-1.082178 0-1.95339-.871212-1.95339-1.95339v-.09322c0-1.082178.871212-1.95339 1.95339-1.95339z"
       fill="#3172ca"
       stroke-width="2"
       id="path10"
       style="fill:#4f92db;fill-opacity:1" />
    <path
       d="m12.95339 18h.09322c1.082178 0 1.95339.871212 1.95339 1.95339v.09322c0 1.082178-.871212 1.95339-1.95339 1.95339h-.09322c-1.082178 0-1.95339-.871212-1.95339-1.95339v-.09322c0-1.082178.871212-1.95339 1.95339-1.95339z"
       fill="#3172ca"
       stroke-width="2"
       id="path11"
       style="fill:#4f92db;fill-opacity:1" />
    <path
       d="m7.9533899 18h.09322c1.0821782 0 1.9533901.871212 1.9533901 1.95339v.09322c0 1.082178-.8712119 1.95339-1.9533899 1.95339h-.09322c-1.0821782 0-1.9533901-.871212-1.9533901-1.95339v-.09322c0-1.082178.8712119-1.95339 1.9533899-1.95339z"
       fill="#3172ca"
       stroke-width="2"
       id="path12"
       style="fill:#4f92db;fill-opacity:1" />
    <path
       d="m2.9533899 18h.09322c1.0821782 0 1.9533901.871212 1.9533901 1.95339v.09322c0 1.082178-.8712119 1.95339-1.9533899 1.95339h-.09322c-1.0821782 0-1.9533901-.871212-1.9533901-1.95339v-.09322c0-1.082178.8712119-1.95339 1.9533899-1.95339z"
       fill="#3172ca"
       stroke-width="2"
       id="path13"
       style="fill:#4f92db;fill-opacity:1" />
    <path
       d="m 18,2 c -0.553999,0 -1,0.4460006 -1,1 v 8 c 0,0.553999 0.446001,1 1,1 0.553999,0 1,-0.446001 1,-1 V 3 C 19,2.4460006 18.553999,2 18,2 Z m -5,4 c -0.553999,0 -1,0.4460006 -1,1 v 8 c 0,0.553999 0.446001,1 1,1 0.553999,0 1,-0.446001 1,-1 V 7 C 14,6.4460006 13.553999,6 13,6 Z m -5,4 c -0.5539994,0 -1,0.446001 -1,1 v 4 c 0,0.553999 0.4460006,1 1,1 0.5539994,0 1,-0.446001 1,-1 V 11 C 9,10.446001 8.5539994,10 8,10 Z m -5,4 c -0.5539994,0 -1,0.446001 -1,1 0,0.553999 0.4460006,1 1,1 0.5539994,0 1,-0.446001 1,-1 0,-0.553999 -0.4460006,-1 -1,-1 z m 0,5 c -0.5539994,0 -1,0.446001 -1,1 0,0.553999 0.4460006,1 1,1 0.5539994,0 1,-0.446001 1,-1 0,-0.553999 -0.4460006,-1 -1,-1 z m 5,0 c -0.5539994,0 -1,0.446001 -1,1 0,0.553999 0.4460006,1 1,1 0.5539994,0 1,-0.446001 1,-1 0,-0.553999 -0.4460006,-1 -1,-1 z m 5,0 c -0.553999,0 -1,0.446001 -1,1 0,0.553999 0.446001,1 1,1 0.553999,0 1,-0.446001 1,-1 0,-0.553999 -0.446001,-1 -1,-1 z m 5,0 c -0.553999,0 -1,0.446001 -1,1 0,0.553999 0.446001,1 1,1 0.553999,0 1,-0.446001 1,-1 0,-0.553999 -0.446001,-1 -1,-1 z"
       fill="url(#a)"
       stroke-width="0.5"
       id="path14"
       sodipodi:nodetypes="ssssssssssssssssssssssssssssssssssssssssssssss"
       style="fill:#5ac0ff;fill-opacity:1" />
  </g>
  <g
     id="g2"
     transform="translate(-84,-29.999996)">
    <path
       id="path2365-9"
       style="fill:#a3b7cc;fill-opacity:1;stroke:none;stroke-width:2;stroke-linecap:round;stroke-linejoin:round;stroke-miterlimit:1.8;stroke-dasharray:none;stroke-opacity:1;paint-order:fill markers stroke;stop-color:#000000"
       d="m 101,39.999996 c -2.215999,0 -3.999999,1.784 -3.999999,4 v 1 H 100 v -1 c 0,-0.554 0.446,-1 1,-1 0.554,0 1,0.446 1,1 v 1 h 3 v -1 c 0,-2.216 -1.784,-4 -4,-4 z" />
    <path
       id="path2333-7"
       style="fill:#e1ebf2;fill-opacity:1;stroke:none;stroke-width:2;stroke-linecap:round;stroke-linejoin:round;stroke-miterlimit:1.8;stroke-dasharray:none;stroke-opacity:1;paint-order:fill markers stroke;stop-color:#000000"
       d="m 101,40.999996 c -1.661999,0 -2.999999,1.338 -2.999999,3 v 1 h 1 v -1 c 0,-1.108 0.892,-2 1.999999,-2 1.108,0 2,0.892 2,2 v 1 h 1 v -1 c 0,-1.662 -1.338,-3 -3,-3 z" />
    <path
       id="rect214703-6"
       style="fill:#f6ac23;fill-opacity:1;stroke:none;stroke-width:2;stroke-linecap:round;stroke-linejoin:round;stroke-miterlimit:1.8;stroke-dasharray:none;stroke-opacity:1;paint-order:fill markers stroke;stop-color:#000000"
       d="m 97.000001,44.999996 c -0.554,0 -1,0.446 -1,1 v 5 c 0,0.554 0.446,1 1,1 H 101 h 4 c 0.554,0 1,-0.446 1,-1 v -5 c 0,-0.554 -0.446,-1 -1,-1 h -3 -2 z" />
    <path
       id="path2337-3"
       style="fill:#fcd277;fill-opacity:1;stroke:none;stroke-width:2;stroke-linecap:round;stroke-linejoin:round;stroke-miterlimit:1.8;stroke-dasharray:none;stroke-opacity:1;paint-order:fill markers stroke;stop-color:#000000"
       d="m 104,45.999996 h -1 -3.999999 -1 -1 v 5 H 101 h 4 v -5 z" />
  </g>
</svg>
