<?xml version="1.0" encoding="UTF-8" standalone="no"?>
<!-- Created with Inkscape (http://www.inkscape.org/) -->

<svg
   width="22"
   height="22"
   viewBox="0 0 22 22"
   version="1.1"
   id="svg1"
   inkscape:version="1.4.2 (ebf0e940d0, 2025-05-08)"
   sodipodi:docname="network-wireless-40-locked.svg"
   xmlns:inkscape="http://www.inkscape.org/namespaces/inkscape"
   xmlns:sodipodi="http://sodipodi.sourceforge.net/DTD/sodipodi-0.dtd"
   xmlns="http://www.w3.org/2000/svg"
   xmlns:svg="http://www.w3.org/2000/svg">
  <sodipodi:namedview
     id="namedview1"
     pagecolor="#ffffff"
     bordercolor="#000000"
     borderopacity="0.25"
     inkscape:showpageshadow="false"
     inkscape:pageopacity="0.0"
     inkscape:pagecheckerboard="true"
     inkscape:deskcolor="#d1d1d1"
     inkscape:document-units="px"
     inkscape:zoom="23.221672"
     inkscape:cx="15.567354"
     inkscape:cy="15.265912"
     inkscape:window-width="1920"
     inkscape:window-height="1006"
     inkscape:window-x="0"
     inkscape:window-y="0"
     inkscape:window-maximized="1"
     inkscape:current-layer="g1"
     showguides="false"
     showgrid="true">
    <inkscape:grid
       id="grid1"
       units="px"
       originx="0"
       originy="0"
       spacingx="1"
       spacingy="1"
       empcolor="#0099e5"
       empopacity="0.30196078"
       color="#0099e5"
       opacity="0.14901961"
       empspacing="5"
       enabled="true"
       visible="true" />
  </sodipodi:namedview>
  <defs
     id="defs1" />
  <g
     inkscape:label="Capa 1"
     inkscape:groupmode="layer"
     id="layer1">
    <g
       id="g1"
       transform="translate(-84,-29.999996)">
      <g
         id="path5"
         transform="matrix(0.65812505,0,0,0.7264534,-109.42271,-103.76616)">
        <path
           style="color:#000000;fill:#f37d5c;fill-opacity:1;stroke-linecap:round;stroke-linejoin:round;-inkscape-stroke:none;paint-order:stroke fill markers"
           d="m 311.01121,204.79102 c -1.45667,-0.0747 -2.88527,0.4317 -3.96875,1.4082 -0.56434,0.50877 -0.60979,1.37854 -0.10156,1.94336 l 2.76367,3.06836 c 0.54981,0.61156 1.50966,0.60782 2.05469,-0.008 l 2.73632,-3.09375 c 0.50245,-0.56926 0.44915,-1.43785 -0.11914,-1.9414 -0.93356,-0.82667 -2.11993,-1.31259 -3.36523,-1.37695 z"
           id="path2" />
        <path
           style="color:#000000;fill:#f37d5c;fill-opacity:1;stroke-linecap:round;stroke-linejoin:round;-inkscape-stroke:none;paint-order:stroke fill markers"
           d="m 310.75744,196.52344 c -3.40315,-0.007 -6.6997,1.24882 -9.24023,3.53711 -0.56633,0.50969 -0.61097,1.38244 -0.0996,1.94726 l 2.77539,3.06641 c 0.50914,0.56248 1.37738,0.60702 1.94141,0.0996 2.60722,-2.34785 6.53203,-2.36713 9.1621,-0.0449 0.56926,0.50246 1.43786,0.44916 1.94141,-0.11914 l 2.73047,-3.08594 c 0.50378,-0.56953 0.45043,-1.43963 -0.11914,-1.94336 -2.33301,-2.06459 -5.29897,-3.27607 -8.41016,-3.4375 -0.22866,-0.0118 -0.45591,-0.0191 -0.68164,-0.0195 z"
           id="path1" />
        <path
           style="color:#000000;fill:#a3b7cc;fill-opacity:1;stroke-linecap:round;stroke-linejoin:round;-inkscape-stroke:none;paint-order:stroke fill markers"
           d="m 310.77344,188.26562 c -5.44593,-0.0115 -10.71762,1.99668 -14.78321,5.65821 -0.56504,0.50951 -0.60965,1.38076 -0.0996,1.94531 l 2.77735,3.06836 c 0.50914,0.56247 1.37737,0.60702 1.9414,0.0996 5.72751,-5.15631 14.38303,-5.19663 20.15821,-0.0937 0.56926,0.50245 1.43785,0.44915 1.9414,-0.11914 l 2.73243,-3.08594 c 0.50378,-0.56953 0.45043,-1.43963 -0.11914,-1.94336 -3.73332,-3.30329 -8.47682,-5.24413 -13.45508,-5.50195 -0.36615,-0.0189 -0.73238,-0.0266 -1.09375,-0.0273 z"
           id="path3" />
        <path
           style="color:#000000;fill:#ffb8a3;fill-opacity:1;stroke-linecap:round;stroke-linejoin:round;-inkscape-stroke:none;paint-order:stroke fill markers"
           d="m 310.94074,206.1655 a 4.1296525,4.1296525 0 0 0 -2.97626,1.05661 l 2.76386,3.06766 2.73697,-3.09186 a 4.1296525,4.1296525 0 0 0 -2.52457,-1.03241 z"
           id="path7" />
        <path
           style="color:#000000;fill:#ffb8a3;fill-opacity:1;stroke-linecap:round;stroke-linejoin:round;-inkscape-stroke:none;paint-order:stroke fill markers"
           d="m 310.75522,197.90082 c -3.06298,-0.006 -6.02909,1.12364 -8.31576,3.18327 l 2.77461,3.06766 c 3.11865,-2.80839 7.84762,-2.83149 10.99359,-0.0538 l 2.7289,-3.08648 c -2.09988,-1.85828 -4.76805,-2.94925 -7.56834,-3.09455 -0.20489,-0.0106 -0.4088,-0.0157 -0.613,-0.0161 z"
           id="path6" />
        <path
           style="color:#000000;fill:#e1ebf2;fill-opacity:1;stroke-linecap:round;stroke-linejoin:round;-inkscape-stroke:none;paint-order:stroke fill markers"
           d="m 310.77132,189.64151 c -5.10574,-0.0108 -10.04772,1.87152 -13.85961,5.30456 l 2.7773,3.06767 c 6.23907,-5.61686 15.69886,-5.66082 21.98986,-0.10217 l 2.73159,-3.08649 c -3.50016,-3.09699 -7.94745,-4.91496 -12.6148,-5.15668 -0.34154,-0.0177 -0.68396,-0.0262 -1.02434,-0.0269 z"
           id="path4" />
      </g>
      <g
         id="g2"
         transform="matrix(0.65895666,0,0,0.64474655,34.074907,16.406148)">
        <path
           id="path2365-9"
           style="fill:#a3b7cc;fill-opacity:1;stroke:none;stroke-width:2;stroke-linecap:round;stroke-linejoin:round;stroke-miterlimit:1.8;stroke-dasharray:none;stroke-opacity:1;paint-order:fill markers stroke;stop-color:#000000"
           d="m 101,39.999996 c -2.215999,0 -3.999999,1.784 -3.999999,4 v 1 H 100 v -1 c 0,-0.554 0.446,-1 1,-1 0.554,0 1,0.446 1,1 v 1 h 3 v -1 c 0,-2.216 -1.784,-4 -4,-4 z" />
        <path
           id="path2333-7"
           style="fill:#e1ebf2;fill-opacity:1;stroke:none;stroke-width:2;stroke-linecap:round;stroke-linejoin:round;stroke-miterlimit:1.8;stroke-dasharray:none;stroke-opacity:1;paint-order:fill markers stroke;stop-color:#000000"
           d="m 101,40.999996 c -1.661999,0 -2.999999,1.338 -2.999999,3 v 1 h 1 v -1 c 0,-1.108 0.892,-2 1.999999,-2 1.108,0 2,0.892 2,2 v 1 h 1 v -1 c 0,-1.662 -1.338,-3 -3,-3 z" />
        <path
           id="rect214703-6"
           style="fill:#f6ac23;fill-opacity:1;stroke:none;stroke-width:2;stroke-linecap:round;stroke-linejoin:round;stroke-miterlimit:1.8;stroke-dasharray:none;stroke-opacity:1;paint-order:fill markers stroke;stop-color:#000000"
           d="m 97.000001,44.999996 c -0.554,0 -1,0.446 -1,1 v 5 c 0,0.554 0.446,1 1,1 H 101 h 4 c 0.554,0 1,-0.446 1,-1 v -5 c 0,-0.554 -0.446,-1 -1,-1 h -3 -2 z" />
        <path
           id="path2337-3"
           style="fill:#fcd277;fill-opacity:1;stroke:none;stroke-width:2;stroke-linecap:round;stroke-linejoin:round;stroke-miterlimit:1.8;stroke-dasharray:none;stroke-opacity:1;paint-order:fill markers stroke;stop-color:#000000"
           d="m 104,45.999996 h -1 -3.999999 -1 -1 v 5 H 101 h 4 v -5 z" />
      </g>
    </g>
  </g>
</svg>
