<?xml version="1.0" encoding="UTF-8" standalone="no"?>
<svg
   width="22"
   height="22"
   version="1.1"
   id="svg1"
   sodipodi:docname="network-wireless-bluetooth-symbolic.svg"
   inkscape:version="1.4.2 (ebf0e940d0, 2025-05-08)"
   xml:space="preserve"
   xmlns:inkscape="http://www.inkscape.org/namespaces/inkscape"
   xmlns:sodipodi="http://sodipodi.sourceforge.net/DTD/sodipodi-0.dtd"
   xmlns="http://www.w3.org/2000/svg"
   xmlns:svg="http://www.w3.org/2000/svg"><defs
     id="defs1"><style
       type="text/css"
       id="current-color-scheme-3">
      .ColorScheme-Text {
        color:#36404d;
      }
      </style><style
       type="text/css"
       id="current-color-scheme-67">
      .ColorScheme-Text {
        color:#122036;
      }
      </style><style
       type="text/css"
       id="current-color-scheme-7">
      .ColorScheme-Text {
        color:#122036;
      }
      </style><style
       type="text/css"
       id="current-color-scheme-5">
      .ColorScheme-Text {
        color:#122036;
      }
      </style><style
       type="text/css"
       id="current-color-scheme-6">
      .ColorScheme-Text {
        color:#122036;
      }
      </style><style
       type="text/css"
       id="current-color-scheme-1">
      .ColorScheme-Text {
        color:#122036;
      }
      </style><style
       id="current-color-scheme-10"
       type="text/css">
      .ColorScheme-Text {
        color:#122036;
      }
      </style><style
       id="current-color-scheme-5-7"
       type="text/css">
      .ColorScheme-Text {
        color:#122036;
      }
      </style><style
       id="current-color-scheme-1-2"
       type="text/css">
      .ColorScheme-Text {
        color:#122036;
      }
      </style><style
       type="text/css"
       id="current-color-scheme-10-9">
      .ColorScheme-Text {
        color:#122036;
      }
      </style><style
       type="text/css"
       id="current-color-scheme-3-7">
      .ColorScheme-Text {
        color:#122036;
      }
      </style><style
       type="text/css"
       id="current-color-scheme-1-5">
      .ColorScheme-Text {
        color:#122036;
      }
      </style><style
       id="current-color-scheme-10-3"
       type="text/css">
      .ColorScheme-Text {
        color:#122036;
      }
      </style><style
       id="current-color-scheme-5-5"
       type="text/css">
      .ColorScheme-Text {
        color:#122036;
      }
      </style><style
       id="current-color-scheme-1-2-62"
       type="text/css">
      .ColorScheme-Text {
        color:#122036;
      }
      </style><style
       type="text/css"
       id="current-color-scheme-10-9-9">
      .ColorScheme-Text {
        color:#122036;
      }
      </style><style
       type="text/css"
       id="current-color-scheme-6-1">
      .ColorScheme-Text {
        color:#122036;
      }
      </style><style
       type="text/css"
       id="current-color-scheme-1-9">
      .ColorScheme-Text {
        color:#122036;
      }
      </style><style
       id="current-color-scheme-10-1"
       type="text/css">
      .ColorScheme-Text {
        color:#122036;
      }
      </style><style
       type="text/css"
       id="current-color-scheme-675">
      .ColorScheme-Text {
        color:#36404d;
      }
      </style><style
       type="text/css"
       id="current-color-scheme-67-27">
      .ColorScheme-Text {
        color:#122036;
      }
      </style><style
       type="text/css"
       id="current-color-scheme-7-09">
      .ColorScheme-Text {
        color:#122036;
      }
      </style><style
       type="text/css"
       id="current-color-scheme-5-3">
      .ColorScheme-Text {
        color:#122036;
      }
      </style><style
       type="text/css"
       id="current-color-scheme-6-5">
      .ColorScheme-Text {
        color:#122036;
      }
      </style><style
       type="text/css"
       id="current-color-scheme-1-6">
      .ColorScheme-Text {
        color:#122036;
      }
      </style><style
       id="current-color-scheme-10-2"
       type="text/css">
      .ColorScheme-Text {
        color:#122036;
      }
      </style><style
       id="current-color-scheme-5-7-3"
       type="text/css">
      .ColorScheme-Text {
        color:#122036;
      }
      </style><style
       id="current-color-scheme-1-2-9"
       type="text/css">
      .ColorScheme-Text {
        color:#122036;
      }
      </style><style
       type="text/css"
       id="current-color-scheme-10-9-1">
      .ColorScheme-Text {
        color:#122036;
      }
      </style><style
       type="text/css"
       id="current-color-scheme-2">
      .ColorScheme-Text {
        color:#36404d;
      }
      </style><style
       type="text/css"
       id="current-color-scheme-67-7">
      .ColorScheme-Text {
        color:#122036;
      }
      </style><style
       type="text/css"
       id="current-color-scheme-7-0">
      .ColorScheme-Text {
        color:#122036;
      }
      </style><style
       type="text/css"
       id="current-color-scheme-5-9">
      .ColorScheme-Text {
        color:#122036;
      }
      </style><style
       type="text/css"
       id="current-color-scheme-6-3">
      .ColorScheme-Text {
        color:#122036;
      }
      </style><style
       type="text/css"
       id="current-color-scheme-1-60">
      .ColorScheme-Text {
        color:#122036;
      }
      </style><style
       id="current-color-scheme-10-6"
       type="text/css">
      .ColorScheme-Text {
        color:#122036;
      }
      </style><style
       id="current-color-scheme-5-7-2"
       type="text/css">
      .ColorScheme-Text {
        color:#122036;
      }
      </style><style
       id="current-color-scheme-1-2-6"
       type="text/css">
      .ColorScheme-Text {
        color:#122036;
      }
      </style><style
       type="text/css"
       id="current-color-scheme-10-9-18">
      .ColorScheme-Text {
        color:#122036;
      }
      </style><style
       type="text/css"
       id="current-color-scheme-79">
      .ColorScheme-Text {
        color:#36404d;
      }
      </style><style
       type="text/css"
       id="current-color-scheme-67-2">
      .ColorScheme-Text {
        color:#122036;
      }
      </style><style
       type="text/css"
       id="current-color-scheme-7-02">
      .ColorScheme-Text {
        color:#122036;
      }
      </style><style
       type="text/css"
       id="current-color-scheme-5-37">
      .ColorScheme-Text {
        color:#122036;
      }
      </style><style
       type="text/css"
       id="current-color-scheme-6-59">
      .ColorScheme-Text {
        color:#122036;
      }
      </style><style
       type="text/css"
       id="current-color-scheme-1-22">
      .ColorScheme-Text {
        color:#122036;
      }
      </style><style
       id="current-color-scheme-10-8"
       type="text/css">
      .ColorScheme-Text {
        color:#122036;
      }
      </style><style
       id="current-color-scheme-5-7-9"
       type="text/css">
      .ColorScheme-Text {
        color:#122036;
      }
      </style><style
       id="current-color-scheme-1-2-7"
       type="text/css">
      .ColorScheme-Text {
        color:#122036;
      }
      </style><style
       type="text/css"
       id="current-color-scheme-10-9-3">
      .ColorScheme-Text {
        color:#122036;
      }
      </style><style
       id="current-color-scheme-53"
       type="text/css">
      .ColorScheme-Text {
        color:#122036;
      }
      </style><style
       id="current-color-scheme-6-5-6"
       type="text/css">
      .ColorScheme-Text {
        color:#122036;
      }
      </style><style
       type="text/css"
       id="current-color-scheme-9-6">
      .ColorScheme-Text {
        color:#36404d;
      }
      </style><style
       id="current-color-scheme-3-1"
       type="text/css">
      .ColorScheme-Text {
        color:#36404d;
      }
      </style><style
       id="current-color-scheme-675-2"
       type="text/css">
      .ColorScheme-Text {
        color:#122036;
      }
      </style><style
       id="current-color-scheme-2-9"
       type="text/css">
      .ColorScheme-Text {
        color:#122036;
      }
      </style><style
       id="current-color-scheme-0"
       type="text/css">
      .ColorScheme-Text {
        color:#122036;
      }
      </style><style
       type="text/css"
       id="current-color-scheme-92">
      .ColorScheme-Text {
        color:#36404d;
      }
      </style><style
       type="text/css"
       id="current-color-scheme-67-0">
      .ColorScheme-Text {
        color:#122036;
      }
      </style><style
       type="text/css"
       id="current-color-scheme-7-2">
      .ColorScheme-Text {
        color:#122036;
      }
      </style><style
       type="text/css"
       id="current-color-scheme-5-375">
      .ColorScheme-Text {
        color:#122036;
      }
      </style><style
       type="text/css"
       id="current-color-scheme-6-9">
      .ColorScheme-Text {
        color:#122036;
      }
      </style><style
       type="text/css"
       id="current-color-scheme-1-228">
      .ColorScheme-Text {
        color:#122036;
      }
      </style><style
       id="current-color-scheme-10-97"
       type="text/css">
      .ColorScheme-Text {
        color:#122036;
      }
      </style><style
       id="current-color-scheme-5-7-36"
       type="text/css">
      .ColorScheme-Text {
        color:#122036;
      }
      </style><style
       id="current-color-scheme-1-2-1"
       type="text/css">
      .ColorScheme-Text {
        color:#122036;
      }
      </style><style
       type="text/css"
       id="current-color-scheme-10-9-2">
      .ColorScheme-Text {
        color:#122036;
      }
      </style></defs><sodipodi:namedview
     id="namedview1"
     pagecolor="#ffffff"
     bordercolor="#000000"
     borderopacity="0.25"
     inkscape:showpageshadow="2"
     inkscape:pageopacity="0.0"
     inkscape:pagecheckerboard="0"
     inkscape:deskcolor="#d1d1d1"
     showgrid="true"
     inkscape:zoom="22.627417"
     inkscape:cx="0.46403883"
     inkscape:cy="17.478796"
     inkscape:window-width="1920"
     inkscape:window-height="1006"
     inkscape:window-x="0"
     inkscape:window-y="0"
     inkscape:window-maximized="1"
     inkscape:current-layer="svg1"><inkscape:grid
       id="grid1"
       units="px"
       originx="0"
       originy="0"
       spacingx="1"
       spacingy="1"
       empcolor="#0099e5"
       empopacity="0.30196078"
       color="#0099e5"
       opacity="0.14902"
       empspacing="5"
       dotted="false"
       gridanglex="30"
       gridanglez="30"
       visible="true" /></sodipodi:namedview><style
     type="text/css"
     id="current-color-scheme">
      .ColorScheme-Text {
        color:#31363b;
      }
      .ColorScheme-Background {
        color:#eff0f1;
      }
      .ColorScheme-Highlight {
        color:#3498db;
      }
      .ColorScheme-ViewText {
        color:#31363b;
      }
      .ColorScheme-ViewBackground {
        color:#fcfcfc;
      }
      .ColorScheme-ViewHover {
        color:#93cee9;
      }
      .ColorScheme-ViewFocus{
        color:#3daee9;
      }
      .ColorScheme-ButtonText {
        color:#31363b;
      }
      .ColorScheme-ButtonBackground {
        color:#eff0f1;
      }
      .ColorScheme-ButtonHover {
        color:#93cee9;
      }
      .ColorScheme-ButtonFocus{
        color:#3daee9;
      }
      .ColorScheme-NegativeText{
        color:#e74c3c;
      }
      </style><g
     id="g1"
     transform="matrix(0.91151635,0,0,1,26.380444,-15.36995)"><path
       style="color:#000000;fill:#4f92db;fill-opacity:1;stroke-width:0.726453;stroke-linecap:round;stroke-linejoin:round;-inkscape-stroke:none;paint-order:stroke fill markers"
       d="m -16.756454,18.369986 c -3.956214,-0.0084 -7.785851,1.450495 -10.739313,4.110426 -0.410475,0.370135 -0.442882,1.003058 -0.07235,1.413177 l 2.017616,2.22902 c 0.369866,0.408609 1.000595,0.440972 1.410336,0.07235 4.160769,-3.745819 10.448601,-3.775109 14.6439999,-0.06807 0.4135409,0.365007 1.044531,0.326287 1.4103366,-0.08655 l 1.9849831,-2.241792 c 0.3659726,-0.413737 0.3272163,-1.045824 -0.08655,-1.41176 -2.7120829,-2.399686 -6.1580146,-3.809616 -9.7744876,-3.99691 -0.265991,-0.01373 -0.53204,-0.01932 -0.794559,-0.01983 z m -0.01162,5.998921 c -2.47223,-0.0051 -4.86702,0.90721 -6.712597,2.569546 -0.411412,0.370266 -0.443841,1.004278 -0.07235,1.414593 l 2.016191,2.227604 c 0.369866,0.408616 1.000602,0.440972 1.410344,0.07236 1.894024,-1.705604 4.745215,-1.71961 6.655838,-0.03262 0.413541,0.365014 1.044539,0.326294 1.410344,-0.08655 l 1.983559,-2.241792 c 0.3659731,-0.413737 0.3272168,-1.045824 -0.08655,-1.41176 -1.694823,-1.499829 -3.849455,-2.379912 -6.109589,-2.497184 -0.166111,-0.0086 -0.331198,-0.01388 -0.49518,-0.01417 z m 0.184352,6.006012 c -1.058203,-0.05427 -2.096014,0.31361 -2.883112,1.022991 -0.409967,0.369598 -0.442984,1.001445 -0.07378,1.411761 l 2.007678,2.22902 c 0.399411,0.44427 1.096697,0.441553 1.492636,-0.0058 l 1.987809,-2.247466 c 0.365007,-0.41354 0.326287,-1.044531 -0.08655,-1.410336 -0.678187,-0.600537 -1.54003,-0.953536 -2.444682,-1.00029 z"
       id="path3-8"
       sodipodi:nodetypes="ccccccccccccccccccccccccccccccccc" /><path
       style="color:#000000;fill:#5ac0ff;fill-opacity:1;stroke-width:0.726453;stroke-linecap:round;stroke-linejoin:round;-inkscape-stroke:none;paint-order:stroke fill markers"
       d="m -16.757994,19.369506 c -3.709082,-0.0078 -7.2992,1.359572 -10.068361,3.853515 l 2.017579,2.22852 c 4.532394,-4.080387 11.40449,-4.112322 15.9746084,-0.07422 l 1.9843728,-2.242191 c -2.5427031,-2.249819 -5.7734522,-3.570489 -9.1640642,-3.746088 -0.248113,-0.01286 -0.496865,-0.01903 -0.744135,-0.01954 z m -0.0117,6.000004 c -2.225112,-0.0044 -4.379853,0.816272 -6.041012,2.312497 l 2.015625,2.228512 c 2.265554,-2.040165 5.70093,-2.056946 7.98633,-0.03908 l 1.982419,-2.242184 c -1.525465,-1.349954 -3.463766,-2.142493 -5.498046,-2.248047 -0.148843,-0.0077 -0.296974,-0.0114 -0.445316,-0.0117 z m 0.134772,6.003904 a 3,3 0 0 0 -2.162115,0.767578 l 2.007816,2.228512 1.988281,-2.246092 a 3,3 0 0 0 -1.833982,-0.749998 z"
       id="path4-7" /></g><g
     id="g2"
     transform="matrix(0.60225244,0,0,0.58331208,6.6291261,7.2225907)"><rect
       style="fill:#137acb;fill-opacity:1;stroke:none;stroke-width:1;stroke-linecap:round;stroke-linejoin:round;stroke-dasharray:none;stroke-opacity:1;paint-order:stroke fill markers"
       id="rect11"
       width="10"
       height="14"
       x="12"
       y="8"
       ry="5" /><rect
       style="fill:#44acff;fill-opacity:1;stroke:none;stroke-width:1;stroke-linecap:round;stroke-linejoin:round;stroke-dasharray:none;stroke-opacity:1;paint-order:stroke fill markers"
       id="rect12"
       width="8.000001"
       height="12.000001"
       x="13"
       y="9"
       ry="4.0000005" /><path
       id="path15"
       style="color:#000000;fill:#e5f3ff;fill-opacity:1;stroke-width:1.88976;stroke-linecap:round;stroke-linejoin:round;-inkscape-stroke:none;paint-order:stroke fill markers"
       d="M 17.076172,10.003906 A 1.0000969,1.0000969 0 0 0 16.615234,10.078125 1.0000969,1.0000969 0 0 0 16,11 v 1.589844 c -0.08245,-0.08311 -0.272219,-0.273905 -0.277344,-0.279297 A 0.99999692,0.99999692 0 0 0 15.025391,12 0.99999692,0.99999692 0 0 0 14.308594,12.273437 0.99999692,0.99999692 0 0 0 14.271484,13.6875 c 0.150339,0.158194 0.687707,0.696016 1.304688,1.3125 -0.616981,0.616483 -1.15435,1.152353 -1.304688,1.310547 a 0.99999692,0.99999692 0 0 0 0.03711,1.414062 0.99999692,0.99999692 0 0 0 1.414062,-0.03711 C 15.72602,17.683947 15.961765,17.448642 16,17.410156 v 1.591797 a 1.0000969,1.0000969 0 0 0 0.615234,0.923828 1.0000969,1.0000969 0 0 0 1.089844,-0.214844 l 2,-2 a 1.0000969,1.0000969 0 0 0 0.152343,-0.199218 1.0000969,1.0000969 0 0 0 0.03906,-0.07227 1.0000969,1.0000969 0 0 0 0.0332,-0.07617 1.0000969,1.0000969 0 0 0 0.02734,-0.07813 0.99999692,0.99999692 0 0 0 0.01366,-0.05273 1.0000969,1.0000969 0 0 0 0.0059,-0.02734 0.99999692,0.99999692 0 0 0 0.0019,-0.01172 1.0000969,1.0000969 0 0 0 0.01172,-0.06836 1.0000969,1.0000969 0 0 0 0,-0.0019 0.99999692,0.99999692 0 0 0 0,-0.0019 1.0000969,1.0000969 0 0 0 0.0059,-0.08008 1.0000969,1.0000969 0 0 0 0,-0.08203 1.0000969,1.0000969 0 0 0 -0.0039,-0.06445 1.0000969,1.0000969 0 0 0 -0.0019,-0.01757 0.99999692,0.99999692 0 0 0 -0.0059,-0.03906 1.0000969,1.0000969 0 0 0 -0.0078,-0.04297 0.99999692,0.99999692 0 0 0 -0.0078,-0.03516 1.0000969,1.0000969 0 0 0 -0.0039,-0.01172 0.99999692,0.99999692 0 0 0 -0.01953,-0.06445 0.99999692,0.99999692 0 0 0 -0.02539,-0.07031 0.99999692,0.99999692 0 0 0 -0.0019,-0.0039 1.0000969,1.0000969 0 0 0 -0.0019,-0.0039 0.99999692,0.99999692 0 0 0 -0.117188,-0.201172 0.99999692,0.99999692 0 0 0 -0.09375,-0.111328 c 0,0 -0.714941,-0.713246 -1.296875,-1.292969 0.581273,-0.579063 1.296875,-1.291015 1.296875,-1.291015 a 0.99999692,0.99999692 0 0 0 0.21289,-0.316407 1.0000969,1.0000969 0 0 0 0.0019,-0.0039 0.99999692,0.99999692 0 0 0 0.04883,-0.146485 1.0000969,1.0000969 0 0 0 0.0078,-0.03516 0.99999692,0.99999692 0 0 0 0.0078,-0.04297 1.0000969,1.0000969 0 0 0 0.0019,-0.0098 0.99999692,0.99999692 0 0 0 0.0078,-0.06836 1.0000969,1.0000969 0 0 0 -0.0039,-0.207032 0.99999692,0.99999692 0 0 0 -0.0039,-0.0293 1.0000969,1.0000969 0 0 0 -0.0098,-0.05273 0.99999692,0.99999692 0 0 0 -0.0059,-0.02539 1.0000969,1.0000969 0 0 0 -0.01366,-0.05469 0.99999692,0.99999692 0 0 0 -0.0019,-0.0039 1.0000969,1.0000969 0 0 0 -0.24997,-0.419909 l -2,-2.001953 a 1.0000969,1.0000969 0 0 0 -0.628906,-0.28711 z" /></g><style
     type="text/css"
     id="current-color-scheme-9">
      .ColorScheme-Text {
        color:#31363b;
      }
      .ColorScheme-Background {
        color:#eff0f1;
      }
      .ColorScheme-Highlight {
        color:#3498db;
      }
      .ColorScheme-ViewText {
        color:#31363b;
      }
      .ColorScheme-ViewBackground {
        color:#fcfcfc;
      }
      .ColorScheme-ViewHover {
        color:#93cee9;
      }
      .ColorScheme-ViewFocus{
        color:#3daee9;
      }
      .ColorScheme-ButtonText {
        color:#31363b;
      }
      .ColorScheme-ButtonBackground {
        color:#eff0f1;
      }
      .ColorScheme-ButtonHover {
        color:#93cee9;
      }
      .ColorScheme-ButtonFocus{
        color:#3daee9;
      }
      .ColorScheme-NegativeText{
        color:#e74c3c;
      }
      </style><style
     type="text/css"
     id="current-color-scheme-26">
      .ColorScheme-Text {
        color:#31363b;
      }
      .ColorScheme-Background {
        color:#eff0f1;
      }
      .ColorScheme-Highlight {
        color:#3498db;
      }
      .ColorScheme-ViewText {
        color:#31363b;
      }
      .ColorScheme-ViewBackground {
        color:#fcfcfc;
      }
      .ColorScheme-ViewHover {
        color:#93cee9;
      }
      .ColorScheme-ViewFocus{
        color:#3daee9;
      }
      .ColorScheme-ButtonText {
        color:#31363b;
      }
      .ColorScheme-ButtonBackground {
        color:#eff0f1;
      }
      .ColorScheme-ButtonHover {
        color:#93cee9;
      }
      .ColorScheme-ButtonFocus{
        color:#3daee9;
      }
      .ColorScheme-NegativeText{
        color:#e74c3c;
      }
      </style></svg>
