<?xml version="1.0" encoding="UTF-8" standalone="no"?>
<!-- Created with Inkscape (http://www.inkscape.org/) -->

<svg
   width="22"
   height="22"
   viewBox="0 0 22 22"
   version="1.1"
   id="svg5"
   inkscape:version="1.4.2 (ebf0e940d0, 2025-05-08)"
   sodipodi:docname="network-bluetooth-activated-locked.svg"
   xml:space="preserve"
   xmlns:inkscape="http://www.inkscape.org/namespaces/inkscape"
   xmlns:sodipodi="http://sodipodi.sourceforge.net/DTD/sodipodi-0.dtd"
   xmlns="http://www.w3.org/2000/svg"
   xmlns:svg="http://www.w3.org/2000/svg"><sodipodi:namedview
     id="namedview7"
     pagecolor="#ffffff"
     bordercolor="#000000"
     borderopacity="0.25"
     inkscape:showpageshadow="false"
     inkscape:pageopacity="0.0"
     inkscape:pagecheckerboard="0"
     inkscape:deskcolor="#d1d1d1"
     inkscape:document-units="px"
     showgrid="true"
     inkscape:zoom="19.028871"
     inkscape:cx="11.56138"
     inkscape:cy="19.417862"
     inkscape:window-width="962"
     inkscape:window-height="1006"
     inkscape:window-x="0"
     inkscape:window-y="0"
     inkscape:window-maximized="0"
     inkscape:current-layer="layer1"><inkscape:grid
       type="xygrid"
       id="grid3636"
       originx="0"
       originy="0"
       spacingy="1"
       spacingx="1"
       units="px"
       visible="true" /></sodipodi:namedview><defs
     id="defs2"><style
       type="text/css"
       id="current-color-scheme">
      .ColorScheme-Text {
        color:#36404d;
      }
      </style><style
       type="text/css"
       id="current-color-scheme-67">
      .ColorScheme-Text {
        color:#122036;
      }
      </style><style
       type="text/css"
       id="current-color-scheme-7">
      .ColorScheme-Text {
        color:#122036;
      }
      </style><style
       type="text/css"
       id="current-color-scheme-5">
      .ColorScheme-Text {
        color:#122036;
      }
      </style><style
       type="text/css"
       id="current-color-scheme-6">
      .ColorScheme-Text {
        color:#122036;
      }
      </style><style
       type="text/css"
       id="current-color-scheme-1">
      .ColorScheme-Text {
        color:#122036;
      }
      </style><style
       id="current-color-scheme-10"
       type="text/css">
      .ColorScheme-Text {
        color:#122036;
      }
      </style><style
       id="current-color-scheme-5-7"
       type="text/css">
      .ColorScheme-Text {
        color:#122036;
      }
      </style><style
       id="current-color-scheme-1-2"
       type="text/css">
      .ColorScheme-Text {
        color:#122036;
      }
      </style><style
       type="text/css"
       id="current-color-scheme-10-9">
      .ColorScheme-Text {
        color:#122036;
      }
      </style><style
       type="text/css"
       id="current-color-scheme-3">
      .ColorScheme-Text {
        color:#36404d;
      }
      </style><style
       type="text/css"
       id="current-color-scheme-67-5">
      .ColorScheme-Text {
        color:#122036;
      }
      </style><style
       type="text/css"
       id="current-color-scheme-7-6">
      .ColorScheme-Text {
        color:#122036;
      }
      </style><style
       type="text/css"
       id="current-color-scheme-5-2">
      .ColorScheme-Text {
        color:#122036;
      }
      </style><style
       type="text/css"
       id="current-color-scheme-6-9">
      .ColorScheme-Text {
        color:#122036;
      }
      </style><style
       type="text/css"
       id="current-color-scheme-1-1">
      .ColorScheme-Text {
        color:#122036;
      }
      </style><style
       id="current-color-scheme-10-2"
       type="text/css">
      .ColorScheme-Text {
        color:#122036;
      }
      </style><style
       id="current-color-scheme-5-7-7"
       type="text/css">
      .ColorScheme-Text {
        color:#122036;
      }
      </style><style
       id="current-color-scheme-1-2-0"
       type="text/css">
      .ColorScheme-Text {
        color:#122036;
      }
      </style><style
       type="text/css"
       id="current-color-scheme-10-9-9">
      .ColorScheme-Text {
        color:#122036;
      }
      </style></defs><g
     inkscape:label="Capa 1"
     inkscape:groupmode="layer"
     id="layer1"><g
       id="path3904-7-5" /><g
       id="path3904-7"
       transform="matrix(3.6508739,0,0,3.5687995,-0.3537389,-0.28250649)"><path
         style="fill:#44acff;stroke-width:0.0151492"
         d="M 2.6762241,5.6584655 C 2.5936823,5.6328652 2.5058046,5.563823 2.4627412,5.4907403 2.433198,5.4406023 2.4305123,5.3914983 2.4228146,4.7607234 L 2.4145618,4.0844598 1.9524045,4.3880597 C 1.408562,4.7453197 1.3597815,4.7659421 1.1829036,4.7133712 0.97774605,4.6523951 0.88427329,4.4628873 0.97679465,4.2955034 1.0134123,4.229257 1.0616153,4.194917 1.7184557,3.7671397 L 2.4209537,3.3096273 2.4218834,3.1703141 2.4228132,3.0310009 1.783691,2.6141417 C 1.4321731,2.3848691 1.1116682,2.1722546 1.0714581,2.1416652 0.93612732,2.0387139 0.90316201,1.9120361 0.97695827,1.7785259 1.0591178,1.6298848 1.2811732,1.5620398 1.4491864,1.6342451 c 0.035701,0.015343 0.2657477,0.1592524 0.5112151,0.3197992 0.2454675,0.1605468 0.4499289,0.2919032 0.4543588,0.2919032 0.00444,0 0.00806,-0.2807083 0.00806,-0.6237962 0,-0.3599395 0.00704,-0.65547585 0.016623,-0.69869159 0.023047,-0.10384369 0.087988,-0.17784897 0.196886,-0.22436677 0.1049355,-0.0448254 0.2097308,-0.0495311 0.301525,-0.0135398 0.1030074,0.0403878 1.9881512,1.31740056 2.0375015,1.38022116 0.075284,0.095833 0.069401,0.2363516 -0.014096,0.3366088 -0.017526,0.021037 -0.2762116,0.1980566 -0.574863,0.393377 C 4.0877451,2.9910806 3.8395187,3.15617 3.834783,3.1626253 c -0.00473,0.00646 0.113851,0.091711 0.2635272,0.1894573 0.1496756,0.097746 0.2684598,0.1808189 0.2639644,0.1846059 -0.0045,0.00379 -0.054864,0.023479 -0.1119287,0.04376 -0.1388298,0.04934 -0.2970352,0.1410306 -0.409684,0.2374381 L 3.7482471,3.896979 3.494996,3.7319179 C 3.3557081,3.6411343 3.2335183,3.566857 3.223463,3.566857 c -0.056736,0 -0.057896,0.019815 -0.057896,0.9896637 v 0.956293 l -0.085263,0.056775 c -0.046896,0.031226 -0.1067144,0.06612 -0.1329325,0.077541 -0.070675,0.030788 -0.1920642,0.035863 -0.2711474,0.011336 z M 3.6334292,2.5147883 C 3.8527049,2.3720505 4.042234,2.247547 4.0546052,2.2381138 4.0730104,2.2240787 3.9961732,2.1663891 3.631712,1.920608 3.3867498,1.755413 3.1816557,1.6202535 3.1759468,1.6202535 c -0.00571,0 -0.010387,0.2521547 -0.010387,0.5603437 0,0.5572803 0.00334,0.5937141 0.054396,0.5937141 0.00813,0 0.1941897,-0.1167854 0.4134654,-0.259523 z"
         id="path1" /><path
         style="fill:#ffc850;fill-opacity:1;stroke-width:0.0146251"
         d="M 3.4096581,5.1517556 V 4.5330138 H 3.5865655 3.7634728 L 3.7636554,4.3487817 C 3.7638577,4.1448533 3.783227,4.0547545 3.8485169,3.9540578 3.9103149,3.8587456 3.9851634,3.7898447 4.0950424,3.7271212 4.5530784,3.4656566 5.214576,3.595925 5.4293874,3.9898935 c 0.048502,0.088952 0.049399,0.094199 0.054199,0.3167851 l 0.00488,0.2263352 H 5.6643382 5.8402103 V 5.1517556 5.7704975 H 4.6249349 3.4096581 Z M 5.1633487,4.4016074 c 0,-0.2222082 -0.043048,-0.3442134 -0.1495402,-0.4238204 -0.084022,-0.06281 -0.1814336,-0.084371 -0.3811819,-0.084371 -0.2096719,0 -0.3084231,0.023622 -0.3956542,0.094639 -0.1012823,0.082458 -0.1246608,0.1462606 -0.132176,0.3607273 l -0.00646,0.1842321 H 4.6308421 5.163346 Z"
         id="path4" /><path
         style="fill:#44acff;fill-opacity:1;stroke-width:0.0164026"
         d="M 4.8869561,3.4823148 C 4.8575752,3.4760684 4.80102,3.454659 4.7612769,3.4347352 4.5585221,3.3330966 4.5252629,3.0808035 4.6946964,2.9296817 4.9286706,2.7209945 5.312826,2.8623731 5.315919,3.1583068 5.3169435,3.2562815 5.2992954,3.3026865 5.2351536,3.3706756 5.152646,3.458132 5.0013634,3.5066365 4.8869561,3.4823148 Z"
         id="path5"
         inkscape:transform-center-x="1.0679737"
         inkscape:transform-center-y="-0.058548344" /></g><path
       style="fill:#44acff;fill-opacity:1;stroke-width:0.0629579"
       d="M 4.296965,12.383411 C 4.1859191,12.359063 3.9721671,12.27561 3.821957,12.197947 3.0556396,11.801764 2.9299355,10.818335 3.5703141,10.229267 4.4546261,9.4158131 5.906552,9.9669019 5.9182421,11.12044 c 0.00387,0.381901 -0.062829,0.562786 -0.3052551,0.827805 -0.3118397,0.340902 -0.8836165,0.529971 -1.316022,0.435166 z"
       id="path5-6"
       inkscape:transform-center-x="1.0679737"
       inkscape:transform-center-y="-0.058548344" /></g></svg>
