<?xml version="1.0" encoding="UTF-8" standalone="no"?>
<!-- Created with Inkscape (http://www.inkscape.org/) -->

<svg
   width="22"
   height="22"
   viewBox="0 0 22 22"
   version="1.1"
   id="svg1"
   inkscape:version="1.4.2 (ebf0e940d0, 2025-05-08)"
   sodipodi:docname="network-wired-available.svg"
   xmlns:inkscape="http://www.inkscape.org/namespaces/inkscape"
   xmlns:sodipodi="http://sodipodi.sourceforge.net/DTD/sodipodi-0.dtd"
   xmlns="http://www.w3.org/2000/svg"
   xmlns:svg="http://www.w3.org/2000/svg">
  <sodipodi:namedview
     id="namedview1"
     pagecolor="#ffffff"
     bordercolor="#000000"
     borderopacity="0.25"
     inkscape:showpageshadow="false"
     inkscape:pageopacity="0.0"
     inkscape:pagecheckerboard="true"
     inkscape:deskcolor="#d1d1d1"
     inkscape:document-units="px"
     inkscape:zoom="32.840404"
     inkscape:cx="20.721426"
     inkscape:cy="10.063823"
     inkscape:window-width="1920"
     inkscape:window-height="1006"
     inkscape:window-x="0"
     inkscape:window-y="0"
     inkscape:window-maximized="1"
     inkscape:current-layer="layer1"
     showgrid="true">
    <inkscape:grid
       id="grid1"
       units="px"
       originx="0"
       originy="0"
       spacingx="1"
       spacingy="1"
       empcolor="#0099e5"
       empopacity="0.30196078"
       color="#0099e5"
       opacity="0.14901961"
       empspacing="5"
       enabled="true"
       visible="true" />
  </sodipodi:namedview>
  <defs
     id="defs1" />
  <g
     inkscape:label="Capa 1"
     inkscape:groupmode="layer"
     id="layer1">
    <g
       id="g1"
       transform="matrix(0.89799151,0,0,0.89494648,0.20887723,-27.497923)">
      <path
         id="rect1728-9"
         style="fill:#a3b7cc;fill-opacity:1;stroke-width:2;stroke-linecap:round;stroke-linejoin:round;stroke-miterlimit:1.8;paint-order:fill markers stroke;stop-color:#000000"
         d="m 4,52.999999 h 16 c 1.108,0 1.999999,-0.892 1.999999,-2 v -16 C 21.999999,33.892 21.108,33 20,33 H 4 c -1.108,0 -2,0.892 -2,1.999999 v 16 c 0,1.108 0.892,2 2,2 z" />
      <path
         id="rect1728-7-3"
         style="fill:#f1f1f1;fill-opacity:1;stroke-width:2;stroke-linecap:round;stroke-linejoin:round;stroke-miterlimit:1.8;paint-order:fill markers stroke;stop-color:#000000"
         d="m 4,51.999999 h 16.000003 c 0.554,0 1,-0.446 1,-1 v -16 c 0,-0.553999 -0.446,-0.999999 -1,-0.999999 H 4 c -0.5539999,0 -0.9999999,0.446 -0.9999999,0.999999 v 16 c 0,0.554 0.446,1 0.9999999,1 z" />
      <path
         id="rect3959-7"
         style="fill:#363c4d;fill-opacity:1;stroke-width:2;stroke-linecap:round;stroke-linejoin:round;stroke-miterlimit:1.8;paint-order:fill markers stroke;stop-color:#000000"
         d="m 8.0000001,49.999999 v -1 h -3 v -1 0 -1 h -1 v -3 h 1 v -3 h -1 v -3 h 1 v -2 H 19 v 2 h 1 v 3 h -1 v 3 h 1 v 3 h -1 v 1 0 1 h -3 v 1 z"
         sodipodi:nodetypes="ccccccccccccccccccccccccccccc" />
      <path
         id="rect3970-4"
         style="fill:#ffd84d;fill-opacity:1;stroke-width:2;stroke-linecap:round;stroke-linejoin:round;stroke-miterlimit:1.8;paint-order:fill markers stroke;stop-color:#000000"
         d="m 7.0000001,41.999999 v -4 h 2 v 4 z m 3.9999999,0 v -4 h 2 v 4 z m 4,0 v -4 h 2 v 4 z" />
    </g>
    <g
       id="g2"
       transform="matrix(0.51409452,0,0,0.50967037,-147.51162,-92.831333)">
      <path
         id="rect73610-2"
         style="fill:#619f78;fill-opacity:1;stroke-width:2.7531;stroke-linecap:round;stroke-linejoin:round;stroke-miterlimit:1.8;paint-order:fill markers stroke;stop-color:#000000"
         d="m 318.93652,207.53667 c 3.81305,0 6.88276,3.06971 6.88276,6.88275 0,3.81305 -3.06971,6.88276 -6.88276,6.88276 -3.81304,0 -6.88275,-3.06971 -6.88275,-6.88276 0,-3.81304 3.06971,-6.88275 6.88275,-6.88275 z" />
      <path
         id="rect73610-4-2"
         style="fill:#bae0bd;fill-opacity:1;stroke-width:2.20248;stroke-linecap:round;stroke-linejoin:round;stroke-miterlimit:1.8;paint-order:fill markers stroke;stop-color:#000000"
         d="m 318.93652,208.91322 c 3.05044,0 5.50621,2.45577 5.50621,5.5062 0,3.05044 -2.45577,5.50621 -5.50621,5.50621 -3.05043,0 -5.5062,-2.45577 -5.5062,-5.50621 0,-3.05043 2.45577,-5.5062 5.5062,-5.5062 z" />
    </g>
  </g>
</svg>
