<?xml version="1.0" encoding="UTF-8" standalone="no"?>
<!-- Created with Inkscape (http://www.inkscape.org/) -->

<svg
   width="22"
   height="22"
   viewBox="0 0 22 22"
   version="1.1"
   id="svg1"
   inkscape:version="1.3.2 (091e20ef0f, 2023-11-25, custom)"
   sodipodi:docname="network-mobile-off.svg"
   xmlns:inkscape="http://www.inkscape.org/namespaces/inkscape"
   xmlns:sodipodi="http://sodipodi.sourceforge.net/DTD/sodipodi-0.dtd"
   xmlns="http://www.w3.org/2000/svg"
   xmlns:svg="http://www.w3.org/2000/svg">
  <sodipodi:namedview
     id="namedview1"
     pagecolor="#ffffff"
     bordercolor="#000000"
     borderopacity="0.25"
     inkscape:showpageshadow="false"
     inkscape:pageopacity="0.0"
     inkscape:pagecheckerboard="true"
     inkscape:deskcolor="#d1d1d1"
     inkscape:document-units="px"
     inkscape:zoom="5.8054181"
     inkscape:cx="51.675865"
     inkscape:cy="58.049221"
     inkscape:window-width="2560"
     inkscape:window-height="1364"
     inkscape:window-x="0"
     inkscape:window-y="0"
     inkscape:window-maximized="1"
     inkscape:current-layer="layer1" />
  <defs
     id="defs1" />
  <g
     inkscape:label="Capa 1"
     inkscape:groupmode="layer"
     id="layer1">
    <g
       id="g2">
      <path
         id="rect1"
         style="fill:#a3b7cc;fill-opacity:1;stroke-width:2;stroke-linecap:round;stroke-linejoin:round;paint-order:stroke fill markers"
         d="m 18,1 c 1.108,0 2,0.892 2,2 v 12 c 0,1.108 -0.892,2 -2,2 -1.108,0 -2,-0.892 -2,-2 V 3 c 0,-1.108 0.892,-2 2,-2 z" />
      <path
         id="rect1-1"
         style="fill:#a3b7cc;fill-opacity:1;stroke-width:1.73205;stroke-linecap:round;stroke-linejoin:round;paint-order:stroke fill markers"
         d="m 13,5 c 1.108,0 2,0.892 2,2 v 8 c 0,1.108 -0.892,2 -2,2 -1.108,0 -2,-0.892 -2,-2 V 7 c 0,-1.108 0.892,-2 2,-2 z" />
      <path
         id="rect1-2"
         style="fill:#a3b7cc;fill-opacity:1;stroke-width:1.41421;stroke-linecap:round;stroke-linejoin:round;paint-order:stroke fill markers"
         d="m 8,9 c 1.108,0 2,0.892 2,2 v 4 C 10,16.108 9.108,17 8,17 6.892,17 6,16.108 6,15 V 11 C 6,9.892 6.892,9 8,9 Z" />
      <path
         id="rect1-1-7"
         style="fill:#a3b7cc;fill-opacity:1;stroke-linecap:round;stroke-linejoin:round;paint-order:stroke fill markers"
         d="m 3,13 c 1.108,0 2,0.892 2,2 0,1.108 -0.892,2 -2,2 -1.108,0 -2,-0.892 -2,-2 0,-1.108 0.892,-2 2,-2 z" />
      <path
         id="rect2"
         style="fill:#90a4ae;fill-opacity:1;stroke-width:2;stroke-linecap:round;stroke-linejoin:round;paint-order:stroke fill markers"
         d="m 17.95339,18 h 0.09322 C 19.128788,18 20,18.871212 20,19.95339 v 0.09322 C 20,21.128788 19.128788,22 18.04661,22 H 17.95339 C 16.871212,22 16,21.128788 16,20.04661 V 19.95339 C 16,18.871212 16.871212,18 17.95339,18 Z" />
      <path
         id="rect2-6"
         style="fill:#90a4ae;fill-opacity:1;stroke-width:2;stroke-linecap:round;stroke-linejoin:round;paint-order:stroke fill markers"
         d="m 12.95339,18 h 0.09322 C 14.128788,18 15,18.871212 15,19.95339 v 0.09322 C 15,21.128788 14.128788,22 13.04661,22 H 12.95339 C 11.871212,22 11,21.128788 11,20.04661 V 19.95339 C 11,18.871212 11.871212,18 12.95339,18 Z" />
      <path
         id="rect2-6-2"
         style="fill:#a3b7cc;fill-opacity:1;stroke-width:2;stroke-linecap:round;stroke-linejoin:round;paint-order:stroke fill markers"
         d="m 7.9533899,18 h 0.09322 C 9.1287881,18 10,18.871212 10,19.95339 v 0.09322 C 10,21.128788 9.1287881,22 8.0466101,22 h -0.09322 C 6.8712119,22 6,21.128788 6,20.04661 V 19.95339 C 6,18.871212 6.8712119,18 7.9533899,18 Z" />
      <path
         id="rect2-6-2-9"
         style="fill:#a3b7cc;fill-opacity:1;stroke-width:2;stroke-linecap:round;stroke-linejoin:round;paint-order:stroke fill markers"
         d="m 2.9533899,18 h 0.09322 C 4.1287881,18 5,18.871212 5,19.95339 v 0.09322 C 5,21.128788 4.1287881,22 3.0466101,22 h -0.09322 C 1.8712119,22 1,21.128788 1,20.04661 V 19.95339 C 1,18.871212 1.8712119,18 2.9533899,18 Z" />
      <path
         id="rect1-1-7-0"
         style="fill:#e1ebf2;fill-opacity:1;stroke-width:0.5;stroke-linecap:round;stroke-linejoin:round;paint-order:stroke fill markers"
         d="m 18,2 c -0.553999,0 -1,0.4460006 -1,1 v 12 c 0,0.553999 0.446001,1 1,1 0.553999,0 1,-0.446001 1,-1 V 3 C 19,2.4460006 18.553999,2 18,2 Z m -5,4 c -0.553999,0 -1,0.4460006 -1,1 v 8 c 0,0.553999 0.446001,1 1,1 0.553999,0 1,-0.446001 1,-1 V 7 C 14,6.4460006 13.553999,6 13,6 Z m -5,4 c -0.5539994,0 -1,0.446001 -1,1 v 4 c 0,0.553999 0.4460006,1 1,1 0.5539994,0 1,-0.446001 1,-1 V 11 C 9,10.446001 8.5539994,10 8,10 Z m -5,4 c -0.5539994,0 -1,0.446001 -1,1 0,0.553999 0.4460006,1 1,1 0.5539994,0 1,-0.446001 1,-1 0,-0.553999 -0.4460006,-1 -1,-1 z m 0,5 c -0.5539994,0 -1,0.446001 -1,1 0,0.553999 0.4460006,1 1,1 0.5539994,0 1,-0.446001 1,-1 0,-0.553999 -0.4460006,-1 -1,-1 z m 5,0 c -0.5539994,0 -1,0.446001 -1,1 0,0.553999 0.4460006,1 1,1 0.5539994,0 1,-0.446001 1,-1 0,-0.553999 -0.4460006,-1 -1,-1 z m 5,0 c -0.553999,0 -1,0.446001 -1,1 0,0.553999 0.446001,1 1,1 0.553999,0 1,-0.446001 1,-1 0,-0.553999 -0.446001,-1 -1,-1 z m 5,0 c -0.553999,0 -1,0.446001 -1,1 0,0.553999 0.446001,1 1,1 0.553999,0 1,-0.446001 1,-1 0,-0.553999 -0.446001,-1 -1,-1 z" />
      <path
         style="color:#000000;fill:#da354e;fill-opacity:1;stroke-linecap:round;stroke-linejoin:round;stroke-miterlimit:1.8;paint-order:fill markers stroke"
         d="m 15.002207,10 c -0.34696,-2.196e-4 -0.66925,0.1794 -0.85156,0.47461 l -5.9999997,10 c -0.41138,0.6665 0.0683,1.5258 0.85156,1.52539 H 21.002207 c 0.78323,4.1e-4 1.26294,-0.85889 0.85156,-1.52539 l -6,-10 C 15.671457,10.1794 15.349167,9.9997804 15.002207,10 Z"
         id="path68074-0-5"
         sodipodi:nodetypes="cccccccc" />
      <path
         style="color:#000000;fill:#ff778a;fill-opacity:1;stroke-width:2;stroke-linecap:round;stroke-linejoin:round;stroke-miterlimit:1.8;paint-order:fill markers stroke"
         d="M 9.0027473,20.99918 H 21.002747 l -6,-10 z"
         id="path68072-4-1"
         sodipodi:nodetypes="cccc" />
      <path
         id="rect34256-9-0-7"
         style="fill:#fbf1f2;fill-opacity:1;stroke-width:2;stroke-linecap:round;stroke-linejoin:round;stroke-miterlimit:1.8;paint-order:fill markers stroke;stop-color:#000000"
         d="m 14.951172,14 c -0.529828,0.02668 -0.949219,0.463323 -0.949219,1 v 1 c 0,0.553999 0.446001,1 1,1 0.554,0 1,-0.446001 1,-1 v -1 c 0,-0.553989 -0.446,-1 -1,-1 -0.01731,0 -0.03369,-8.61e-4 -0.05078,0 z m 0,4 c -0.529828,0.02668 -0.949219,0.463313 -0.949219,1 0,0.553999 0.446001,1 1,1 0.554,0 1,-0.446001 1,-1 0,-0.553999 -0.446,-1 -1,-1 -0.01731,0 -0.03369,-8.61e-4 -0.05078,0 z" />
    </g>
  </g>
</svg>
