<?xml version="1.0" encoding="UTF-8" standalone="no"?>
<svg
   height="22"
   viewBox="0 0 22 22"
   width="22"
   version="1.1"
   id="svg12"
   sodipodi:docname="network-mobile-20-hsupa.svg"
   xml:space="preserve"
   inkscape:version="1.3.2 (091e20ef0f, 2023-11-25, custom)"
   xmlns:inkscape="http://www.inkscape.org/namespaces/inkscape"
   xmlns:sodipodi="http://sodipodi.sourceforge.net/DTD/sodipodi-0.dtd"
   xmlns="http://www.w3.org/2000/svg"
   xmlns:svg="http://www.w3.org/2000/svg"><defs
     id="defs12"><linearGradient
       id="linearGradient21"
       gradientUnits="userSpaceOnUse"
       x1="11"
       x2="11"
       y1="19.95339"
       y2="3"
       spreadMethod="pad"><stop
         offset="0"
         stop-color="#4a9ef1"
         id="stop20" /><stop
         offset="1"
         stop-color="#a2cff9"
         id="stop21"
         style="stop-color:#f8bd65;stop-opacity:1;" /></linearGradient><linearGradient
       id="linearGradient17"
       gradientUnits="userSpaceOnUse"
       x1="11"
       x2="11"
       y1="19.95339"
       y2="3"
       spreadMethod="pad"><stop
         offset="0"
         stop-color="#4a9ef1"
         id="stop16"
         style="stop-color:#edf3f3;stop-opacity:1;" /><stop
         offset="1"
         stop-color="#a2cff9"
         id="stop17" /></linearGradient><linearGradient
       id="linearGradient15"
       gradientUnits="userSpaceOnUse"
       x1="11"
       x2="11"
       y1="19.95339"
       y2="3"
       spreadMethod="pad"><stop
         offset="0"
         stop-color="#4a9ef1"
         id="stop14"
         style="stop-color:#edf4f4;stop-opacity:1;" /><stop
         offset="1"
         stop-color="#a2cff9"
         id="stop15" /></linearGradient><linearGradient
       id="b"
       gradientUnits="userSpaceOnUse"
       x1="17"
       x2="17"
       y1="15"
       y2="10"><stop
         offset="0"
         stop-color="#d1e4e4"
         id="stop3" /><stop
         offset="1"
         stop-color="#fafafa"
         id="stop4" /></linearGradient><linearGradient
       id="c"
       gradientUnits="userSpaceOnUse"
       x1="17"
       x2="17"
       y1="21"
       y2="16"><stop
         offset="0"
         stop-color="#dca34a"
         id="stop5" /><stop
         offset="1"
         stop-color="#e3bd85"
         id="stop6" /></linearGradient></defs><sodipodi:namedview
     id="namedview12"
     pagecolor="#ffffff"
     bordercolor="#000000"
     borderopacity="0.25"
     inkscape:showpageshadow="2"
     inkscape:pageopacity="0.0"
     inkscape:pagecheckerboard="0"
     inkscape:deskcolor="#d1d1d1"
     inkscape:zoom="18.641906"
     inkscape:cx="17.111984"
     inkscape:cy="3.7013383"
     inkscape:window-width="2560"
     inkscape:window-height="1364"
     inkscape:window-x="0"
     inkscape:window-y="0"
     inkscape:window-maximized="1"
     inkscape:current-layer="svg12" /><linearGradient
     id="a"
     gradientUnits="userSpaceOnUse"
     x1="11"
     x2="11"
     y1="19.95339"
     y2="3"><stop
       offset="0"
       stop-color="#4a9ef1"
       id="stop1" /><stop
       offset="1"
       stop-color="#a2cff9"
       id="stop2" /></linearGradient><path
     d="M 6,3.9827863 7.0047766,1.9942621 8,3.9942621 Z"
     id="path2"
     style="fill:#da354e;fill-opacity:1" /><path
     d="M 1.5,2 C 1.2230006,2 1,2.2230006 1,2.5 v 2 2 C 1,6.7769994 1.2230006,7 1.5,7 1.6384998,7 1.7631474,6.943891 1.8535156,6.8535156 c 0.00565,-0.00565 0.010245,-0.011668 0.015625,-0.017578 0.00553,-0.00607 0.012348,-0.011238 0.017578,-0.017578 0.015275,-0.018492 0.028486,-0.038007 0.041016,-0.058594 0.00423,-0.00696 0.00783,-0.014304 0.011719,-0.021484 0.00385,-0.00707 0.00821,-0.014204 0.011719,-0.021484 0.00344,-0.00716 0.00667,-0.014134 0.00977,-0.021484 0.00316,-0.00747 0.005,-0.015788 0.00781,-0.023437 0.00844,-0.023093 0.016484,-0.045745 0.021484,-0.070312 0.00167,-0.00814 0.00264,-0.017101 0.00391,-0.025391 0.00126,-0.00829 0.00306,-0.016971 0.00391,-0.025391 C 1.9988969,6.5423613 1.999567,6.5339306 2,6.5253906 2.0004291,6.5168566 2,6.50864 2,6.5 V 6 C 2,5.4460024 2.4460024,5 3,5 3.5539976,5 4,5.4460024 4,6 v 0.5 c 0,0.034558 0.00308,0.069009 0.00977,0.1015625 0.00166,0.00815 0.00381,0.015437 0.00586,0.023437 0.00413,0.01611 0.00999,0.031444 0.015625,0.046875 0.00276,0.00756 0.0047,0.016057 0.00781,0.023437 0.012675,0.029893 0.028915,0.057399 0.046875,0.083984 0.00448,0.00665 0.00888,0.013121 0.013672,0.019531 0.00971,0.013005 0.02034,0.025132 0.03125,0.037109 0.00523,0.00574 0.010135,0.012088 0.015625,0.017578 C 4.2368592,6.9438904 4.3615002,7 4.5,7 4.7769994,7 5,6.7769994 5,6.5 v -1 -1 -1 -1 C 5,2.2230006 4.7769994,2 4.5,2 4.3615002,2 4.2368592,2.0561096 4.1464844,2.1464844 c -0.00549,0.00549 -0.010394,0.011835 -0.015625,0.017578 -0.01091,0.011977 -0.021536,0.024104 -0.03125,0.037109 -0.00479,0.00641 -0.00919,0.012883 -0.013672,0.019531 -0.01796,0.026585 -0.0342,0.054091 -0.046875,0.083984 -0.00311,0.00738 -0.00505,0.01588 -0.00781,0.023437 -0.00564,0.015431 -0.011499,0.030765 -0.015625,0.046875 -0.00205,0.008 -0.0042,0.015286 -0.00586,0.023437 C 4.0030777,2.4309889 4,2.4654416 4,2.5 V 3 C 4,3.5539976 3.5539976,4 3,4 2.4460024,4 2,3.5539976 2,3 V 2.5 C 2,2.49136 2.0004291,2.483143 2,2.474609 1.999567,2.466069 1.9989,2.457638 1.99805,2.449218 1.9971995,2.440798 1.9954,2.432121 1.99414,2.423827 1.99287,2.415537 1.9919,2.40658 1.99023,2.398436 1.98523,2.373869 1.977187,2.351217 1.968746,2.328124 1.965936,2.320474 1.964096,2.312158 1.960936,2.304687 1.957836,2.297337 1.954606,2.290363 1.951166,2.283203 1.947656,2.275923 1.943296,2.268794 1.939447,2.261719 1.935557,2.254539 1.931957,2.247194 1.927728,2.240235 1.915198,2.219648 1.901987,2.200133 1.886712,2.181641 1.881482,2.175301 1.874664,2.170133 1.869134,2.164063 1.863754,2.158153 1.859154,2.152133 1.853509,2.146485 1.7631408,2.0561096 1.6384998,2 1.5,2 Z"
     stroke-linecap="round"
     stroke-linejoin="round"
     stroke-width="2"
     id="path3"
     style="fill:#da354e;fill-opacity:1" /><style
     type="text/css"
     id="current-color-scheme">
      .ColorScheme-Text {
        color:#31363b;
      }
      .ColorScheme-Background {
        color:#eff0f1;
      }
      .ColorScheme-Highlight {
        color:#3498db;
      }
      .ColorScheme-ViewText {
        color:#31363b;
      }
      .ColorScheme-ViewBackground {
        color:#fcfcfc;
      }
      .ColorScheme-ViewHover {
        color:#93cee9;
      }
      .ColorScheme-ViewFocus{
        color:#3daee9;
      }
      .ColorScheme-ButtonText {
        color:#31363b;
      }
      .ColorScheme-ButtonBackground {
        color:#eff0f1;
      }
      .ColorScheme-ButtonHover {
        color:#93cee9;
      }
      .ColorScheme-ButtonFocus{
        color:#3daee9;
      }
      .ColorScheme-NegativeText{
        color:#e74c3c;
      }
      </style><style
     type="text/css"
     id="current-color-scheme-42">
      .ColorScheme-Text {
        color:#31363b;
      }
      .ColorScheme-Background {
        color:#eff0f1;
      }
      .ColorScheme-Highlight {
        color:#3498db;
      }
      .ColorScheme-ViewText {
        color:#31363b;
      }
      .ColorScheme-ViewBackground {
        color:#fcfcfc;
      }
      .ColorScheme-ViewHover {
        color:#93cee9;
      }
      .ColorScheme-ViewFocus{
        color:#3daee9;
      }
      .ColorScheme-ButtonText {
        color:#31363b;
      }
      .ColorScheme-ButtonBackground {
        color:#eff0f1;
      }
      .ColorScheme-ButtonHover {
        color:#93cee9;
      }
      .ColorScheme-ButtonFocus{
        color:#3daee9;
      }
      .ColorScheme-NegativeText{
        color:#e74c3c;
      }
      </style><style
     type="text/css"
     id="current-color-scheme-4">
      .ColorScheme-Text {
        color:#31363b;
      }
      .ColorScheme-Background {
        color:#eff0f1;
      }
      .ColorScheme-Highlight {
        color:#3498db;
      }
      .ColorScheme-ViewText {
        color:#31363b;
      }
      .ColorScheme-ViewBackground {
        color:#fcfcfc;
      }
      .ColorScheme-ViewHover {
        color:#93cee9;
      }
      .ColorScheme-ViewFocus{
        color:#3daee9;
      }
      .ColorScheme-ButtonText {
        color:#31363b;
      }
      .ColorScheme-ButtonBackground {
        color:#eff0f1;
      }
      .ColorScheme-ButtonHover {
        color:#93cee9;
      }
      .ColorScheme-ButtonFocus{
        color:#3daee9;
      }
      .ColorScheme-NegativeText{
        color:#e74c3c;
      }
      </style><g
     id="g1"
     transform="translate(-2,1)"><g
       fill="#3172ca"
       id="g9"
       style="fill:#4f92db;fill-opacity:1"
       transform="translate(2,-1)"><path
         id="path2-9"
         style="fill:#a3b7cc;fill-opacity:1"
         d="m 18,1 c -1.107999,0 -2,0.8920011 -2,2 v 12 c 0,1.107999 0.892001,2 2,2 1.107999,0 2,-0.892001 2,-2 V 3 C 20,1.8920011 19.107999,1 18,1 Z M 17.95313,18 C 16.870948,18 16,18.870948 16,19.953125 v 0.09375 C 16,21.129052 16.870948,22 17.953125,22 h 0.09375 C 19.129052,22 20,21.129052 20,20.046875 v -0.09375 C 20,18.870948 19.129052,18 18.046875,18 Z" /><path
         style="fill:#a3b7cc;fill-opacity:1"
         d="M 12.953125,18 C 11.870948,18 11,18.870948 11,19.953125 v 0.09375 C 11,21.129052 11.870948,22 12.953125,22 h 0.09375 C 14.129052,22 15,21.129052 15,20.046875 v -0.09375 C 15,18.870948 14.129052,18 13.046875,18 Z"
         id="path21" /><path
         style="fill:#da354e;fill-opacity:1"
         d="M 7.953125,18 C 6.8709481,18 6,18.870948 6,19.953125 v 0.09375 C 6,21.129052 6.8709479,22 7.953125,22 h 0.09375 C 9.1290519,22 10,21.129052 10,20.046875 v -0.09375 C 10,18.870948 9.1290521,18 8.046875,18 Z"
         id="path20" /><path
         style="fill:#da354e;fill-opacity:1"
         d="M 2.953125,18 C 1.8709481,18 1,18.870948 1,19.953125 v 0.09375 C 1,21.129052 1.8709479,22 2.953125,22 h 0.09375 C 4.1290519,22 5,21.129052 5,20.046875 v -0.09375 C 5,18.870948 4.1290521,18 3.046875,18 Z"
         id="path19" /><path
         style="fill:#da354e;fill-opacity:1"
         d="m 3,13 c -1.1079989,0 -2,0.892001 -2,2 0,1.107999 0.8920011,2 2,2 1.1079989,0 2,-0.892001 2,-2 0,-1.107999 -0.8920011,-2 -2,-2 z"
         id="path18" /><path
         style="fill:#da354e;fill-opacity:1"
         d="M 8,9 C 6.8920011,9 6,9.8920011 6,11 v 4 c 0,1.107999 0.8920011,2 2,2 1.1079989,0 2,-0.892001 2,-2 V 11 C 10,9.8920011 9.1079989,9 8,9 Z"
         id="path17" /><path
         style="fill:#a3b7cc;fill-opacity:1"
         d="m 13,5 c -1.107999,0 -2,0.8920011 -2,2 v 8 c 0,1.107999 0.892001,2 2,2 1.107999,0 2,-0.892001 2,-2 V 7 C 15,5.8920011 14.107999,5 13,5 Z"
         id="path3-2" /></g><path
       id="path16"
       style="fill:#e1ebf2;fill-opacity:1"
       d="m 20,1 c -0.553998,0 -1,0.4460012 -1,1 v 12 c 0,0.553998 0.446002,1 1,1 0.553998,0 1,-0.446002 1,-1 V 2 C 21,1.4460012 20.553998,1 20,1 Z m 0,17 c -0.553998,0 -1,0.446002 -1,1 0,0.553998 0.446002,1 1,1 0.553998,0 1,-0.446002 1,-1 0,-0.553998 -0.446002,-1 -1,-1 z" /><path
       style="fill:#e1ebf2;fill-opacity:1"
       d="m 15,18 c -0.553998,0 -1,0.446002 -1,1 0,0.553998 0.446002,1 1,1 0.553998,0 1,-0.446002 1,-1 0,-0.553998 -0.446002,-1 -1,-1 z"
       id="path26" /><path
       style="fill:#ff778a;fill-opacity:1"
       d="m 10,18 c -0.5539988,0 -1,0.446002 -1,1 0,0.553998 0.4460012,1 1,1 0.553999,0 1,-0.446002 1,-1 0,-0.553998 -0.446001,-1 -1,-1 z"
       id="path25" /><path
       style="fill:#ff778a;fill-opacity:1"
       d="m 5,18 c -0.5539988,0 -1,0.446002 -1,1 0,0.553998 0.4460012,1 1,1 0.5539988,0 1,-0.446002 1,-1 0,-0.553998 -0.4460012,-1 -1,-1 z"
       id="path24" /><path
       style="fill:#ff778a;fill-opacity:1"
       d="m 5,13 c -0.5539988,0 -1,0.446002 -1,1 0,0.553998 0.4460012,1 1,1 0.5539988,0 1,-0.446002 1,-1 0,-0.553998 -0.4460012,-1 -1,-1 z"
       id="path23" /><path
       style="fill:#ff778a;fill-opacity:1"
       d="M 10,9 C 9.4460012,9 9,9.446002 9,10 v 4 c 0,0.553998 0.4460012,1 1,1 0.553999,0 1,-0.446002 1,-1 V 10 C 11,9.446002 10.553999,9 10,9 Z"
       id="path22" /><path
       style="fill:#e1ebf2;fill-opacity:1"
       d="m 15,5 c -0.553998,0 -1,0.4460012 -1,1 v 8 c 0,0.553998 0.446002,1 1,1 0.553998,0 1,-0.446002 1,-1 V 6 C 16,5.4460012 15.553998,5 15,5 Z"
       id="path15" /></g></svg>
