<?xml version="1.0" encoding="UTF-8" standalone="no"?>
<svg
   height="22"
   viewBox="0 0 22 22"
   width="22"
   version="1.1"
   id="svg11"
   sodipodi:docname="network-mobile-60-umts-locked.svg"
   xml:space="preserve"
   inkscape:version="1.3.2 (091e20ef0f, 2023-11-25, custom)"
   xmlns:inkscape="http://www.inkscape.org/namespaces/inkscape"
   xmlns:sodipodi="http://sodipodi.sourceforge.net/DTD/sodipodi-0.dtd"
   xmlns="http://www.w3.org/2000/svg"
   xmlns:svg="http://www.w3.org/2000/svg"><defs
     id="defs11" /><sodipodi:namedview
     id="namedview11"
     pagecolor="#ffffff"
     bordercolor="#000000"
     borderopacity="0.25"
     inkscape:showpageshadow="2"
     inkscape:pageopacity="0.0"
     inkscape:pagecheckerboard="0"
     inkscape:deskcolor="#d1d1d1"
     inkscape:zoom="26.363636"
     inkscape:cx="13.655173"
     inkscape:cy="9.7293105"
     inkscape:window-width="1469"
     inkscape:window-height="1243"
     inkscape:window-x="844"
     inkscape:window-y="77"
     inkscape:window-maximized="0"
     inkscape:current-layer="g10" /><linearGradient
     id="a"
     gradientUnits="userSpaceOnUse"
     x1="11"
     x2="11"
     y1="19.95339"
     y2="3"><stop
       offset="0"
       stop-color="#4a9ef1"
       id="stop1" /><stop
       offset="1"
       stop-color="#a2cff9"
       id="stop2" /></linearGradient><g
     stroke-linecap="round"
     stroke-linejoin="round"
     id="g11"><g
       fill="#3172ca"
       id="g10"><path
         d="m1.5 2c-.2769997 0-.5.2230003-.5.5v1 1 .5c0 1.1079967.8920033 2 2 2h1c1.1079967 0 2-.8920033 2-2v-.5-1-1c0-.2769997-.2230003-.5-.5-.5s-.5.2230003-.5.5v1 1 .5c0 .5539982-.4460018 1-1 1h-1c-.5539982 0-1-.4460018-1-1v-.5-1-1c0-.2769997-.2230003-.5-.5-.5z"
         stroke-width="2"
         id="path2"
         style="fill:#4f92db;fill-opacity:1" /><path
         id="path2-5"
         style="fill:#a3b7cc;fill-opacity:1"
         d="m 18,1 c -1.107999,0 -2,0.8920011 -2,2 v 8 c 0,1.107999 0.892001,2 2,2 1.107999,0 2,-0.892001 2,-2 V 3 C 20,1.8920011 19.107999,1 18,1 Z M 17.95313,18 C 16.870948,18 16,18.870948 16,19.953125 v 0.09375 C 16,21.129052 16.870948,22 17.953125,22 h 0.09375 C 19.129052,22 20,21.129052 20,20.046875 v -0.09375 C 20,18.870948 19.129052,18 18.046875,18 Z"
         sodipodi:nodetypes="ssssssssssssssss" /><path
         id="path3"
         style="fill:#4f92db;fill-opacity:1"
         d="m 13,5 c -1.107999,0 -2,0.8920011 -2,2 v 8 c 0,1.107999 0.892001,2 2,2 1.107999,0 2,-0.892001 2,-2 V 7 C 15,5.8920011 14.107999,5 13,5 Z M 8,9 C 6.8920011,9 6,9.8920011 6,11 v 4 c 0,1.107999 0.8920011,2 2,2 1.107999,0 2,-0.892001 2,-2 V 11 C 10,9.8920011 9.107999,9 8,9 Z m -5,4 c -1.1079989,0 -2,0.892001 -2,2 0,1.107999 0.8920011,2 2,2 1.1079989,0 2,-0.892001 2,-2 C 5,13.892001 4.1079989,13 3,13 Z M 2.953125,18 C 1.8709481,18 1,18.870948 1,19.953125 v 0.09375 C 1,21.129052 1.8709479,22 2.953125,22 h 0.09375 C 4.1290519,22 5,21.129052 5,20.046875 v -0.09375 C 5,18.870948 4.1290521,18 3.046875,18 Z m 5,0 C 6.8709481,18 6,18.870948 6,19.953125 v 0.09375 C 6,21.129052 6.8709479,22 7.953125,22 h 0.09375 C 9.129052,22 10,21.129052 10,20.046875 v -0.09375 C 10,18.870948 9.129052,18 8.046875,18 Z m 5,0 C 11.870948,18 11,18.870948 11,19.953125 v 0.09375 C 11,21.129052 11.870948,22 12.953125,22 h 0.09375 C 14.129052,22 15,21.129052 15,20.046875 v -0.09375 C 15,18.870948 14.129052,18 13.046875,18 Z" /><path
         id="path16"
         style="fill:#e1ebf2;fill-opacity:1"
         d="m 18,2 c -0.553998,0 -1,0.4460012 -1,1 v 8 c 0,0.553998 0.446002,1 1,1 0.553998,0 1,-0.446002 1,-1 V 3 C 19,2.4460012 18.553998,2 18,2 Z m 0,17 c -0.553998,0 -1,0.446002 -1,1 0,0.553998 0.446002,1 1,1 0.553998,0 1,-0.446002 1,-1 0,-0.553998 -0.446002,-1 -1,-1 z"
         sodipodi:nodetypes="ssssssssssss" /><path
         id="path15"
         style="fill:#5ac0ff;fill-opacity:1"
         d="m 13,6 c -0.553998,0 -1,0.4460012 -1,1 v 8 c 0,0.553998 0.446002,1 1,1 0.553998,0 1,-0.446002 1,-1 V 7 C 14,6.4460012 13.553998,6 13,6 Z m -5,4 c -0.5539988,0 -1,0.446002 -1,1 v 4 c 0,0.553998 0.4460012,1 1,1 0.553999,0 1,-0.446002 1,-1 V 11 C 9,10.446002 8.553999,10 8,10 Z m -5,4 c -0.5539988,0 -1,0.446002 -1,1 0,0.553998 0.4460012,1 1,1 0.5539988,0 1,-0.446002 1,-1 0,-0.553998 -0.4460012,-1 -1,-1 z m 0,5 c -0.5539988,0 -1,0.446002 -1,1 0,0.553998 0.4460012,1 1,1 0.5539988,0 1,-0.446002 1,-1 0,-0.553998 -0.4460012,-1 -1,-1 z m 5,0 c -0.5539988,0 -1,0.446002 -1,1 0,0.553998 0.4460012,1 1,1 0.553999,0 1,-0.446002 1,-1 0,-0.553998 -0.446001,-1 -1,-1 z m 5,0 c -0.553998,0 -1,0.446002 -1,1 0,0.553998 0.446002,1 1,1 0.553998,0 1,-0.446002 1,-1 0,-0.553998 -0.446002,-1 -1,-1 z" /><g
         id="g2"
         transform="translate(-84.000001,-29.999996)"><path
           id="path2365-9"
           style="fill:#a3b7cc;fill-opacity:1;stroke:none;stroke-width:2;stroke-linecap:round;stroke-linejoin:round;stroke-miterlimit:1.8;stroke-dasharray:none;stroke-opacity:1;paint-order:fill markers stroke;stop-color:#000000"
           d="m 101,39.999996 c -2.215999,0 -3.999999,1.784 -3.999999,4 v 1 H 100 v -1 c 0,-0.554 0.446,-1 1,-1 0.554,0 1,0.446 1,1 v 1 h 3 v -1 c 0,-2.216 -1.784,-4 -4,-4 z" /><path
           id="path2333-7"
           style="fill:#e1ebf2;fill-opacity:1;stroke:none;stroke-width:2;stroke-linecap:round;stroke-linejoin:round;stroke-miterlimit:1.8;stroke-dasharray:none;stroke-opacity:1;paint-order:fill markers stroke;stop-color:#000000"
           d="m 101,40.999996 c -1.661999,0 -2.999999,1.338 -2.999999,3 v 1 h 1 v -1 c 0,-1.108 0.892,-2 1.999999,-2 1.108,0 2,0.892 2,2 v 1 h 1 v -1 c 0,-1.662 -1.338,-3 -3,-3 z" /><path
           id="rect214703-6"
           style="fill:#f6ac23;fill-opacity:1;stroke:none;stroke-width:2;stroke-linecap:round;stroke-linejoin:round;stroke-miterlimit:1.8;stroke-dasharray:none;stroke-opacity:1;paint-order:fill markers stroke;stop-color:#000000"
           d="m 97.000001,44.999996 c -0.554,0 -1,0.446 -1,1 v 5 c 0,0.554 0.446,1 1,1 H 101 h 4 c 0.554,0 1,-0.446 1,-1 v -5 c 0,-0.554 -0.446,-1 -1,-1 h -3 -2 z" /><path
           id="path2337-3"
           style="fill:#fcd277;fill-opacity:1;stroke:none;stroke-width:2;stroke-linecap:round;stroke-linejoin:round;stroke-miterlimit:1.8;stroke-dasharray:none;stroke-opacity:1;paint-order:fill markers stroke;stop-color:#000000"
           d="m 104,45.999996 h -1 -3.999999 -1 -1 v 5 H 101 h 4 v -5 z" /></g></g></g></svg>
