<?xml version="1.0" encoding="UTF-8" standalone="no"?>
<svg
   height="22"
   viewBox="0 0 22 22"
   width="22"
   version="1.1"
   id="svg11"
   sodipodi:docname="network-mobile-20.svg"
   xml:space="preserve"
   inkscape:version="1.3.2 (091e20ef0f, 2023-11-25, custom)"
   xmlns:inkscape="http://www.inkscape.org/namespaces/inkscape"
   xmlns:sodipodi="http://sodipodi.sourceforge.net/DTD/sodipodi-0.dtd"
   xmlns:xlink="http://www.w3.org/1999/xlink"
   xmlns="http://www.w3.org/2000/svg"
   xmlns:svg="http://www.w3.org/2000/svg"><defs
     id="defs11"><linearGradient
       id="linearGradient21"
       gradientUnits="userSpaceOnUse"
       x1="11"
       x2="11"
       y1="19.95339"
       y2="3"
       spreadMethod="pad"><stop
         offset="0"
         stop-color="#4a9ef1"
         id="stop20" /><stop
         offset="1"
         stop-color="#a2cff9"
         id="stop21"
         style="stop-color:#f8bd65;stop-opacity:1;" /></linearGradient><linearGradient
       id="linearGradient17"
       gradientUnits="userSpaceOnUse"
       x1="11"
       x2="11"
       y1="19.95339"
       y2="3"
       spreadMethod="pad"><stop
         offset="0"
         stop-color="#4a9ef1"
         id="stop16"
         style="stop-color:#edf3f3;stop-opacity:1;" /><stop
         offset="1"
         stop-color="#a2cff9"
         id="stop17" /></linearGradient><linearGradient
       id="linearGradient15"
       gradientUnits="userSpaceOnUse"
       x1="11"
       x2="11"
       y1="19.95339"
       y2="3"
       spreadMethod="pad"><stop
         offset="0"
         stop-color="#4a9ef1"
         id="stop14"
         style="stop-color:#edf4f4;stop-opacity:1;" /><stop
         offset="1"
         stop-color="#a2cff9"
         id="stop15" /></linearGradient><linearGradient
       id="linearGradient13"
       gradientUnits="userSpaceOnUse"
       x1="11"
       x2="11"
       y1="19.95339"
       y2="3"><stop
         offset="0"
         stop-color="#4a9ef1"
         id="stop12"
         style="stop-color:#edf3f3;stop-opacity:1;" /><stop
         offset="1"
         stop-color="#a2cff9"
         id="stop13" /></linearGradient><linearGradient
       id="b"
       gradientUnits="userSpaceOnUse"
       x1="17"
       x2="17"
       y1="15"
       y2="10"><stop
         offset="0"
         stop-color="#d1e4e4"
         id="stop3" /><stop
         offset="1"
         stop-color="#fafafa"
         id="stop4" /></linearGradient><linearGradient
       id="c"
       gradientUnits="userSpaceOnUse"
       x1="17"
       x2="17"
       y1="21"
       y2="16"><stop
         offset="0"
         stop-color="#dca34a"
         id="stop5" /><stop
         offset="1"
         stop-color="#e3bd85"
         id="stop6" /></linearGradient></defs><sodipodi:namedview
     id="namedview11"
     pagecolor="#ffffff"
     bordercolor="#000000"
     borderopacity="0.25"
     inkscape:showpageshadow="2"
     inkscape:pageopacity="0.0"
     inkscape:pagecheckerboard="0"
     inkscape:deskcolor="#d1d1d1"
     inkscape:zoom="26.363636"
     inkscape:cx="13.674138"
     inkscape:cy="9.748276"
     inkscape:window-width="2560"
     inkscape:window-height="1364"
     inkscape:window-x="0"
     inkscape:window-y="0"
     inkscape:window-maximized="1"
     inkscape:current-layer="g10"
     showgrid="true"><inkscape:grid
       id="grid11"
       units="px"
       originx="0"
       originy="0"
       spacingx="1"
       spacingy="1"
       empcolor="#0099e5"
       empopacity="0.30196078"
       color="#0099e5"
       opacity="0.14902"
       empspacing="5"
       dotted="false"
       gridanglex="30"
       gridanglez="30"
       visible="true" /></sodipodi:namedview><linearGradient
     id="a"
     gradientUnits="userSpaceOnUse"
     x1="11"
     x2="11"
     y1="19.95339"
     y2="3"
     xlink:href="#linearGradient21"><stop
       offset="0"
       stop-color="#4a9ef1"
       id="stop1" /><stop
       offset="1"
       stop-color="#a2cff9"
       id="stop2" /></linearGradient><g
     stroke-linecap="round"
     stroke-linejoin="round"
     id="g11"><g
       fill="#3172ca"
       id="g10"><g
         id="g1"
         transform="translate(-19,-17)"><g
           fill="#3172ca"
           id="g9"
           style="fill:#4f92db;fill-opacity:1"
           transform="translate(19,17)"><path
             id="path2"
             style="fill:#a3b7cc;fill-opacity:1"
             d="m 18,1 c -1.107999,0 -2,0.8920011 -2,2 v 12 c 0,1.107999 0.892001,2 2,2 1.107999,0 2,-0.892001 2,-2 V 3 C 20,1.8920011 19.107999,1 18,1 Z M 17.95313,18 C 16.870948,18 16,18.870948 16,19.953125 v 0.09375 C 16,21.129052 16.870948,22 17.953125,22 h 0.09375 C 19.129052,22 20,21.129052 20,20.046875 v -0.09375 C 20,18.870948 19.129052,18 18.046875,18 Z" /><path
             style="fill:#a3b7cc;fill-opacity:1"
             d="M 12.953125,18 C 11.870948,18 11,18.870948 11,19.953125 v 0.09375 C 11,21.129052 11.870948,22 12.953125,22 h 0.09375 C 14.129052,22 15,21.129052 15,20.046875 v -0.09375 C 15,18.870948 14.129052,18 13.046875,18 Z"
             id="path21" /><path
             style="fill:#da354e;fill-opacity:1"
             d="M 7.953125,18 C 6.8709481,18 6,18.870948 6,19.953125 v 0.09375 C 6,21.129052 6.8709479,22 7.953125,22 h 0.09375 C 9.1290519,22 10,21.129052 10,20.046875 v -0.09375 C 10,18.870948 9.1290521,18 8.046875,18 Z"
             id="path20" /><path
             style="fill:#da354e;fill-opacity:1"
             d="M 2.953125,18 C 1.8709481,18 1,18.870948 1,19.953125 v 0.09375 C 1,21.129052 1.8709479,22 2.953125,22 h 0.09375 C 4.1290519,22 5,21.129052 5,20.046875 v -0.09375 C 5,18.870948 4.1290521,18 3.046875,18 Z"
             id="path19" /><path
             style="fill:#da354e;fill-opacity:1"
             d="m 3,13 c -1.1079989,0 -2,0.892001 -2,2 0,1.107999 0.8920011,2 2,2 1.1079989,0 2,-0.892001 2,-2 0,-1.107999 -0.8920011,-2 -2,-2 z"
             id="path18" /><path
             style="fill:#da354e;fill-opacity:1"
             d="M 8,9 C 6.8920011,9 6,9.8920011 6,11 v 4 c 0,1.107999 0.8920011,2 2,2 1.1079989,0 2,-0.892001 2,-2 V 11 C 10,9.8920011 9.1079989,9 8,9 Z"
             id="path17" /><path
             style="fill:#a3b7cc;fill-opacity:1"
             d="m 13,5 c -1.107999,0 -2,0.8920011 -2,2 v 8 c 0,1.107999 0.892001,2 2,2 1.107999,0 2,-0.892001 2,-2 V 7 C 15,5.8920011 14.107999,5 13,5 Z"
             id="path3" /></g><path
           id="path16"
           style="fill:#e1ebf2;fill-opacity:1"
           d="m 37,19 c -0.553998,0 -1,0.446001 -1,1 v 12 c 0,0.553998 0.446002,1 1,1 0.553998,0 1,-0.446002 1,-1 V 20 c 0,-0.553999 -0.446002,-1 -1,-1 z m 0,17 c -0.553998,0 -1,0.446002 -1,1 0,0.553998 0.446002,1 1,1 0.553998,0 1,-0.446002 1,-1 0,-0.553998 -0.446002,-1 -1,-1 z" /><path
           style="fill:#e1ebf2;fill-opacity:1"
           d="m 32,36 c -0.553998,0 -1,0.446002 -1,1 0,0.553998 0.446002,1 1,1 0.553998,0 1,-0.446002 1,-1 0,-0.553998 -0.446002,-1 -1,-1 z"
           id="path26" /><path
           style="fill:#ff778a;fill-opacity:1"
           d="m 27,36 c -0.553999,0 -1,0.446002 -1,1 0,0.553998 0.446001,1 1,1 0.553999,0 1,-0.446002 1,-1 0,-0.553998 -0.446001,-1 -1,-1 z"
           id="path25" /><path
           style="fill:#ff778a;fill-opacity:1"
           d="m 22,36 c -0.553999,0 -1,0.446002 -1,1 0,0.553998 0.446001,1 1,1 0.553999,0 1,-0.446002 1,-1 0,-0.553998 -0.446001,-1 -1,-1 z"
           id="path24" /><path
           style="fill:#ff778a;fill-opacity:1"
           d="m 22,31 c -0.553999,0 -1,0.446002 -1,1 0,0.553998 0.446001,1 1,1 0.553999,0 1,-0.446002 1,-1 0,-0.553998 -0.446001,-1 -1,-1 z"
           id="path23" /><path
           style="fill:#ff778a;fill-opacity:1"
           d="m 27,27 c -0.553999,0 -1,0.446002 -1,1 v 4 c 0,0.553998 0.446001,1 1,1 0.553999,0 1,-0.446002 1,-1 v -4 c 0,-0.553998 -0.446001,-1 -1,-1 z"
           id="path22" /><path
           style="fill:#e1ebf2;fill-opacity:1"
           d="m 32,23 c -0.553998,0 -1,0.446001 -1,1 v 8 c 0,0.553998 0.446002,1 1,1 0.553998,0 1,-0.446002 1,-1 v -8 c 0,-0.553999 -0.446002,-1 -1,-1 z"
           id="path15" /></g></g></g><style
     type="text/css"
     id="current-color-scheme">
      .ColorScheme-Text {
        color:#31363b;
      }
      .ColorScheme-Background {
        color:#eff0f1;
      }
      .ColorScheme-Highlight {
        color:#3498db;
      }
      .ColorScheme-ViewText {
        color:#31363b;
      }
      .ColorScheme-ViewBackground {
        color:#fcfcfc;
      }
      .ColorScheme-ViewHover {
        color:#93cee9;
      }
      .ColorScheme-ViewFocus{
        color:#3daee9;
      }
      .ColorScheme-ButtonText {
        color:#31363b;
      }
      .ColorScheme-ButtonBackground {
        color:#eff0f1;
      }
      .ColorScheme-ButtonHover {
        color:#93cee9;
      }
      .ColorScheme-ButtonFocus{
        color:#3daee9;
      }
      .ColorScheme-NegativeText{
        color:#e74c3c;
      }
      </style><style
     type="text/css"
     id="current-color-scheme-4">
      .ColorScheme-Text {
        color:#31363b;
      }
      .ColorScheme-Background {
        color:#eff0f1;
      }
      .ColorScheme-Highlight {
        color:#3498db;
      }
      .ColorScheme-ViewText {
        color:#31363b;
      }
      .ColorScheme-ViewBackground {
        color:#fcfcfc;
      }
      .ColorScheme-ViewHover {
        color:#93cee9;
      }
      .ColorScheme-ViewFocus{
        color:#3daee9;
      }
      .ColorScheme-ButtonText {
        color:#31363b;
      }
      .ColorScheme-ButtonBackground {
        color:#eff0f1;
      }
      .ColorScheme-ButtonHover {
        color:#93cee9;
      }
      .ColorScheme-ButtonFocus{
        color:#3daee9;
      }
      .ColorScheme-NegativeText{
        color:#e74c3c;
      }
      </style></svg>
