<?xml version="1.0" encoding="UTF-8" standalone="no"?>
<!-- Created with Inkscape (http://www.inkscape.org/) -->

<svg
   width="22"
   height="22"
   viewBox="0 0 22 22"
   version="1.1"
   id="svg5"
   inkscape:version="1.4.3 (0d15f75042, 2025-12-25)"
   sodipodi:docname="network-bluetooth.svg"
   xml:space="preserve"
   xmlns:inkscape="http://www.inkscape.org/namespaces/inkscape"
   xmlns:sodipodi="http://sodipodi.sourceforge.net/DTD/sodipodi-0.dtd"
   xmlns="http://www.w3.org/2000/svg"
   xmlns:svg="http://www.w3.org/2000/svg"><sodipodi:namedview
     id="namedview7"
     pagecolor="#ffffff"
     bordercolor="#000000"
     borderopacity="0.25"
     inkscape:showpageshadow="false"
     inkscape:pageopacity="0.0"
     inkscape:pagecheckerboard="0"
     inkscape:deskcolor="#d1d1d1"
     inkscape:document-units="px"
     showgrid="true"
     inkscape:zoom="27.751853"
     inkscape:cx="8.179634"
     inkscape:cy="7.7292136"
     inkscape:window-width="2560"
     inkscape:window-height="1366"
     inkscape:window-x="0"
     inkscape:window-y="0"
     inkscape:window-maximized="1"
     inkscape:current-layer="layer1"><inkscape:grid
       type="xygrid"
       id="grid3636"
       originx="0"
       originy="0"
       spacingy="1"
       spacingx="1"
       units="px"
       visible="true" /></sodipodi:namedview><defs
     id="defs2"><style
       type="text/css"
       id="current-color-scheme">
      .ColorScheme-Text {
        color:#36404d;
      }
      </style><style
       type="text/css"
       id="current-color-scheme-67">
      .ColorScheme-Text {
        color:#122036;
      }
      </style><style
       type="text/css"
       id="current-color-scheme-7">
      .ColorScheme-Text {
        color:#122036;
      }
      </style><style
       type="text/css"
       id="current-color-scheme-5">
      .ColorScheme-Text {
        color:#122036;
      }
      </style><style
       type="text/css"
       id="current-color-scheme-6">
      .ColorScheme-Text {
        color:#122036;
      }
      </style><style
       type="text/css"
       id="current-color-scheme-1">
      .ColorScheme-Text {
        color:#122036;
      }
      </style><style
       id="current-color-scheme-10"
       type="text/css">
      .ColorScheme-Text {
        color:#122036;
      }
      </style><style
       id="current-color-scheme-5-7"
       type="text/css">
      .ColorScheme-Text {
        color:#122036;
      }
      </style><style
       id="current-color-scheme-1-2"
       type="text/css">
      .ColorScheme-Text {
        color:#122036;
      }
      </style><style
       type="text/css"
       id="current-color-scheme-10-9">
      .ColorScheme-Text {
        color:#122036;
      }
      </style><style
       type="text/css"
       id="current-color-scheme-3">
      .ColorScheme-Text {
        color:#36404d;
      }
      </style><style
       type="text/css"
       id="current-color-scheme-67-5">
      .ColorScheme-Text {
        color:#122036;
      }
      </style><style
       type="text/css"
       id="current-color-scheme-7-6">
      .ColorScheme-Text {
        color:#122036;
      }
      </style><style
       type="text/css"
       id="current-color-scheme-5-2">
      .ColorScheme-Text {
        color:#122036;
      }
      </style><style
       type="text/css"
       id="current-color-scheme-6-9">
      .ColorScheme-Text {
        color:#122036;
      }
      </style><style
       type="text/css"
       id="current-color-scheme-1-1">
      .ColorScheme-Text {
        color:#122036;
      }
      </style><style
       id="current-color-scheme-10-2"
       type="text/css">
      .ColorScheme-Text {
        color:#122036;
      }
      </style><style
       id="current-color-scheme-5-7-7"
       type="text/css">
      .ColorScheme-Text {
        color:#122036;
      }
      </style><style
       id="current-color-scheme-1-2-0"
       type="text/css">
      .ColorScheme-Text {
        color:#122036;
      }
      </style><style
       type="text/css"
       id="current-color-scheme-10-9-9">
      .ColorScheme-Text {
        color:#122036;
      }
      </style></defs><g
     inkscape:label="Capa 1"
     inkscape:groupmode="layer"
     id="layer1"><g
       id="g1"
       transform="matrix(1.4931605,0,0,1.4880264,23.5099,17.66576)"
       style="fill:#ececec;stroke-width:0.145893;stroke-dasharray:none;stroke:#537f94;stroke-opacity:1"><path
         style="fill:#ececec;fill-opacity:1;stroke:#537f94;stroke-width:0.145893;stroke-dasharray:none;stroke-opacity:1"
         d="M -9.1092294,0.82147589 C -9.2672211,0.76131282 -9.42374,0.64613568 -9.5171533,0.52129855 l -0.085576,-0.1143651 -0.011187,-1.43918145 c -0.00621,-0.7915498 -0.020677,-1.4482884 -0.032271,-1.4594183 -0.011594,-0.01113 -0.4791767,0.2594402 -1.0390647,0.6012671 -0.559886,0.3418275 -1.064207,0.6442734 -1.120709,0.6721028 -0.350786,0.1727723 -0.843307,0.05203 -1.082699,-0.2654278 -0.116122,-0.1539943 -0.133063,-0.3843846 -0.04032,-0.5486314 0.08094,-0.1433731 0.232976,-0.2452522 1.861603,-1.2474817 l 1.4571944,-0.8967316 -3.93e-5,-0.2807302 -3.86e-5,-0.2807295 -1.4975705,-0.9201703 c -0.823665,-0.5060936 -1.559131,-0.964882 -1.63437,-1.0195298 -0.168212,-0.1221746 -0.243603,-0.2676097 -0.243603,-0.4699322 0,-0.3282617 0.392437,-0.6342261 0.80881,-0.6305899 0.223763,0.00194 0.448352,0.1150431 1.475635,0.7430434 0.568875,0.347767 1.0437606,0.6232462 1.0552978,0.612177 0.011532,-0.01107 0.025886,-0.6740021 0.031897,-1.4731828 l 0.010931,-1.453056 0.1838976,-0.1753797 c 0.2018245,-0.1924773 0.344793,-0.2509216 0.6138182,-0.2509216 0.089441,0 0.2214399,0.019933 0.2933291,0.044305 0.2257581,0.076513 4.4639537,2.7671155 4.5957737,2.9176061 0.1600446,0.1827131 0.1805471,0.3824885 0.063628,0.6199875 -0.056784,0.1153471 -0.1994882,0.2112327 -1.721582,1.1567661 -0.5045131,0.3134071 -0.9172967,0.5743441 -0.9172967,0.5798606 0,0.00552 0.3324186,0.2171386 0.7387083,0.4702709 1.9189095,1.1955478 1.8147689,1.1245091 1.9058352,1.3000599 0.04565,0.087994 0.082674,0.1958339 0.082281,0.2396439 -0.00124,0.1366241 -0.1151267,0.3295707 -0.2631256,0.4457235 -0.1457094,0.114355 -4.041582,2.59313613 -4.3269711,2.7530706 -0.1293929,0.0725133 -0.204058,0.0906419 -0.4058849,0.0985499 -0.1443911,0.005636 -0.2893824,-0.006329 -0.3483838,-0.0287928 z M -6.9269433,-1.794881 c 0.5429898,-0.3455978 0.9872543,-0.6388963 0.9872543,-0.6517748 0,-0.01288 -0.4258536,-0.2858862 -0.946342,-0.6066849 -0.8503278,-0.5240933 -0.9541021,-0.5798741 -1.0228265,-0.5497941 l -0.076486,0.033476 v 1.152229 c 0,1.0527331 0.00876,1.2509084 0.055283,1.2509084 0.00872,0 0.460127,-0.2827619 1.0031172,-0.6283596 z m -0.5027755,-3.7327935 c 0.9412556,-0.5704279 1.4900298,-0.916825 1.4900298,-0.9405367 0,-0.030644 -1.9636513,-1.2798658 -2.0118213,-1.2798658 -0.022874,0 -0.033836,0.3884096 -0.033836,1.1993502 0,1.1093316 0.00426,1.2017363 0.056825,1.2311437 0.031252,0.017486 0.065759,0.03222 0.076681,0.032742 0.010925,5.219e-4 0.2008747,-0.1087536 0.4221215,-0.2428334 z"
         id="path3" /></g></g></svg>
