<?xml version="1.0" encoding="UTF-8" standalone="no"?>
<!-- Created with Inkscape (http://www.inkscape.org/) -->

<svg
   width="22"
   height="22"
   viewBox="0 0 22 22"
   version="1.1"
   id="svg5"
   inkscape:version="1.4.2 (ebf0e940d0, 2025-05-08)"
   sodipodi:docname="network-bluetooth.svg"
   xml:space="preserve"
   xmlns:inkscape="http://www.inkscape.org/namespaces/inkscape"
   xmlns:sodipodi="http://sodipodi.sourceforge.net/DTD/sodipodi-0.dtd"
   xmlns="http://www.w3.org/2000/svg"
   xmlns:svg="http://www.w3.org/2000/svg"><sodipodi:namedview
     id="namedview7"
     pagecolor="#ffffff"
     bordercolor="#000000"
     borderopacity="0.25"
     inkscape:showpageshadow="false"
     inkscape:pageopacity="0.0"
     inkscape:pagecheckerboard="0"
     inkscape:deskcolor="#d1d1d1"
     inkscape:document-units="px"
     showgrid="true"
     inkscape:zoom="38.057742"
     inkscape:cx="7.2258622"
     inkscape:cy="10.470931"
     inkscape:window-width="1657"
     inkscape:window-height="1080"
     inkscape:window-x="0"
     inkscape:window-y="0"
     inkscape:window-maximized="0"
     inkscape:current-layer="layer1"><inkscape:grid
       type="xygrid"
       id="grid3636"
       originx="0"
       originy="0"
       spacingy="1"
       spacingx="1"
       units="px"
       visible="true" /></sodipodi:namedview><defs
     id="defs2"><style
       type="text/css"
       id="current-color-scheme">
      .ColorScheme-Text {
        color:#36404d;
      }
      </style><style
       type="text/css"
       id="current-color-scheme-67">
      .ColorScheme-Text {
        color:#122036;
      }
      </style><style
       type="text/css"
       id="current-color-scheme-7">
      .ColorScheme-Text {
        color:#122036;
      }
      </style><style
       type="text/css"
       id="current-color-scheme-5">
      .ColorScheme-Text {
        color:#122036;
      }
      </style><style
       type="text/css"
       id="current-color-scheme-6">
      .ColorScheme-Text {
        color:#122036;
      }
      </style><style
       type="text/css"
       id="current-color-scheme-1">
      .ColorScheme-Text {
        color:#122036;
      }
      </style><style
       id="current-color-scheme-10"
       type="text/css">
      .ColorScheme-Text {
        color:#122036;
      }
      </style><style
       id="current-color-scheme-5-7"
       type="text/css">
      .ColorScheme-Text {
        color:#122036;
      }
      </style><style
       id="current-color-scheme-1-2"
       type="text/css">
      .ColorScheme-Text {
        color:#122036;
      }
      </style><style
       type="text/css"
       id="current-color-scheme-10-9">
      .ColorScheme-Text {
        color:#122036;
      }
      </style><style
       type="text/css"
       id="current-color-scheme-3">
      .ColorScheme-Text {
        color:#36404d;
      }
      </style><style
       type="text/css"
       id="current-color-scheme-67-5">
      .ColorScheme-Text {
        color:#122036;
      }
      </style><style
       type="text/css"
       id="current-color-scheme-7-6">
      .ColorScheme-Text {
        color:#122036;
      }
      </style><style
       type="text/css"
       id="current-color-scheme-5-2">
      .ColorScheme-Text {
        color:#122036;
      }
      </style><style
       type="text/css"
       id="current-color-scheme-6-9">
      .ColorScheme-Text {
        color:#122036;
      }
      </style><style
       type="text/css"
       id="current-color-scheme-1-1">
      .ColorScheme-Text {
        color:#122036;
      }
      </style><style
       id="current-color-scheme-10-2"
       type="text/css">
      .ColorScheme-Text {
        color:#122036;
      }
      </style><style
       id="current-color-scheme-5-7-7"
       type="text/css">
      .ColorScheme-Text {
        color:#122036;
      }
      </style><style
       id="current-color-scheme-1-2-0"
       type="text/css">
      .ColorScheme-Text {
        color:#122036;
      }
      </style><style
       type="text/css"
       id="current-color-scheme-10-9-9">
      .ColorScheme-Text {
        color:#122036;
      }
      </style></defs><g
     inkscape:label="Capa 1"
     inkscape:groupmode="layer"
     id="layer1"><g
       id="path3904-7-5"
       inkscape:label="path3904-7-5" /><g
       id="g2"
       transform="matrix(4.5198411,0,0,4.5017846,-3.4712414,-3.2666)" /><path
       style="fill:#44acff;stroke-width:0.0273159"
       d="M 9.5109249,20.000404 C 9.1405051,19.911583 8.829075,19.691323 8.6502665,19.391701 l -0.1116096,-0.187019 -0.00808,-2.431315 c -0.0047,-1.417064 -0.019335,-2.431314 -0.03506,-2.431314 -0.01484,0 -0.7540808,0.466533 -1.6427581,1.036739 -0.8886774,0.570207 -1.68951,1.07373 -1.7796276,1.118939 -0.2089437,0.104824 -0.3218629,0.132578 -0.606462,0.149065 -0.5375561,0.03114 -1.0246047,-0.210846 -1.2784217,-0.635171 -0.094812,-0.158506 -0.1108042,-0.2113 -0.1218242,-0.402204 -0.010072,-0.174444 3.78e-4,-0.255368 0.050678,-0.392525 0.1255123,-0.342242 0.076576,-0.306482 2.8642117,-2.092955 L 8.5221215,11.495648 8.5213643,11.035748 8.5206074,10.575849 6.4622709,9.2582989 C 3.4336432,7.3196642 3.4470632,7.3284909 3.3236318,7.1939522 3.1315319,6.9845654 3.0777228,6.8384998 3.07674,6.5237615 3.0759372,6.2666872 3.0816662,6.240201 3.1723868,6.081572 3.2861667,5.8826224 3.538952,5.6523326 3.7460112,5.5589951 4.1830188,5.3620017 4.7275174,5.3785614 5.1265816,5.6009811 c 0.082089,0.045753 0.8663272,0.5433742 1.7427506,1.1058249 0.8764237,0.5624502 1.6069231,1.0226371 1.6233321,1.0226371 0.019511,0 0.03263,-0.840864 0.037914,-2.4300094 l 0.00809,-2.4300094 0.0965,-0.1687359 C 8.7489472,2.5017394 9.0017326,2.2714498 9.2087918,2.1781121 9.6354055,1.9858039 10.167859,1.9967251 10.56599,2.2059501 c 0.228356,0.1200049 6.967605,4.5731333 7.112313,4.6996388 0.4603,0.4024028 0.477634,1.0448708 0.03962,1.468689 -0.05504,0.053249 -0.990821,0.668536 -2.079532,1.3673066 -1.08871,0.6987705 -1.985171,1.2786135 -1.992137,1.2885415 -0.0069,0.01 0.885555,0.593973 1.983379,1.297874 1.097827,0.703901 2.040517,1.324769 2.094869,1.379706 0.438131,0.442838 0.414223,1.060381 -0.05679,1.466935 -0.148414,0.128104 -6.818894,4.539991 -7.080507,4.683081 -0.07016,0.03838 -0.188345,0.08973 -0.262634,0.114118 -0.175714,0.05769 -0.6262073,0.07351 -0.8136381,0.02857 z m 3.3790141,-4.496628 c 0.885282,-0.58476 1.601855,-1.073583 1.592383,-1.086275 -0.0094,-0.01269 -0.128301,-0.09417 -0.264064,-0.18104 -0.135764,-0.08688 -0.818162,-0.52483 -1.516436,-0.973225 l -1.269595,-0.815263 -0.103397,0.05832 -0.103397,0.05832 -2.04e-4,2.009469 c -1.24e-4,1.214902 0.01074,2.006195 0.02744,2.001185 0.01521,-0.0046 0.75198,-0.486725 1.637263,-1.071482 z m 0.06431,-6.8545331 c 0.819525,-0.5263985 1.505202,-0.9657255 1.523736,-0.9762824 0.02188,-0.012463 -0.01368,-0.052715 -0.101374,-0.1147728 -0.22515,-0.1593218 -3.119384,-2.0660926 -3.136067,-2.0660926 -0.0085,0 -0.01554,0.9010694 -0.01554,2.0023768 v 2.0023764 l 0.08254,0.060544 c 0.04539,0.0333 0.09922,0.057933 0.119608,0.054741 0.02039,-0.00319 0.707578,-0.4364929 1.527095,-0.9628913 z"
       id="path1" /></g></svg>
