<?xml version="1.0" encoding="UTF-8" standalone="no"?>
<!-- Created with Inkscape (http://www.inkscape.org/) -->

<svg
   width="22"
   height="22"
   viewBox="0 0 22 22"
   version="1.1"
   id="svg5"
   inkscape:version="1.4.2 (ebf0e940d0, 2025-05-08)"
   sodipodi:docname="network-bluetooth-inactive-symbolic.svg"
   xml:space="preserve"
   xmlns:inkscape="http://www.inkscape.org/namespaces/inkscape"
   xmlns:sodipodi="http://sodipodi.sourceforge.net/DTD/sodipodi-0.dtd"
   xmlns="http://www.w3.org/2000/svg"
   xmlns:svg="http://www.w3.org/2000/svg"><sodipodi:namedview
     id="namedview7"
     pagecolor="#ffffff"
     bordercolor="#000000"
     borderopacity="0.25"
     inkscape:showpageshadow="false"
     inkscape:pageopacity="0.0"
     inkscape:pagecheckerboard="0"
     inkscape:deskcolor="#d1d1d1"
     inkscape:document-units="px"
     showgrid="true"
     inkscape:zoom="19.028871"
     inkscape:cx="25.881725"
     inkscape:cy="18.261725"
     inkscape:window-width="1920"
     inkscape:window-height="1006"
     inkscape:window-x="0"
     inkscape:window-y="0"
     inkscape:window-maximized="1"
     inkscape:current-layer="g1"><inkscape:grid
       type="xygrid"
       id="grid3636"
       originx="0"
       originy="0"
       spacingy="1"
       spacingx="1"
       units="px"
       visible="true" /></sodipodi:namedview><defs
     id="defs2"><style
       type="text/css"
       id="current-color-scheme">
      .ColorScheme-Text {
        color:#36404d;
      }
      </style><style
       type="text/css"
       id="current-color-scheme-67">
      .ColorScheme-Text {
        color:#122036;
      }
      </style><style
       type="text/css"
       id="current-color-scheme-7">
      .ColorScheme-Text {
        color:#122036;
      }
      </style><style
       type="text/css"
       id="current-color-scheme-5">
      .ColorScheme-Text {
        color:#122036;
      }
      </style><style
       type="text/css"
       id="current-color-scheme-6">
      .ColorScheme-Text {
        color:#122036;
      }
      </style><style
       type="text/css"
       id="current-color-scheme-1">
      .ColorScheme-Text {
        color:#122036;
      }
      </style><style
       id="current-color-scheme-10"
       type="text/css">
      .ColorScheme-Text {
        color:#122036;
      }
      </style><style
       id="current-color-scheme-5-7"
       type="text/css">
      .ColorScheme-Text {
        color:#122036;
      }
      </style><style
       id="current-color-scheme-1-2"
       type="text/css">
      .ColorScheme-Text {
        color:#122036;
      }
      </style><style
       type="text/css"
       id="current-color-scheme-10-9">
      .ColorScheme-Text {
        color:#122036;
      }
      </style><style
       type="text/css"
       id="current-color-scheme-3">
      .ColorScheme-Text {
        color:#36404d;
      }
      </style><style
       type="text/css"
       id="current-color-scheme-67-5">
      .ColorScheme-Text {
        color:#122036;
      }
      </style><style
       type="text/css"
       id="current-color-scheme-7-6">
      .ColorScheme-Text {
        color:#122036;
      }
      </style><style
       type="text/css"
       id="current-color-scheme-5-2">
      .ColorScheme-Text {
        color:#122036;
      }
      </style><style
       type="text/css"
       id="current-color-scheme-6-9">
      .ColorScheme-Text {
        color:#122036;
      }
      </style><style
       type="text/css"
       id="current-color-scheme-1-1">
      .ColorScheme-Text {
        color:#122036;
      }
      </style><style
       id="current-color-scheme-10-2"
       type="text/css">
      .ColorScheme-Text {
        color:#122036;
      }
      </style><style
       id="current-color-scheme-5-7-7"
       type="text/css">
      .ColorScheme-Text {
        color:#122036;
      }
      </style><style
       id="current-color-scheme-1-2-0"
       type="text/css">
      .ColorScheme-Text {
        color:#122036;
      }
      </style><style
       type="text/css"
       id="current-color-scheme-10-9-9">
      .ColorScheme-Text {
        color:#122036;
      }
      </style></defs><g
     inkscape:label="Capa 1"
     inkscape:groupmode="layer"
     id="layer1"><g
       id="path3904-7-5" /><g
       id="g2"
       transform="matrix(3.7795276,0,0,3.7795276,-0.99999994,-0.99999964)"><g
         id="path3904-7"><g
           inkscape:label="Capa 1"
           id="layer1-3"
           transform="matrix(0.26458333,0,0,0.26458333,0.26458332,0.26458324)"><g
             id="path3904-7-5-6" /><g
             id="g1"
             transform="translate(-22,6.0000005)"><g
               id="path4082-5-8"
               transform="matrix(3.7795276,0,0,3.7795276,21,-6.9999999)"><path
                 style="color:#000000;fill:#1463bf;stroke-width:0.529167;stroke-linecap:round;stroke-linejoin:round;stroke-miterlimit:1.8;paint-order:fill markers stroke"
                 d="M 3.175,3.175 2.38125,3.96875"
                 id="path4156-7" /></g><path
               style="fill:#f1f1f1;fill-opacity:0.900739;stroke-width:0.0508073"
               d="m 31.31292,13.846731 c -0.107843,-0.03957 -0.327095,-0.184166 -0.487226,-0.321328 l -0.291147,-0.249386 -0.0312,-2.133475 c -0.04011,-2.7433714 -0.03954,-2.7254267 -0.091,-2.8051223 -0.05863,-0.090805 -0.09869,-0.069246 -1.744174,0.9386717 -0.75059,0.4597642 -1.537804,0.9244556 -1.749363,1.0326456 -0.37472,0.19163 -0.395115,0.196021 -0.7898,0.169998 C 25.6455,10.446855 25.394331,10.304286 25.156452,9.9266885 24.868678,9.4698904 24.957634,9.2210861 25.58535,8.7270872 25.868432,8.5043073 29.14107,6.3526801 30.136624,5.7348068 l 0.320096,-0.1986605 4.48e-4,-0.586018 C 30.457536,4.4698677 30.443436,4.3587679 30.379025,4.3345125 30.277328,4.2962115 27.199674,2.2996818 26.086858,1.5501016 25.1558,0.92295144 25.021193,0.78095225 25.021193,0.4259098 c 0,-0.4119289 0.396154,-0.85499397 0.85569,-0.95701834 0.230215,-0.0511111 0.694306,-0.0120582 0.91675,0.0771442 0.08629,0.034605 0.813287,0.45779874 1.615541,0.9404308 1.814672,1.09169954 1.953586,1.16778724 1.99935,1.09511674 0.01959,-0.031099 0.05046,-0.73950346 0.0686,-1.57424051 0.01815,-0.83473649 0.04725,-1.92910329 0.06468,-2.43192539 l 0.03168,-0.9142225 0.236965,-0.2359838 c 0.344472,-0.3430442 0.472981,-0.3953093 0.980629,-0.3988277 0.392335,-0.00272 0.461589,0.011713 0.692374,0.1442933 0.332217,0.1908487 5.445944,3.54877157 6.282659,4.12550019 0.352598,0.24303856 0.750714,0.54667683 0.884702,0.67475201 0.241217,0.2305732 0.243613,0.2360774 0.243613,0.5594457 V 1.8569569 L 39.598308,2.1362536 C 39.435442,2.2898666 38.518045,2.9420259 37.559649,3.5854974 36.601251,4.2289687 35.75941,4.8015847 35.688891,4.8579779 L 35.560665,4.9605095 35.72622,5.090345 c 0.09106,0.071411 0.829589,0.5717493 1.641185,1.1118663 1.585232,1.0549723 2.178673,1.4723288 2.358548,1.6587242 0.258435,0.2678045 0.254655,0.7535742 -0.0083,1.0602016 -0.199608,0.2328058 -2.425561,1.7331849 -5.516143,3.7181009 -1.965298,1.262204 -1.910368,1.232524 -2.327276,1.257526 -0.241569,0.01449 -0.431704,-0.0024 -0.561372,-0.05003 z M 34.711024,9.6638368 C 36.233856,8.6666561 36.548656,8.4325037 36.490537,8.3402154 36.415654,8.2213147 34.112174,6.7284371 33.645995,6.496682 33.495572,6.4218996 33.322479,6.3677084 33.261342,6.3762545 l -0.111157,0.015535 -0.01342,2.0383879 c -0.0074,1.1211125 -0.0023,2.0667296 0.01121,2.1013696 0.01355,0.03464 0.05097,0.06298 0.08319,0.06298 0.03221,0 0.698142,-0.418813 1.479856,-0.9306949 z M 34.024856,3.218049 c 0.658253,-0.391722 2.261741,-1.4520519 2.407698,-1.592125 0.102397,-0.09827 0.102264,-0.098699 -0.07693,-0.2486195 -0.528748,-0.44236764 -2.973229,-2.0068521 -3.135674,-2.0068521 -0.09146,0 -0.09541,0.0850131 -0.09541,2.0552307 0,1.1303779 0.01539,2.0703312 0.03419,2.0887864 0.09701,0.095202 0.358325,0.00574 0.866123,-0.2964205 z"
               id="path6" /></g></g></g></g></g></svg>
