<?xml version="1.0" encoding="UTF-8" standalone="no"?>
<svg
   width="16"
   height="16"
   version="1.1"
   id="svg2"
   sodipodi:docname="notification-new-symbolic.svg"
   inkscape:version="1.4.2 (ebf0e940d0, 2025-05-08)"
   xmlns:inkscape="http://www.inkscape.org/namespaces/inkscape"
   xmlns:sodipodi="http://sodipodi.sourceforge.net/DTD/sodipodi-0.dtd"
   xmlns="http://www.w3.org/2000/svg"
   xmlns:svg="http://www.w3.org/2000/svg">
  <defs
     id="defs2" />
  <sodipodi:namedview
     id="namedview2"
     pagecolor="#ffffff"
     bordercolor="#000000"
     borderopacity="0.25"
     inkscape:showpageshadow="2"
     inkscape:pageopacity="0.0"
     inkscape:pagecheckerboard="0"
     inkscape:deskcolor="#d1d1d1"
     inkscape:zoom="47.420349"
     inkscape:cx="4.3124946"
     inkscape:cy="7.7076615"
     inkscape:window-width="1920"
     inkscape:window-height="1006"
     inkscape:window-x="0"
     inkscape:window-y="0"
     inkscape:window-maximized="1"
     inkscape:current-layer="svg2"
     showgrid="true">
    <inkscape:grid
       id="grid1"
       units="px"
       originx="0"
       originy="0"
       spacingx="1"
       spacingy="1"
       empcolor="#0099e5"
       empopacity="0.30196078"
       color="#0099e5"
       opacity="0.14901961"
       empspacing="5"
       enabled="true"
       visible="true" />
  </sodipodi:namedview>
  <g
     id="g1"
     transform="matrix(1,0,0,0.93533015,0,0.06466985)" />
  <g
     id="g6"
     transform="matrix(1.0917218,0,0,1.0807257,31.288687,-2.8075745)">
    <path
       style="fill:#333333;stroke-width:0.0339158"
       d="m -22.176056,15.797083 c -3.595147,-0.559588 -5.803695,-4.142348 -4.690983,-7.6098246 0.554091,-1.7266831 1.946946,-3.1337381 3.669349,-3.7067601 0.74226,-0.2469408 0.970141,-0.2813919 1.871642,-0.2829553 0.709577,-0.00123 0.838966,0.00729 1.15601,0.076133 1.802675,0.3914286 3.240192,1.4833352 4.060936,3.0845968 0.739603,1.4429622 0.838082,3.1720622 0.267835,4.7027082 -0.704225,1.890266 -2.354649,3.289667 -4.352589,3.690578 -0.482552,0.09683 -1.502135,0.120246 -1.9822,0.04552 z"
       id="path2-3" />
    <path
       style="fill:#e6e6e6;fill-opacity:1;stroke-width:0.0338316"
       d="m -21.753748,16.490265 c -1.597168,-0.100586 -3.034969,-0.760756 -4.184082,-1.921132 -1.707676,-1.724414 -2.305361,-4.346248 -1.516857,-6.6539211 1.132152,-3.3134067 4.656074,-5.1302429 7.996109,-4.1225712 1.41472,0.4268136 2.690166,1.3871161 3.522692,2.6522878 0.433053,0.6580996 0.761763,1.4588557 0.9337,2.2745404 0.119506,0.566948 0.150797,1.5748141 0.06739,2.1707321 -0.341636,2.441016 -1.998646,4.470074 -4.297776,5.262755 -0.488716,0.168497 -1.114764,0.299923 -1.544848,0.324308 -0.174139,0.0099 -0.377512,0.02235 -0.451942,0.02773 -0.07443,0.0054 -0.310405,-0.0013 -0.524391,-0.01473 z m 1.207357,-0.656545 c 0.889597,-0.126473 1.689123,-0.42277 2.395713,-0.88783 1.609802,-1.059532 2.573731,-2.770481 2.645154,-4.695082 0.0299,-0.8056441 -0.05105,-1.3880921 -0.295092,-2.1233069 -0.580301,-1.7482502 -1.940976,-3.1100782 -3.689733,-3.6928614 -0.684466,-0.2281023 -0.969642,-0.2700658 -1.840504,-0.2708289 -0.686197,-6.014e-4 -0.81993,0.00845 -1.131955,0.076599 -0.834128,0.1821855 -1.628256,0.5247861 -2.268125,0.9785087 -0.412074,0.2921964 -1.06914,0.9492626 -1.361336,1.3613366 -0.616332,0.8691894 -1.001914,1.9539108 -1.070318,3.0110168 -0.159328,2.4622621 1.137028,4.6956651 3.33157,5.7397301 0.525491,0.250005 1.301759,0.469374 1.874279,0.529659 0.306655,0.03229 1.100366,0.01713 1.410347,-0.02694 z"
       id="path5" />
  </g>
  <g
     id="g7"
     transform="matrix(0.5942731,0,0,0.64132878,3.2786209,2.3493135)">
    <path
       class="suggested"
       d="M 14,4 A 2,2 0 0 1 12,6 2,2 0 0 1 10,4 2,2 0 0 1 12,2 2,2 0 0 1 14,4 Z"
       fill="#4285f4"
       id="path2"
       style="display:inline"
       transform="matrix(1,0,0,0.93533015,0,0.06466985)" />
    <path
       style="fill:#f2f2f2;stroke:#a9a9a9;stroke-width:0.021088;stroke-opacity:0.34902"
       d="M 1.0227677,12.919791 V 12.701762 L 2.0232323,11.766905 3.023697,10.832049 3.031617,8.4368795 3.039537,6.0417101 3.097126,5.7781102 C 3.3009337,4.8452402 3.7342654,4.0501235 4.3788155,3.426351 5.0750662,2.7525443 5.7792386,2.3579384 6.7156671,2.1168205 6.8717731,2.0766252 7.0043219,2.0389125 7.01022,2.0330145 7.01612,2.0271145 7.027369,1.9475175 7.035223,1.8561275 7.044593,1.7470627 7.068207,1.6491083 7.103935,1.5710684 7.179943,1.4050442 7.3831894,1.2071166 7.5705893,1.1166254 7.7057677,1.0513504 7.7380596,1.0446504 7.953848,1.0371034 c 0.1840536,-0.00644 0.2602306,-1.984e-4 0.3479518,0.028498 0.3732478,0.1221004 0.6228478,0.4197888 0.6711048,0.8004005 0.01161,0.09157 0.029719,0.1717985 0.040241,0.1782848 0.010523,0.00649 0.1326992,0.039391 0.2715033,0.073122 L 9.5370207,2.1787373 9.4222069,2.354877 C 9.1485476,2.7747076 8.9940291,3.2771981 8.9940291,3.7473022 c 0,0.1798047 -0.00356,0.1978948 -0.036904,0.1875902 C 8.3491235,3.7470017 7.5716828,3.7556198 6.9695818,3.9569245 6.5300833,4.103865 6.1422112,4.3469739 5.798293,4.6910597 5.4729947,5.0165169 5.2802349,5.3166454 5.1386092,5.718192 4.9925126,6.132415 5.0016304,5.9421828 4.9929692,8.7567892 l -0.00784,2.5463748 H 8.0018049 11.018476 V 8.887168 c 0,-2.2909934 0.0019,-2.415439 0.0369,-2.405225 0.628098,0.183323 1.293967,0.1835366 1.887376,6.052e-4 0.03498,-0.010784 0.0369,0.1022308 0.0369,2.1701547 v 2.1815311 l 1.001568,0.935641 1.001567,0.935641 1.12e-4,0.216152 1.12e-4,0.216152 H 8.0028934 1.0227677 Z"
       id="path6" />
    <path
       style="fill:#ffffff;stroke:#a9a9a9;stroke-width:0.021088;stroke-opacity:0.34902"
       d="M 7.7340148,14.993578 C 7.2284314,14.92243 6.7406752,14.655329 6.4371099,14.283377 6.3704192,14.201662 6.315854,14.128744 6.315854,14.121336 c 0,-0.0074 0.7595016,-0.01347 1.6877814,-0.01347 1.6010803,0 1.6867393,0.0019 1.6674952,0.0369 -0.011157,0.0203 -0.070801,0.09589 -0.132542,0.167982 -0.2732498,0.319065 -0.6837598,0.557281 -1.1204789,0.650207 -0.1853536,0.03944 -0.5161894,0.05425 -0.6840949,0.03062 z"
       id="path7" />
  </g>
  <path
     style="fill:#ffffff;stroke-width:0.021088"
     d="M 3.9012788,10.633757 V 10.502093 L 4.4957863,9.9073113 5.0902939,9.3125291 5.103514,7.7034796 5.1167342,6.0944301 5.1718012,5.8898565 C 5.3312419,5.2975352 5.5804557,4.8683888 6.0028419,4.4588035 6.3664487,4.1062161 6.6874105,3.9139026 7.1796435,3.7536884 l 0.2733257,-0.088963 0.02541,-0.1376799 c 0.013976,-0.075724 0.040046,-0.1659818 0.057934,-0.2005728 0.047715,-0.092271 0.2367226,-0.253839 0.3259366,-0.2786181 0.3506997,-0.097406 0.6821622,0.1350676 0.7342323,0.5149604 0.014262,0.1040513 0.034097,0.1230965 0.1550349,0.1488638 0.040594,0.00865 0.094943,0.023689 0.1207754,0.033422 L 8.91926,3.7627975 8.8468056,3.8847581 C 8.7077075,4.1188988 8.6039012,4.4908072 8.6039012,4.7550157 v 0.099588 L 8.4931893,4.8243083 C 8.3317826,4.7801399 7.9188901,4.7654876 7.7234847,4.7969938 7.340372,4.8587652 7.0170017,5.0326641 6.7358988,5.3280882 6.5253712,5.5493411 6.4193695,5.7235652 6.3116908,6.0253161 6.2578799,6.1761114 6.2566475,6.19236 6.2408695,6.9590378 6.2320381,7.3881784 6.2239449,8.1592082 6.222885,8.6724372 L 6.220958,9.6055809 H 8.0345254 9.8480929 V 8.0639012 c 0,-1.423627 0.00266,-1.5406578 0.034774,-1.5283356 0.019126,0.00734 0.1211391,0.028441 0.2266961,0.046893 0.219781,0.038419 0.541098,0.028364 0.728685,-0.022803 0.06325,-0.017253 0.116812,-0.029346 0.119024,-0.026873 0.0022,0.00247 0.01098,0.6320873 0.0195,1.3991443 l 0.01548,1.3946489 0.587763,0.5874811 0.587762,0.5874811 v 0.131941 0.131942 H 8.0345254 3.9012788 Z"
     id="path1" />
  <path
     style="fill:#ffffff;stroke-width:0.021088"
     d="M 7.6930027,11.902684 C 7.5037885,11.838631 7.3352231,11.728119 7.1900356,11.572937 l -0.1340189,-0.143245 0.4892544,-0.0057 c 0.2690899,-0.0031 0.7094188,-0.0031 0.9785087,0 l 0.4892543,0.0057 -0.1286355,0.137072 c -0.1468836,0.156517 -0.3116475,0.263304 -0.5112461,0.33135 -0.1833315,0.0625 -0.5026846,0.06465 -0.6801498,0.0046 z"
     id="path3" />
  <path
     style="fill:#ffffff;stroke-width:0.021088"
     d="M 7.5057695,15.002099 C 5.809173,14.893482 4.2328642,14.174522 3.0036471,12.948666 2.4219798,12.36859 2.0021148,11.776934 1.6458413,11.035306 0.47775549,8.6037884 0.80222453,5.7582294 2.4893666,3.6376788 2.7102578,3.3600432 3.2783776,2.7904441 3.5427829,2.5815198 4.6247806,1.726561 5.7672275,1.241436 7.1488297,1.0502595 7.5225678,0.99854424 8.4830776,0.99950127 8.8675012,1.051972 10.526194,1.27837 11.93073,1.9840099 13.074652,3.1656475 c 1.092141,1.1281486 1.783918,2.6168652 1.918864,4.1294281 0.02899,0.3249027 0.02932,1.22983 5.5e-4,1.4880736 -0.266085,2.3882858 -1.762089,4.4941268 -3.934943,5.5389998 -0.823458,0.395981 -1.7012473,0.621352 -2.6551977,0.681718 -0.3723313,0.02356 -0.5066469,0.0233 -0.8981558,-0.0018 z m 0.9993756,-0.663064 c 0.6256572,-0.02764 1.3945317,-0.21365 2.0599399,-0.498348 0.473741,-0.202692 0.95759,-0.493034 1.407545,-0.84462 0.212998,-0.166433 0.716108,-0.646243 0.870963,-0.830628 0.04004,-0.04768 0.09171,-0.109359 0.11483,-0.137072 0.02312,-0.02771 0.114224,-0.14872 0.202463,-0.268904 0.650622,-0.886165 1.031636,-1.8545954 1.171699,-2.9781272 0.04383,-0.3515975 0.04943,-1.2386092 0.0098,-1.5481541 C 14.251758,6.52598 14.045677,5.8508703 13.717951,5.1876463 13.488519,4.7233423 13.192383,4.2735141 12.843329,3.8591028 12.587825,3.5557575 11.790806,2.8402831 11.741996,2.8704493 c -0.0094,0.0058 -0.01707,2.204e-4 -0.01707,-0.012406 0,-0.029403 -0.343868,-0.2520722 -0.643184,-0.4164885 C 10.446638,2.0926885 9.6148489,1.8089557 8.9834851,1.7258165 8.6420355,1.6808537 7.2929349,1.6735861 7.0328458,1.7153083 6.7561306,1.7596977 6.2908211,1.879858 5.9631988,1.9915314 4.7895118,2.3915944 3.9570797,2.9528473 3.1151139,3.9118033 2.7605262,4.3156608 2.5446609,4.6383134 2.2980506,5.1330626 1.7848114,6.1627223 1.5602381,7.2324008 1.6239755,8.3437891 1.7007213,9.6820034 2.1447063,10.88461 2.942311,11.914716 c 0.8578687,1.107938 2.0652791,1.890858 3.4789829,2.255873 0.7131272,0.184128 1.0720904,0.213145 2.0838512,0.168446 z"
     id="path4" />
  <path
     style="fill:#1a1a1a;stroke-width:0.021088"
     d="M 7.4069326,14.285548 C 7.1105012,14.266663 6.7931487,14.210748 6.400206,14.108171 4.049641,13.494559 2.2485784,11.598271 1.7732141,9.236541 1.6293577,8.5218261 1.6183003,7.7075941 1.7424284,6.9695818 2.0562479,5.1037461 3.1824748,3.5031978 4.8586831,2.5408863 5.257951,2.3116666 5.6601785,2.1403696 6.1732049,1.9810701 6.8587521,1.7682012 7.2032062,1.7294082 8.2613981,1.7458942 c 0.5821431,0.00907 0.7218818,0.017397 0.890791,0.053084 1.3503259,0.2852939 2.4098629,0.8319287 3.3186889,1.7121732 0.837128,0.8107998 1.412204,1.8165509 1.709667,2.9900364 0.258841,1.021122 0.230929,2.225813 -0.07633,3.2941856 -0.456706,1.5880396 -1.514927,2.9024006 -3.001392,3.7278716 -0.62383,0.346429 -1.5019035,0.644833 -2.1193429,0.720236 -0.4632096,0.05657 -1.0874724,0.07323 -1.5765525,0.04207 z m 1.0013307,-2.360641 c 0.1546568,-0.0534 0.3546414,-0.178056 0.4604726,-0.287033 0.1127855,-0.116138 0.1858164,-0.217953 0.168647,-0.235116 -0.019953,-0.01994 -1.9858235,-0.01991 -2.005763,3.8e-5 -0.0274,0.02741 0.1640361,0.249524 0.2950626,0.342348 0.2721519,0.192804 0.4466979,0.247235 0.7500189,0.233886 0.1299531,-0.0057 0.2464389,-0.02473 0.3315619,-0.05412 z M 12.188489,10.633621 12.188118,10.480733 11.599025,9.8902688 11.009931,9.299805 11.008609,7.9185415 c -7.27e-4,-0.759695 -0.0087,-1.3928023 -0.01762,-1.4069053 -0.01259,-0.01982 -0.04005,-0.018087 -0.120933,0.00763 -0.06348,0.020184 -0.216631,0.037388 -0.389327,0.043733 -0.238109,0.00875 -0.314012,0.00347 -0.46391,-0.03226 C 9.918247,6.5072432 9.8328405,6.4927702 9.827027,6.4985782 9.821217,6.5043882 9.813733,7.2010918 9.810404,8.0468144 L 9.804354,9.584492 H 8.0324805 6.2606068 L 6.2671424,7.9132695 6.273678,6.242046 6.3434723,6.0417101 C 6.4313987,5.7893285 6.5214043,5.6279402 6.6783441,5.4412548 6.9228582,5.1503965 7.2344936,4.9492611 7.5811336,4.8585779 c 0.2285999,-0.059803 0.6295272,-0.065369 0.859105,-0.011925 0.089761,0.020895 0.1727948,0.032063 0.1845199,0.024816 0.011725,-0.00725 0.021319,-0.08024 0.021319,-0.1622086 0,-0.2272936 0.071402,-0.4919127 0.2021873,-0.7493094 C 8.910896,3.8366858 8.9598257,3.7341634 8.9569967,3.7321233 8.9541678,3.7300832 8.8837277,3.711089 8.8004633,3.689914 8.6468153,3.6508396 8.6261059,3.6316704 8.6252771,3.5277579 8.6246107,3.4441652 8.5332035,3.2555207 8.4536398,3.1735358 8.331297,3.0474698 8.2265069,3.0060607 8.0284133,3.0055022 7.8329774,3.0049512 7.7390152,3.0446627 7.6018721,3.1857725 7.5044051,3.2860586 7.4440616,3.4272923 7.4440616,3.5551272 v 0.078639 L 7.1962777,3.7113804 C 6.6868953,3.8709359 6.3071377,4.1005845 5.9331394,4.4752309 5.5122144,4.8968853 5.2588099,5.37175 5.1140912,6.0100781 l -0.052591,0.2319679 -1.911e-4,1.5195953 -1.91e-4,1.5195951 -0.5893826,0.5997482 -0.5893829,0.5997484 -0.00108,0.152888 -0.00108,0.152888 H 8.0345254 12.18886 Z M 10.640292,5.9769944 c 0.20318,-0.036599 0.444767,-0.1655321 0.602126,-0.3213507 0.238841,-0.236502 0.355978,-0.5210657 0.355978,-0.8647838 0,-0.3499339 -0.103488,-0.6031313 -0.347311,-0.8497407 -0.237734,-0.2404516 -0.50771,-0.3535096 -0.84416,-0.3535096 -0.334802,0 -0.5996642,0.1117 -0.8435201,0.3557361 C 9.334324,4.172596 9.2164518,4.4592833 9.2157647,4.7888732 c -3.732e-4,0.1790449 0.061334,0.434748 0.141142,0.5848646 0.074737,0.140578 0.3439346,0.409695 0.4846615,0.4845162 0.2294328,0.1219839 0.5314568,0.1668836 0.7987238,0.1187404 z"
     id="path8" />
</svg>
