<?xml version="1.0" encoding="UTF-8" standalone="no"?>
<svg
   width="16"
   height="16"
   version="1.1"
   id="svg2"
   sodipodi:docname="notification-disabled-new-symbolic.svg"
   inkscape:version="1.4.2 (ebf0e940d0, 2025-05-08)"
   xmlns:inkscape="http://www.inkscape.org/namespaces/inkscape"
   xmlns:sodipodi="http://sodipodi.sourceforge.net/DTD/sodipodi-0.dtd"
   xmlns="http://www.w3.org/2000/svg"
   xmlns:svg="http://www.w3.org/2000/svg">
  <defs
     id="defs2" />
  <sodipodi:namedview
     id="namedview2"
     pagecolor="#ffffff"
     bordercolor="#000000"
     borderopacity="0.25"
     inkscape:showpageshadow="2"
     inkscape:pageopacity="0.0"
     inkscape:pagecheckerboard="0"
     inkscape:deskcolor="#d1d1d1"
     showgrid="true"
     inkscape:zoom="53.0625"
     inkscape:cx="8"
     inkscape:cy="9.1872792"
     inkscape:window-width="1920"
     inkscape:window-height="1006"
     inkscape:window-x="0"
     inkscape:window-y="0"
     inkscape:window-maximized="1"
     inkscape:current-layer="g6">
    <inkscape:grid
       id="grid2"
       units="px"
       originx="0"
       originy="0"
       spacingx="1"
       spacingy="1"
       empcolor="#0099e5"
       empopacity="0.30196078"
       color="#0099e5"
       opacity="0.14901961"
       empspacing="5"
       enabled="true"
       visible="true" />
  </sodipodi:namedview>
  <g
     id="g6"
     transform="matrix(1.0917218,0,0,1.0807257,27.347378,-0.79871022)">
    <g
       id="g2"
       transform="matrix(0.98796561,0,0,0.99463112,3.3941422,-1.8121192)">
      <path
         style="fill:#333333;stroke-width:0.0338316"
         d="m -22.194599,15.814521 c -3.577314,-0.559588 -5.774906,-4.142348 -4.667714,-7.6098246 0.551343,-1.7266831 1.937288,-3.1337381 3.651147,-3.7067601 0.738578,-0.2469408 0.965329,-0.2813919 1.862358,-0.2829553 0.706057,-0.00123 0.834804,0.00729 1.150276,0.076133 1.793733,0.3914286 3.224119,1.4833352 4.040791,3.0845968 0.735935,1.4429622 0.833925,3.1720622 0.266507,4.7027082 -0.700732,1.890266 -2.342969,3.289667 -4.330998,3.690578 -0.480158,0.09683 -1.494684,0.120246 -1.972367,0.04552 z"
         id="path2-6" />
      <path
         style="fill:#e6e6e6;fill-opacity:1;stroke-width:0.0338316"
         d="m -21.753748,16.490265 c -1.597168,-0.100586 -3.034969,-0.760756 -4.184082,-1.921132 -1.707676,-1.724414 -2.305361,-4.346248 -1.516857,-6.6539211 1.132152,-3.3134067 4.656074,-5.1302429 7.996109,-4.1225712 1.41472,0.4268136 2.690166,1.3871161 3.522692,2.6522878 0.433053,0.6580996 0.761763,1.4588557 0.9337,2.2745404 0.119506,0.566948 0.150797,1.5748141 0.06739,2.1707321 -0.341636,2.441016 -1.998646,4.470074 -4.297776,5.262755 -0.488716,0.168497 -1.114764,0.299923 -1.544848,0.324308 -0.174139,0.0099 -0.377512,0.02235 -0.451942,0.02773 -0.07443,0.0054 -0.310405,-0.0013 -0.524391,-0.01473 z m 1.207357,-0.656545 c 0.889597,-0.126473 1.689123,-0.42277 2.395713,-0.88783 1.609802,-1.059532 2.573731,-2.770481 2.645154,-4.695082 0.0299,-0.8056441 -0.05105,-1.3880921 -0.295092,-2.1233069 -0.580301,-1.7482502 -1.940976,-3.1100782 -3.689733,-3.6928614 -0.684466,-0.2281023 -0.969642,-0.2700658 -1.840504,-0.2708289 -0.686197,-6.014e-4 -0.81993,0.00845 -1.131955,0.076599 -0.834128,0.1821855 -1.628256,0.5247861 -2.268125,0.9785087 -0.412074,0.2921964 -1.06914,0.9492626 -1.361336,1.3613366 -0.616332,0.8691894 -1.001914,1.9539108 -1.070318,3.0110168 -0.159328,2.4622621 1.137028,4.6956651 3.33157,5.7397301 0.525491,0.250005 1.301759,0.469374 1.874279,0.529659 0.306655,0.03229 1.100366,0.01713 1.410347,-0.02694 z"
         id="path5" />
    </g>
    <g
       id="g1"
       transform="matrix(0.55026773,0,0,0.59552693,-22.139603,2.9296854)">
      <path
         d="m 8.0282686,1.0376914 c -0.5507403,0 -1.0013461,0.4172085 -1.0013461,0.9271299 0,0.027814 -2.391e-4,0.064537 0.00979,0.092351 C 4.743623,2.4836518 3.021508,4.3475539 3.021508,6.6004797 v 4.1720843 l -2.0026923,1.85426 v 0.463565 H 15.037658 v -0.463565 l -2.002693,-1.85426 V 6.6004795 c 0,-0.054863 -0.0058,-0.1085855 -0.0078,-0.1629709 A 3.0040384,2.7813899 0 0 1 12.03364,6.6004795 3.0040384,2.7813899 0 0 1 11.022482,6.4320756 c 0.0036,0.056184 0.0099,0.1113484 0.0099,0.1684039 V 11.236129 H 5.0241618 V 6.6004795 c 0,-1.54089 1.3398011,-2.7813899 3.0040383,-2.7813899 0.3570299,0 0.6978982,0.059882 1.0150646,0.1647788 A 3.0040384,2.7813899 0 0 1 9.0295742,3.8190896 3.0040384,2.7813899 0 0 1 9.5986994,2.2020823 C 9.4098254,2.1444435 9.2179375,2.0940716 9.0198012,2.0572182 c 0.010014,-0.027814 0.00979,-0.064536 0.00979,-0.092351 0,-0.5099215 -0.4506057,-0.9271299 -1.001346,-0.9271299 z M 6.2954391,14.017511 c 0.3604846,0.574821 1.0218738,0.92713 1.7328295,0.92713 0.7109558,0 1.3723448,-0.352309 1.7328294,-0.92713 z"
         fill="#aaaaaa"
         opacity="0.35"
         id="path1"
         style="stroke-width:0.963525" />
      <path
         class="suggested"
         d="M 14,4 A 2,2 0 0 1 12,6 2,2 0 0 1 10,4 2,2 0 0 1 12,2 2,2 0 0 1 14,4 Z"
         fill="#4285f4"
         id="path2" />
    </g>
    <path
       style="fill:#1a1a1a;stroke-width:0.0188457"
       d="M 7.3027091,14.257016 C 6.9508857,14.22 6.3960119,14.091392 6.008866,13.95713 4.7670306,13.526462 3.7060127,12.730895 2.9350175,11.652312 2.3359804,10.814291 1.9427259,9.784611 1.8172341,8.7255595 1.7746613,8.3662783 1.7747536,7.6841396 1.8174228,7.3309776 1.8744785,6.858743 1.9571305,6.4850846 2.1050566,6.0306243 2.6476801,4.3635701 3.9324453,2.965767 5.5701141,2.2606994 6.02897,2.0631477 6.6856388,1.8728228 7.1048292,1.815887 7.3607868,1.781122 8.8112658,1.7809825 9.0176678,1.8157031 c 0.2491244,0.041907 0.7308214,0.1689403 1.0243352,0.2701378 0.946959,0.3264916 1.715171,0.8034729 2.406488,1.4941847 1.024533,1.0236348 1.632129,2.2831544 1.809469,3.750952 0.0427,0.3534489 0.04277,1.0354222 1.31e-4,1.3945819 -0.03915,0.3298024 -0.120982,0.741812 -0.205865,1.0365135 -0.220974,0.76719 -0.627589,1.552214 -1.132497,2.186437 -0.197663,0.248288 -0.723401,0.77267 -0.971555,0.96905 -0.891718,0.705674 -1.9722703,1.175873 -3.0153118,1.312103 -0.2694366,0.03519 -1.3787387,0.0538 -1.6301531,0.02735 z m 1.0553592,-2.318604 c 0.2416737,-0.07504 0.4573292,-0.22439 0.6020853,-0.416958 0.047181,-0.06276 0.085783,-0.121757 0.085783,-0.131095 0,-0.0099 -0.4378983,-0.01698 -1.0459364,-0.01698 -0.6080381,0 -1.0459364,0.0071 -1.0459364,0.01698 0,0.03293 0.1700497,0.242679 0.2494215,0.30765 0.2590962,0.212088 0.5240149,0.302868 0.8436292,0.289087 0.1106225,-0.0048 0.2294426,-0.02337 0.310954,-0.04868 z M 12.212014,10.640073 V 10.472137 L 11.618839,9.8913148 11.025664,9.3104925 11.020488,7.9218267 c -0.0028,-0.7637661 -0.01046,-1.3939466 -0.01692,-1.4004008 -0.0065,-0.00645 -0.08278,0.00757 -0.169611,0.031157 -0.132951,0.036122 -0.202488,0.042684 -0.440554,0.041577 -0.245919,-0.00114 -0.302907,-0.00748 -0.4381625,-0.048737 L 9.7997644,6.4979997 V 8.0405194 9.5830389 H 7.9992115 6.1986586 L 6.2050001,7.96702 c 0.00628,-1.6003006 0.00675,-1.6175574 0.048264,-1.7742002 0.1720488,-0.6491799 0.6708728,-1.1444442 1.3156035,-1.3062149 0.2341205,-0.058744 0.6453635,-0.058292 0.8628872,9.486e-4 0.081988,0.022328 0.154915,0.040597 0.1620604,0.040597 0.00715,0 0.018108,-0.086926 0.024362,-0.1931685 0.00625,-0.1062426 0.028612,-0.2597763 0.049685,-0.3411859 0.037634,-0.1453888 0.1658254,-0.4334694 0.246472,-0.5538893 0.0314,-0.046886 0.035041,-0.06304 0.015607,-0.06924 C 8.8764947,3.7536155 8.7695352,3.7233389 8.6951708,3.7042116 8.6181265,3.6843952 8.6175936,3.6836451 8.6051104,3.5774327 8.5799715,3.363539 8.4509282,3.181492 8.2570838,3.0864562 8.1678839,3.0427243 8.1264908,3.0343318 8,3.0343318 c -0.1264908,0 -0.1678839,0.00839 -0.2570838,0.052124 C 7.5490718,3.181492 7.4200285,3.363539 7.3948896,3.5774327 7.3823953,3.6837397 7.381942,3.6843754 7.3048292,3.7037887 6.7316996,3.8480744 6.2606004,4.1120277 5.8608744,4.5128254 5.338929,5.0361704 5.0479384,5.6747878 4.9936793,6.4160004 4.984156,6.546093 4.976117,7.2513455 4.9758147,7.9832283 L 4.975265,9.3139241 4.3816254,9.8935459 3.7879859,10.473168 v 0.167421 0.16742 H 8 12.212014 Z M 10.785019,6.1661473 c 0.344619,-0.1333835 0.622959,-0.431645 0.742015,-0.7951226 0.06447,-0.1968188 0.08072,-0.5160703 0.03694,-0.7255594 C 11.497809,4.3288735 11.280832,4.0096313 11.012976,3.8347731 10.809216,3.7017574 10.648178,3.6560373 10.383981,3.6561966 10.142217,3.6563424 10.053346,3.6784863 9.828033,3.7947228 9.6660809,3.878272 9.46128,4.0779667 9.3611196,4.2499944 9.1328317,4.6420849 9.1182869,5.1309629 9.3224413,5.5500589 9.4720162,5.8571119 9.754557,6.0996395 10.073027,6.194347 c 0.176485,0.052483 0.540816,0.038054 0.711992,-0.0282 z"
       id="path3"
       transform="matrix(0.91598427,0,0,0.92530417,-25.049768,0.7390499)" />
    <path
       style="fill:#ffffff;stroke-width:0.0188457"
       d="M 7.1406453,14.229144 C 5.8050327,14.010411 4.6412193,13.433899 3.7153858,12.532391 3.1663097,11.997742 2.8005339,11.507619 2.4777145,10.873969 1.6876552,9.3231923 1.576711,7.5403511 2.1669367,5.8798587 2.4802487,4.9984124 3.0177453,4.1736526 3.7101151,3.5119333 4.5175352,2.740257 5.4427856,2.2284681 6.5491289,1.9415739 7.0194842,1.8196025 7.0639936,1.8150925 7.8963486,1.8050627 c 0.9101573,-0.010967 1.1004606,0.00243 1.5131768,0.1065093 0.8625836,0.2175325 1.5898116,0.5413389 2.2182716,0.9877117 1.56517,1.1116834 2.526341,2.8380216 2.642101,4.7454185 0.07203,1.1868924 -0.185983,2.3471638 -0.751635,3.3800328 -0.144456,0.263774 -0.428078,0.696955 -0.579937,0.885748 -0.161042,0.200209 -0.501983,0.557227 -0.737556,0.772334 -0.862489,0.787558 -2.052533,1.356615 -3.1962272,1.528378 -0.281026,0.0422 -1.6361086,0.05526 -1.8638975,0.01795 z m 1.1231945,-2.262112 c 0.1749573,-0.03661 0.4083462,-0.154219 0.540372,-0.272311 0.1090546,-0.09755 0.2417246,-0.262369 0.2417246,-0.300308 0,-0.01523 -0.2887182,-0.02103 -1.0459364,-0.02103 -0.8875564,0 -1.0459364,0.004 -1.0459364,0.02658 0,0.03505 0.1234957,0.189407 0.2287725,0.285932 0.1477371,0.135456 0.4088716,0.264357 0.6004383,0.296389 0.1093564,0.01828 0.3580105,0.0104 0.4805654,-0.01525 z m 3.9481742,-1.33424 v -0.175217 l -0.593057,-0.5796222 -0.593056,-0.5796225 -0.0053,-1.382586 c -0.0029,-0.7604224 -0.01125,-1.3885409 -0.01854,-1.3958191 -0.0073,-0.00728 -0.07513,0.00262 -0.150766,0.021996 -0.10805,0.027679 -0.206184,0.035193 -0.4579,0.035063 -0.280594,-1.455e-4 -0.33642,-0.00541 -0.4495706,-0.042403 -0.071056,-0.02323 -0.1325405,-0.042237 -0.1366313,-0.042237 -0.00409,0 -0.00744,0.6954064 -0.00744,1.5453475 V 9.5830389 H 8.0016383 6.2035119 L 6.2114544,8.221437 C 6.2228242,6.2722294 6.2211901,6.3139579 6.2948532,6.0918095 6.4861262,5.5149803 6.9482627,5.0707008 7.5288575,4.9054871 7.6593519,4.8683537 7.7226995,4.8626318 8,4.8629309 c 0.2448275,2.642e-4 0.3476828,0.00799 0.4361713,0.032783 0.1785998,0.050031 0.168003,0.059953 0.1923405,-0.1801046 0.011851,-0.1168978 0.034032,-0.260472 0.049291,-0.3190539 0.031039,-0.1191644 0.1621252,-0.4204981 0.2297355,-0.5281006 0.024293,-0.038663 0.04417,-0.077741 0.04417,-0.086839 0,-0.0091 -0.072085,-0.035913 -0.1601885,-0.05959 -0.088104,-0.023677 -0.1601884,-0.044526 -0.1601884,-0.046332 0,-0.00181 -0.00924,-0.053263 -0.020532,-0.1143493 C 8.5711793,3.3470209 8.4391453,3.1670028 8.2550034,3.076245 8.1325181,3.0158757 7.8674665,3.0158112 7.745583,3.076121 7.5643407,3.1658025 7.4152803,3.3678775 7.3932676,3.5537406 7.3872347,3.6046797 7.3717328,3.6551258 7.3588193,3.6658431 7.3459057,3.6765605 7.2630285,3.706293 7.1746478,3.7319156 6.0881773,4.0468943 5.2628472,4.926406 5.0440759,6.0023557 4.9831331,6.3020809 4.975259,6.5165188 4.9740368,7.9097402 l -0.00123,1.400036 -0.5921923,0.5747939 -0.5921922,0.5747939 -2.194e-4,0.174323 -2.191e-4,0.174322 H 8 12.212014 Z M 10.685512,6.1990856 C 10.924806,6.1427061 11.181509,5.9649868 11.335639,5.7489934 11.531408,5.4746474 11.597886,5.241333 11.58563,4.8716137 11.573135,4.4946934 11.4749,4.2691522 11.203769,3.9948922 10.963327,3.7516749 10.717278,3.6477304 10.380197,3.6469703 10.180854,3.6465209 10.062715,3.6741665 9.8751472,3.7651577 9.6576577,3.8706644 9.4237718,4.0996135 9.3223955,4.3062426 9.2094048,4.5365445 9.1712565,4.7244792 9.182886,4.9935274 9.193704,5.2438149 9.229471,5.3842938 9.3330863,5.5834569 9.4836704,5.872902 9.8105672,6.1409798 10.094105,6.2075447 c 0.119524,0.02806 0.456888,0.023235 0.591407,-0.00846 z"
       id="path4"
       transform="matrix(0.91598427,0,0,0.92530417,-25.049768,0.7390499)" />
    <path
       style="fill:#ffffff;stroke-width:0.0188457"
       d="M 7.4628975,14.953366 C 5.8001837,14.809841 4.3011004,14.111165 3.1185249,12.928589 2.5868155,12.39688 2.1839254,11.841855 1.8459646,11.175501 1.4456087,10.386122 1.2048406,9.5583717 1.1086815,8.6407538 1.0746566,8.3160631 1.0805502,7.5756576 1.1198575,7.2367491 1.2748375,5.9005064 1.7790233,4.6843696 2.6121497,3.6372203 2.8244969,3.3703229 3.4177513,2.7771109 3.6843345,2.565112 4.7162887,1.7444559 5.9565371,1.2284098 7.2744405,1.0713303 7.6077102,1.0316083 8.4246208,1.0261441 8.7349823,1.0615609 10.36325,1.2473703 11.740024,1.894962 12.888292,3.0151476 c 0.902475,0.880405 1.507838,1.8973341 1.85116,3.1097052 0.166739,0.5888052 0.221164,0.9911666 0.23707,1.7526501 0.01226,0.5869959 -0.0057,0.8811956 -0.07934,1.3003534 -0.417441,2.3756097 -1.979759,4.3407457 -4.185503,5.2646677 -0.562305,0.235533 -1.3201839,0.430065 -1.9201566,0.492865 -0.261723,0.02739 -1.0897257,0.0386 -1.3286219,0.01798 z M 8.651121,14.293171 c 0.9652295,-0.07669 2.048705,-0.455512 2.859411,-0.999753 0.967377,-0.649417 1.673587,-1.448373 2.171907,-2.45714 C 14.111768,9.9671725 14.307566,9.1618049 14.335331,8.1507656 14.35804,7.3238447 14.265356,6.7061051 14.003904,5.941799 13.678257,4.9898346 13.17243,4.1868474 12.455057,3.4830462 11.705454,2.7476249 10.85786,2.2512496 9.8054392,1.9313551 9.1891398,1.7440242 8.9532583,1.7165419 7.9623086,1.716614 7.143073,1.7166735 7.0974743,1.721254 6.5677267,1.8567035 5.6198494,2.0990634 4.7430651,2.5259452 4.1083628,3.0540994 3.736738,3.3633393 3.2070398,3.9103301 2.9560458,4.2440352 2.6229296,4.6869247 2.3195788,5.2625125 2.1038536,5.861013 1.6902976,7.0083679 1.6233095,8.2854449 1.9129772,9.4999207 c 0.1761825,0.7386713 0.4619294,1.3966203 0.8790043,2.0239583 0.2465585,0.370857 0.4649516,0.637862 0.7791305,0.952556 0.4907027,0.491506 1.0137513,0.869199 1.632995,1.179183 0.2883072,0.144323 0.6322465,0.286595 0.656539,0.271582 0.0088,-0.0054 0.018838,-0.002 0.022315,0.0076 0.00759,0.02101 0.563007,0.195594 0.5771744,0.181426 0.00544,-0.0054 0.019934,-0.0016 0.032204,0.0086 0.01227,0.01018 0.046972,0.02172 0.077117,0.02563 0.030145,0.0039 0.067529,0.01243 0.083077,0.01892 0.015548,0.0065 0.054094,0.01452 0.085658,0.01783 0.031564,0.0033 0.065486,0.0109 0.075383,0.01687 0.019261,0.01162 0.4453488,0.08582 0.5550958,0.09666 0.1612154,0.01594 1.0527646,0.01066 1.282452,-0.0076 z"
       id="path6"
       transform="matrix(0.91598427,0,0,0.92530417,-25.049768,0.7390499)" />
    <path
       style="fill:#1a1a1a;stroke-width:0.0188457"
       d="m 7.2179034,14.229206 c -0.015548,-0.0037 -0.091873,-0.01671 -0.1696113,-0.02891 C 6.6386167,14.135994 6.021289,13.952959 5.5877503,13.767248 4.3594098,13.241076 3.2892454,12.284073 2.6228612,11.115872 1.8405894,9.7445145 1.6095601,8.1088241 1.978838,6.55618 2.1630831,5.7815143 2.4983923,5.0439355 2.959158,4.3997729 3.1828893,4.0869906 3.3453886,3.8974545 3.6452494,3.5995289 4.4769781,2.7731675 5.4519994,2.2290946 6.6303333,1.9338181 7.0308819,1.8334453 7.2168377,1.8186101 8.0744388,1.8186101 c 0.8210173,0 0.9376287,0.00925 1.3295659,0.1055065 1.4247163,0.3498853 2.5754833,1.0655954 3.4653333,2.1552361 0.728691,0.8922983 1.182321,1.9481358 1.352495,3.1479736 0.04788,0.3375562 0.04838,1.2677599 8.62e-4,1.6018845 -0.154525,1.0866339 -0.523003,1.9980162 -1.181309,2.9218112 -0.133294,0.187051 -0.518316,0.614128 -0.750181,0.832123 -0.868298,0.816356 -2.012413,1.391559 -3.1839181,1.600711 -0.1978902,0.03533 -0.3090493,0.04022 -1.0413269,0.04581 -0.4508834,0.0034 -0.8325089,0.0032 -0.8480566,-4.65e-4 z M 8.4359335,11.922795 C 8.6351165,11.84423 8.8246696,11.709679 8.9475505,11.559634 9.1141273,11.356234 9.2013575,11.37338 8,11.37338 c -1.2033902,0 -1.1164911,-0.01741 -0.9456699,0.189502 0.1493377,0.180892 0.3198119,0.296151 0.5735678,0.387794 0.1164653,0.04206 0.1491993,0.04535 0.3909478,0.03923 0.244255,-0.0062 0.2752155,-0.01116 0.4170878,-0.06712 z m 3.7761475,-1.298531 6.6e-5,-0.183746 -0.588994,-0.5765133 -0.588995,-0.5765137 -0.0094,-1.3771767 c -0.0052,-0.7574472 -0.01513,-1.382874 -0.0221,-1.3898375 -0.007,-0.00696 -0.09115,8.19e-4 -0.187067,0.017295 -0.254633,0.04374 -0.649781,0.040087 -0.8367664,-0.00774 -0.081055,-0.02073 -0.1544959,-0.037691 -0.163203,-0.037691 -0.00871,0 -0.015831,0.6954064 -0.015831,1.5453475 V 9.5830389 H 8.0094229 6.2190813 l 0.00128,-1.1919906 C 6.2210655,7.7354535 6.2283543,6.9870436 6.2365588,6.7279152 6.2504533,6.2890669 6.2549024,6.2466876 6.3014669,6.1096411 6.4946542,5.5410614 6.905111,5.1305398 7.476414,4.9345087 c 0.2006781,-0.068859 0.6477044,-0.085271 0.9210603,-0.033817 0.1242993,0.023397 0.1846794,0.027637 0.1983849,0.013932 0.010836,-0.010836 0.031785,-0.1161123 0.046553,-0.2339473 0.033123,-0.2642955 0.075054,-0.399942 0.2066991,-0.6686758 0.056428,-0.1151902 0.1025971,-0.2188045 0.1025971,-0.2302542 0,-0.01145 -0.071157,-0.042521 -0.1581252,-0.069049 L 8.6354572,3.6644665 8.6223715,3.5754606 C 8.5895945,3.352522 8.4100216,3.1185708 8.2226819,3.0547378 8.1111682,3.0167412 7.8907094,3.0161015 7.7810787,3.0534564 7.658083,3.0953653 7.5138865,3.2301597 7.4453676,3.3672781 c -0.031819,0.063676 -0.057853,0.1350687 -0.057853,0.1586512 0,0.113518 -0.02137,0.1296499 -0.2953336,0.2229442 C 6.948843,3.7976852 6.7552415,3.8750669 6.6619552,3.9208332 5.7284378,4.3788161 5.09376,5.276058 4.9962618,6.2756184 4.9851405,6.3896349 4.9702637,7.1207778 4.9632024,7.9003803 L 4.9503634,9.3178397 4.369211,9.8791789 3.7880586,10.440518 l -3.66e-5,0.183746 -3.63e-5,0.183745 H 8 12.212014 Z M 10.712998,6.1996478 c 0.185709,-0.048371 0.326884,-0.1355984 0.501126,-0.3096296 0.270229,-0.2699019 0.375982,-0.5335685 0.375982,-0.937408 0,-0.4392171 -0.08705,-0.6586512 -0.376444,-0.9489027 C 10.937864,3.7270896 10.749967,3.6462567 10.384733,3.6471038 10.145607,3.6476584 10.057654,3.6659571 9.8845701,3.7511629 9.5414319,3.9200827 9.290628,4.2341126 9.2038886,4.6034397 9.1668095,4.7613188 9.1775927,5.2099208 9.2217242,5.3454381 9.3499196,5.739096 9.6612659,6.0718566 10.016244,6.194605 c 0.125909,0.043538 0.537522,0.046517 0.696754,0.00504 z"
       id="path7"
       transform="matrix(0.91598427,0,0,0.92530417,-25.049768,0.7390499)" />
  </g>
</svg>
