<?xml version="1.0" encoding="UTF-8" standalone="no"?>
<svg
   width="16"
   height="16"
   version="1.1"
   id="svg2"
   sodipodi:docname="notification-disabled-symbolic.svg"
   inkscape:version="1.4.2 (ebf0e940d0, 2025-05-08)"
   xmlns:inkscape="http://www.inkscape.org/namespaces/inkscape"
   xmlns:sodipodi="http://sodipodi.sourceforge.net/DTD/sodipodi-0.dtd"
   xmlns="http://www.w3.org/2000/svg"
   xmlns:svg="http://www.w3.org/2000/svg">
  <sodipodi:namedview
     id="namedview2"
     pagecolor="#ffffff"
     bordercolor="#000000"
     borderopacity="0.25"
     inkscape:showpageshadow="2"
     inkscape:pageopacity="0.0"
     inkscape:pagecheckerboard="0"
     inkscape:deskcolor="#d1d1d1"
     inkscape:zoom="47.420349"
     inkscape:cx="4.2492306"
     inkscape:cy="7.2859017"
     inkscape:window-width="1920"
     inkscape:window-height="1006"
     inkscape:window-x="0"
     inkscape:window-y="0"
     inkscape:window-maximized="1"
     inkscape:current-layer="g1"
     showgrid="true">
    <inkscape:grid
       id="grid1"
       units="px"
       originx="0"
       originy="0"
       spacingx="1"
       spacingy="1"
       empcolor="#0099e5"
       empopacity="0.30196078"
       color="#0099e5"
       opacity="0.14902"
       empspacing="5"
       enabled="true"
       visible="true" />
  </sodipodi:namedview>
  <defs
     id="defs1">
    <style
       id="current-color-scheme"
       type="text/css">.ColorScheme-Text { color:#aaaaaa; } .ColorScheme-Highlight { color:#5294e2; }</style>
  </defs>
  <g
     id="g1"
     transform="matrix(1,0,0,0.93362546,0,0.0286677)">
    <g
       id="g6"
       transform="matrix(1.0917218,0,0,1.1558195,31.300911,-3.0543564)">
      <path
         style="fill:#333333;stroke-width:0.0338316"
         d="m -22.142812,15.797083 c -3.577314,-0.559588 -5.774906,-4.142348 -4.667714,-7.6098246 0.551343,-1.7266831 1.937288,-3.1337381 3.651147,-3.7067601 0.738578,-0.2469408 0.965329,-0.2813919 1.862358,-0.2829553 0.706057,-0.00123 0.834804,0.00729 1.150276,0.076133 1.793733,0.3914286 3.224119,1.4833352 4.040791,3.0845968 0.735935,1.4429622 0.833925,3.1720622 0.266507,4.7027082 -0.700732,1.890266 -2.342969,3.289667 -4.330998,3.690578 -0.480158,0.09683 -1.494684,0.120246 -1.972367,0.04552 z"
         id="path2" />
      <path
         style="fill:#e6e6e6;fill-opacity:1;stroke-width:0.0338316"
         d="m -21.753748,16.490265 c -1.597168,-0.100586 -3.034969,-0.760756 -4.184082,-1.921132 -1.707676,-1.724414 -2.305361,-4.346248 -1.516857,-6.6539211 1.132152,-3.3134067 4.656074,-5.1302429 7.996109,-4.1225712 1.41472,0.4268136 2.690166,1.3871161 3.522692,2.6522878 0.433053,0.6580996 0.761763,1.4588557 0.9337,2.2745404 0.119506,0.566948 0.150797,1.5748141 0.06739,2.1707321 -0.341636,2.441016 -1.998646,4.470074 -4.297776,5.262755 -0.488716,0.168497 -1.114764,0.299923 -1.544848,0.324308 -0.174139,0.0099 -0.377512,0.02235 -0.451942,0.02773 -0.07443,0.0054 -0.310405,-0.0013 -0.524391,-0.01473 z m 1.207357,-0.656545 c 0.889597,-0.126473 1.689123,-0.42277 2.395713,-0.88783 1.609802,-1.059532 2.573731,-2.770481 2.645154,-4.695082 0.0299,-0.8056441 -0.05105,-1.3880921 -0.295092,-2.1233069 -0.580301,-1.7482502 -1.940976,-3.1100782 -3.689733,-3.6928614 -0.684466,-0.2281023 -0.969642,-0.2700658 -1.840504,-0.2708289 -0.686197,-6.014e-4 -0.81993,0.00845 -1.131955,0.076599 -0.834128,0.1821855 -1.628256,0.5247861 -2.268125,0.9785087 -0.412074,0.2921964 -1.06914,0.9492626 -1.361336,1.3613366 -0.616332,0.8691894 -1.001914,1.9539108 -1.070318,3.0110168 -0.159328,2.4622621 1.137028,4.6956651 3.33157,5.7397301 0.525491,0.250005 1.301759,0.469374 1.874279,0.529659 0.306655,0.03229 1.100366,0.01713 1.410347,-0.02694 z"
         id="path5" />
    </g>
    <g
       id="g2"
       transform="matrix(0.6030559,0,0,0.64684268,3.1809932,2.5400338)"
       style="fill:#a9a9a9;fill-opacity:0.34902">
      <path
         style="fill:#a9a9a9;fill-opacity:0.34902;stroke-width:0.0149115"
         d="m 7.8434296,15.982818 c -0.598699,-0.04641 -1.1385537,-0.36141 -1.4895442,-0.869136 l -0.077944,-0.11275 h 1.7236209 1.7236208 l -0.073136,0.108108 c -0.4030479,0.59578 -1.0923185,0.929148 -1.8066175,0.873778 z"
         id="path3" />
      <path
         style="fill:#a9a9a9;fill-opacity:0.34902;stroke-width:0.0149115"
         d="m 1.0139795,13.752138 v -0.234814 l 1.0024345,-1.002518 1.0024345,-1.002517 0.0092,-2.5464518 0.0092,-2.5464523 0.040121,-0.2162162 C 3.3295105,4.844399 3.9717808,3.7975077 5.0502683,2.9873846 5.5425084,2.6176309 6.1597074,2.3272114 6.7919562,2.1678435 6.906656,2.1389317 7.0055281,2.1073729 7.0116719,2.0977128 c 0.00614,-0.00966 0.01139,-0.06118 0.011658,-0.1144882 0.00212,-0.4220947 0.2973269,-0.8063357 0.714723,-0.9302891 0.1107516,-0.03289 0.413143,-0.03289 0.5238946,0 0.4085671,0.1213314 0.7141407,0.5134714 0.7149818,0.91753 1.256e-4,0.060326 0.00521,0.1175093 0.011292,0.127074 0.00608,0.00956 0.094892,0.038354 0.1973484,0.063977 0.8164553,0.2041793 1.5591163,0.5990173 2.1606313,1.1487068 0.863787,0.7893629 1.390389,1.7758895 1.588015,2.9749587 l 0.03687,0.223672 0.0047,2.5013577 0.0047,2.5013573 1.002796,1.002877 1.002796,1.002878 v 0.234814 0.234814 H 8 1.0139795 Z m 9.9943795,-3.63098 C 11.003612,7.7424919 10.997788,6.8167615 10.986387,6.6281454 10.970364,6.3630807 10.84188,5.9328219 10.690272,5.6365331 10.528358,5.3201027 10.357789,5.0946457 10.067608,4.8135013 9.5138225,4.2769621 8.7945068,3.9927908 7.9925443,3.9937309 7.5094722,3.9942974 7.0978796,4.0879462 6.6728798,4.2939916 6.3517311,4.4496884 6.110206,4.6271702 5.8372998,4.908007 5.5971849,5.1550995 5.4566738,5.3487228 5.3120174,5.6318428 5.1588703,5.9315813 5.0322949,6.3536067 5.0132029,6.6281454 c -0.0057,0.082013 -0.012111,1.3250699 -0.01424,2.7623485 l -0.00387,2.6132341 3.0085111,3e-6 3.008512,2e-6 z"
         id="path4" />
    </g>
    <path
       style="fill:#ffffff;stroke-width:0.021088"
       d="M 7.6443976,14.969783 C 7.3973454,14.956315 6.919022,14.89849 6.6848939,14.853786 5.7367328,14.672746 4.914169,14.338762 4.1227027,13.813462 3.7239625,13.548817 3.4410367,13.319983 3.0922082,12.979985 2.4487937,12.352857 2.037066,11.78343 1.6584476,10.997068 1.3408616,10.337464 1.1516015,9.7153157 1.0298704,8.9307651 0.98814561,8.6618508 0.98242615,8.5449105 0.98242615,7.9607175 c 0,-0.5828443 0.005755,-0.7010546 0.0469446,-0.9643388 C 1.2691558,5.4636949 1.9358774,4.1307697 2.994495,3.0676575 4.1153688,1.9420246 5.5423465,1.2439175 7.1593736,1.0301123 7.5084697,0.9839544 8.4420233,0.9778174 8.7831492,1.0194383 c 1.2604228,0.1537832 2.3124838,0.5586241 3.3396428,1.285119 0.452242,0.3198644 1.031658,0.8657745 1.381372,1.3014899 0.647426,0.806643 1.131257,1.8020433 1.373521,2.8257911 0.102493,0.4331097 0.157873,1.0063271 0.157896,1.6343195 1.7e-5,0.4391303 -0.02661,0.7529812 -0.09662,1.1387517 -0.25697,1.4160225 -0.924899,2.6890035 -1.947916,3.7124595 -1.022668,1.023106 -2.287408,1.682912 -3.733417,1.947697 -0.4405631,0.08067 -1.1771699,0.128488 -1.6132315,0.104717 z m 0.6853597,-0.661084 c 0.4435252,-0.01999 0.8856958,-0.07482 0.8856958,-0.109826 0,-0.01083 0.00939,-0.01388 0.020863,-0.0068 0.024258,0.01499 0.2743388,-0.03062 0.274431,-0.05005 3.41e-5,-0.0072 0.035092,-0.01386 0.077907,-0.01483 0.042815,-9.64e-4 0.081358,-0.01229 0.085652,-0.02518 0.00429,-0.01288 0.020979,-0.01837 0.037077,-0.01219 0.041665,0.01599 0.6723369,-0.20112 0.9543169,-0.328523 0.258,-0.116568 0.614149,-0.306682 0.648085,-0.345949 0.01164,-0.01347 0.03384,-0.02714 0.04933,-0.03039 0.05111,-0.0107 0.529904,-0.344205 0.640269,-0.445976 0.01977,-0.01823 0.0664,-0.05687 0.10361,-0.08587 0.270573,-0.21082 0.775195,-0.738172 1.028867,-1.075213 0.656536,-0.872305 1.044574,-1.8347149 1.207474,-2.9947698 0.04404,-0.3136071 0.03798,-1.4432519 -0.0093,-1.7369309 C 14.162394,5.9804577 13.752912,5.0057297 13.129134,4.1781101 12.910282,3.8877411 12.603103,3.5451443 12.397331,3.361932 12.032994,3.0375394 11.784519,2.8363351 11.74825,2.8363351 c -0.01283,0 -0.02335,-0.00712 -0.02338,-0.015816 -7.9e-5,-0.021613 -0.421742,-0.2912791 -0.445153,-0.2846879 -0.0103,0.0029 -0.01873,-0.00303 -0.01873,-0.013169 0,-0.023924 -0.524749,-0.2924786 -0.769711,-0.3939205 C 10.001314,1.9258419 9.4321866,1.7636186 9.0045731,1.7049737 8.6143902,1.6514622 7.2670863,1.6509461 6.9801258,1.7041981 5.9427253,1.8967115 4.8273647,2.3744762 4.1341592,2.9232681 3.771549,3.2103366 3.1261721,3.8559942 2.8754295,4.1825453 2.5874116,4.5576415 2.2591846,5.1531517 2.0594191,5.6630528 1.6464763,6.7170887 1.5242612,7.8904369 1.7102705,9.0151171 c 0.2192616,1.3257359 0.8086814,2.4791149 1.7467264,3.4180019 0.4819494,0.482382 0.8632999,0.774778 1.4144369,1.084503 0.7290178,0.409689 1.8102557,0.741718 2.5726278,0.790009 0.3539711,0.02242 0.4104297,0.02249 0.8856957,0.0011 z"
       id="path1"
       transform="matrix(1,0,0,1.0710933,0,-0.03070578)" />
    <path
       style="fill:#1a1a1a;stroke-width:0.021088"
       d="M 7.4155089,14.243719 C 6.6417227,14.183315 5.6866796,13.878463 4.9240464,13.448438 2.6340622,12.157188 1.3778993,9.5315612 1.815352,6.9506557 2.0903493,5.3282122 2.9408921,3.938893 4.2696967,2.9416061 4.8600393,2.4985457 5.5308013,2.1675538 6.315854,1.9319166 6.9174546,1.7513434 7.202268,1.7184523 8.1588438,1.7190831 c 0.7098035,4.681e-4 0.9091778,0.020349 1.3680713,0.1364199 0.7727979,0.1954685 1.4371269,0.4861665 2.0714809,0.9064414 0.342418,0.2268599 0.564554,0.4066597 0.872349,0.7060902 0.797961,0.7762741 1.34616,1.6968951 1.665,2.7961255 0.164057,0.5656049 0.225178,1.0162178 0.225178,1.6601238 0,0.6870705 -0.07303,1.2401014 -0.240696,1.8226047 -0.223074,0.7750194 -0.622544,1.5489764 -1.122892,2.1755574 -0.21553,0.269907 -0.681533,0.733975 -0.956091,0.952121 -0.917055,0.728634 -2.0860889,1.227684 -3.1369656,1.339142 -0.3700042,0.03924 -1.1651584,0.05527 -1.4887695,0.03001 z m 0.913146,-2.226312 c 0.1778342,-0.05029 0.355203,-0.148938 0.4821012,-0.26814 0.1154433,-0.108443 0.235993,-0.257146 0.235993,-0.291107 0,-0.0099 -0.469735,-0.01792 -1.0438557,-0.01792 -0.5741206,0 -1.0438556,0.0054 -1.0438556,0.01202 0,0.02767 0.129379,0.194728 0.2142578,0.276656 0.3035051,0.292957 0.7475111,0.403827 1.1553593,0.288498 z m 3.9023811,-1.309844 v -0.14221 L 11.624756,9.9588135 11.018476,9.3522741 11.012963,7.818248 C 11.007716,6.3583906 11.005317,6.2735681 10.963341,6.063867 10.840453,5.4499361 10.562693,4.9254762 10.131591,4.4933748 9.7830417,4.1440169 9.3725945,3.8982446 8.8765087,3.7418419 L 8.6096939,3.6577223 8.598055,3.5449515 C 8.5614064,3.189861 8.2139465,2.9426131 7.8681578,3.0255665 7.6316954,3.082293 7.4630187,3.2674956 7.4160532,3.5219659 l -0.026809,0.1452586 -0.199287,0.057402 C 6.2175515,4.0047162 5.4551701,4.7354961 5.1449216,5.6848934 4.9969835,6.1376018 4.9978544,6.1249769 4.9978544,7.8165504 V 9.3422537 L 4.3863026,9.9535328 3.7747508,10.564812 v 0.14248 0.142481 h 4.2281426 4.2281426 z"
       id="path6"
       transform="matrix(1,0,0,1.0710933,0,-0.03070578)" />
    <path
       style="fill:#1a1a1a;stroke-width:0.021088"
       d="M 6.2014255,8.2506774 C 6.2033283,6.5415799 6.2140103,6.2840769 6.2926222,6.0522541 6.385762,5.777589 6.5035826,5.5914861 6.7270698,5.3660249 6.9429419,5.1482462 7.0913343,5.0470327 7.3417886,4.946746 7.7820389,4.7704612 8.3397514,4.7866061 8.7703585,4.9881009 c 0.5139287,0.2404836 0.923924,0.7788075 1.013475,1.3306932 0.013578,0.083679 0.021825,0.7349899 0.021924,1.7315473 l 1.592e-4,1.5974155 H 8.0028934 6.19987 Z"
       id="path7"
       transform="matrix(1,0,0,1.0710933,0,-0.03070578)" />
  </g>
</svg>
