<?xml version="1.0" encoding="UTF-8" standalone="no"?>
<svg
   width="22"
   height="22"
   version="1.1"
   id="svg2"
   sodipodi:docname="notification-new-symbolic.svg"
   inkscape:version="1.4.4 (dcaf3e7d9e, 2026-05-05)"
   xmlns:inkscape="http://www.inkscape.org/namespaces/inkscape"
   xmlns:sodipodi="http://sodipodi.sourceforge.net/DTD/sodipodi-0.dtd"
   xmlns="http://www.w3.org/2000/svg"
   xmlns:svg="http://www.w3.org/2000/svg">
  <defs
     id="defs2" />
  <sodipodi:namedview
     id="namedview2"
     pagecolor="#ffffff"
     bordercolor="#000000"
     borderopacity="0.25"
     inkscape:showpageshadow="2"
     inkscape:pageopacity="0.0"
     inkscape:pagecheckerboard="0"
     inkscape:deskcolor="#d1d1d1"
     inkscape:zoom="22.627417"
     inkscape:cx="4.3089319"
     inkscape:cy="16.241359"
     inkscape:window-width="1890"
     inkscape:window-height="1052"
     inkscape:window-x="0"
     inkscape:window-y="0"
     inkscape:window-maximized="1"
     inkscape:current-layer="svg2"
     showgrid="true">
    <inkscape:grid
       id="grid1"
       units="px"
       originx="0"
       originy="0"
       spacingx="1"
       spacingy="1"
       empcolor="#0099e5"
       empopacity="0.30196078"
       color="#0099e5"
       opacity="0.14901961"
       empspacing="5"
       enabled="true"
       visible="true" />
  </sodipodi:namedview>
  <g
     id="notification-active"
     transform="matrix(1.0562471,0,0,1.0763355,-0.15774708,-0.55805824)">
    <rect
       style="opacity:0.00100002"
       width="22"
       height="22"
       x="0"
       y="0"
       id="rect5" />
    <path
       style="color:#dfdfdf;fill:currentColor;stroke:#929ec6;stroke-width:0.216;stroke-linecap:round;stroke-linejoin:round;stroke-dasharray:none;stroke-opacity:1"
       class="ColorScheme-Text"
       d="M 14.15293,3.6992 C 11.93963,2.95143 9.44713,3.8357 8.23243,5.9394 L 5.98243,9.8359 3.25,10.5683 3,11.0019 l 1.73243,1.0001 8.6605,5 1.733,1 0.25,-0.434 -0.733,-2.732 1.25,-2.164 1,-1.7326 c 0.545,-0.943 0.731,-1.9837 0.633,-2.9863 -0.152,0.0241 -0.305,0.0488 -0.463,0.0488 -1.645,0 -3,-1.355 -3,-3 0,-0.4362 0.099,-0.8487 0.273,-1.2219 0,0 -0.181,-0.0801 -0.183,-0.0808 z M 7.06453,14.502 c 0,0.714 0.38,1.375 0.998,1.732 0.6183,0.356 1.3803,0.355 1.998,-0.002 z"
       id="path5" />
    <path
       style="color:#4285f4;fill:#749cd9;fill-opacity:1;stroke:#4285f4;stroke-width:0.216;stroke-linecap:round;stroke-linejoin:round;stroke-dasharray:none;stroke-opacity:1"
       class="ColorScheme-Highlight"
       d="m 19.06293,4.998 a 2,2 0 0 1 -2,2 2,2 0 0 1 -2,-2 2,2 0 0 1 2,-2 2,2 0 0 1 2,2 z"
       id="path6" />
  </g>
</svg>
