<?xml version="1.0" encoding="UTF-8" standalone="no"?>
<svg
   width="22"
   height="22"
   version="1.1"
   id="svg1"
   sodipodi:docname="notification-symbolic.svg"
   inkscape:version="1.4.4 (dcaf3e7d9e, 2026-05-05)"
   xmlns:inkscape="http://www.inkscape.org/namespaces/inkscape"
   xmlns:sodipodi="http://sodipodi.sourceforge.net/DTD/sodipodi-0.dtd"
   xmlns="http://www.w3.org/2000/svg"
   xmlns:svg="http://www.w3.org/2000/svg">
  <defs
     id="defs1" />
  <sodipodi:namedview
     id="namedview1"
     pagecolor="#ffffff"
     bordercolor="#000000"
     borderopacity="0.25"
     inkscape:showpageshadow="2"
     inkscape:pageopacity="0.0"
     inkscape:pagecheckerboard="0"
     inkscape:deskcolor="#d1d1d1"
     inkscape:zoom="24.218407"
     inkscape:cx="2.2503544"
     inkscape:cy="10.343372"
     inkscape:window-width="1890"
     inkscape:window-height="1052"
     inkscape:window-x="0"
     inkscape:window-y="0"
     inkscape:window-maximized="1"
     inkscape:current-layer="svg1"
     showgrid="true">
    <inkscape:grid
       id="grid1"
       units="px"
       originx="0"
       originy="0"
       spacingx="1"
       spacingy="1"
       empcolor="#0099e5"
       empopacity="0.30196078"
       color="#0099e5"
       opacity="0.14901961"
       empspacing="5"
       enabled="true"
       visible="true" />
  </sodipodi:namedview>
  <g
     id="notification-inactive"
     transform="matrix(1.1066801,0,0,1.0526456,-1.0402578,-0.07234829)"
     style="stroke:#929ec6;stroke-width:0.216;stroke-dasharray:none;stroke-opacity:1">
    <rect
       style="opacity:0.00100002;stroke:#929ec6;stroke-width:0.216;stroke-dasharray:none;stroke-opacity:1"
       width="22"
       height="22"
       x="0"
       y="0"
       id="rect4" />
    <path
       style="color:#dfdfdf;fill:currentColor;stroke:#929ec6;stroke-width:0.216;stroke-dasharray:none;stroke-opacity:1"
       class="ColorScheme-Text"
       d="m 11,3.0000001 c 0.55,0 1,0.45 1,1 0,0.03 0,0.07 -0.01,0.1 2.29,0.46 4.01,2.47 4.01,4.9 V 11 13.5 l 2,2 V 16 H 16 6 4 v -0.5 l 2,-2 V 9.0000001 c 0,-2.43 1.72,-4.44 4.01,-4.9 -0.01,-0.03 -0.01,-0.07 -0.01,-0.1 0,-0.55 0.45,-1 1,-1 z M 12.73,17 C 12.37,17.62 11.71,18 11,18 10.29,18 9.63,17.62 9.27,17 Z"
       id="path4" />
  </g>
</svg>
