<?xml version="1.0" encoding="UTF-8" standalone="no"?>
<svg
   width="16"
   height="16"
   version="1.1"
   id="svg2"
   sodipodi:docname="notification-disabled-new-symbolic.svg"
   inkscape:version="1.4 (e7c3feb100, 2024-10-09)"
   xmlns:inkscape="http://www.inkscape.org/namespaces/inkscape"
   xmlns:sodipodi="http://sodipodi.sourceforge.net/DTD/sodipodi-0.dtd"
   xmlns="http://www.w3.org/2000/svg"
   xmlns:svg="http://www.w3.org/2000/svg">
  <defs
     id="defs2" />
  <sodipodi:namedview
     id="namedview2"
     pagecolor="#ffffff"
     bordercolor="#000000"
     borderopacity="0.25"
     inkscape:showpageshadow="2"
     inkscape:pageopacity="0.0"
     inkscape:pagecheckerboard="0"
     inkscape:deskcolor="#d1d1d1"
     showgrid="true"
     inkscape:zoom="53.0625"
     inkscape:cx="8"
     inkscape:cy="8"
     inkscape:window-width="1890"
     inkscape:window-height="1048"
     inkscape:window-x="0"
     inkscape:window-y="0"
     inkscape:window-maximized="1"
     inkscape:current-layer="svg2">
    <inkscape:grid
       id="grid2"
       units="px"
       originx="0"
       originy="0"
       spacingx="1"
       spacingy="1"
       empcolor="#0099e5"
       empopacity="0.30196078"
       color="#0099e5"
       opacity="0.14901961"
       empspacing="5"
       enabled="true"
       visible="true" />
  </sodipodi:namedview>
  <path
     d="M 7.990577,1 C 7.4427982,1 6.9946154,1.4183392 6.9946154,1.9296427 c 0,0.027889 -2.378e-4,0.064712 0.00974,0.092601 C 4.7235938,2.4498793 3.010739,4.3188331 3.010739,6.5778649 v 4.1833921 l -1.9919233,1.859285 v 0.464822 H 14.962275 V 12.620542 L 12.970351,10.761257 V 6.5778647 c 0,-0.055012 -0.0058,-0.1088798 -0.0078,-0.1634126 A 2.9878849,2.7889282 0 0 1 11.974411,6.5778647 2.9878849,2.7889282 0 0 1 10.96869,6.4090044 c 0.0036,0.056336 0.0098,0.1116501 0.0098,0.1688603 V 11.226078 H 5.0026241 V 6.5778647 c 0,-1.5450662 1.3325966,-2.7889282 2.9878848,-2.7889282 0.3551101,0 0.6941454,0.060044 1.0096063,0.1652254 A 2.9878849,2.7889282 0 0 1 8.9864984,3.7889365 2.9878849,2.7889282 0 0 1 9.5525632,2.1675467 C 9.3647049,2.1097517 9.1738488,2.0592433 8.9767779,2.02229 c 0.00996,-0.027889 0.00974,-0.064711 0.00974,-0.092601 0,-0.5113035 -0.4481827,-0.9296427 -0.9959616,-0.9296427 z M 6.2670654,14.014998 c 0.3585462,0.576379 1.0163789,0.929643 1.7235116,0.929643 0.7071328,0 1.3649654,-0.353264 1.7235116,-0.929643 z"
     fill="#aaaaaa"
     opacity="0.35"
     id="path1"
     style="stroke-width:0.962232" />
  <path
     class="suggested"
     d="m14 4a2 2 0 0 1-2 2 2 2 0 0 1-2-2 2 2 0 0 1 2-2 2 2 0 0 1 2 2z"
     fill="#4285f4"
     id="path2" />
</svg>
