<?xml version="1.0" encoding="UTF-8" standalone="no"?>
<svg
   width="16"
   height="16"
   version="1.1"
   id="svg2"
   sodipodi:docname="notification-new-symbolic.svg"
   inkscape:version="1.4 (e7c3feb100, 2024-10-09)"
   xmlns:inkscape="http://www.inkscape.org/namespaces/inkscape"
   xmlns:sodipodi="http://sodipodi.sourceforge.net/DTD/sodipodi-0.dtd"
   xmlns="http://www.w3.org/2000/svg"
   xmlns:svg="http://www.w3.org/2000/svg">
  <defs
     id="defs2" />
  <sodipodi:namedview
     id="namedview2"
     pagecolor="#ffffff"
     bordercolor="#000000"
     borderopacity="0.25"
     inkscape:showpageshadow="2"
     inkscape:pageopacity="0.0"
     inkscape:pagecheckerboard="0"
     inkscape:deskcolor="#d1d1d1"
     inkscape:zoom="47.420349"
     inkscape:cx="4.3124946"
     inkscape:cy="7.6865735"
     inkscape:window-width="1890"
     inkscape:window-height="1048"
     inkscape:window-x="0"
     inkscape:window-y="0"
     inkscape:window-maximized="1"
     inkscape:current-layer="svg2"
     showgrid="true">
    <inkscape:grid
       id="grid1"
       units="px"
       originx="0"
       originy="0"
       spacingx="1"
       spacingy="1"
       empcolor="#0099e5"
       empopacity="0.30196078"
       color="#0099e5"
       opacity="0.14901961"
       empspacing="5"
       enabled="true"
       visible="true" />
  </sodipodi:namedview>
  <g
     id="g1"
     transform="matrix(1,0,0,0.93533015,0,0.06466985)" />
  <g
     id="g7">
    <path
       class="suggested"
       d="M 14,4 A 2,2 0 0 1 12,6 2,2 0 0 1 10,4 2,2 0 0 1 12,2 2,2 0 0 1 14,4 Z"
       fill="#4285f4"
       id="path2"
       style="display:inline"
       transform="matrix(1,0,0,0.93533015,0,0.06466985)" />
    <path
       style="fill:#f2f2f2;stroke:#a9a9a9;stroke-width:0.021088;stroke-opacity:0.34902"
       d="M 1.0227677,12.919791 V 12.701762 L 2.0232323,11.766905 3.023697,10.832049 3.031617,8.4368795 3.039537,6.0417101 3.097126,5.7781102 C 3.3009337,4.8452402 3.7342654,4.0501235 4.3788155,3.426351 5.0750662,2.7525443 5.7792386,2.3579384 6.7156671,2.1168205 6.8717731,2.0766252 7.0043219,2.0389125 7.01022,2.0330145 7.01612,2.0271145 7.027369,1.9475175 7.035223,1.8561275 7.044593,1.7470627 7.068207,1.6491083 7.103935,1.5710684 7.179943,1.4050442 7.3831894,1.2071166 7.5705893,1.1166254 7.7057677,1.0513504 7.7380596,1.0446504 7.953848,1.0371034 c 0.1840536,-0.00644 0.2602306,-1.984e-4 0.3479518,0.028498 0.3732478,0.1221004 0.6228478,0.4197888 0.6711048,0.8004005 0.01161,0.09157 0.029719,0.1717985 0.040241,0.1782848 0.010523,0.00649 0.1326992,0.039391 0.2715033,0.073122 L 9.5370207,2.1787373 9.4222069,2.354877 C 9.1485476,2.7747076 8.9940291,3.2771981 8.9940291,3.7473022 c 0,0.1798047 -0.00356,0.1978948 -0.036904,0.1875902 C 8.3491235,3.7470017 7.5716828,3.7556198 6.9695818,3.9569245 6.5300833,4.103865 6.1422112,4.3469739 5.798293,4.6910597 5.4729947,5.0165169 5.2802349,5.3166454 5.1386092,5.718192 4.9925126,6.132415 5.0016304,5.9421828 4.9929692,8.7567892 l -0.00784,2.5463748 H 8.0018049 11.018476 V 8.887168 c 0,-2.2909934 0.0019,-2.415439 0.0369,-2.405225 0.628098,0.183323 1.293967,0.1835366 1.887376,6.052e-4 0.03498,-0.010784 0.0369,0.1022308 0.0369,2.1701547 v 2.1815311 l 1.001568,0.935641 1.001567,0.935641 1.12e-4,0.216152 1.12e-4,0.216152 H 8.0028934 1.0227677 Z"
       id="path6" />
    <path
       style="fill:#f2f2f2;stroke:#a9a9a9;stroke-width:0.021088;stroke-opacity:0.34902"
       d="M 7.7340148,14.993578 C 7.2284314,14.92243 6.7406752,14.655329 6.4371099,14.283377 6.3704192,14.201662 6.315854,14.128744 6.315854,14.121336 c 0,-0.0074 0.7595016,-0.01347 1.6877814,-0.01347 1.6010803,0 1.6867393,0.0019 1.6674952,0.0369 -0.011157,0.0203 -0.070801,0.09589 -0.132542,0.167982 -0.2732498,0.319065 -0.6837598,0.557281 -1.1204789,0.650207 -0.1853536,0.03944 -0.5161894,0.05425 -0.6840949,0.03062 z"
       id="path7" />
  </g>
</svg>
