<?xml version="1.0" encoding="UTF-8" standalone="no"?>
<svg
   width="16"
   height="16"
   version="1.1"
   id="svg1"
   sodipodi:docname="notification-symbolic.svg"
   inkscape:version="1.4.2 (ebf0e940d0, 2025-05-08)"
   xmlns:inkscape="http://www.inkscape.org/namespaces/inkscape"
   xmlns:sodipodi="http://sodipodi.sourceforge.net/DTD/sodipodi-0.dtd"
   xmlns="http://www.w3.org/2000/svg"
   xmlns:svg="http://www.w3.org/2000/svg">
  <defs
     id="defs1" />
  <sodipodi:namedview
     id="namedview1"
     pagecolor="#ffffff"
     bordercolor="#000000"
     borderopacity="0.25"
     inkscape:showpageshadow="2"
     inkscape:pageopacity="0.0"
     inkscape:pagecheckerboard="0"
     inkscape:deskcolor="#d1d1d1"
     inkscape:zoom="29.558125"
     inkscape:cx="-6.3096018"
     inkscape:cy="4.8886727"
     inkscape:window-width="1920"
     inkscape:window-height="1006"
     inkscape:window-x="0"
     inkscape:window-y="0"
     inkscape:window-maximized="1"
     inkscape:current-layer="g5"
     showgrid="true">
    <inkscape:grid
       id="grid1"
       units="px"
       originx="0"
       originy="0"
       spacingx="1"
       spacingy="1"
       empcolor="#0099e5"
       empopacity="0.30196078"
       color="#0099e5"
       opacity="0.14901961"
       empspacing="5"
       enabled="true"
       visible="true" />
  </sodipodi:namedview>
  <g
     id="g5"
     transform="translate(19.182543,-1.8945722)">
    <g
       id="g6"
       transform="matrix(1.0917218,0,0,1.0807257,12.157843,-0.85888592)">
      <path
         style="fill:#333333;stroke-width:0.0338316"
         d="m -22.142812,15.797083 c -3.577314,-0.559588 -5.774906,-4.142348 -4.667714,-7.6098246 0.551343,-1.7266831 1.937288,-3.1337381 3.651147,-3.7067601 0.738578,-0.2469408 0.965329,-0.2813919 1.862358,-0.2829553 0.706057,-0.00123 0.834804,0.00729 1.150276,0.076133 1.793733,0.3914286 3.224119,1.4833352 4.040791,3.0845968 0.735935,1.4429622 0.833925,3.1720622 0.266507,4.7027082 -0.700732,1.890266 -2.342969,3.289667 -4.330998,3.690578 -0.480158,0.09683 -1.494684,0.120246 -1.972367,0.04552 z"
         id="path2" />
      <path
         style="fill:#e6e6e6;fill-opacity:1;stroke-width:0.0338316"
         d="m -21.753748,16.490265 c -1.597168,-0.100586 -3.034969,-0.760756 -4.184082,-1.921132 -1.707676,-1.724414 -2.305361,-4.346248 -1.516857,-6.6539211 1.132152,-3.3134067 4.656074,-5.1302429 7.996109,-4.1225712 1.41472,0.4268136 2.690166,1.3871161 3.522692,2.6522878 0.433053,0.6580996 0.761763,1.4588557 0.9337,2.2745404 0.119506,0.566948 0.150797,1.5748141 0.06739,2.1707321 -0.341636,2.441016 -1.998646,4.470074 -4.297776,5.262755 -0.488716,0.168497 -1.114764,0.299923 -1.544848,0.324308 -0.174139,0.0099 -0.377512,0.02235 -0.451942,0.02773 -0.07443,0.0054 -0.310405,-0.0013 -0.524391,-0.01473 z m 1.207357,-0.656545 c 0.889597,-0.126473 1.689123,-0.42277 2.395713,-0.88783 1.609802,-1.059532 2.573731,-2.770481 2.645154,-4.695082 0.0299,-0.8056441 -0.05105,-1.3880921 -0.295092,-2.1233069 -0.580301,-1.7482502 -1.940976,-3.1100782 -3.689733,-3.6928614 -0.684466,-0.2281023 -0.969642,-0.2700658 -1.840504,-0.2708289 -0.686197,-6.014e-4 -0.81993,0.00845 -1.131955,0.076599 -0.834128,0.1821855 -1.628256,0.5247861 -2.268125,0.9785087 -0.412074,0.2921964 -1.06914,0.9492626 -1.361336,1.3613366 -0.616332,0.8691894 -1.001914,1.9539108 -1.070318,3.0110168 -0.159328,2.4622621 1.137028,4.6956651 3.33157,5.7397301 0.525491,0.250005 1.301759,0.469374 1.874279,0.529659 0.306655,0.03229 1.100366,0.01713 1.410347,-0.02694 z"
         id="path5" />
    </g>
    <g
       id="g1"
       transform="matrix(0.58715611,0,0,0.60471671,-15.888239,4.246349)"
       style="fill:#f2f2f2;fill-opacity:1">
      <path
         style="fill:#f2f2f2;fill-opacity:1;stroke-width:0.0149115"
         d="m 7.8434296,15.982818 c -0.598699,-0.04641 -1.1385537,-0.36141 -1.4895442,-0.869136 l -0.077944,-0.11275 h 1.7236209 1.7236208 l -0.073136,0.108108 c -0.4030479,0.59578 -1.0923185,0.929148 -1.8066175,0.873778 z"
         id="path3" />
      <path
         style="fill:#f2f2f2;fill-opacity:1;stroke-width:0.0149115"
         d="m 1.0139795,13.752138 v -0.234814 l 1.0024345,-1.002518 1.0024345,-1.002517 0.0092,-2.5464518 0.0092,-2.5464523 0.040121,-0.2162162 C 3.3295105,4.844399 3.9717808,3.7975077 5.0502683,2.9873846 5.5425084,2.6176309 6.1597074,2.3272114 6.7919562,2.1678435 6.906656,2.1389317 7.0055281,2.1073729 7.0116719,2.0977128 c 0.00614,-0.00966 0.01139,-0.06118 0.011658,-0.1144882 0.00212,-0.4220947 0.2973269,-0.8063357 0.714723,-0.9302891 0.1107516,-0.03289 0.413143,-0.03289 0.5238946,0 0.4085671,0.1213314 0.7141407,0.5134714 0.7149818,0.91753 1.256e-4,0.060326 0.00521,0.1175093 0.011292,0.127074 0.00608,0.00956 0.094892,0.038354 0.1973484,0.063977 0.8164553,0.2041793 1.5591163,0.5990173 2.1606313,1.1487068 0.863787,0.7893629 1.390389,1.7758895 1.588015,2.9749587 l 0.03687,0.223672 0.0047,2.5013577 0.0047,2.5013573 1.002796,1.002877 1.002796,1.002878 v 0.234814 0.234814 H 8 1.0139795 Z m 9.9943795,-3.63098 C 11.003612,7.7424919 10.997788,6.8167615 10.986387,6.6281454 10.970364,6.3630807 10.84188,5.9328219 10.690272,5.6365331 10.528358,5.3201027 10.357789,5.0946457 10.067608,4.8135013 9.5138225,4.2769621 8.7945068,3.9927908 7.9925443,3.9937309 7.5094722,3.9942974 7.0978796,4.0879462 6.6728798,4.2939916 6.3517311,4.4496884 6.110206,4.6271702 5.8372998,4.908007 5.5971849,5.1550995 5.4566738,5.3487228 5.3120174,5.6318428 5.1588703,5.9315813 5.0322949,6.3536067 5.0132029,6.6281454 c -0.0057,0.082013 -0.012111,1.3250699 -0.01424,2.7623485 l -0.00387,2.6132341 3.0085111,3e-6 3.008512,2e-6 z"
         id="path4" />
    </g>
    <path
       style="fill:#ffffff;stroke-width:0.0338316"
       d="M 7.5106253,15.051159 C 6.2223625,14.932971 5.1661129,14.564837 4.1274607,13.872029 1.5166532,12.130552 0.3772966,8.8438999 1.3592548,5.8867063 1.6906549,4.8886856 2.2466301,3.9704438 2.9742043,3.219475 4.0585934,2.1002182 5.4444137,1.3896298 7.053898,1.1275854 7.4638994,1.060832 8.7269375,1.071203 9.150007,1.1447969 c 1.516301,0.263764 2.795644,0.9153362 3.852667,1.9621712 0.798536,0.7908398 1.368873,1.711957 1.723147,2.7829532 0.280496,0.847958 0.345113,1.3392511 0.319798,2.4314702 -0.0146,0.6301543 -0.03066,0.8069609 -0.103765,1.1428205 -0.628432,2.887091 -2.87538,5.037643 -5.7541613,5.507302 -0.3942804,0.06432 -1.3495575,0.109692 -1.6770674,0.07964 z M 9.0837968,14.34208 c 0.3251116,-0.05571 0.821184,-0.174606 0.8786555,-0.210592 0.019139,-0.01198 0.053163,-0.02458 0.075607,-0.02799 0.108307,-0.01645 0.401783,-0.128387 0.423143,-0.161393 0.01328,-0.02052 0.03231,-0.0335 0.04229,-0.02884 0.04814,0.02244 0.119942,0.0033 0.167975,-0.04471 0.02924,-0.02924 0.05316,-0.04425 0.05316,-0.03335 0,0.05019 0.888461,-0.448522 1.031865,-0.579208 0.03721,-0.03392 0.13324,-0.106206 0.21339,-0.160648 0.220309,-0.149644 0.720073,-0.632015 0.998004,-0.963274 0.668294,-0.796506 1.149144,-1.796523 1.33992,-2.7865952 C 14.732908,7.139325 14.063874,4.9973731 12.477192,3.4846595 12.301536,3.3171928 12.128012,3.1565927 12.091582,3.1277704 11.878628,2.9592847 11.645622,2.7911107 11.625139,2.7911107 c -0.01304,0 -0.05733,-0.031401 -0.09842,-0.06978 -0.08527,-0.079644 -1.054674,-0.5657416 -1.15732,-0.5803242 -0.03721,-0.00529 -0.07527,-0.019262 -0.08458,-0.031056 C 10.256359,2.0738705 9.7061153,1.9096982 9.6760106,1.928304 9.6604926,1.937894 9.6426906,1.931544 9.6364496,1.914183 9.6302093,1.8968269 9.495697,1.8548655 9.3375341,1.8209358 9.0954257,1.7689979 8.8895165,1.7592456 8.0350158,1.7592456 H 7.0200664 L 6.5908284,1.8701865 C 5.7655734,2.0834822 5.0756789,2.3863116 4.4273255,2.8198567 4.0408444,3.0782914 3.4117692,3.6568072 3.0671501,4.0707135 c -0.8744592,1.050273 -1.407985,2.546689 -1.4091219,3.9522599 -0.00199,2.4556906 1.3327481,4.6353576 3.5045679,5.7230806 0.579128,0.290047 1.3757716,0.537391 2.0435443,0.634484 0.3997923,0.05813 1.438093,0.03686 1.8776564,-0.03846 z"
       id="path1"
       transform="translate(-19.182543,1.8945722)" />
    <path
       style="fill:#ffffff;stroke-width:0.0338316"
       d="m 3.8906392,10.68642 c 0,-0.112961 0.047395,-0.17223 0.5920538,-0.7403896 L 5.0747468,9.328431 5.0769266,8.2334543 C 5.0799971,6.6910739 5.1155711,6.015209 5.2093509,5.7175481 5.373298,5.1971734 5.6442495,4.7588388 6.0261433,4.3961742 6.3854814,4.0549295 6.7877191,3.8223249 7.2439913,3.6919215 l 0.1900929,-0.054329 0.017175,-0.1523718 c 0.020625,-0.1829813 0.1443197,-0.3580118 0.3078491,-0.4356116 0.3321469,-0.157614 0.680627,0.036783 0.7820597,0.4362665 0.040305,0.1587369 0.040833,0.159187 0.2745902,0.2340609 0.9567054,0.306439 1.6543268,1.0296554 1.9666688,2.0388239 l 0.09196,0.2971041 0.01816,1.648069 0.01816,1.6480694 0.583595,0.5870108 c 0.569107,0.5724373 0.583596,0.5905263 0.583596,0.7286043 v 0.141593 H 7.9842683 3.8906392 Z M 9.7767582,8.009642 C 9.77611,6.2269762 9.7659933,6.1140959 9.5725277,5.7308426 9.4347321,5.4578709 9.0877381,5.096407 8.8333089,4.9607977 7.8268199,4.4243446 6.6114777,4.9524429 6.2795741,6.0704629 6.2325824,6.2287547 6.2250227,6.4877864 6.2250227,7.9396613 v 1.6854418 h 1.7761614 1.7761614 z"
       id="path6"
       transform="translate(-19.182543,1.8945722)" />
    <path
       style="fill:#ffffff;stroke-width:0.0338316"
       d="m 7.5903512,11.92489 c -0.1761894,-0.0698 -0.4584208,-0.291018 -0.5213865,-0.40867 -0.033367,-0.06235 -0.00687,-0.06421 0.9141133,-0.06421 0.5230624,0 0.9484764,0.01334 0.9484764,0.02975 0,0.06404 -0.2775842,0.310984 -0.4471071,0.39776 -0.2453168,0.125573 -0.6409667,0.145648 -0.8940961,0.04537 z"
       id="path7"
       transform="translate(-19.182543,1.8945722)" />
    <path
       style="fill:#1a1a1a;stroke-width:0.0338316"
       d="M 7.4091303,14.328007 C 6.0375897,14.191057 4.6181638,13.507338 3.6198327,12.50275 1.7381548,10.609278 1.2480401,7.7770945 2.3858465,5.3720207 3.1946505,3.662386 4.6792857,2.4595088 6.6228545,1.9391232 7.0154325,1.8340115 7.0313151,1.8326045 7.9842683,1.8185255 c 0.886205,-0.013093 0.9927707,-0.00838 1.3173704,0.058218 1.3576403,0.2785614 2.6755643,1.0319811 3.5391363,2.023223 1.111493,1.2758167 1.679894,2.9897099 1.539662,4.6425238 -0.07489,0.8826484 -0.269292,1.5888197 -0.647297,2.3512997 -0.679063,1.369749 -1.812406,2.414063 -3.262246,3.00598 -0.437324,0.178544 -1.0402759,0.344332 -1.4209289,0.390701 -0.4049096,0.04932 -1.3144102,0.07013 -1.6408348,0.03754 z m 1.0052224,-2.374018 c 0.1469752,-0.05492 0.2506374,-0.128735 0.4157067,-0.296027 l 0.2199057,-0.222866 -1.0285422,-0.009 c -0.565698,-0.0049 -1.0356787,-0.0018 -1.0444015,0.0069 -0.029461,0.02946 0.2011115,0.29039 0.3426726,0.387786 0.313961,0.216011 0.7356546,0.267312 1.0946587,0.133171 z m 3.6973763,-1.291598 c 0,-0.144326 -0.01005,-0.157195 -0.592054,-0.7580398 L 10.927621,9.2931297 10.926889,7.7590761 C 10.926228,6.3729293 10.919899,6.1967222 10.861246,5.931497 10.623566,4.8567067 9.9075327,4.0502897 8.8818377,3.7022292 L 8.6122154,3.6107352 8.5707913,3.4483524 C 8.5219543,3.2569118 8.4426035,3.1408657 8.2890972,3.0363902 8.152307,2.9432917 7.8971471,2.9342194 7.7241669,3.0163039 7.5791634,3.0851126 7.4360989,3.2935275 7.4109809,3.4725507 l -0.018766,0.1337518 -0.3044848,0.10183 C 6.1095865,4.0352568 5.3870426,4.827122 5.1428895,5.8395619 5.0811339,6.0956458 5.0722257,6.2804007 5.0521626,7.7212073 L 5.029915,9.3188868 4.4433613,9.9257179 C 3.8784219,10.510187 3.8568076,10.537646 3.8568076,10.67088 v 0.138331 h 4.1274607 4.1274607 z"
       id="path8"
       transform="translate(-19.182543,1.8945722)" />
    <path
       style="fill:#1a1a1a;stroke-width:0.0338316"
       d="m 6.259568,7.9081471 7.135e-4,-1.6831244 0.080906,-0.229248 C 6.541768,5.4274304 7.0114782,4.9825761 7.5625555,4.8390386 8.4278291,4.6136635 9.3331059,5.1197755 9.6483069,6.005117 c 0.077255,0.2169948 0.078423,0.2421853 0.088227,1.9030301 l 0.00994,1.6831243 H 8.0026621 6.2588544 Z"
       id="path9"
       transform="translate(-19.182543,1.8945722)" />
  </g>
</svg>
