<?xml version="1.0" encoding="UTF-8" standalone="no"?>
<svg
   viewBox="0 0 22 22"
   version="1.1"
   id="svg1"
   sodipodi:docname="security-high.svg"
   inkscape:version="1.3.2 (091e20ef0f, 2023-11-25, custom)"
   xml:space="preserve"
   xmlns:inkscape="http://www.inkscape.org/namespaces/inkscape"
   xmlns:sodipodi="http://sodipodi.sourceforge.net/DTD/sodipodi-0.dtd"
   xmlns="http://www.w3.org/2000/svg"
   xmlns:svg="http://www.w3.org/2000/svg"><sodipodi:namedview
     id="namedview1"
     pagecolor="#ffffff"
     bordercolor="#000000"
     borderopacity="0.25"
     inkscape:showpageshadow="2"
     inkscape:pageopacity="0.0"
     inkscape:pagecheckerboard="0"
     inkscape:deskcolor="#d1d1d1"
     inkscape:zoom="18.931178"
     inkscape:cx="11.700276"
     inkscape:cy="-2.5883229"
     inkscape:window-width="2560"
     inkscape:window-height="1364"
     inkscape:window-x="0"
     inkscape:window-y="0"
     inkscape:window-maximized="1"
     inkscape:current-layer="g1" /><defs
     id="defs3051"><style
       type="text/css"
       id="current-color-scheme">
      .ColorScheme-Text {
        color:#232629;
      }
      .ColorScheme-PositiveText {
        color:#27ae60;
      }
      </style><style
       id="current-color-scheme-3"
       type="text/css">
      .ColorScheme-Text {
        color:#122036;
      }
      </style><style
       id="current-color-scheme-1"
       type="text/css">
      .ColorScheme-Text {
        color:#122036;
      }
      </style><style
       type="text/css"
       id="current-color-scheme-10">
      .ColorScheme-Text {
        color:#122036;
      }
      </style></defs><g
     id="g1"
     transform="translate(7,6)"><path
       id="rect2"
       style="fill:#565862;fill-opacity:0.50196081;stroke-width:2;stroke-linecap:round;stroke-linejoin:round;paint-order:stroke fill markers"
       d="m -4,-5 c -0.554,0 -1,0.4460006 -1,1 V 5 5.886719 6 c 0,4.985995 4.014005,9 9,9 4.985995,0 9,-4.014005 9,-9 V 5.886719 5 -4 c 0,-0.5539994 -0.446001,-1 -1,-1 z" /><path
       style="fill:#e2e2e2;fill-opacity:1;stroke-width:2;stroke-linecap:round;stroke-linejoin:round;paint-order:stroke fill markers"
       d="M -4,-4 V 4 5.986328 6 c 0.00735,4.425642 3.572575,7.986328 8,7.986328 4.427425,0 7.992651,-3.560686 8,-7.986328 8e-6,-0.0046 0,-0.0091 0,-0.01367 V 4 -4 H 4 Z"
       id="rect3" /><path
       id="rect6"
       style="fill:#3173c9;fill-opacity:1;stroke-width:2;stroke-linecap:round;stroke-linejoin:round;paint-order:stroke fill markers"
       d="m -3,-3 v 7 2 c 0,3.877992 3.1220078,7 7,7 3.877992,0 7,-3.122008 7,-7 V 4 -3 H 4 Z" /><path
       id="rect8"
       style="fill:#60b6fe;fill-opacity:1;stroke-width:2;stroke-linecap:round;stroke-linejoin:round;paint-order:stroke fill markers"
       d="m -2,-2 v 6 1.929688 c 0,3.323992 2.6760066,6 6,6 3.323994,0 6,-2.676008 6,-6 V 4 -2 H 4 Z" /><path
       id="path2333-1-9-9-6"
       style="fill:#3173c9;fill-opacity:1;stroke:none;stroke-width:2;stroke-linecap:round;stroke-linejoin:round;stroke-miterlimit:1.8;stroke-dasharray:none;stroke-opacity:1;paint-order:fill markers stroke;stop-color:#000000"
       d="m 4,-0.999999 c -1.662,0 -3,1.338001 -3,3 v 1 c -0.554,0 -1,0.446 -1,1 v 4 c 0,0.554 0.446,1 1,1 h 6 c 0.554,0 1,-0.446 1,-1 v -4 c 0,-0.554 -0.446,-1 -1,-1 v -1 c 0,-1.661999 -1.338,-3 -3,-3 z m 0,1 c 1.108,0 2,0.892001 2,2 v 1 H 2 v -1 c 0,-1.107999 0.892,-2 2,-2 z" /></g></svg>
