<?xml version="1.0" encoding="UTF-8" standalone="no"?>
<svg
   id="svg7"
   version="1.1"
   viewBox="0 0 22 22"
   sodipodi:docname="software-updates-inactive.svg"
   inkscape:version="1.4.2 (ebf0e940d0, 2025-05-08)"
   xmlns:inkscape="http://www.inkscape.org/namespaces/inkscape"
   xmlns:sodipodi="http://sodipodi.sourceforge.net/DTD/sodipodi-0.dtd"
   xmlns="http://www.w3.org/2000/svg"
   xmlns:svg="http://www.w3.org/2000/svg">
  <sodipodi:namedview
     id="namedview1"
     pagecolor="#ffffff"
     bordercolor="#000000"
     borderopacity="0.25"
     inkscape:showpageshadow="2"
     inkscape:pageopacity="0.0"
     inkscape:pagecheckerboard="0"
     inkscape:deskcolor="#d1d1d1"
     inkscape:zoom="26.772727"
     inkscape:cx="5.3972836"
     inkscape:cy="13.651953"
     inkscape:window-width="1920"
     inkscape:window-height="1006"
     inkscape:window-x="0"
     inkscape:window-y="0"
     inkscape:window-maximized="1"
     inkscape:current-layer="g1"
     showgrid="true">
    <inkscape:grid
       id="grid1"
       units="px"
       originx="0"
       originy="0"
       spacingx="1"
       spacingy="1"
       empcolor="#0099e5"
       empopacity="0.30196078"
       color="#0099e5"
       opacity="0.14902"
       empspacing="5"
       dotted="false"
       gridanglex="30"
       gridanglez="30"
       visible="true" />
  </sodipodi:namedview>
  <defs
     id="defs3">
    <style
       type="text/css"
       id="current-color-scheme">
        .ColorScheme-Text {            color:#232629;        }
    </style>
  </defs>
  <g
     id="g1"
     transform="translate(0.99999998,2)">
    <g
       id="g3"
       transform="matrix(0.89728353,0,0,0.89541596,-16.862478,-16.071647)">
      <g
         id="g2"
         transform="matrix(1,0,0,-1,18,40)">
        <g
           inkscape:label="Capa 1"
           id="layer1"
           transform="scale(3.7795276)">
          <path
             id="rect1728"
             style="opacity:1;fill:#a36c4c;fill-opacity:1;stroke-width:0.529167;stroke-linecap:round;stroke-linejoin:round;stroke-miterlimit:1.8;paint-order:fill markers stroke;stop-color:#000000"
             d="m 1.0583333,0.52916664 h 4.2333332 c 0.2931583,0 0.5291666,0.23600832 0.5291666,0.52916666 v 4.2333332 c 0,0.2931583 -0.2360083,0.5291666 -0.5291666,0.5291666 H 1.0583333 c -0.29315834,0 -0.52916666,-0.2360083 -0.52916666,-0.5291666 V 1.0583333 c 0,-0.29315834 0.23600832,-0.52916666 0.52916666,-0.52916666 z" />
          <path
             id="rect1728-7"
             style="fill:#ffc49c;fill-opacity:1;stroke-width:0.529167;stroke-linecap:round;stroke-linejoin:round;stroke-miterlimit:1.8;paint-order:fill markers stroke;stop-color:#000000"
             d="m 1.0583333,0.79374999 h 4.2333341 c 0.1465792,0 0.2645834,0.11800416 0.2645834,0.26458331 v 4.2333332 c 0,0.1465791 -0.1180042,0.2645833 -0.2645834,0.2645833 H 1.0583333 c -0.14657915,0 -0.26458331,-0.1180042 -0.26458331,-0.2645833 V 1.0583333 c 0,-0.14657915 0.11800416,-0.26458331 0.26458331,-0.26458331 z" />
        </g>
      </g>
      <path
         d="m 27.009338,18 v 1 1 1 7 c 0,1.66202 1.338,3 3,3 1.662,0 3,-1.33798 3,-3 v -7 -1 -1 -1 z"
         fill="#010102"
         id="path13"
         sodipodi:nodetypes="ccccsssccccc"
         style="fill:#36404d;fill-opacity:1" />
      <path
         d="m 28.009338,18.99992 v 2.99997 l -1e-6,6.00008 c 0,1.108 0.892,2.00002 2.000001,2.00002 1.108,0 2,-0.89202 2,-2.00002 v -6.00008 -2.99997 h -2 z"
         fill="url(#a)"
         id="path14"
         style="fill:#4b6477;fill-opacity:1"
         sodipodi:nodetypes="ccssscccc" />
      <path
         d="m 30.009338,19 h 1 z m 0,0 h -1 v 1 h 1 z m 0,1 v 1 h 1 v -1 z m 0,1 h -1 v 1 h 1 z m 0,1 v 1 h 1 v -1 z m 0,1 h -1 v 1 h 1 z m 0,1 v 1 h 1 v -1 z m 0,1 h -1 v 1 h 1 z m 0,1 v 1 h 1 v -1 z m 0,1 h -1 v 1 h 1 z m 0,1 v 1 h 1 v -1 z"
         fill="#fefefe"
         id="path15"
         sodipodi:nodetypes="ccccccccccccccccccccccccccccccccccccccccccccccccccccc"
         style="fill:#e6f9ff;fill-opacity:1" />
    </g>
  </g>
</svg>
