<?xml version="1.0" encoding="UTF-8" standalone="no"?>
<!-- Created with Inkscape (http://www.inkscape.org/) -->

<svg
   width="16"
   height="16"
   viewBox="0 0 16 16"
   version="1.1"
   id="svg1"
   inkscape:version="1.4.2 (ebf0e940d0, 2025-05-08)"
   sodipodi:docname="network-wired-activated-locked.svg"
   xmlns:inkscape="http://www.inkscape.org/namespaces/inkscape"
   xmlns:sodipodi="http://sodipodi.sourceforge.net/DTD/sodipodi-0.dtd"
   xmlns="http://www.w3.org/2000/svg"
   xmlns:svg="http://www.w3.org/2000/svg">
  <sodipodi:namedview
     id="namedview1"
     pagecolor="#ffffff"
     bordercolor="#000000"
     borderopacity="0.25"
     inkscape:showpageshadow="false"
     inkscape:pageopacity="0.0"
     inkscape:pagecheckerboard="true"
     inkscape:deskcolor="#d1d1d1"
     inkscape:document-units="px"
     inkscape:zoom="46.443345"
     inkscape:cx="14.436945"
     inkscape:cy="11.713196"
     inkscape:window-width="2560"
     inkscape:window-height="1367"
     inkscape:window-x="0"
     inkscape:window-y="0"
     inkscape:window-maximized="1"
     inkscape:current-layer="layer1"
     showgrid="true">
    <inkscape:grid
       id="grid2"
       units="px"
       originx="0"
       originy="0"
       spacingx="1"
       spacingy="1"
       empcolor="#0099e5"
       empopacity="0.30196078"
       color="#0099e5"
       opacity="0.14901961"
       empspacing="5"
       dotted="false"
       gridanglex="30"
       gridanglez="30"
       visible="true" />
  </sodipodi:namedview>
  <defs
     id="defs1" />
  <g
     inkscape:label="Capa 1"
     inkscape:groupmode="layer"
     id="layer1">
    <g
       id="g3"
       transform="matrix(0.69958276,0,0,0.69855746,0.30041739,0.30144254)">
      <g
         id="g1"
         transform="translate(-0.9999995,-32)">
        <path
           id="rect1728-9"
           style="fill:#a3b7cc;fill-opacity:1;stroke-width:2;stroke-linecap:round;stroke-linejoin:round;stroke-miterlimit:1.8;paint-order:fill markers stroke;stop-color:#000000"
           d="m 4,52.999999 h 16 c 1.108,0 1.999999,-0.892 1.999999,-2 v -16 C 21.999999,33.892 21.108,33 20,33 H 4 c -1.108,0 -2,0.892 -2,1.999999 v 16 c 0,1.108 0.892,2 2,2 z" />
        <path
           id="rect1728-7-3"
           style="fill:#f1f1f1;fill-opacity:1;stroke-width:2;stroke-linecap:round;stroke-linejoin:round;stroke-miterlimit:1.8;paint-order:fill markers stroke;stop-color:#000000"
           d="m 4,51.999999 h 16.000003 c 0.554,0 1,-0.446 1,-1 v -16 c 0,-0.553999 -0.446,-0.999999 -1,-0.999999 H 4 c -0.5539999,0 -0.9999999,0.446 -0.9999999,0.999999 v 16 c 0,0.554 0.446,1 0.9999999,1 z" />
        <path
           id="rect3959-7"
           style="fill:#363c4d;fill-opacity:1;stroke-width:2;stroke-linecap:round;stroke-linejoin:round;stroke-miterlimit:1.8;paint-order:fill markers stroke;stop-color:#000000"
           d="m 8.0000001,49.999999 v -1 h -3 v -1 0 -1 h -1 v -3 h 1 v -3 h -1 v -3 h 1 v -2 H 19 v 2 h 1 v 3 h -1 v 3 h 1 v 3 h -1 v 1 0 1 h -3 v 1 z"
           sodipodi:nodetypes="ccccccccccccccccccccccccccccc" />
        <path
           id="rect3970-4"
           style="fill:#ffd84d;fill-opacity:1;stroke-width:2;stroke-linecap:round;stroke-linejoin:round;stroke-miterlimit:1.8;paint-order:fill markers stroke;stop-color:#000000"
           d="m 7.0000001,41.999999 v -4 h 2 v 4 z m 3.9999999,0 v -4 h 2 v 4 z m 4,0 v -4 h 2 v 4 z" />
      </g>
      <g
         id="g2"
         transform="translate(2.000001,-3)">
        <path
           id="path2365-9"
           style="fill:#a3b7cc;fill-opacity:1;stroke:none;stroke-width:2;stroke-linecap:round;stroke-linejoin:round;stroke-miterlimit:1.8;stroke-dasharray:none;stroke-opacity:1;paint-order:fill markers stroke;stop-color:#000000"
           d="M 14.999999,13 C 12.784,13 11,14.784 11,17 v 1 h 2.999999 v -1 c 0,-0.554 0.446,-1 1,-1 0.554,0 1,0.446 1,1 v 1 h 3 v -1 c 0,-2.216 -1.784,-4 -4,-4 z" />
        <path
           id="path2333-7"
           style="fill:#e1ebf2;fill-opacity:1;stroke:none;stroke-width:2;stroke-linecap:round;stroke-linejoin:round;stroke-miterlimit:1.8;stroke-dasharray:none;stroke-opacity:1;paint-order:fill markers stroke;stop-color:#000000"
           d="M 14.999999,14 C 13.338,14 12,15.338 12,17 v 1 h 1 v -1 c 0,-1.108 0.892,-2 1.999999,-2 1.108,0 2,0.892 2,2 v 1 h 1 v -1 c 0,-1.662 -1.338,-3 -3,-3 z" />
        <path
           id="rect214703-6"
           style="fill:#f6ac23;fill-opacity:1;stroke:none;stroke-width:2;stroke-linecap:round;stroke-linejoin:round;stroke-miterlimit:1.8;stroke-dasharray:none;stroke-opacity:1;paint-order:fill markers stroke;stop-color:#000000"
           d="m 11,18 c -0.554,0 -1,0.446 -1,1 v 5 c 0,0.554 0.446,1 1,1 h 3.999999 4 c 0.554,0 1,-0.446 1,-1 v -5 c 0,-0.554 -0.446,-1 -1,-1 h -3 -2 z" />
        <path
           id="path2337-3"
           style="fill:#fcd277;fill-opacity:1;stroke:none;stroke-width:2;stroke-linecap:round;stroke-linejoin:round;stroke-miterlimit:1.8;stroke-dasharray:none;stroke-opacity:1;paint-order:fill markers stroke;stop-color:#000000"
           d="m 17.999999,19 h -1 H 13 12 11 v 5 h 3.999999 4 v -5 z" />
      </g>
    </g>
  </g>
</svg>
